<?xml version="1.0" standalone="no"?>
<!DOCTYPE svg PUBLIC "-//W3C//DTD SVG 1.1//EN" "http://www.w3.org/Graphics/SVG/1.1/DTD/svg11.dtd" >
<svg>
<metadata>
Created by FontForge 20090914 at Tue Jun 28 18:57:45 2022
 By www-data
VIP Hakm 2016
</metadata>
<defs>
<font id="VIPHakmRegular-VIPHakm" horiz-adv-x="0" >
  <font-face 
    font-family="VIPHakmRegular-VIPHakm"
    font-weight="400"
    font-stretch="normal"
    units-per-em="2048"
    panose-1="2 0 5 0 0 0 0 0 0 0"
    ascent="1638"
    descent="-410"
    x-height="1186"
    cap-height="1606"
    bbox="-119.998 -775.998 2688 2190"
    underline-thickness="300"
    underline-position="-284"
    unicode-range="U+001D-U+FEFC"
  />
<missing-glyph horiz-adv-x="1200" 
d="M598 988l452 712h-904zM0 0v1800h1200v-1800h-1200zM538 894l-438 690v-1378zM656 894l444 -698v1398zM598 802l-446 -702h890z" />
    <glyph glyph-name="uniFDF2" unicode="&#xfedf;&#xfee0;&#xfeea;" horiz-adv-x="2374" arabic-form="isolated" 
d="M1636 1872l5.99902 0.00195312c12 1.33301 21.333 6 28 14s10 16.667 10 26v150l64 6v-156c0 -22.667 -8.33301 -44.667 -25 -66s-39.667 -34 -69 -38h-12c-21.333 0 -40.666 5.33301 -57.999 16c0 -2.66699 -2 -5.33398 -6 -8.00098c-18.667 -24 -42.667 -38 -72 -42
h-14c-24 0 -45.333 8 -64 24c-24 16 -38 38 -42 66v70l64 6v-68c1.33301 -10.667 6.66602 -18.667 15.999 -24c6.66699 -6.66699 15.334 -10 26.001 -10h6c12 1.33301 22 6.66602 30 15.999c6.66699 9.33301 10 18 10 26v114l60 6v-94c2.66699 -9.33301 8 -17.333 16 -24
s16.667 -10 26 -10zM1534 2046v138l60 6v-144h-60zM741.999 0.00195312c-161.333 0 -298.666 57 -411.999 171s-170 251.333 -170 412s56.667 298 170 412s250.666 171 411.999 171h270v-1062h498v1502h104v-1502h496v1502h104v-1606h-1472zM909.999 104.002
l-0.000976562 956h-168c-132 0 -245 -47 -339 -141s-141 -207.333 -141 -340s46.333 -245 139 -337s202.334 -138 329.001 -138h180z" />
    <glyph glyph-name="uniFEF5" unicode="&#xfedf;&#xfe82;" horiz-adv-x="1414" arabic-form="isolated" 
d="M600 1710c23.333 0 41.499 -5.00098 54.499 -15.001l43.5 -33c26.667 -24 44.667 -36 54 -36h2c13.333 2.66699 28 23.334 44 62.001l16 36l66 -36l-16 -34c-25.333 -61.333 -56.666 -97.333 -93.999 -108h-18c-25.333 0 -54.666 14 -87.999 42s-54 42 -62 42h-2
c-9.33301 -1.33301 -20 -16 -32 -44l-16 -38l-66 36l16 36c21.333 52 48.666 82 81.999 90h16zM1150 103.999v1502h104v-1606h-1094v104h990zM619.999 207.999v1146h102v-1146h-102z" />
    <glyph glyph-name="uniFEF6" unicode="&#xfee0;&#xfe82;" horiz-adv-x="1526" arabic-form="final" 
d="M600 1710c23.333 0 41.499 -5.00098 54.499 -15.001l43.5 -33c26.667 -24 44.667 -36 54 -36h2c13.333 2.66699 28 23.334 44 62.001l16 36l66 -36l-16 -34c-25.333 -61.333 -56.666 -97.333 -93.999 -108h-18c-25.333 0 -54.666 14 -87.999 42s-54 42 -62 42h-2
c-9.33301 -1.33301 -20 -16 -32 -44l-16 -38l-66 36l16 36c21.333 52 48.666 82 81.999 90h16zM619.999 207.999v1146h102v-1146h-102zM1150 103.999v1502h104v-1502h282v-104h-1376v104h990z" />
    <glyph glyph-name="uniFEF7" unicode="&#xfedf;&#xfe84;" horiz-adv-x="1414" arabic-form="isolated" 
d="M620 208v1146h102v-1146h-102zM534 1705c0 38 15.001 72.001 45.001 102.001s65 45 105 45s78 -16 114 -48l-26 -74c-20 12 -34 22.333 -42 31s-22.333 13 -43 13s-38.334 -7.33301 -53.001 -22s-22 -32.334 -22 -53.001s7 -38 21 -52s29.667 -21.667 47 -23h132v-88
h-292v88h32c-12 16 -18 43 -18 81zM1150 104.001v1502h104v-1606h-1094v104h990z" />
    <glyph glyph-name="uniFEF8" unicode="&#xfee0;&#xfe84;" horiz-adv-x="1526" arabic-form="final" 
d="M620 208v1146h102v-1146h-102zM534 1705c0 38 15.001 72.001 45.001 102.001s65 45 105 45s78 -16 114 -48l-26 -74c-20 12 -34 22.333 -42 31s-22.333 13 -43 13s-38.334 -7.33301 -53.001 -22s-22 -32.334 -22 -53.001s7 -38 21 -52s29.667 -21.667 47 -23h132v-88
h-292v88h32c-12 16 -18 43 -18 81zM1150 104.001v1502h104v-1502h282v-104h-1376v104h990z" />
    <glyph glyph-name="uniFEF9" unicode="&#xfedf;&#xfe88;" horiz-adv-x="1414" arabic-form="isolated" 
d="M620 208v1146h102v-1146h-102zM1150 104v1502h104v-1606h-1094v104h990zM516 -208l-0.000976562 88.001h294v-88h-134c-16 -1.33301 -31 -9 -45 -23s-21 -31 -21 -51s7.33301 -37.333 22 -52s32 -22 52 -22s37.333 7.33301 52 22c2.66699 1.33301 14 8.66602 34 21.999
l26 -74c-37.333 -32 -75.666 -48 -114.999 -48s-74 15 -104 45s-45 64 -45 102s6 64.333 18 79h-34z" />
    <glyph glyph-name="uniFEFA" unicode="&#xfee0;&#xfe88;" horiz-adv-x="1526" arabic-form="final" 
d="M620 208v1146h102v-1146h-102zM516 -208l-0.000976562 88.001h294v-88h-134c-16 -1.33301 -31 -9 -45 -23s-21 -31 -21 -51s7.33301 -37.333 22 -52s32 -22 52 -22s37.333 7.33301 52 22c2.66699 1.33301 14 8.66602 34 21.999l26 -74
c-37.333 -32 -75.666 -48 -114.999 -48s-74 15 -104 45s-45 64 -45 102s6 64.333 18 79h-34zM1150 104.001v1502h104v-1502h282v-104h-1376v104h990z" />
    <glyph glyph-name="uniFEFB" unicode="&#xfedf;&#xfe8e;" horiz-adv-x="1414" arabic-form="isolated" 
d="M620 208v1146h102v-1146h-102zM1150 104v1502h104v-1606h-1094v104h990z" />
    <glyph glyph-name="uniFEFC" unicode="&#xfee0;&#xfe8e;" horiz-adv-x="1526" arabic-form="final" 
d="M620 208v1146h102v-1146h-102zM1150 104v1502h104v-1502h282v-104h-1376v104h990z" />
    <glyph glyph-name="glyph361" unicode="&#xfe8e;&#x64b;" horiz-adv-x="534" 
d="M394 2014l-356 -114l-18 62l358 114zM410 1872l-358 -112l-16 60l356 114zM262 104h282v-104h-384v1606h102v-1502z" />
    <glyph glyph-name="glyph362" unicode="&#x627;&#x64b;" horiz-adv-x="422" 
d="M394 2014l-356 -114l-18 62l358 114zM410 1872l-358 -112l-16 60l356 114zM160 0v1606h102v-1606h-102z" />
    <glyph glyph-name="uni0621" unicode="&#x621;" horiz-adv-x="1082" arabic-form="isolated" 
d="M270 406c0 -82.667 33.6689 -151.999 101.002 -207.999s163.666 -87.333 288.999 -94h262v-104h-762v104h166c-105.333 75.333 -158 171.5 -158 288.5s38 216.167 114 297.5c84 85.333 187.667 128 311 128s231 -35.333 323 -106l-66 -76
c-87.333 53.333 -167.833 80 -241.5 80s-135.834 -15.333 -186.501 -46s-88.667 -69.334 -114 -116.001s-38 -96 -38 -148z" />
    <glyph glyph-name="uni0622" unicode="&#x622;" horiz-adv-x="422" arabic-form="isolated" 
d="M134 1920c23.333 0 41.499 -5.00098 54.499 -15.001l43.5 -33c26.667 -24 44.667 -36 54 -36h2c13.333 2.66699 28 23.334 44 62.001l16 36l66 -36l-16 -34c-25.333 -61.333 -56.666 -97.333 -93.999 -108h-18c-25.333 0 -54.666 14 -87.999 42s-54 42 -62 42h-2
c-9.33301 -1.33301 -20 -16 -32 -44l-16 -38l-66 36l16 36c21.333 52 48.666 82 81.999 90h16zM159.999 -0.000976562v1606h102v-1606h-102z" />
    <glyph glyph-name="uni0623" unicode="&#x623;" horiz-adv-x="422" arabic-form="isolated" 
d="M96 1915c0 38 15.001 72.001 45.001 102.001s64.667 45 104 45s77.666 -16 114.999 -48l-26 -74c-20 12 -34.333 22.333 -43 31s-23 13 -43 13s-37.333 -7.33301 -52 -22s-22 -32.334 -22 -53.001s7 -38 21 -52s29 -21.667 45 -23h134v-88h-294v88h34
c-12 16 -18 43 -18 81zM160.001 0.000976562v1606h102v-1606h-102z" />
    <glyph glyph-name="uni0624" unicode="&#x624;" horiz-adv-x="1172" arabic-form="isolated" 
d="M302 1455c0 38 15.001 72.001 45.001 102.001s65 45 105 45s78 -16 114 -48l-26 -74c-20 12 -34 22.333 -42 31s-22.333 13 -43 13s-38.334 -7.33301 -53.001 -22s-22 -32.334 -22 -53.001s7 -38 21 -52s29.667 -21.667 47 -23h132v-88h-292v88h32c-12 16 -18 43 -18 81z
M1012 -89.999c0 -97.333 -40.001 -179.333 -120.001 -246s-174.667 -100 -284 -100c-69.333 0 -134 14 -194 42s-109.333 67.333 -148 118l-30 40l82 62l30 -40c62.667 -80 149.334 -120 260.001 -120c84 0 155.333 24 214 72s88 105.333 88 172v90h-168
c-161.333 0 -298.666 57 -411.999 171s-170 251.333 -170 412s56.667 298 170 412s250.666 171 411.999 171h270v-1256zM910 104.001l-0.000976562 956h-168c-132 0 -245 -47 -339 -141s-141 -207.333 -141 -340s46.333 -245 139 -337s202.334 -138 329.001 -138h180z" />
    <glyph glyph-name="uni0625" unicode="&#x625;" horiz-adv-x="422" arabic-form="isolated" 
d="M60 -208l-0.000976562 88.001h294v-88h-134c-16 -1.33301 -31 -9 -45 -23s-21 -31 -21 -51s7.33301 -37.333 22 -52s32 -22 52 -22s37.333 7.33301 52 22c2.66699 1.33301 14 8.66602 34 21.999l26 -74c-37.333 -32 -75.666 -48 -114.999 -48s-74 15 -104 45
s-45 64 -45 102s6 64.333 18 79h-34zM261.999 1606v-1606h-102v1606h102z" />
    <glyph glyph-name="uni0626" unicode="&#x626;" horiz-adv-x="1606" arabic-form="isolated" 
d="M312 1325c0 38 15.001 72.001 45.001 102.001s64.667 45 104 45s77.666 -16 114.999 -48l-26 -74c-20 12 -34.333 22.333 -43 31s-23 13 -43 13s-37.333 -7.33301 -52 -22s-22 -32.334 -22 -53.001s7 -38 21 -52s29 -21.667 45 -23h134v-88h-294v88h34
c-12 16 -18 43 -18 81zM1342 632.001l-527.999 -0.000976562v198c0 117.333 43 216 129 296s187 122 303 126v-102c-56 -2.66699 -109.333 -17.667 -160 -45s-91.667 -65.666 -123 -114.999s-47 -102.666 -47 -159.999v-96h530v-734h-494
c-214.667 2.66699 -398 64.334 -550 185.001c-74.667 59.333 -133.667 128.666 -177 207.999s-65 163.666 -65 252.999v338h102v-338c0 -148 68.667 -275.333 206 -382s302.666 -160 495.999 -160h378v528z" />
    <glyph glyph-name="uni0627" unicode="&#x627;" horiz-adv-x="422" arabic-form="isolated" 
d="M160 0v1606h102v-1606h-102z" />
    <glyph glyph-name="uni0628" unicode="&#x628;" horiz-adv-x="1706" arabic-form="isolated" 
d="M912 -344v142h118v-142h-118zM1442 104l0.000976562 1062h104v-1166h-594c-214.667 2.66699 -398 64.334 -550 185.001c-74.667 59.333 -133.667 128.666 -177 207.999s-65 163.666 -65 252.999v338h102v-338c0 -148 68.667 -275.333 206 -382s302.666 -160 495.999 -160
h478z" />
    <glyph glyph-name="uni0629" unicode="&#x629;" horiz-adv-x="1172" arabic-form="isolated" 
d="M854 1358v142h120v-142h-120zM514 1358v142h120v-142h-120zM742 0c-161.333 0 -298.666 57 -411.999 171s-170 251.333 -170 412s56.667 298 170 412s250.666 171 411.999 171h270v-1166h-270zM910 104l-0.000976562 956h-168c-132 0 -245 -47 -339 -141
s-141 -207.333 -141 -340s46.333 -245 139 -337s202.334 -138 329.001 -138h180z" />
    <glyph glyph-name="uni062A" unicode="&#x62a;" horiz-adv-x="1706" arabic-form="isolated" 
d="M1004 1358v142h120v-142h-120zM664 1358v142h120v-142h-120zM1442 104l0.000976562 1062h104v-1166h-594c-214.667 2.66699 -398 64.334 -550 185.001c-74.667 59.333 -133.667 128.666 -177 207.999s-65 163.666 -65 252.999v338h102v-338
c0 -148 68.667 -275.333 206 -382s302.666 -160 495.999 -160h478z" />
    <glyph glyph-name="uni062B" unicode="&#x62b;" horiz-adv-x="1706" arabic-form="isolated" 
d="M1004 1358v142h120v-142h-120zM664 1358v142h120v-142h-120zM1442 104l0.000976562 1062h104v-1166h-594c-214.667 2.66699 -398 64.334 -550 185.001c-74.667 59.333 -133.667 128.666 -177 207.999s-65 163.666 -65 252.999v338h102v-338
c0 -148 68.667 -275.333 206 -382s302.666 -160 495.999 -160h478zM834.001 1656v142h118v-142h-118z" />
    <glyph glyph-name="uni062C" unicode="&#x62c;" horiz-adv-x="1638" arabic-form="isolated" 
d="M638 0c-112 0 -195.334 -14.3301 -250.001 -42.9971s-92 -78.334 -112 -149.001c-8 -32 -12 -63.333 -12 -94c0 -66.667 21.333 -128 64 -184c62.667 -82.667 162 -142 298 -178l106 -26l-16 -102l-116 32c-169.333 45.333 -291.333 122.666 -366 231.999
c-49.333 69.333 -74 146.666 -74 231.999c0 38.667 5.33301 76.667 16 114c32 126 116 207.333 252 244c58.667 17.333 151.334 26 278.001 26h622c-9.33301 24 -14 52 -14 84v430c0 132 -47.333 244.667 -142 338s-207.667 140 -339 140s-244.333 -46.667 -339 -140
s-142 -206 -142 -338v-74h-102v74c0 158.667 57 295 171 409s251.333 171 412 171s298 -57 412 -171s171 -250.333 171 -409v-430c0 -54.667 20 -82.667 60 -84v-104h-838zM751.999 -341.997v142h118v-142h-118z" />
    <glyph glyph-name="uni062D" unicode="&#x62d;" horiz-adv-x="1638" arabic-form="isolated" 
d="M638 0c-112 0 -195.334 -14.3301 -250.001 -42.9971s-92 -78.334 -112 -149.001c-8 -32 -12 -63.333 -12 -94c0 -66.667 21.333 -128 64 -184c62.667 -82.667 162 -142 298 -178l106 -26l-16 -102l-116 32c-169.333 45.333 -291.333 122.666 -366 231.999
c-49.333 69.333 -74 146.666 -74 231.999c0 38.667 5.33301 76.667 16 114c32 126 116 207.333 252 244c58.667 17.333 151.334 26 278.001 26h622c-9.33301 24 -14 52 -14 84v430c0 132 -47.333 244.667 -142 338s-207.667 140 -339 140s-244.333 -46.667 -339 -140
s-142 -206 -142 -338v-74h-102v74c0 158.667 57 295 171 409s251.333 171 412 171s298 -57 412 -171s171 -250.333 171 -409v-430c0 -54.667 20 -82.667 60 -84v-104h-838z" />
    <glyph glyph-name="uni062E" unicode="&#x62e;" horiz-adv-x="1638" arabic-form="isolated" 
d="M768 1366v142h120v-142h-120zM638 0c-112 0 -195.334 -14.3301 -250.001 -42.9971s-92 -78.334 -112 -149.001c-8 -32 -12 -63.333 -12 -94c0 -66.667 21.333 -128 64 -184c62.667 -82.667 162 -142 298 -178l106 -26l-16 -102l-116 32
c-169.333 45.333 -291.333 122.666 -366 231.999c-49.333 69.333 -74 146.666 -74 231.999c0 38.667 5.33301 76.667 16 114c32 126 116 207.333 252 244c58.667 17.333 151.334 26 278.001 26h622c-9.33301 24 -14 52 -14 84v430c0 132 -47.333 244.667 -142 338
s-207.667 140 -339 140s-244.333 -46.667 -339 -140s-142 -206 -142 -338v-74h-102v74c0 158.667 57 295 171 409s251.333 171 412 171s298 -57 412 -171s171 -250.333 171 -409v-430c0 -54.667 20 -82.667 60 -84v-104h-838z" />
    <glyph glyph-name="uni062F" unicode="&#x62f;" horiz-adv-x="1142" arabic-form="isolated" 
d="M160 0v104h720v518c0 132 -47 244.667 -141 338s-207 140 -339 140v102c160 0 297 -57 411 -171s171 -250.333 171 -409v-622h-822z" />
    <glyph glyph-name="uni0630" unicode="&#x630;" horiz-adv-x="1142" arabic-form="isolated" 
d="M494 1358v142h120v-142h-120zM160 0v104h720v518c0 132 -47 244.667 -141 338s-207 140 -339 140v102c160 0 297 -57 411 -171s171 -250.333 171 -409v-622h-822z" />
    <glyph glyph-name="uni0631" unicode="&#x631;" horiz-adv-x="680" arabic-form="isolated" 
d="M418 -90l0.000976562 1256h102v-1256c0 -97.333 -40 -180 -120 -248c-69.333 -56 -149.333 -88 -240 -96v102c65.333 8 124.666 33.667 177.999 77s80 98.333 80 165z" />
    <glyph glyph-name="uni0632" unicode="&#x632;" horiz-adv-x="694" arabic-form="isolated" 
d="M414 1348v142h120v-142h-120zM418 -90l0.000976562 1256h102v-1256c0 -97.333 -40 -180 -120 -248c-69.333 -56 -149.333 -88 -240 -96v102c65.333 8 124.666 33.667 177.999 77s80 98.333 80 165z" />
    <glyph glyph-name="uni0633" unicode="&#x633;" horiz-adv-x="2568" arabic-form="isolated" 
d="M1222 1162l104.001 0.000976562v-1058h438v1058h102v-1058h440v1062h102v-1166h-1082v-350h-374c-214.667 2.66699 -398 64.334 -550 185.001c-74.667 59.333 -133.667 128.666 -177 207.999s-65 163.666 -65 252.999v338h102v-338c0 -148 68.667 -275.333 206 -382
s302.666 -160 495.999 -160h258v1408z" />
    <glyph glyph-name="uni0634" unicode="&#x634;" horiz-adv-x="2568" arabic-form="isolated" 
d="M1592 1358v142h118v-142h-118zM1932 1358v142h118v-142h-118zM1760 1656v142h120v-142h-120zM1222 1162l104.001 0.000976562v-1058h438v1058h102v-1058h440v1062h102v-1166h-1082v-350h-374c-214.667 2.66699 -398 64.334 -550 185.001
c-74.667 59.333 -133.667 128.666 -177 207.999s-65 163.666 -65 252.999v338h102v-338c0 -148 68.667 -275.333 206 -382s302.666 -160 495.999 -160h258v1408z" />
    <glyph glyph-name="uni0635" unicode="&#x635;" horiz-adv-x="2548" arabic-form="isolated" 
d="M1222 1198h102.001v-250c20 28 43.333 54.667 70 80c113.333 113.333 250.333 170 411 170s298 -56.667 412 -170s171 -250.666 171 -411.999v-616h-1062v-350h-374c-214.667 2.66699 -398 64.334 -550 185.001c-74.667 59.333 -133.667 128.666 -177 207.999
s-65 163.666 -65 252.999v338h102v-338c0 -148 68.667 -275.333 206 -382s302.666 -160 495.999 -160h258v1444zM1326 104l960 0.00195312v512c0 133.333 -47 246.666 -141 339.999s-207 140 -339 140c-88 0 -168.667 -21.333 -242 -64s-130.333 -98.334 -171 -167.001
s-63 -141 -67 -217v-544z" />
    <glyph glyph-name="uni0636" unicode="&#x636;" horiz-adv-x="2548" arabic-form="isolated" 
d="M1222 1198h102.001v-250c20 28 43.333 54.667 70 80c113.333 113.333 250.333 170 411 170s298 -56.667 412 -170s171 -250.666 171 -411.999v-616h-1062v-350h-374c-214.667 2.66699 -398 64.334 -550 185.001c-74.667 59.333 -133.667 128.666 -177 207.999
s-65 163.666 -65 252.999v338h102v-338c0 -148 68.667 -275.333 206 -382s302.666 -160 495.999 -160h258v1444zM1326 104l960 0.00195312v512c0 133.333 -47 246.666 -141 339.999s-207 140 -339 140c-88 0 -168.667 -21.333 -242 -64s-130.333 -98.334 -171 -167.001
s-63 -141 -67 -217v-544zM1754 1358v142h120v-142h-120z" />
    <glyph glyph-name="uni0637" unicode="&#x637;" horiz-adv-x="1634" arabic-form="isolated" 
d="M246 104c41.333 0 62 27.332 62 81.999v1420h102v-658c20 28 43.333 54.667 70 80c113.333 113.333 250.333 170 411 170s298 -56.667 412 -170s171 -250.666 171 -411.999v-616h-1314v104h86zM410 103.999l961.999 0.000976562v512c0 133.333 -47 246.666 -141 339.999
s-207 140 -339 140c-88 0 -168.667 -21.333 -242 -64s-131.666 -100.667 -174.999 -174s-65 -154 -65 -242v-512z" />
    <glyph glyph-name="uni0638" unicode="&#x638;" horiz-adv-x="1634" arabic-form="isolated" 
d="M840 1358v142h120v-142h-120zM246 104c41.333 0 62 27.332 62 81.999v1420h102v-658c20 28 43.333 54.667 70 80c113.333 113.333 250.333 170 411 170s298 -56.667 412 -170s171 -250.666 171 -411.999v-616h-1314v104h86zM410 103.999l961.999 0.000976562v512
c0 133.333 -47 246.666 -141 339.999s-207 140 -339 140c-88 0 -168.667 -21.333 -242 -64s-131.666 -100.667 -174.999 -174s-65 -154 -65 -242v-512z" />
    <glyph glyph-name="uni0639" unicode="&#x639;" horiz-adv-x="1506" arabic-form="isolated" 
d="M306 583c0 160.667 56.998 298.003 170.998 412.003s247 171 399 171s281.333 -46.667 388 -140l-14 -128c-8 8 -16 16.667 -24 26c-94.667 93.333 -207.667 140 -339 140s-244 -47.333 -338 -142s-141 -207.667 -141 -339s44.667 -242 134 -332s192 -139 308 -147h496
v-104h-708c-112 0 -195.333 -14.333 -250 -43s-92 -78.334 -112 -149.001c-8 -32 -12 -63.333 -12 -94c0 -66.667 21.333 -128 64 -184c62.667 -82.667 162 -142 298 -178l106 -26l-16 -102l-116 32c-169.333 45.333 -291.333 122.666 -366 231.999
c-49.333 69.333 -74 146.666 -74 231.999c0 38.667 5.33301 76.667 16 114c40.667 159.333 165.334 247.333 374.001 264h10c-29.333 24 -56.666 48.667 -81.999 74c-114.667 113.333 -172 250.333 -172 411z" />
    <glyph glyph-name="uni063A" unicode="&#x63a;" horiz-adv-x="1506" arabic-form="isolated" 
d="M306 583c0 160.667 56.998 298.003 170.998 412.003s247 171 399 171s281.333 -46.667 388 -140l-14 -128c-8 8 -16 16.667 -24 26c-94.667 93.333 -207.667 140 -339 140s-244 -47.333 -338 -142s-141 -207.667 -141 -339s44.667 -242 134 -332s192 -139 308 -147h496
v-104h-708c-112 0 -195.333 -14.333 -250 -43s-92 -78.334 -112 -149.001c-8 -32 -12 -63.333 -12 -94c0 -66.667 21.333 -128 64 -184c62.667 -82.667 162 -142 298 -178l106 -26l-16 -102l-116 32c-169.333 45.333 -291.333 122.666 -366 231.999
c-49.333 69.333 -74 146.666 -74 231.999c0 38.667 5.33301 76.667 16 114c40.667 159.333 165.334 247.333 374.001 264h10c-29.333 24 -56.666 48.667 -81.999 74c-114.667 113.333 -172 250.333 -172 411zM821.998 1358v142h120v-142h-120z" />
    <glyph glyph-name="uni0641" unicode="&#x641;" horiz-adv-x="2254" arabic-form="isolated" 
d="M1242 583c0 160.667 56.6689 298.001 170.002 412.001s250.666 171 411.999 171h270v-1166h-1142c-214.667 2.66699 -398 64.334 -550 185.001c-74.667 59.333 -133.667 128.666 -177 207.999s-65 163.666 -65 252.999v338h102v-338c0 -148 68.667 -275.333 206 -382
s302.666 -160 495.999 -160h528c-28 20 -54.667 42.667 -80 68c-113.333 113.333 -170 250.333 -170 411zM1704 1356v144h120v-144h-120zM1992 1060l-168 -0.000976562c-132 0 -245 -47 -339 -141s-141 -207.333 -141 -340s47.333 -245.667 142 -339
c77.333 -77.333 168 -122.666 272 -135.999h234v956z" />
    <glyph glyph-name="uni0642" unicode="&#x642;" horiz-adv-x="1686" arabic-form="isolated" 
d="M1004 1356v144h120v-144h-120zM1344 1356v144h120v-144h-120zM1422 0l-167.999 0.000976562c-160 0 -296.667 57 -410 171s-170 251.333 -170 412s56.667 298 170 412s250 171 410 171h272v-1516h-574c-214.667 2.66699 -398 64.334 -550 185.001
c-74.667 59.333 -133.667 128.666 -177 207.999s-65 163.666 -65 252.999v338h102v-338c0 -148 68.667 -275.333 206 -382s302.666 -160 495.999 -160h458v246zM1422 1060h-168c-132 0 -244.667 -47 -338 -141s-140 -207.333 -140 -340s46 -245 138 -337s202 -138 330 -138
h178v956z" />
    <glyph glyph-name="uni0643" unicode="&#x643;" horiz-adv-x="1706" arabic-form="isolated" 
d="M772 1135c0 38 15.001 72.001 45.001 102.001s64.667 45 104 45s77.666 -16 114.999 -48l-26 -74c-20 12 -34.333 22.333 -43 31s-23 13 -43 13s-37.333 -7.33301 -52 -22s-22 -32.334 -22 -53.001s7 -38 21 -52s29 -21.667 45 -23h134v-88h-294v88h34
c-12 16 -18 43 -18 81zM1442 104.001l0.000976562 1502h104v-1606h-594c-214.667 2.66699 -398 64.334 -550 185.001c-74.667 59.333 -133.667 128.666 -177 207.999s-65 163.666 -65 252.999v338h102v-338c0 -148 68.667 -275.333 206 -382s302.666 -160 495.999 -160h478z
" />
    <glyph glyph-name="uni0644" unicode="&#x644;" horiz-adv-x="1386" arabic-form="isolated" 
d="M1122 1606l104.001 0.000976562v-1956h-274c-214.667 2.66699 -398 64.334 -550 185.001c-74.667 59.333 -133.667 128.666 -177 207.999s-65 163.666 -65 252.999v338h102v-338c0 -148 68.667 -275.333 206 -382s302.666 -160 495.999 -160h158v1852z" />
    <glyph glyph-name="uni0645" unicode="&#x645;" horiz-adv-x="1728" arabic-form="isolated" 
d="M1055 1186c70 0 136.668 -15.668 200.001 -47.001s118.333 -74.333 165 -129c98.667 -116 148 -249.667 148 -401s-37.333 -279.666 -112 -384.999l-92 -104c-93.333 -78.667 -196.333 -118 -309 -118s-215.667 39.333 -309 118l-92 104
c-74.667 105.333 -112 228.666 -112 369.999c0 72 10 140 30 204c-53.333 -2.66699 -104 -19 -152 -49s-86.333 -71.667 -115 -125s-43 -112 -43 -176v-792h-102v792c0 124 41 230.333 123 319s181.667 133 299 133h32c21.333 38.667 46.666 75.334 75.999 110.001
c103.333 117.333 225 176 365 176zM1055 1084c-112.667 0 -209.333 -47.667 -290 -143s-121 -211 -121 -347c0 -88 18.667 -169.667 56 -245s87.333 -135 150 -179s126.334 -66 191.001 -66c122.667 0 224.167 48.167 304.5 144.5s120.5 212 120.5 347
s-40.333 250.167 -121 345.5s-177.334 143 -290.001 143z" />
    <glyph glyph-name="uni0646" unicode="&#x646;" horiz-adv-x="1386" arabic-form="isolated" 
d="M642 1358v142h120v-142h-120zM1122 1166l104.001 0.000976562v-1516h-274c-214.667 2.66699 -398 64.334 -550 185.001c-74.667 59.333 -133.667 128.666 -177 207.999s-65 163.666 -65 252.999v338h102v-338c0 -148 68.667 -275.333 206 -382s302.666 -160 495.999 -160
h158v1412z" />
    <glyph glyph-name="uni0647" unicode="&#x647;" horiz-adv-x="1172" arabic-form="isolated" 
d="M742 0c-161.333 0 -298.666 57 -411.999 171s-170 251.333 -170 412s56.667 298 170 412s250.666 171 411.999 171h270v-1166h-270zM910 104l-0.000976562 956h-168c-132 0 -245 -47 -339 -141s-141 -207.333 -141 -340s46.333 -245 139 -337s202.334 -138 329.001 -138
h180z" />
    <glyph glyph-name="uni0648" unicode="&#x648;" horiz-adv-x="1172" arabic-form="isolated" 
d="M1012 -90c0 -97.333 -40.001 -179.333 -120.001 -246s-174.667 -100 -284 -100c-69.333 0 -134 14 -194 42s-109.333 67.333 -148 118l-30 40l82 62l30 -40c62.667 -80 149.334 -120 260.001 -120c84 0 155.333 24 214 72s88 105.333 88 172v90h-168
c-161.333 0 -298.666 57 -411.999 171s-170 251.333 -170 412s56.667 298 170 412s250.666 171 411.999 171h270v-1256zM909.999 104l-0.000976562 956h-168c-132 0 -245 -47 -339 -141s-141 -207.333 -141 -340s46.333 -245 139 -337s202.334 -138 329.001 -138h180z" />
    <glyph glyph-name="uni0649" unicode="&#x649;" horiz-adv-x="1606" arabic-form="isolated" 
d="M1342 632l-527.999 -0.000976562v198c0 117.333 43 216 129 296s187 122 303 126v-102c-56 -2.66699 -109.333 -17.667 -160 -45s-91.667 -65.666 -123 -114.999s-47 -102.666 -47 -159.999v-96h530v-734h-494c-214.667 2.66699 -398 64.334 -550 185.001
c-74.667 59.333 -133.667 128.666 -177 207.999s-65 163.666 -65 252.999v338h102v-338c0 -148 68.667 -275.333 206 -382s302.666 -160 495.999 -160h378v528z" />
    <glyph glyph-name="uni064A" unicode="&#x64a;" horiz-adv-x="1606" arabic-form="isolated" 
d="M844 -342v142h118v-142h-118zM1184 -342v142h118v-142h-118zM1342 632l-527.999 -0.000976562v198c0 117.333 43 216 129 296s187 122 303 126v-102c-56 -2.66699 -109.333 -17.667 -160 -45s-91.667 -65.666 -123 -114.999s-47 -102.666 -47 -159.999v-96h530v-734h-494
c-214.667 2.66699 -398 64.334 -550 185.001c-74.667 59.333 -133.667 128.666 -177 207.999s-65 163.666 -65 252.999v338h102v-338c0 -148 68.667 -275.333 206 -382s302.666 -160 495.999 -160h378v528z" />
    <glyph glyph-name="uni064B" unicode="&#xfe70;" horiz-adv-x="390" arabic-form="isolated" 
d="M374 1454l-356 -114l-18 62l358 114zM390 1312l-358 -112l-16 60l356 114z" />
    <glyph glyph-name="uni064C" unicode="&#xfe72;" horiz-adv-x="532" arabic-form="isolated" 
d="M204 1398c0 24 5.33398 47.999 16.001 71.999c18.667 42.667 49.334 72.667 92.001 90c20 8 40.333 12 61 12s41.667 -4.66699 63 -14c41.333 -17.333 70 -48 86 -92c6.66699 -20 10 -40.667 10 -62s-5.66699 -44.666 -17 -69.999s-29 -47.333 -53 -66
s-76 -34.667 -156 -48l-30 -12c-28 -12 -51.333 -18 -70 -18s-32 2 -40 6c-28.667 14.667 -45.5 36.667 -50.5 66s-10.833 47.333 -17.5 54h-6c-8 0 -20.667 -3.33301 -38 -10l-30 -12l-24 58l28 12c25.333 10.667 47.666 16 66.999 16c35.333 0 60.333 -22 75 -66l8 -38
c1.33301 -8 4.66602 -14.667 9.99902 -20c5.33301 -2.66699 11.5 -4 18.5 -4s25.5 6 55.5 18c-38.667 31.333 -58 74 -58 128zM374.001 1510c-13.333 0 -26.667 -2.66699 -40 -8c-28 -10.667 -47.333 -30 -58 -58c-6.66699 -16 -10 -30.667 -10 -44
c0 -47.333 19.333 -80 58 -98c10.667 -4 23 -6 37 -6s27.667 2.66699 41 8c45.333 19.333 68 54 68 104c0 10.667 -2 22.667 -6 36c-15.333 44 -45.333 66 -90 66z" />
    <glyph glyph-name="uni064D" unicode="&#xfe74;" horiz-adv-x="390" arabic-form="isolated" 
d="M374 -62l-356 -114l-18 62l358 114zM390 -204l-358 -112l-16 60l356 114z" />
    <glyph glyph-name="uni064E" unicode="&#xfe76;" horiz-adv-x="390" arabic-form="isolated" 
d="M390 1312l-358 -112l-16 60l356 114z" />
    <glyph glyph-name="uni064F" unicode="&#xfe78;" horiz-adv-x="380" arabic-form="isolated" 
d="M56 1433c0 47.333 16 87.667 48 121s70.333 50 115 50s82.667 -16.667 114 -50s47 -69.333 47 -108c0 -76.667 -26 -130 -78 -160c-13.333 -6.66699 -24 -11.334 -32 -14.001l-252 -82l-18 64l128 40c-10.667 6.66699 -18.667 13.334 -24 20.001
c-32 32 -48 71.667 -48 119zM218 1542c-28 0 -51.667 -10.667 -71 -32s-29 -46.666 -29 -75.999s9.66699 -55 29 -77s43 -33 71 -33s52.667 10.667 74 32c18.667 22.667 28 48.667 28 78s-9.33301 54.666 -28 75.999c-21.333 21.333 -46 32 -74 32z" />
    <glyph glyph-name="uni0650" unicode="&#xfe7a;" horiz-adv-x="390" arabic-form="isolated" 
d="M374 -62l-356 -114l-18 62l358 114z" />
    <glyph glyph-name="uni0651" unicode="&#xfe7c;" horiz-adv-x="362" arabic-form="isolated" 
d="M254 1290h5.99902c12 1.33301 21.333 6 28 14s10 16.667 10 26v148l64 8v-156c0 -22.667 -8.33301 -44.667 -25 -66s-39.667 -34 -69 -38h-12c-21.333 0 -40.666 5.33301 -57.999 16c0 -2.66699 -2 -6 -6 -10c-23.333 -28 -49.5 -42 -78.5 -42s-52.833 8 -71.5 24
c-24 17.333 -38 39.333 -42 66v70l64 6v-68c3.33301 -21.333 17.333 -32 42 -32h6c26.667 2.66699 40 16.667 40 42v114l60 6v-94c5.33301 -22.667 19.333 -34 42 -34z" />
    <glyph glyph-name="uni0652" unicode="&#xfe7e;" horiz-adv-x="324" arabic-form="isolated" 
d="M62 1364c0 -29.333 9.66699 -55 29 -77s43 -33 71 -33s52 11 72 33s30 47.667 30 77s-10 54.666 -30 75.999s-44 32 -72 32s-51.667 -10.667 -71 -32s-29 -46.666 -29 -75.999zM0 1365c0 47.333 16 87.334 48 120.001s70 49 114 49s82 -16.333 114 -49
s48 -68.667 48 -108c0 -75.333 -26.667 -129 -80 -161c-25.333 -14.667 -56.333 -22 -93 -22s-71 16.667 -103 50s-48 73.666 -48 120.999z" />
    <glyph glyph-name="uni067E" unicode="&#x67e;" horiz-adv-x="858" arabic-form="isolated" 
d="M578 1358v142h120v-142h-120zM238 1358v142h120v-142h-120zM408 1656v142h118v-142h-118zM418 -90l0.000976562 1256h102v-1256c0 -97.333 -40 -180 -120 -248c-69.333 -56 -149.333 -88 -240 -96v102c65.333 8 124.666 33.667 177.999 77s80 98.333 80 165z" />
    <glyph glyph-name="uni0686" unicode="&#x686;" horiz-adv-x="1638" arabic-form="isolated" 
d="M1092 -342v142h124v-142h-124zM1046 -498v-142h-120v142h120zM752 -342v142h124v-142h-124zM638 0c-112 0 -195.334 -14.3301 -250.001 -42.9971s-92 -78.334 -112 -149.001c-8 -32 -12 -63.333 -12 -94c0 -66.667 21.333 -128 64 -184c62.667 -82.667 162 -142 298 -178
l106 -26l-16 -102l-116 32c-169.333 45.333 -291.333 122.666 -366 231.999c-49.333 69.333 -74 146.666 -74 231.999c0 38.667 5.33301 76.667 16 114c32 126 116 207.333 252 244c58.667 17.333 151.334 26 278.001 26h622c-9.33301 24 -14 52 -14 84v430
c0 132 -47.333 244.667 -142 338s-207.667 140 -339 140s-244.333 -46.667 -339 -140s-142 -206 -142 -338v-74h-102v74c0 158.667 57 295 171 409s251.333 171 412 171s298 -57 412 -171s171 -250.333 171 -409v-430c0 -54.667 20 -82.667 60 -84v-104h-838z" />
    <glyph glyph-name="uni0698" unicode="&#x698;" horiz-adv-x="1706" arabic-form="isolated" 
d="M1102 -342v142h124v-142h-124zM1056 -498v-142h-120v142h120zM762 -342v142h124v-142h-124zM1442 104l0.000976562 1062h104v-1166h-594c-214.667 2.66699 -398 64.334 -550 185.001c-74.667 59.333 -133.667 128.666 -177 207.999s-65 163.666 -65 252.999v338h102v-338
c0 -148 68.667 -275.333 206 -382s302.666 -160 495.999 -160h478z" />
    <glyph glyph-name="uni06A4" unicode="&#x6a4;" horiz-adv-x="2254" arabic-form="isolated" 
d="M1660 1500v-144h-118v144h118zM2000 1500v-144h-118v144h118zM1710 1654v144h120v-144h-120zM1242 583c0 160.667 56.6689 298.001 170.002 412.001s250.666 171 411.999 171h270v-1166h-1142c-214.667 2.66699 -398 64.334 -550 185.001
c-74.667 59.333 -133.667 128.666 -177 207.999s-65 163.666 -65 252.999v338h102v-338c0 -148 68.667 -275.333 206 -382s302.666 -160 495.999 -160h528c-28 20 -54.667 42.667 -80 68c-113.333 113.333 -170 250.333 -170 411zM1992 1060l-168 -0.000976562
c-132 0 -245 -47 -339 -141s-141 -207.333 -141 -340s47.333 -245.667 142 -339c77.333 -77.333 168 -122.666 272 -135.999h234v956z" />
    <glyph glyph-name="uniFB51" unicode="&#x671;" horiz-adv-x="534" arabic-form="final" 
d="M72 1828l-0.00195312 256h64v-70c26.667 26.667 61.334 40 104.001 40s80.334 -16 113.001 -48s49 -70.667 49 -116v-124h-362v62h32zM135.998 1828h202v62c0 28 -10 52 -30 72s-41.333 30 -64 30s-41.667 -4.66699 -57 -14c-34 -20.667 -51 -50 -51 -88v-62z
M261.998 104h282v-104h-384v1606h102v-1502z" />
    <glyph glyph-name="uniFB57" unicode="&#x67e;" horiz-adv-x="1818" arabic-form="final" 
d="M1102 -342v142h124v-142h-124zM1056 -498v-142h-120v142h120zM762 -342v142h124v-142h-124zM1442 104l0.000976562 1062h104v-1062h282v-104h-876c-214.667 2.66699 -398 64.334 -550 185.001c-74.667 59.333 -133.667 128.666 -177 207.999s-65 163.666 -65 252.999v338
h102v-338c0 -148 68.667 -275.333 206 -382s302.666 -160 495.999 -160h478z" />
    <glyph glyph-name="uniFB58" unicode="&#x67e;" horiz-adv-x="614" arabic-form="initial" 
d="M282 -498v-142h-118v142h118zM330 -342v142h124v-142h-124zM-10 -342v142h124v-142h-124zM286 1166h102v-1166h-382v104h280v1062z" />
    <glyph glyph-name="uniFB59" unicode="&#x67e;" horiz-adv-x="646" arabic-form="medial" 
d="M432 -342v142h124v-142h-124zM386 -498v-142h-120v142h120zM270 104v1062h104v-1062h282v-104h-666v104h280zM92 -342v142h124v-142h-124z" />
    <glyph glyph-name="uniFB6B" unicode="&#x6a4;" horiz-adv-x="2364" arabic-form="final" 
d="M1660 1500v-144h-118v144h118zM2000 1500v-144h-118v144h118zM1710 1654v144h120v-144h-120zM1242 583c0 160.667 56.6689 298.001 170.002 412.001s250.666 171 411.999 171h270v-1062h280v-104h-1422c-214.667 2.66699 -398 64.334 -550 185.001
c-74.667 59.333 -133.667 128.666 -177 207.999s-65 163.666 -65 252.999v338h102v-338c0 -148 68.667 -275.333 206 -382s302.666 -160 495.999 -160h528c-28 20 -54.667 42.667 -80 68c-113.333 113.333 -170 250.333 -170 411zM1992 1060l-168 -0.000976562
c-132 0 -245 -47 -339 -141s-141 -207.333 -141 -340s47.333 -245.667 142 -339c77.333 -77.333 168 -122.666 272 -135.999h234v956z" />
    <glyph glyph-name="uniFB6C" unicode="&#x6a4;" horiz-adv-x="1262" arabic-form="initial" 
d="M1020 1500v-144h-118v144h118zM680 1500v-144h-118v144h118zM730 1654v144h120v-144h-120zM250 583c0 160.667 56.667 298 170 412s250 171 410 171h272v-1166h-1112v104h510c-28 20 -54.667 42.667 -80 68c-113.333 113.333 -170 250.333 -170 411zM998 104
l0.000976562 955.999h-168c-132 0 -244.667 -47 -338 -141s-140 -207.333 -140 -340s46.667 -245.667 140 -339c77.333 -77.333 168.666 -122.666 273.999 -135.999h232z" />
    <glyph glyph-name="uniFB6D" unicode="&#x6a4;" horiz-adv-x="1370" arabic-form="medial" 
d="M680 1500v-144h-118v144h118zM1020 1500v-144h-118v144h118zM-10 0v104h510c-28 20 -54.667 42.667 -80 68c-113.333 113.333 -170 250.333 -170 411s56.667 298 170 412s250 171 410 171h272v-1062h278v-104h-1390zM730 1654v144h120v-144h-120zM998 104
l0.000976562 955.999h-168c-132 0 -244.667 -47 -338 -141s-140 -207.333 -140 -340s46.667 -245.667 140 -339c77.333 -77.333 168.666 -122.666 273.999 -135.999h232z" />
    <glyph glyph-name="uniFB7B" unicode="&#x686;" horiz-adv-x="1688" arabic-form="final" 
d="M1040 -342v142h124v-142h-124zM994 -498v-142h-120v142h120zM700 -342v142h124v-142h-124zM1416 188c0 -56 20.666 -83.9971 61.999 -83.9971h220v-104h-1060c-112 0 -195.333 -14.333 -250 -43s-92 -78.334 -112 -149.001c-8 -32 -12 -63.333 -12 -94
c0 -66.667 21.333 -128 64 -184c62.667 -82.667 162 -142 298 -178l106 -26l-16 -102l-116 32c-169.333 45.333 -291.333 122.666 -366 231.999c-49.333 69.333 -74 146.666 -74 231.999c0 38.667 5.33301 76.667 16 114c32 126 116 207.333 252 244
c58.667 17.333 151.334 26 278.001 26h622c-9.33301 24 -14 52 -14 84v430c0 132 -47.333 244.667 -142 338s-207.667 140 -339 140s-244.333 -46.667 -339 -140s-142 -206 -142 -338v-74h-102v74c0 158.667 57 295 171 409s251.333 171 412 171s298 -57 412 -171
s171 -250.333 171 -409v-430z" />
    <glyph glyph-name="uniFB7C" unicode="&#x686;" horiz-adv-x="1650" arabic-form="initial" 
d="M866 -498v-142h-118v142h118zM914 -342v142h124v-142h-124zM574 -342v142h124v-142h-124zM1326 188v430c0 132 -47.333 244.667 -142 338s-207.667 140 -339 140s-244.333 -46.667 -339 -140s-142 -206 -142 -338v-74h-102v74c0 158.667 57 295 171 409
s251.333 171 412 171s298 -57 412 -171s171 -250.333 171 -409v-430c0 -54.667 20 -82.667 60 -84v-104h-1498v104h1350c-9.33301 24 -14 52 -14 84z" />
    <glyph glyph-name="uniFB7D" unicode="&#x686;" horiz-adv-x="1700" arabic-form="medial" 
d="M914 -342v142h124v-142h-124zM866 -498v-142h-118v142h118zM1428 188c0 -56 20.667 -84 62 -84h220v-104h-1720v104h1350c-9.33301 24 -14 52 -14 84v430c0 132 -47.333 244.667 -142 338s-207.667 140 -339 140s-244.333 -46.667 -339 -140s-142 -206 -142 -338v-74
h-102v74c0 158.667 57 295 171 409s251.333 171 412 171s298 -57 412 -171s171 -250.333 171 -409v-430zM574 -342v142h124v-142h-124z" />
    <glyph glyph-name="uniFB8B" unicode="&#x698;" horiz-adv-x="610" arabic-form="final" 
d="M418 1358v142h120v-142h-120zM78 1358v142h120v-142h-120zM248 1656v142h118v-142h-118zM258 -90l0.000976562 1256h102v-1062h260v-104h-260v-90c0 -97.333 -40 -180 -120 -248c-69.333 -56 -149.333 -88 -240 -96v102c65.333 8 124.666 33.667 177.999 77
s80 98.333 80 165z" />
    <glyph glyph-name="uniFB8F" unicode="&#x6a9;" horiz-adv-x="2078" arabic-form="final" 
d="M1706 104l0.000976562 268.001c0 132 -46.667 244 -140 336s-203.333 139.333 -330 142h-296v140l678 616l-8 -148l-558 -506h184c156 -2.66699 290.333 -60 403 -172s169 -248 169 -408v-268h280v-104h-1136c-214.667 2.66699 -398 64.334 -550 185.001
c-74.667 59.333 -133.667 128.666 -177 207.999s-65 163.666 -65 252.999v338h102v-338c0 -148 68.667 -275.333 206 -382s302.666 -160 495.999 -160h742z" />
    <glyph glyph-name="uniFB90" unicode="&#x6a9;" horiz-adv-x="1298" arabic-form="initial" 
d="M1138 372v-372h-1148v104h1046v268c0 132 -46.667 244 -140 336s-203.333 139.333 -330 142h-296v140l678 616l-8 -148l-558 -506h184c156 -2.66699 290.333 -60 403 -172s169 -248 169 -408z" />
    <glyph glyph-name="uniFB91" unicode="&#x6a9;" horiz-adv-x="1408" arabic-form="medial" 
d="M-10 0v104h1046v268c0 132 -46.667 244 -140 336s-203.333 139.333 -330 142h-296v140l678 616l-8 -148l-558 -506h184c156 -2.66699 290.333 -60 403 -172s169 -248 169 -408v-268h280v-104h-1428z" />
    <glyph glyph-name="uniFB93" unicode="&#x6af;" horiz-adv-x="2078" arabic-form="final" 
d="M1706 104l0.000976562 268.001c0 132 -46.667 244 -140 336s-203.333 139.333 -330 142h-296v140l678 616l-8 -148l-558 -506h184c156 -2.66699 290.333 -60 403 -172s169 -248 169 -408v-268h280v-104h-1136c-214.667 2.66699 -398 64.334 -550 185.001
c-74.667 59.333 -133.667 128.666 -177 207.999s-65 163.666 -65 252.999v338h102v-338c0 -148 68.667 -275.333 206 -382s302.666 -160 495.999 -160h742zM1448 1746l-8 -148l-558 -506l-106 42z" />
    <glyph glyph-name="uniFB94" unicode="&#x6af;" horiz-adv-x="1298" arabic-form="initial" 
d="M778 1746l-8 -148l-558 -506l-106 42zM1138 372v-372h-1148v104h1046v268c0 132 -46.667 244 -140 336s-203.333 139.333 -330 142h-296v140l678 616l-8 -148l-558 -506h184c156 -2.66699 290.333 -60 403 -172s169 -248 169 -408z" />
    <glyph glyph-name="uniFB95" unicode="&#x6af;" horiz-adv-x="1408" arabic-form="medial" 
d="M778 1746l-8 -148l-558 -506l-106 42zM-10 0v104h1046v268c0 132 -46.667 244 -140 336s-203.333 139.333 -330 142h-296v140l678 616l-8 -148l-558 -506h184c156 -2.66699 290.333 -60 403 -172s169 -248 169 -408v-268h280v-104h-1428z" />
    <glyph glyph-name="uniFBA7" unicode="&#x6c1;" horiz-adv-x="1172" arabic-form="final" 
d="M742 0c-161.333 0 -298.666 57 -411.999 171s-170 251.333 -170 412s56.667 298 170 412s250.666 171 411.999 171h270v-1166h-270zM910 104l-0.000976562 956h-168c-132 0 -245 -47 -339 -141s-141 -207.333 -141 -340s46.333 -245 139 -337s202.334 -138 329.001 -138
h180z" />
    <glyph glyph-name="uniFBA8" unicode="&#x6c1;" horiz-adv-x="1472" arabic-form="initial" 
d="M930 422c0 96 -32.333 173.333 -97 232s-129.334 88 -194.001 88s-129.667 -29.333 -195 -88s-98 -136 -98 -232s32.667 -173.333 98 -232c54.667 -50.667 119.334 -79.334 194.001 -86.001c74.667 6.66699 142 37.334 202 92.001s90 130 90 226zM638 844
c92 0 180.667 -39 266 -117s128 -183.333 128 -316s-48 -235 -144 -307h322v518c0 132 -47 244.667 -141 338s-207 140 -339 140s-245.333 -46.667 -340 -140l-72 72c113.333 113.333 250.333 170 411 170s298 -57 412 -171s171 -250.333 171 -409v-622h-1322v104h398
c-5.33301 4 -10 8 -14 12c-86.667 77.333 -130 179 -130 305s42.667 228 128 306s174 117 266 117z" />
    <glyph glyph-name="uniFBA9" unicode="&#x6c1;" horiz-adv-x="1584" arabic-form="medial" 
d="M638 844c92 0 180.667 -39 266 -117s128 -183.333 128 -316s-48 -235 -144 -307h322v518c0 132 -47 244.667 -141 338s-207 140 -339 140s-245.333 -46.667 -340 -140l-72 72c113.333 113.333 250.333 170 411 170s298 -57 412 -171s171 -250.333 171 -409v-518h282v-104
h-1604v104h398c-5.33301 4 -10 8 -14 12c-86.667 77.333 -130 179 -130 305s42.667 228 128 306s174 117 266 117zM930 422c0 96 -32.333 173.333 -97 232s-129.334 88 -194.001 88s-129.667 -29.333 -195 -88s-98 -136 -98 -232s32.667 -173.333 98 -232
c54.667 -50.667 119.334 -79.334 194.001 -86.001c74.667 6.66699 142 37.334 202 92.001s90 130 90 226z" />
    <glyph glyph-name="uniFBAB" unicode="&#x6be;" horiz-adv-x="1270" arabic-form="final" 
 />
    <glyph glyph-name="uniFBAC" unicode="&#x6be;" horiz-adv-x="1262" arabic-form="initial" 
d="M742 0c-161.333 0 -298.666 57 -411.999 171s-170 251.333 -170 412s56.667 298 170 412s250.666 171 411.999 171h270v-1062h260v-104h-530zM910 104l-0.000976562 956h-168c-132 0 -245 -47 -339 -141s-141 -207.333 -141 -340s46.333 -245 139 -337
s202.334 -138 329.001 -138h180z" />
    <glyph glyph-name="uniFBFD" unicode="&#x6cc;" horiz-adv-x="2234" arabic-form="final" 
d="M1862 0v714.002c0 64 -14.333 122.667 -43 176s-67.667 95.666 -117 126.999s-102.666 47 -159.999 47h-96v-1064h-494c-214.667 2.66699 -398 64.334 -550 185.001c-74.667 59.333 -133.667 128.666 -177 207.999s-65 163.666 -65 252.999v338h102v-338
c0 -148 68.667 -275.333 206 -382s302.666 -160 495.999 -160h378v1062h200c117.333 0 217 -44.333 299 -133s123 -195 123 -319v-610h280v-104h-382z" />
    <glyph glyph-name="uniFBFE" unicode="&#x6cc;" horiz-adv-x="652" arabic-form="initial" 
d="M34 -342v142h118v-142h-118zM374 -342v142h118v-142h-118zM270 1166h102v-1166h-382v104h280v1062z" />
    <glyph glyph-name="uniFBFF" unicode="&#x6cc;" horiz-adv-x="646" arabic-form="medial" 
d="M92 -342v142h120v-142h-120zM432 -342v142h120v-142h-120zM374 104h282v-104h-666v104h280v1062h104v-1062z" />
    <glyph glyph-name="uniFC5E" unicode="&#xfc5e;" horiz-adv-x="362" arabic-form="isolated" 
d="M84 1708c0 24 5.33398 47.999 16.001 71.999c18.667 42.667 49.334 72.667 92.001 90c20 8 40.333 12 61 12s41.667 -4.66699 63 -14c41.333 -17.333 70 -48 86 -92c6.66699 -20 10 -40.667 10 -62s-5.66699 -44.666 -17 -69.999s-29 -47.333 -53 -66
s-76 -34.667 -156 -48l-30 -12c-28 -12 -51.333 -18 -70 -18s-32 2 -40 6c-28.667 14.667 -45.5 36.667 -50.5 66s-10.833 47.333 -17.5 54h-6c-8 0 -20.667 -3.33301 -38 -10l-30 -12l-24 58l28 12c25.333 10.667 47.666 16 66.999 16c35.333 0 60.333 -22 75 -66l8 -38
c1.33301 -8 4.66602 -14.667 9.99902 -20c5.33301 -2.66699 11.5 -4 18.5 -4s25.5 6 55.5 18c-38.667 31.333 -58 74 -58 128zM146.001 1710c0 -47.333 19.332 -80 57.999 -98c10.667 -4 23 -6 37 -6s27.667 2.66699 41 8c45.333 19.333 68 54 68 104
c0 10.667 -2 22.667 -6 36c-15.333 44 -45.333 66 -90 66c-13.333 0 -26.666 -2.66699 -39.999 -8c-28 -10.667 -47.333 -30 -58 -58c-6.66699 -16 -10 -30.667 -10 -44zM254 1290h5.99902c12 1.33301 21.333 6 28 14s10 16.667 10 26v148l64 8v-156
c0 -22.667 -8.33301 -44.667 -25 -66s-39.667 -34 -69 -38h-12c-21.333 0 -40.666 5.33301 -57.999 16c0 -2.66699 -2 -6 -6 -10c-23.333 -28 -49.5 -42 -78.5 -42s-52.833 8 -71.5 24c-24 17.333 -38 39.333 -42 66v70l64 6v-68c3.33301 -21.333 17.333 -32 42 -32h6
c26.667 2.66699 40 16.667 40 42v114l60 6v-94c5.33301 -22.667 19.333 -34 42 -34z" />
    <glyph glyph-name="uniFC5F" unicode="&#xfc5f;" horiz-adv-x="362" arabic-form="isolated" 
d="M374 1424l-356 -114l-18 62l358 114zM390 1282l-358 -112l-16 60l356 114zM254 1590h5.99902c12 1.33301 21.333 6 28 14s10 16.667 10 26v148l64 8v-156c0 -22.667 -8.33301 -44.667 -25 -66s-39.667 -34 -69 -38h-12c-21.333 0 -40.666 5.33301 -57.999 16
c0 -2.66699 -2 -6 -6 -10c-23.333 -28 -49.5 -42 -78.5 -42s-52.833 8 -71.5 24c-24 17.333 -38 39.333 -42 66v70l64 6v-68c3.33301 -21.333 17.333 -32 42 -32h6c26.667 2.66699 40 16.667 40 42v114l60 6v-94c5.33301 -22.667 19.333 -34 42 -34z" />
    <glyph glyph-name="uniFC60" unicode="&#xfc60;" horiz-adv-x="362" arabic-form="isolated" 
d="M370 1562l-358 -112l-16 60l356 114zM254 1290h5.99902c12 1.33301 21.333 6 28 14s10 16.667 10 26v148l64 8v-156c0 -22.667 -8.33301 -44.667 -25 -66s-39.667 -34 -69 -38h-12c-21.333 0 -40.666 5.33301 -57.999 16c0 -2.66699 -2 -6 -6 -10
c-23.333 -28 -49.5 -42 -78.5 -42s-52.833 8 -71.5 24c-24 17.333 -38 39.333 -42 66v70l64 6v-68c3.33301 -21.333 17.333 -32 42 -32h6c26.667 2.66699 40 16.667 40 42v114l60 6v-94c5.33301 -22.667 19.333 -34 42 -34z" />
    <glyph glyph-name="uniFC61" unicode="&#xfc61;" horiz-adv-x="362" arabic-form="isolated" 
d="M56 1703c0 47.333 16 87.667 48 121s70.333 50 115 50s82.667 -16.667 114 -50s47 -69.333 47 -108c0 -76.667 -26 -130 -78 -160c-13.333 -6.66699 -24 -11.334 -32 -14.001l-252 -82l-18 64l128 40c-10.667 6.66699 -18.667 13.334 -24 20.001
c-32 32 -48 71.667 -48 119zM218 1812c-28 0 -51.667 -10.667 -71 -32s-29 -46.666 -29 -75.999s9.66699 -55 29 -77s43 -33 71 -33s52.667 10.667 74 32c18.667 22.667 28 48.667 28 78s-9.33301 54.666 -28 75.999c-21.333 21.333 -46 32 -74 32zM254 1290h5.99902
c12 1.33301 21.333 6 28 14s10 16.667 10 26v148l64 8v-156c0 -22.667 -8.33301 -44.667 -25 -66s-39.667 -34 -69 -38h-12c-21.333 0 -40.666 5.33301 -57.999 16c0 -2.66699 -2 -6 -6 -10c-23.333 -28 -49.5 -42 -78.5 -42s-52.833 8 -71.5 24
c-24 17.333 -38 39.333 -42 66v70l64 6v-68c3.33301 -21.333 17.333 -32 42 -32h6c26.667 2.66699 40 16.667 40 42v114l60 6v-94c5.33301 -22.667 19.333 -34 42 -34z" />
    <glyph glyph-name="uniFC62" unicode="&#xfc62;" horiz-adv-x="362" arabic-form="isolated" 
d="M374 1424l-356 -114l-18 62l358 114zM254 1590h5.99902c12 1.33301 21.333 6 28 14s10 16.667 10 26v148l64 8v-156c0 -22.667 -8.33301 -44.667 -25 -66s-39.667 -34 -69 -38h-12c-21.333 0 -40.666 5.33301 -57.999 16c0 -2.66699 -2 -6 -6 -10
c-23.333 -28 -49.5 -42 -78.5 -42s-52.833 8 -71.5 24c-24 17.333 -38 39.333 -42 66v70l64 6v-68c3.33301 -21.333 17.333 -32 42 -32h6c26.667 2.66699 40 16.667 40 42v114l60 6v-94c5.33301 -22.667 19.333 -34 42 -34z" />
    <glyph glyph-name="uniFE82" unicode="&#x622;" horiz-adv-x="534" arabic-form="final" 
d="M134 1920c23.333 0 41.499 -5.00098 54.499 -15.001l43.5 -33c26.667 -24 44.667 -36 54 -36h2c13.333 2.66699 28 23.334 44 62.001l16 36l66 -36l-16 -34c-25.333 -61.333 -56.666 -97.333 -93.999 -108h-18c-25.333 0 -54.666 14 -87.999 42s-54 42 -62 42h-2
c-9.33301 -1.33301 -20 -16 -32 -44l-16 -38l-66 36l16 36c21.333 52 48.666 82 81.999 90h16zM261.999 103.999h282v-104h-384v1606h102v-1502z" />
    <glyph glyph-name="uniFE84" unicode="&#x623;" horiz-adv-x="534" arabic-form="final" 
d="M96 1915c0 38 15.001 72.001 45.001 102.001s64.667 45 104 45s77.666 -16 114.999 -48l-26 -74c-20 12 -34.333 22.333 -43 31s-23 13 -43 13s-37.333 -7.33301 -52 -22s-22 -32.334 -22 -53.001s7 -38 21 -52s29 -21.667 45 -23h134v-88h-294v88h34
c-12 16 -18 43 -18 81zM262.001 104.001h282v-104h-384v1606h102v-1502z" />
    <glyph glyph-name="uniFE86" unicode="&#x624;" horiz-adv-x="1262" arabic-form="final" 
d="M302 1455c0 38 15.001 72.001 45.001 102.001s65 45 105 45s78 -16 114 -48l-26 -74c-20 12 -34 22.333 -42 31s-22.333 13 -43 13s-38.334 -7.33301 -53.001 -22s-22 -32.334 -22 -53.001s7 -38 21 -52s29.667 -21.667 47 -23h132v-88h-292v88h32c-12 16 -18 43 -18 81z
M1012 0.000976562l-0.000976562 -90c0 -97.333 -40 -179.333 -120 -246s-174.667 -100 -284 -100c-69.333 0 -134 14 -194 42s-109.333 67.333 -148 118l-30 40l82 62l30 -40c62.667 -80 149.334 -120 260.001 -120c84 0 155.333 24 214 72s88 105.333 88 172v90h-168
c-161.333 0 -298.666 57 -411.999 171s-170 251.333 -170 412s56.667 298 170 412s250.666 171 411.999 171h270v-1062h260v-104h-260zM910 104.001l-0.000976562 956h-168c-132 0 -245 -47 -339 -141s-141 -207.333 -141 -340s46.333 -245 139 -337
s202.334 -138 329.001 -138h180z" />
    <glyph glyph-name="uniFE88" unicode="&#x625;" horiz-adv-x="534" arabic-form="final" 
d="M120 -206l-0.000976562 88.001h292v-88h-132c-17.333 -1.33301 -33 -9 -47 -23s-21 -31.333 -21 -52s7.33301 -38.334 22 -53.001s32.334 -22 53.001 -22s35 4.33301 43 13s22 19 42 31l26 -74c-36 -32 -74 -48 -114 -48s-75 15 -105 45s-45 64 -45 102s6 65 18 81h-32z
M261.999 104.001h282v-104h-384v1606h102v-1502z" />
    <glyph glyph-name="uniFE8A" unicode="&#x626;" horiz-adv-x="2234" arabic-form="final" 
d="M176 1455c0 38 15.001 72.001 45.001 102.001s64.667 45 104 45s77.666 -16 114.999 -48l-26 -74c-20 12 -34.333 22.333 -43 31s-23 13 -43 13s-37.333 -7.33301 -52 -22s-22 -32.334 -22 -53.001s7 -38 21 -52s29 -21.667 45 -23h134v-88h-294v88h34
c-12 16 -18 43 -18 81zM1862 0.000976562v714.002c0 64 -14.333 122.667 -43 176s-67.667 95.666 -117 126.999s-102.666 47 -159.999 47h-96v-1064h-494c-214.667 2.66699 -398 64.334 -550 185.001c-74.667 59.333 -133.667 128.666 -177 207.999s-65 163.666 -65 252.999
v338h102v-338c0 -148 68.667 -275.333 206 -382s302.666 -160 495.999 -160h378v1062h200c117.333 0 217 -44.333 299 -133s123 -195 123 -319v-610h280v-104h-382z" />
    <glyph glyph-name="uniFE8B" unicode="&#x626;" horiz-adv-x="534" arabic-form="initial" 
d="M92 1455c0 38 15.001 72.001 45.001 102.001s64.667 45 104 45s77.666 -16 114.999 -48l-26 -74c-20 12 -34.333 22.333 -43 31s-23 13 -43 13s-37.333 -7.33301 -52 -22s-22 -32.334 -22 -53.001s7 -38 21 -52s29 -21.667 45 -23h134v-88h-294v88h34
c-12 16 -18 43 -18 81zM270.001 1166h104v-1166h-384v104h280v1062z" />
    <glyph glyph-name="uniFE8C" unicode="&#x626;" horiz-adv-x="646" arabic-form="medial" 
d="M182 1455c0 38 15.001 72.001 45.001 102.001s64.667 45 104 45s77.666 -16 114.999 -48l-26 -74c-20 12 -34.333 22.333 -43 31s-23 13 -43 13s-37.333 -7.33301 -52 -22s-22 -32.334 -22 -53.001s7 -38 21 -52s29 -21.667 45 -23h134v-88h-294v88h34
c-12 16 -18 43 -18 81zM374.001 104.001h282v-104h-666v104h280v1062h104v-1062z" />
    <glyph glyph-name="uniFE8E" unicode="&#x627;" horiz-adv-x="534" arabic-form="final" 
d="M262 104h282v-104h-384v1606h102v-1502z" />
    <glyph glyph-name="uniFE90" unicode="&#x628;" horiz-adv-x="1818" arabic-form="final" 
d="M912 -344v142h118v-142h-118zM1442 104l0.000976562 1062h104v-1062h282v-104h-876c-214.667 2.66699 -398 64.334 -550 185.001c-74.667 59.333 -133.667 128.666 -177 207.999s-65 163.666 -65 252.999v338h102v-338c0 -148 68.667 -275.333 206 -382
s302.666 -160 495.999 -160h478z" />
    <glyph glyph-name="uniFE91" unicode="&#x628;" horiz-adv-x="532" arabic-form="initial" 
d="M254 -342v142h118v-142h-118zM270 1166h102v-1166h-382v104h280v1062z" />
    <glyph glyph-name="uniFE92" unicode="&#x628;" horiz-adv-x="646" arabic-form="medial" 
d="M262 -344v142h118v-142h-118zM374 104h282v-104h-666v104h280v1062h104v-1062z" />
    <glyph glyph-name="uniFE94" unicode="&#x629;" horiz-adv-x="1262" arabic-form="final" 
d="M854 1358v142h120v-142h-120zM514 1358v142h120v-142h-120zM742 0c-161.333 0 -298.666 57 -411.999 171s-170 251.333 -170 412s56.667 298 170 412s250.666 171 411.999 171h270v-1062h260v-104h-530zM910 104l-0.000976562 956h-168c-132 0 -245 -47 -339 -141
s-141 -207.333 -141 -340s46.333 -245 139 -337s202.334 -138 329.001 -138h180z" />
    <glyph glyph-name="uniFE96" unicode="&#x62a;" horiz-adv-x="1818" arabic-form="final" 
d="M1004 1358v142h120v-142h-120zM684 1358v142h120v-142h-120zM1442 104l0.000976562 1062h104v-1062h282v-104h-876c-214.667 2.66699 -398 64.334 -550 185.001c-74.667 59.333 -133.667 128.666 -177 207.999s-65 163.666 -65 252.999v338h102v-338
c0 -148 68.667 -275.333 206 -382s302.666 -160 495.999 -160h478z" />
    <glyph glyph-name="uniFE97" unicode="&#x62a;" horiz-adv-x="712" arabic-form="initial" 
d="M92 1358v142h120v-142h-120zM432 1358v142h120v-142h-120zM270 1166h102v-1166h-382v104h280v1062z" />
    <glyph glyph-name="uniFE98" unicode="&#x62a;" horiz-adv-x="646" arabic-form="medial" 
d="M92 1358v142h120v-142h-120zM432 1358v142h120v-142h-120zM374 104h282v-104h-666v104h280v1062h104v-1062z" />
    <glyph glyph-name="uniFE9A" unicode="&#x62b;" horiz-adv-x="1818" arabic-form="final" 
d="M1004 1358v142h120v-142h-120zM664 1358v142h120v-142h-120zM1442 104l0.000976562 1062h104v-1062h282v-104h-876c-214.667 2.66699 -398 64.334 -550 185.001c-74.667 59.333 -133.667 128.666 -177 207.999s-65 163.666 -65 252.999v338h102v-338
c0 -148 68.667 -275.333 206 -382s302.666 -160 495.999 -160h478zM834.001 1656v142h118v-142h-118z" />
    <glyph glyph-name="uniFE9B" unicode="&#x62b;" horiz-adv-x="710" arabic-form="initial" 
d="M92 1356v144h118v-144h-118zM432 1356v144h118v-144h-118zM260 1654v144h120v-144h-120zM270 1166h102v-1166h-382v104h280v1062z" />
    <glyph glyph-name="uniFE9C" unicode="&#x62b;" horiz-adv-x="646" arabic-form="medial" 
d="M92 1358v142h120v-142h-120zM432 1358v142h120v-142h-120zM262 1656v142h118v-142h-118zM374 104h282v-104h-666v104h280v1062h104v-1062z" />
    <glyph glyph-name="uniFE9E" unicode="&#x62c;" horiz-adv-x="1688" arabic-form="final" 
d="M1416 188c0 -56 20.666 -83.9971 61.999 -83.9971h220v-104h-1060c-112 0 -195.333 -14.333 -250 -43s-92 -78.334 -112 -149.001c-8 -32 -12 -63.333 -12 -94c0 -66.667 21.333 -128 64 -184c62.667 -82.667 162 -142 298 -178l106 -26l-16 -102l-116 32
c-169.333 45.333 -291.333 122.666 -366 231.999c-49.333 69.333 -74 146.666 -74 231.999c0 38.667 5.33301 76.667 16 114c32 126 116 207.333 252 244c58.667 17.333 151.334 26 278.001 26h622c-9.33301 24 -14 52 -14 84v430c0 132 -47.333 244.667 -142 338
s-207.667 140 -339 140s-244.333 -46.667 -339 -140s-142 -206 -142 -338v-74h-102v74c0 158.667 57 295 171 409s251.333 171 412 171s298 -57 412 -171s171 -250.333 171 -409v-430zM751.999 -341.997v142h118v-142h-118z" />
    <glyph glyph-name="uniFE9F" unicode="&#x62c;" horiz-adv-x="1650" arabic-form="initial" 
d="M764 -342v142h118v-142h-118zM1326 188v430c0 132 -47.333 244.667 -142 338s-207.667 140 -339 140s-244.333 -46.667 -339 -140s-142 -206 -142 -338v-74h-102v74c0 158.667 57 295 171 409s251.333 171 412 171s298 -57 412 -171s171 -250.333 171 -409v-430
c0 -54.667 20 -82.667 60 -84v-104h-1498v104h1350c-9.33301 24 -14 52 -14 84z" />
    <glyph glyph-name="uniFEA0" unicode="&#x62c;" horiz-adv-x="1700" arabic-form="medial" 
d="M1428 188c0 -56 20.667 -84 62 -84h220v-104h-1720v104h1350c-9.33301 24 -14 52 -14 84v430c0 132 -47.333 244.667 -142 338s-207.667 140 -339 140s-244.333 -46.667 -339 -140s-142 -206 -142 -338v-74h-102v74c0 158.667 57 295 171 409s251.333 171 412 171
s298 -57 412 -171s171 -250.333 171 -409v-430zM764 -342v142h118v-142h-118z" />
    <glyph glyph-name="uniFEA2" unicode="&#x62d;" horiz-adv-x="1688" arabic-form="final" 
d="M1416 188c0 -56 20.666 -83.9971 61.999 -83.9971h220v-104h-1060c-112 0 -195.333 -14.333 -250 -43s-92 -78.334 -112 -149.001c-8 -32 -12 -63.333 -12 -94c0 -66.667 21.333 -128 64 -184c62.667 -82.667 162 -142 298 -178l106 -26l-16 -102l-116 32
c-169.333 45.333 -291.333 122.666 -366 231.999c-49.333 69.333 -74 146.666 -74 231.999c0 38.667 5.33301 76.667 16 114c32 126 116 207.333 252 244c58.667 17.333 151.334 26 278.001 26h622c-9.33301 24 -14 52 -14 84v430c0 132 -47.333 244.667 -142 338
s-207.667 140 -339 140s-244.333 -46.667 -339 -140s-142 -206 -142 -338v-74h-102v74c0 158.667 57 295 171 409s251.333 171 412 171s298 -57 412 -171s171 -250.333 171 -409v-430z" />
    <glyph glyph-name="uniFEA3" unicode="&#x62d;" horiz-adv-x="1650" arabic-form="initial" 
d="M1326 188v430c0 132 -47.333 244.667 -142 338s-207.667 140 -339 140s-244.333 -46.667 -339 -140s-142 -206 -142 -338v-74h-102v74c0 158.667 57 295 171 409s251.333 171 412 171s298 -57 412 -171s171 -250.333 171 -409v-430c0 -54.667 20 -82.667 60 -84v-104
h-1498v104h1350c-9.33301 24 -14 52 -14 84z" />
    <glyph glyph-name="uniFEA4" unicode="&#x62d;" horiz-adv-x="1700" arabic-form="medial" 
d="M1428 188c0 -56 20.667 -84 62 -84h220v-104h-1720v104h1350c-9.33301 24 -14 52 -14 84v430c0 132 -47.333 244.667 -142 338s-207.667 140 -339 140s-244.333 -46.667 -339 -140s-142 -206 -142 -338v-74h-102v74c0 158.667 57 295 171 409s251.333 171 412 171
s298 -57 412 -171s171 -250.333 171 -409v-430z" />
    <glyph glyph-name="uniFEA6" unicode="&#x62e;" horiz-adv-x="1688" arabic-form="final" 
d="M768 1366v142h120v-142h-120zM1416 188c0 -56 20.666 -83.9971 61.999 -83.9971h220v-104h-1060c-112 0 -195.333 -14.333 -250 -43s-92 -78.334 -112 -149.001c-8 -32 -12 -63.333 -12 -94c0 -66.667 21.333 -128 64 -184c62.667 -82.667 162 -142 298 -178l106 -26
l-16 -102l-116 32c-169.333 45.333 -291.333 122.666 -366 231.999c-49.333 69.333 -74 146.666 -74 231.999c0 38.667 5.33301 76.667 16 114c32 126 116 207.333 252 244c58.667 17.333 151.334 26 278.001 26h622c-9.33301 24 -14 52 -14 84v430
c0 132 -47.333 244.667 -142 338s-207.667 140 -339 140s-244.333 -46.667 -339 -140s-142 -206 -142 -338v-74h-102v74c0 158.667 57 295 171 409s251.333 171 412 171s298 -57 412 -171s171 -250.333 171 -409v-430z" />
    <glyph glyph-name="uniFEA7" unicode="&#x62e;" horiz-adv-x="1650" arabic-form="initial" 
d="M780 1366v142h120v-142h-120zM1326 618c0 132 -47.333 244.667 -142 338s-207.667 140 -339 140s-244.333 -46.667 -339 -140s-142 -206 -142 -338v-74h-102v74c0 158.667 57 295 171 409s251.333 171 412 171s298 -57 412 -171s171 -250.333 171 -409v-430
c0 -54.667 20 -82.667 60 -84v-104h-1498v104h1350c-9.33301 24 -14 52 -14 84v430z" />
    <glyph glyph-name="uniFEA8" unicode="&#x62e;" horiz-adv-x="1700" arabic-form="medial" 
d="M1428 188c0 -56 20.667 -84 62 -84h220v-104h-1720v104h1350c-9.33301 24 -14 52 -14 84v430c0 132 -47.333 244.667 -142 338s-207.667 140 -339 140s-244.333 -46.667 -339 -140s-142 -206 -142 -338v-74h-102v74c0 158.667 57 295 171 409s251.333 171 412 171
s298 -57 412 -171s171 -250.333 171 -409v-430zM780 1366v142h120v-142h-120z" />
    <glyph glyph-name="uniFEAA" unicode="&#x62f;" horiz-adv-x="1254" arabic-form="final" 
d="M160 0v104h720v518c0 132 -47 244.667 -141 338s-207 140 -339 140v102c160 0 297 -57 411 -171s171 -250.333 171 -409v-518h282v-104h-1104z" />
    <glyph glyph-name="uniFEAC" unicode="&#x630;" horiz-adv-x="1254" arabic-form="final" 
d="M160 0v104h720v518c0 132 -47 244.667 -141 338s-207 140 -339 140v102c160 0 297 -57 411 -171s171 -250.333 171 -409v-518h282v-104h-1104zM494 1358v142h120v-142h-120z" />
    <glyph glyph-name="uniFEAE" unicode="&#x631;" horiz-adv-x="610" arabic-form="final" 
d="M258 -90l0.000976562 1256h102v-1062h260v-104h-260v-90c0 -97.333 -40 -180 -120 -248c-69.333 -56 -149.333 -88 -240 -96v102c65.333 8 124.666 33.667 177.999 77s80 98.333 80 165z" />
    <glyph glyph-name="uniFEB0" unicode="&#x632;" horiz-adv-x="610" arabic-form="final" 
d="M254 1348v142h120v-142h-120zM258 -90l0.000976562 1256h102v-1062h260v-104h-260v-90c0 -97.333 -40 -180 -120 -248c-69.333 -56 -149.333 -88 -240 -96v102c65.333 8 124.666 33.667 177.999 77s80 98.333 80 165z" />
    <glyph glyph-name="uniFEB2" unicode="&#x633;" horiz-adv-x="2678" arabic-form="final" 
d="M1222 1162l104.001 0.000976562v-1058h438v1058h102v-1058h440v1062h102v-1062h280v-104h-1362v-350h-374c-214.667 2.66699 -398 64.334 -550 185.001c-74.667 59.333 -133.667 128.666 -177 207.999s-65 163.666 -65 252.999v338h102v-338
c0 -148 68.667 -275.333 206 -382s302.666 -160 495.999 -160h258v1408z" />
    <glyph glyph-name="uniFEB3" unicode="&#x633;" horiz-adv-x="1616" arabic-form="initial" 
d="M270 104v1058h104v-1058h438v1058h102v-1058h440v1058h102v-1162h-1466v104h280z" />
    <glyph glyph-name="uniFEB4" unicode="&#x633;" horiz-adv-x="1726" arabic-form="medial" 
d="M-10 0v104h280v1058h104v-1058h438v1058h102v-1058h440v1062h102v-1062h280v-104h-1746z" />
    <glyph glyph-name="uniFEB6" unicode="&#x634;" horiz-adv-x="2678" arabic-form="final" 
d="M1586 1318v142h118v-142h-118zM1926 1318v142h118v-142h-118zM1222 1162l104.001 0.000976562v-1058h438v1058h102v-1058h440v1062h102v-1062h280v-104h-1362v-350h-374c-214.667 2.66699 -398 64.334 -550 185.001c-74.667 59.333 -133.667 128.666 -177 207.999
s-65 163.666 -65 252.999v338h102v-338c0 -148 68.667 -275.333 206 -382s302.666 -160 495.999 -160h258v1408zM1754 1636v142h120v-142h-120z" />
    <glyph glyph-name="uniFEB7" unicode="&#x634;" horiz-adv-x="1616" arabic-form="initial" 
d="M634 1358v142h118v-142h-118zM974 1358v142h118v-142h-118zM802 1656v142h120v-142h-120zM270 104v1058h104v-1058h438v1058h102v-1058h440v1058h102v-1162h-1466v104h280z" />
    <glyph glyph-name="uniFEB8" unicode="&#x634;" horiz-adv-x="1726" arabic-form="medial" 
d="M974 1318v142h118v-142h-118zM634 1318v142h118v-142h-118zM-10 0v104h280v1058h104v-1058h438v1058h102v-1058h440v1062h102v-1062h280v-104h-1746zM802 1616v142h120v-142h-120z" />
    <glyph glyph-name="uniFEBA" unicode="&#x635;" horiz-adv-x="2658" arabic-form="final" 
d="M1222 1198h102.001v-250c20 28 43.333 54.667 70 80c113.333 113.333 250.333 170 411 170s298 -56.667 412 -170s171 -250.666 171 -411.999v-512h280v-104h-1342v-350h-374c-214.667 2.66699 -398 64.334 -550 185.001c-74.667 59.333 -133.667 128.666 -177 207.999
s-65 163.666 -65 252.999v338h102v-338c0 -148 68.667 -275.333 206 -382s302.666 -160 495.999 -160h258v1444zM1326 104l960 0.00195312v512c0 133.333 -47 246.666 -141 339.999s-207 140 -339 140c-88 0 -168.667 -21.333 -242 -64s-130.333 -98.334 -171 -167.001
s-63 -141 -67 -217v-544z" />
    <glyph glyph-name="uniFEBB" unicode="&#x635;" horiz-adv-x="1594" arabic-form="initial" 
d="M370 104l961.999 0.000976562v512c0 133.333 -47 246.666 -141 339.999s-207 140 -339 140c-88 0 -168.667 -21.333 -242 -64s-131.666 -100.667 -174.999 -174s-65 -154 -65 -242v-512zM205.999 104.001c41.333 0 62 27.332 62 81.999v1012h102v-250
c20 28 43.333 54.667 70 80c113.333 113.333 250.333 170 411 170s298 -56.667 412 -170s171 -250.666 171 -411.999v-616h-1444v104h216z" />
    <glyph glyph-name="uniFEBC" unicode="&#x635;" horiz-adv-x="1704" arabic-form="medial" 
d="M206 104c41.333 0 62 27.332 62 81.999v1012h102v-250c20 28 43.333 54.667 70 80c113.333 113.333 250.333 170 411 170s298 -56.667 412 -170s171 -250.666 171 -411.999v-512h280v-104h-1724v104h216zM370 103.999l961.999 0.000976562v512
c0 133.333 -47 246.666 -141 339.999s-207 140 -339 140c-88 0 -168.667 -21.333 -242 -64s-131.666 -100.667 -174.999 -174s-65 -154 -65 -242v-512z" />
    <glyph glyph-name="uniFEBE" unicode="&#x636;" horiz-adv-x="2658" arabic-form="final" 
d="M1222 1198h102.001v-250c20 28 43.333 54.667 70 80c113.333 113.333 250.333 170 411 170s298 -56.667 412 -170s171 -250.666 171 -411.999v-512h280v-104h-1342v-350h-374c-214.667 2.66699 -398 64.334 -550 185.001c-74.667 59.333 -133.667 128.666 -177 207.999
s-65 163.666 -65 252.999v338h102v-338c0 -148 68.667 -275.333 206 -382s302.666 -160 495.999 -160h258v1444zM1326 104l960 0.00195312v512c0 133.333 -47 246.666 -141 339.999s-207 140 -339 140c-88 0 -168.667 -21.333 -242 -64s-130.333 -98.334 -171 -167.001
s-63 -141 -67 -217v-544zM1754 1358v142h120v-142h-120z" />
    <glyph glyph-name="uniFEBF" unicode="&#x636;" horiz-adv-x="1594" arabic-form="initial" 
d="M800 1358v142h120v-142h-120zM370 104l961.999 0.000976562v512c0 133.333 -47 246.666 -141 339.999s-207 140 -339 140c-88 0 -168.667 -21.333 -242 -64s-131.666 -100.667 -174.999 -174s-65 -154 -65 -242v-512zM205.999 104.001c41.333 0 62 27.332 62 81.999v1012
h102v-250c20 28 43.333 54.667 70 80c113.333 113.333 250.333 170 411 170s298 -56.667 412 -170s171 -250.666 171 -411.999v-616h-1444v104h216z" />
    <glyph glyph-name="uniFEC0" unicode="&#x636;" horiz-adv-x="1704" arabic-form="medial" 
d="M800 1358v142h120v-142h-120zM206 104c41.333 0 62 27.332 62 81.999v1012h102v-250c20 28 43.333 54.667 70 80c113.333 113.333 250.333 170 411 170s298 -56.667 412 -170s171 -250.666 171 -411.999v-512h280v-104h-1724v104h216zM370 103.999l961.999 0.000976562
v512c0 133.333 -47 246.666 -141 339.999s-207 140 -339 140c-88 0 -168.667 -21.333 -242 -64s-131.666 -100.667 -174.999 -174s-65 -154 -65 -242v-512z" />
    <glyph glyph-name="uniFEC2" unicode="&#x637;" horiz-adv-x="1744" arabic-form="final" 
d="M246 104c41.333 0 62 27.332 62 81.999v1420h102v-658c20 28 43.333 54.667 70 80c113.333 113.333 250.333 170 411 170s298 -56.667 412 -170s171 -250.666 171 -411.999v-512h280v-104h-1594v104h86zM410 103.999l961.999 0.000976562v512
c0 133.333 -47 246.666 -141 339.999s-207 140 -339 140c-88 0 -168.667 -21.333 -242 -64s-131.666 -100.667 -174.999 -174s-65 -154 -65 -242v-512z" />
    <glyph glyph-name="uniFEC3" unicode="&#x637;" horiz-adv-x="1594" arabic-form="initial" 
d="M370 104l961.999 0.000976562v512c0 133.333 -47 246.666 -141 339.999s-207 140 -339 140c-88 0 -168.667 -21.333 -242 -64s-131.666 -100.667 -174.999 -174s-65 -154 -65 -242v-512zM205.999 104.001c41.333 0 62 27.332 62 81.999v1420h102v-658
c20 28 43.333 54.667 70 80c113.333 113.333 250.333 170 411 170s298 -56.667 412 -170s171 -250.666 171 -411.999v-616h-1444v104h216z" />
    <glyph glyph-name="uniFEC4" unicode="&#x637;" horiz-adv-x="1704" arabic-form="medial" 
d="M206 104c41.333 0 62 27.332 62 81.999v1420h102v-658c20 28 43.333 54.667 70 80c113.333 113.333 250.333 170 411 170s298 -56.667 412 -170s171 -250.666 171 -411.999v-512h280v-104h-1724v104h216zM370 103.999l961.999 0.000976562v512
c0 133.333 -47 246.666 -141 339.999s-207 140 -339 140c-88 0 -168.667 -21.333 -242 -64s-131.666 -100.667 -174.999 -174s-65 -154 -65 -242v-512z" />
    <glyph glyph-name="uniFEC6" unicode="&#x638;" horiz-adv-x="1744" arabic-form="final" 
d="M840 1358v142h120v-142h-120zM246 104c41.333 0 62 27.332 62 81.999v1420h102v-658c20 28 43.333 54.667 70 80c113.333 113.333 250.333 170 411 170s298 -56.667 412 -170s171 -250.666 171 -411.999v-512h280v-104h-1594v104h86zM410 103.999l961.999 0.000976562
v512c0 133.333 -47 246.666 -141 339.999s-207 140 -339 140c-88 0 -168.667 -21.333 -242 -64s-131.666 -100.667 -174.999 -174s-65 -154 -65 -242v-512z" />
    <glyph glyph-name="uniFEC7" unicode="&#x638;" horiz-adv-x="1594" arabic-form="initial" 
d="M800 1358v142h120v-142h-120zM370 104l961.999 0.000976562v512c0 133.333 -47 246.666 -141 339.999s-207 140 -339 140c-88 0 -168.667 -21.333 -242 -64s-131.666 -100.667 -174.999 -174s-65 -154 -65 -242v-512zM205.999 104.001c41.333 0 62 27.332 62 81.999v1420
h102v-658c20 28 43.333 54.667 70 80c113.333 113.333 250.333 170 411 170s298 -56.667 412 -170s171 -250.666 171 -411.999v-616h-1444v104h216z" />
    <glyph glyph-name="uniFEC8" unicode="&#x638;" horiz-adv-x="1704" arabic-form="medial" 
d="M800 1358v142h120v-142h-120zM206 104c41.333 0 62 27.332 62 81.999v1420h102v-658c20 28 43.333 54.667 70 80c113.333 113.333 250.333 170 411 170s298 -56.667 412 -170s171 -250.666 171 -411.999v-512h280v-104h-1724v104h216zM370 103.999l961.999 0.000976562
v512c0 133.333 -47 246.666 -141 339.999s-207 140 -339 140c-88 0 -168.667 -21.333 -242 -64s-131.666 -100.667 -174.999 -174s-65 -154 -65 -242v-512z" />
    <glyph glyph-name="uniFECA" unicode="&#x639;" horiz-adv-x="1536" arabic-form="final" 
d="M638 0c-112 0 -195.335 -14.3301 -250.002 -42.9971s-92 -78.334 -112 -149.001c-8 -32 -12 -63.333 -12 -94c0 -66.667 21.333 -128 64 -184c62.667 -82.667 162 -142 298 -178l106 -26l-16 -102l-116 32c-169.333 45.333 -291.333 122.666 -366 231.999
c-49.333 69.333 -74 146.666 -74 231.999c0 38.667 5.33301 76.667 16 114c40.667 159.333 165.334 247.333 374.001 264h10c-29.333 24 -56.666 48.667 -81.999 74c-114.667 113.333 -172 250.333 -172 411s57 298 171 412s247 171 399 171s281.333 -46.667 388 -140
l-14 -128c-8 8 -16 16.667 -24 26c-94.667 93.333 -207.667 140 -339 140s-244 -47.333 -338 -142s-141 -207.667 -141 -339s44.667 -242 134 -332s192 -139 308 -147h696v-104h-908z" />
    <glyph glyph-name="uniFECB" unicode="&#x639;" horiz-adv-x="1466" arabic-form="initial" 
d="M847 1064c-131.333 0 -244 -47.333 -338 -142s-141 -207.667 -141 -339s44.667 -242 134 -332s192 -139 308 -147h496v-104h-1316v104h528c-28 20 -54.667 42.667 -80 68c-114.667 113.333 -172 250.333 -172 411s57 298 171 412s247 171 399 171
s281.333 -46.667 388 -140l-14 -128c-8 8 -16 16.667 -24 26c-94.667 93.333 -207.667 140 -339 140z" />
    <glyph glyph-name="uniFECC" unicode="&#x639;" horiz-adv-x="1494" arabic-form="medial" 
d="M-10 0v104h528c-28 20 -54.667 42.667 -80 68c-114.667 113.333 -172 250.333 -172 411s57 298 171 412s247 171 399 171s281.333 -46.667 388 -140l-14 -128c-8 8 -16 16.667 -24 26c-94.667 93.333 -207.667 140 -339 140s-244 -47.333 -338 -142
s-141 -207.667 -141 -339s44.667 -242 134 -332s192 -139 308 -147h694v-104h-1514z" />
    <glyph glyph-name="uniFECE" unicode="&#x63a;" horiz-adv-x="1536" arabic-form="final" 
d="M638 0c-112 0 -195.335 -14.3301 -250.002 -42.9971s-92 -78.334 -112 -149.001c-8 -32 -12 -63.333 -12 -94c0 -66.667 21.333 -128 64 -184c62.667 -82.667 162 -142 298 -178l106 -26l-16 -102l-116 32c-169.333 45.333 -291.333 122.666 -366 231.999
c-49.333 69.333 -74 146.666 -74 231.999c0 38.667 5.33301 76.667 16 114c40.667 159.333 165.334 247.333 374.001 264h10c-29.333 24 -56.666 48.667 -81.999 74c-114.667 113.333 -172 250.333 -172 411s57 298 171 412s247 171 399 171s281.333 -46.667 388 -140
l-14 -128c-8 8 -16 16.667 -24 26c-94.667 93.333 -207.667 140 -339 140s-244 -47.333 -338 -142s-141 -207.667 -141 -339s44.667 -242 134 -332s192 -139 308 -147h696v-104h-908zM821.998 1358v142h120v-142h-120z" />
    <glyph glyph-name="uniFECF" unicode="&#x63a;" horiz-adv-x="1466" arabic-form="initial" 
d="M782 1358v142h120v-142h-120zM847 1064c-131.333 0 -244 -47.333 -338 -142s-141 -207.667 -141 -339s44.667 -242 134 -332s192 -139 308 -147h496v-104h-1316v104h528c-28 20 -54.667 42.667 -80 68c-114.667 113.333 -172 250.333 -172 411s57 298 171 412
s247 171 399 171s281.333 -46.667 388 -140l-14 -128c-8 8 -16 16.667 -24 26c-94.667 93.333 -207.667 140 -339 140z" />
    <glyph glyph-name="uniFED0" unicode="&#x63a;" horiz-adv-x="1494" arabic-form="medial" 
d="M782 1358v142h120v-142h-120zM1504 104v-104h-1514v104h528c-28 20 -54.667 42.667 -80 68c-114.667 113.333 -172 250.333 -172 411s57 298 171 412s247 171 399 171s281.333 -46.667 388 -140l-14 -128c-8 8 -16 16.667 -24 26c-94.667 93.333 -207.667 140 -339 140
s-244 -47.333 -338 -142s-141 -207.667 -141 -339s44.667 -242 134 -332s192 -139 308 -147h694z" />
    <glyph glyph-name="uniFED2" unicode="&#x641;" horiz-adv-x="2364" arabic-form="final" 
d="M1242 583c0 160.667 56.6689 298.001 170.002 412.001s250.666 171 411.999 171h270v-1062h280v-104h-1422c-214.667 2.66699 -398 64.334 -550 185.001c-74.667 59.333 -133.667 128.666 -177 207.999s-65 163.666 -65 252.999v338h102v-338
c0 -148 68.667 -275.333 206 -382s302.666 -160 495.999 -160h528c-28 20 -54.667 42.667 -80 68c-113.333 113.333 -170 250.333 -170 411zM1704 1356v144h120v-144h-120zM1992 1060l-168 -0.000976562c-132 0 -245 -47 -339 -141s-141 -207.333 -141 -340
s47.333 -245.667 142 -339c77.333 -77.333 168 -122.666 272 -135.999h234v956z" />
    <glyph glyph-name="uniFED3" unicode="&#x641;" horiz-adv-x="1262" arabic-form="initial" 
d="M712 1356v144h118v-144h-118zM250 583c0 160.667 56.667 298 170 412s250 171 410 171h272v-1166h-1112v104h510c-28 20 -54.667 42.667 -80 68c-113.333 113.333 -170 250.333 -170 411zM998 104l0.000976562 955.999h-168c-132 0 -244.667 -47 -338 -141
s-140 -207.333 -140 -340s46.667 -245.667 140 -339c77.333 -77.333 168.666 -122.666 273.999 -135.999h232z" />
    <glyph glyph-name="uniFED4" unicode="&#x641;" horiz-adv-x="1370" arabic-form="medial" 
d="M-10 0v104h510c-28 20 -54.667 42.667 -80 68c-113.333 113.333 -170 250.333 -170 411s56.667 298 170 412s250 171 410 171h272v-1062h278v-104h-1390zM998 1060l-167.999 -0.000976562c-132 0 -244.667 -47 -338 -141s-140 -207.333 -140 -340
s46.667 -245.667 140 -339c77.333 -77.333 168.666 -122.666 273.999 -135.999h232v956zM712.001 1356v144h118v-144h-118z" />
    <glyph glyph-name="uniFED6" unicode="&#x642;" horiz-adv-x="1774" arabic-form="final" 
d="M1004 1356v144h120v-144h-120zM1344 1356v144h120v-144h-120zM1422 0l-167.999 0.000976562c-160 0 -296.667 57 -410 171s-170 251.333 -170 412s56.667 298 170 412s250 171 410 171h272v-1062h258v-104h-258v-350h-574c-214.667 2.66699 -398 64.334 -550 185.001
c-74.667 59.333 -133.667 128.666 -177 207.999s-65 163.666 -65 252.999v338h102v-338c0 -148 68.667 -275.333 206 -382s302.666 -160 495.999 -160h458v246zM1422 1060h-168c-132 0 -244.667 -47 -338 -141s-140 -207.333 -140 -340s46 -245 138 -337s202 -138 330 -138
h178v956z" />
    <glyph glyph-name="uniFED7" unicode="&#x642;" horiz-adv-x="1262" arabic-form="initial" 
d="M562 1356v144h118v-144h-118zM902 1356v144h118v-144h-118zM250 583c0 160.667 56.667 298 170 412s250 171 410 171h272v-1166h-1112v104h510c-28 20 -54.667 42.667 -80 68c-113.333 113.333 -170 250.333 -170 411zM998 104l0.000976562 955.999h-168
c-132 0 -244.667 -47 -338 -141s-140 -207.333 -140 -340s46.667 -245.667 140 -339c77.333 -77.333 168.666 -122.666 273.999 -135.999h232z" />
    <glyph glyph-name="uniFED8" unicode="&#x642;" horiz-adv-x="1370" arabic-form="medial" 
d="M562 1356v144h118v-144h-118zM-10 0v104h510c-28 20 -54.667 42.667 -80 68c-113.333 113.333 -170 250.333 -170 411s56.667 298 170 412s250 171 410 171h272v-1062h278v-104h-1390zM998 1060l-167.999 -0.000976562c-132 0 -244.667 -47 -338 -141
s-140 -207.333 -140 -340s46.667 -245.667 140 -339c77.333 -77.333 168.666 -122.666 273.999 -135.999h232v956zM902.001 1356v144h118v-144h-118z" />
    <glyph glyph-name="uniFEDA" unicode="&#x643;" horiz-adv-x="1818" arabic-form="final" 
d="M772 1135c0 38 15.001 72.001 45.001 102.001s64.667 45 104 45s77.666 -16 114.999 -48l-26 -74c-20 12 -34.333 22.333 -43 31s-23 13 -43 13s-37.333 -7.33301 -52 -22s-22 -32.334 -22 -53.001s7 -38 21 -52s29 -21.667 45 -23h134v-88h-294v88h34
c-12 16 -18 43 -18 81zM1442 104.001l0.000976562 1502h104v-1502h282v-104h-876c-214.667 2.66699 -398 64.334 -550 185.001c-74.667 59.333 -133.667 128.666 -177 207.999s-65 163.666 -65 252.999v338h102v-338c0 -148 68.667 -275.333 206 -382
s302.666 -160 495.999 -160h478z" />
    <glyph glyph-name="uniFEDB" unicode="&#x643;" horiz-adv-x="1298" arabic-form="initial" 
d="M1138 372v-372h-1148v104h1046v268c0 132 -46.667 244 -140 336s-203.333 139.333 -330 142h-296v140l678 616l-8 -148l-558 -506h184c156 -2.66699 290.333 -60 403 -172s169 -248 169 -408z" />
    <glyph glyph-name="uniFEDC" unicode="&#x643;" horiz-adv-x="1408" arabic-form="medial" 
d="M-10 0v104h1046v268c0 132 -46.667 244 -140 336s-203.333 139.333 -330 142h-296v140l678 616l-8 -148l-558 -506h184c156 -2.66699 290.333 -60 403 -172s169 -248 169 -408v-268h280v-104h-1428z" />
    <glyph glyph-name="uniFEDE" unicode="&#x644;" horiz-adv-x="1474" arabic-form="final" 
d="M1122 1606l104.001 0.000976562v-1502h258v-104h-258v-350h-274c-214.667 2.66699 -398 64.334 -550 185.001c-74.667 59.333 -133.667 128.666 -177 207.999s-65 163.666 -65 252.999v338h102v-338c0 -148 68.667 -275.333 206 -382s302.666 -160 495.999 -160h158v1852
z" />
    <glyph glyph-name="uniFEDF" unicode="&#x644;" horiz-adv-x="534" arabic-form="initial" 
d="M270 1606h104v-1606h-384v104h280v1502z" />
    <glyph glyph-name="uniFEE0" unicode="&#x644;" horiz-adv-x="646" arabic-form="medial" 
d="M374 104h282v-104h-666v104h280v1502h104v-1502z" />
    <glyph glyph-name="uniFEE2" unicode="&#x645;" horiz-adv-x="1840" arabic-form="final" 
d="M542 474c0 72 10 140 30 204c-53.333 -2.66699 -104 -19 -152 -49s-86.333 -71.667 -115 -125s-43 -112 -43 -176v-672h-102v672c0 124 41 230.333 123 319s181.667 133 299 133h32c60 108.667 140 188 240 238c64 32 131 48 201 48s136.667 -15.667 200 -47
s118.333 -74.333 165 -129c98.667 -116 148 -249.667 148 -401s-37.333 -279.666 -112 -384.999h394v-104h-486c-93.333 -78.667 -196.333 -118 -309 -118s-215.667 39.333 -309 118l-92 104c-74.667 105.333 -112 228.666 -112 369.999zM1055 964
c-112.667 0 -209.333 -47.667 -290 -143s-121 -211 -121 -347c0 -88 18.667 -169.667 56 -245s87.333 -135 150 -179s126.334 -66 191.001 -66c122.667 0 224.167 48.167 304.5 144.5s120.5 212 120.5 347s-40.333 250.167 -121 345.5s-177.334 143 -290.001 143z" />
    <glyph glyph-name="uniFEE3" unicode="&#x645;" horiz-adv-x="1456" arabic-form="initial" 
d="M784 -118c-113.333 0 -216.667 39.334 -310 118.001h-484v104h392c-74.667 105.333 -112 233.666 -112 384.999s49.333 285 148 401c103.333 117.333 225.333 176 366 176c69.333 0 135.666 -15.667 198.999 -47s118.333 -74.333 165 -129c98.667 -116 148 -255 148 -417
s-49.333 -300.333 -148 -415c-46.667 -56 -101.667 -99.333 -165 -130s-129.666 -46 -198.999 -46zM777.999 -15.999c116.667 0 215.168 48.167 295.501 144.5s120.5 212 120.5 347s-40.333 250.167 -121 345.5s-177.334 143 -290.001 143s-209.334 -47.667 -290.001 -143
s-121 -211 -121 -347c0 -88 18.333 -169.333 55 -244s85.667 -134 147 -178l34 -20c54.667 -32 111.334 -48 170.001 -48z" />
    <glyph glyph-name="uniFEE4" unicode="&#x645;" horiz-adv-x="1568" arabic-form="medial" 
d="M783 -118c-112.667 0 -215.666 39.333 -308.999 118h-484v104h392c-74.667 105.333 -112 233.666 -112 384.999s49.333 285 148 401c103.333 117.333 225.333 176 366 176c69.333 0 135.666 -15.667 198.999 -47s118.333 -74.333 165 -129
c98.667 -116 148 -249.667 148 -401s-37.333 -279.666 -112 -384.999h394v-104h-486c-93.333 -78.667 -196.333 -118 -309 -118zM783.001 964c-112.667 0 -209.333 -47.667 -290 -143s-121 -211 -121 -347c0 -88 18.667 -169.667 56 -245s87.333 -135 150 -179
s126.334 -66 191.001 -66c122.667 0 224.167 48.167 304.5 144.5s120.5 212 120.5 347s-40.333 250.167 -121 345.5s-177.334 143 -290.001 143z" />
    <glyph glyph-name="uniFEE6" unicode="&#x646;" horiz-adv-x="1474" arabic-form="final" 
d="M642 1358v142h120v-142h-120zM1122 1166l104.001 0.000976562v-1062h258v-104h-258v-350h-274c-214.667 2.66699 -398 64.334 -550 185.001c-74.667 59.333 -133.667 128.666 -177 207.999s-65 163.666 -65 252.999v338h102v-338c0 -148 68.667 -275.333 206 -382
s302.666 -160 495.999 -160h158v1412z" />
    <glyph glyph-name="uniFEE7" unicode="&#x646;" horiz-adv-x="542" arabic-form="initial" 
d="M262 1348v142h120v-142h-120zM270 1166h104v-1166h-384v104h280v1062z" />
    <glyph glyph-name="uniFEE8" unicode="&#x646;" horiz-adv-x="646" arabic-form="medial" 
d="M262 1352v144h120v-144h-120zM374 104h282v-104h-666v104h280v1062h104v-1062z" />
    <glyph glyph-name="uniFEEA" unicode="&#x647;" horiz-adv-x="1262" arabic-form="final" 
d="M742 0c-161.333 0 -298.666 57 -411.999 171s-170 251.333 -170 412s56.667 298 170 412s250.666 171 411.999 171h270v-1062h260v-104h-530zM910 104l-0.000976562 956h-168c-132 0 -245 -47 -339 -141s-141 -207.333 -141 -340s46.333 -245 139 -337
s202.334 -138 329.001 -138h180z" />
    <glyph glyph-name="uniFEEB" unicode="&#x647;" horiz-adv-x="1472" arabic-form="initial" 
d="M930 422c0 96 -32.333 173.333 -97 232s-129.334 88 -194.001 88s-129.667 -29.333 -195 -88s-98 -136 -98 -232s32.667 -173.333 98 -232c54.667 -50.667 119.334 -79.334 194.001 -86.001c74.667 6.66699 142 37.334 202 92.001s90 130 90 226zM638 844
c92 0 180.667 -39 266 -117s128 -183.333 128 -316s-48 -235 -144 -307h322v518c0 132 -47 244.667 -141 338s-207 140 -339 140s-245.333 -46.667 -340 -140l-72 72c113.333 113.333 250.333 170 411 170s298 -57 412 -171s171 -250.333 171 -409v-622h-1322v104h398
c-5.33301 4 -10 8 -14 12c-86.667 77.333 -130 179 -130 305s42.667 228 128 306s174 117 266 117z" />
    <glyph glyph-name="uniFEEC" unicode="&#x647;" horiz-adv-x="1584" arabic-form="medial" 
d="M638 844c92 0 180.667 -39 266 -117s128 -183.333 128 -316s-48 -235 -144 -307h322v518c0 132 -47 244.667 -141 338s-207 140 -339 140s-245.333 -46.667 -340 -140l-72 72c113.333 113.333 250.333 170 411 170s298 -57 412 -171s171 -250.333 171 -409v-518h282v-104
h-1604v104h398c-5.33301 4 -10 8 -14 12c-86.667 77.333 -130 179 -130 305s42.667 228 128 306s174 117 266 117zM930 422c0 96 -32.333 173.333 -97 232s-129.334 88 -194.001 88s-129.667 -29.333 -195 -88s-98 -136 -98 -232s32.667 -173.333 98 -232
c54.667 -50.667 119.334 -79.334 194.001 -86.001c74.667 6.66699 142 37.334 202 92.001s90 130 90 226z" />
    <glyph glyph-name="uniFEEE" unicode="&#x648;" horiz-adv-x="1262" arabic-form="final" 
d="M1012 0l-0.000976562 -90c0 -97.333 -40 -179.333 -120 -246s-174.667 -100 -284 -100c-69.333 0 -134 14 -194 42s-109.333 67.333 -148 118l-30 40l82 62l30 -40c62.667 -80 149.334 -120 260.001 -120c84 0 155.333 24 214 72s88 105.333 88 172v90h-168
c-161.333 0 -298.666 57 -411.999 171s-170 251.333 -170 412s56.667 298 170 412s250.666 171 411.999 171h270v-1062h260v-104h-260zM909.999 104l-0.000976562 956h-168c-132 0 -245 -47 -339 -141s-141 -207.333 -141 -340s46.333 -245 139 -337
s202.334 -138 329.001 -138h180z" />
    <glyph glyph-name="uniFEF0" unicode="&#x649;" horiz-adv-x="2234" arabic-form="final" 
d="M1862 0v714.002c0 64 -14.333 122.667 -43 176s-67.667 95.666 -117 126.999s-102.666 47 -159.999 47h-96v-1064h-494c-214.667 2.66699 -398 64.334 -550 185.001c-74.667 59.333 -133.667 128.666 -177 207.999s-65 163.666 -65 252.999v338h102v-338
c0 -148 68.667 -275.333 206 -382s302.666 -160 495.999 -160h378v1062h200c117.333 0 217 -44.333 299 -133s123 -195 123 -319v-610h280v-104h-382z" />
    <glyph glyph-name="uniFEF2" unicode="&#x64a;" horiz-adv-x="2234" arabic-form="final" 
d="M844 -342v142h118v-142h-118zM1862 0v714.002c0 64 -14.333 122.667 -43 176s-67.667 95.666 -117 126.999s-102.666 47 -159.999 47h-96v-1064h-494c-214.667 2.66699 -398 64.334 -550 185.001c-74.667 59.333 -133.667 128.666 -177 207.999s-65 163.666 -65 252.999
v338h102v-338c0 -148 68.667 -275.333 206 -382s302.666 -160 495.999 -160h378v1062h200c117.333 0 217 -44.333 299 -133s123 -195 123 -319v-610h280v-104h-382zM1184 -341.998v142h118v-142h-118z" />
    <glyph glyph-name="uniFEF3" unicode="&#x64a;" horiz-adv-x="652" arabic-form="initial" 
d="M34 -342v142h118v-142h-118zM374 -342v142h118v-142h-118zM270 1166h102v-1166h-382v104h280v1062z" />
    <glyph glyph-name="uniFEF4" unicode="&#x64a;" horiz-adv-x="646" arabic-form="medial" 
d="M92 -342v142h120v-142h-120zM432 -342v142h120v-142h-120zM374 104h282v-104h-666v104h280v1062h104v-1062z" />
    <glyph glyph-name=".notdef" horiz-adv-x="1200" 
d="M598 988l452 712h-904zM0 0v1800h1200v-1800h-1200zM538 894l-438 690v-1378zM656 894l444 -698v1398zM598 802l-446 -702h890z" />
    <glyph glyph-name=".null" horiz-adv-x="1278" 
 />
    <glyph glyph-name=".null" horiz-adv-x="1278" 
 />
    <glyph glyph-name="space" unicode=" " horiz-adv-x="400" 
 />
    <glyph glyph-name="space" unicode="&#xa0;" horiz-adv-x="400" 
 />
    <glyph glyph-name="exclam" unicode="!" horiz-adv-x="510" 
d="M256 204c28 0 50.667 -9.66699 68 -29s26 -43.666 26 -72.999s-8.66699 -53.666 -26 -72.999s-40 -29 -68 -29s-51 9.66699 -69 29s-27 43.666 -27 72.999s9 53.666 27 72.999s41 29 69 29zM204 642v964h104v-964h-104z" />
    <glyph glyph-name="quotedbl" unicode="&#x22;" horiz-adv-x="590" 
d="M328 1276v330h102v-330h-102zM160 1276v330h102v-330h-102z" />
    <glyph glyph-name="numbersign" unicode="#" horiz-adv-x="1516" 
d="M938 656l110 338h-452l-112 -338h454zM1356 1094v-100h-202l-112 -338h176v-100h-210l-184 -556h-106l184 556h-452l-182 -556h-108l186 556h-156v100h188l112 338h-162v100h196l170 512h104l-168 -512h450l170 512h106l-170 -512h170z" />
    <glyph glyph-name="dollar" unicode="$" horiz-adv-x="1246" 
d="M984 475c0 84.667 -33.333 149 -100 193c-42.667 28 -108.667 54.667 -198 80v-574c92 8 164.667 39 218 93s80 123.333 80 208zM294 1156c0 -85.333 33.333 -150 100 -194c41.333 -26.667 104 -52.667 188 -78v534c-192 -12 -288 -99.333 -288 -262zM975 191
c-74 -71.333 -170.332 -111.667 -288.999 -121v-70h-104v70c-94.667 4 -172 21 -232 51s-113.333 77.667 -160 143l-30 42l84 60l30 -44c30.667 -45.333 68 -80.666 112 -105.999s109.333 -40 196 -44v604c-110.667 32 -192 66 -244 102c-97.333 62.667 -146 152 -146 268
s34 205.667 102 269s164 98.333 288 105v86h104v-88c125.333 -14.667 227.333 -78.667 306 -192l28 -42l-84 -58l-28 40c-58.667 85.333 -132.667 135.333 -222 150v-562c117.333 -32 202.666 -65.333 255.999 -100c96 -66.667 144 -159.334 144 -278.001
s-37 -213.667 -111 -285z" />
    <glyph glyph-name="percent" unicode="%" horiz-adv-x="1400" 
d="M968 98c37.333 0 68.332 8 92.999 24c54 35.333 81 81.333 81 138c0 57.333 -15.667 103.333 -47 138s-69.666 52 -114.999 52s-83.666 -17.333 -114.999 -52s-47 -76 -47 -124s15.667 -89.333 47 -124s65.666 -52 102.999 -52zM978.999 548
c71.333 0 132.666 -27 183.999 -81s77 -118.667 77 -194s-25.667 -139.666 -77 -192.999s-112.666 -80 -183.999 -80s-132.333 26.667 -183 80s-76 117.666 -76 192.999s25.333 140 76 194s111.667 81 183 81zM419.999 1488c-44 0 -81.667 -17.333 -113 -52
s-47 -75.667 -47 -123s15.667 -88.333 47 -123s69 -52 113 -52s82 17.333 114 52s48 75.667 48 123s-16 88.333 -48 123s-70 52 -114 52zM419.999 1040c-72 0 -133.331 26.6689 -183.998 80.002s-76 117.666 -76 192.999s25.333 139.666 76 192.999s112 80 184 80
s133.333 -26.667 184 -80s76 -117.333 76 -192c0 -49.333 -11.333 -95.333 -34 -138s-54.334 -76 -95.001 -100s-84.334 -36 -131.001 -36zM1100 1606h114l-928 -1606h-112z" />
    <glyph glyph-name="ampersand" unicode="&#x26;" horiz-adv-x="1542" 
d="M730 1504c-74.667 0 -126.333 -13.999 -155 -41.999c-90.667 -88.667 -75 -264.667 47 -528c37.333 16 76 31.333 116 46c86.667 28 151 75.333 193 142c57.333 91.333 66.333 177.666 27 258.999c-39.333 82 -115.333 123 -228 123zM638.001 100.001
c136 0 248.667 42 338 126c-152.667 167.333 -286 358 -400 572c-82.667 -48 -149.334 -104 -200.001 -168c-73.333 -94.667 -102.666 -190.667 -87.999 -288c13.333 -73.333 51 -132 113 -176s141 -66 237 -66zM638.001 0.000976562
c-124 0 -225.668 30.334 -305.001 91.001s-127.666 139 -144.999 235c-18.667 125.333 18 247.333 110 366c60 76 138 142 234 198c-14.667 29.333 -27.334 59.333 -38.001 90c-109.333 277.333 -102.666 464.666 20.001 561.999c53.333 42.667 126.666 64 219.999 64
s170.333 -25.333 231 -76s98.334 -114.667 113.001 -192c14.667 -92 -5.33301 -180.667 -60 -266c-56 -90.667 -139.333 -153.334 -250 -188.001c-36 -13.333 -70 -27.333 -102 -42c106.667 -200 232.667 -380 378 -540l8 12c102.667 145.333 154 348 154 608h100
c0 -279.333 -56.667 -501.333 -170 -666c-6.66699 -9.33301 -14 -18.666 -22 -27.999c110.667 -105.333 200 -168 268 -188l-30 -96c-88 26.667 -190 96.667 -306 210c-110.667 -102.667 -246.667 -154 -408 -154z" />
    <glyph glyph-name="quotesingle" unicode="'" horiz-adv-x="496" 
d="M234 1602h102v-48c0 -56 -10.667 -113.333 -32 -172s-44 -100 -68 -124l-76 68c18.667 18.667 35.667 50.667 51 96s23 89.333 23 132v48z" />
    <glyph glyph-name="parenleft" unicode="(" horiz-adv-x="798" 
d="M638 -264c-66.667 0 -130 25 -190 75s-112.667 121.667 -158 215c-86.667 178.667 -130 394 -130 646s43.333 468 130 648c45.333 92 98 162.667 158 212s123.333 74 190 74v-100c-44 0 -88.667 -19.333 -134 -58s-86.666 -96.667 -123.999 -174
c-80 -165.333 -120 -366.333 -120 -603s40 -437.667 120 -603c37.333 -74.667 78.666 -132 123.999 -172s90 -60 134 -60v-100z" />
    <glyph glyph-name="parenright" unicode=")" horiz-adv-x="800" 
d="M160 -264v100c46.667 0 92.667 20 138 60s85.333 97.333 120 172c81.333 165.333 122 366.333 122 603s-40.667 437.667 -122 603c-34.667 77.333 -74.667 135.333 -120 174s-91.333 58 -138 58v100c68 0 132 -24.667 192 -74s112 -120 156 -212
c88 -180 132 -396 132 -648s-44 -467.333 -132 -646c-44 -93.333 -96 -165 -156 -215s-124 -75 -192 -75z" />
    <glyph glyph-name="asterisk" unicode="*" horiz-adv-x="1142" 
d="M982 1226v-100h-312l244 -320l-80 -60l-262 348l-264 -348l-78 60l242 320h-312v100h312l-242 320l78 60l264 -348l262 348l80 -60l-244 -320h312z" />
    <glyph glyph-name="plus" unicode="+" horiz-adv-x="1326" 
d="M1166 658v-102h-452v-554h-102v554h-452v102h452v552h102v-552h452z" />
    <glyph glyph-name="comma" unicode="," horiz-adv-x="512" 
d="M250 -40v174h102v-174c0 -84 -25.333 -152.667 -76 -206c-25.333 -26.667 -52 -44.667 -80 -54l-36 94c37.333 18.667 64 52 80 100c6.66699 20 10 42 10 66z" />
    <glyph glyph-name="hyphen" unicode="-" horiz-adv-x="882" 
d="M160 556v102h562v-102h-562z" />
    <glyph glyph-name="hyphen" unicode="&#xad;" horiz-adv-x="882" 
d="M160 556v102h562v-102h-562z" />
    <glyph glyph-name="period" unicode="." horiz-adv-x="510" 
d="M254 206c28 0 51 -9.66699 69 -29s27 -43.666 27 -72.999s-9 -53.666 -27 -72.999s-41 -29 -69 -29s-50.667 9.66699 -68 29s-26 43.666 -26 72.999s8.66699 53.666 26 72.999s40 29 68 29z" />
    <glyph glyph-name="slash" unicode="/" horiz-adv-x="960" 
d="M268 0h-108l532 1606h108z" />
    <glyph glyph-name="zero" unicode="0" horiz-adv-x="1312" 
d="M656 1504c-100 0 -180.668 -32.666 -242.001 -97.999s-102.666 -144 -123.999 -236c-18.667 -94.667 -28 -217 -28 -367s9.33301 -272.333 28 -367c28 -112 79.333 -199.333 154 -262c57.333 -48 132 -72 224 -72s169 33 231 99s103 145.333 123 238s30 214 30 364
s-10 271.667 -30 365s-61 172.666 -123 237.999s-143 98 -243 98zM656.999 0.000976562c-123.333 0 -225.333 40 -306 120s-132.667 174.667 -156 284s-35 242.333 -35 399s11.667 289.667 35 399s75.333 204 156 284s182.667 120 306 120s225.333 -40 306 -120
s132.334 -174.667 155.001 -284s34 -242.333 34 -399s-11.333 -289.667 -34 -399s-74.334 -204 -155.001 -284s-182.667 -120 -306 -120z" />
    <glyph glyph-name="one" unicode="1" horiz-adv-x="780" 
d="M620 0l-102 -0.000976562v1408c-65.333 -75.333 -124 -130.666 -176 -165.999c-49.333 -37.333 -92 -56 -128 -56h-54v102h54c13.333 0 36.333 11.333 69 34s68.667 55 108 97s70.333 80.667 93 116s34 59 34 71h102v-1606z" />
    <glyph glyph-name="two" unicode="2" horiz-adv-x="1174" 
d="M1004 0h-843.999v52c0 189.333 49.333 349.333 148 480c53.333 68.667 117.666 132 192.999 190c26 20 62 46 108 78s79.333 56.333 100 73c74.667 60 127 113.667 157 161c29.333 47.333 44 106 44 176c-2.66699 53.333 -16.667 104 -42 152
c-53.333 94.667 -144 142 -272 142c-97.333 0 -182 -27.333 -254 -82c-37.333 -28 -64 -55.333 -80 -82l-88 52c21.333 36 55.333 72 102 108c92 70.667 198.667 106 320 106c169.333 0 290 -66 362 -198c36 -64 54.667 -128.667 56 -194v-2
c0 -112 -37.333 -211.333 -112 -298c-41.333 -49.333 -118 -114 -230 -194l-75 -54c-63.333 -45.333 -106 -80 -128 -104l-67 -76c-83.333 -98 -130 -226 -140 -384h742v-102z" />
    <glyph glyph-name="three" unicode="3" horiz-adv-x="1268" 
d="M648 12c-133.333 0 -249.998 38.665 -349.998 115.998c-50.667 38.667 -87.334 78 -110.001 118l88 54c18.667 -32 48 -62.667 88 -92c80 -61.333 174 -92 282 -92s195 34.667 261 104s99 149.333 99 240s-35.333 166 -106 226c-86.667 73.333 -220.667 110 -402 110
l2 102c148 0 260.667 32.667 338 98c64 53.333 96 121.333 96 204c0 52 -12.667 101.333 -38 148s-63 85.334 -113 116.001s-102 46 -156 46s-101 -6 -141 -18s-71.667 -25.333 -95 -40s-45 -31.334 -65 -50.001s-32.667 -32 -38 -40l-40 -64l-88 54l28 44
c21.333 37.333 55.333 74 102 110c90.667 70.667 198 106 322 106s226 -41.667 306 -125s120 -180.666 120 -291.999s-44.667 -203.666 -134 -276.999c-28 -24 -60.667 -45.333 -98 -64c61.333 -21.333 114.666 -51.333 159.999 -90c94.667 -80 142 -180 142 -300
s-41.333 -224 -124 -312c-90.667 -93.333 -202.667 -140 -336 -140z" />
    <glyph glyph-name="four" unicode="4" horiz-adv-x="1324" 
d="M876 690v748l-586 -748h586zM1164 690v-102h-186v-588h-102v588h-716v102l718 916h100v-916h186z" />
    <glyph glyph-name="five" unicode="5" horiz-adv-x="1254" 
d="M618 1008c132 0 244.335 -49 337.002 -147s139 -216.333 139 -355s-46.333 -257.667 -139 -357s-205 -149 -337 -149c-94.667 -0 -182 27.333 -262 82s-138 128 -174 220l-22 46l96 40l20 -48c29.333 -72 75 -129.667 137 -173s128.667 -65 200 -65
s135.666 18.333 192.999 55s102.666 85.667 135.999 147s50 128 50 200c0 110.667 -36.333 205.667 -109 285s-161 119 -265 119s-192.667 -40.667 -266 -122l-36 -36l-102 4l34 852h752v-102h-652l-26 -602c88 70.667 186.667 106 296 106z" />
    <glyph glyph-name="six" unicode="6" horiz-adv-x="1266" 
d="M636 98c101.333 0 188.001 39.668 260.001 119.001s108 175 108 287c0 72 -16.333 139.333 -49 202s-77.334 112 -134.001 148s-118.667 54 -186 54s-129 -18 -185 -54s-100.667 -85.333 -134 -148s-50 -130.334 -50 -203.001s16.667 -140 50 -202s78 -111.333 134 -148
s118 -55 186 -55zM1106 504.001c0 -138.667 -45.999 -257.332 -137.999 -355.999c-90.667 -101.333 -201.334 -152 -332.001 -152s-242 50.667 -334 152c-48 52 -83.333 115.667 -106 191s-34 186.333 -34 333l-2 226c0 110.667 6 201.334 18 272.001
c22.667 133.333 66.667 234.666 132 303.999c81.333 85.333 196.666 128 345.999 128c74.667 0 145 -18.333 211 -55s121 -86.334 165 -149.001l30 -42l-84 -60l-30 44c-34.667 50.667 -77.667 90 -129 118s-105.666 42 -162.999 42c-120 0 -209 -30.333 -267 -91
s-94.333 -136 -109 -226s-22 -168.333 -22 -235v-142c97.333 136 223.333 204 378 204c130.667 0 241.667 -49.667 333 -149s137 -218.333 137 -357z" />
    <glyph glyph-name="seven" unicode="7" horiz-adv-x="1338" 
d="M432 0l-102 -0.000976562c0 133.333 41.333 298 124 494c122 296.667 320.667 633.334 596 1010h-890v102h1018l-2 -98c-120 -158.667 -242.667 -342.667 -368 -552c-250.667 -417.333 -376 -736 -376 -956z" />
    <glyph glyph-name="eight" unicode="8" horiz-adv-x="1268" 
d="M632 102c102.667 0 190.334 34.333 263.001 103s109 151 109 247s-36.333 178.333 -109 247s-160.334 103 -263.001 103s-190 -34.333 -262 -103s-108 -151 -108 -247s36 -178.333 108 -247s159.333 -103 262 -103zM302 1204c0 -82.667 32.667 -153.334 98 -212.001
s143.666 -88 234.999 -88s169.333 29.333 234 88s97 129.334 97 212.001s-32.333 153.334 -97 212.001s-142.667 88 -234 88s-169.666 -29.333 -234.999 -88s-98 -129.334 -98 -212.001zM1068 1204c0 -148.667 -72.668 -265.334 -218.001 -350.001
c42.667 -21.333 81.334 -48.666 116.001 -81.999c94.667 -88 142 -194.667 142 -320s-46.667 -232 -140 -320s-205 -132 -335 -132s-241.667 44 -335 132c-92 88 -138 194.667 -138 320s46 232 138 320c36 33.333 76 60.666 120 81.999
c-145.333 84.667 -218 201.334 -218 350.001c0 112 42.667 207 128 285s187.333 117 306 117s220.667 -39 306 -117s128 -173 128 -285z" />
    <glyph glyph-name="nine" unicode="9" horiz-adv-x="1266" 
d="M630 1500c-66.667 0 -128.333 -17.998 -185 -53.998s-101.334 -85.333 -134.001 -148s-49 -130.667 -49 -204c0 -110.667 35.667 -205.667 107 -285s158 -119 260 -119s188.667 39.667 260 119s107 174.666 107 285.999s-35.667 206.666 -107 285.999
s-157.666 119 -258.999 119zM610.001 -3.99805c-76 0 -146.998 18.333 -212.998 55s-121 87 -165 151l-28 42l84 58l28 -44c36 -50.667 79.667 -90 131 -118s105.666 -42 162.999 -42c120 0 209 30.667 267 92s94.333 137 109 227s22 168.333 22 235v142
c-14.667 -20 -29.334 -38.667 -44.001 -56c-93.333 -100 -205 -150 -335 -150s-241 50 -333 150c-90.667 100 -136 219.333 -136 358s45.667 257.667 137 357s202 149 332 149s241.667 -50 335 -150c48 -53.333 83.333 -117 106 -191s34 -185.667 34 -335l2 -224
c0 -92 -3 -158.667 -9 -200c-16.667 -112.667 -35 -193.667 -55 -243c-20 -48.667 -48.667 -93 -86 -133c-82.667 -86.667 -198 -130 -346 -130z" />
    <glyph glyph-name="colon" unicode=":" horiz-adv-x="510" 
d="M254 806c-28 0 -50.667 9 -68 27s-26 41.667 -26 71s8.66699 53.666 26 72.999s40 29 68 29s51 -9.66699 69 -29s27 -43.666 27 -72.999s-9 -53 -27 -71s-41 -27 -69 -27zM254 206c28 0 51 -9.66699 69 -29s27 -43.666 27 -72.999s-9 -53.666 -27 -72.999
s-41 -29 -69 -29s-50.667 9.66699 -68 29s-26 43.666 -26 72.999s8.66699 53.666 26 72.999s40 29 68 29z" />
    <glyph glyph-name="semicolon" unicode=";" horiz-adv-x="556" 
d="M250 -40v174h102v-174c0 -84 -25.333 -152.667 -76 -206c-25.333 -26.667 -52 -44.667 -80 -54l-36 94c37.333 18.667 64 52 80 100c6.66699 20 10 42 10 66zM302 1006c28 0 50.667 -9.66699 68 -29s26 -43.666 26 -72.999s-8.66699 -53 -26 -71s-40.333 -27 -69 -27
s-51.667 9 -69 27s-26 41.667 -26 71s9 53.666 27 72.999s41 29 69 29z" />
    <glyph glyph-name="semicolon" unicode="&#x37e;" horiz-adv-x="556" 
d="M250 -40v174h102v-174c0 -84 -25.333 -152.667 -76 -206c-25.333 -26.667 -52 -44.667 -80 -54l-36 94c37.333 18.667 64 52 80 100c6.66699 20 10 42 10 66zM302 1006c28 0 50.667 -9.66699 68 -29s26 -43.666 26 -72.999s-8.66699 -53 -26 -71s-40.333 -27 -69 -27
s-51.667 9 -69 27s-26 41.667 -26 71s9 53.666 27 72.999s41 29 69 29z" />
    <glyph glyph-name="less" unicode="&#x3c;" horiz-adv-x="1366" 
d="M1154 0l-994 596v62l994 596l52 -86l-902 -540l902 -542z" />
    <glyph glyph-name="equal" unicode="=" horiz-adv-x="1328" 
d="M160 328v102h1008v-102h-1008zM160 800v102h1008v-102h-1008z" />
    <glyph glyph-name="greater" unicode="&#x3e;" horiz-adv-x="1364" 
d="M210 0l-50 86l900 542l-900 540l50 86l994 -596v-62z" />
    <glyph glyph-name="question" unicode="?" horiz-adv-x="1178" 
d="M560 1606c154.667 0 269.665 -35.334 344.998 -106.001s113 -168 113 -292s-30.667 -223.333 -92 -298c-36 -45.333 -97.333 -89.333 -184 -132c-36 -17.333 -62 -31.666 -78 -42.999c-40 -28 -60 -67 -60 -117v-48h-98v48c0 74.667 19.333 128.667 58 162
s78.334 60 119.001 80s68.334 34.333 83.001 43s33.667 23 57 43c64.667 55.333 97 147.333 97 276c0 189.333 -120 284 -360 284c-56 0 -109.333 -14 -160 -42s-94 -68 -130 -120l-28 -44l-82 58l28 42c45.333 65.333 100.333 116 165 152s133.667 54 207 54z
M568.998 197.999c27.333 0 49.668 -9.33301 67.001 -28s26 -42.334 26 -71.001s-8.66699 -52.334 -26 -71.001s-40 -28 -68 -28s-50.333 9.33301 -67 28s-25 42.334 -25 71.001s8.66699 52.334 26 71.001s39.666 28 66.999 28z" />
    <glyph glyph-name="at" unicode="@" horiz-adv-x="2084" 
d="M1019 140c111.333 0 206 46.333 284 139s117 204.334 117 335.001s-39 242.334 -117 335.001s-172.667 139 -284 139s-206.333 -46.333 -285 -139s-118 -204.334 -118 -335.001s39.333 -242.334 118 -335.001s173.667 -139 285 -139zM661 208
c-98 113.333 -147.003 248.669 -147.003 406.002s48.333 292.666 145 405.999s216.334 170 359.001 170c142 0 262 -57.333 360 -172c44 -49.333 78 -106 102 -170l68 334l100 -20l-188 -928c-9.33301 -46.667 -5.33301 -80.667 12 -102s44.333 -32 81 -32s72 17 106 51
s63.333 79.333 88 136s43.334 115.667 56.001 177s19 112 19 152c0 124 -20.333 242.333 -61 355s-96 209.667 -166 291s-153 146 -249 194s-197.333 72 -304 72c-141.333 0 -272 -40.667 -392 -122s-214.667 -192 -284 -332s-104 -292.333 -104 -457s34.667 -317 104 -457
s164 -250.667 284 -332s250.667 -122 392 -122c94.667 0 185.334 18 272.001 54c53.333 24 104 54 152 90l40 32l62 -82l-40 -30c-54.667 -41.333 -112 -76 -172 -104c-101.333 -41.333 -209 -62 -323 -62s-225 26 -333 78s-202.667 125.333 -284 220
s-144.666 202 -189.999 322c-44 125.333 -66 256.333 -66 393s22 267.667 66 393c45.333 120 108.666 227.333 189.999 322s176 168 284 220s222.333 78 343 78s235 -26 343 -78s202.667 -125.333 284 -220s144 -203.334 188 -326.001s66 -252.667 66 -390
c0 -66.667 -9 -133.667 -27 -201c-42 -157.333 -97.667 -269.666 -167 -336.999c-54.667 -53.333 -115 -80 -181 -80s-114 18.667 -144 56s-46.333 80.666 -49 129.999c-97.333 -97.333 -213 -146 -347 -146s-250 56.667 -348 170z" />
    <glyph glyph-name="A" unicode="A" horiz-adv-x="1536" 
d="M602 692h304c56 0 93.333 8 112 24l-250 720l-266 -760c32 10.667 65.333 16 100 16zM906 592h-304.001c-76 0 -128.667 -29.333 -158 -88l-176 -504h-108l560 1606h96l560 -1606h-108l-214 618c-37.333 -17.333 -86.666 -26 -147.999 -26z" />
    <glyph glyph-name="B" unicode="B" horiz-adv-x="1432" 
d="M824 102c93.333 0 174.333 34 243 102s103 149.667 103 245s-34.333 177 -103 245s-149.667 102 -243 102l-478 2c-30.667 0 -58.667 4.66699 -84 14v-710h562zM824 900c82.667 0 153.334 29.334 212.001 88.001s88 129.667 88 213s-29.333 154.666 -88 213.999
s-129.334 89 -212.001 89h-562v-546c3.33301 -38.667 31.333 -58 84 -58h478zM1272 450.001c0 -124 -43.334 -230 -130.001 -318c-92 -88 -198 -132 -318 -132h-664v1606h664c110.667 0 205.667 -39.667 285 -119s119 -175 119 -287c0 -73.333 -18.667 -141 -56 -203
s-86.666 -111 -147.999 -147c42.667 -21.333 82 -49.333 118 -84c86.667 -86.667 130 -192 130 -316z" />
    <glyph glyph-name="C" unicode="C" horiz-adv-x="1520" 
d="M824 0c-190 0 -348.332 78.9971 -474.999 236.997c-126 158 -189 347 -189 567s62 407.333 186 562c126 160 285.333 240 478 240c97.333 0 191.333 -28.667 282 -86s166 -134.666 226 -231.999l28 -44l-88 -54l-28 44c-112.667 180 -260 270 -442 270
c-92 0 -180.333 -31.333 -265 -94s-151.667 -147.667 -201 -255s-74 -224.666 -74 -351.999s24.667 -244.333 74 -351s116.333 -191.667 201 -255s173 -95 265 -95c183.333 0 330.666 90.667 441.999 272l28 42l88 -54l-28 -44c-60 -97.333 -135.333 -174.666 -226 -231.999
s-184.667 -86 -282 -86z" />
    <glyph glyph-name="D" unicode="D" horiz-adv-x="1438" 
d="M1176 808c0 93.333 -14.332 182.999 -42.999 268.999s-67.334 160.333 -116.001 223s-106.667 112.334 -174 149.001s-137 55 -209 55h-372v-1400l372 -2c146.667 0 273.667 68.667 381 206s161 304 161 500zM634.001 -0.000976562h-2l-472 2v1604h474
c88 0 171.667 -21 251 -63s149 -100.333 209 -175c122.667 -154.667 184 -342 184 -562s-61.333 -408 -184 -564c-60 -74.667 -129.667 -133.667 -209 -177s-163 -65 -251 -65z" />
    <glyph glyph-name="E" unicode="E" horiz-adv-x="1276" 
d="M346 796c-56 0 -84 -21.333 -84 -64v-630h854v-102h-956v1606h956v-102h-854v-620c25.333 9.33301 53.333 14 84 14h770v-102h-770z" />
    <glyph glyph-name="F" unicode="F" horiz-adv-x="1328" 
d="M1010 898l0.000976562 -102h-664c-30.667 0 -52.667 -7 -66 -21s-19.333 -29.667 -18 -47v-728h-102v1606h1008v-102h-906v-620c21.333 8 44.666 12.667 69.999 14h678z" />
    <glyph glyph-name="G" unicode="G" horiz-adv-x="1608" 
d="M160 804c0 220 61.9951 407.331 185.995 561.998c126 160 285.667 240 479 240c99.333 0 196.333 -31 291 -93s171.334 -145.667 230.001 -251l-90 -52c-50.667 92 -115.667 164 -195 216s-165.666 78 -258.999 78s-182 -31.333 -266 -94s-150.667 -147.667 -200 -255
s-74 -224.666 -74 -351.999s24.667 -244.333 74 -351s116 -191.667 200 -255s175.333 -95 274 -95c58.667 0 118.334 17 179.001 51s116 78.667 166 134s92.333 123.333 127 204s55.334 165 62.001 253h-614v102h666c13.333 0 25.333 -4.66699 36 -14s16 -21.333 16 -36
c0 -104 -17.667 -204.333 -53 -301s-83.666 -181.667 -144.999 -255c-132 -160 -281.333 -240 -448 -240c-84 0 -166 21.333 -246 64s-150 101.334 -210 176.001c-124 156 -186 344 -186 564z" />
    <glyph glyph-name="H" unicode="H" horiz-adv-x="1360" 
d="M936 898c80 0 134 28 162 84v624h102v-1606h-102v838c-44 -26.667 -94.667 -40.667 -152 -42h-522c-56 0 -100 -16 -132 -48c-13.333 -10.667 -23.333 -22.667 -30 -36v-712h-102v1606h102v-752c46.667 29.333 100.667 44 162 44h512z" />
    <glyph glyph-name="I" unicode="I" horiz-adv-x="422" 
d="M160 0v1606h102v-1606h-102z" />
    <glyph glyph-name="J" unicode="J" horiz-adv-x="970" 
d="M160 0v101.999c98.667 0 190 31.333 274 94s150.667 147.334 200 254.001s74 224 74 352v804h102v-804c0 -220 -62 -408 -186 -564c-60 -73.333 -129.667 -131.333 -209 -174s-164.333 -64 -255 -64z" />
    <glyph glyph-name="K" unicode="K" horiz-adv-x="1390" 
d="M262 0h-101.999v1606h102v-696c10.667 18.667 26 36 46 52l690 644h150l-774 -722c-36.667 -30 -39.334 -59.333 -8.00098 -88l864 -796h-152l-776 718c-16 12 -29.333 26.667 -40 44v-762z" />
    <glyph glyph-name="L" unicode="L" horiz-adv-x="1328" 
d="M262 102h906v-102h-1008v1606h102v-1504z" />
    <glyph glyph-name="M" unicode="M" horiz-adv-x="1594" 
d="M1434 1606v-1606h-102v1318l-482 -1318h-108l-480 1318v-1318h-102v1606h104l532 -1456l532 1456h106z" />
    <glyph glyph-name="N" unicode="N" horiz-adv-x="1348" 
d="M1086 1606h102v-1606h-160l-766 1406v-1406h-102v1606h108l818 -1500v1500z" />
    <glyph glyph-name="O" unicode="O" horiz-adv-x="1622" 
d="M810 1504c-98.667 0 -190 -31.333 -274 -94s-150.667 -147.667 -200 -255s-74 -224.666 -74 -351.999s24.667 -244.333 74 -351s116 -191.667 200 -255s175.333 -95 274 -95s190.334 31.667 275.001 95s151.667 148.333 201 255s74 223.667 74 351
s-24.667 244.666 -74 351.999s-116.333 192.333 -201 255s-176.334 94 -275.001 94zM811 0c-90 0 -175 21.333 -255 64s-150 101.334 -210 176.001c-124 156 -186 344 -186 564s62 407.333 186 562c60 76 130 135 210 177s165 63 255 63s175 -21 255 -63
s149.333 -101 208 -177c125.333 -154.667 188 -342 188 -562s-62.667 -408 -188 -564c-58.667 -74.667 -128 -133.334 -208 -176.001s-165 -64 -255 -64z" />
    <glyph glyph-name="P" unicode="P" horiz-adv-x="1386" 
d="M822 898c82.667 0 153.334 29.6689 212.001 89.002s88 130.666 88 213.999s-29.333 154.666 -88 213.999s-129.334 89 -212.001 89h-560v-620c22.667 8 48 12.667 76 14h484zM346 796.002c-52.667 0 -80.667 -20.666 -84 -61.999v-734h-102v1606h664
c72 0 139 -18.333 201 -55s111 -86 147 -148s54 -130.333 54 -205c0 -110.667 -39.333 -205.334 -118 -284.001s-174 -118 -286 -118h-476z" />
    <glyph glyph-name="Q" unicode="Q" horiz-adv-x="1622" 
d="M810 102c98.667 0 190.334 31.667 275.001 95s151.667 148.333 201 255s74 223.667 74 351s-24.667 244.666 -74 351.999s-116.333 192.333 -201 255s-176.334 94 -275.001 94s-190 -31.333 -274 -94s-150.667 -147.667 -200 -255s-74 -224.666 -74 -351.999
s24.667 -244.333 74 -351s116 -191.667 200 -255s175.333 -95 274 -95zM1462 804c0 -254.667 -82.667 -464.666 -248 -629.999c26 -38.667 59.333 -64.334 100 -77.001c10.667 -3.33301 18.667 -5 24 -5h10l6 -102h-6c-85.333 0 -156 38.667 -212 116
c-102.667 -70.667 -205 -106 -307 -106c-193.333 0 -353.333 79 -480 237c-126 158 -189 347 -189 567s62 407.333 186 562c60 76 130 135 210 177s165 63 255 63s175 -21 255 -63s149.333 -101 208 -177c125.333 -154.667 188 -342 188 -562z" />
    <glyph glyph-name="R" unicode="R" horiz-adv-x="1424" 
d="M822 898c82.667 0 153.334 29.667 212.001 89s88 130.333 88 213s-29.333 154 -88 214s-129.334 90 -212.001 90h-560v-620c22.667 8 48 12.667 76 14h484zM346 796c-52.667 0 -80.667 -20.667 -84 -62v-734h-102v1606h662c73.333 0 141 -18 203 -54
s111 -85.333 147 -148s54 -136.667 54 -222s-31.333 -165.333 -94 -240s-140.667 -120.667 -234 -138c13.333 -17.333 25.333 -36 36 -56l330 -748h-112l-314 710c-18 30 -34.333 49.667 -49 59c-31.333 18 -51 27 -59 27h-384z" />
    <glyph glyph-name="S" unicode="S" horiz-adv-x="1460" 
d="M740 1506c-294.667 0 -441.998 -100.668 -441.998 -302.001c0 -76.667 24.667 -136.667 74 -180s125.666 -79.666 228.999 -108.999l159 -43c172 -41.333 289 -80.333 351 -117s109 -79 141 -127s48 -105.333 48 -172c0 -137.333 -48.667 -245.333 -146 -324
c-100 -88 -230.667 -132 -392 -132s-282.333 17.333 -363 52s-149.667 88.667 -207 162l-32 38l82 62l32 -42c21.333 -25.333 42 -47 62 -65c79.333 -71.333 213.666 -107 402.999 -107c142 0 253.333 31.667 334 95s121 149 121 257c0 72 -23.333 129 -70 171
c-46.667 42.667 -123 79.667 -229 111c-40.667 12 -120.334 32.667 -239.001 62s-209.334 62 -272.001 98c-126.667 72.667 -190 173 -190 301c0 127.333 42.667 226.333 128 297c94.667 76 234 114 418 114c86.667 0 168.334 -18.667 245.001 -56s141.667 -90 195 -158
l32 -40l-80 -62l-34 42c-42.667 56 -95.667 99 -159 129s-129.666 45 -198.999 45z" />
    <glyph glyph-name="T" unicode="T" horiz-adv-x="1506" 
d="M1346 1606v-102h-556v-1504h-102v1504h-528v102h1186z" />
    <glyph glyph-name="U" unicode="U" horiz-adv-x="1332" 
d="M665 2c-139.333 0 -258.333 49.333 -357 148s-148 218 -148 358v1098h102v-1098c0 -112 39.667 -207.333 119 -286s174.666 -118 285.999 -118s206.333 39.333 285 118s118 174 118 286v1098h102v-1098c0 -140 -49.667 -259.333 -149 -358s-218.666 -148 -357.999 -148z
" />
    <glyph glyph-name="V" unicode="V" horiz-adv-x="1550" 
d="M722 0l-562 1606h110l506 -1450l504 1450h110l-560 -1606h-108z" />
    <glyph glyph-name="W" unicode="W" horiz-adv-x="2286" 
d="M2022 1606h104l-560 -1606h-92l-330 1210l-330 -1210h-92l-562 1606h104l498 -1426l346 1276h70l346 -1276z" />
    <glyph glyph-name="X" unicode="X" horiz-adv-x="1636" 
d="M1476 1606l-596 -802l596 -804h-124l-534 722l-534 -722h-124l596 804l-596 802h124l534 -720l534 720h124z" />
    <glyph glyph-name="Y" unicode="Y" horiz-adv-x="1660" 
d="M880 636v-636h-100v636c0 64 -10.667 123.333 -32 178l-588 792h126l544 -734l546 734h124l-588 -792c-21.333 -54.667 -32 -114 -32 -178z" />
    <glyph glyph-name="Z" unicode="Z" horiz-adv-x="1592" 
d="M1392 102v-102h-1232v84l1126 1420h-1084v102h1230v-84l-1124 -1420h1084z" />
    <glyph glyph-name="bracketleft" unicode="[" horiz-adv-x="568" 
d="M408 -282h-248v1888h248v-102h-146v-1684h146v-102z" />
    <glyph glyph-name="backslash" unicode="\" horiz-adv-x="962" 
d="M694 0l-534 1606h110l532 -1606h-108z" />
    <glyph glyph-name="bracketright" unicode="]" horiz-adv-x="568" 
d="M160 -282v102h146v1684h-146v102h248v-1888h-248z" />
    <glyph glyph-name="asciicircum" unicode="^" horiz-adv-x="1072" 
d="M218 1248l-58 84l392 274l360 -276l-60 -80l-302 230z" />
    <glyph glyph-name="underscore" unicode="_" horiz-adv-x="1326" 
d="M160 0v102h1006v-102h-1006z" />
    <glyph glyph-name="grave" unicode="`" horiz-adv-x="496" 
d="M234 1258l0.000976562 48c0 63.333 -16 125.666 -48 186.999c-10.667 20.667 -19.334 34.334 -26.001 41.001l76 68c24 -24 46.667 -65.333 68 -124s32 -116 32 -172v-48h-102z" />
    <glyph glyph-name="a" unicode="a" horiz-adv-x="1166" 
d="M584 592c-90.667 0 -166.667 -24.667 -228 -74s-92 -106.333 -92 -171s30.667 -121.667 92 -171s137.333 -74 228 -74s166.667 24.667 228 74s92 106 92 170v258c-20 -8 -41.333 -12 -64 -12h-256zM838 694c44 0 66 26 66 78v68c0 66.667 -29.333 124 -88 172
s-130 72 -214 72c-53.333 0 -103 -10.667 -149 -32s-82.333 -50 -109 -86l-32 -42l-84 62l32 40c37.333 49.333 86 88.333 146 117s125.333 43 196 43c110.667 0 205.667 -33.333 285 -100s119 -148.667 119 -246v-494c0 -97.333 -41.667 -179.333 -125 -246
s-182.333 -100 -297 -100s-214 33.333 -298 100s-126 149 -126 247s42 180.333 126 247s183.333 100 298 100h254z" />
    <glyph glyph-name="b" unicode="b" horiz-adv-x="1172" 
d="M262 102l168.001 0.000976562c133.333 0 246.666 47 339.999 141s140 207 140 339c0 88 -21.333 168.667 -64 242s-100.667 131.666 -174 174.999s-154 65 -242 65h-82c-32 0 -60.667 4.66699 -86 14v-976zM262.001 1228c0 -41.333 28 -62 84 -62h84
c161.333 0 298.666 -57 411.999 -171s170 -251.333 170 -412s-56.667 -298 -170 -412s-250.666 -171 -411.999 -171h-270v1606h102v-378z" />
    <glyph glyph-name="c" unicode="c" horiz-adv-x="1186" 
d="M638 0c-57.333 0 -116.334 15.668 -177.001 47.001s-114.334 74.333 -161.001 129c-93.333 116 -140 255 -140 417s47.333 300.667 142 416c45.333 55.333 98.333 98.666 159 129.999s125 47 193 47c148 0 261.333 -53.333 340 -160l32 -40l-82 -62l-32 42
c-40.667 56.667 -100.667 93.334 -180 110.001c-25.333 5.33301 -51.333 8 -78 8c-108 0 -200.333 -47.333 -277 -142s-115 -211 -115 -349s38.333 -254.333 115 -349s169 -142 277 -142c53.333 0 103 10.667 149 32s82.333 50.666 109 87.999l32 40l82 -60l-32 -42
c-47.333 -66 -115.666 -112.667 -204.999 -140c-43.333 -13.333 -93.666 -20 -150.999 -20z" />
    <glyph glyph-name="d" unicode="d" horiz-adv-x="1172" 
d="M824 1064l-84 -0.00195312c-132 0 -244.667 -47.333 -338 -142s-140 -208 -140 -340c0 -64 12.667 -125.667 38 -185s59.333 -110.666 102 -153.999s93.667 -77.666 153 -102.999s121 -38 185 -38h168v976c-24 -9.33301 -52 -14 -84 -14zM160 582.998
c0 160.667 57 298 171 412s250.333 171 409 171h84c56 0 84 20 84 60v380h104v-1606h-272c-158.667 0 -295 57 -409 171s-171 251.333 -171 412z" />
    <glyph glyph-name="e" unicode="e" horiz-adv-x="1206" 
d="M320 694l285.999 0.000976562c105.333 0 187.333 23.333 246 70c49.333 37.333 74 81.666 74 132.999s-23.667 95.333 -71 132s-116 55 -206 55s-171.667 -38 -245 -114s-118.666 -171.333 -135.999 -286c20 6.66699 37.333 10 52 10zM653.999 102.001
c128 0 221.333 39.998 280 119.998l30 40l82 -60l-30 -42c-80 -106.667 -200.667 -160 -362 -160c-138.667 0 -255.667 58.333 -351 175s-143 256 -143 418s48 301.333 144 418s212.667 175 350 175c112 0 202.333 -27.667 271 -83s103 -124.666 103 -207.999
s-38 -154.666 -114 -213.999s-178.667 -89 -308 -89h-278c-30 0 -48.667 -13 -56 -39c-4 -14 -6 -23 -6 -27l2 -18v-2c16 -112.667 60.667 -208.667 134 -288c33.333 -36 72.333 -64.333 117 -85s89.667 -31 135 -31z" />
    <glyph glyph-name="f" unicode="f" horiz-adv-x="792" 
d="M346 1084c-56 0 -84 -22 -84 -66v-1018h-102v1156c0 122.667 40.667 228.667 122 318c82.667 88 182.667 132 300 132h50v-102h-50c-86.667 0 -160.667 -32.333 -222 -97s-94 -143 -98 -235c25.333 9.33301 53.333 14 84 14h236v-102h-236z" />
    <glyph glyph-name="g" unicode="g" horiz-adv-x="1172" 
d="M824 130c32 0 60 -4.66699 84 -14v974h-168c-132 0 -244.667 -47 -338 -141s-140 -207.333 -140 -340s46.667 -245.667 140 -339s206 -140 338 -140h84zM740 28c-160 0 -296.668 56.999 -410.001 170.999s-170 251 -170 411s56.667 297 170 411s250 171 410 171h272
v-1254c0 -97.333 -40 -179.666 -120 -246.999s-174.667 -101 -284 -101c-69.333 0 -134 14 -194 42s-109.333 67.333 -148 118l-30 42l80 62l32 -42c28 -37.333 65 -66.333 111 -87s95.667 -31 149 -31c82.667 0 153.334 23.667 212.001 71s88 105 88 173v28
c-3.33301 41.333 -31.333 62 -84 62h-84z" />
    <glyph glyph-name="h" unicode="h" horiz-adv-x="1164" 
d="M1004 718l-0.000976562 -717.999h-102v718c0 64 -14.333 122.667 -43 176s-67.667 95.666 -117 126.999s-102.666 47 -159.999 47h-254c-22.667 0 -44.667 4 -66 12v-1080h-102v1606h102v-350c0 -33.333 7 -56 21 -68s27.667 -18 41 -18h258
c117.333 0 217 -44.333 299 -133s123 -195 123 -319z" />
    <glyph glyph-name="i" unicode="i" horiz-adv-x="422" 
d="M213 1552c8.66699 0 19 -3.66602 31 -10.999s18 -20.333 18 -39v-28c0 -14.667 -5 -27 -15 -37s-22 -15 -36 -15s-26 5 -36 15s-15 22.333 -15 37v28c0 21.333 10.333 36.666 31 45.999c6 2.66699 13.333 4 22 4zM160 0.000976562v1186h102v-1186h-102z" />
    <glyph glyph-name="j" unicode="j" horiz-adv-x="794" 
d="M532 42v1196h102v-1196c0 -124 -41 -230.333 -123 -319s-181.667 -133 -299 -133h-52v104h52c88 0 163.333 34 226 102s94 150 94 246zM582 1552c9.33301 0 20.333 -3.66699 33 -11s19 -20.333 19 -39v-28c0 -14.667 -5.33301 -27 -16 -37s-22.667 -15 -36 -15
s-25 5 -35 15s-15 22.333 -15 37v28c0 18 6 31 18 39c12 7.33301 22.667 11 32 11z" />
    <glyph glyph-name="k" unicode="k" horiz-adv-x="1254" 
d="M262 0l-102 -0.000976562v1606h102v-946l664 526h166l-612 -486c16 -10.667 30 -22.667 42 -36l572 -664h-138l-512 596c-17.333 17.333 -31 26.333 -41 27s-19.667 -1.66602 -29 -6.99902l-112 -88v-528z" />
    <glyph glyph-name="l" unicode="l" horiz-adv-x="422" 
d="M160 0v1606h102v-1606h-102z" />
    <glyph glyph-name="m" unicode="m" horiz-adv-x="1904" 
d="M1744 734l0.000976562 -733.999h-102v734c0 97.333 -31 180 -93 248s-137.333 102 -226 102s-164 -34 -226 -102s-93 -150.667 -93 -248v-734h-102v734c0 64 -14.333 122.667 -43 176s-67.667 95.666 -117 126.999s-102.666 47 -159.999 47c-89.333 0 -165 -34 -227 -102
s-93 -150.667 -93 -248v-734h-102v734c0 124 40.667 230.667 122 320c82.667 88 182.667 132 300 132s216.666 -44 297.999 -132c29.333 -32 53.333 -66.667 72 -104c84 157.333 208 236 372 236c117.333 0 216.666 -44.333 297.999 -133s122 -195 122 -319z" />
    <glyph glyph-name="n" unicode="n" horiz-adv-x="1164" 
d="M1004 0l-102.001 0.000976562v734c0 64 -14.333 122.667 -43 176s-67.667 95.666 -117 126.999s-102.666 47 -159.999 47c-89.333 0 -165 -34 -227 -102s-93 -150.667 -93 -248v-734h-102v734c0 124 40.667 230.667 122 320c82.667 88 182.667 132 300 132
s217 -44.333 299 -133s123 -195 123 -319v-734z" />
    <glyph glyph-name="o" unicode="o" horiz-adv-x="1346" 
d="M673 1084c-112.667 0 -209.334 -47.667 -290.001 -143s-121 -211 -121 -347c0 -88 18.333 -169.667 55 -245s86.334 -135 149.001 -179s126.667 -66 192 -66c121.333 0 222.333 47.667 303 143s121 211 121 347s-40 251.667 -120 347s-176.333 143 -289 143zM160 593
c0 162 48.666 301 145.999 417c103.333 117.333 225.333 176 366 176s262.667 -58.667 366 -176c98.667 -116 148 -255 148 -417s-49.667 -301 -149 -417s-221 -174 -365 -174c-143.333 0 -264.666 58 -363.999 174c-98.667 116 -148 255 -148 417z" />
    <glyph glyph-name="p" unicode="p" horiz-adv-x="1172" 
d="M348 134l82 0.000976562c88 0 168.667 21.333 242 64s131.333 101 174 175s64 154.333 64 241c0 133.333 -47 246.666 -141 339.999s-207 140 -339 140h-168v-974c25.333 9.33301 54 14 86 14zM1012 614.001c0 -160 -56.667 -297.001 -170 -411.001
s-250.666 -171 -411.999 -171h-84c-43.333 0 -70 -13.667 -80 -41c-2.66699 -7.33301 -4 -13.666 -4 -18.999v-382h-102v1606h270c161.333 0 298.666 -57 411.999 -171s170 -251 170 -411z" />
    <glyph glyph-name="q" unicode="q" horiz-adv-x="1172" 
d="M908 1094h-168c-132 0 -244.667 -47 -338 -141s-140 -207 -140 -339s46.667 -245 140 -339s206 -141 338 -141h84c32 0 60 -4.66699 84 -14v974zM908 -30c0 41.333 -28 62 -84 62h-84c-158.667 0 -295 57 -409 171s-171 251 -171 411s57 297 171 411s250.333 171 409 171
h272v-1606h-104v380z" />
    <glyph glyph-name="r" unicode="r" horiz-adv-x="742" 
d="M262 0h-102v734c0 124 40.667 230.667 122 320c82.667 88 182.667 132 300 132v-102c-105.333 0 -191.333 -47.667 -258 -143c-41.333 -59.333 -62 -128.333 -62 -207v-734z" />
    <glyph glyph-name="s" unicode="s" horiz-adv-x="1148" 
d="M988 339c0 -99.333 -35.334 -180.667 -106.001 -244s-164 -95 -280 -95s-203 13 -261 39s-107.667 66.333 -149 121l-32 42l82 60l32 -40c28 -38.667 64 -68.334 108 -89.001s112 -31 204 -31s165 21.333 219 64s81 97.334 81 164.001s-27.333 117.334 -82 152.001
c-40 22.667 -118 48.667 -234 78s-198 58.666 -246 87.999c-89.333 54.667 -134 130 -134 226s32.667 172 98 228s164 84 296 84s238.667 -53.333 320 -160l32 -40l-80 -64l-34 42c-61.333 80 -140.666 120 -237.999 120c-194.667 0 -292 -67.333 -292 -202
c0 -64 28.667 -112.667 86 -146c40 -24 118 -51 234 -81s197.333 -58.333 244 -85c88 -54.667 132 -131.667 132 -231z" />
    <glyph glyph-name="t" unicode="t" horiz-adv-x="744" 
d="M348 1062c-54 0 -82.667 -21.333 -86 -64v-544c0 -97.333 31.333 -180.333 94 -249s138.667 -103 228 -103v-102c-118.667 -0 -219 44.333 -301 133s-123 195.667 -123 321v1152h102v-456c25.333 9.33301 54 14 86 14h236v-102h-236z" />
    <glyph glyph-name="u" unicode="u" horiz-adv-x="1164" 
d="M582 0c-117.333 0 -217.001 44.333 -299.001 133s-123 195.667 -123 321v732h102v-732c0 -97.333 31 -180.333 93 -249s137.333 -103 226 -103s164.334 34.333 227.001 103s94 151.667 94 249v732h102v-732c0 -125.333 -41 -232.333 -123 -321s-181.667 -133 -299 -133z
" />
    <glyph glyph-name="v" unicode="v" horiz-adv-x="1300" 
d="M700 0h-98l-442 1186h110l380 -1022l382 1022h108z" />
    <glyph glyph-name="w" unicode="w" horiz-adv-x="1928" 
d="M1326 0h-96l-266 856l-264 -856h-98l-442 1186h110l376 -1010l268 868h98l270 -868l376 1010h110z" />
    <glyph glyph-name="x" unicode="x" horiz-adv-x="1302" 
d="M1140 1186l-428 -592l430 -594h-124l-368 508l-366 -508h-124l428 594l-428 592h124l366 -508l368 508h122z" />
    <glyph glyph-name="y" unicode="y" horiz-adv-x="1308" 
d="M566 -94c8 36 12.001 71.001 12.001 105.001s-14.667 93 -44 177l-374 998h108l358 -962l26 -86l392 1048h104l-490 -1312c-29.333 -84 -78.333 -152.333 -147 -205s-146.334 -79 -233.001 -79h-50v100h50c64 0 122.333 19.667 175 59s89.667 91.666 111 156.999h2z" />
    <glyph glyph-name="z" unicode="z" horiz-adv-x="1260" 
d="M1060 0h-900v84l794 1000h-754v102h900v-84l-794 -1000h754v-102z" />
    <glyph glyph-name="braceleft" unicode="{" horiz-adv-x="962" 
d="M734 -254c-120 0 -200 49.333 -240 148c-22.667 54.667 -35.334 147.667 -38.001 279s-11.334 226.333 -26.001 285s-35.667 99 -63 121s-67 34.333 -119 37h-88v120h88c52 2.66699 91.667 15.334 119 38.001c54.667 45.333 84.334 171.333 89.001 378
c2.66699 149.333 15.334 251.333 38.001 306c41.333 101.333 124 150.666 248 147.999h60v-118h-62c-42.667 1.33301 -73.667 -4.66699 -93 -18s-35.666 -36.333 -48.999 -69s-21.666 -130 -24.999 -292s-26.333 -279.667 -69 -353c-18.667 -32 -41.334 -58.667 -68.001 -80
c86.667 -65.333 132.334 -210 137.001 -434c3.33301 -161.333 13.666 -262 30.999 -302c9.33301 -25.333 23.666 -44.333 42.999 -57s50.333 -19 93 -19l62 2v-120h-68z" />
    <glyph glyph-name="bar" unicode="|" horiz-adv-x="422" 
d="M160 -278v1884h102v-1884h-102z" />
    <glyph glyph-name="braceright" unicode="}" horiz-adv-x="962" 
d="M228 -254h-67.999v120l62 -2c55.333 0 93.666 12.333 114.999 37c8.66699 10 16.334 23 23.001 39c16 40 25.667 140.667 29 302c4.66699 226.667 51 371.334 139 434.001c-28 21.333 -51.333 48 -70 80c-42.667 73.333 -65.667 191 -69 353s-11.333 259.333 -24 292
s-29 55.667 -49 69s-51.333 19.333 -94 18h-62v118h60c124 2.66699 206.667 -46.666 248 -147.999c22.667 -54.667 35.334 -140.667 38.001 -258s7.66699 -202.333 15 -255s19.666 -94.334 36.999 -125.001s38 -52 62 -64s55.333 -18.667 94 -20h88v-120h-88
c-52 -2.66699 -91.667 -15 -119 -37c-52 -42 -81.667 -167.667 -89 -377c-2.66699 -150.667 -15.334 -253.334 -38.001 -308.001c-40 -98.667 -120 -148 -240 -148z" />
    <glyph glyph-name="asciitilde" unicode="~" horiz-adv-x="1238" 
d="M588 645l-88.9971 68.001c-46.667 34 -83.667 47.667 -111 41c-37.333 -9.33301 -75.333 -55.333 -114 -138l-22 -46l-92 44l22 46c52 113.333 112.667 178 182 194c45.333 9.33301 87.666 3.66602 126.999 -17.001s79.666 -47 120.999 -79l86 -66c16 -12 36 -23 60 -33
s44.667 -13 62 -9c48 10.667 96 68.667 144 174l22 46l92 -44l-20 -46c-30.667 -68 -64 -120 -100 -156c-48.667 -52 -101.334 -78 -158.001 -78c-57.333 0 -128 33 -212 99z" />
    <glyph glyph-name="exclamdown" unicode="&#xa1;" horiz-adv-x="510" 
d="M254 1406c-28 0 -50.667 8.99902 -68 26.999s-26 39.333 -26 64s4 44.667 12 60c17.333 32.667 42.333 49 75 49s58 -9.66699 76 -29s27 -43.666 27 -72.999s-9 -53 -27 -71s-41 -27 -69 -27zM202 -0.000976562v966h104v-966h-104z" />
    <glyph glyph-name="cent" unicode="&#xa2;" horiz-adv-x="1186" 
d="M714 -106l-102 0.000976562v108c-118 12 -221.333 70 -310 174c-94.667 116 -142 254.667 -142 416v2c0 161.333 45.667 297 137 407s196.333 171 315 183v108h102v-110c121.333 -14.667 215.333 -66.667 282 -156l30 -40l-82 -62l-30 42c-26.667 36 -63 64.667 -109 86
s-95.667 32 -149 32c-108 0 -200.667 -47.667 -278 -143s-116 -211 -116 -347v-2c0 -134.667 38.667 -250 116 -346s170 -144 278 -144c53.333 0 103 10.667 149 32s82.333 50.666 109 87.999l30 40l82 -60l-30 -42c-66.667 -88 -160.667 -140 -282 -156v-110z" />
    <glyph glyph-name="sterling" unicode="&#xa3;" horiz-adv-x="1358" 
d="M1198 104v-103.999h-1038v100c29.333 0 54.333 7 75 21c74.667 50.667 115.667 243.667 123 579h-162v104h162c0 435.333 89 688 267 758c54 21.333 117 32 189 32s140 -29.333 204 -88s115.333 -136.667 154 -234l-94 -38c-33.333 80 -74 143 -122 189
s-99.333 69 -154 69c-106.667 0 -184.667 -36 -234 -108c-72 -102.667 -108 -296 -108 -580h454v-104h-454c-6 -292.667 -41.333 -491.334 -106 -596.001h844z" />
    <glyph glyph-name="currency" unicode="&#xa4;" horiz-adv-x="1302" 
d="M651 396c86 0 159.667 34 221 102s92 150.667 92 248s-30.667 180 -92 248s-135.333 102 -222 102c-56 0 -108 -15.667 -156 -47s-86 -74 -114 -128s-42 -112.333 -42 -175c0 -97.333 30.667 -180 92 -248s135 -102 221 -102zM1066 747
c0 -95.333 -24.666 -181.001 -73.999 -257.001l150 -148l-74 -74l-138 142c-80 -77.333 -173.333 -116 -280 -116s-199.334 38.667 -278.001 116l-140 -142l-70 74l146 148c-49.333 76 -74 161.667 -74 257s24.667 181 74 257l-148 152l70 72l144 -144
c80 76 172.333 114 277 114s197 -37.333 277 -112l140 142l74 -72l-152 -150c50.667 -77.333 76 -163.666 76 -258.999z" />
    <glyph glyph-name="currency" unicode="&#x20ac;" horiz-adv-x="1302" 
d="M651 396c86 0 159.667 34 221 102s92 150.667 92 248s-30.667 180 -92 248s-135.333 102 -222 102c-56 0 -108 -15.667 -156 -47s-86 -74 -114 -128s-42 -112.333 -42 -175c0 -97.333 30.667 -180 92 -248s135 -102 221 -102zM1066 747
c0 -95.333 -24.666 -181.001 -73.999 -257.001l150 -148l-74 -74l-138 142c-80 -77.333 -173.333 -116 -280 -116s-199.334 38.667 -278.001 116l-140 -142l-70 74l146 148c-49.333 76 -74 161.667 -74 257s24.667 181 74 257l-148 152l70 72l144 -144
c80 76 172.333 114 277 114s197 -37.333 277 -112l140 142l74 -72l-152 -150c50.667 -77.333 76 -163.666 76 -258.999z" />
    <glyph glyph-name="yen" unicode="&#xa5;" horiz-adv-x="1572" 
d="M1178 750v-100h-342v-124h342v-102h-342v-424h-100v424h-346v102h346v124h-346v100h334c-5.33301 22.667 -11.333 44.667 -18 66l-546 730l80 60l546 -734l546 734l80 -60l-544 -730c-8 -21.333 -14.667 -43.333 -20 -66h330z" />
    <glyph glyph-name="brokenbar" unicode="&#xa6;" horiz-adv-x="422" 
d="M262 424v-424h-102v424h102zM160 712v894h102v-894h-102z" />
    <glyph glyph-name="section" unicode="&#xa7;" horiz-adv-x="1146" 
d="M884 797c0 59.333 -19.999 101.998 -59.999 127.998s-88.333 46.667 -145 62s-90.334 25 -101.001 29h-44c-89.333 0 -153.333 -19.333 -192 -58c-33.333 -29.333 -50 -72.666 -50 -129.999s19.667 -99.333 59 -126s97 -50.667 173 -72s127.333 -36.666 154 -45.999
c65.333 6.66699 116 29 152 67s54 86.667 54 146zM634.001 1494c-162.667 0 -243.996 -62.002 -243.996 -186.002c0 -58.667 20.333 -101 61 -127s107.667 -53 201 -81c104 -28 177.333 -56 220 -84c76 -50.667 114 -122.334 114 -215.001s-30 -168.334 -90 -227.001
c-25.333 -25.333 -56 -46 -92 -62c54.667 -49.333 82 -116.666 82 -201.999s-31 -158.333 -93 -219s-143.667 -91 -245 -91s-177.666 13 -228.999 39s-94.333 64.333 -129 115l-30 42l84 58l30 -42c25.333 -36 55.666 -63.333 90.999 -82s91.666 -28 168.999 -28
s138.333 19.667 183 59s67 93 67 161c0 40 -10 72.333 -30 97s-50.667 45 -92 61c-18.667 0 -78.334 18.333 -179.001 55s-160.334 61.667 -179.001 75c-76 50.667 -114 121.334 -114 212.001s27.333 161.334 82 212.001c30.667 29.333 69.334 51.333 116.001 66
c-66.667 50.667 -100 119.334 -100 206.001s28.667 156.667 86 210s144 80 260 80c74 0 141.333 -23.333 202 -70c29.333 -22.667 54.666 -50.667 75.999 -84l32 -40l-84 -60l-32 42c-50.667 73.333 -115.334 110 -194.001 110z" />
    <glyph glyph-name="dieresis" unicode="&#xa8;" horiz-adv-x="352" 
 />
    <glyph glyph-name="copyright" unicode="&#xa9;" horiz-adv-x="1320" 
d="M560 1200h300v-100h-200v-100h-100v-300h100v-100h200v-100h-300v100h-100v500h100v100zM1060 400h-100v-100h-600v100h-100v100h-100v700h100v100h100v100h600v-100h100v-100h100v-700h-100v-100zM460 500v-100h400v100h100v100h100v500h-100v100h-100v100h-400v-100
h-100v-100h-100v-500h100v-100h100z" />
    <glyph glyph-name="ordfeminine" unicode="&#xaa;" horiz-adv-x="1020" 
d="M160 1400h100v100h500v-100h100v-700h-100v100h-100v-100h-400v100h-100v300h100v100h400v200h-300v-100h-200v100zM360 800h300v300h-300v-100h-100v-100h100v-100zM160 600h700v-200h-700v200z" />
    <glyph glyph-name="guillemotleft" unicode="&#xab;" horiz-adv-x="1000" 
d="M840 238l-360 354l360 358v-144l-214 -212l214 -212v-144zM522 238l-362 356l362 356v-144l-216 -212l214 -210z" />
    <glyph glyph-name="logicalnot" unicode="&#xac;" horiz-adv-x="730" 
d="M160 268c0 18.667 2.66602 33.333 7.99902 44c10.667 36 28 55.333 52 58h24c0 1.33301 10.667 2 32 2l108 -2h58c46.667 -1.33301 80 -13.333 100 -36c16 -11.333 25.333 -36 28 -74c-5.33301 -42.667 -8.66602 -74 -9.99902 -94c-1.33301 -26.667 -38 -42 -110 -46v38
c0 25.333 2 59.333 6 102l-296 6v2z" />
    <glyph glyph-name="registered" unicode="&#xae;" horiz-adv-x="1320" 
d="M1060 600h-100v-100h-600v100h-100v100h-100v600h100v100h100v100h600v-100h100v-100h100v-600h-100v-100zM860 700h100v100h100v400h-100v100h-100v100h-400v-100h-100v-100h-100v-400h100v-100h100v-100h400v100zM860 700h-100v200h100v-200zM760 1200h100v-200h-100
v200zM760 1200h-200v-200h200v-100h-200v-200h-100v600h300v-100z" />
    <glyph glyph-name="macron" unicode="&#xaf;" horiz-adv-x="948" 
d="M618 686c78 0 129.333 4.66797 154 14.001h2v-10c0 -16 2 -30.667 6 -44l8 -46c0 -9.33301 -12.667 -15.333 -38 -18s-85.333 -4 -180 -4h-36c-137.333 0 -262 2.66699 -374 8v2c0 22.667 2.66699 36.667 8 42c10.667 37.333 28 56.666 52 57.999
c0 1.33301 3.66699 2 11 2h45z" />
    <glyph glyph-name="degree" unicode="&#xb0;" horiz-adv-x="288" 
 />
    <glyph glyph-name="plusminus" unicode="&#xb1;" horiz-adv-x="1326" 
d="M160 -4v102h1006v-102h-1006zM160 556v102h452v552h102v-552h452v-102h-452v-354h-102v354h-452z" />
    <glyph glyph-name="uni00B2" unicode="&#xb2;" horiz-adv-x="384" 
 />
    <glyph glyph-name="uni00B3" unicode="&#xb3;" horiz-adv-x="386" 
 />
    <glyph glyph-name="acute" unicode="&#xb4;" horiz-adv-x="588" 
d="M200 540l-17.998 17.999l-22 10c17.333 32 52.666 85.333 105.999 160l28 36l52 -32c-2 -3.33301 0 -9.33301 6 -18l76 -44c-4 -13.333 -11.333 -29.333 -22 -48l-82 -126c-6.66699 -10.667 -14.334 -18 -23.001 -22s-24.667 2.33301 -48 19s-41 32.334 -53 47.001z" />
    <glyph glyph-name="mu" unicode="&#xb5;" horiz-adv-x="544" 
 />
    <glyph glyph-name="paragraph" unicode="&#xb6;" horiz-adv-x="570" 
 />
    <glyph glyph-name="periodcentered" unicode="&#xb7;" horiz-adv-x="196" 
 />
    <glyph glyph-name="cedilla" unicode="&#xb8;" horiz-adv-x="456" 
 />
    <glyph glyph-name="uni00B9" unicode="&#xb9;" horiz-adv-x="270" 
 />
    <glyph glyph-name="ordmasculine" unicode="&#xba;" horiz-adv-x="388" 
 />
    <glyph glyph-name="guillemotright" unicode="&#xbb;" horiz-adv-x="1000" 
d="M162 238l-2 144l214 212l-214 212l2 144l360 -358zM482 238v146l212 210l-212 212v144l358 -356z" />
    <glyph glyph-name="onequarter" unicode="&#xbc;" horiz-adv-x="1320" 
d="M860 1600h100v100h100v-200h-100v-200h-100v-200h-100v-200h-100v-100h-100v-200h-100v-200h-100v-200h-100v-100h-100v200h100v200h100v200h100v200h100v100h100v200h100v200h100v200zM860 400h100v200h-100v-200zM1060 800v-400h100v-100h-100v-200h-100v200h-300v200
h100v200h100v100h200zM260 1100v400h-100v100h100v100h200v-600h100v-100h-400v100h100z" />
    <glyph glyph-name="onehalf" unicode="&#xbd;" horiz-adv-x="1320" 
d="M860 1600h100v100h100v-200h-100v-200h-100v-200h-100v-200h-100v-100h-100v-200h-100v-200h-100v-200h-100v-100h-100v200h100v200h100v200h100v200h100v100h100v200h100v200h100v200zM860 600h-200v100h100v100h300v-100h100v-200h-100v-100h-200v-200h300v-100h-500
v300h100v100h200v200h-100v-100zM260 1100v400h-100v100h100v100h200v-600h100v-100h-400v100h100z" />
    <glyph glyph-name="threequarters" unicode="&#xbe;" horiz-adv-x="1320" 
d="M960 1600h100v100h100v-200h-100v-200h-100v-200h-100v-200h-100v-100h-100v-200h-100v-200h-100v-200h-100v-100h-100v200h100v200h100v200h100v200h100v100h100v200h100v200h100v200zM860 400h100v200h-100v-200zM1060 800v-400h100v-100h-100v-200h-100v200h-300v200
h100v200h100v100h200zM560 1700v-100h100v-200h-100v-100h100v-200h-100v-100h-300v100h-100v100h200v-100h100v200h-100v100h100v200h-100v-100h-200v100h100v100h300z" />
    <glyph glyph-name="questiondown" unicode="&#xbf;" horiz-adv-x="1178" 
d="M160 399c0 123.333 30.6641 222.999 91.9971 298.999c36 44 98 87.333 186 130c34.667 17.333 60.334 32 77.001 44c39.333 28 59 66.667 59 116v50h98v-50c0 -75.333 -21.333 -130.666 -64 -165.999s-82 -61.333 -118 -78c-36 -17.333 -61.667 -30.333 -77 -39
s-34.666 -23 -57.999 -43c-63.333 -54 -95 -146 -95 -276c0 -189.333 120 -284 360 -284c56 0 109.333 14 160 42s93.334 68 128.001 120l28 42l82 -58l-28 -40c-45.333 -65.333 -100.333 -116.333 -165 -153s-133 -55 -205 -55c-156 0 -273.333 38 -352 114
c-72 66.667 -108 161.667 -108 285zM608.997 1410c-27.333 0 -49.333 9.33301 -66 28s-25 42.334 -25 71.001s8.33301 52 25 70s39 27 67 27s50.667 -9 68 -27s26 -41.333 26 -70s-9 -52.334 -27 -71.001s-40.667 -28 -68 -28z" />
    <glyph glyph-name="divide" unicode="&#xf7;" horiz-adv-x="1306" 
d="M646 1024c-28 0 -50.667 9.33301 -68 28s-26 42.334 -26 71.001s8.66699 52.334 26 71.001s40 28 68 28s50.333 -9.33301 67 -28s25 -42.334 25 -71.001s-8.33301 -52.334 -25 -71.001s-39 -28 -67 -28zM160 570v100h986v-100h-986zM646 198
c28 0 50.333 -9.33203 67 -27.999s25 -42.334 25 -71.001s-8.33301 -52.334 -25 -71.001s-36.667 -28 -60 -28s-42 4.66699 -56 14c-30 20 -45 46.333 -45 79s8.66699 58.334 26 77.001s40 28 68 28z" />
    <glyph glyph-name="circumflex" unicode="&#x2c6;" horiz-adv-x="892" 
d="M448 1494l-228 -152l-60 84l286 198l286 -198l-58 -84z" />
    <glyph glyph-name="caron" unicode="&#x2c7;" horiz-adv-x="892" 
d="M674 1624l58 -84l-284 -196l-2 -2l-286 198l60 84l228 -150z" />
    <glyph glyph-name="uni02C9" unicode="&#x2c9;" horiz-adv-x="542" 
 />
    <glyph glyph-name="breve" unicode="&#x2d8;" horiz-adv-x="316" 
 />
    <glyph glyph-name="dotaccent" unicode="&#x2d9;" horiz-adv-x="198" 
 />
    <glyph glyph-name="ring" unicode="&#x2da;" horiz-adv-x="288" 
 />
    <glyph glyph-name="ogonek" unicode="&#x2db;" horiz-adv-x="500" 
d="M289 172c26 0 41 -3.66602 45 -10.999s6 -18.333 6 -33v-26l-6 -52c-4 -26.667 -8 -43.334 -12 -50.001l-86 8c-6.66699 0 -12 -4 -16 -12l-60 6v44l4 120c64 150.667 88 182.667 72 96c1.33301 -10.667 -6 -42.667 -22 -96c24 4 49 6 75 6z" />
    <glyph glyph-name="tilde" unicode="&#x2dc;" horiz-adv-x="786" 
d="M308 506c6.66699 6.66699 12.668 10.001 18.001 10.001h18l4 -2c1.33301 -1.33301 22 -20.666 62 -57.999l44 -40l46 40c40 37.333 60.667 56.666 62 57.999l4 2c8 0 20.667 -7.33301 38 -22l16 -16l6 -4c-16 -20 -50.667 -54 -104 -102l-44 -38
c-9.33301 -6.66699 -16 -10 -20 -10h-20l-88 82c-10.667 8.66699 -17.334 14 -20.001 16l-108 -98h-4c-8 0 -20 7.33301 -36 22l-22 20c41.333 45.333 75.333 78.666 102 99.999z" />
    <glyph glyph-name="hungarumlaut" unicode="&#x2dd;" horiz-adv-x="836" 
d="M448 540l-18 18.001c-9.33301 6.66699 -16.666 10 -21.999 10c20 34.667 56 88 108 160l26 36l52 -32c0 -6.66699 2.66699 -12.667 8 -18l74 -44c-4 -13.333 -11.333 -29.333 -22 -48l-80 -122c-1.33301 -1.33301 -4 -5 -8 -11s-9.66699 -11 -17 -15
s-22.333 1.66699 -45 17s-41.334 31.666 -56.001 48.999zM200 540.001l-17.998 17.999l-22 10c17.333 32 52.666 85.333 105.999 160l28 36l52 -32c-2 -3.33301 0 -9.33301 6 -18l76 -44c-4 -13.333 -11.333 -29.333 -22 -48l-82 -126
c-6.66699 -10.667 -14.334 -18 -23.001 -22s-24.667 2.33301 -48 19s-41 32.334 -53 47.001z" />
    <glyph glyph-name="uni060C" unicode="&#x60c;" horiz-adv-x="512" 
d="M262 260c0 -80.667 30 -136 90 -166l-38 -94c-26.667 9.33301 -52.667 27.333 -78 54c-50.667 53.333 -76 122 -76 206v174h102v-174z" />
    <glyph glyph-name="uni061B" unicode="&#x61b;" horiz-adv-x="552" 
d="M256 100c-28 0 -51.001 9.33301 -69.001 28s-27 42.667 -27 72s9 53.333 27 72s41.333 28 70 28s51.334 -9.33301 68.001 -28s25 -42.667 25 -72s-8.66699 -53.333 -26 -72s-40 -28 -68 -28zM307.999 1146v-174h-102v174c0 82.667 25.333 150.667 76 204
c25.333 28 52 46.667 80 56l30 -96c-56 -37.333 -84 -92 -84 -164z" />
    <glyph glyph-name="uni061F" unicode="&#x61f;" horiz-adv-x="1178" 
d="M620 1606c72 0 140.336 -17.998 205.003 -53.998s119.667 -86.667 165 -152l28 -42l-82 -58l-28 44c-34.667 52 -77.334 92 -128.001 120s-104 42 -160 42c-240 0 -360 -94.667 -360 -284c0 -130 31.667 -222 95 -276c28.667 -24.667 64.667 -48 108 -70
c43.333 -21.333 72.666 -37 87.999 -47s34.333 -24.667 57 -44c42.667 -36.667 64 -92.334 64 -167.001v-48h-98v48c0 51.333 -19.667 90.333 -59 117c-16.667 11.333 -42.334 25.666 -77.001 42.999c-88 42.667 -150 86.667 -186 132c-61.333 74.667 -92 174 -92 298
s37.667 221.333 113 292s191 106 347 106zM704.003 99.002c0 -28.667 -8.66699 -52.334 -26 -71.001s-40 -28 -68 -28s-50.333 9.33301 -67 28s-25 42.334 -25 71.001s8.33301 52.334 25 71.001s38.667 28 66 28s50 -9.33301 68 -28s27 -42.334 27 -71.001z" />
    <glyph glyph-name="uni0640" unicode="&#x640;" horiz-adv-x="270" 
d="M300 0h-330v104h330v-104z" />
    <glyph glyph-name="uni0653" unicode="&#x653;" horiz-adv-x="304" 
 />
    <glyph glyph-name="uni0654" unicode="&#x654;" horiz-adv-x="280" 
 />
    <glyph glyph-name="uni0655" unicode="&#x655;" horiz-adv-x="280" 
 />
    <glyph glyph-name="uni0660" unicode="&#x660;" horiz-adv-x="510" 
d="M254 706c28 0 51 -9.66699 69 -29s27 -43.666 27 -72.999s-9 -53.666 -27 -72.999s-41 -29 -69 -29s-50.667 9.66699 -68 29s-26 43.666 -26 72.999s8.66699 53.666 26 72.999s40 29 68 29z" />
    <glyph glyph-name="uni0661" unicode="&#x661;" horiz-adv-x="422" 
d="M160 0v1606h102v-1606h-102z" />
    <glyph glyph-name="uni0662" unicode="&#x662;" horiz-adv-x="1164" 
d="M1004 1254c0 -125.333 -40.999 -232.332 -122.999 -320.999s-184 -133 -306 -133s-226.333 52 -313 156v-956h-102v1606h102v-352c0 -97.333 31 -180 93 -248s137.667 -102 227 -102c57.333 0 110.666 15.667 159.999 47s88.333 73.666 117 126.999s43 112 43 176v352
h102v-352z" />
    <glyph glyph-name="uni0663" unicode="&#x663;" horiz-adv-x="1270" 
d="M264 0l-103.997 0.000976562v1606h104v-702c57.333 0 110.666 15.667 159.999 47s88.333 73.666 117 126.999s43 112 43 176v352h102v-352c0 -125.333 -41.333 -232 -124 -320c0 -1.33301 -0.666992 -2.66602 -2 -3.99902c38.667 -17.333 84 -26 136 -26
s102.667 15.667 152 47s88.333 73.666 117 126.999s43 112 43 176v352h102v-352c0 -125.333 -41 -232.333 -123 -321s-181.667 -133 -299 -133c-78.667 0 -149.334 20 -212.001 60c-62.667 -40 -133.334 -60 -212.001 -60v-800z" />
    <glyph glyph-name="uni0664" unicode="&#x664;" horiz-adv-x="1268" 
d="M621 12c-134 0 -244.334 45.3359 -331.001 136.003s-130 196 -130 316s48 220 144 300c45.333 38.667 98.666 68.667 159.999 90c-37.333 18.667 -70 40 -98 64c-89.333 73.333 -134 165.666 -134 276.999s38 207.666 114 288.999c84 85.333 187.667 128 311 128
s231 -35.333 323 -106c46.667 -36 80.667 -72.667 102 -110l26 -44l-88 -54l-26 46l-12 18c-5.33301 8 -18 21.333 -38 40c-77.333 72 -167.666 108 -270.999 108c-74 0 -136.333 -15.333 -187 -46s-88.667 -69.334 -114 -116.001s-38 -96 -38 -148
c0 -82.667 32 -150.667 96 -204c78.667 -65.333 191.334 -98 338.001 -98l2 -102c-181.333 0 -314.666 -36.667 -399.999 -110c-70.667 -60 -106 -135.333 -106 -226s33 -170.667 99 -240s153 -104 261 -104s202 30.667 282 92c40 29.333 69.333 60 88 92l88 -54
c-22.667 -40 -59.334 -79.333 -110.001 -118c-100 -77.333 -217 -116 -351 -116z" />
    <glyph glyph-name="uni0665" unicode="&#x665;" horiz-adv-x="1346" 
d="M673 1294c-112.667 0 -209.334 -47.667 -290.001 -143s-121 -211 -121 -347c0 -88 18.333 -169.667 55 -245s86.334 -135 149.001 -179s126.667 -66 192 -66c121.333 0 222.333 47.667 303 143s121 211 121 347s-40 251.667 -120 347s-176.333 143 -289 143zM160 803
c0 162 48.666 301 145.999 417c103.333 117.333 225.333 176 366 176s262.667 -58.667 366 -176c98.667 -116 148 -255 148 -417s-49.667 -301 -149 -417s-221 -174 -365 -174c-143.333 0 -264.666 58 -363.999 174c-98.667 116 -148 255 -148 417z" />
    <glyph glyph-name="uni0666" unicode="&#x666;" horiz-adv-x="1274" 
d="M1012 1504h-852v102h954v-1606h-102v1504z" />
    <glyph glyph-name="uni0667" unicode="&#x667;" horiz-adv-x="1550" 
d="M722 0l-562 1606h110l506 -1450l504 1450h110l-560 -1606h-108z" />
    <glyph glyph-name="uni0668" unicode="&#x668;" horiz-adv-x="1550" 
d="M830 1606l560 -1606h-110l-504 1450l-506 -1450h-110l562 1606h108z" />
    <glyph glyph-name="uni0669" unicode="&#x669;" horiz-adv-x="1172" 
d="M908 1504h-168c-132 0 -244.667 -47 -338 -141s-140 -207 -140 -339s46.667 -245 140 -339s206 -141 338 -141h84c32 0 60 -4.66699 84 -14v974zM908 380c0 41.333 -28 62 -84 62h-84c-158.667 0 -295 57 -409 171s-171 251 -171 411s57 297 171 411s250.333 171 409 171
h272v-1606h-104v380z" />
    <glyph glyph-name="uni066A" unicode="&#x66a;" horiz-adv-x="1400" 
d="M968 98c37.333 0 68.332 8 92.999 24c54 35.333 81 81.333 81 138c0 57.333 -15.667 103.333 -47 138s-69.666 52 -114.999 52s-83.666 -17.333 -114.999 -52s-47 -76 -47 -124s15.667 -89.333 47 -124s65.666 -52 102.999 -52zM978.999 548
c71.333 0 132.666 -27 183.999 -81s77 -118.667 77 -194s-25.667 -139.666 -77 -192.999s-112.666 -80 -183.999 -80s-132.333 26.667 -183 80s-76 117.666 -76 192.999s25.333 140 76 194s111.667 81 183 81zM419.999 1488c-44 0 -81.667 -17.333 -113 -52
s-47 -75.667 -47 -123s15.667 -88.333 47 -123s69 -52 113 -52s82 17.333 114 52s48 75.667 48 123s-16 88.333 -48 123s-70 52 -114 52zM419.999 1040c-72 0 -133.331 26.6689 -183.998 80.002s-76 117.666 -76 192.999s25.333 139.666 76 192.999s112 80 184 80
s133.333 -26.667 184 -80s76 -117.333 76 -192c0 -49.333 -11.333 -95.333 -34 -138s-54.334 -76 -95.001 -100s-84.334 -36 -131.001 -36zM1100 1606h114l-928 -1606h-112z" />
    <glyph glyph-name="uni066B" unicode="&#x66b;" horiz-adv-x="512" 
d="M250 262v174h102v-174c0 -84 -25.333 -152.667 -76 -206c-25.333 -26.667 -52 -44.667 -80 -54l-36 94c37.333 18.667 64 52 80 100c6.66699 20 10 42 10 66z" />
    <glyph glyph-name="uni066C" unicode="&#x66c;" horiz-adv-x="512" 
d="M262 260c0 -80.667 30 -136 90 -166l-38 -94c-26.667 9.33301 -52.667 27.333 -78 54c-50.667 53.333 -76 122 -76 206v174h102v-174z" />
    <glyph glyph-name="uni066D" unicode="&#x66d;" horiz-adv-x="704" 
d="M500 146c0 -16 -15.9951 -31.332 -47.9951 -45.999l-40 -16c-28 -5.33301 -46 -2 -54 10l-16 22l-12 22c0 1.33301 -1.33301 3.66602 -4 6.99902s-6 10.333 -10 21l-20 -26c-4 -5.33301 -6.66699 -8.66602 -8 -9.99902l-16 -14c-22.667 -14.667 -46 -10 -70 14
c-5.33301 8 -10 16.667 -14 26l-16 50c-4 12 -5.33301 19 -4 21s4.66602 5 9.99902 9l26 14c2.66699 2.66699 8 4.66699 16 6l22 12c-41.333 4 -65.333 16 -72 36c-6.66699 16 2.66602 44 27.999 84c22 38 36 50.667 42 38l12 -14l20 -30
c2.66699 -6.66699 7.33398 -12 14.001 -16c5.33301 13.333 10.666 24.666 15.999 33.999s12.666 24.666 21.999 45.999l14 24c4 5.33301 7.66699 8 11 8s13 -8 29 -24c2 -6.66699 6 -10 12 -10l46 -10c5.33301 -2.66699 9 -7.66699 11 -15s1.33301 -13.333 -2 -18
s-10.333 -16.334 -21 -35.001l38 18c21.333 6.66699 34.666 10 39.999 10s14 -3.66699 26 -11s16.667 -15.666 14 -24.999l-6 -30l-2 -24c0 -9.33301 -2.66699 -16.666 -8 -21.999c-14.667 -10 -29.334 -16 -44.001 -18l-26 -6c-8 0 -15.333 -2 -22 -6v-2
c1.33301 -6.66699 -0.666992 -12.667 -6 -18c2.66699 -4 6.66699 -8.66699 12 -14l52 -50c5.33301 -8 8 -15.333 8 -22z" />
    <glyph glyph-name="uni0670" unicode="&#x670;" 
 />
    <glyph glyph-name="uni0671" unicode="&#x671;" horiz-adv-x="422" 
d="M72 1828l-0.00195312 256h64v-70c26.667 26.667 61.334 40 104.001 40s80.334 -16 113.001 -48s49 -70.667 49 -116v-124h-362v62h32zM135.998 1828h202v62c0 28 -10 52 -30 72s-41.333 30 -64 30s-41.667 -4.66699 -57 -14c-34 -20.667 -51 -50 -51 -88v-62zM159.998 0
v1606h102v-1606h-102z" />
    <glyph glyph-name="uni06A9" unicode="&#x6a9;" horiz-adv-x="1968" 
d="M1706 104l0.000976562 268.001c0 132 -46.667 244 -140 336s-203.333 139.333 -330 142h-296v140l678 616l-8 -148l-558 -506h184c156 -2.66699 290.333 -60 403 -172s169 -248 169 -408v-372h-856c-214.667 2.66699 -398 64.334 -550 185.001
c-74.667 59.333 -133.667 128.666 -177 207.999s-65 163.666 -65 252.999v338h102v-338c0 -148 68.667 -275.333 206 -382s302.666 -160 495.999 -160h742z" />
    <glyph glyph-name="uni06AF" unicode="&#x6af;" horiz-adv-x="1968" 
d="M1706 104l0.000976562 268.001c0 132 -46.667 244 -140 336s-203.333 139.333 -330 142h-296v140l678 616l-8 -148l-558 -506h184c156 -2.66699 290.333 -60 403 -172s169 -248 169 -408v-372h-856c-214.667 2.66699 -398 64.334 -550 185.001
c-74.667 59.333 -133.667 128.666 -177 207.999s-65 163.666 -65 252.999v338h102v-338c0 -148 68.667 -275.333 206 -382s302.666 -160 495.999 -160h742zM1448 1746l-8 -148l-558 -506l-106 42z" />
    <glyph glyph-name="uni06C1" unicode="&#x6c1;" 
 />
    <glyph glyph-name="uni06CC" unicode="&#x6cc;" horiz-adv-x="1606" 
d="M1342 632l-527.999 -0.000976562v198c0 117.333 43 216 129 296s187 122 303 126v-102c-56 -2.66699 -109.333 -17.667 -160 -45s-91.667 -65.666 -123 -114.999s-47 -102.666 -47 -159.999v-96h530v-734h-494c-214.667 2.66699 -398 64.334 -550 185.001
c-74.667 59.333 -133.667 128.666 -177 207.999s-65 163.666 -65 252.999v338h102v-338c0 -148 68.667 -275.333 206 -382s302.666 -160 495.999 -160h378v528z" />
    <glyph glyph-name="uni06F0" unicode="&#x6f0;" horiz-adv-x="510" 
d="M254 706c28 0 51 -9.66699 69 -29s27 -43.666 27 -72.999s-9 -53.666 -27 -72.999s-41 -29 -69 -29s-50.667 9.66699 -68 29s-26 43.666 -26 72.999s8.66699 53.666 26 72.999s40 29 68 29z" />
    <glyph glyph-name="uni06F1" unicode="&#x6f1;" horiz-adv-x="422" 
d="M160 0v1606h102v-1606h-102z" />
    <glyph glyph-name="uni06F2" unicode="&#x6f2;" horiz-adv-x="1164" 
d="M1004 1254c0 -125.333 -40.999 -232.332 -122.999 -320.999s-184 -133 -306 -133s-226.333 52 -313 156v-956h-102v1606h102v-352c0 -97.333 31 -180 93 -248s137.667 -102 227 -102c57.333 0 110.666 15.667 159.999 47s88.333 73.666 117 126.999s43 112 43 176v352
h102v-352z" />
    <glyph glyph-name="uni06F3" unicode="&#x6f3;" horiz-adv-x="1270" 
d="M264 0l-103.997 0.000976562v1606h104v-702c57.333 0 110.666 15.667 159.999 47s88.333 73.666 117 126.999s43 112 43 176v352h102v-352c0 -125.333 -41.333 -232 -124 -320c0 -1.33301 -0.666992 -2.66602 -2 -3.99902c38.667 -17.333 84 -26 136 -26
s102.667 15.667 152 47s88.333 73.666 117 126.999s43 112 43 176v352h102v-352c0 -125.333 -41 -232.333 -123 -321s-181.667 -133 -299 -133c-78.667 0 -149.334 20 -212.001 60c-62.667 -40 -133.334 -60 -212.001 -60v-800z" />
    <glyph glyph-name="uni06F4" unicode="&#x6f4;" horiz-adv-x="1164" 
d="M1004 1254c0 -125.333 -40.999 -232.332 -122.999 -320.999s-184 -133 -306 -133s-226.333 52 -313 156v-956h-102v1606h102v-352c0 -97.333 31 -180 93 -248s137.667 -102 227 -102c57.333 0 110.666 15.667 159.999 47s88.333 73.666 117 126.999s43 112 43 176v228
c-185.333 0 -301.333 -78.667 -348 -236l-106 2c30.667 109.333 86 195.333 166 258s176 94 288 94v6h102v-352z" />
    <glyph glyph-name="uni06F5" unicode="&#x6f5;" horiz-adv-x="1346" 
d="M1082 804c0 136 -40.001 251.668 -120.001 347.001s-176.333 143 -289 143s-209.334 -47.667 -290.001 -143s-121 -211 -121 -347c0 -88 18.333 -169.667 55 -245s86.334 -135 149.001 -179l40 -24c64.667 52.667 105.334 120 122.001 202h116
c13.333 -64 42 -120 86 -168l22 -26c93.333 57.333 159.333 140.666 198 249.999c21.333 60 32 123.333 32 190zM519.999 238.001l-1.99902 0.000976562c-24 10.667 -40 18 -48 22c-61.333 29.333 -116 72 -164 128c-97.333 114.667 -146 253 -146 415s48.667 301 146 417
c103.333 117.333 225.333 176 366 176s262.667 -58.667 366 -176c98.667 -116 148 -255 148 -417s-49.333 -300.333 -148 -415c-48 -56 -102.667 -98.667 -164 -128c-4.66699 -4.66699 -15.334 -9.33398 -32.001 -14.001l-84 72c-28 30.667 -52 64.667 -72 102
c-38 -76.667 -93.333 -136.667 -166 -180v-2z" />
    <glyph glyph-name="uni06F6" unicode="&#x6f6;" horiz-adv-x="1256" 
d="M264 1389c0 -94 28 -174.333 84 -241s131.333 -100 226 -100c52 0 106.333 16.333 163 49s101 81.667 133 147l118 358h108l-108 -336c-6.66699 -21.333 -14.667 -42 -24 -62l-398 -1204h-110l336 1010c-5.33301 -4 -11.333 -7.33301 -18 -10
c-65.333 -37.333 -125.333 -56 -180 -56c-184.667 0 -314.667 79.333 -390 238c-29.333 62.667 -44 122.667 -44 180s8 111.333 24 162l26 78h106l-34 -110c-12 -38.667 -18 -73 -18 -103z" />
    <glyph glyph-name="uni06F7" unicode="&#x6f7;" horiz-adv-x="1550" 
d="M722 0l-562 1606h110l506 -1450l504 1450h110l-560 -1606h-108z" />
    <glyph glyph-name="uni06F8" unicode="&#x6f8;" horiz-adv-x="1550" 
d="M830 1606l560 -1606h-110l-504 1450l-506 -1450h-110l562 1606h108z" />
    <glyph glyph-name="uni06F9" unicode="&#x6f9;" horiz-adv-x="1172" 
d="M908 1504h-168c-132 0 -244.667 -47 -338 -141s-140 -207 -140 -339s46.667 -245 140 -339s206 -141 338 -141h84c32 0 60 -4.66699 84 -14v974zM908 380c0 41.333 -28 62 -84 62h-84c-158.667 0 -295 57 -409 171s-171 251 -171 411s57 297 171 411s250.333 171 409 171
h272v-1606h-104v380z" />
    <glyph glyph-name="endash" unicode="&#x2013;" horiz-adv-x="594" 
 />
    <glyph glyph-name="emdash" unicode="&#x2014;" horiz-adv-x="762" 
 />
    <glyph glyph-name="quoteleft" unicode="&#x2018;" horiz-adv-x="620" 
d="M360 1400v-200h100v-300h-300v400h100v100h100zM360 1400v100h100v-100h-100z" />
    <glyph glyph-name="quoteright" unicode="&#x2019;" horiz-adv-x="620" 
d="M260 1000v200h-100v300h300v-400h-100v-100h-100zM260 1000v-100h-100v100h100z" />
    <glyph glyph-name="quotesinglbase" unicode="&#x201a;" horiz-adv-x="720" 
d="M260 300h100v200h200v-200h-100v-100h-100v-100h-200v100h100v100z" />
    <glyph glyph-name="quotedblleft" unicode="&#x201c;" horiz-adv-x="1120" 
d="M860 1400v100h100v-100h-100zM860 1400v-200h100v-300h-300v400h100v100h100zM360 1400v-200h100v-300h-300v400h100v100h100zM360 1400v100h100v-100h-100z" />
    <glyph glyph-name="quotedblright" unicode="&#x201d;" horiz-adv-x="1120" 
d="M260 1000v-100h-100v100h100zM260 1000v200h-100v300h300v-400h-100v-100h-100zM760 1000v200h-100v300h300v-400h-100v-100h-100zM760 1000v-100h-100v100h100z" />
    <glyph glyph-name="quotedblbase" unicode="&#x201e;" horiz-adv-x="1120" 
d="M660 300h100v200h200v-200h-100v-100h-100v-100h-200v100h100v100zM360 300v200h200v-200h-100v-100h-100v-100h-200v100h100v100h100z" />
    <glyph glyph-name="bullet" unicode="&#x2022;" horiz-adv-x="920" 
d="M160 1000h100v100h400v-100h100v-300h-100v-100h-400v100h-100v300z" />
    <glyph glyph-name="guilsinglleft" unicode="&#x2039;" horiz-adv-x="680" 
d="M520 238l-360 354l360 358v-144l-214 -212l214 -212v-144z" />
    <glyph glyph-name="guilsinglright" unicode="&#x203a;" horiz-adv-x="682" 
d="M162 238l-2 144l214 212l-214 212l2 144l360 -358z" />
    <glyph glyph-name="fraction" unicode="&#x2044;" horiz-adv-x="960" 
d="M268 0h-108l532 1606h108z" />
    <glyph glyph-name="trademark" unicode="&#x2122;" horiz-adv-x="1320" 
d="M360 900v500h-200v100h600v-100h100v-100h-100v-400h-100v500h-200v-500h-100zM960 1300v100h100v100h100v-600h-100v400h-100zM960 1300v-100h-100v100h100z" />
    <glyph glyph-name="minus" unicode="&#x2212;" horiz-adv-x="706" 
d="M458 302c34.667 0 61.334 5.33105 80.001 15.998v-10c0 -5.33301 1.33301 -20.666 4 -45.999l2 -30c1.33301 0 2 -2.66699 2 -8v-12c0 -9.33301 -8 -14.666 -24 -15.999c-6.66699 -2.66699 -43.334 -4 -110.001 -4h-22c-94.667 0 -171.334 2.66699 -230.001 8l2 24
c1.33301 8 4 23 8 45s12 34.333 24 37l136 -2c50.667 -1.33301 93.334 -2 128.001 -2z" />
    <glyph glyph-name="uni2215" unicode="&#x2215;" horiz-adv-x="960" 
d="M268 0h-108l532 1606h108z" />
    <glyph glyph-name="uni2219" unicode="&#x2219;" horiz-adv-x="196" 
 />
    <glyph glyph-name="approxequal" unicode="&#x2248;" horiz-adv-x="1238" 
d="M407 556c-8.66699 0 -15 -0.666992 -19 -2c-37.333 -9.33301 -75.333 -55.333 -114 -138l-22 -46l-92 44l22 46c60.667 132 133.334 198 218.001 198c34.667 0 68.334 -8.66699 101.001 -26s69.667 -42 111 -74l103 -79c27.333 -20.667 57.666 -31 90.999 -31
c5.33301 0 10 0.666992 14 2c48 10.667 96 68.667 144 174l22 46l92 -44l-20 -46c-30.667 -68 -64 -120 -100 -156c-48.667 -52 -104 -78 -166 -78c-52 0 -116.667 30 -194 90c-76.667 60 -125.334 95 -146.001 105c-21.333 10 -36.333 15 -45 15zM598 836
c-76.667 60 -125.333 95 -146 105c-21.333 10 -36.333 15 -45 15s-15 -0.666992 -19 -2c-37.333 -9.33301 -75.333 -55.333 -114 -138l-22 -46l-92 44l22 46c60.667 132 133.334 198 218.001 198c34.667 0 68.334 -8.66699 101.001 -26s69.667 -42 111 -74l103 -79
c27.333 -20.667 57.666 -31 90.999 -31c5.33301 0 10 0.666992 14 2c48 10.667 96 68.667 144 174l22 46l92 -44l-20 -46c-30.667 -68 -64 -120 -100 -156c-48.667 -52 -101.334 -78 -158.001 -78c-58 0 -125.333 30 -202 90z" />
    <glyph glyph-name="lessequal" unicode="&#x2264;" horiz-adv-x="820" 
d="M160 -118v118h500v-118h-500zM260 400v100h-100v100h100v100h100v100h100v100h100v100h100v-200h-100v-100h-100v-100h-100v-100h100v-100h100v-100h100v-200h-100v100h-100v100h-100v100h-100z" />
    <glyph glyph-name="greaterequal" unicode="&#x2265;" horiz-adv-x="820" 
d="M160 -118v118h500v-118h-500zM560 500v-100h-100v-100h-100v-100h-100v-100h-100v200h100v100h100v100h100v100h-100v100h-100v100h-100v200h100v-100h100v-100h100v-100h100v-100h100v-100h-100z" />
    <glyph glyph-name="nonmarkingreturn" horiz-adv-x="1282" 
 />
    <glyph glyph-name="_30" horiz-adv-x="366" 
 />
    <glyph glyph-name="_57" horiz-adv-x="366" 
 />
    <glyph glyph-name="_101" horiz-adv-x="584" 
 />
    <glyph glyph-name="_148" horiz-adv-x="1874" 
 />
    <glyph glyph-name="_159" 
 />
    <glyph glyph-name="_170" 
 />
    <glyph glyph-name="glyph184" horiz-adv-x="362" 
d="M344 1704l-356 -114l-18 62l358 114zM360 1562l-358 -112l-16 60l356 114zM254 1290h5.99902c12 1.33301 21.333 6 28 14s10 16.667 10 26v148l64 8v-156c0 -22.667 -8.33301 -44.667 -25 -66s-39.667 -34 -69 -38h-12c-21.333 0 -40.666 5.33301 -57.999 16
c0 -2.66699 -2 -6 -6 -10c-23.333 -28 -49.5 -42 -78.5 -42s-52.833 8 -71.5 24c-24 17.333 -38 39.333 -42 66v70l64 6v-68c3.33301 -21.333 17.333 -32 42 -32h6c26.667 2.66699 40 16.667 40 42v114l60 6v-94c5.33301 -22.667 19.333 -34 42 -34z" />
    <glyph glyph-name="glyph185" horiz-adv-x="270" 
 />
    <glyph glyph-name="glyph186" horiz-adv-x="1134" 
 />
    <glyph glyph-name="glyph187" 
 />
    <glyph glyph-name="_191" 
 />
    <glyph glyph-name="_244" 
 />
    <glyph glyph-name="_255" 
 />
    <glyph glyph-name="_264" 
 />
    <glyph glyph-name="_356" 
 />
    <glyph glyph-name="glyph357" horiz-adv-x="1272" 
 />
    <glyph glyph-name="_358" 
 />
    <glyph glyph-name="_359" 
 />
    <glyph glyph-name="_360" 
 />
    <glyph glyph-name="_363" 
 />
    <glyph glyph-name="_364" 
 />
    <glyph glyph-name="_365" horiz-adv-x="626" 
 />
    <glyph glyph-name="_366" horiz-adv-x="248" 
 />
    <glyph glyph-name="_367" horiz-adv-x="674" 
 />
    <glyph glyph-name="_382" 
 />
    <glyph glyph-name="_383" 
 />
    <glyph glyph-name="_384" 
 />
  </font>
</defs>
</svg>
