<?xml version="1.0" standalone="no"?>
<!DOCTYPE svg PUBLIC "-//W3C//DTD SVG 1.1//EN" "http://www.w3.org/Graphics/SVG/1.1/DTD/svg11.dtd" >
<svg>
<metadata>
Created by FontForge 20090914 at Tue Jun 28 19:03:23 2022
 By www-data
VIP Hakm 2016
</metadata>
<defs>
<font id="VIPHakmBold-VIPHakm" horiz-adv-x="0" >
  <font-face 
    font-family="VIPHakmBold-VIPHakm"
    font-weight="400"
    font-stretch="normal"
    units-per-em="2048"
    panose-1="2 0 5 0 0 0 0 0 0 0"
    ascent="1638"
    descent="-410"
    x-height="1206"
    cap-height="1626"
    bbox="-145.999 -802 2708 2212"
    underline-thickness="300"
    underline-position="-284"
    unicode-range="U+001D-U+FEFC"
  />
<missing-glyph horiz-adv-x="1200" 
d="M1014 1680h-832l416 -654zM-20 1820h1240v-1840h-1240v1840zM120 1516v-1242l394 620zM1080 264v1262l-400 -632zM188 120h818l-408 644z" />
    <glyph glyph-name="uniFDF2" unicode="&#xfedf;&#xfee0;&#xfeea;" horiz-adv-x="2374" arabic-form="isolated" 
d="M1636 1892l4 -0.00292969c6.66699 0 12 4 16 12c2.66699 1.33301 4 4 4 8v168l104 10v-178c0 -26.667 -10 -52.667 -30 -78s-47.333 -40.666 -82 -45.999h-52c0 14.667 -4 19.334 -12 14.001c-21.333 -26.667 -49.333 -42.667 -84 -48h-16
c-29.333 0 -54.666 9.33301 -75.999 28c-28 18.667 -44.667 45.334 -50 80.001v90l104 10v-88c0 -4 2.33301 -7.66699 7 -11s9.66699 -5 15 -5h4c14.667 2.66699 22 10 22 22v132l100 10v-114c5.33301 -10.667 12.666 -16 21.999 -16zM1514 2026v176l100 10v-186h-100z
M742 -20.0029c-166.667 0 -308.667 59 -426 177s-176 260 -176 426s58.667 308 176 426s259.333 177 426 177h290v-1062h458v1502h144v-1502h456v1502h144v-1646h-1492zM890 123.997v916h-148c-126.667 0 -235 -45 -325 -135s-135 -198.667 -135 -326s44.333 -235 133 -323
s193.667 -132 315 -132h160z" />
    <glyph glyph-name="uniFEF5" unicode="&#xfedf;&#xfe82;" horiz-adv-x="1414" arabic-form="isolated" 
d="M600 1730c28.667 0 50.168 -5.66699 64.501 -17l51.5 -42c20 -16.667 32 -25 36 -25c5.33301 1.33301 14.666 18 27.999 50l24 56l102 -56l-24 -50c-28 -66.667 -64.667 -106.667 -110 -120h-20c-30.667 0 -62.667 14 -96 42s-51 42 -53 42s-7.66699 -10.667 -17 -32
l-24 -58l-102 56l24 52c24 58.667 56.667 92.667 98 102h18zM1130 124v1502h144v-1646h-1134v144h990zM600.001 188v1186h142v-1186h-142z" />
    <glyph glyph-name="uniFEF6" unicode="&#xfee0;&#xfe82;" horiz-adv-x="1526" arabic-form="final" 
d="M600 1730c28.667 0 50.168 -5.66699 64.501 -17l51.5 -42c20 -16.667 32 -25 36 -25c5.33301 1.33301 14.666 18 27.999 50l24 56l102 -56l-24 -50c-28 -66.667 -64.667 -106.667 -110 -120h-20c-30.667 0 -62.667 14 -96 42s-51 42 -53 42s-7.66699 -10.667 -17 -32
l-24 -58l-102 56l24 52c24 58.667 56.667 92.667 98 102h18zM600.001 188v1186h142v-1186h-142zM1130 124v1502h144v-1502h282v-144h-1416v144h990z" />
    <glyph glyph-name="uniFEF7" unicode="&#xfedf;&#xfe84;" horiz-adv-x="1414" arabic-form="isolated" 
d="M600 188v1186h142v-1186h-142zM514 1706c0 42.667 16.998 80.998 50.998 114.998s73.667 51 119 51s91.333 -20.667 138 -62l-40 -110c-37.333 22.667 -58.666 37.334 -63.999 44.001s-15.666 10 -30.999 10s-28.333 -5.33301 -39 -16s-16 -23.667 -16 -39s5 -28 15 -38
s21 -15.667 33 -17h152v-128h-332v128h12c1.33301 -1.33301 2 19.334 2 62.001zM1130 123.998v1502h144v-1646h-1134v144h990z" />
    <glyph glyph-name="uniFEF8" unicode="&#xfee0;&#xfe84;" horiz-adv-x="1526" arabic-form="final" 
d="M600 188v1186h142v-1186h-142zM514 1706c0 42.667 16.998 80.998 50.998 114.998s73.667 51 119 51s91.333 -20.667 138 -62l-40 -110c-37.333 22.667 -58.666 37.334 -63.999 44.001s-15.666 10 -30.999 10s-28.333 -5.33301 -39 -16s-16 -23.667 -16 -39s5 -28 15 -38
s21 -15.667 33 -17h152v-128h-332v128h12c1.33301 -1.33301 2 19.334 2 62.001zM1130 123.998v1502h144v-1502h282v-144h-1416v144h990z" />
    <glyph glyph-name="uniFEF9" unicode="&#xfedf;&#xfe88;" horiz-adv-x="1414" arabic-form="isolated" 
d="M600 188v1186h142v-1186h-142zM1130 124v1502h144v-1646h-1134v144h990zM496 -228l-0.000976562 128.002h334v-128h-154c-10.667 -1.33301 -21 -7 -31 -17s-15 -22.333 -15 -37s5.33301 -27.334 16 -38.001s23.334 -16 38.001 -16s26 3.66699 34 11
s28.667 21.666 62 42.999l40 -110c-48 -41.333 -94.333 -62 -139 -62s-84 17 -118 51s-51 72.667 -51 116s-1.33301 63 -4 59h-12z" />
    <glyph glyph-name="uniFEFA" unicode="&#xfee0;&#xfe88;" horiz-adv-x="1526" arabic-form="final" 
d="M600 188v1186h142v-1186h-142zM496 -228l-0.000976562 128.002h334v-128h-154c-10.667 -1.33301 -21 -7 -31 -17s-15 -22.333 -15 -37s5.33301 -27.334 16 -38.001s23.334 -16 38.001 -16s26 3.66699 34 11s28.667 21.666 62 42.999l40 -110
c-48 -41.333 -94.333 -62 -139 -62s-84 17 -118 51s-51 72.667 -51 116s-1.33301 63 -4 59h-12zM1130 124.002v1502h144v-1502h282v-144h-1416v144h990z" />
    <glyph glyph-name="uniFEFB" unicode="&#xfedf;&#xfe8e;" horiz-adv-x="1414" arabic-form="isolated" 
d="M600 188v1186h142v-1186h-142zM1130 124v1502h144v-1646h-1134v144h990z" />
    <glyph glyph-name="uniFEFC" unicode="&#xfee0;&#xfe8e;" horiz-adv-x="1526" arabic-form="final" 
d="M600 188v1186h142v-1186h-142zM1130 124v1502h144v-1502h282v-144h-1416v144h990z" />
    <glyph glyph-name="glyph361" unicode="&#xfe8e;&#x64b;" horiz-adv-x="534" 
d="M418 2000l-394 -126l-28 102l396 126zM434 1858l-396 -124l-26 100l394 126zM282 124h282v-144h-424v1646h142v-1502z" />
    <glyph glyph-name="glyph362" unicode="&#x627;&#x64b;" horiz-adv-x="422" 
d="M418 2000l-394 -126l-28 102l396 126zM434 1858l-396 -124l-26 100l394 126zM140 -20v1646h142v-1646h-142z" />
    <glyph glyph-name="uni0621" unicode="&#x621;" horiz-adv-x="1082" arabic-form="isolated" 
d="M140 -20l-0.000976562 144.002h124l24 -16c-93.333 77.333 -140 174.666 -140 291.999s40 218.666 120 303.999c88 89.333 196 134 324 134s246 -41.333 354 -124l-92 -104c-56 34.667 -102.667 57.667 -140 69s-81.666 17 -132.999 17s-101 -14.333 -149 -43
s-83.667 -65 -107 -109s-35 -90 -35 -138c0 -76 31.667 -140.333 95 -193s148.333 -81.667 255 -87v-2h302v-144h-802z" />
    <glyph glyph-name="uni0622" unicode="&#x622;" horiz-adv-x="422" arabic-form="isolated" 
d="M134 1940c28.667 0 50.168 -5.66699 64.501 -17l51.5 -42c20 -16.667 32 -25 36 -25c5.33301 1.33301 14.666 18 27.999 50l24 56l102 -56l-24 -50c-28 -66.667 -64.667 -106.667 -110 -120h-20c-30.667 0 -62.667 14 -96 42s-51 42 -53 42s-7.66699 -10.667 -17 -32
l-24 -58l-102 56l24 52c24 58.667 56.667 92.667 98 102h18zM140.001 -20v1646h142v-1646h-142z" />
    <glyph glyph-name="uni0623" unicode="&#x623;" horiz-adv-x="422" arabic-form="isolated" 
d="M76 1916c0 42.667 17.001 81 51.001 115s73.333 51 118 51s91 -20.667 139 -62l-40 -110c-34.667 21.333 -55.667 35.666 -63 42.999s-18.333 11 -33 11s-27.334 -5.33301 -38.001 -16s-16 -23.667 -16 -39s5 -28 15 -38s20.333 -15.667 31 -17h154v-128h-334v128h14
c1.33301 -1.33301 2 19.334 2 62.001zM140.001 -20v1646h142v-1646h-142z" />
    <glyph glyph-name="uni0624" unicode="&#x624;" horiz-adv-x="1172" arabic-form="isolated" 
d="M282 1456c0 42.667 16.998 80.998 50.998 114.998s73.667 51 119 51s91.333 -20.667 138 -62l-40 -110c-37.333 22.667 -58.666 37.334 -63.999 44.001s-15.666 10 -30.999 10s-28.333 -5.33301 -39 -16s-16 -23.667 -16 -39s5 -28 15 -38s21 -15.667 33 -17h152v-128
h-332v128h12c1.33301 -1.33301 2 19.334 2 62.001zM1032 -90.002c0 -104 -42 -190.999 -126 -260.999s-183.333 -105 -298 -105c-72 0 -139.333 14.667 -202 44s-114.667 70.666 -156 123.999l-42 56l114 86l42 -56c57.333 -74.667 138.666 -112 243.999 -112
c78.667 0 145.334 22.333 200.001 67s82 97 82 157v70h-148c-166.667 0 -308.667 59 -426 177s-176 260 -176 426s58.667 308 176 426s259.333 177 426 177h290v-1276zM889.998 123.999v916h-148c-126.667 0 -235 -45 -325 -135s-135 -198.667 -135 -326
s44.333 -235 133 -323s193.667 -132 315 -132h160z" />
    <glyph glyph-name="uni0625" unicode="&#x625;" horiz-adv-x="422" arabic-form="isolated" 
d="M40 -228l-0.000976562 128.002h334v-128h-154c-10.667 -1.33301 -21 -7 -31 -17s-15 -22.333 -15 -37s5.33301 -27.334 16 -38.001s23.334 -16 38.001 -16s26 3.66699 34 11s28.667 21.666 62 42.999l40 -110c-48 -41.333 -94.333 -62 -139 -62s-84 17 -118 51
s-51 72.667 -51 116s-1.33301 63 -4 59h-12zM281.999 1626v-1646h-142v1646h142z" />
    <glyph glyph-name="uni0626" unicode="&#x626;" horiz-adv-x="1606" arabic-form="isolated" 
d="M292 1326c0 42.667 17.001 81 51.001 115s73.333 51 118 51s91 -20.667 139 -62l-40 -110c-34.667 21.333 -55.667 35.666 -63 42.999s-18.333 11 -33 11s-27.334 -5.33301 -38.001 -16s-16 -23.667 -16 -39s5 -28 15 -38s20.333 -15.667 31 -17h154v-128h-334v128h14
c1.33301 -1.33301 2 19.334 2 62.001zM1322 612l-527.998 -0.00195312v218c0 122.667 45 226 135 310s202.333 128 337 132v-142c-130 -5.33301 -225.333 -55.666 -286 -150.999c-29.333 -46 -44 -95.667 -44 -149v-76h530v-774h-514
c-105.333 1.33301 -205.333 18.666 -300 51.999c-98.667 30.667 -186.334 76.334 -263.001 137.001s-137.334 132 -182.001 214s-67 169.667 -67 263v358h142v-358c0 -141.333 66.333 -263.666 199 -366.999s293.667 -155 483 -155h358v488z" />
    <glyph glyph-name="uni0627" unicode="&#x627;" horiz-adv-x="422" arabic-form="isolated" 
d="M140 -20v1646h142v-1646h-142z" />
    <glyph glyph-name="uni0628" unicode="&#x628;" horiz-adv-x="1706" arabic-form="isolated" 
d="M892 -364v182h158v-182h-158zM1422 124l0.00195312 1062h144v-1206h-614c-105.333 1.33301 -205.333 18.666 -300 51.999c-98.667 30.667 -186.334 76.334 -263.001 137.001s-137.334 132 -182.001 214s-67 169.667 -67 263v358h142v-358
c0 -141.333 66.333 -263.666 199 -366.999s293.667 -155 483 -155h458z" />
    <glyph glyph-name="uni0629" unicode="&#x629;" horiz-adv-x="1172" arabic-form="isolated" 
d="M834 1338v182h160v-182h-160zM494 1338v182h160v-182h-160zM742 -20c-166.667 0 -308.667 59 -426 177s-176 260 -176 426s58.667 308 176 426s259.333 177 426 177h290v-1206h-290zM890 124v916h-148c-126.667 0 -235 -45 -325 -135s-135 -198.667 -135 -326
s44.333 -235 133 -323s193.667 -132 315 -132h160z" />
    <glyph glyph-name="uni062A" unicode="&#x62a;" horiz-adv-x="1706" arabic-form="isolated" 
d="M984 1338v182h160v-182h-160zM644 1338v182h160v-182h-160zM1422 124l0.00195312 1062h144v-1206h-614c-105.333 1.33301 -205.333 18.666 -300 51.999c-98.667 30.667 -186.334 76.334 -263.001 137.001s-137.334 132 -182.001 214s-67 169.667 -67 263v358h142v-358
c0 -141.333 66.333 -263.666 199 -366.999s293.667 -155 483 -155h458z" />
    <glyph glyph-name="uni062B" unicode="&#x62b;" horiz-adv-x="1706" arabic-form="isolated" 
d="M984 1338v182h160v-182h-160zM644 1338v182h160v-182h-160zM1422 124l0.00195312 1062h144v-1206h-614c-105.333 1.33301 -205.333 18.666 -300 51.999c-98.667 30.667 -186.334 76.334 -263.001 137.001s-137.334 132 -182.001 214s-67 169.667 -67 263v358h142v-358
c0 -141.333 66.333 -263.666 199 -366.999s293.667 -155 483 -155h458zM814.002 1636v182h158v-182h-158z" />
    <glyph glyph-name="uni062C" unicode="&#x62c;" horiz-adv-x="1638" arabic-form="isolated" 
d="M638 -20c-107.333 0 -185.001 -12.333 -233.001 -37c-80.667 -41.333 -121 -117.666 -121 -228.999c0 -62.667 20 -120 60 -172c60 -78.667 155.333 -135.334 286 -170.001l124 -30l-22 -144l-138 38c-173.333 46.667 -298.666 126.667 -375.999 240
c-52 72 -78 153.333 -78 244c0 124.667 39.333 222 118 292c42.667 38.667 96 67 160 85s160 27 288 27h592c-2.66699 8 -4 29.333 -4 64v430c0 126.667 -45.333 234.667 -136 324s-199 134 -325 134s-234.333 -44.667 -325 -134s-136 -197.333 -136 -324v-94h-142v94
c0 164 59 305 177 423s260 177 426 177s308 -59 426 -177s177 -259 177 -423v-430c0 -28 4.66699 -46.667 14 -56l10 -8l36 -40v-104h-858zM731.999 -362v182h158v-182h-158z" />
    <glyph glyph-name="uni062D" unicode="&#x62d;" horiz-adv-x="1638" arabic-form="isolated" 
d="M638 -20c-107.333 0 -185.001 -12.333 -233.001 -37c-80.667 -41.333 -121 -117.666 -121 -228.999c0 -62.667 20 -120 60 -172c60 -78.667 155.333 -135.334 286 -170.001l124 -30l-22 -144l-138 38c-173.333 46.667 -298.666 126.667 -375.999 240
c-52 72 -78 153.333 -78 244c0 124.667 39.333 222 118 292c42.667 38.667 96 67 160 85s160 27 288 27h592c-2.66699 8 -4 29.333 -4 64v430c0 126.667 -45.333 234.667 -136 324s-199 134 -325 134s-234.333 -44.667 -325 -134s-136 -197.333 -136 -324v-94h-142v94
c0 164 59 305 177 423s260 177 426 177s308 -59 426 -177s177 -259 177 -423v-430c0 -28 4.66699 -46.667 14 -56l10 -8l36 -40v-104h-858z" />
    <glyph glyph-name="uni062E" unicode="&#x62e;" horiz-adv-x="1638" arabic-form="isolated" 
d="M748 1346v182h160v-182h-160zM638 -20c-107.333 0 -185.001 -12.333 -233.001 -37c-80.667 -41.333 -121 -117.666 -121 -228.999c0 -62.667 20 -120 60 -172c60 -78.667 155.333 -135.334 286 -170.001l124 -30l-22 -144l-138 38
c-173.333 46.667 -298.666 126.667 -375.999 240c-52 72 -78 153.333 -78 244c0 124.667 39.333 222 118 292c42.667 38.667 96 67 160 85s160 27 288 27h592c-2.66699 8 -4 29.333 -4 64v430c0 126.667 -45.333 234.667 -136 324s-199 134 -325 134
s-234.333 -44.667 -325 -134s-136 -197.333 -136 -324v-94h-142v94c0 164 59 305 177 423s260 177 426 177s308 -59 426 -177s177 -259 177 -423v-430c0 -28 4.66699 -46.667 14 -56l10 -8l36 -40v-104h-858z" />
    <glyph glyph-name="uni062F" unicode="&#x62f;" horiz-adv-x="1142" arabic-form="isolated" 
d="M140 -20v144h720v498c0 126.667 -45 234.667 -135 324s-205 134 -345 134v142c178.667 0 327 -59 445 -177s177 -259 177 -423v-642h-862z" />
    <glyph glyph-name="uni0630" unicode="&#x630;" horiz-adv-x="1142" arabic-form="isolated" 
d="M474 1338v182h160v-182h-160zM140 -20v144h720v498c0 126.667 -45 234.667 -135 324s-205 134 -345 134v142c178.667 0 327 -59 445 -177s177 -259 177 -423v-642h-862z" />
    <glyph glyph-name="uni0631" unicode="&#x631;" horiz-adv-x="680" arabic-form="isolated" 
d="M398 -90l0.000976562 1276h142v-1276c0 -104 -42.667 -192 -128 -264c-72 -58.667 -162.667 -92.667 -272 -102v142c73.333 9.33301 134.666 34 183.999 74s74 90 74 150z" />
    <glyph glyph-name="uni0632" unicode="&#x632;" horiz-adv-x="694" arabic-form="isolated" 
d="M394 1328v182h160v-182h-160zM398 -90l0.000976562 1276h142v-1276c0 -104 -42.667 -192 -128 -264c-72 -58.667 -162.667 -92.667 -272 -102v142c73.333 9.33301 134.666 34 183.999 74s74 90 74 150z" />
    <glyph glyph-name="uni0633" unicode="&#x633;" horiz-adv-x="2568" arabic-form="isolated" 
d="M1202 1182l144.002 -0.000976562v-1058h398v1058h142v-1058h400v1062h142v-1206h-1082v-350h-394c-105.333 1.33301 -205.333 18.666 -300 51.999c-98.667 30.667 -186.334 76.334 -263.001 137.001s-137.334 132 -182.001 214s-67 169.667 -67 263v358h142v-358
c0 -141.333 66.333 -263.666 199 -366.999s293.667 -155 483 -155h238v1408z" />
    <glyph glyph-name="uni0634" unicode="&#x634;" horiz-adv-x="2568" arabic-form="isolated" 
d="M1572 1338v182h158v-182h-158zM1912 1338v182h158v-182h-158zM1740 1636v182h160v-182h-160zM1202 1182l144.002 -0.000976562v-1058h398v1058h142v-1058h400v1062h142v-1206h-1082v-350h-394c-105.333 1.33301 -205.333 18.666 -300 51.999
c-98.667 30.667 -186.334 76.334 -263.001 137.001s-137.334 132 -182.001 214s-67 169.667 -67 263v358h142v-358c0 -141.333 66.333 -263.666 199 -366.999s293.667 -155 483 -155h238v1408z" />
    <glyph glyph-name="uni0635" unicode="&#x635;" horiz-adv-x="2548" arabic-form="isolated" 
d="M1202 1218l142.002 -0.000976562v-208l36 32c117.333 117.333 259 176 425 176s308 -58.667 426 -176s177 -259.333 177 -426v-636h-1062v-350h-394c-105.333 1.33301 -205.333 18.666 -300 51.999c-98.667 30.667 -186.334 76.334 -263.001 137.001
s-137.334 132 -182.001 214s-67 169.667 -67 263v358h142v-358c0 -141.333 66.333 -263.666 199 -366.999s293.667 -155 483 -155h238v1444zM1346 123.999l920 0.000976562v492c0 128 -45 236.667 -135 326s-198.333 134 -325 134c-84 0 -161.333 -20.333 -232 -61
s-126 -96.334 -166 -167.001c-37.333 -61.333 -58 -128 -62 -200v-524z" />
    <glyph glyph-name="uni0636" unicode="&#x636;" horiz-adv-x="2548" arabic-form="isolated" 
d="M1202 1218l142.002 -0.000976562v-208l36 32c117.333 117.333 259 176 425 176s308 -58.667 426 -176s177 -259.333 177 -426v-636h-1062v-350h-394c-105.333 1.33301 -205.333 18.666 -300 51.999c-98.667 30.667 -186.334 76.334 -263.001 137.001
s-137.334 132 -182.001 214s-67 169.667 -67 263v358h142v-358c0 -141.333 66.333 -263.666 199 -366.999s293.667 -155 483 -155h238v1444zM1346 123.999l920 0.000976562v492c0 128 -45 236.667 -135 326s-198.333 134 -325 134c-84 0 -161.333 -20.333 -232 -61
s-126 -96.334 -166 -167.001c-37.333 -61.333 -58 -128 -62 -200v-524zM1734 1338v182h160v-182h-160z" />
    <glyph glyph-name="uni0637" unicode="&#x637;" horiz-adv-x="1634" arabic-form="isolated" 
d="M140 -20v144h106c12 0 21.333 2.66699 28 8c9.33301 10.667 14 28.667 14 54v1440h142v-616l36 32c117.333 117.333 259 176 425 176s308 -58.667 426 -176s177 -259.333 177 -426v-636h-1354zM430 124l922 0.000976562v492c0 128 -45 236.667 -135 326
s-198.333 134 -325 134c-84 0 -161.333 -20.333 -232 -61s-126.667 -96.334 -168 -167.001s-62 -148 -62 -232v-492z" />
    <glyph glyph-name="uni0638" unicode="&#x638;" horiz-adv-x="1634" arabic-form="isolated" 
d="M820 1338v182h160v-182h-160zM140 -20v144h106c12 0 21.333 2.66699 28 8c9.33301 10.667 14 28.667 14 54v1440h142v-616l36 32c117.333 117.333 259 176 425 176s308 -58.667 426 -176s177 -259.333 177 -426v-636h-1354zM430 124l922 0.000976562v492
c0 128 -45 236.667 -135 326s-198.333 134 -325 134c-84 0 -161.333 -20.333 -232 -61s-126.667 -96.334 -168 -167.001s-62 -148 -62 -232v-492z" />
    <glyph glyph-name="uni0639" unicode="&#x639;" horiz-adv-x="1506" arabic-form="isolated" 
d="M286 583c0 166 58.999 308 176.999 426s255.667 177 413 177s294 -50.667 410 -152l-20 -180c-28 28 -46 46.667 -54 56c-90.667 89.333 -199 134 -325 134s-234 -45.333 -324 -136s-135 -199 -135 -325s42.667 -232 128 -318s183.333 -133 294 -141h516v-144h-728
c-107.333 0 -185 -12.333 -233 -37c-80.667 -41.333 -121 -117.666 -121 -228.999c0 -62.667 20 -120 60 -172c60 -78.667 155.333 -135.334 286 -170.001l124 -30l-22 -144l-138 38c-173.333 46.667 -298.666 126.667 -375.999 240c-52 72 -78 153.333 -78 244
c0 124.667 39.333 222 118 292c42.667 38.667 89 65 139 79s101 23 153 27h-46l-40 40c-118.667 117.333 -178 259 -178 425z" />
    <glyph glyph-name="uni063A" unicode="&#x63a;" horiz-adv-x="1506" arabic-form="isolated" 
d="M286 583c0 166 58.999 308 176.999 426s255.667 177 413 177s294 -50.667 410 -152l-20 -180c-28 28 -46 46.667 -54 56c-90.667 89.333 -199 134 -325 134s-234 -45.333 -324 -136s-135 -199 -135 -325s42.667 -232 128 -318s183.333 -133 294 -141h516v-144h-728
c-107.333 0 -185 -12.333 -233 -37c-80.667 -41.333 -121 -117.666 -121 -228.999c0 -62.667 20 -120 60 -172c60 -78.667 155.333 -135.334 286 -170.001l124 -30l-22 -144l-138 38c-173.333 46.667 -298.666 126.667 -375.999 240c-52 72 -78 153.333 -78 244
c0 124.667 39.333 222 118 292c42.667 38.667 89 65 139 79s101 23 153 27h-46l-40 40c-118.667 117.333 -178 259 -178 425zM801.999 1338v182h160v-182h-160z" />
    <glyph glyph-name="uni0641" unicode="&#x641;" horiz-adv-x="2254" arabic-form="isolated" 
d="M1222 583c0 166 58.6699 307.999 176.003 425.999s259.333 177 426 177h290v-1206h-1162c-105.333 1.33301 -205.333 18.666 -300 51.999c-98.667 30.667 -186.334 76.334 -263.001 137.001s-137.334 132 -182.001 214s-67 169.667 -67 263v358h142v-358
c0 -141.333 66.333 -263.666 199 -366.999s293.667 -155 483 -155h466c5.33301 -4 -5.33398 7.33301 -32.001 34c-117.333 117.333 -176 259 -176 425zM1684 1336v184h160v-184h-160zM1972 1040l-148.001 -0.000976562c-126.667 0 -235 -45 -325 -135
s-135 -198.667 -135 -326s45.333 -235.666 136 -324.999c74.667 -74.667 161.334 -118 260.001 -130h212v916z" />
    <glyph glyph-name="uni0642" unicode="&#x642;" horiz-adv-x="1686" arabic-form="isolated" 
d="M984 1336v184h160v-184h-160zM1324 1336v184h160v-184h-160zM1402 -20l-147.998 -0.000976562c-165.333 0 -306.666 59 -423.999 177s-176 260 -176 426s58.667 308 176 426s258.666 177 423.999 177h292v-1556h-594c-105.333 1.33301 -205.333 18.666 -300 51.999
c-98.667 30.667 -186.334 76.334 -263.001 137.001s-137.334 132 -182.001 214s-67 169.667 -67 263v358h142v-358c0 -141.333 66.333 -263.666 199 -366.999s293.667 -155 483 -155h438v206zM1402 1040h-148c-126.667 0 -234.667 -45 -324 -135s-134 -198.667 -134 -326
s44 -235 132 -323s193.333 -132 316 -132h158v916z" />
    <glyph glyph-name="uni0643" unicode="&#x643;" horiz-adv-x="1706" arabic-form="isolated" 
d="M752 1136c0 42.667 17.001 81 51.001 115s73.333 51 118 51s91 -20.667 139 -62l-40 -110c-34.667 21.333 -55.667 35.666 -63 42.999s-18.333 11 -33 11s-27.334 -5.33301 -38.001 -16s-16 -23.667 -16 -39s5 -28 15 -38s20.333 -15.667 31 -17h154v-128h-334v128h14
c1.33301 -1.33301 2 19.334 2 62.001zM1422 124l0.00195312 1502h144v-1646h-614c-105.333 1.33301 -205.333 18.666 -300 51.999c-98.667 30.667 -186.334 76.334 -263.001 137.001s-137.334 132 -182.001 214s-67 169.667 -67 263v358h142v-358
c0 -141.333 66.333 -263.666 199 -366.999s293.667 -155 483 -155h458z" />
    <glyph glyph-name="uni0644" unicode="&#x644;" horiz-adv-x="1386" arabic-form="isolated" 
d="M1102 1626l144.002 -0.000976562v-1996h-294c-105.333 1.33301 -205.333 18.666 -300 51.999c-98.667 30.667 -186.334 76.334 -263.001 137.001s-137.334 132 -182.001 214s-67 169.667 -67 263v358h142v-358c0 -141.333 66.333 -263.666 199 -366.999
s293.667 -155 483 -155h138v1852z" />
    <glyph glyph-name="uni0645" unicode="&#x645;" horiz-adv-x="1728" arabic-form="isolated" 
d="M1055 1206c72.667 0 142.001 -16.333 208.001 -49s123.667 -77.667 173 -135c101.333 -118.667 152 -256 152 -412s-38.667 -288.667 -116 -398l-94 -106c-98 -82.667 -204.833 -124 -320.5 -124s-224.167 41.333 -325.5 124l-94 106
c-77.333 109.333 -116 236.666 -116 381.999c0 74.667 7.33301 135.334 22 182.001c-30.667 -1.33301 -68.334 -16 -113.001 -44s-80.667 -67.333 -108 -118s-41 -106 -41 -166v-812h-142v812c0 129.333 43 240.333 129 333s190.333 139 313 139h20
c18.667 33.333 42.667 68 72 104c110 121.333 237 182 381 182zM1055 1064c-106 0 -197.666 -45.666 -274.999 -136.999s-116 -202.333 -116 -333c0 -85.333 18 -164 54 -236s83.667 -129 143 -171s119.666 -63 180.999 -63c116.667 0 213.167 46.333 289.5 139
s114.5 203.667 114.5 333s-38.667 239.666 -116 330.999s-169 137 -275 137z" />
    <glyph glyph-name="uni0646" unicode="&#x646;" horiz-adv-x="1386" arabic-form="isolated" 
d="M622 1338v182h160v-182h-160zM1102 1186l144.002 -0.000976562v-1556h-294c-105.333 1.33301 -205.333 18.666 -300 51.999c-98.667 30.667 -186.334 76.334 -263.001 137.001s-137.334 132 -182.001 214s-67 169.667 -67 263v358h142v-358
c0 -141.333 66.333 -263.666 199 -366.999s293.667 -155 483 -155h138v1412z" />
    <glyph glyph-name="uni0647" unicode="&#x647;" horiz-adv-x="1172" arabic-form="isolated" 
d="M742 -20c-166.667 0 -308.667 59 -426 177s-176 260 -176 426s58.667 308 176 426s259.333 177 426 177h290v-1206h-290zM890 124v916h-148c-126.667 0 -235 -45 -325 -135s-135 -198.667 -135 -326s44.333 -235 133 -323s193.667 -132 315 -132h160z" />
    <glyph glyph-name="uni0648" unicode="&#x648;" horiz-adv-x="1172" arabic-form="isolated" 
d="M1032 -90c0 -104 -42 -190.999 -126 -260.999s-183.333 -105 -298 -105c-72 0 -139.333 14.667 -202 44s-114.667 70.666 -156 123.999l-42 56l114 86l42 -56c57.333 -74.667 138.666 -112 243.999 -112c78.667 0 145.334 22.333 200.001 67s82 97 82 157v70h-148
c-166.667 0 -308.667 59 -426 177s-176 260 -176 426s58.667 308 176 426s259.333 177 426 177h290v-1276zM890 124.001v916h-148c-126.667 0 -235 -45 -325 -135s-135 -198.667 -135 -326s44.333 -235 133 -323s193.667 -132 315 -132h160z" />
    <glyph glyph-name="uni0649" unicode="&#x649;" horiz-adv-x="1606" arabic-form="isolated" 
d="M1322 612l-527.998 -0.00195312v218c0 122.667 45 226 135 310s202.333 128 337 132v-142c-130 -5.33301 -225.333 -55.666 -286 -150.999c-29.333 -46 -44 -95.667 -44 -149v-76h530v-774h-514c-105.333 1.33301 -205.333 18.666 -300 51.999
c-98.667 30.667 -186.334 76.334 -263.001 137.001s-137.334 132 -182.001 214s-67 169.667 -67 263v358h142v-358c0 -141.333 66.333 -263.666 199 -366.999s293.667 -155 483 -155h358v488z" />
    <glyph glyph-name="uni064A" unicode="&#x64a;" horiz-adv-x="1606" arabic-form="isolated" 
d="M824 -362v182h158v-182h-158zM1164 -362v182h158v-182h-158zM1322 612l-527.998 -0.00195312v218c0 122.667 45 226 135 310s202.333 128 337 132v-142c-130 -5.33301 -225.333 -55.666 -286 -150.999c-29.333 -46 -44 -95.667 -44 -149v-76h530v-774h-514
c-105.333 1.33301 -205.333 18.666 -300 51.999c-98.667 30.667 -186.334 76.334 -263.001 137.001s-137.334 132 -182.001 214s-67 169.667 -67 263v358h142v-358c0 -141.333 66.333 -263.666 199 -366.999s293.667 -155 483 -155h358v488z" />
    <glyph glyph-name="uni064B" unicode="&#xfe70;" horiz-adv-x="390" arabic-form="isolated" 
d="M398 1440l-394 -126l-28 102l396 126zM414 1298l-396 -124l-26 100l394 126z" />
    <glyph glyph-name="uni064C" unicode="&#xfe72;" horiz-adv-x="532" arabic-form="isolated" 
d="M134 1192c-21.333 20 -33.832 41.1689 -37.499 63.502s-6.5 35.833 -8.5 40.5c-6 -0.666992 -14.667 -3.33398 -26 -8.00098l-48 -20l-40 94l46 20c28 12 50.333 18 67 18s31.667 -2.66699 45 -8l24 -14c9.33301 -7.33301 20.666 -26.666 33.999 -57.999l8 -40
c0 -4 0.666992 -6.66699 2 -8h2c5.33301 0 12 1.33301 20 4c-5.33301 5.33301 -13 21.666 -23 48.999s-15 53 -15 77s6 49.333 18 76c20 48 54 81.333 102 100c22.667 9.33301 45.667 14 69 14s47 -5.33301 71 -16c46.667 -18.667 78.667 -53.334 96 -104.001
c8 -21.333 12 -44 12 -68c0 -60 -26 -110.667 -78 -152c-26.667 -20 -80.667 -37.333 -162 -52l-28 -10c-30.667 -13.333 -58.167 -20 -82.5 -20s-46.833 7.33301 -67.5 22zM286.001 1400c0 -39.333 15.333 -66.001 46 -80.001c8 -2.66699 17.667 -4 29 -4c38 0 65 18 81 54
c5.33301 13.333 8 25.333 8 36s-2 21.334 -6 32.001c-10.667 34.667 -34.667 52 -72 52s-63.333 -18 -78 -54c-5.33301 -13.333 -8 -25.333 -8 -36z" />
    <glyph glyph-name="uni064D" unicode="&#xfe74;" horiz-adv-x="390" arabic-form="isolated" 
d="M398 -76l-394 -126l-28 102l396 126zM414 -218l-396 -124l-26 100l394 126z" />
    <glyph glyph-name="uni064E" unicode="&#xfe76;" horiz-adv-x="390" arabic-form="isolated" 
d="M414 1298l-396 -124l-26 100l394 126z" />
    <glyph glyph-name="uni064F" unicode="&#xfe78;" horiz-adv-x="380" arabic-form="isolated" 
d="M36 1433c0 52.667 18 97.668 54 135.001s79 56 129 56s92.667 -18.667 128 -56s53 -77.333 53 -120c0 -85.333 -29.333 -145.333 -88 -180c-14.667 -6.66699 -26.667 -11.334 -36 -14.001l-272 -90l-28 104l104 32c12 -8 15.333 -8 10 0c-36 36 -54 80.333 -54 133z
M219 1522c-22 0 -41 -8.66699 -57 -26s-24 -38 -24 -62s8 -45 24 -63s35 -27 57 -27s41.667 8.66699 59 26c14.667 18.667 22 40 22 64s-7.33301 44.667 -22 62c-17.333 17.333 -37 26 -59 26z" />
    <glyph glyph-name="uni0650" unicode="&#xfe7a;" horiz-adv-x="390" arabic-form="isolated" 
d="M398 -76l-394 -126l-28 102l396 126z" />
    <glyph glyph-name="uni0651" unicode="&#xfe7c;" horiz-adv-x="362" arabic-form="isolated" 
d="M254 1310l4.00293 -0.000976562c13.333 2.66699 20 9.33398 20 20.001v166l104 12v-178c0 -26.667 -8.66699 -52 -26 -76c-22.667 -26.667 -51.334 -42.667 -86.001 -48h-52c0 16 -4 20 -12 12c-26.667 -32 -57.334 -48 -92.001 -48s-62.667 9.33301 -84 28
c-28 20 -44.667 46.667 -50 80v90l104 10v-88c0 -2.66699 2.33301 -5.66699 7 -9s9.66699 -5 15 -5h4c14.667 2.66699 22 10 22 22v132l100 10v-114c3.33301 -10.667 10.666 -16 21.999 -16z" />
    <glyph glyph-name="uni0652" unicode="&#xfe7e;" horiz-adv-x="324" arabic-form="isolated" 
d="M82 1364c0 -24 8.66699 -44.667 26 -62c14.667 -18.667 32.667 -28 54 -28s40.333 9 57 27s25 39 25 63s-8 44.667 -24 62s-35 26 -57 26s-41 -8.66699 -57 -26s-24 -38 -24 -62zM-20 1365c0 52.667 18 97.333 54 134s78.667 55 128 55s92 -18.333 128 -55
s54 -76.667 54 -120c0 -84 -30 -144.333 -90 -181c-28 -16 -62.667 -24 -104 -24s-80 18.667 -116 56s-54 82.333 -54 135z" />
    <glyph glyph-name="uni067E" unicode="&#x67e;" horiz-adv-x="858" arabic-form="isolated" 
d="M558 1338v182h160v-182h-160zM218 1338v182h160v-182h-160zM388 1636v182h158v-182h-158zM398 -90l0.000976562 1276h142v-1276c0 -104 -42.667 -192 -128 -264c-72 -58.667 -162.667 -92.667 -272 -102v142c73.333 9.33301 134.666 34 183.999 74s74 90 74 150z" />
    <glyph glyph-name="uni0686" unicode="&#x686;" horiz-adv-x="1638" arabic-form="isolated" 
d="M1072 -362v182h164v-182h-164zM1066 -478v-182h-160v182h160zM732 -362v182h164v-182h-164zM638 -20c-107.333 0 -185.001 -12.333 -233.001 -37c-80.667 -41.333 -121 -117.666 -121 -228.999c0 -62.667 20 -120 60 -172c60 -78.667 155.333 -135.334 286 -170.001
l124 -30l-22 -144l-138 38c-173.333 46.667 -298.666 126.667 -375.999 240c-52 72 -78 153.333 -78 244c0 124.667 39.333 222 118 292c42.667 38.667 96 67 160 85s160 27 288 27h592c-2.66699 8 -4 29.333 -4 64v430c0 126.667 -45.333 234.667 -136 324
s-199 134 -325 134s-234.333 -44.667 -325 -134s-136 -197.333 -136 -324v-94h-142v94c0 164 59 305 177 423s260 177 426 177s308 -59 426 -177s177 -259 177 -423v-430c0 -28 4.66699 -46.667 14 -56l10 -8l36 -40v-104h-858z" />
    <glyph glyph-name="uni0698" unicode="&#x698;" horiz-adv-x="1706" arabic-form="isolated" 
d="M1082 -362v182h164v-182h-164zM1076 -478v-182h-160v182h160zM742 -362v182h164v-182h-164zM1422 124l0.00195312 1062h144v-1206h-614c-105.333 1.33301 -205.333 18.666 -300 51.999c-98.667 30.667 -186.334 76.334 -263.001 137.001s-137.334 132 -182.001 214
s-67 169.667 -67 263v358h142v-358c0 -141.333 66.333 -263.666 199 -366.999s293.667 -155 483 -155h458z" />
    <glyph glyph-name="uni06A4" unicode="&#x6a4;" horiz-adv-x="2254" arabic-form="isolated" 
d="M1680 1520v-184h-158v184h158zM2020 1520v-184h-158v184h158zM1690 1634v184h160v-184h-160zM1222 583c0 166 58.6699 307.999 176.003 425.999s259.333 177 426 177h290v-1206h-1162c-105.333 1.33301 -205.333 18.666 -300 51.999
c-98.667 30.667 -186.334 76.334 -263.001 137.001s-137.334 132 -182.001 214s-67 169.667 -67 263v358h142v-358c0 -141.333 66.333 -263.666 199 -366.999s293.667 -155 483 -155h466c5.33301 -4 -5.33398 7.33301 -32.001 34c-117.333 117.333 -176 259 -176 425z
M1972 1040l-148.001 -0.000976562c-126.667 0 -235 -45 -325 -135s-135 -198.667 -135 -326s45.333 -235.666 136 -324.999c74.667 -74.667 161.334 -118 260.001 -130h212v916z" />
    <glyph glyph-name="uniFB51" unicode="&#x671;" horiz-adv-x="534" arabic-form="final" 
d="M52 1848v256h104v-42c8 8 36 12 84 12s90.333 -18 127 -54s55 -79.333 55 -130v-144h-402v102h32zM156 1848h162v42c0 22.667 -8 42 -24 58s-33 24 -51 24s-33.333 -3.66699 -46 -11c-27.333 -16 -41 -39.667 -41 -71v-42zM282 124h282v-144h-424v1646h142v-1502z" />
    <glyph glyph-name="uniFB57" unicode="&#x67e;" horiz-adv-x="1818" arabic-form="final" 
d="M1082 -362v182h164v-182h-164zM1076 -478v-182h-160v182h160zM742 -362v182h164v-182h-164zM1422 124l0.00195312 1062h144v-1062h282v-144h-896c-105.333 1.33301 -205.333 18.666 -300 51.999c-98.667 30.667 -186.334 76.334 -263.001 137.001
s-137.334 132 -182.001 214s-67 169.667 -67 263v358h142v-358c0 -141.333 66.333 -263.666 199 -366.999s293.667 -155 483 -155h458z" />
    <glyph glyph-name="uniFB58" unicode="&#x67e;" horiz-adv-x="614" arabic-form="initial" 
d="M302 -478v-182h-158v182h158zM310 -362v182h164v-182h-164zM-30 -362v182h164v-182h-164zM266 1186h142v-1206h-422v144h280v1062z" />
    <glyph glyph-name="uniFB59" unicode="&#x67e;" horiz-adv-x="646" arabic-form="medial" 
d="M412 -362v182h164v-182h-164zM406 -478v-182h-160v182h160zM250 124v1062h144v-1062h282v-144h-706v144h280zM72 -362v182h164v-182h-164z" />
    <glyph glyph-name="uniFB6B" unicode="&#x6a4;" horiz-adv-x="2364" arabic-form="final" 
d="M1680 1520v-184h-158v184h158zM2020 1520v-184h-158v184h158zM1690 1634v184h160v-184h-160zM1222 583c0 166 58.6699 307.999 176.003 425.999s259.333 177 426 177h290v-1062h280v-144h-1442c-105.333 1.33301 -205.333 18.666 -300 51.999
c-98.667 30.667 -186.334 76.334 -263.001 137.001s-137.334 132 -182.001 214s-67 169.667 -67 263v358h142v-358c0 -141.333 66.333 -263.666 199 -366.999s293.667 -155 483 -155h466c5.33301 -4 -5.33398 7.33301 -32.001 34c-117.333 117.333 -176 259 -176 425z
M1972 1040l-148.001 -0.000976562c-126.667 0 -235 -45 -325 -135s-135 -198.667 -135 -326s45.333 -235.666 136 -324.999c74.667 -74.667 161.334 -118 260.001 -130h212v916z" />
    <glyph glyph-name="uniFB6C" unicode="&#x6a4;" horiz-adv-x="1262" arabic-form="initial" 
d="M1040 1520v-184h-158v184h158zM700 1520v-184h-158v184h158zM710 1634v184h160v-184h-160zM230 583c0 166 58.6689 308 176.002 426s258.666 177 423.999 177h292v-1206h-1152v144h468c5.33301 -4 -5.33398 7.33301 -32.001 34c-117.333 117.333 -176 259 -176 425z
M978.002 124v915.999h-148c-126.667 0 -234.667 -45 -324 -135s-134 -198.667 -134 -326s44.667 -235.666 134 -324.999c74.667 -74.667 162 -118 262 -130h210z" />
    <glyph glyph-name="uniFB6D" unicode="&#x6a4;" horiz-adv-x="1370" arabic-form="medial" 
d="M700 1520v-184h-158v184h158zM1040 1520v-184h-158v184h158zM-30 -20l0.00195312 144h468c5.33301 -4 -5.33398 7.33301 -32.001 34c-117.333 117.333 -176 259 -176 425s58.667 308 176 426s258.666 177 423.999 177h292v-1062h278v-144h-1430zM710.002 1634v184h160
v-184h-160zM978.002 124v915.999h-148c-126.667 0 -234.667 -45 -324 -135s-134 -198.667 -134 -326s44.667 -235.666 134 -324.999c74.667 -74.667 162 -118 262 -130h210z" />
    <glyph glyph-name="uniFB7B" unicode="&#x686;" horiz-adv-x="1688" arabic-form="final" 
d="M1020 -362v182h164v-182h-164zM1014 -478v-182h-160v182h160zM680 -362v182h164v-182h-164zM1294 188l-0.000976562 430c0 126.667 -45.333 234.667 -136 324s-199 134 -325 134s-234.333 -44.667 -325 -134s-136 -197.333 -136 -324v-94h-142v94c0 164 59 305 177 423
s260 177 426 177s308 -59 426 -177s177 -259 177 -423v-430c0 -28 4.66699 -46.667 14 -56c6.66699 -5.33301 16 -8 28 -8h240v-144h-1080c-107.333 0 -185 -12.333 -233 -37c-80.667 -41.333 -121 -117.666 -121 -228.999c0 -62.667 20 -120 60 -172
c60 -78.667 155.333 -135.334 286 -170.001l124 -30l-22 -144l-138 38c-173.333 46.667 -298.666 126.667 -375.999 240c-52 72 -78 153.333 -78 244c0 124.667 39.333 222 118 292c42.667 38.667 96 67 160 85s160 27 288 27h592c-2.66699 8 -4 29.333 -4 64z" />
    <glyph glyph-name="uniFB7C" unicode="&#x686;" horiz-adv-x="1650" arabic-form="initial" 
d="M886 -478v-182h-158v182h158zM894 -362v182h164v-182h-164zM554 -362v182h164v-182h-164zM1306 188v430c0 126.667 -45.333 234.667 -136 324s-199 134 -325 134s-234.333 -44.667 -325 -134s-136 -197.333 -136 -324v-94h-142v94c0 164 59 305 177 423s260 177 426 177
s308 -59 426 -177s177 -259 177 -423v-430c0 -28 4.66699 -46.667 14 -56l10 -8l36 -40v-104h-1538v144h1340c-2.66699 8 -4 29.333 -4 64z" />
    <glyph glyph-name="uniFB7D" unicode="&#x686;" horiz-adv-x="1700" arabic-form="medial" 
d="M894 -362v182h164v-182h-164zM886 -478v-182h-158v182h158zM-30 -20v144h1340c-2.66699 8 -4 29.333 -4 64v430c0 126.667 -45.333 234.667 -136 324s-199 134 -325 134s-234.333 -44.667 -325 -134s-136 -197.333 -136 -324v-94h-142v94c0 164 59 305 177 423
s260 177 426 177s308 -59 426 -177s177 -259 177 -423v-430c0 -28 4.66699 -46.667 14 -56c6.66699 -5.33301 16 -8 28 -8h240v-144h-1760zM554 -362v182h164v-182h-164z" />
    <glyph glyph-name="uniFB8B" unicode="&#x698;" horiz-adv-x="610" arabic-form="final" 
d="M398 1338v182h160v-182h-160zM58 1338v182h160v-182h-160zM228 1636v182h158v-182h-158zM238 -90l0.000976562 1276h142v-1062h260v-144h-260v-70c0 -104 -42.667 -192 -128 -264c-72 -58.667 -162.667 -92.667 -272 -102v142c73.333 9.33301 134.666 34 183.999 74
s74 90 74 150z" />
    <glyph glyph-name="uniFB8F" unicode="&#x6a9;" horiz-adv-x="2078" arabic-form="final" 
d="M1686 124l0.000976562 247.999c0 126.667 -44.667 234 -134 322s-194.666 133.333 -315.999 136h-316v168l720 656l-10 -206l-526 -476h132c161.333 -2.66699 300.333 -62 417 -178s175 -256.667 175 -422v-248h280v-144h-1156
c-105.333 1.33301 -205.333 18.666 -300 51.999c-98.667 30.667 -186.334 76.334 -263.001 137.001s-137.334 132 -182.001 214s-67 169.667 -67 263v358h142v-358c0 -141.333 66.333 -263.666 199 -366.999s293.667 -155 483 -155h722z" />
    <glyph glyph-name="uniFB90" unicode="&#x6a9;" horiz-adv-x="1298" arabic-form="initial" 
d="M1158 372l-0.000976562 -392h-1188v144h1046v248c0 126.667 -44.667 234 -134 322s-194.666 133.333 -315.999 136h-316v170l14 10l706 644l-10 -206l-526 -476h132c161.333 -2.66699 300.333 -62 417 -178s175 -256.667 175 -422z" />
    <glyph glyph-name="uniFB91" unicode="&#x6a9;" horiz-adv-x="1408" arabic-form="medial" 
d="M-30 -20l-0.000976562 144h1046v248c0 126.667 -44.667 234 -134 322s-194.666 133.333 -315.999 136h-316v168l720 656l-10 -206l-526 -476h132c161.333 -2.66699 300.333 -62 417 -178s175 -256.667 175 -422v-248h280v-144h-1468z" />
    <glyph glyph-name="uniFB93" unicode="&#x6af;" horiz-adv-x="2078" arabic-form="final" 
d="M1686 124l0.000976562 247.999c0 126.667 -44.667 234 -134 322s-194.666 133.333 -315.999 136h-316v168l720 656l-10 -206l-526 -476h132c161.333 -2.66699 300.333 -62 417 -178s175 -256.667 175 -422v-248h280v-144h-1156
c-105.333 1.33301 -205.333 18.666 -300 51.999c-98.667 30.667 -186.334 76.334 -263.001 137.001s-137.334 132 -182.001 214s-67 169.667 -67 263v358h142v-358c0 -141.333 66.333 -263.666 199 -366.999s293.667 -155 483 -155h722zM1470 1794l-10 -206l-574 -520
l-148 60z" />
    <glyph glyph-name="uniFB94" unicode="&#x6af;" horiz-adv-x="1298" arabic-form="initial" 
d="M800 1794l-10 -206l-574 -520l-148 60zM1158 372l-0.000976562 -392h-1188v144h1046v248c0 126.667 -44.667 234 -134 322s-194.666 133.333 -315.999 136h-316v170l14 10l706 644l-10 -206l-526 -476h132c161.333 -2.66699 300.333 -62 417 -178s175 -256.667 175 -422z
" />
    <glyph glyph-name="uniFB95" unicode="&#x6af;" horiz-adv-x="1408" arabic-form="medial" 
d="M800 1794l-10 -206l-574 -520l-148 60zM-30 -20l-0.000976562 144h1046v248c0 126.667 -44.667 234 -134 322s-194.666 133.333 -315.999 136h-316v168l720 656l-10 -206l-526 -476h132c161.333 -2.66699 300.333 -62 417 -178s175 -256.667 175 -422v-248h280v-144
h-1468z" />
    <glyph glyph-name="uniFBA7" unicode="&#x6c1;" horiz-adv-x="1172" arabic-form="final" 
d="M742 -20c-166.667 0 -308.667 59 -426 177s-176 260 -176 426s58.667 308 176 426s259.333 177 426 177h290v-1206h-290zM890 124v916h-148c-126.667 0 -235 -45 -325 -135s-135 -198.667 -135 -326s44.333 -235 133 -323s193.667 -132 315 -132h160z" />
    <glyph glyph-name="uniFBA8" unicode="&#x6c1;" horiz-adv-x="1472" arabic-form="initial" 
d="M910 422c0 90.667 -30.334 163.334 -91.001 218.001s-120.667 82 -180 82s-119.666 -27.333 -180.999 -82s-92 -127.334 -92 -218.001s30.667 -163.334 92 -218.001c50.667 -46.667 110.667 -73.334 180 -80.001c69.333 6.66699 132 35.334 188 86.001
s84 121.334 84 212.001zM-30.001 -20l0.00195312 144.001h358c25.333 -20 36 -27.333 32 -22c-90.667 81.333 -136 187.666 -136 318.999s44.667 238 134 320s182.666 123 279.999 123s190.666 -41 279.999 -123s134 -188.667 134 -320s-45.333 -238.333 -136 -321l32 24
h242v498c0 126.667 -45 234.667 -135 324s-198.333 134 -325 134s-240 -49.333 -340 -148l-100 100c126.667 126.667 273 190 439 190s308 -59 426 -177s177 -259 177 -423v-642h-1362z" />
    <glyph glyph-name="uniFBA9" unicode="&#x6c1;" horiz-adv-x="1584" arabic-form="medial" 
d="M-30 -20l0.00195312 144.001h358c25.333 -20 36 -27.333 32 -22c-90.667 81.333 -136 187.666 -136 318.999s44.667 238 134 320s182.666 123 279.999 123s190.666 -41 279.999 -123s134 -188.667 134 -320s-45.333 -238.333 -136 -321l32 24h242v498
c0 126.667 -45 234.667 -135 324s-198.333 134 -325 134s-240 -49.333 -340 -148l-100 100c126.667 126.667 273 190 439 190s308 -59 426 -177s177 -259 177 -423v-498h282v-144h-1644zM910.002 422.001c0 90.667 -30.334 163.334 -91.001 218.001s-120.667 82 -180 82
s-119.666 -27.333 -180.999 -82s-92 -127.334 -92 -218.001s30.667 -163.334 92 -218.001c50.667 -46.667 110.667 -73.334 180 -80.001c69.333 6.66699 132 35.334 188 86.001s84 121.334 84 212.001z" />
    <glyph glyph-name="uniFBAB" unicode="&#x6be;" horiz-adv-x="1270" arabic-form="final" 
 />
    <glyph glyph-name="uniFBAC" unicode="&#x6be;" horiz-adv-x="1262" arabic-form="initial" 
d="M742 -20c-166.667 0 -308.667 59 -426 177s-176 260 -176 426s58.667 308 176 426s259.333 177 426 177h290v-1062h260v-144h-550zM890 124v916h-148c-126.667 0 -235 -45 -325 -135s-135 -198.667 -135 -326s44.333 -235 133 -323s193.667 -132 315 -132h160z" />
    <glyph glyph-name="uniFBFD" unicode="&#x6cc;" horiz-adv-x="2234" arabic-form="final" 
d="M1842 -20l0.00195312 733.999c0 60 -13.667 115.333 -41 166s-64 90.667 -110 120s-95.667 44 -149 44h-76v-1064h-514c-105.333 1.33301 -205.333 18.666 -300 51.999c-98.667 30.667 -186.334 76.334 -263.001 137.001s-137.334 132 -182.001 214s-67 169.667 -67 263
v358h142v-358c0 -141.333 66.333 -263.666 199 -366.999s293.667 -155 483 -155h358v1062h220c122.667 0 227 -46.333 313 -139s129 -203.667 129 -333v-590h280v-144h-422z" />
    <glyph glyph-name="uniFBFE" unicode="&#x6cc;" horiz-adv-x="652" arabic-form="initial" 
d="M14 -362v182h158v-182h-158zM354 -362v182h158v-182h-158zM250 1186h142v-1206h-422v144h280v1062z" />
    <glyph glyph-name="uniFBFF" unicode="&#x6cc;" horiz-adv-x="646" arabic-form="medial" 
d="M72 -362v182h160v-182h-160zM412 -362v182h160v-182h-160zM394 124h282v-144h-706v144h280v1062h144v-1062z" />
    <glyph glyph-name="uniFC5E" unicode="&#xfc5e;" horiz-adv-x="362" arabic-form="isolated" 
d="M14 1502c-21.333 20 -33.832 41.1689 -37.499 63.502s-6.5 35.833 -8.5 40.5c-6 -0.666992 -14.667 -3.33398 -26 -8.00098l-48 -20l-40 94l46 20c28 12 50.333 18 67 18s31.667 -2.66699 45 -8l24 -14c9.33301 -7.33301 20.666 -26.666 33.999 -57.999l8 -40
c0 -4 0.666992 -6.66699 2 -8h2c5.33301 0 12 1.33301 20 4c-5.33301 5.33301 -13 21.666 -23 48.999s-15 53 -15 77s6 49.333 18 76c20 48 54 81.333 102 100c22.667 9.33301 45.667 14 69 14s47 -5.33301 71 -16c46.667 -18.667 78.667 -53.334 96 -104.001
c8 -21.333 12 -44 12 -68c0 -60 -26 -110.667 -78 -152c-26.667 -20 -80.667 -37.333 -162 -52l-28 -10c-30.667 -13.333 -58.167 -20 -82.5 -20s-46.833 7.33301 -67.5 22zM166.001 1710c0 -39.333 15.333 -66.001 46 -80.001c8 -2.66699 17.667 -4 29 -4c38 0 65 18 81 54
c5.33301 13.333 8 25.333 8 36s-2 21.334 -6 32.001c-10.667 34.667 -34.667 52 -72 52s-63.333 -18 -78 -54c-5.33301 -13.333 -8 -25.333 -8 -36zM254.001 1310l4.00293 -0.000976562c13.333 2.66699 20 9.33398 20 20.001v166l104 12v-178
c0 -26.667 -8.66699 -52 -26 -76c-22.667 -26.667 -51.334 -42.667 -86.001 -48h-52c0 16 -4 20 -12 12c-26.667 -32 -57.334 -48 -92.001 -48s-62.667 9.33301 -84 28c-28 20 -44.667 46.667 -50 80v90l104 10v-88c0 -2.66699 2.33301 -5.66699 7 -9s9.66699 -5 15 -5h4
c14.667 2.66699 22 10 22 22v132l100 10v-114c3.33301 -10.667 10.666 -16 21.999 -16z" />
    <glyph glyph-name="uniFC5F" unicode="&#xfc5f;" horiz-adv-x="362" arabic-form="isolated" 
d="M398 1410l-394 -126l-28 102l396 126zM414 1268l-396 -124l-26 100l394 126zM254 1610l4.00293 -0.000976562c13.333 2.66699 20 9.33398 20 20.001v166l104 12v-178c0 -26.667 -8.66699 -52 -26 -76c-22.667 -26.667 -51.334 -42.667 -86.001 -48h-52c0 16 -4 20 -12 12
c-26.667 -32 -57.334 -48 -92.001 -48s-62.667 9.33301 -84 28c-28 20 -44.667 46.667 -50 80v90l104 10v-88c0 -2.66699 2.33301 -5.66699 7 -9s9.66699 -5 15 -5h4c14.667 2.66699 22 10 22 22v132l100 10v-114c3.33301 -10.667 10.666 -16 21.999 -16z" />
    <glyph glyph-name="uniFC60" unicode="&#xfc60;" horiz-adv-x="362" arabic-form="isolated" 
d="M394 1548l-396 -124l-26 100l394 126zM254 1310l4.00293 -0.000976562c13.333 2.66699 20 9.33398 20 20.001v166l104 12v-178c0 -26.667 -8.66699 -52 -26 -76c-22.667 -26.667 -51.334 -42.667 -86.001 -48h-52c0 16 -4 20 -12 12c-26.667 -32 -57.334 -48 -92.001 -48
s-62.667 9.33301 -84 28c-28 20 -44.667 46.667 -50 80v90l104 10v-88c0 -2.66699 2.33301 -5.66699 7 -9s9.66699 -5 15 -5h4c14.667 2.66699 22 10 22 22v132l100 10v-114c3.33301 -10.667 10.666 -16 21.999 -16z" />
    <glyph glyph-name="uniFC61" unicode="&#xfc61;" horiz-adv-x="362" arabic-form="isolated" 
d="M36 1703c0 52.667 18 97.668 54 135.001s79 56 129 56s92.667 -18.667 128 -56s53 -77.333 53 -120c0 -85.333 -29.333 -145.333 -88 -180c-14.667 -6.66699 -26.667 -11.334 -36 -14.001l-272 -90l-28 104l104 32c12 -8 15.333 -8 10 0c-36 36 -54 80.333 -54 133z
M219 1792c-22 0 -41 -8.66699 -57 -26s-24 -38 -24 -62s8 -45 24 -63s35 -27 57 -27s41.667 8.66699 59 26c14.667 18.667 22 40 22 64s-7.33301 44.667 -22 62c-17.333 17.333 -37 26 -59 26zM254 1310l4.00293 -0.000976562c13.333 2.66699 20 9.33398 20 20.001v166
l104 12v-178c0 -26.667 -8.66699 -52 -26 -76c-22.667 -26.667 -51.334 -42.667 -86.001 -48h-52c0 16 -4 20 -12 12c-26.667 -32 -57.334 -48 -92.001 -48s-62.667 9.33301 -84 28c-28 20 -44.667 46.667 -50 80v90l104 10v-88c0 -2.66699 2.33301 -5.66699 7 -9
s9.66699 -5 15 -5h4c14.667 2.66699 22 10 22 22v132l100 10v-114c3.33301 -10.667 10.666 -16 21.999 -16z" />
    <glyph glyph-name="uniFC62" unicode="&#xfc62;" horiz-adv-x="362" arabic-form="isolated" 
d="M398 1410l-394 -126l-28 102l396 126zM254 1610l4.00293 -0.000976562c13.333 2.66699 20 9.33398 20 20.001v166l104 12v-178c0 -26.667 -8.66699 -52 -26 -76c-22.667 -26.667 -51.334 -42.667 -86.001 -48h-52c0 16 -4 20 -12 12c-26.667 -32 -57.334 -48 -92.001 -48
s-62.667 9.33301 -84 28c-28 20 -44.667 46.667 -50 80v90l104 10v-88c0 -2.66699 2.33301 -5.66699 7 -9s9.66699 -5 15 -5h4c14.667 2.66699 22 10 22 22v132l100 10v-114c3.33301 -10.667 10.666 -16 21.999 -16z" />
    <glyph glyph-name="uniFE82" unicode="&#x622;" horiz-adv-x="534" arabic-form="final" 
d="M134 1940c28.667 0 50.168 -5.66699 64.501 -17l51.5 -42c20 -16.667 32 -25 36 -25c5.33301 1.33301 14.666 18 27.999 50l24 56l102 -56l-24 -50c-28 -66.667 -64.667 -106.667 -110 -120h-20c-30.667 0 -62.667 14 -96 42s-51 42 -53 42s-7.66699 -10.667 -17 -32
l-24 -58l-102 56l24 52c24 58.667 56.667 92.667 98 102h18zM282.001 124h282v-144h-424v1646h142v-1502z" />
    <glyph glyph-name="uniFE84" unicode="&#x623;" horiz-adv-x="534" arabic-form="final" 
d="M76 1916c0 42.667 17.001 81 51.001 115s73.333 51 118 51s91 -20.667 139 -62l-40 -110c-34.667 21.333 -55.667 35.666 -63 42.999s-18.333 11 -33 11s-27.334 -5.33301 -38.001 -16s-16 -23.667 -16 -39s5 -28 15 -38s20.333 -15.667 31 -17h154v-128h-334v128h14
c1.33301 -1.33301 2 19.334 2 62.001zM282.001 124h282v-144h-424v1646h142v-1502z" />
    <glyph glyph-name="uniFE86" unicode="&#x624;" horiz-adv-x="1262" arabic-form="final" 
d="M282 1456c0 42.667 16.998 80.998 50.998 114.998s73.667 51 119 51s91.333 -20.667 138 -62l-40 -110c-37.333 22.667 -58.666 37.334 -63.999 44.001s-15.666 10 -30.999 10s-28.333 -5.33301 -39 -16s-16 -23.667 -16 -39s5 -28 15 -38s21 -15.667 33 -17h152v-128
h-332v128h12c1.33301 -1.33301 2 19.334 2 62.001zM1032 -20.002v-69.999c0 -104 -42 -191 -126 -261s-183.333 -105 -298 -105c-72 0 -139.333 14.667 -202 44s-114.667 70.666 -156 123.999l-42 56l114 86l42 -56c57.333 -74.667 138.666 -112 243.999 -112
c78.667 0 145.334 22.333 200.001 67s82 97 82 157v70h-148c-166.667 0 -308.667 59 -426 177s-176 260 -176 426s58.667 308 176 426s259.333 177 426 177h290v-1062h260v-144h-260zM889.998 123.999v916h-148c-126.667 0 -235 -45 -325 -135s-135 -198.667 -135 -326
s44.333 -235 133 -323s193.667 -132 315 -132h160z" />
    <glyph glyph-name="uniFE88" unicode="&#x625;" horiz-adv-x="534" arabic-form="final" 
d="M100 -226l0.00195312 127.998h332v-128h-152c-12 -1.33301 -23 -7 -33 -17s-15 -22.667 -15 -38s5.33301 -28.333 16 -39s23.667 -16 39 -16s25.666 3.33301 30.999 10s26.666 21.334 63.999 44.001l40 -110c-46.667 -41.333 -92.667 -62 -138 -62s-85 17 -119 51
s-51 72.333 -51 115s-0.666992 63.334 -2 62.001h-12zM282.002 123.998h282v-144h-424v1646h142v-1502z" />
    <glyph glyph-name="uniFE8A" unicode="&#x626;" horiz-adv-x="2234" arabic-form="final" 
d="M156 1456c0 42.667 17.001 81 51.001 115s73.333 51 118 51s91 -20.667 139 -62l-40 -110c-34.667 21.333 -55.667 35.666 -63 42.999s-18.333 11 -33 11s-27.334 -5.33301 -38.001 -16s-16 -23.667 -16 -39s5 -28 15 -38s20.333 -15.667 31 -17h154v-128h-334v128h14
c1.33301 -1.33301 2 19.334 2 62.001zM1842 -20l0.00195312 733.999c0 60 -13.667 115.333 -41 166s-64 90.667 -110 120s-95.667 44 -149 44h-76v-1064h-514c-105.333 1.33301 -205.333 18.666 -300 51.999c-98.667 30.667 -186.334 76.334 -263.001 137.001
s-137.334 132 -182.001 214s-67 169.667 -67 263v358h142v-358c0 -141.333 66.333 -263.666 199 -366.999s293.667 -155 483 -155h358v1062h220c122.667 0 227 -46.333 313 -139s129 -203.667 129 -333v-590h280v-144h-422z" />
    <glyph glyph-name="uniFE8B" unicode="&#x626;" horiz-adv-x="534" arabic-form="initial" 
d="M72 1456c0 42.667 17.001 81 51.001 115s73.333 51 118 51s91 -20.667 139 -62l-40 -110c-34.667 21.333 -55.667 35.666 -63 42.999s-18.333 11 -33 11s-27.334 -5.33301 -38.001 -16s-16 -23.667 -16 -39s5 -28 15 -38s20.333 -15.667 31 -17h154v-128h-334v128h14
c1.33301 -1.33301 2 19.334 2 62.001zM250.001 1186h144v-1206h-424v144h280v1062z" />
    <glyph glyph-name="uniFE8C" unicode="&#x626;" horiz-adv-x="646" arabic-form="medial" 
d="M162 1456c0 42.667 17.001 81 51.001 115s73.333 51 118 51s91 -20.667 139 -62l-40 -110c-34.667 21.333 -55.667 35.666 -63 42.999s-18.333 11 -33 11s-27.334 -5.33301 -38.001 -16s-16 -23.667 -16 -39s5 -28 15 -38s20.333 -15.667 31 -17h154v-128h-334v128h14
c1.33301 -1.33301 2 19.334 2 62.001zM394.001 124h282v-144h-706v144h280v1062h144v-1062z" />
    <glyph glyph-name="uniFE8E" unicode="&#x627;" horiz-adv-x="534" arabic-form="final" 
d="M282 124h282v-144h-424v1646h142v-1502z" />
    <glyph glyph-name="uniFE90" unicode="&#x628;" horiz-adv-x="1818" arabic-form="final" 
d="M892 -364v182h158v-182h-158zM1422 124l0.00195312 1062h144v-1062h282v-144h-896c-105.333 1.33301 -205.333 18.666 -300 51.999c-98.667 30.667 -186.334 76.334 -263.001 137.001s-137.334 132 -182.001 214s-67 169.667 -67 263v358h142v-358
c0 -141.333 66.333 -263.666 199 -366.999s293.667 -155 483 -155h458z" />
    <glyph glyph-name="uniFE91" unicode="&#x628;" horiz-adv-x="532" arabic-form="initial" 
d="M234 -362v182h158v-182h-158zM250 1186h142v-1206h-422v144h280v1062z" />
    <glyph glyph-name="uniFE92" unicode="&#x628;" horiz-adv-x="646" arabic-form="medial" 
d="M242 -364v182h158v-182h-158zM394 124h282v-144h-706v144h280v1062h144v-1062z" />
    <glyph glyph-name="uniFE94" unicode="&#x629;" horiz-adv-x="1262" arabic-form="final" 
d="M834 1338v182h160v-182h-160zM494 1338v182h160v-182h-160zM742 -20c-166.667 0 -308.667 59 -426 177s-176 260 -176 426s58.667 308 176 426s259.333 177 426 177h290v-1062h260v-144h-550zM890 124v916h-148c-126.667 0 -235 -45 -325 -135s-135 -198.667 -135 -326
s44.333 -235 133 -323s193.667 -132 315 -132h160z" />
    <glyph glyph-name="uniFE96" unicode="&#x62a;" horiz-adv-x="1818" arabic-form="final" 
d="M984 1338v182h160v-182h-160zM664 1338v182h160v-182h-160zM1422 124l0.00195312 1062h144v-1062h282v-144h-896c-105.333 1.33301 -205.333 18.666 -300 51.999c-98.667 30.667 -186.334 76.334 -263.001 137.001s-137.334 132 -182.001 214s-67 169.667 -67 263v358
h142v-358c0 -141.333 66.333 -263.666 199 -366.999s293.667 -155 483 -155h458z" />
    <glyph glyph-name="uniFE97" unicode="&#x62a;" horiz-adv-x="712" arabic-form="initial" 
d="M72 1338v182h160v-182h-160zM412 1338v182h160v-182h-160zM250 1186h142v-1206h-422v144h280v1062z" />
    <glyph glyph-name="uniFE98" unicode="&#x62a;" horiz-adv-x="646" arabic-form="medial" 
d="M72 1338v182h160v-182h-160zM412 1338v182h160v-182h-160zM394 124h282v-144h-706v144h280v1062h144v-1062z" />
    <glyph glyph-name="uniFE9A" unicode="&#x62b;" horiz-adv-x="1818" arabic-form="final" 
d="M984 1338v182h160v-182h-160zM644 1338v182h160v-182h-160zM1422 124l0.00195312 1062h144v-1062h282v-144h-896c-105.333 1.33301 -205.333 18.666 -300 51.999c-98.667 30.667 -186.334 76.334 -263.001 137.001s-137.334 132 -182.001 214s-67 169.667 -67 263v358
h142v-358c0 -141.333 66.333 -263.666 199 -366.999s293.667 -155 483 -155h458zM814.002 1636v182h158v-182h-158z" />
    <glyph glyph-name="uniFE9B" unicode="&#x62b;" horiz-adv-x="710" arabic-form="initial" 
d="M72 1336v184h158v-184h-158zM412 1336v184h158v-184h-158zM240 1634v184h160v-184h-160zM250 1186h142v-1206h-422v144h280v1062z" />
    <glyph glyph-name="uniFE9C" unicode="&#x62b;" horiz-adv-x="646" arabic-form="medial" 
d="M72 1338v182h160v-182h-160zM412 1338v182h160v-182h-160zM242 1636v182h158v-182h-158zM394 124h282v-144h-706v144h280v1062h144v-1062z" />
    <glyph glyph-name="uniFE9E" unicode="&#x62c;" horiz-adv-x="1688" arabic-form="final" 
d="M1294 188l-0.000976562 430c0 126.667 -45.333 234.667 -136 324s-199 134 -325 134s-234.333 -44.667 -325 -134s-136 -197.333 -136 -324v-94h-142v94c0 164 59 305 177 423s260 177 426 177s308 -59 426 -177s177 -259 177 -423v-430c0 -28 4.66699 -46.667 14 -56
c6.66699 -5.33301 16 -8 28 -8h240v-144h-1080c-107.333 0 -185 -12.333 -233 -37c-80.667 -41.333 -121 -117.666 -121 -228.999c0 -62.667 20 -120 60 -172c60 -78.667 155.333 -135.334 286 -170.001l124 -30l-22 -144l-138 38
c-173.333 46.667 -298.666 126.667 -375.999 240c-52 72 -78 153.333 -78 244c0 124.667 39.333 222 118 292c42.667 38.667 96 67 160 85s160 27 288 27h592c-2.66699 8 -4 29.333 -4 64zM731.999 -362v182h158v-182h-158z" />
    <glyph glyph-name="uniFE9F" unicode="&#x62c;" horiz-adv-x="1650" arabic-form="initial" 
d="M744 -362v182h158v-182h-158zM1306 188v430c0 126.667 -45.333 234.667 -136 324s-199 134 -325 134s-234.333 -44.667 -325 -134s-136 -197.333 -136 -324v-94h-142v94c0 164 59 305 177 423s260 177 426 177s308 -59 426 -177s177 -259 177 -423v-430
c0 -28 4.66699 -46.667 14 -56l10 -8l36 -40v-104h-1538v144h1340c-2.66699 8 -4 29.333 -4 64z" />
    <glyph glyph-name="uniFEA0" unicode="&#x62c;" horiz-adv-x="1700" arabic-form="medial" 
d="M-30 -20v144h1340c-2.66699 8 -4 29.333 -4 64v430c0 126.667 -45.333 234.667 -136 324s-199 134 -325 134s-234.333 -44.667 -325 -134s-136 -197.333 -136 -324v-94h-142v94c0 164 59 305 177 423s260 177 426 177s308 -59 426 -177s177 -259 177 -423v-430
c0 -28 4.66699 -46.667 14 -56c6.66699 -5.33301 16 -8 28 -8h240v-144h-1760zM744 -362v182h158v-182h-158z" />
    <glyph glyph-name="uniFEA2" unicode="&#x62d;" horiz-adv-x="1688" arabic-form="final" 
d="M1294 188l-0.000976562 430c0 126.667 -45.333 234.667 -136 324s-199 134 -325 134s-234.333 -44.667 -325 -134s-136 -197.333 -136 -324v-94h-142v94c0 164 59 305 177 423s260 177 426 177s308 -59 426 -177s177 -259 177 -423v-430c0 -28 4.66699 -46.667 14 -56
c6.66699 -5.33301 16 -8 28 -8h240v-144h-1080c-107.333 0 -185 -12.333 -233 -37c-80.667 -41.333 -121 -117.666 -121 -228.999c0 -62.667 20 -120 60 -172c60 -78.667 155.333 -135.334 286 -170.001l124 -30l-22 -144l-138 38
c-173.333 46.667 -298.666 126.667 -375.999 240c-52 72 -78 153.333 -78 244c0 124.667 39.333 222 118 292c42.667 38.667 96 67 160 85s160 27 288 27h592c-2.66699 8 -4 29.333 -4 64z" />
    <glyph glyph-name="uniFEA3" unicode="&#x62d;" horiz-adv-x="1650" arabic-form="initial" 
d="M1306 188v430c0 126.667 -45.333 234.667 -136 324s-199 134 -325 134s-234.333 -44.667 -325 -134s-136 -197.333 -136 -324v-94h-142v94c0 164 59 305 177 423s260 177 426 177s308 -59 426 -177s177 -259 177 -423v-430c0 -28 4.66699 -46.667 14 -56l10 -8l36 -40
v-104h-1538v144h1340c-2.66699 8 -4 29.333 -4 64z" />
    <glyph glyph-name="uniFEA4" unicode="&#x62d;" horiz-adv-x="1700" arabic-form="medial" 
d="M-30 -20v144h1340c-2.66699 8 -4 29.333 -4 64v430c0 126.667 -45.333 234.667 -136 324s-199 134 -325 134s-234.333 -44.667 -325 -134s-136 -197.333 -136 -324v-94h-142v94c0 164 59 305 177 423s260 177 426 177s308 -59 426 -177s177 -259 177 -423v-430
c0 -28 4.66699 -46.667 14 -56c6.66699 -5.33301 16 -8 28 -8h240v-144h-1760z" />
    <glyph glyph-name="uniFEA6" unicode="&#x62e;" horiz-adv-x="1688" arabic-form="final" 
d="M748 1346v182h160v-182h-160zM1294 188l-0.000976562 430c0 126.667 -45.333 234.667 -136 324s-199 134 -325 134s-234.333 -44.667 -325 -134s-136 -197.333 -136 -324v-94h-142v94c0 164 59 305 177 423s260 177 426 177s308 -59 426 -177s177 -259 177 -423v-430
c0 -28 4.66699 -46.667 14 -56c6.66699 -5.33301 16 -8 28 -8h240v-144h-1080c-107.333 0 -185 -12.333 -233 -37c-80.667 -41.333 -121 -117.666 -121 -228.999c0 -62.667 20 -120 60 -172c60 -78.667 155.333 -135.334 286 -170.001l124 -30l-22 -144l-138 38
c-173.333 46.667 -298.666 126.667 -375.999 240c-52 72 -78 153.333 -78 244c0 124.667 39.333 222 118 292c42.667 38.667 96 67 160 85s160 27 288 27h592c-2.66699 8 -4 29.333 -4 64z" />
    <glyph glyph-name="uniFEA7" unicode="&#x62e;" horiz-adv-x="1650" arabic-form="initial" 
d="M760 1346v182h160v-182h-160zM1306 618c0 126.667 -45.333 234.667 -136 324s-199 134 -325 134s-234.333 -44.667 -325 -134s-136 -197.333 -136 -324v-94h-142v94c0 164 59 305 177 423s260 177 426 177s308 -59 426 -177s177 -259 177 -423v-430
c0 -28 4.66699 -46.667 14 -56l10 -8l36 -40v-104h-1538v144h1340c-2.66699 8 -4 29.333 -4 64v430z" />
    <glyph glyph-name="uniFEA8" unicode="&#x62e;" horiz-adv-x="1700" arabic-form="medial" 
d="M1306 188v430c0 126.667 -45.333 234.667 -136 324s-199 134 -325 134s-234.333 -44.667 -325 -134s-136 -197.333 -136 -324v-94h-142v94c0 164 59 305 177 423s260 177 426 177s308 -59 426 -177s177 -259 177 -423v-430c0 -28 4.66699 -46.667 14 -56
c6.66699 -5.33301 16 -8 28 -8h240v-144h-1760v144h1340c-2.66699 8 -4 29.333 -4 64zM760 1346v182h160v-182h-160z" />
    <glyph glyph-name="uniFEAA" unicode="&#x62f;" horiz-adv-x="1254" arabic-form="final" 
d="M140 -20v144h720v498c0 126.667 -45 234.667 -135 324s-205 134 -345 134v142c178.667 0 327 -59 445 -177s177 -259 177 -423v-498h282v-144h-1144z" />
    <glyph glyph-name="uniFEAC" unicode="&#x630;" horiz-adv-x="1254" arabic-form="final" 
d="M140 -20v144h720v498c0 126.667 -45 234.667 -135 324s-205 134 -345 134v142c178.667 0 327 -59 445 -177s177 -259 177 -423v-498h282v-144h-1144zM474 1338v182h160v-182h-160z" />
    <glyph glyph-name="uniFEAE" unicode="&#x631;" horiz-adv-x="610" arabic-form="final" 
d="M238 -90l0.000976562 1276h142v-1062h260v-144h-260v-70c0 -104 -42.667 -192 -128 -264c-72 -58.667 -162.667 -92.667 -272 -102v142c73.333 9.33301 134.666 34 183.999 74s74 90 74 150z" />
    <glyph glyph-name="uniFEB0" unicode="&#x632;" horiz-adv-x="610" arabic-form="final" 
d="M234 1328v182h160v-182h-160zM238 -90l0.000976562 1276h142v-1062h260v-144h-260v-70c0 -104 -42.667 -192 -128 -264c-72 -58.667 -162.667 -92.667 -272 -102v142c73.333 9.33301 134.666 34 183.999 74s74 90 74 150z" />
    <glyph glyph-name="uniFEB2" unicode="&#x633;" horiz-adv-x="2678" arabic-form="final" 
d="M1202 1182l144.002 -0.000976562v-1058h398v1058h142v-1058h400v1062h142v-1062h280v-144h-1362v-350h-394c-105.333 1.33301 -205.333 18.666 -300 51.999c-98.667 30.667 -186.334 76.334 -263.001 137.001s-137.334 132 -182.001 214s-67 169.667 -67 263v358h142
v-358c0 -141.333 66.333 -263.666 199 -366.999s293.667 -155 483 -155h238v1408z" />
    <glyph glyph-name="uniFEB3" unicode="&#x633;" horiz-adv-x="1616" arabic-form="initial" 
d="M250 124v1058h144v-1058h398v1058h142v-1058h400v1058h142v-1202h-1506v144h280z" />
    <glyph glyph-name="uniFEB4" unicode="&#x633;" horiz-adv-x="1726" arabic-form="medial" 
d="M-30 -20v144h280v1058h144v-1058h398v1058h142v-1058h400v1062h142v-1062h280v-144h-1786z" />
    <glyph glyph-name="uniFEB6" unicode="&#x634;" horiz-adv-x="2678" arabic-form="final" 
d="M1566 1298v182h158v-182h-158zM1906 1298v182h158v-182h-158zM1202 1182l144.002 -0.000976562v-1058h398v1058h142v-1058h400v1062h142v-1062h280v-144h-1362v-350h-394c-105.333 1.33301 -205.333 18.666 -300 51.999c-98.667 30.667 -186.334 76.334 -263.001 137.001
s-137.334 132 -182.001 214s-67 169.667 -67 263v358h142v-358c0 -141.333 66.333 -263.666 199 -366.999s293.667 -155 483 -155h238v1408zM1734 1616v182h160v-182h-160z" />
    <glyph glyph-name="uniFEB7" unicode="&#x634;" horiz-adv-x="1616" arabic-form="initial" 
d="M614 1338v182h158v-182h-158zM954 1338v182h158v-182h-158zM782 1636v182h160v-182h-160zM250 124v1058h144v-1058h398v1058h142v-1058h400v1058h142v-1202h-1506v144h280z" />
    <glyph glyph-name="uniFEB8" unicode="&#x634;" horiz-adv-x="1726" arabic-form="medial" 
d="M954 1298v182h158v-182h-158zM614 1298v182h158v-182h-158zM-30 -20v144h280v1058h144v-1058h398v1058h142v-1058h400v1062h142v-1062h280v-144h-1786zM782 1596v182h160v-182h-160z" />
    <glyph glyph-name="uniFEBA" unicode="&#x635;" horiz-adv-x="2658" arabic-form="final" 
d="M1202 1218l142.002 -0.000976562v-208l36 32c117.333 117.333 259 176 425 176s308 -58.667 426 -176s177 -259.333 177 -426v-492h280v-144h-1342v-350h-394c-105.333 1.33301 -205.333 18.666 -300 51.999c-98.667 30.667 -186.334 76.334 -263.001 137.001
s-137.334 132 -182.001 214s-67 169.667 -67 263v358h142v-358c0 -141.333 66.333 -263.666 199 -366.999s293.667 -155 483 -155h238v1444zM1346 123.999l920 0.000976562v492c0 128 -45 236.667 -135 326s-198.333 134 -325 134c-84 0 -161.333 -20.333 -232 -61
s-126 -96.334 -166 -167.001c-37.333 -61.333 -58 -128 -62 -200v-524z" />
    <glyph glyph-name="uniFEBB" unicode="&#x635;" horiz-adv-x="1594" arabic-form="initial" 
d="M390 124l922 0.000976562v492c0 128 -45 236.667 -135 326s-198.333 134 -325 134c-84 0 -161.333 -20.333 -232 -61s-126.667 -96.334 -168 -167.001s-62 -148 -62 -232v-492zM851 1218c166 0 308 -58.667 426 -176s177 -259.333 177 -426v-636h-1484v144h236
c12 0 21.333 2.66699 28 8c9.33301 10.667 14 28.667 14 54v1032h142v-208l36 32c117.333 117.333 259 176 425 176z" />
    <glyph glyph-name="uniFEBC" unicode="&#x635;" horiz-adv-x="1704" arabic-form="medial" 
d="M-30 -20v144h236c12 0 21.333 2.66699 28 8c9.33301 10.667 14 28.667 14 54v1032h142v-208l36 32c117.333 117.333 259 176 425 176s308 -58.667 426 -176s177 -259.333 177 -426v-492h280v-144h-1764zM390 124l922 0.000976562v492c0 128 -45 236.667 -135 326
s-198.333 134 -325 134c-84 0 -161.333 -20.333 -232 -61s-126.667 -96.334 -168 -167.001s-62 -148 -62 -232v-492z" />
    <glyph glyph-name="uniFEBE" unicode="&#x636;" horiz-adv-x="2658" arabic-form="final" 
d="M1202 1218l142.002 -0.000976562v-208l36 32c117.333 117.333 259 176 425 176s308 -58.667 426 -176s177 -259.333 177 -426v-492h280v-144h-1342v-350h-394c-105.333 1.33301 -205.333 18.666 -300 51.999c-98.667 30.667 -186.334 76.334 -263.001 137.001
s-137.334 132 -182.001 214s-67 169.667 -67 263v358h142v-358c0 -141.333 66.333 -263.666 199 -366.999s293.667 -155 483 -155h238v1444zM1346 123.999l920 0.000976562v492c0 128 -45 236.667 -135 326s-198.333 134 -325 134c-84 0 -161.333 -20.333 -232 -61
s-126 -96.334 -166 -167.001c-37.333 -61.333 -58 -128 -62 -200v-524zM1734 1338v182h160v-182h-160z" />
    <glyph glyph-name="uniFEBF" unicode="&#x636;" horiz-adv-x="1594" arabic-form="initial" 
d="M780 1338v182h160v-182h-160zM390 124l922 0.000976562v492c0 128 -45 236.667 -135 326s-198.333 134 -325 134c-84 0 -161.333 -20.333 -232 -61s-126.667 -96.334 -168 -167.001s-62 -148 -62 -232v-492zM851 1218c166 0 308 -58.667 426 -176s177 -259.333 177 -426
v-636h-1484v144h236c12 0 21.333 2.66699 28 8c9.33301 10.667 14 28.667 14 54v1032h142v-208l36 32c117.333 117.333 259 176 425 176z" />
    <glyph glyph-name="uniFEC0" unicode="&#x636;" horiz-adv-x="1704" arabic-form="medial" 
d="M780 1338v182h160v-182h-160zM-30 -20v144h236c12 0 21.333 2.66699 28 8c9.33301 10.667 14 28.667 14 54v1032h142v-208l36 32c117.333 117.333 259 176 425 176s308 -58.667 426 -176s177 -259.333 177 -426v-492h280v-144h-1764zM390 124l922 0.000976562v492
c0 128 -45 236.667 -135 326s-198.333 134 -325 134c-84 0 -161.333 -20.333 -232 -61s-126.667 -96.334 -168 -167.001s-62 -148 -62 -232v-492z" />
    <glyph glyph-name="uniFEC2" unicode="&#x637;" horiz-adv-x="1744" arabic-form="final" 
d="M140 -20v144h106c12 0 21.333 2.66699 28 8c9.33301 10.667 14 28.667 14 54v1440h142v-616l36 32c117.333 117.333 259 176 425 176s308 -58.667 426 -176s177 -259.333 177 -426v-492h280v-144h-1634zM430 124l922 0.000976562v492c0 128 -45 236.667 -135 326
s-198.333 134 -325 134c-84 0 -161.333 -20.333 -232 -61s-126.667 -96.334 -168 -167.001s-62 -148 -62 -232v-492z" />
    <glyph glyph-name="uniFEC3" unicode="&#x637;" horiz-adv-x="1594" arabic-form="initial" 
d="M390 124l922 0.000976562v492c0 128 -45 236.667 -135 326s-198.333 134 -325 134c-84 0 -161.333 -20.333 -232 -61s-126.667 -96.334 -168 -167.001s-62 -148 -62 -232v-492zM851 1218c166 0 308 -58.667 426 -176s177 -259.333 177 -426v-636h-1484v144h236
c12 0 21.333 2.66699 28 8c9.33301 10.667 14 28.667 14 54v1440h142v-616l36 32c117.333 117.333 259 176 425 176z" />
    <glyph glyph-name="uniFEC4" unicode="&#x637;" horiz-adv-x="1704" arabic-form="medial" 
d="M-30 -20v144h236c12 0 21.333 2.66699 28 8c9.33301 10.667 14 28.667 14 54v1440h142v-616l36 32c117.333 117.333 259 176 425 176s308 -58.667 426 -176s177 -259.333 177 -426v-492h280v-144h-1764zM390 124l922 0.000976562v492c0 128 -45 236.667 -135 326
s-198.333 134 -325 134c-84 0 -161.333 -20.333 -232 -61s-126.667 -96.334 -168 -167.001s-62 -148 -62 -232v-492z" />
    <glyph glyph-name="uniFEC6" unicode="&#x638;" horiz-adv-x="1744" arabic-form="final" 
d="M820 1338v182h160v-182h-160zM140 -20v144h106c12 0 21.333 2.66699 28 8c9.33301 10.667 14 28.667 14 54v1440h142v-616l36 32c117.333 117.333 259 176 425 176s308 -58.667 426 -176s177 -259.333 177 -426v-492h280v-144h-1634zM430 124l922 0.000976562v492
c0 128 -45 236.667 -135 326s-198.333 134 -325 134c-84 0 -161.333 -20.333 -232 -61s-126.667 -96.334 -168 -167.001s-62 -148 -62 -232v-492z" />
    <glyph glyph-name="uniFEC7" unicode="&#x638;" horiz-adv-x="1594" arabic-form="initial" 
d="M780 1338v182h160v-182h-160zM390 124l922 0.000976562v492c0 128 -45 236.667 -135 326s-198.333 134 -325 134c-84 0 -161.333 -20.333 -232 -61s-126.667 -96.334 -168 -167.001s-62 -148 -62 -232v-492zM851 1218c166 0 308 -58.667 426 -176s177 -259.333 177 -426
v-636h-1484v144h236c12 0 21.333 2.66699 28 8c9.33301 10.667 14 28.667 14 54v1440h142v-616l36 32c117.333 117.333 259 176 425 176z" />
    <glyph glyph-name="uniFEC8" unicode="&#x638;" horiz-adv-x="1704" arabic-form="medial" 
d="M780 1338v182h160v-182h-160zM-30 -20v144h236c12 0 21.333 2.66699 28 8c9.33301 10.667 14 28.667 14 54v1440h142v-616l36 32c117.333 117.333 259 176 425 176s308 -58.667 426 -176s177 -259.333 177 -426v-492h280v-144h-1764zM390 124l922 0.000976562v492
c0 128 -45 236.667 -135 326s-198.333 134 -325 134c-84 0 -161.333 -20.333 -232 -61s-126.667 -96.334 -168 -167.001s-62 -148 -62 -232v-492z" />
    <glyph glyph-name="uniFECA" unicode="&#x639;" horiz-adv-x="1536" arabic-form="final" 
d="M638 -20c-107.333 0 -185.001 -12.333 -233.001 -37c-80.667 -41.333 -121 -117.666 -121 -228.999c0 -62.667 20 -120 60 -172c60 -78.667 155.333 -135.334 286 -170.001l124 -30l-22 -144l-138 38c-173.333 46.667 -298.666 126.667 -375.999 240
c-52 72 -78 153.333 -78 244c0 124.667 39.333 222 118 292c42.667 38.667 89 65 139 79s101 23 153 27h-46l-40 40c-118.667 117.333 -178 259 -178 425s59 308 177 426s255.667 177 413 177s294 -50.667 410 -152l-20 -180c-28 28 -46 46.667 -54 56
c-90.667 89.333 -199 134 -325 134s-234 -45.333 -324 -136s-135 -199 -135 -325s42.667 -232 128 -318s183.333 -133 294 -141h716v-144h-928z" />
    <glyph glyph-name="uniFECB" unicode="&#x639;" horiz-adv-x="1466" arabic-form="initial" 
d="M847 1044c-126 0 -233.999 -45.333 -323.999 -136s-135 -199 -135 -325s42.667 -232 128 -318s183.333 -133 294 -141h516v-144h-1356v144h486c5.33301 -4 -5.33398 7.33301 -32.001 34c-118.667 117.333 -178 259 -178 425s59 308 177 426s255.667 177 413 177
s294 -50.667 410 -152l-20 -180c-28 28 -46 46.667 -54 56c-90.667 89.333 -199 134 -325 134z" />
    <glyph glyph-name="uniFECC" unicode="&#x639;" horiz-adv-x="1494" arabic-form="medial" 
d="M-30 -20l0.000976562 144h486c5.33301 -4 -5.33398 7.33301 -32.001 34c-118.667 117.333 -178 259 -178 425s59 308 177 426s255.667 177 413 177s294 -50.667 410 -152l-20 -180c-28 28 -46 46.667 -54 56c-90.667 89.333 -199 134 -325 134s-234 -45.333 -324 -136
s-135 -199 -135 -325s42.667 -232 128 -318s183.333 -133 294 -141h714v-144h-1554z" />
    <glyph glyph-name="uniFECE" unicode="&#x63a;" horiz-adv-x="1536" arabic-form="final" 
d="M638 -20c-107.333 0 -185.001 -12.333 -233.001 -37c-80.667 -41.333 -121 -117.666 -121 -228.999c0 -62.667 20 -120 60 -172c60 -78.667 155.333 -135.334 286 -170.001l124 -30l-22 -144l-138 38c-173.333 46.667 -298.666 126.667 -375.999 240
c-52 72 -78 153.333 -78 244c0 124.667 39.333 222 118 292c42.667 38.667 89 65 139 79s101 23 153 27h-46l-40 40c-118.667 117.333 -178 259 -178 425s59 308 177 426s255.667 177 413 177s294 -50.667 410 -152l-20 -180c-28 28 -46 46.667 -54 56
c-90.667 89.333 -199 134 -325 134s-234 -45.333 -324 -136s-135 -199 -135 -325s42.667 -232 128 -318s183.333 -133 294 -141h716v-144h-928zM801.999 1338v182h160v-182h-160z" />
    <glyph glyph-name="uniFECF" unicode="&#x63a;" horiz-adv-x="1466" arabic-form="initial" 
d="M762 1338v182h160v-182h-160zM847 1044c-126 0 -233.999 -45.333 -323.999 -136s-135 -199 -135 -325s42.667 -232 128 -318s183.333 -133 294 -141h516v-144h-1356v144h486c5.33301 -4 -5.33398 7.33301 -32.001 34c-118.667 117.333 -178 259 -178 425s59 308 177 426
s255.667 177 413 177s294 -50.667 410 -152l-20 -180c-28 28 -46 46.667 -54 56c-90.667 89.333 -199 134 -325 134z" />
    <glyph glyph-name="uniFED0" unicode="&#x63a;" horiz-adv-x="1494" arabic-form="medial" 
d="M762 1338v182h160v-182h-160zM1524 124l0.000976562 -144h-1554v144h486c5.33301 -4 -5.33398 7.33301 -32.001 34c-118.667 117.333 -178 259 -178 425s59 308 177 426s255.667 177 413 177s294 -50.667 410 -152l-20 -180c-28 28 -46 46.667 -54 56
c-90.667 89.333 -199 134 -325 134s-234 -45.333 -324 -136s-135 -199 -135 -325s42.667 -232 128 -318s183.333 -133 294 -141h714z" />
    <glyph glyph-name="uniFED2" unicode="&#x641;" horiz-adv-x="2364" arabic-form="final" 
d="M1222 583c0 166 58.6699 307.999 176.003 425.999s259.333 177 426 177h290v-1062h280v-144h-1442c-105.333 1.33301 -205.333 18.666 -300 51.999c-98.667 30.667 -186.334 76.334 -263.001 137.001s-137.334 132 -182.001 214s-67 169.667 -67 263v358h142v-358
c0 -141.333 66.333 -263.666 199 -366.999s293.667 -155 483 -155h466c5.33301 -4 -5.33398 7.33301 -32.001 34c-117.333 117.333 -176 259 -176 425zM1684 1336v184h160v-184h-160zM1972 1040l-148.001 -0.000976562c-126.667 0 -235 -45 -325 -135
s-135 -198.667 -135 -326s45.333 -235.666 136 -324.999c74.667 -74.667 161.334 -118 260.001 -130h212v916z" />
    <glyph glyph-name="uniFED3" unicode="&#x641;" horiz-adv-x="1262" arabic-form="initial" 
d="M692 1336v184h158v-184h-158zM230 583c0 166 58.6689 308 176.002 426s258.666 177 423.999 177h292v-1206h-1152v144h468c5.33301 -4 -5.33398 7.33301 -32.001 34c-117.333 117.333 -176 259 -176 425zM978.002 124v915.999h-148c-126.667 0 -234.667 -45 -324 -135
s-134 -198.667 -134 -326s44.667 -235.666 134 -324.999c74.667 -74.667 162 -118 262 -130h210z" />
    <glyph glyph-name="uniFED4" unicode="&#x641;" horiz-adv-x="1370" arabic-form="medial" 
d="M-30 -20l0.00195312 144h468c5.33301 -4 -5.33398 7.33301 -32.001 34c-117.333 117.333 -176 259 -176 425s58.667 308 176 426s258.666 177 423.999 177h292v-1062h278v-144h-1430zM978.002 1040l-148 -0.000976562c-126.667 0 -234.667 -45 -324 -135
s-134 -198.667 -134 -326s44.667 -235.666 134 -324.999c74.667 -74.667 162 -118 262 -130h210v916zM692.002 1336v184h158v-184h-158z" />
    <glyph glyph-name="uniFED6" unicode="&#x642;" horiz-adv-x="1774" arabic-form="final" 
d="M984 1336v184h160v-184h-160zM1324 1336v184h160v-184h-160zM1402 -20l-147.998 -0.000976562c-165.333 0 -306.666 59 -423.999 177s-176 260 -176 426s58.667 308 176 426s258.666 177 423.999 177h292v-1062h258v-144h-258v-350h-594
c-105.333 1.33301 -205.333 18.666 -300 51.999c-98.667 30.667 -186.334 76.334 -263.001 137.001s-137.334 132 -182.001 214s-67 169.667 -67 263v358h142v-358c0 -141.333 66.333 -263.666 199 -366.999s293.667 -155 483 -155h438v206zM1402 1040h-148
c-126.667 0 -234.667 -45 -324 -135s-134 -198.667 -134 -326s44 -235 132 -323s193.333 -132 316 -132h158v916z" />
    <glyph glyph-name="uniFED7" unicode="&#x642;" horiz-adv-x="1262" arabic-form="initial" 
d="M542 1336v184h158v-184h-158zM882 1336v184h158v-184h-158zM230 583c0 166 58.6689 308 176.002 426s258.666 177 423.999 177h292v-1206h-1152v144h468c5.33301 -4 -5.33398 7.33301 -32.001 34c-117.333 117.333 -176 259 -176 425zM978.002 124v915.999h-148
c-126.667 0 -234.667 -45 -324 -135s-134 -198.667 -134 -326s44.667 -235.666 134 -324.999c74.667 -74.667 162 -118 262 -130h210z" />
    <glyph glyph-name="uniFED8" unicode="&#x642;" horiz-adv-x="1370" arabic-form="medial" 
d="M542 1336v184h158v-184h-158zM-30 -20l0.00195312 144h468c5.33301 -4 -5.33398 7.33301 -32.001 34c-117.333 117.333 -176 259 -176 425s58.667 308 176 426s258.666 177 423.999 177h292v-1062h278v-144h-1430zM978.002 1040l-148 -0.000976562
c-126.667 0 -234.667 -45 -324 -135s-134 -198.667 -134 -326s44.667 -235.666 134 -324.999c74.667 -74.667 162 -118 262 -130h210v916zM882.002 1336v184h158v-184h-158z" />
    <glyph glyph-name="uniFEDA" unicode="&#x643;" horiz-adv-x="1818" arabic-form="final" 
d="M752 1136c0 42.667 17.001 81 51.001 115s73.333 51 118 51s91 -20.667 139 -62l-40 -110c-34.667 21.333 -55.667 35.666 -63 42.999s-18.333 11 -33 11s-27.334 -5.33301 -38.001 -16s-16 -23.667 -16 -39s5 -28 15 -38s20.333 -15.667 31 -17h154v-128h-334v128h14
c1.33301 -1.33301 2 19.334 2 62.001zM1422 124l0.00195312 1502h144v-1502h282v-144h-896c-105.333 1.33301 -205.333 18.666 -300 51.999c-98.667 30.667 -186.334 76.334 -263.001 137.001s-137.334 132 -182.001 214s-67 169.667 -67 263v358h142v-358
c0 -141.333 66.333 -263.666 199 -366.999s293.667 -155 483 -155h458z" />
    <glyph glyph-name="uniFEDB" unicode="&#x643;" horiz-adv-x="1298" arabic-form="initial" 
d="M1158 372l-0.000976562 -392h-1188v144h1046v248c0 126.667 -44.667 234 -134 322s-194.666 133.333 -315.999 136h-316v168l720 656l-10 -206l-526 -476h132c161.333 -2.66699 300.333 -62 417 -178s175 -256.667 175 -422z" />
    <glyph glyph-name="uniFEDC" unicode="&#x643;" horiz-adv-x="1408" arabic-form="medial" 
d="M-30 -20l-0.000976562 144h1046v248c0 126.667 -44.667 234 -134 322s-194.666 133.333 -315.999 136h-316v168l720 656l-10 -206l-526 -476h132c161.333 -2.66699 300.333 -62 417 -178s175 -256.667 175 -422v-248h280v-144h-1468z" />
    <glyph glyph-name="uniFEDE" unicode="&#x644;" horiz-adv-x="1474" arabic-form="final" 
d="M1102 1626l144.002 -0.000976562v-1502h258v-144h-258v-350h-294c-105.333 1.33301 -205.333 18.666 -300 51.999c-98.667 30.667 -186.334 76.334 -263.001 137.001s-137.334 132 -182.001 214s-67 169.667 -67 263v358h142v-358
c0 -141.333 66.333 -263.666 199 -366.999s293.667 -155 483 -155h138v1852z" />
    <glyph glyph-name="uniFEDF" unicode="&#x644;" horiz-adv-x="534" arabic-form="initial" 
d="M250 1626h144v-1646h-424v144h280v1502z" />
    <glyph glyph-name="uniFEE0" unicode="&#x644;" horiz-adv-x="646" arabic-form="medial" 
d="M394 124h282v-144h-706v144h280v1502h144v-1502z" />
    <glyph glyph-name="uniFEE2" unicode="&#x645;" horiz-adv-x="1840" arabic-form="final" 
d="M1372 -20c-95.333 -78.667 -200.499 -118 -315.499 -118s-223.167 41.333 -324.5 124l-94 106c-77.333 109.333 -116 236.666 -116 381.999c0 74.667 7.33301 135.334 22 182.001c-30.667 -1.33301 -68.334 -16 -113.001 -44s-80.667 -67.333 -108 -118
s-41 -106 -41 -166v-692h-142v692c0 129.333 43 240.333 129 333s190.333 139 313 139h20c18.667 33.333 42.667 68 72 104c110 121.333 237.333 182 382 182c72 0 141 -16.333 207 -49s123.667 -77.667 173 -135c101.333 -118.667 152 -256 152 -412s-31.333 -278 -94 -366
h376v-144h-498zM1055 944c-106 0 -197.666 -45.666 -274.999 -136.999s-116 -202.333 -116 -333c0 -85.333 18 -164 54 -236s83.667 -129 143 -171s119.666 -63 180.999 -63c116.667 0 213.167 46.333 289.5 139s114.5 203.667 114.5 333s-38.667 239.666 -116 330.999
s-169 137 -275 137z" />
    <glyph glyph-name="uniFEE3" unicode="&#x645;" horiz-adv-x="1456" arabic-form="initial" 
d="M784 -138c-112.667 0 -218.667 39.332 -318 117.999h-496v144h374c-62.667 88 -94 210 -94 366s50.667 294 152 414c110 121.333 237.333 182 382 182c72 0 141 -16.333 207 -49s123.667 -77.667 173 -135c101.333 -118.667 152 -261.667 152 -429
s-50.667 -309.666 -152 -426.999c-49.333 -58.667 -107 -104 -173 -136s-135 -48 -207 -48zM779 3.99902c110.667 0 204.168 46.333 280.501 139s114.5 203.667 114.5 333s-38.667 239.666 -116 330.999s-169 137 -275 137s-197.667 -45.667 -275 -137
s-116 -202.333 -116 -333c0 -85.333 17.667 -163.666 53 -234.999s81.666 -128.333 138.999 -171l34 -18c52 -30.667 105.667 -46 161 -46z" />
    <glyph glyph-name="uniFEE4" unicode="&#x645;" horiz-adv-x="1568" arabic-form="medial" 
d="M786 -138c-114 0 -220.667 39.333 -320 118h-496v144h374c-62.667 88 -94 210 -94 366s50.667 294 152 414c110 121.333 237.333 182 382 182c72 0 141 -16.333 207 -49s123.667 -77.667 173 -135c101.333 -118.667 152 -256 152 -412s-31.333 -278 -94 -366h376v-144
h-498c-95.333 -78.667 -200 -118 -314 -118zM783 944c-106 0 -197.666 -45.666 -274.999 -136.999s-116 -202.333 -116 -333c0 -85.333 18 -164 54 -236s83.667 -129 143 -171s119.666 -63 180.999 -63c116.667 0 213.167 46.333 289.5 139s114.5 203.667 114.5 333
s-38.667 239.666 -116 330.999s-169 137 -275 137z" />
    <glyph glyph-name="uniFEE6" unicode="&#x646;" horiz-adv-x="1474" arabic-form="final" 
d="M622 1338v182h160v-182h-160zM1102 1186l144.002 -0.000976562v-1062h258v-144h-258v-350h-294c-105.333 1.33301 -205.333 18.666 -300 51.999c-98.667 30.667 -186.334 76.334 -263.001 137.001s-137.334 132 -182.001 214s-67 169.667 -67 263v358h142v-358
c0 -141.333 66.333 -263.666 199 -366.999s293.667 -155 483 -155h138v1412z" />
    <glyph glyph-name="uniFEE7" unicode="&#x646;" horiz-adv-x="542" arabic-form="initial" 
d="M242 1328v182h160v-182h-160zM250 1186h144v-1206h-424v144h280v1062z" />
    <glyph glyph-name="uniFEE8" unicode="&#x646;" horiz-adv-x="646" arabic-form="medial" 
d="M242 1332v184h160v-184h-160zM394 124h282v-144h-706v144h280v1062h144v-1062z" />
    <glyph glyph-name="uniFEEA" unicode="&#x647;" horiz-adv-x="1262" arabic-form="final" 
d="M742 -20c-166.667 0 -308.667 59 -426 177s-176 260 -176 426s58.667 308 176 426s259.333 177 426 177h290v-1062h260v-144h-550zM890 124v916h-148c-126.667 0 -235 -45 -325 -135s-135 -198.667 -135 -326s44.333 -235 133 -323s193.667 -132 315 -132h160z" />
    <glyph glyph-name="uniFEEB" unicode="&#x647;" horiz-adv-x="1472" arabic-form="initial" 
d="M910 422c0 90.667 -30.334 163.334 -91.001 218.001s-120.667 82 -180 82s-119.666 -27.333 -180.999 -82s-92 -127.334 -92 -218.001s30.667 -163.334 92 -218.001c50.667 -46.667 110.667 -73.334 180 -80.001c69.333 6.66699 132 35.334 188 86.001
s84 121.334 84 212.001zM-30.001 -20l0.00195312 144.001h358c25.333 -20 36 -27.333 32 -22c-90.667 81.333 -136 187.666 -136 318.999s44.667 238 134 320s182.666 123 279.999 123s190.666 -41 279.999 -123s134 -188.667 134 -320s-45.333 -238.333 -136 -321l32 24
h242v498c0 126.667 -45 234.667 -135 324s-198.333 134 -325 134s-240 -49.333 -340 -148l-100 100c126.667 126.667 273 190 439 190s308 -59 426 -177s177 -259 177 -423v-642h-1362z" />
    <glyph glyph-name="uniFEEC" unicode="&#x647;" horiz-adv-x="1584" arabic-form="medial" 
d="M-30 -20l0.00195312 144.001h358c25.333 -20 36 -27.333 32 -22c-90.667 81.333 -136 187.666 -136 318.999s44.667 238 134 320s182.666 123 279.999 123s190.666 -41 279.999 -123s134 -188.667 134 -320s-45.333 -238.333 -136 -321l32 24h242v498
c0 126.667 -45 234.667 -135 324s-198.333 134 -325 134s-240 -49.333 -340 -148l-100 100c126.667 126.667 273 190 439 190s308 -59 426 -177s177 -259 177 -423v-498h282v-144h-1644zM910.002 422.001c0 90.667 -30.334 163.334 -91.001 218.001s-120.667 82 -180 82
s-119.666 -27.333 -180.999 -82s-92 -127.334 -92 -218.001s30.667 -163.334 92 -218.001c50.667 -46.667 110.667 -73.334 180 -80.001c69.333 6.66699 132 35.334 188 86.001s84 121.334 84 212.001z" />
    <glyph glyph-name="uniFEEE" unicode="&#x648;" horiz-adv-x="1262" arabic-form="final" 
d="M1032 -20v-69.999c0 -104 -42 -191 -126 -261s-183.333 -105 -298 -105c-72 0 -139.333 14.667 -202 44s-114.667 70.666 -156 123.999l-42 56l114 86l42 -56c57.333 -74.667 138.666 -112 243.999 -112c78.667 0 145.334 22.333 200.001 67s82 97 82 157v70h-148
c-166.667 0 -308.667 59 -426 177s-176 260 -176 426s58.667 308 176 426s259.333 177 426 177h290v-1062h260v-144h-260zM890 124.001v916h-148c-126.667 0 -235 -45 -325 -135s-135 -198.667 -135 -326s44.333 -235 133 -323s193.667 -132 315 -132h160z" />
    <glyph glyph-name="uniFEF0" unicode="&#x649;" horiz-adv-x="2234" arabic-form="final" 
d="M1842 -20l0.00195312 733.999c0 60 -13.667 115.333 -41 166s-64 90.667 -110 120s-95.667 44 -149 44h-76v-1064h-514c-105.333 1.33301 -205.333 18.666 -300 51.999c-98.667 30.667 -186.334 76.334 -263.001 137.001s-137.334 132 -182.001 214s-67 169.667 -67 263
v358h142v-358c0 -141.333 66.333 -263.666 199 -366.999s293.667 -155 483 -155h358v1062h220c122.667 0 227 -46.333 313 -139s129 -203.667 129 -333v-590h280v-144h-422z" />
    <glyph glyph-name="uniFEF2" unicode="&#x64a;" horiz-adv-x="2234" arabic-form="final" 
d="M824 -362v182h158v-182h-158zM1842 -20l0.00195312 733.999c0 60 -13.667 115.333 -41 166s-64 90.667 -110 120s-95.667 44 -149 44h-76v-1064h-514c-105.333 1.33301 -205.333 18.666 -300 51.999c-98.667 30.667 -186.334 76.334 -263.001 137.001
s-137.334 132 -182.001 214s-67 169.667 -67 263v358h142v-358c0 -141.333 66.333 -263.666 199 -366.999s293.667 -155 483 -155h358v1062h220c122.667 0 227 -46.333 313 -139s129 -203.667 129 -333v-590h280v-144h-422zM1164 -362.001v182h158v-182h-158z" />
    <glyph glyph-name="uniFEF3" unicode="&#x64a;" horiz-adv-x="652" arabic-form="initial" 
d="M14 -362v182h158v-182h-158zM354 -362v182h158v-182h-158zM250 1186h142v-1206h-422v144h280v1062z" />
    <glyph glyph-name="uniFEF4" unicode="&#x64a;" horiz-adv-x="646" arabic-form="medial" 
d="M72 -362v182h160v-182h-160zM412 -362v182h160v-182h-160zM394 124h282v-144h-706v144h280v1062h144v-1062z" />
    <glyph glyph-name=".notdef" horiz-adv-x="1200" 
d="M1014 1680h-832l416 -654zM-20 1820h1240v-1840h-1240v1840zM120 1516v-1242l394 620zM1080 264v1262l-400 -632zM188 120h818l-408 644z" />
    <glyph glyph-name=".null" horiz-adv-x="1278" 
 />
    <glyph glyph-name=".null" horiz-adv-x="1278" 
 />
    <glyph glyph-name="space" unicode=" " horiz-adv-x="400" 
 />
    <glyph glyph-name="space" unicode="&#xa0;" horiz-adv-x="400" 
 />
    <glyph glyph-name="exclam" unicode="!" horiz-adv-x="510" 
d="M256 224c33.333 0 60.666 -11.667 81.999 -35s32 -52.333 32 -87s-10.667 -63.667 -32 -87s-48.666 -35 -81.999 -35s-61 11.667 -83 35s-33 52.333 -33 87s11 63.667 33 87s49.667 35 83 35zM184 622v1004h144v-1004h-144z" />
    <glyph glyph-name="quotedbl" unicode="&#x22;" horiz-adv-x="590" 
d="M308 1256v370h142v-370h-142zM140 1256v370h142v-370h-142z" />
    <glyph glyph-name="numbersign" unicode="#" horiz-adv-x="1516" 
d="M924 676l96 298h-410l-98 -298h412zM1376 1114v-140h-208l-98 -298h168v-140h-216l-184 -556h-148l184 556h-410l-182 -556h-150l186 556h-148v140h194l98 298h-154v140h202l170 512h146l-168 -512h408l170 512h148l-170 -512h162z" />
    <glyph glyph-name="dollar" unicode="$" horiz-adv-x="1246" 
d="M964 474c0 78.667 -30 138 -90 178c-41.333 26.667 -97.333 50 -168 70v-526c72 6.66699 133 35 183 85s75 114.333 75 193zM314 1156c0 -78.667 30 -138 90 -178c40 -25.333 92.667 -48 158 -68v486c-165.333 -9.33301 -248 -89.333 -248 -240zM1106 485
c0 -63.333 -9.99707 -120.329 -29.9971 -170.996c-18.667 -54.667 -48.667 -101.334 -90 -140.001c-76 -73.333 -169.333 -114 -280 -122v-72h-144v70c-85.333 4 -159.333 21.667 -222 53s-118 81 -166 149l-42 58l118 84l40 -60c29.333 -42.667 64.666 -76 105.999 -100
s96.666 -38 165.999 -42v568c-102.667 30.667 -179.334 63 -230.001 97c-106.667 71.333 -160 167.666 -160 288.999s36 215.666 108 282.999s166 103.666 282 108.999v88h144v-90c120 -14.667 220.667 -80.667 302 -198l40 -60l-116 -80l-40 56
c-56 81.333 -118 127.333 -186 138v-522c109.333 -30.667 192 -64 248 -100c101.333 -71.333 152 -166.333 152 -285z" />
    <glyph glyph-name="percent" unicode="%" horiz-adv-x="1400" 
d="M969 118c32.667 0 59.668 7.00195 81.001 21.002s38.666 33 51.999 57s20 53.667 20 89s-13.667 68.333 -41 99s-61 46 -101 46s-73.667 -15.333 -101 -46s-41 -67.334 -41 -110.001s13.667 -79.334 41 -110.001s57.333 -46 90 -46zM979.001 568.002
c76.667 0 142.667 -29 198 -87s83 -127.333 83 -208s-27.667 -149.667 -83 -207s-121.333 -86 -198 -86s-142.334 28.667 -197.001 86s-82 126.333 -82 207s27.333 150 82 208s120.334 87 197.001 87zM420.001 1468c-38.667 0 -71.667 -15.333 -99 -46s-41 -67 -41 -109
s13.667 -78.333 41 -109s60.333 -46 99 -46s72 15.333 100 46s42 67 42 109s-14 78.333 -42 109s-61.333 46 -100 46zM420.001 1020c-77.333 0 -143.333 28.667 -198 86s-82 126.333 -82 207s27.333 149.667 82 207s120.667 86 198 86s143.333 -28.667 198 -86
s82 -126 82 -206c0 -52 -12 -101 -36 -147s-58 -82 -102 -108s-91.333 -39 -142 -39zM1088 1626h160l-950 -1646h-158z" />
    <glyph glyph-name="ampersand" unicode="&#x26;" horiz-adv-x="1542" 
d="M730 1484c-69.333 0 -116.666 -12.333 -141.999 -37s-40.666 -56.334 -45.999 -95.001c-16 -98.667 14 -229.334 90 -392.001c25.333 10.667 58.666 23.334 99.999 38.001c81.333 26.667 141.666 71.334 180.999 134.001c52.667 84 61.667 163.667 27 239
s-104.667 113 -210 113zM638 120c130.667 0 234.001 36.001 310.001 108.001c-77.333 84 -150.333 177 -219 279s-122.334 189.667 -161.001 263c-68 -40 -126.667 -90.667 -176 -152c-69.333 -90.667 -97.333 -181.334 -84 -272.001c12 -68 47 -122.667 105 -164
s133 -62 225 -62zM1326 942.001c0 -302.667 -61.334 -540.004 -184.001 -712.004c98.667 -95.333 187.334 -154 266.001 -176l-42 -134c-104 30.667 -210.667 99.334 -320 206.001c-105.333 -97.333 -241.333 -146 -408 -146c-128 0 -233.667 31.667 -317 95
s-134.333 145.666 -153 246.999c-20 132 18 259.333 114 382c61.333 78.667 136 143.334 224 194.001c-9.33301 18.667 -19.333 44 -30 76c-112.667 284.667 -104 479.334 26 584.001c56 45.333 133.333 68 232 68s180 -27 244 -81s104 -121.667 120 -203
c14.667 -97.333 -6.66602 -190.666 -63.999 -279.999c-57.333 -94.667 -144 -160 -260 -196c-34.667 -13.333 -61.334 -24.666 -80.001 -33.999c36 -66.667 86 -147.667 150 -243s130 -180.333 198 -255c96 141.333 144 344 144 608h140z" />
    <glyph glyph-name="quotesingle" unicode="'" horiz-adv-x="496" 
d="M214 1622l142 -0.000976562v-68c0 -58.667 -9.33301 -114 -28 -166s-34 -86.667 -46 -104s-27.333 -35.333 -46 -54l-106 96c16 14.667 27.667 27.334 35 38.001s17.333 35 30 73s19 77 19 117v68z" />
    <glyph glyph-name="parenleft" unicode="(" horiz-adv-x="798" 
d="M658 -284c-159.333 0 -287.999 100.666 -385.999 301.999c-88 181.333 -132 399.333 -132 654s46.333 477.334 139 668.001s219 286 379 286v-140c-102.667 0 -189.334 -73.333 -260.001 -220c-78.667 -162.667 -118 -361 -118 -595s39.333 -432.333 118 -595
c73.333 -146.667 160 -220 260 -220v-140z" />
    <glyph glyph-name="parenright" unicode=")" horiz-adv-x="800" 
d="M140 -144c105.333 0 192 73.334 260 220.001c80 162.667 120 361 120 595s-40 432.333 -120 595c-65.333 146.667 -152 220 -260 220v140c162 0 290.667 -99.333 386 -298c89.333 -182.667 134 -401.334 134 -656.001s-44.667 -472.667 -134 -654
c-95.333 -201.333 -224 -302 -386 -302v140z" />
    <glyph glyph-name="asterisk" unicode="*" horiz-adv-x="1142" 
d="M1002 1246v-140h-292l232 -304l-112 -84l-258 342l-260 -342l-110 84l230 304h-292v140h292l-230 304l110 84l260 -342l258 342l112 -84l-232 -304h292z" />
    <glyph glyph-name="plus" unicode="+" horiz-adv-x="1326" 
d="M1186 678v-142h-452v-554h-142v554h-452v142h452v552h142v-552h452z" />
    <glyph glyph-name="comma" unicode="," horiz-adv-x="512" 
d="M230 -40l0.000976562 193.999h142v-194c0 -89.333 -27.333 -162.666 -82 -219.999c-26.667 -29.333 -62 -51.333 -106 -66l-4 12v140l-20 -9c27.333 13.333 47.666 41 60.999 83c6 18.667 9 38.667 9 60z" />
    <glyph glyph-name="hyphen" unicode="-" horiz-adv-x="882" 
d="M140 536v142h602v-142h-602z" />
    <glyph glyph-name="hyphen" unicode="&#xad;" horiz-adv-x="882" 
d="M140 536v142h602v-142h-602z" />
    <glyph glyph-name="period" unicode="." horiz-adv-x="510" 
d="M254 226c33.333 0 61 -11.667 83 -35s33 -52.333 33 -87s-11 -63.667 -33 -87s-49.667 -35 -83 -35s-60.666 11.667 -81.999 35s-32 52.333 -32 87s10.667 63.667 32 87s48.666 35 81.999 35z" />
    <glyph glyph-name="slash" unicode="/" horiz-adv-x="960" 
d="M282 -20h-150l546 1646h150z" />
    <glyph glyph-name="zero" unicode="0" horiz-adv-x="1312" 
d="M656 1484c-94.667 0 -170.998 -31 -228.998 -93s-96.667 -138.333 -116 -229s-29 -210.334 -29 -359.001s9.33301 -269.667 28 -363c41.333 -158 119.666 -257.667 234.999 -299c35.333 -12.667 73 -19 113 -19c93.333 0 169.333 31.333 228 94s97.667 139 117 229
s29 209.333 29 358s-9.66699 268.334 -29 359.001s-58.333 167 -117 229s-135.334 93 -230.001 93zM657.002 -20c-128.667 0 -235 41.665 -319 124.998s-138 181 -162 293s-36 247 -36 405s12 293 36 405s78 209.667 162 293s190.333 125 319 125s235 -41.667 319 -125
s139.333 -185.666 166 -306.999c20 -102.667 30 -233 30 -391s-10 -288.333 -30 -391c-26.667 -121.333 -82 -223.666 -166 -306.999s-190.333 -125 -319 -125z" />
    <glyph glyph-name="one" unicode="1" horiz-adv-x="780" 
d="M640 -20h-141.999v1374c5.33301 6.66699 0 1.33398 -16 -15.999c-42.667 -46.667 -85.334 -84 -128.001 -112c-53.333 -40 -100 -60 -140 -60h-74v142h74c9.33301 0 29 10.667 59 32s64.333 52.333 103 93c81.333 85.333 122 149.666 122 192.999h142v-1646z" />
    <glyph glyph-name="two" unicode="2" horiz-adv-x="1174" 
d="M1024 -20h-883.998v72c0 193.333 50.667 357.333 152 492c60 76 125.333 140.667 196 194l109 78c46 32 79 56.333 99 73c76.667 64 124.334 110.667 143.001 140c34 53.333 51 113.666 51 180.999c-2.66699 49.333 -16 96.666 -40 141.999c-49.333 88 -134 132 -254 132
c-93.333 0 -174 -26 -242 -78c-34.667 -26.667 -63.334 -58 -86.001 -94l-122 72c29.333 50.667 68.666 94.667 117.999 132c96 73.333 206.667 110 332 110c177.333 0 304 -69.333 380 -208c37.333 -66.667 56.666 -134.667 57.999 -204v-2
c0 -117.333 -38.667 -220.666 -116 -309.999c-42.667 -50.667 -120.667 -116.667 -234 -198l-75 -54c-62.667 -45.333 -105 -79.666 -127 -102.999l-65 -74c-33.333 -40 -63 -90.667 -89 -152c-26 -62 -40.667 -128.333 -44 -199h740v-142z" />
    <glyph glyph-name="three" unicode="3" horiz-adv-x="1268" 
d="M649 -8c-138 0 -259.001 39.998 -363.001 119.998c-53.333 40 -94.666 86.667 -123.999 140l120 76c25.333 -41.333 56.666 -76 93.999 -104c76 -58.667 165.667 -88 269 -88s186 32.667 248 98s93 140.333 93 225s-32.667 155 -98 211c-84 70.667 -220.667 106 -410 106
l2 142c156 0 271.333 31.333 346 94c58.667 49.333 88 112 88 188c0 48 -12 94 -36 138s-59.333 80.333 -106 109s-95.667 43 -147 43s-96 -5.66699 -134 -17s-68 -24 -90 -38s-42.333 -30 -61 -48s-30.667 -30.667 -36 -38s-9.33301 -12.333 -12 -15l-38 -64l-122 76l38 60
c22.667 40 58.667 78.667 108 116c94.667 73.333 206.334 110 335.001 110s235 -43.667 319 -131s126 -189.666 126 -306.999s-47.333 -214.666 -142 -291.999c-28 -24 -47.333 -38.667 -58 -44c33.333 -12 73.333 -38 120 -78c100 -84 150 -189 150 -315
s-43.333 -235 -130 -327c-94.667 -97.333 -211 -146 -349 -146z" />
    <glyph glyph-name="four" unicode="4" horiz-adv-x="1324" 
d="M856 710v670l-524 -670h524zM1184 710v-142h-186v-588h-142v588h-716v128l728 930h130v-916h186z" />
    <glyph glyph-name="five" unicode="5" horiz-adv-x="1254" 
d="M1114 506c0 -144 -48.333 -267.667 -145 -371s-213.667 -155 -351 -155c-98.667 0 -189.667 28.333 -273 85s-143.666 133 -180.999 229l-32 64l134 56l28 -66c28 -68 71.333 -122.667 130 -164s121.667 -62 189 -62s128 17.333 182 52s97 81.334 129 140.001
s48 122 48 190c0 105.333 -34.333 195.666 -103 270.999s-152.334 113 -251.001 113s-182.667 -38.667 -252 -116l-42 -42l-130 4l34 892h792v-142h-652l-24 -538c12 9.33301 43.667 25.333 95 48s111 34 179 34c137.333 0 254.333 -51 351 -153s145 -225 145 -369z" />
    <glyph glyph-name="six" unicode="6" horiz-adv-x="1266" 
d="M636 118c96 0 177.998 37.666 245.998 112.999s102 166.333 102 273c0 69.333 -15.667 133.666 -47 192.999s-73.666 106 -126.999 140s-111.666 51 -174.999 51s-121.333 -17 -174 -51s-95 -80.667 -127 -140s-48 -123.666 -48 -192.999s16 -133.666 48 -192.999
s74.333 -106.333 127 -141s111 -52 175 -52zM655.998 1622c78.667 0 152.335 -19 221.002 -57s125.667 -89.667 171 -155l42 -58l-118 -84l-40 60c-33.333 48 -74.333 85.333 -123 112s-99.667 40 -153 40c-114.667 0 -199.334 -28.667 -254.001 -86
s-89 -129.666 -103 -216.999s-21 -184.333 -21 -291v-18c-10.667 -14.667 -7.33398 -12.667 9.99902 6c96 104 212 156 348 156s251.667 -51.667 347 -155s143 -227 143 -371s-48 -267.333 -144 -370c-94.667 -105.333 -210 -158 -346 -158s-252 52.667 -348 158
c-50.667 54.667 -87.667 121 -111 199s-35 191 -35 339l-2 226c0 109.333 6 200.666 18 273.999s24 123.333 36 150c33.333 74 67.333 129.333 102 166c85.333 89.333 205.333 134 360 134z" />
    <glyph glyph-name="seven" unicode="7" horiz-adv-x="1338" 
d="M452 -20l-142 0.000976562c0 149.333 42 323.333 126 522c64 157.333 149.667 324.666 257 501.999s213 337.333 317 480h-870v142h1058l-2 -124c-122.667 -162.667 -246 -348 -370 -556c-249.333 -414.667 -374 -736.667 -374 -966z" />
    <glyph glyph-name="eight" unicode="8" horiz-adv-x="1268" 
d="M632 122c97.333 0 180.333 32.333 249 97s103 142.334 103 233.001s-34.333 168.334 -103 233.001s-151.667 97 -249 97s-180 -32.333 -248 -97s-102 -142.334 -102 -233.001s34 -168.334 102 -233.001s150.667 -97 248 -97zM322 1204c0 -77.333 30.667 -143.333 92 -198
s135 -82 221 -82s159.333 27.333 220 82s91 120.667 91 198s-30.333 143.333 -91 198s-134 82 -220 82s-159.667 -27.333 -221 -82s-92 -120.667 -92 -198zM1128 452c0 -130.667 -48.6689 -242 -146.002 -334s-213.666 -138 -348.999 -138s-251.666 46 -348.999 138
c-96 92 -144 203.333 -144 334s48 242 144 334c37.333 34.667 68 58 92 70c-12 6.66699 -32 22.667 -60 48c-90.667 81.333 -136 181 -136 299s44.667 218 134 300s196 123 320 123s230.667 -41 320 -123s134 -182 134 -300s-44.667 -218.333 -134 -301
c-29.333 -24 -50 -39.333 -62 -46c22.667 -12 52 -35.333 88 -70c98.667 -92 148 -203.333 148 -334z" />
    <glyph glyph-name="nine" unicode="9" horiz-adv-x="1266" 
d="M630 1480c-62.667 0 -120.668 -17.001 -174.001 -51.001s-95.666 -80.667 -126.999 -140s-47 -124.333 -47 -195c0 -105.333 33.667 -195.666 101 -270.999s149.333 -113 246 -113s178.667 37.667 246 113s101 166 101 272s-33.667 196.667 -101 272s-149 113 -245 113z
M609.999 -24.001c-80 0 -154.334 19.002 -223.001 57.002s-125.667 90.333 -171 157l-40 60l118 80l38 -60c34.667 -48 76.334 -85.333 125.001 -112s99.667 -40 153 -40c114.667 0 199.334 29 254.001 87s89 130.667 103 218s21 183.666 21 288.999v20
c9.33301 13.333 6 10.666 -10 -8.00098c-97.333 -104 -213.666 -156 -348.999 -156s-251 52 -347 156c-94.667 104 -142 228 -142 372s47.667 267.667 143 371s210.666 155 345.999 155s251.666 -52 348.999 -156c50.667 -56 87.667 -122.333 111 -199
s35 -190.334 35 -341.001l2 -224c0 -93.333 -3 -161 -9 -203c-16.667 -115.333 -35.667 -198.666 -57 -249.999c-22 -51.333 -52 -97 -90 -137c-86.667 -90.667 -206.667 -136 -360 -136z" />
    <glyph glyph-name="colon" unicode=":" horiz-adv-x="510" 
d="M254 786c-33.333 0 -60.666 11 -81.999 33s-32 50.333 -32 85s10.667 63.667 32 87s48.666 35 81.999 35s61 -11.667 83 -35s33 -52.333 33 -87s-11 -63 -33 -85s-49.667 -33 -83 -33zM254 226c33.333 0 61 -11.667 83 -35s33 -52.333 33 -87s-11 -63.667 -33 -87
s-49.667 -35 -83 -35s-60.666 11.667 -81.999 35s-32 52.333 -32 87s10.667 63.667 32 87s48.666 35 81.999 35z" />
    <glyph glyph-name="semicolon" unicode=";" horiz-adv-x="556" 
d="M230 -40l0.000976562 193.999h142v-194c0 -89.333 -27.333 -162.666 -82 -219.999c-26.667 -29.333 -62 -51.333 -106 -66l-4 12v140l-20 -9c27.333 13.333 47.666 41 60.999 83c6 18.667 9 38.667 9 60zM302.001 1026c33.333 0 60.667 -11.667 82 -35s32 -52.333 32 -87
s-10.667 -63 -32 -85s-49 -33 -83 -33s-61.667 11 -83 33s-32 50.333 -32 85s11 63.667 33 87s49.667 35 83 35z" />
    <glyph glyph-name="semicolon" unicode="&#x37e;" horiz-adv-x="556" 
d="M230 -40l0.000976562 193.999h142v-194c0 -89.333 -27.333 -162.666 -82 -219.999c-26.667 -29.333 -62 -51.333 -106 -66l-4 12v140l-20 -9c27.333 13.333 47.666 41 60.999 83c6 18.667 9 38.667 9 60zM302.001 1026c33.333 0 60.667 -11.667 82 -35s32 -52.333 32 -87
s-10.667 -63 -32 -85s-49 -33 -83 -33s-61.667 11 -83 33s-32 50.333 -32 85s11 63.667 33 87s49.667 35 83 35z" />
    <glyph glyph-name="less" unicode="&#x3c;" horiz-adv-x="1366" 
d="M1160 -28l-1020 612v86l1020 612l74 -120l-892 -534l892 -536z" />
    <glyph glyph-name="equal" unicode="=" horiz-adv-x="1328" 
d="M140 308v142h1048v-142h-1048zM140 780v142h1048v-142h-1048z" />
    <glyph glyph-name="greater" unicode="&#x3e;" horiz-adv-x="1364" 
d="M202 -28l-70 120l890 536l-890 532l70 122l1022 -612v-86z" />
    <glyph glyph-name="question" unicode="?" horiz-adv-x="1178" 
d="M560 1626c160 0 279.67 -37.334 359.003 -112.001s119 -176.667 119 -306s-32 -232.666 -96 -309.999c-38.667 -48 -102.667 -94 -192 -138c-34.667 -17.333 -59.334 -31 -74.001 -41c-34.667 -23.333 -52 -57 -52 -101v-68h-138v68c0 82 21.667 141.333 65 178
c43.333 36 89.666 65.333 138.999 88c90.667 49.333 146.667 94 168 134c28 52.667 42 120.667 42 204c0 176 -113.333 264 -340 264c-52 0 -102 -13.333 -150 -40s-89.333 -64.667 -124 -114l-38 -60l-116 80l40 60c46.667 68 103.667 120.667 171 158
s139.666 56 216.999 56zM569.003 217.999c32.667 0 59.666 -11.333 80.999 -34s32 -51 32 -85s-10.667 -62.333 -32 -85s-48.666 -34 -81.999 -34s-60.333 11.333 -81 34s-31 51 -31 85s10.667 62.333 32 85s48.333 34 81 34z" />
    <glyph glyph-name="at" unicode="@" horiz-adv-x="2084" 
d="M1019 160c104.667 0 194.334 44.333 269.001 133s112 195.667 112 321s-37.333 232.333 -112 321s-164.334 133 -269.001 133s-194.667 -44.333 -270 -133s-113 -195.667 -113 -321s37.667 -232.333 113 -321s165.333 -133 270 -133zM1548 -22
c-72 0 -127.333 23.999 -166 71.999c-28 34.667 -42.667 64 -44 88c-21.333 -21.333 -62 -46.666 -122 -75.999s-126 -44 -198 -44c-143.333 0 -268.666 59.333 -375.999 178c-98.667 116 -148 255.333 -148 418s49.333 302 148 418c104.667 118.667 230 178 376 178
s271.333 -59.333 376 -178c45.333 -52 72 -89.333 80 -112l58 286l96 -19c-75.333 108.667 -166 189.334 -272 242.001c-105.333 52.667 -210 79 -314 79c-137.333 0 -264.333 -39.667 -381 -119s-209 -187.333 -277 -324s-102 -286 -102 -448s34 -311.333 102 -448
s160.333 -244.667 277 -324s243.667 -119 381 -119c92 0 180 17.333 264 52c52 24 101.333 53.333 148 88l56 44l86 -114l-56 -42c-56 -42.667 -114.667 -78 -176 -106c-104 -42.667 -214.333 -64 -331 -64s-230.334 26.667 -341.001 80s-208 128 -292 224
c-82.667 97.333 -146.667 208.333 -192 333s-68 256.667 -68 396s22.667 271.333 68 396s109.333 235.667 192 333c84 96 181.333 170.667 292 224s227.667 80 351 80s240.333 -26.667 351 -80s207.667 -128.333 291 -225s147.333 -207.334 192 -332.001s67 -252 67 -382
s-28 -259 -84 -387c-32 -76 -74 -139.333 -126 -190s-114 -76 -186 -76zM1554 119.999c30.667 0 61.668 15.668 93.001 47.001s58.666 74.333 81.999 129s41.333 112 54 172s19 109.333 19 148c0 189.333 -46.333 361.666 -139 516.999l-183 -903
c-14.667 -73.333 10 -110 74 -110z" />
    <glyph glyph-name="A" unicode="A" horiz-adv-x="1536" 
d="M602 712h304c50.667 0 80 3.33301 88 10l-226 654l-234 -668c8 2.66699 30.667 4 68 4zM906 572h-304c-40 0 -68.333 -6 -85 -18s-28.667 -22.333 -36 -31s-12 -15 -14 -19s-3.66699 -6.66699 -5 -8l-180 -516h-150l574 1646h124l574 -1646h-150l-212 610
c-26.667 -12 -72 -18 -136 -18z" />
    <glyph glyph-name="B" unicode="B" horiz-adv-x="1432" 
d="M824 122c88 0 164.332 32 228.999 96s97 141 97 231s-32.333 167 -97 231s-141 96 -229 96l-478 2c-33.333 0 -54.666 2 -63.999 6v-662h542zM823.999 1484h-541.999v-526c3.33301 -25.333 24.666 -38 63.999 -38h478c77.333 0 143.333 27.333 198 82s82 121 82 199
s-27.333 144.667 -82 200s-120.667 83 -198 83zM1292 450c0 -129.333 -45.332 -240.001 -135.999 -332.001c-60.667 -58 -131.334 -98.333 -212.001 -121c-40 -11.333 -80 -17 -120 -17h-684v1646h684c116 0 215.667 -41.667 299 -125s125 -183.666 125 -300.999
c0 -77.333 -19.667 -148.333 -59 -213s-80.333 -109.667 -123 -135c22.667 -12 52.667 -36 90 -72c90.667 -90.667 136 -200.667 136 -330z" />
    <glyph glyph-name="C" unicode="C" horiz-adv-x="1520" 
d="M825 -20c-196 0 -361 82.667 -495 248c-126.667 160 -190 352.333 -190 577s63.333 415.667 190 573c132 165.333 297 248 495 248c100.667 0 197.667 -29.667 291 -89s170.666 -139 231.999 -239l40 -60l-122 -76l-38 62c-109.333 173.333 -251.333 260 -426 260
c-88 0 -172.667 -30.333 -254 -91s-146 -143 -194 -247s-72 -218.333 -72 -343s24 -239 72 -343s112.667 -186.333 194 -247s166 -91 254 -91c176 0 318 87.333 426 262l38 60l122 -76l-40 -60c-61.333 -100 -138.666 -179.667 -231.999 -239s-190.333 -89 -291 -89z" />
    <glyph glyph-name="D" unicode="D" horiz-adv-x="1438" 
d="M1156 808c0 90.667 -14 178 -42 262s-65.667 156.333 -113 217s-103.333 108.667 -168 144s-131 53 -199 53h-352v-1360l352 -2c140 0 260.667 65.333 362 196c106.667 134.667 160 298 160 490zM634 -20l-1.99902 0.000976562l-492 2v1644h494
c92 0 178.667 -21.667 260 -65s153.333 -103.666 216 -180.999c125.333 -158.667 188 -350.334 188 -575.001s-62.667 -416.334 -188 -575.001c-61.333 -77.333 -131.333 -138 -210 -182c-86.667 -45.333 -175.334 -68 -266.001 -68z" />
    <glyph glyph-name="E" unicode="E" horiz-adv-x="1276" 
d="M346 776c-42.667 0 -63.999 -14.667 -63.999 -44v-610h854v-142h-996v1646h996v-142h-854v-572c9.33301 4 30.666 6 63.999 6h790v-142h-790z" />
    <glyph glyph-name="F" unicode="F" horiz-adv-x="1328" 
d="M1030 918l-0.000976562 -142h-684c-25.333 0 -42.666 -5 -51.999 -15s-13.333 -21 -12 -33v-748h-142v1646h1048v-142h-906v-572c5.33301 2.66699 22 4.66699 50 6h698z" />
    <glyph glyph-name="G" unicode="G" horiz-adv-x="1608" 
d="M1248 1182c-111.333 201.333 -260.005 302.001 -446.005 302.001c-89.333 0 -174.333 -30 -255 -90s-145 -142.333 -193 -247s-72 -219.334 -72 -344.001s24 -239 72 -343s112.333 -186.333 193 -247s168.334 -91 263.001 -91c54.667 0 111.334 16.333 170.001 49
s112 75.667 160 129s89 119.333 123 198s53.667 154 59 226h-612v142h686c18.667 0 35.334 -6.33301 50.001 -19s22 -29.667 22 -51c0 -106.667 -19.333 -210.667 -58 -312c-33.333 -96 -81.333 -181.333 -144 -256c-134.667 -165.333 -289 -248 -463 -248
c-87.333 0 -172.666 22 -255.999 66s-155.666 104.667 -216.999 182c-126.667 160 -190 352.333 -190 577s63.333 415.667 190 573c128.667 165.333 294 248 496 248c102.667 0 204 -33.333 304 -100c96 -61.333 177.333 -152 244 -272z" />
    <glyph glyph-name="H" unicode="H" horiz-adv-x="1360" 
d="M936 918c72 0 119.334 22.667 142.001 68v640h142v-1646h-142v822c-26.667 -16 -70.667 -24.667 -132 -26h-522c-50.667 0 -90 -14 -118 -42c-12 -9.33301 -20 -18 -24 -26v-728h-142v1646h142v-736c29.333 18.667 76.666 28 141.999 28h512z" />
    <glyph glyph-name="I" unicode="I" horiz-adv-x="422" 
d="M140 -20v1646h142v-1646h-142z" />
    <glyph glyph-name="J" unicode="J" horiz-adv-x="970" 
d="M140 122c108 0 202.333 30 283 90s145 142 193 246s72 218.667 72 344v824h142v-824c0 -224 -63.333 -416 -190 -576c-135.333 -164 -302 -246 -500 -246v142z" />
    <glyph glyph-name="K" unicode="K" horiz-adv-x="1390" 
d="M282 -20h-142.001v1646h142v-640c-13.333 -22.667 -9.33301 -25.334 12 -8.00098l696 648h208l-810 -758c-17.333 -13.333 -25.666 -23.666 -24.999 -30.999s6.33398 -16.333 17.001 -27l902 -830h-212l-780 722c-18.667 13.333 -21.334 10 -8.00098 -10v-712z" />
    <glyph glyph-name="L" unicode="L" horiz-adv-x="1328" 
d="M282 122h906v-142h-1048v1646h142v-1504z" />
    <glyph glyph-name="M" unicode="M" horiz-adv-x="1594" 
d="M1454 1626v-1646h-142v1226l-448 -1226h-136l-446 1224v-1224h-142v1646h138l518 -1418l518 1418h140z" />
    <glyph glyph-name="N" unicode="N" horiz-adv-x="1348" 
d="M1066 1626h142v-1646h-192l-734 1348v-1348h-142v1646h140l786 -1442v1442z" />
    <glyph glyph-name="O" unicode="O" horiz-adv-x="1622" 
d="M810 1484c-94.667 0 -182.334 -29.999 -263.001 -89.999s-145 -142.333 -193 -247s-72 -219.334 -72 -344.001s24 -239 72 -343s112.333 -186.333 193 -247s168.334 -91 263.001 -91s182.667 30.333 264 91s146 143 194 247s72 218.333 72 343s-24 239 -72 343
s-112.667 186.333 -194 247s-169.333 91 -264 91zM812 -19.999c-93.333 0 -181.666 21.999 -264.999 65.999s-155.666 104.667 -216.999 182c-126.667 160 -190 352.333 -190 577s63.333 415.667 190 573c61.333 78.667 133.666 139.667 216.999 183s171.666 65 264.999 65
s181.333 -21.667 264 -65s154 -104.333 214 -183c128 -157.333 192 -348.666 192 -573.999s-64 -417.333 -192 -576c-60 -77.333 -131.333 -138 -214 -182s-170.667 -66 -264 -66z" />
    <glyph glyph-name="P" unicode="P" horiz-adv-x="1386" 
d="M822 918c77.333 0 143.332 27.667 197.999 83s82 122 82 200s-27.333 144.667 -82 200s-120.667 83 -198 83h-540v-572c6.66699 2.66699 25.334 4.66699 56.001 6h484zM823.999 1626c76 0 146.332 -19.3301 210.999 -57.9971s116 -90.334 154 -155.001
s57 -136.334 57 -215.001c0 -116 -41.333 -215.333 -124 -298s-182.667 -124 -300 -124h-476c-26.667 0 -43.667 -4.33301 -51 -13s-11.666 -18.334 -12.999 -29.001v-754h-142v1646h684z" />
    <glyph glyph-name="Q" unicode="Q" horiz-adv-x="1622" 
d="M810 122c94.667 0 182.667 30.334 264 91.001s146 143 194 247s72 218.333 72 343s-24 239 -72 343s-112.667 186.333 -194 247s-169.333 91 -264 91s-182.334 -30 -263.001 -90s-145 -142.333 -193 -247s-72 -219.334 -72 -344.001s24 -239 72 -343
s112.333 -186.333 193 -247s168.334 -91 263.001 -91zM1348 -29.999c-33.333 0 -71.333 8.99902 -114 26.999s-76.667 45 -102 81c-12 -8 -30 -18 -54 -30c-84 -45.333 -172.667 -68 -266 -68s-181.666 22 -264.999 66s-155.666 104.667 -216.999 182
c-126.667 160 -190 352.333 -190 577s63.333 415.667 190 573c61.333 78.667 133.666 139.667 216.999 183s171.666 65 264.999 65s181.333 -21.667 264 -65s154 -104.333 214 -183c128 -157.333 192 -348.666 192 -573.999s-64 -417.333 -192 -576
c-20 -24 -36.667 -42.667 -50 -56c21.333 -28 48 -46.667 80 -56c9.33301 -2.66699 15.333 -4 18 -4h28l10 -142h-28z" />
    <glyph glyph-name="R" unicode="R" horiz-adv-x="1424" 
d="M822 918c77.333 0 143.332 27.668 197.999 83.001s82 121.666 82 198.999s-27.333 144 -82 200s-120.667 84 -198 84h-540v-572c6.66699 2.66699 25.334 4.66699 56.001 6h484zM733.999 776.001h-388.002c-26.667 0 -43.667 -4.33301 -51 -13
s-11.666 -18.334 -12.999 -29.001v-754h-142v1646h682c77.333 0 148.333 -19 213 -57s116 -89.667 154 -155s57 -143 57 -233s-33 -174 -99 -252s-137 -124.333 -213 -139c0 -1.33301 6 -12.666 18 -33.999l342 -776h-156l-318 720c-15.333 27.333 -29.666 45 -42.999 53
c-14 7.33301 -24.333 13 -31 17s-10.667 6 -12 6z" />
    <glyph glyph-name="S" unicode="S" horiz-adv-x="1460" 
d="M740 1486c-281.333 0 -421.997 -93.998 -421.997 -281.998c0 -71.333 23.333 -127.333 70 -168c21.333 -18.667 53 -37.667 95 -57s83.333 -34.333 124 -45l157 -42c174.667 -42.667 296 -83.334 364 -122.001c128 -79.333 192 -185.333 192 -318
c0 -140 -51.333 -252 -154 -336c-102.667 -90.667 -244.667 -136 -426 -136c-149.333 0 -265.666 18 -348.999 54s-155 92 -215 168l-44 54l114 86l44 -58c42 -50.667 83.667 -86 125 -106c79.333 -38.667 187.666 -58 324.999 -58s244 30 320 90s114 140.667 114 242
c0 67.333 -23 121.333 -69 162s-118 74.334 -216 101.001c-40.667 11.333 -93 25 -157 41c-174.667 44 -294.334 84.333 -359.001 121c-132.667 75.333 -199 180.666 -199 315.999s47 241.333 141 318s235.667 115 425 115c89.333 0 173.666 -19.333 252.999 -58
s147 -93.334 203 -164.001l44 -56l-112 -86l-46 58c-40 53.333 -90.333 94.333 -151 123s-124.334 43 -191.001 43z" />
    <glyph glyph-name="T" unicode="T" horiz-adv-x="1506" 
d="M1366 1626v-142h-556v-1504h-142v1504h-528v142h1226z" />
    <glyph glyph-name="U" unicode="U" horiz-adv-x="1332" 
d="M665 -18c-144.667 0 -268.333 51.333 -371 154s-154 226.667 -154 372v1118h142v-1118c0 -106.667 37.667 -197.334 113 -272.001s166 -112 272 -112s196.333 37.333 271 112s112 165.334 112 272.001v1118h142v-1118c0 -145.333 -51.667 -269.333 -155 -372
s-227.333 -154 -372 -154z" />
    <glyph glyph-name="V" unicode="V" horiz-adv-x="1550" 
d="M708 -20l-576 1646h152l492 -1410l490 1410h152l-574 -1646h-136z" />
    <glyph glyph-name="W" unicode="W" horiz-adv-x="2286" 
d="M2008 1626h146l-574 -1646h-122l-314 1154l-314 -1154h-122l-576 1646h146l482 -1378l332 1228h102l332 -1228z" />
    <glyph glyph-name="X" unicode="X" horiz-adv-x="1636" 
d="M1516 1626l-612 -822l612 -824h-174l-524 708l-524 -708h-174l612 824l-612 822h174l524 -706l524 706h174z" />
    <glyph glyph-name="Y" unicode="Y" horiz-adv-x="1660" 
d="M900 636v-656h-140v656c0 61.333 -10 117.333 -30 168l-610 822h176l534 -720l536 720h174l-610 -822c-20 -50.667 -30 -106.667 -30 -168z" />
    <glyph glyph-name="Z" unicode="Z" horiz-adv-x="1592" 
d="M1412 122v-142h-1272v110l1104 1394h-1062v142h1270v-110l-1102 -1394h1062z" />
    <glyph glyph-name="bracketleft" unicode="[" horiz-adv-x="568" 
d="M428 -302h-288v1928h288v-142h-146v-1644h146v-142z" />
    <glyph glyph-name="backslash" unicode="\" horiz-adv-x="962" 
d="M680 -20l-548 1646h152l546 -1646h-150z" />
    <glyph glyph-name="bracketright" unicode="]" horiz-adv-x="568" 
d="M140 -302v142h146v1644h-146v142h288v-1928h-288z" />
    <glyph glyph-name="asciicircum" unicode="^" horiz-adv-x="1072" 
d="M212 1220l-80 118l420 292l388 -296l-84 -112l-306 234z" />
    <glyph glyph-name="underscore" unicode="_" horiz-adv-x="1326" 
d="M140 -20v142h1046v-142h-1046z" />
    <glyph glyph-name="grave" unicode="`" horiz-adv-x="496" 
d="M214 1238v68c0 75.333 -20.667 144 -62 206c-2.66699 4 -10 11.333 -22 22l106 96c18.667 -18.667 34 -36.667 46 -54s27.333 -52 46 -104s28 -107.333 28 -166v-68h-142z" />
    <glyph glyph-name="a" unicode="a" horiz-adv-x="1166" 
d="M584 572c-85.333 0 -156.667 -23 -214 -69s-86 -98 -86 -156s28.667 -110 86 -156s129 -69 215 -69s157.333 23 214 69s85 97.667 85 155v228c-4 -1.33301 -18.667 -2 -44 -2h-256zM837.999 714c30.667 0 46.0029 19.333 46.0029 58v68c0 60 -27.333 112.333 -82 157
s-121.334 67 -200.001 67c-50.667 0 -97.334 -10 -140.001 -30s-76.667 -46.667 -102 -80l-44 -58l-116 86l44 56c38.667 52 89.667 93 153 123s131.666 45 204.999 45c116 0 215.667 -35 299 -105s125 -157 125 -261v-494c0 -104 -44 -191 -132 -261
s-191.667 -105 -311 -105s-221 34 -305 102c-92 72 -138 160.333 -138 265s46 193 138 265c84 68 186 102 306 102h254z" />
    <glyph glyph-name="b" unicode="b" horiz-adv-x="1172" 
d="M282 122h148.001c128 0 236.667 45 326 135s134 198.333 134 325c0 84 -20.333 161.333 -61 232s-96.334 126.667 -167.001 168s-148 62 -232 62h-82c-34.667 0 -56.667 2 -66 6v-928zM282.001 1228c0 -28 21.333 -42 64 -42h84c166.667 0 308.667 -59 426 -177
s176 -260 176 -426s-58.667 -308 -176 -426s-259.333 -177 -426 -177h-290v1646h142v-398z" />
    <glyph glyph-name="c" unicode="c" horiz-adv-x="1186" 
d="M638 -20c-60 0 -121.669 16.335 -185.002 49.002s-119.666 77.667 -168.999 135c-96 118.667 -144 261.667 -144 429s49 310.333 147 429c47.333 57.333 102.666 102.333 165.999 135s130.333 49 201 49c154.667 0 273.334 -56 356.001 -168l44 -56l-114 -86l-44 58
c-35.333 50.667 -91.333 84.667 -168 102c-24 5.33301 -48.667 8 -74 8c-101.333 0 -188.666 -45.333 -261.999 -136s-110 -202.334 -110 -335.001s36.667 -244.334 110 -335.001s160.666 -136 261.999 -136c50.667 0 97.334 10 140.001 30s76.667 47.333 102 82l44 56
l114 -84l-44 -58c-50 -68.667 -121.667 -117.667 -215 -147c-44.667 -14 -97 -21 -157 -21z" />
    <glyph glyph-name="d" unicode="d" horiz-adv-x="1172" 
d="M824 1044h-84c-126.667 0 -234.667 -45.333 -324 -136s-134 -199 -134 -325s44.667 -234.667 134 -326c41.333 -42 90.333 -75 147 -99s115.667 -36 177 -36h148v926c-8 -2.66699 -29.333 -4 -64 -4zM140 583c0 166 59 308 177 426s259 177 423 177h84
c42.667 0 64 13.333 64 40v400h144v-1646h-292c-164 0 -305 59 -423 177s-177 260 -177 426z" />
    <glyph glyph-name="e" unicode="e" horiz-adv-x="1206" 
d="M650 1064c-85.333 0 -163 -36.333 -233 -109s-111.667 -153 -125 -241c-12 -4 -12.333 -5 -1 -3s21 3 29 3h286c101.333 0 179.333 22 234 66c44 33.333 66 72.333 66 117s-21.333 83.667 -64 117s-106.667 50 -192 50zM654 122c121.333 0 209.332 37.333 263.999 112
l42 56l114 -84l-42 -58c-84 -112 -210 -168 -378 -168c-145.333 0 -267.333 61 -366 183s-148 266 -148 432s48 307.667 144 425c104 124 227.333 186 370 186c117.333 0 212.333 -29.333 285 -88s109 -133 109 -223s-40.333 -166.333 -121 -229s-187.667 -94 -321 -94h-278
c-22 0 -34.333 -8.66699 -37 -26c-0.666992 -4 -1.66699 -8 -3 -12s-2 -6.66699 -2 -8c12.667 -116 54.334 -212.333 125.001 -289c71.333 -76.667 152.333 -115 243 -115z" />
    <glyph glyph-name="f" unicode="f" horiz-adv-x="792" 
d="M346 1064c-42.667 0 -64.002 -15.332 -64.002 -45.999v-1038h-142v1176c0 128 42.667 238.667 128 332c86.667 92 191.334 138 314.001 138h70v-142h-70c-81.333 0 -150.666 -30.333 -207.999 -91s-87.333 -124.334 -90 -191.001c8 2.66699 28.667 4 62 4h256v-142h-256z
" />
    <glyph glyph-name="g" unicode="g" horiz-adv-x="1172" 
d="M824 150c34.667 0 56 -1.33398 64 -4.00098v924h-148c-126.667 0 -234.667 -45 -324 -135s-134 -198.667 -134 -326s44.667 -235.666 134 -324.999s197.333 -134 324 -134h84zM740 7.99902c-165.333 0 -306.667 59.001 -424 177.001s-176 259.667 -176 425
s58.667 307 176 425s258.666 177 423.999 177h292v-1274c0 -104 -42 -191.333 -126 -262s-183.333 -106 -298 -106c-72 0 -139.333 14.667 -202 44s-114.667 70.666 -156 123.999l-42 58l112 86l44 -58c53.333 -73.333 141.333 -110 264 -110c64 0 123.333 22 178 66
s82 96.667 82 158v28c-3.33301 28 -24.666 42 -63.999 42h-84z" />
    <glyph glyph-name="h" unicode="h" horiz-adv-x="1164" 
d="M1024 718l-0.000976562 -738h-142v738c0 60 -13.667 115.333 -41 166s-64 90.667 -110 120s-95.667 44 -149 44h-254c-25.333 0 -40.666 1.33301 -45.999 4v-1072h-142v1646h142v-370c0 -28 5 -46 15 -54s19 -12 27 -12h258c122.667 0 227 -46.333 313 -139
s129 -203.667 129 -333z" />
    <glyph glyph-name="i" unicode="i" horiz-adv-x="422" 
d="M214 1572c12 0 23 -3.33203 33 -9.99902c23.333 -15.333 35 -35.333 35 -60v-28c0 -20 -7 -37 -21 -51s-30.667 -21 -50 -21s-36 7 -50 21s-21 31 -21 51v28c0 29.333 14.333 50.666 43 63.999c8.66699 4 19 6 31 6zM140 -19.999v1226h142v-1226h-142z" />
    <glyph glyph-name="j" unicode="j" horiz-adv-x="794" 
d="M512 42l-0.000976562 1216h142v-1216c0 -129.333 -43 -240.333 -129 -333s-190.333 -139 -313 -139h-72v144h72c82.667 0 153.334 32 212.001 96s88 141.333 88 232zM581.999 1572c13.333 0 25.334 -3.33301 36.001 -10c24 -14.667 36 -34.667 36 -60v-28
c0 -20 -7.33301 -37 -22 -51s-31.334 -21 -50.001 -21s-35 7 -49 21s-21 31 -21 51v28c0 24.667 11.667 44.667 35 60c10 6.66699 21.667 10 35 10z" />
    <glyph glyph-name="k" unicode="k" horiz-adv-x="1254" 
d="M282 -20h-142.002v1646h142v-924l638 504h230l-636 -504c2.66699 -1.33301 10.667 -9.33301 24 -24l600 -698h-192l-516 602c-13.333 13.333 -22.666 20.333 -27.999 21s-10.666 -0.333008 -15.999 -3l-104 -82v-538z" />
    <glyph glyph-name="l" unicode="l" horiz-adv-x="422" 
d="M140 -20v1646h142v-1646h-142z" />
    <glyph glyph-name="m" unicode="m" horiz-adv-x="1904" 
d="M1764 734l0.00195312 -753.999h-142v754c0 92 -29 170 -87 234s-128.667 96 -212 96s-154 -32 -212 -96s-87 -142 -87 -234v-754h-142v754c0 60 -13.667 115.333 -41 166s-64 90.667 -110 120s-95.667 44 -149 44c-84 0 -155 -32 -213 -96s-87 -142 -87 -234v-754h-142
v754c0 129.333 42.667 240.666 128 333.999c86.667 92 191.334 138 314.001 138s226.667 -46 312 -138c30.667 -33.333 50 -58 58 -74c9.33301 16 28.666 40.667 57.999 74c85.333 92 189.666 138 312.999 138s227.666 -46.333 312.999 -139s128 -203.667 128 -333z" />
    <glyph glyph-name="n" unicode="n" horiz-adv-x="1164" 
d="M1024 -20l-142.001 0.000976562v754c0 60 -13.667 115.333 -41 166s-64 90.667 -110 120s-95.667 44 -149 44c-84 0 -155 -32 -213 -96s-87 -142 -87 -234v-754h-142v754c0 129.333 42.667 240.666 128 333.999c86.667 92 191.334 138 314.001 138s227 -46.333 313 -139
s129 -203.667 129 -333v-754z" />
    <glyph glyph-name="o" unicode="o" horiz-adv-x="1346" 
d="M673 1064c-106 0 -197.666 -45.667 -274.999 -137s-116 -202.333 -116 -333c0 -85.333 17.667 -164 53 -236s82.666 -129 141.999 -171s120 -63 182 -63c115.333 0 211.333 45.667 288 137s115 202.333 115 333s-38.333 241.667 -115 333s-168 137 -274 137zM140.001 593
c0 167.333 50 311 150 431c110 121.333 237.333 182 382 182s272 -60.667 382 -182c101.333 -120 152 -263.667 152 -431s-50.667 -310.333 -152 -429c-107.333 -121.333 -235 -182 -383 -182s-273.667 60 -377 180c-102.667 120 -154 263.667 -154 431z" />
    <glyph glyph-name="p" unicode="p" horiz-adv-x="1172" 
d="M348 154h81.999c84 0 161.333 20.333 232 61s126.334 96.667 167.001 168s61 148.333 61 231c0 128 -45 236.667 -135 326s-198.333 134 -325 134h-148v-926c9.33301 4 31.333 6 66 6zM1032 614c0 -165.333 -58.667 -306.999 -176 -424.999s-259.333 -177 -426 -177h-84
c-32.667 0 -53 -9.66699 -61 -29c-2 -4.66699 -3 -8.33398 -3 -11.001v-402h-142v1646h290c166.667 0 308.667 -59 426 -177s176 -259.667 176 -425z" />
    <glyph glyph-name="q" unicode="q" horiz-adv-x="1172" 
d="M888 1074h-148c-126.667 0 -234.667 -45 -324 -135s-134 -198.333 -134 -325s44.667 -235 134 -325s197.333 -135 324 -135h84c34.667 0 56 -1.33301 64 -4v924zM888 -30c0 28 -21.333 42 -64 42h-84c-164 0 -305 59 -423 177s-177 259.667 -177 425s59 307 177 425
s259 177 423 177h292v-1646h-144v400z" />
    <glyph glyph-name="r" unicode="r" horiz-adv-x="742" 
d="M282 -20h-142v754c0 129.333 42.667 240.666 128 333.999c86.667 92 198 138 334 138v-142c-112 0 -199.333 -44.667 -262 -134c-38.667 -55.333 -58 -120.666 -58 -195.999v-754z" />
    <glyph glyph-name="s" unicode="s" horiz-adv-x="1148" 
d="M604 -20c-120 0 -210.334 13.6709 -271.001 41.0039s-113 69.666 -157 126.999l-44 58l114 84l44 -56c26.667 -36 60.334 -63.667 101.001 -83s105.334 -29 194.001 -29s157.667 19.667 207 59s74 89 74 149s-21.667 103 -65 129s-123 53.667 -239 83
s-198.667 58.666 -248 87.999c-96 58.667 -144 139.667 -144 243s34.667 184.666 104 243.999s172.666 89 309.999 89s249.333 -56 336 -168l44 -56l-112 -88l-46 58c-57.333 74.667 -131.333 112 -222 112c-181.333 0 -272 -60.667 -272 -182c0 -56 25.333 -98.667 76 -128
c38.667 -24 112.667 -49.333 222 -76c122.667 -33.333 208 -63.333 256 -90c94.667 -58.667 142 -141.334 142 -248.001s-36.667 -192 -110 -256c-76 -69.333 -174 -104 -294 -104z" />
    <glyph glyph-name="t" unicode="t" horiz-adv-x="744" 
d="M348 1042c-40.667 0 -62.667 -14.668 -66 -44.001v-544c0 -92 29.333 -170.333 88 -235s136.667 -97 234 -97v-142c-137.333 0 -249 46.333 -335 139s-129 204.334 -129 335.001v1172h142v-448c9.33301 4 31.333 6 66 6h256v-142h-256z" />
    <glyph glyph-name="u" unicode="u" horiz-adv-x="1164" 
d="M582 -20c-122.667 0 -227 46.333 -313 139s-129 204.334 -129 335.001v752h142v-752c0 -92 29 -170.333 87 -235s128.667 -97 212 -97s154.333 32.333 213 97s88 143 88 235v752h142v-752c0 -130.667 -43 -242.334 -129 -335.001s-190.333 -139 -313 -139z" />
    <glyph glyph-name="v" unicode="v" horiz-adv-x="1300" 
d="M714 -20h-126l-456 1226h152l366 -984l368 984h150z" />
    <glyph glyph-name="w" unicode="w" horiz-adv-x="1928" 
d="M1340 -20h-124l-252 808l-250 -808h-126l-456 1226h152l360 -968l256 826h126l258 -826l360 968h152z" />
    <glyph glyph-name="x" unicode="x" horiz-adv-x="1302" 
d="M1180 1206l-444 -612l446 -614h-174l-358 494l-356 -494h-174l444 614l-444 612h174l356 -494l358 494h172z" />
    <glyph glyph-name="y" unicode="y" horiz-adv-x="1308" 
d="M278 -430h-70v140h70c60 0 114.333 18.333 163 55s85 90.334 109 161.001v4c5.33301 13.333 8 35.666 8 66.999s-14 93 -42 185l-384 1024h150l372 -1004l376 1004h146l-500 -1338c-30.667 -88 -82 -159.667 -154 -215s-153.333 -83 -244 -83z" />
    <glyph glyph-name="z" unicode="z" horiz-adv-x="1260" 
d="M1080 -20h-940v110l772 974h-732v142h940v-110l-772 -974h732v-142z" />
    <glyph glyph-name="braceleft" unicode="{" horiz-adv-x="962" 
d="M734 -274c-129.333 0 -215.333 53.3359 -258 160.003c-24 57.333 -37.333 152 -40 284s-11 225.667 -25 281s-33 92.666 -57 111.999s-59.333 30.333 -106 33h-108v160h108c46.667 2.66699 82 14 106 34c50 41.333 76.667 150 80 326c4 176 18 292.667 42 350
c44 109.333 132.667 162.666 266 159.999h80v-158h-82c-38.667 1.33301 -66 -3.33398 -82 -14.001s-30 -31 -42 -61s-19.667 -126.333 -23 -289s-27 -282 -71 -358c-20 -34.667 -38 -58 -54 -70c16 -10.667 34 -34 54 -70c44 -77.333 67.667 -197 71 -359
s13 -261.667 29 -299c8 -21.333 20 -37.333 36 -48s43.333 -16 82 -16l82 2v-160h-88z" />
    <glyph glyph-name="bar" unicode="|" horiz-adv-x="422" 
d="M140 -298v1924h142v-1924h-142z" />
    <glyph glyph-name="braceright" unicode="}" horiz-adv-x="962" 
d="M228 -274l-88 -0.00195312v160l82 -2c50 0 83.333 10 100 30c6.66699 8 15.334 25 26.001 51s17.667 120 21 282s27 281.667 71 359c20 36 38 59.333 54 70c-16 12 -34 35.333 -54 70c-44 76 -67.667 195.333 -71 358s-10.666 258.667 -21.999 288
s-25.333 49.666 -42 60.999s-44.334 16.333 -83.001 15h-82v158h80c133.333 2.66699 222 -50.666 266 -159.999c24 -57.333 37.333 -145 40 -263s7.66699 -202.667 15 -254s18.666 -90.666 33.999 -117.999s33.666 -46.333 54.999 -57s49.333 -16.667 84 -18h108v-160h-108
c-46.667 -2.66699 -82 -13.667 -106 -33c-47.333 -38 -74.666 -158.333 -81.999 -361c-2.66699 -153.333 -16 -258.666 -40 -315.999c-42.667 -106.667 -128.667 -160 -258 -160z" />
    <glyph glyph-name="asciitilde" unicode="~" horiz-adv-x="1238" 
d="M791 526c-22 0 -49.333 7 -82 21s-59 28 -79 42s-45 32.667 -75 56l-67 51c-41.333 30 -75.333 42 -102 36c-26.667 -6.66699 -58 -48 -94 -124l-30 -64l-128 60l30 64c88.667 194.667 207.334 254 356.001 178c28 -16 62.667 -40 104 -72l85 -65
c45.333 -34 81 -47 107 -39c41.333 9.33301 84.666 63.333 129.999 162l30 64l128 -60l-28 -64c-32 -70.667 -66.667 -124.667 -104 -162c-52.667 -56 -113 -84 -181 -84z" />
    <glyph glyph-name="exclamdown" unicode="&#xa1;" horiz-adv-x="510" 
d="M254 1386c-33.333 0 -60.667 10.999 -82 32.999s-32 47.333 -32 76s4.66699 52.334 14 71.001c20 40 50 60 90 60s71 -11.667 93 -35s33 -52.333 33 -87s-11 -63 -33 -85s-49.667 -33 -83 -33zM181.999 -20.001v1006h144v-1006h-144z" />
    <glyph glyph-name="cent" unicode="&#xa2;" horiz-adv-x="1186" 
d="M734 -126h-142v110c-42.667 4 -92 20.667 -148 50s-108.667 72.666 -158 129.999c-97.333 118.667 -146 261.334 -146 428.001v2c0 166.667 48.667 308.667 146 426c49.333 58.667 102 102.667 158 132s105.333 46 148 50v110h142v-112
c114.667 -14.667 207.334 -68.667 278.001 -162l42 -56l-114 -86l-42 58c-25.333 33.333 -59.333 60 -102 80s-89.334 30 -140.001 30c-101.333 0 -189 -45.667 -263 -137s-111 -202.333 -111 -333v-2c0 -129.333 37 -240 111 -332s161.667 -138 263 -138
c50.667 0 97.334 10 140.001 30s76.667 47.333 102 82l42 56l114 -84l-42 -58c-70.667 -92 -163.334 -146 -278.001 -162v-112z" />
    <glyph glyph-name="sterling" unicode="&#xa3;" horiz-adv-x="1358" 
d="M1068 1208c-73.333 176 -162.668 263.999 -268.001 263.999c-50.667 0 -93 -7.66699 -127 -23c-128.667 -58 -193 -266.333 -193 -625h454v-144h-454c-5.33301 -240 -31.333 -416 -78 -528l-12 -28h828v-144h-1078v140c38.667 0 66.667 6 84 18s33.333 36 48 72
c38.667 92 60.667 248.667 66 470h-162v144h162c0 295.333 43.333 506 130 632c42.667 60 92.334 101.333 149.001 124s123 34 199 34s147.333 -30.667 214 -92s122.667 -148.666 168 -261.999z" />
    <glyph glyph-name="currency" unicode="&#xa4;" horiz-adv-x="1302" 
d="M651 416c80.667 0 149.667 32 207 96s86 142 86 234s-28.667 170 -86 234s-126.666 96 -207.999 96c-52 0 -100.333 -14.667 -145 -44s-80.334 -69.333 -107.001 -120s-40 -106 -40 -166c0 -92 28.667 -170 86 -234s126.333 -96 207 -96zM1086 747
c0 -99.333 -22.667 -184.333 -68 -255l152 -150l-102 -102l-138 142c-74.667 -72 -168 -108 -280 -108s-204.667 36 -278 108l-140 -142l-98 102l148 150c-45.333 70.667 -68 155.667 -68 255s22.667 184.333 68 255l-150 154l98 100l144 -144
c74.667 70.667 167 106 277 106s202.333 -34.667 277 -104l140 142l102 -100l-154 -152c46.667 -72 70 -157.667 70 -257z" />
    <glyph glyph-name="currency" unicode="&#x20ac;" horiz-adv-x="1302" 
d="M651 416c80.667 0 149.667 32 207 96s86 142 86 234s-28.667 170 -86 234s-126.666 96 -207.999 96c-52 0 -100.333 -14.667 -145 -44s-80.334 -69.333 -107.001 -120s-40 -106 -40 -166c0 -92 28.667 -170 86 -234s126.333 -96 207 -96zM1086 747
c0 -99.333 -22.667 -184.333 -68 -255l152 -150l-102 -102l-138 142c-74.667 -72 -168 -108 -280 -108s-204.667 36 -278 108l-140 -142l-98 102l148 150c-45.333 70.667 -68 155.667 -68 255s22.667 184.333 68 255l-150 154l98 100l144 -144
c74.667 70.667 167 106 277 106s202.333 -34.667 277 -104l140 142l102 -100l-154 -152c46.667 -72 70 -157.667 70 -257z" />
    <glyph glyph-name="yen" unicode="&#xa5;" horiz-adv-x="1572" 
d="M1198 770l-0.000976562 -140h-342v-84h342v-142h-342v-424h-140v424h-346v142h346v84h-346v140h328c-1.33301 5.33301 -4.66602 17.333 -9.99902 36l-556 744l112 84l542 -728l542 728l112 -84l-554 -744c-6.66699 -18.667 -10.667 -30.667 -12 -36h324z" />
    <glyph glyph-name="brokenbar" unicode="&#xa6;" horiz-adv-x="422" 
d="M282 444v-464h-142v464h142zM140 692v934h142v-934h-142z" />
    <glyph glyph-name="section" unicode="&#xa7;" horiz-adv-x="1146" 
d="M534 996c-148 0 -221.999 -55.333 -221.999 -166c0 -52 17.667 -90 53 -114s99.666 -48 192.999 -72c57.333 -17.333 98 -30.666 122 -39.999c57.333 6.66699 102.333 27 135 61s49 77.667 49 131s-18 91.666 -54 114.999s-82 42.333 -138 57s-88.667 24 -98 28h-40z
M634.001 1474c-149.333 0 -223.999 -55.333 -223.999 -166c0 -52 18.333 -89.667 55 -113s104.334 -49 203.001 -77s170.667 -56.667 216 -86c81.333 -54.667 122 -131.334 122 -230.001s-32 -179.334 -96 -242.001c-26.667 -26.667 -50 -44.667 -70 -54
c44 -40 66 -105.333 66 -196s-33 -168.334 -99 -233.001s-151.667 -97 -257 -97s-185.333 13.667 -240 41s-100 67.666 -136 120.999l-42 58l116 82l42 -58c24 -33.333 52 -58.666 84 -75.999s84.667 -26 158 -26s130.333 18 171 54s61 85.667 61 149
s-35.333 108.333 -106 135c-14 0 -73.333 18.667 -178 56c-105.333 37.333 -168 63.333 -188 78c-81.333 54.667 -122 130.334 -122 227.001s29.333 172.334 88 227.001c33.333 32 62.666 52 87.999 60c-52 38.667 -78 104.334 -78 197.001s30.667 167.667 92 225
s152.666 86 273.999 86c79.333 0 150.666 -24.667 213.999 -74c30.667 -24 57.334 -53.333 80.001 -88l44 -56l-116 -84l-44 58c-46.667 68 -106 102 -178 102z" />
    <glyph glyph-name="dieresis" unicode="&#xa8;" horiz-adv-x="352" 
 />
    <glyph glyph-name="copyright" unicode="&#xa9;" horiz-adv-x="1320" 
d="M980 380v-100h-640v100h-100v100h-100v740h100v100h100v100h640v-100h100v-100h100v-740h-100v-100h-100zM480 420h360v60h-300v100h-100v540h100v100h300v60h-360v-100h-100v-100h-100v-460h100v-100h100v-100zM880 1180v-100h-200v-100h-100v-260h100v-100h200v-100h60
v100h100v460h-100v100h-60z" />
    <glyph glyph-name="ordfeminine" unicode="&#xaa;" horiz-adv-x="1020" 
d="M240 1420v100h540v-100h100v-740h-140v100h-60v-100h-440v100h-100v340h100v100h400v160h-260v-100h-240v140h100zM640 820v260h-260v-100h-100v-60h100v-100h260zM880 620v-240h-740v240h740z" />
    <glyph glyph-name="guillemotleft" unicode="&#xab;" horiz-adv-x="1000" 
d="M860 190l-408 402l408 406v-200l-206 -204l206 -204v-200zM542 190l-410 404l410 404v-200l-208 -204l206 -202z" />
    <glyph glyph-name="logicalnot" unicode="&#xac;" horiz-adv-x="730" 
d="M200 388c0 2.66699 25.332 4.00293 75.999 4.00293l108 -2h58c53.333 -1.33301 91.333 -15.333 114 -42c12 -8 19.333 -18.667 22 -32c6.66699 -14.667 10.667 -33.334 12 -56.001c-5.33301 -44 -8.66602 -76 -9.99902 -96c-1.33301 -37.333 -51.333 -59.333 -150 -66v60
c0 25.333 1.33301 52.666 4 81.999l-294 6v22c0 13.333 1 24 3 32c14 55.333 33 84.666 57 87.999z" />
    <glyph glyph-name="registered" unicode="&#xae;" horiz-adv-x="1320" 
d="M980 580v-100h-640v100h-100v100h-100v640h100v100h100v100h640v-100h100v-100h100v-640h-100v-100h-100zM480 620h360v60h-100v200h-160v-200h-100v-60zM880 720h60v100h100v360h-100v100h-100v100h-360v-60h300v-100h100v-240h-100v-60h100v-200zM440 1280h-60v-100
h-100v-360h100v-100h60v560zM740 1020v160h-160v-160h160z" />
    <glyph glyph-name="macron" unicode="&#xaf;" horiz-adv-x="948" 
d="M140 588c0 16 1.99805 28 5.99805 36c0 8 1.33301 13.333 4 16c12 44 28.667 66 50 66c0 2.66699 7 4 21 4h55l342 -4c32 0 48.667 0.666992 50 2h38c30.667 4 51.334 8 62.001 12h26v-30c0 -14.667 2 -28 6 -40l8 -48c0 -22.667 -16 -35.667 -48 -39s-95.333 -5 -190 -5
h-36c-137.333 0 -268.666 2.66699 -393.999 8v22z" />
    <glyph glyph-name="degree" unicode="&#xb0;" horiz-adv-x="288" 
 />
    <glyph glyph-name="plusminus" unicode="&#xb1;" horiz-adv-x="1326" 
d="M140 -24v142h1046v-142h-1046zM140 536v142h452v552h142v-552h452v-142h-452v-354h-142v354h-452z" />
    <glyph glyph-name="uni00B2" unicode="&#xb2;" horiz-adv-x="384" 
 />
    <glyph glyph-name="uni00B3" unicode="&#xb3;" horiz-adv-x="386" 
 />
    <glyph glyph-name="acute" unicode="&#xb4;" horiz-adv-x="588" 
d="M170 542l-38.001 16c25.333 45.333 64.666 106 117.999 182l40 50l82 -50c-3.33301 -6.66699 -5.66602 -9.66699 -6.99902 -9c0.666992 -1.33301 1 -2.33301 1 -3l86 -48c-8 -25.333 -17.333 -48 -28 -68l-84 -126c-8 -14.667 -17.333 -24 -28 -28
c-17.333 -9.33301 -39.666 -4 -66.999 16s-47 37.333 -59 52z" />
    <glyph glyph-name="mu" unicode="&#xb5;" horiz-adv-x="544" 
 />
    <glyph glyph-name="paragraph" unicode="&#xb6;" horiz-adv-x="570" 
 />
    <glyph glyph-name="periodcentered" unicode="&#xb7;" horiz-adv-x="196" 
 />
    <glyph glyph-name="cedilla" unicode="&#xb8;" horiz-adv-x="456" 
 />
    <glyph glyph-name="uni00B9" unicode="&#xb9;" horiz-adv-x="270" 
 />
    <glyph glyph-name="ordmasculine" unicode="&#xba;" horiz-adv-x="388" 
 />
    <glyph glyph-name="guillemotright" unicode="&#xbb;" horiz-adv-x="1000" 
d="M142 190l-2 200l206 204l-206 204l2 200l408 -406zM462 190v202l204 202l-204 204v200l406 -404z" />
    <glyph glyph-name="onequarter" unicode="&#xbc;" horiz-adv-x="1320" 
d="M940 1620v100h140v-240h-100v-200h-100v-200h-100v-200h-100v-100h-100v-200h-100v-200h-100v-200h-100v-100h-140v240h100v200h100v200h100v200h100v60h-400v140h100v360h-100v140h100v100h240v-600h100v-100h60v200h100v200h100v200h100zM940 420v160h-60v-160h60z
M1080 420h100v-140h-100v-200h-140v200h-300v240h100v200h100v100h240v-400z" />
    <glyph glyph-name="onehalf" unicode="&#xbd;" horiz-adv-x="1320" 
d="M940 1620v100h140v-240h-100v-200h-100v-200h-100v-200h-100v-100h-100v-200h-100v-200h-100v-200h-100v-100h-140v240h100v200h100v200h100v200h100v60h-400v140h100v360h-100v140h100v100h240v-600h100v-100h60v200h100v200h100v200h100zM640 580v140h100v100h340v-100
h100v-240h-100v-100h-200v-160h300v-140h-540v340h100v100h200v160h-60v-100h-240z" />
    <glyph glyph-name="threequarters" unicode="&#xbe;" horiz-adv-x="1320" 
d="M1040 1620v100h140v-240h-100v-200h-100v-200h-100v-200h-100v-100h-100v-200h-100v-200h-100v-200h-100v-100h-140v240h100v200h100v200h100v200h100v100h100v200h100v200h100v200h100zM940 420v160h-60v-160h60zM1080 420h100v-140h-100v-200h-140v200h-300v240h100
v200h100v100h240v-400zM580 1620h100v-240h-100v-60h100v-240h-100v-100h-340v100h-100v140h240v-100h60v160h-100v140h100v160h-60v-100h-240v140h100v100h340v-100z" />
    <glyph glyph-name="questiondown" unicode="&#xbf;" horiz-adv-x="1178" 
d="M140 399c0 128.667 32 232.332 96 310.999c38.667 46.667 103.334 92 194.001 136c33.333 17.333 57.333 31.333 72 42c34.667 25.333 52 58.666 52 99.999v70h138v-70c0 -81.333 -23.333 -141.333 -70 -180c-44.667 -37.333 -85.334 -64.666 -122.001 -81.999
c-36 -17.333 -61.333 -30 -76 -38s-33 -21.333 -55 -40c-59.333 -50.667 -89 -138 -89 -262c0 -176 113.333 -264 340 -264c52 0 102 13.333 150 40s88.667 64.667 122 114l38 58l116 -82l-40 -56c-46.667 -68 -103.667 -121 -171 -159s-139 -57 -215 -57
c-161.333 0 -283.333 40 -366 120c-76 70.667 -114 170.334 -114 299.001zM609 1390c-32.667 0 -59.332 11.333 -79.999 34s-31 51 -31 85s10.333 62 31 84s47.667 33 81 33s60.666 -11 81.999 -33s32 -50 32 -84s-11 -62.333 -33 -85s-49.333 -34 -82 -34z" />
    <glyph glyph-name="divide" unicode="&#xf7;" horiz-adv-x="1306" 
d="M646 1004c-33.333 0 -60.666 11.333 -81.999 34s-32 51 -32 85s10.667 62.333 32 85s48.666 34 81.999 34s60.333 -11.333 81 -34s31 -51 31 -85s-10.333 -62.333 -31 -85s-47.667 -34 -81 -34zM140 550v140h1026v-140h-1026zM646 218
c33.333 0 60.334 -11.332 81.001 -33.999s31 -51 31 -85s-10.333 -62.333 -31 -85s-45 -34 -73 -34s-50.667 5.66699 -68 17c-36 23.333 -54 54.666 -54 93.999s10.667 70.333 32 93s48.666 34 81.999 34z" />
    <glyph glyph-name="circumflex" unicode="&#x2c6;" horiz-adv-x="892" 
d="M448 1470l-234 -156l-82 116l316 220l12 -12l300 -206l-80 -118z" />
    <glyph glyph-name="caron" unicode="&#x2c7;" horiz-adv-x="892" 
d="M680 1652l80 -118l-300 -206l-12 -12l-316 220l82 116l234 -154z" />
    <glyph glyph-name="uni02C9" unicode="&#x2c9;" horiz-adv-x="542" 
 />
    <glyph glyph-name="breve" unicode="&#x2d8;" horiz-adv-x="316" 
 />
    <glyph glyph-name="dotaccent" unicode="&#x2d9;" horiz-adv-x="198" 
 />
    <glyph glyph-name="ring" unicode="&#x2da;" horiz-adv-x="288" 
 />
    <glyph glyph-name="ogonek" unicode="&#x2db;" horiz-adv-x="500" 
d="M294 192c30.667 0 49.334 -6.33398 56.001 -19.001s10 -27.667 10 -45v-28l-6 -52c-4 -29.333 -11.333 -52.666 -22 -69.999l-93 10c-2 -3.33301 -4.33301 -8 -7 -14l-92 10v62l4 124c112 265.333 149.333 296 112 92c1.33301 -12 -3.33398 -35.333 -14.001 -70h52z
M240 -11.001c0.666992 0.666992 1.33398 1.66699 2.00098 3c-0.666992 -0.666992 -1.33398 -1.66699 -2.00098 -3z" />
    <glyph glyph-name="tilde" unicode="&#x2dc;" horiz-adv-x="786" 
d="M294 520c10.667 10.667 20 16 28 16h26l12 -6c2.66699 -2.66699 24 -22.667 64 -60l30 -28l32 28c40 37.333 61.333 57.333 64 60l12 6c18.667 0 42 -14 70 -42l24 -16c-26.667 -32 -66.667 -72.667 -120 -122l-46 -38c-13.333 -9.33301 -24 -14 -32 -14h-16
c-16 0 -24 4 -24 12l-82 74l-5 5l-129 -117c0 17.333 5.33301 26 16 26c-13.333 0 -30 9.33301 -50 28l-36 32c50.667 56 90 95.333 118 118zM337 537c-1.33301 0.666992 -3 1.33301 -5 2c0 -1.33301 -0.666992 -2.33301 -2 -3c-2.66699 0.666992 -3 2 -1 4
c-7.33301 4 -11 11.333 -11 22c14 -14 20.333 -22.333 19 -25z" />
    <glyph glyph-name="hungarumlaut" unicode="&#x2dd;" horiz-adv-x="836" 
d="M170 542l-38.001 16c25.333 45.333 64.666 106 117.999 182l40 50l82 -50c-3.33301 -6.66699 -5.66602 -9.66699 -6.99902 -9c0.666992 -1.33301 1 -2.33301 1 -3l86 -48c-2 -6.66699 -4 -13 -6 -19l54 79l36 50l78 -46v-14l86 -50c-8 -25.333 -17.333 -48 -28 -68
l-80 -122c-12 -17.333 -24 -29.333 -36 -36s-31.667 -1 -59 17s-48.333 36.333 -63 55l-16 16c-4.66699 3.33301 -17 5.33301 -37 6l-41 -62c-8 -14.667 -17.333 -24 -28 -28c-17.333 -9.33301 -39.666 -4 -66.999 16s-47 37.333 -59 52z" />
    <glyph glyph-name="uni060C" unicode="&#x60c;" horiz-adv-x="512" 
d="M140 260l0.000976562 194.002h142v-194c0 -44 8.66699 -77.667 26 -101c17.333 -24 32 -37.667 44 -41c4 -2.66699 12.667 -7.33398 26 -14.001l-52 -130c-42.667 14.667 -77.334 36.667 -104.001 66c-54.667 57.333 -82 130.666 -82 219.999z" />
    <glyph glyph-name="uni061B" unicode="&#x61b;" horiz-adv-x="552" 
d="M256 80c-33.333 0 -61.001 11.333 -83.001 34s-33 51.334 -33 86.001s11 63.334 33 86.001s50 34 84 34s61.333 -11.333 82 -34s31 -51.334 31 -86.001s-10.667 -63.334 -32 -86.001s-48.666 -34 -81.999 -34zM327.999 1146v-194.001h-142v194
c0 88 27.333 160.667 82 218c26.667 30.667 62.667 53.334 108 68.001l40 -130l-18 -12c-46.667 -31.333 -70 -79.333 -70 -144z" />
    <glyph glyph-name="uni061F" unicode="&#x61f;" horiz-adv-x="1178" 
d="M620 1626c76 0 147.668 -18.665 215.001 -55.998s124.333 -90 171 -158l40 -60l-116 -80l-38 62c-33.333 48 -74 85.333 -122 112s-98 40 -150 40c-226.667 0 -340 -88 -340 -264c0 -124 29.667 -211.333 89 -262c22 -18.667 40.333 -32 55 -40l64 -36
c103.333 -45.333 166 -99.333 188 -162c10.667 -30.667 16 -65.334 16 -104.001v-68h-138v68c0 45.333 -17 79 -51 101c-15.333 10 -39.666 23.667 -72.999 41c-90.667 44 -155.334 90 -194.001 138c-64 77.333 -96 180.666 -96 309.999s39.667 231.333 119 306
s199.666 112 360.999 112zM724.001 99.002c0 -34 -10.6689 -62.333 -32.002 -85s-48.666 -34 -81.999 -34s-60.333 11.333 -81 34s-31 51 -31 85s10.333 62.333 31 85s47.334 34 80.001 34s60 -11.333 82 -34s33 -51 33 -85z" />
    <glyph glyph-name="uni0640" unicode="&#x640;" horiz-adv-x="270" 
d="M320 -20h-370v144h370v-144z" />
    <glyph glyph-name="uni0653" unicode="&#x653;" horiz-adv-x="304" 
 />
    <glyph glyph-name="uni0654" unicode="&#x654;" horiz-adv-x="280" 
 />
    <glyph glyph-name="uni0655" unicode="&#x655;" horiz-adv-x="280" 
 />
    <glyph glyph-name="uni0660" unicode="&#x660;" horiz-adv-x="510" 
d="M254 726c33.333 0 61 -11.667 83 -35s33 -52.333 33 -87s-11 -63.667 -33 -87s-49.667 -35 -83 -35s-60.666 11.667 -81.999 35s-32 52.333 -32 87s10.667 63.667 32 87s48.666 35 81.999 35z" />
    <glyph glyph-name="uni0661" unicode="&#x661;" horiz-adv-x="422" 
d="M140 -20v1646h142v-1646h-142z" />
    <glyph glyph-name="uni0662" unicode="&#x662;" horiz-adv-x="1164" 
d="M282 -20l-141.999 0.000976562v1646h142v-372c0 -92 29 -170 87 -234s129 -96 213 -96c53.333 0 103 14.667 149 44s82.667 69.333 110 120s41 106 41 166v372h142v-372c0 -130.667 -43 -242.334 -129 -335.001s-190.333 -139 -313 -139s-227.334 46.667 -314.001 140
c-6.66699 6.66699 -2 0 14 -20v-920z" />
    <glyph glyph-name="uni0663" unicode="&#x663;" horiz-adv-x="1270" 
d="M284 -20l-144 0.000976562v1646h144v-702c40 0 83 14.667 129 44s82.667 69.333 110 120s41 106 41 166v372h142v-372c0 -130.667 -41.333 -240 -124 -328c0 -1.33301 4 2 12 10c18.667 -8 52.334 -12 101.001 -12s96 14.667 142 44s82.667 69.333 110 120s41 106 41 166
v372h142v-372c0 -130.667 -43 -242.334 -129 -335.001s-190.333 -139 -313 -139c-82.667 0 -153.334 18.667 -212.001 56c-58.667 -37.333 -122.667 -56 -192 -56v-800z" />
    <glyph glyph-name="uni0664" unicode="&#x664;" horiz-adv-x="1268" 
d="M620 -8c-138.667 0 -253.333 47.335 -344 142.002s-136 205 -136 331s50.667 231 152 315c46.667 40 86.667 66 120 78c-10.667 5.33301 -30 20 -58 44c-94.667 77.333 -142 174.666 -142 291.999s40 218.666 120 303.999c88 89.333 196 134 324 134
s240 -36.667 336 -110c49.333 -37.333 85.333 -76 108 -116l36 -60l-124 -76l-36 64c-5.33301 11.333 -19 27.333 -41 48c-74.667 72 -162 108 -262 108c-70 0 -129 -14.333 -177 -43s-83.667 -65 -107 -109s-35 -90 -35 -138c0 -76 29.333 -138.667 88 -188
c76 -62.667 191.333 -94 346 -94l2 -142c-189.333 0 -325.333 -35.333 -408 -106c-65.333 -56 -98 -126.333 -98 -211s31 -159.667 93 -225s144.667 -98 248 -98s193 29.333 269 88c37.333 28 68.666 62.667 93.999 104l120 -76c-29.333 -53.333 -70.666 -100 -123.999 -140
c-104 -80 -225.333 -120 -364 -120z" />
    <glyph glyph-name="uni0665" unicode="&#x665;" horiz-adv-x="1346" 
d="M673 1274c-106 0 -197.666 -45.667 -274.999 -137s-116 -202.333 -116 -333c0 -85.333 17.667 -164 53 -236s82.666 -129 141.999 -171s120 -63 182 -63c115.333 0 211.333 45.667 288 137s115 202.333 115 333s-38.333 241.667 -115 333s-168 137 -274 137zM140.001 803
c0 167.333 50 311 150 431c110 121.333 237.333 182 382 182s272 -60.667 382 -182c101.333 -120 152 -263.667 152 -431s-50.667 -310.333 -152 -429c-107.333 -121.333 -235 -182 -383 -182s-273.667 60 -377 180c-102.667 120 -154 263.667 -154 431z" />
    <glyph glyph-name="uni0666" unicode="&#x666;" horiz-adv-x="1274" 
d="M992 1484h-852v142h994v-1646h-142v1504z" />
    <glyph glyph-name="uni0667" unicode="&#x667;" horiz-adv-x="1550" 
d="M708 -20l-576 1646h152l492 -1410l490 1410h152l-574 -1646h-136z" />
    <glyph glyph-name="uni0668" unicode="&#x668;" horiz-adv-x="1550" 
d="M844 1626l574 -1646h-152l-490 1410l-492 -1410h-152l576 1646h136z" />
    <glyph glyph-name="uni0669" unicode="&#x669;" horiz-adv-x="1172" 
d="M888 1484h-148c-126.667 0 -234.667 -45 -324 -135s-134 -198.333 -134 -325s44.667 -235 134 -325s197.333 -135 324 -135h84c34.667 0 56 -1.33301 64 -4v924zM888 380c0 28 -21.333 42 -64 42h-84c-164 0 -305 59 -423 177s-177 259.667 -177 425s59 307 177 425
s259 177 423 177h292v-1646h-144v400z" />
    <glyph glyph-name="uni066A" unicode="&#x66a;" horiz-adv-x="1400" 
d="M969 118c32.667 0 59.668 7.00195 81.001 21.002s38.666 33 51.999 57s20 53.667 20 89s-13.667 68.333 -41 99s-61 46 -101 46s-73.667 -15.333 -101 -46s-41 -67.334 -41 -110.001s13.667 -79.334 41 -110.001s57.333 -46 90 -46zM979.001 568.002
c76.667 0 142.667 -29 198 -87s83 -127.333 83 -208s-27.667 -149.667 -83 -207s-121.333 -86 -198 -86s-142.334 28.667 -197.001 86s-82 126.333 -82 207s27.333 150 82 208s120.334 87 197.001 87zM420.001 1468c-38.667 0 -71.667 -15.333 -99 -46s-41 -67 -41 -109
s13.667 -78.333 41 -109s60.333 -46 99 -46s72 15.333 100 46s42 67 42 109s-14 78.333 -42 109s-61.333 46 -100 46zM420.001 1020c-77.333 0 -143.333 28.667 -198 86s-82 126.333 -82 207s27.333 149.667 82 207s120.667 86 198 86s143.333 -28.667 198 -86
s82 -126 82 -206c0 -52 -12 -101 -36 -147s-58 -82 -102 -108s-91.333 -39 -142 -39zM1088 1626h160l-950 -1646h-158z" />
    <glyph glyph-name="uni066B" unicode="&#x66b;" horiz-adv-x="512" 
d="M134 106c64 29.333 96 81.332 96 155.999v194h142v-194c0 -89.333 -27.333 -162.666 -82 -219.999c-26.667 -29.333 -62 -51.333 -106 -66z" />
    <glyph glyph-name="uni066C" unicode="&#x66c;" horiz-adv-x="512" 
d="M140 260l0.000976562 194.002h142v-194c0 -44 8.66699 -77.667 26 -101c17.333 -24 32 -37.667 44 -41c4 -2.66699 12.667 -7.33398 26 -14.001l-52 -130c-42.667 14.667 -77.334 36.667 -104.001 66c-54.667 57.333 -82 130.666 -82 219.999z" />
    <glyph glyph-name="uni066D" unicode="&#x66d;" horiz-adv-x="704" 
d="M348 498c9.33301 0 25.332 -11.3311 47.999 -33.998h-4l8 -2l6 -2v1l36 -7c16.667 -10.667 25 -25.667 25 -45l-13 -7c4.66699 1.33301 9 2.66602 13 3.99902c0 -2.66699 -0.666992 -5 -2 -7l4 8c15.333 4.66699 27 7 35 7s20 -4 36 -12
c19.333 -16.667 26.666 -33.334 21.999 -50.001l-6 -26l-2 -22c0 -21.333 -13.333 -38.666 -40 -51.999c-8 -4 -17.333 -6.66699 -28 -8l-28 -6c-1.33301 0 -2 -0.666992 -2 -2s-0.333008 -3 -1 -5l53 -51c8 -12 12 -23.667 12 -35c0 -23.333 -20 -44.333 -60 -63l-42 -18
c-38.667 -6 -64 0 -76 18l-32 50l-2 2c-1.33301 1.33301 -0.666016 -1.33398 2.00098 -8.00098c-3.33301 -5.33301 -6 -8.66602 -8 -9.99902l-18 -16c-6.66699 -4 -14 -7.33301 -22 -10c-30 -2 -55.333 7.33301 -76 28c-6.66699 9.33301 -12 19.333 -16 30l-18 52
c-5.33301 20 -6 32 -2 36c0 3.33301 7.66699 9.66602 23 18.999c-6 4.66699 -13.333 18.334 -22 41.001c-11.333 29.333 4.66699 72.666 48 129.999c6 8 15.333 15 28 21s22.334 3 29.001 -9l12 -14l12 -18l18 30l8 20l16 26c8 10.667 16.667 16 26 16zM468.999 407.002
c-0.666992 0 -1.33301 -0.333008 -2 -1v3l5 3zM455 380.002c0 -0.666992 -0.333008 -1.33301 -1 -2zM406 461.003c-1.33301 1.33301 -4.66699 2.33301 -10 3l4 -2zM309.999 130.003c1.33301 -2 3.33301 -5.33301 6 -10c-4 0 -6 3.33301 -6 10z" />
    <glyph glyph-name="uni0670" unicode="&#x670;" 
 />
    <glyph glyph-name="uni0671" unicode="&#x671;" horiz-adv-x="422" 
d="M52 1848v256h104v-42c8 8 36 12 84 12s90.333 -18 127 -54s55 -79.333 55 -130v-144h-402v102h32zM156 1848h162v42c0 22.667 -8 42 -24 58s-33 24 -51 24s-33.333 -3.66699 -46 -11c-27.333 -16 -41 -39.667 -41 -71v-42zM140 -20v1646h142v-1646h-142z" />
    <glyph glyph-name="uni06A9" unicode="&#x6a9;" horiz-adv-x="1968" 
d="M1686 124l0.000976562 247.999c0 126.667 -44.667 234 -134 322s-194.666 133.333 -315.999 136h-316v168l720 656l-10 -206l-526 -476h132c161.333 -2.66699 300.333 -62 417 -178s175 -256.667 175 -422v-392h-876c-105.333 1.33301 -205.333 18.666 -300 51.999
c-98.667 30.667 -186.334 76.334 -263.001 137.001s-137.334 132 -182.001 214s-67 169.667 -67 263v358h142v-358c0 -141.333 66.333 -263.666 199 -366.999s293.667 -155 483 -155h722z" />
    <glyph glyph-name="uni06AF" unicode="&#x6af;" horiz-adv-x="1968" 
d="M1686 124l0.000976562 247.999c0 126.667 -44.667 234 -134 322s-194.666 133.333 -315.999 136h-316v168l720 656l-10 -206l-526 -476h132c161.333 -2.66699 300.333 -62 417 -178s175 -256.667 175 -422v-392h-876c-105.333 1.33301 -205.333 18.666 -300 51.999
c-98.667 30.667 -186.334 76.334 -263.001 137.001s-137.334 132 -182.001 214s-67 169.667 -67 263v358h142v-358c0 -141.333 66.333 -263.666 199 -366.999s293.667 -155 483 -155h722zM1470 1794l-10 -206l-574 -520l-148 60z" />
    <glyph glyph-name="uni06C1" unicode="&#x6c1;" 
 />
    <glyph glyph-name="uni06CC" unicode="&#x6cc;" horiz-adv-x="1606" 
d="M1322 612l-527.998 -0.00195312v218c0 122.667 45 226 135 310s202.333 128 337 132v-142c-130 -5.33301 -225.333 -55.666 -286 -150.999c-29.333 -46 -44 -95.667 -44 -149v-76h530v-774h-514c-105.333 1.33301 -205.333 18.666 -300 51.999
c-98.667 30.667 -186.334 76.334 -263.001 137.001s-137.334 132 -182.001 214s-67 169.667 -67 263v358h142v-358c0 -141.333 66.333 -263.666 199 -366.999s293.667 -155 483 -155h358v488z" />
    <glyph glyph-name="uni06F0" unicode="&#x6f0;" horiz-adv-x="510" 
d="M254 726c33.333 0 61 -11.667 83 -35s33 -52.333 33 -87s-11 -63.667 -33 -87s-49.667 -35 -83 -35s-60.666 11.667 -81.999 35s-32 52.333 -32 87s10.667 63.667 32 87s48.666 35 81.999 35z" />
    <glyph glyph-name="uni06F1" unicode="&#x6f1;" horiz-adv-x="422" 
d="M140 -20v1646h142v-1646h-142z" />
    <glyph glyph-name="uni06F2" unicode="&#x6f2;" horiz-adv-x="1164" 
d="M282 -20l-141.999 0.000976562v1646h142v-372c0 -92 29 -170 87 -234s129 -96 213 -96c53.333 0 103 14.667 149 44s82.667 69.333 110 120s41 106 41 166v372h142v-372c0 -130.667 -43 -242.334 -129 -335.001s-190.333 -139 -313 -139s-227.334 46.667 -314.001 140
c-6.66699 6.66699 -2 0 14 -20v-920z" />
    <glyph glyph-name="uni06F3" unicode="&#x6f3;" horiz-adv-x="1270" 
d="M284 -20l-144 0.000976562v1646h144v-702c40 0 83 14.667 129 44s82.667 69.333 110 120s41 106 41 166v372h142v-372c0 -130.667 -41.333 -240 -124 -328c0 -1.33301 4 2 12 10c18.667 -8 52.334 -12 101.001 -12s96 14.667 142 44s82.667 69.333 110 120s41 106 41 166
v372h142v-372c0 -130.667 -43 -242.334 -129 -335.001s-190.333 -139 -313 -139c-82.667 0 -153.334 18.667 -212.001 56c-58.667 -37.333 -122.667 -56 -192 -56v-800z" />
    <glyph glyph-name="uni06F4" unicode="&#x6f4;" horiz-adv-x="1164" 
d="M1024 1254c0 -130.667 -42.998 -242.333 -128.998 -335s-190.333 -139 -313 -139s-227.334 46.667 -314.001 140c-6.66699 6.66699 -2 0 14 -20v-920h-142v1646h142v-372c0 -92 29 -170 87 -234s129 -96 213 -96c53.333 0 103 14.667 149 44s82.667 69.333 110 120
s41 106 41 166v208c-160.667 0 -265.334 -78.667 -314.001 -236l-146 2c36.667 130 96 227.333 178 292c58.667 45.333 124.667 75.333 198 90c34.667 6.66699 62.667 10 84 10v6h142v-372z" />
    <glyph glyph-name="uni06F5" unicode="&#x6f5;" horiz-adv-x="1346" 
d="M504 380c54.667 43.333 90.6689 109.332 108.002 197.999h148c14.667 -70.667 42.667 -128.667 84 -174l12 -14c29.333 18.667 60.666 47.334 93.999 86.001s60.333 87 81 145s31 119 31 183c0 130.667 -38.333 241.667 -115 333s-168 137 -274 137
s-197.667 -45.667 -275 -137s-116 -202.333 -116 -333c0 -85.333 17.667 -164 53 -236s82.333 -129.333 141 -172c13.333 -6.66699 22.666 -12 27.999 -16zM540.002 217.999l-26.001 0.000976562l-22 10c-78.667 33.333 -146 82.666 -202 147.999
c-100 117.333 -150 259.666 -150 426.999s50 311 150 431c110 121.333 237.333 182 382 182s272 -60.667 382 -182c101.333 -120 152 -263.667 152 -431s-50.667 -310.333 -152 -429c-50.667 -57.333 -106.667 -100.666 -168 -129.999
c-5.33301 -5.33301 -21.333 -12 -48 -20c-36 28 -67.333 54.667 -94 80c-29.333 32 -48.666 56 -57.999 72c-8 -16 -27.333 -40.333 -58 -73s-60 -57.667 -88 -75v-10z" />
    <glyph glyph-name="uni06F6" unicode="&#x6f6;" horiz-adv-x="1256" 
d="M284 1388c0 -90 26.332 -165.667 78.999 -227c52.667 -62 123 -93 211 -93c48 0 98.667 15.333 152 46s95.333 76.667 126 138l122 370h150l-116 -362c-8 -22.667 -16.667 -44 -26 -64l-402 -1216h-152l324 976c28 20 38 28.667 30 26c-66.667 -38.667 -129 -58 -187 -58
c-193.333 0 -329.666 83.333 -408.999 250c-30.667 65.333 -46 128 -46 188s8 116 24 168l32 92h148l-42 -136c-12 -37.333 -18 -70 -18 -98z" />
    <glyph glyph-name="uni06F7" unicode="&#x6f7;" horiz-adv-x="1550" 
d="M708 -20l-576 1646h152l492 -1410l490 1410h152l-574 -1646h-136z" />
    <glyph glyph-name="uni06F8" unicode="&#x6f8;" horiz-adv-x="1550" 
d="M844 1626l574 -1646h-152l-490 1410l-492 -1410h-152l576 1646h136z" />
    <glyph glyph-name="uni06F9" unicode="&#x6f9;" horiz-adv-x="1172" 
d="M888 1484h-148c-126.667 0 -234.667 -45 -324 -135s-134 -198.333 -134 -325s44.667 -235 134 -325s197.333 -135 324 -135h84c34.667 0 56 -1.33301 64 -4v924zM888 380c0 28 -21.333 42 -64 42h-84c-164 0 -305 59 -423 177s-177 259.667 -177 425s59 307 177 425
s259 177 423 177h292v-1646h-144v400z" />
    <glyph glyph-name="endash" unicode="&#x2013;" horiz-adv-x="594" 
 />
    <glyph glyph-name="emdash" unicode="&#x2014;" horiz-adv-x="762" 
 />
    <glyph glyph-name="quoteleft" unicode="&#x2018;" horiz-adv-x="620" 
d="M380 1220h100v-340h-340v440h100v100h100v100h140v-140h-100v-160z" />
    <glyph glyph-name="quoteright" unicode="&#x2019;" horiz-adv-x="620" 
d="M240 1180h-100v340h340v-440h-100v-100h-100v-100h-140v140h100v160z" />
    <glyph glyph-name="quotesinglbase" unicode="&#x201a;" horiz-adv-x="720" 
d="M340 320v200h240v-240h-100v-100h-100v-100h-240v140h100v100h100z" />
    <glyph glyph-name="quotedblleft" unicode="&#x201c;" horiz-adv-x="1120" 
d="M980 1520v-140h-100v-160h100v-340h-340v440h100v100h100v100h140zM380 1220h100v-340h-340v440h100v100h100v100h140v-140h-100v-160z" />
    <glyph glyph-name="quotedblright" unicode="&#x201d;" horiz-adv-x="1120" 
d="M140 880v140h100v160h-100v340h340v-440h-100v-100h-100v-100h-140zM740 1180h-100v340h340v-440h-100v-100h-100v-100h-140v140h100v160z" />
    <glyph glyph-name="quotedblbase" unicode="&#x201e;" horiz-adv-x="1120" 
d="M740 320v200h240v-240h-100v-100h-100v-100h-240v140h100v100h100zM280 280v-100h-100v-60h160v100h100v100h100v160h-160v-200h-100zM340 320v200h240v-240h-100v-100h-100v-100h-240v140h100v100h100z" />
    <glyph glyph-name="bullet" unicode="&#x2022;" horiz-adv-x="920" 
d="M240 1020v100h440v-100h100v-340h-100v-100h-440v100h-100v340h100z" />
    <glyph glyph-name="guilsinglleft" unicode="&#x2039;" horiz-adv-x="680" 
d="M540 190l-408 402l408 406v-200l-206 -204l206 -204v-200z" />
    <glyph glyph-name="guilsinglright" unicode="&#x203a;" horiz-adv-x="682" 
d="M142 190l-2 200l206 204l-206 204l2 200l408 -406z" />
    <glyph glyph-name="fraction" unicode="&#x2044;" horiz-adv-x="960" 
d="M282 -20h-150l546 1646h150z" />
    <glyph glyph-name="trademark" unicode="&#x2122;" horiz-adv-x="1320" 
d="M340 1380h-200v140h640v-100h100v-100h60v100h100v100h140v-640h-140v400h-60v-100h-140v100h-60v-400h-140v500h-160v-500h-140v500z" />
    <glyph glyph-name="minus" unicode="&#x2212;" horiz-adv-x="706" 
d="M454 322c32 0 66.667 10 104 30v-44c0 -4 1.33301 -18.667 4 -44v-12c2.66699 0 4 -9.33301 4 -28v-12c0 -21.333 -13.333 -33.333 -40 -36c-6.66699 -2.66699 -44.667 -4 -114 -4h-22c-94.667 0 -178.667 3.33301 -252 10l4 44c1.33301 8 2 15.333 2 22
c10.667 46.667 26.667 72.667 48 78l138 -2c50.667 -1.33301 92 -2 124 -2z" />
    <glyph glyph-name="uni2215" unicode="&#x2215;" horiz-adv-x="960" 
d="M282 -20h-150l546 1646h150z" />
    <glyph glyph-name="uni2219" unicode="&#x2219;" horiz-adv-x="196" 
 />
    <glyph glyph-name="approxequal" unicode="&#x2248;" horiz-adv-x="1238" 
d="M407 536c-36 0 -74.3311 -42.667 -114.998 -128l-30 -64l-128 60l30 64c64 140 142.667 210 236 210c37.333 0 73.666 -9.33301 108.999 -28s73.666 -44 114.999 -76l101 -77c26 -19.333 53 -29 81 -29c2.66699 0 5.33398 0.666992 8.00098 2
c42.667 9.33301 86.667 63.333 132 162l30 64l128 -60l-28 -64c-32 -70.667 -66.667 -124.667 -104 -162c-52.667 -56 -113 -84 -181 -84c-22 0 -49.333 7 -82 21s-59 28 -79 42s-50.667 37.333 -92 70c-66.667 51.333 -110.334 77 -131.001 77zM791.002 726
c-22 0 -49.3311 7 -81.998 21s-59 28 -79 42s-50.667 37.333 -92 70c-66.667 51.333 -110.334 77 -131.001 77c-36 0 -74.333 -42.667 -115 -128l-30 -64l-128 60l30 64c64 140 142.667 210 236 210c37.333 0 73.666 -9.33301 108.999 -28s73.666 -44 114.999 -76l101 -77
c26 -19.333 53 -29 81 -29c2.66699 0 5.33398 0.666992 8.00098 2c42.667 9.33301 86.667 63.333 132 162l30 64l128 -60l-28 -64c-32 -70.667 -66.667 -124.667 -104 -162c-52.667 -56 -113 -84 -181 -84z" />
    <glyph glyph-name="lessequal" unicode="&#x2264;" horiz-adv-x="820" 
d="M140 -138v158h540v-158h-540zM240 480h-100v140h100v100h100v100h100v100h100v100h140v-240h-100v-100h-100v-100h-100v-60h100v-100h100v-100h100v-240h-140v100h-100v100h-100v100h-100v100z" />
    <glyph glyph-name="greaterequal" unicode="&#x2265;" horiz-adv-x="820" 
d="M140 -138v158h540v-158h-540zM580 380h-100v-100h-100v-100h-100v-100h-140v240h100v100h100v100h100v60h-100v100h-100v100h-100v240h140v-100h100v-100h100v-100h100v-100h100v-140h-100v-100z" />
    <glyph glyph-name="nonmarkingreturn" horiz-adv-x="1282" 
 />
    <glyph glyph-name="_30" horiz-adv-x="366" 
 />
    <glyph glyph-name="_57" horiz-adv-x="366" 
 />
    <glyph glyph-name="_101" horiz-adv-x="584" 
 />
    <glyph glyph-name="_148" horiz-adv-x="1874" 
 />
    <glyph glyph-name="_159" 
 />
    <glyph glyph-name="_170" 
 />
    <glyph glyph-name="glyph184" horiz-adv-x="362" 
d="M368 1690l-394 -126l-28 102l396 126zM384 1548l-396 -124l-26 100l394 126zM254 1310l4.00293 -0.000976562c13.333 2.66699 20 9.33398 20 20.001v166l104 12v-178c0 -26.667 -8.66699 -52 -26 -76c-22.667 -26.667 -51.334 -42.667 -86.001 -48h-52c0 16 -4 20 -12 12
c-26.667 -32 -57.334 -48 -92.001 -48s-62.667 9.33301 -84 28c-28 20 -44.667 46.667 -50 80v90l104 10v-88c0 -2.66699 2.33301 -5.66699 7 -9s9.66699 -5 15 -5h4c14.667 2.66699 22 10 22 22v132l100 10v-114c3.33301 -10.667 10.666 -16 21.999 -16z" />
    <glyph glyph-name="glyph185" horiz-adv-x="270" 
 />
    <glyph glyph-name="glyph186" horiz-adv-x="1134" 
 />
    <glyph glyph-name="glyph187" 
 />
    <glyph glyph-name="_191" 
 />
    <glyph glyph-name="_244" 
 />
    <glyph glyph-name="_255" 
 />
    <glyph glyph-name="_264" 
 />
    <glyph glyph-name="_356" 
 />
    <glyph glyph-name="glyph357" horiz-adv-x="1272" 
 />
    <glyph glyph-name="_358" 
 />
    <glyph glyph-name="_359" 
 />
    <glyph glyph-name="_360" 
 />
    <glyph glyph-name="_363" 
 />
    <glyph glyph-name="_364" 
 />
    <glyph glyph-name="_365" horiz-adv-x="626" 
 />
    <glyph glyph-name="_366" horiz-adv-x="248" 
 />
    <glyph glyph-name="_367" horiz-adv-x="674" 
 />
    <glyph glyph-name="_382" 
 />
    <glyph glyph-name="_383" 
 />
    <glyph glyph-name="_384" 
 />
  </font>
</defs>
</svg>
