<?xml version="1.0" standalone="no"?>
<!DOCTYPE svg PUBLIC "-//W3C//DTD SVG 1.1//EN" "http://www.w3.org/Graphics/SVG/1.1/DTD/svg11.dtd" >
<svg>
<metadata>
Created by FontForge 20090914 at Tue Jun 28 18:45:58 2022
 By www-data
VIP Hakm 2016
</metadata>
<defs>
<font id="VIPHakmThin-VIPHakm" horiz-adv-x="0" >
  <font-face 
    font-family="VIPHakmThin-VIPHakm"
    font-weight="400"
    font-stretch="normal"
    units-per-em="2048"
    panose-1="2 0 5 0 0 0 0 0 0 0"
    ascent="1638"
    descent="-410"
    x-height="1166"
    cap-height="1586"
    bbox="-94 -749.999 2668 2168"
    underline-thickness="300"
    underline-position="-284"
    unicode-range="U+001D-U+FEFC"
  />
<missing-glyph horiz-adv-x="1200" 
d="M1086 1720h-976l488 -770zM20 1780h1160v-1760h-1160v1760zM80 1652v-1514l482 756zM1120 128v1534l-488 -768zM116 80h962l-480 760z" />
    <glyph glyph-name="uniFDF2" unicode="&#xfedf;&#xfee0;&#xfeea;" horiz-adv-x="2374" arabic-form="isolated" 
d="M1636 1852l7.99902 0.000976562c17.333 2.66699 31 9.66699 41 21s15 24.333 15 39v132l24 2v-134c0 -18.667 -6.66699 -36.667 -20 -54s-32 -27.333 -56 -30h-10c-17.333 0 -43.333 10.667 -78 32v-30c-16 -21.333 -36 -33.333 -60 -36h-12
c-18.667 0 -36 6.66699 -52 20c-20 13.333 -31.333 30.666 -34 51.999v50l24 2v-48c2.66699 -17.333 10.667 -30 24 -38c9.33301 -9.33301 22 -14 38 -14h8c17.333 1.33301 31.333 9 42 23s16 27 16 39v96l20 2v-74c8.66699 -34.667 29.334 -52 62.001 -52zM1554 2066v100
l20 2v-102h-20zM741.999 20.001c-156 0 -288.667 55 -398 165s-164 242.667 -164 398s54.667 288 164 398s242 165 398 165h250v-1062h538v1502h64v-1502h536v1502h64v-1566h-1452zM929.999 84.001v996h-188c-137.333 0 -255 -49 -353 -147s-147 -216 -147 -354
s48.333 -255 145 -351s211 -144 343 -144h200z" />
    <glyph glyph-name="uniFEF5" unicode="&#xfedf;&#xfe82;" horiz-adv-x="1414" arabic-form="isolated" 
d="M600 1690c18 0 32.999 -4.33203 44.999 -12.999l41 -31c29.333 -26.667 51.333 -40 66 -40h4c21.333 4 41.333 28.667 60 74l8 16l30 -16l-8 -18c-22.667 -56 -48.667 -88 -78 -96h-16c-20 0 -46.667 14 -80 42s-56.666 42 -69.999 42h-4
c-17.333 -2.66699 -33.333 -21.334 -48 -56.001l-8 -18l-30 16l8 20c18.667 45.333 40.667 71.333 66 78h14zM1170 84.001v1502h64v-1566h-1054v64h990zM639.999 228.001v1106h62v-1106h-62z" />
    <glyph glyph-name="uniFEF6" unicode="&#xfee0;&#xfe82;" horiz-adv-x="1512" arabic-form="final" 
d="M600 1690c18 0 32.999 -4.33203 44.999 -12.999l41 -31c29.333 -26.667 51.333 -40 66 -40h4c21.333 4 41.333 28.667 60 74l8 16l30 -16l-8 -18c-22.667 -56 -48.667 -88 -78 -96h-16c-20 0 -46.667 14 -80 42s-56.666 42 -69.999 42h-4
c-17.333 -2.66699 -33.333 -21.334 -48 -56.001l-8 -18l-30 16l8 20c18.667 45.333 40.667 71.333 66 78h14zM639.999 228.001v1106h62v-1106h-62zM1170 84.001v1502h64v-1502h282v-64h-1336v64h990z" />
    <glyph glyph-name="uniFEF7" unicode="&#xfedf;&#xfe84;" horiz-adv-x="1414" arabic-form="isolated" 
d="M640 228v1106h62v-1106h-62zM554 1704c0 33.333 13 63.002 39 89.002s56.333 39 91 39s64.667 -11.333 90 -34l-12 -38c-2.66699 1.33301 -4.66699 2.66602 -6 3.99902c-20 20 -43 30 -69 30s-48.333 -9.33301 -67 -28s-28 -41 -28 -67s9 -48 27 -66
s38.333 -27.667 61 -29h112v-48h-252v48h52c-25.333 33.333 -38 66.666 -38 99.999zM1170 84.002v1502h64v-1566h-1054v64h990z" />
    <glyph glyph-name="uniFEF8" unicode="&#xfee0;&#xfe84;" horiz-adv-x="1512" arabic-form="final" 
d="M640 228v1106h62v-1106h-62zM554 1704c0 33.333 13 63.002 39 89.002s56.333 39 91 39s64.667 -11.333 90 -34l-12 -38c-2.66699 1.33301 -4.66699 2.66602 -6 3.99902c-20 20 -43 30 -69 30s-48.333 -9.33301 -67 -28s-28 -41 -28 -67s9 -48 27 -66
s38.333 -27.667 61 -29h112v-48h-252v48h52c-25.333 33.333 -38 66.666 -38 99.999zM1170 84.002v1502h64v-1502h282v-64h-1336v64h990z" />
    <glyph glyph-name="uniFEF9" unicode="&#xfedf;&#xfe88;" horiz-adv-x="1414" arabic-form="isolated" 
d="M640 228v1106h62v-1106h-62zM1170 84v1502h64v-1566h-1054v64h990zM536 -188l0.000976562 48h254v-48h-114c-21.333 -1.33301 -41 -11 -59 -29s-27 -39.667 -27 -65s9.33301 -47.333 28 -66s40.667 -28 66 -28s46.666 8.66699 63.999 26c1.33301 0 5.33301 2.66699 12 8
l12 -38c-26.667 -22.667 -57 -34 -91 -34s-64 13 -90 39s-39 55.333 -39 88s13.333 65.667 40 99h-56z" />
    <glyph glyph-name="uniFEFA" unicode="&#xfee0;&#xfe88;" horiz-adv-x="1512" arabic-form="final" 
d="M640 228v1106h62v-1106h-62zM536 -188l0.000976562 48h254v-48h-114c-21.333 -1.33301 -41 -11 -59 -29s-27 -39.667 -27 -65s9.33301 -47.333 28 -66s40.667 -28 66 -28s46.666 8.66699 63.999 26c1.33301 0 5.33301 2.66699 12 8l12 -38
c-26.667 -22.667 -57 -34 -91 -34s-64 13 -90 39s-39 55.333 -39 88s13.333 65.667 40 99h-56zM1170 84v1502h64v-1502h282v-64h-1336v64h990z" />
    <glyph glyph-name="uniFEFB" unicode="&#xfedf;&#xfe8e;" horiz-adv-x="1414" arabic-form="isolated" 
d="M640 228v1106h62v-1106h-62zM1170 84v1502h64v-1566h-1054v64h990z" />
    <glyph glyph-name="uniFEFC" unicode="&#xfee0;&#xfe8e;" horiz-adv-x="1512" arabic-form="final" 
d="M640 228v1106h62v-1106h-62zM1170 84v1502h64v-1502h282v-64h-1336v64h990z" />
    <glyph glyph-name="glyph361" unicode="&#xfe8e;&#x64b;" horiz-adv-x="520" 
d="M366 2028l-318 -102l-8 22l320 102zM382 1886l-320 -100l-6 20l318 102zM242 84h282v-64h-344v1566h62v-1502z" />
    <glyph glyph-name="glyph362" unicode="&#x627;&#x64b;" horiz-adv-x="422" 
d="M370 2028l-318 -102l-8 22l320 102zM386 1886l-320 -100l-6 20l318 102zM180 20v1566h62v-1566h-62z" />
    <glyph glyph-name="uni0621" unicode="&#x621;" horiz-adv-x="1082" arabic-form="isolated" 
d="M250 406c0 -89.333 35.666 -163.666 106.999 -222.999s179 -93 323 -101v2h222v-64h-722v64h208c-42.667 30.667 -68 49.334 -76 56.001c-82.667 69.333 -124 156.666 -124 261.999s36 196.666 108 273.999c80 81.333 179.333 122 298 122s216 -29.333 292 -88l-40 -48
c-82 49.333 -161.5 74 -238.5 74s-142.167 -16.333 -195.5 -49s-93.666 -73.667 -120.999 -123s-41 -102 -41 -158z" />
    <glyph glyph-name="uni0622" unicode="&#x622;" horiz-adv-x="422" arabic-form="isolated" 
d="M134 1900c18 0 32.999 -4.33203 44.999 -12.999l41 -31c29.333 -26.667 51.333 -40 66 -40h4c21.333 4 41.333 28.667 60 74l8 16l30 -16l-8 -18c-22.667 -56 -48.667 -88 -78 -96h-16c-20 0 -46.667 14 -80 42s-56.666 42 -69.999 42h-4
c-17.333 -2.66699 -33.333 -21.334 -48 -56.001l-8 -18l-30 16l8 20c18.667 45.333 40.667 71.333 66 78h14zM179.999 20.001v1566h62v-1566h-62z" />
    <glyph glyph-name="uni0623" unicode="&#x623;" horiz-adv-x="422" arabic-form="isolated" 
d="M116 1914c0 33.333 12.999 63.001 38.999 89.001s56 39 90 39s64.333 -11.333 91 -34l-12 -38c-5.33301 2.66699 -8.66602 4.66699 -9.99902 6c-18.667 18.667 -40.667 28 -66 28s-47.333 -9.33301 -66 -28s-28 -41 -28 -67s9 -48 27 -66s37.667 -27.667 59 -29h114v-48
h-254v48h54c-25.333 33.333 -38 66.666 -38 99.999zM179.999 20.001v1566h62v-1566h-62z" />
    <glyph glyph-name="uni0624" unicode="&#x624;" horiz-adv-x="1172" arabic-form="isolated" 
d="M322 1454c0 33.333 13 63.002 39 89.002s56.333 39 91 39s64.667 -11.333 90 -34l-12 -38c-2.66699 1.33301 -4.66699 2.66602 -6 3.99902c-20 20 -43 30 -69 30s-48.333 -9.33301 -67 -28s-28 -41 -28 -67s9 -48 27 -66s38.333 -27.667 61 -29h112v-48h-252v48h52
c-25.333 33.333 -38 66.666 -38 99.999zM992 -89.998c0 -90.667 -37.333 -167.999 -112 -231.999c-77.333 -62.667 -168 -94 -272 -94c-66.667 0 -128.667 13.333 -186 40s-104 64 -140 112l-18 24l50 38l18 -24c68 -85.333 160 -128 276 -128
c89.333 0 165.333 25.667 228 77s94 113.666 94 186.999v110h-188c-156 0 -288.667 55 -398 165s-164 242.667 -164 398s54.667 288 164 398s242 165 398 165h250v-1236zM930 84.0029v996h-188c-137.333 0 -255 -49 -353 -147s-147 -216 -147 -354s48.333 -255 145 -351
s211 -144 343 -144h200z" />
    <glyph glyph-name="uni0625" unicode="&#x625;" horiz-adv-x="422" arabic-form="isolated" 
d="M80 -188l0.000976562 48h254v-48h-114c-21.333 -1.33301 -41 -11 -59 -29s-27 -39.667 -27 -65s9.33301 -47.333 28 -66s40.667 -28 66 -28s46.666 8.66699 63.999 26c1.33301 0 5.33301 2.66699 12 8l12 -38c-26.667 -22.667 -57 -34 -91 -34s-64 13 -90 39
s-39 55.333 -39 88s13.333 65.667 40 99h-56zM242.001 1586v-1566h-62v1566h62z" />
    <glyph glyph-name="uni0626" unicode="&#x626;" horiz-adv-x="1606" arabic-form="isolated" 
d="M332 1324c0 33.333 12.999 63.001 38.999 89.001s56 39 90 39s64.333 -11.333 91 -34l-12 -38c-5.33301 2.66699 -8.66602 4.66699 -9.99902 6c-18.667 18.667 -40.667 28 -66 28s-47.333 -9.33301 -66 -28s-28 -41 -28 -67s9 -48 27 -66s37.667 -27.667 59 -29h114v-48
h-254v48h54c-25.333 33.333 -38 66.666 -38 99.999zM1362 652.001l-528.001 0.000976562v178c0 112 41 206 123 282s171.667 116 269 120v-62c-46.667 -2.66699 -96.667 -18.334 -150 -47.001s-96.666 -69.334 -129.999 -122.001s-50 -109.667 -50 -171v-116h530v-694h-474
c-208.667 2.66699 -388 62.667 -538 180c-72 58.667 -129 126.334 -171 203.001s-63 157.667 -63 243v318h62v-318c0 -154.667 71 -287 213 -397s311.667 -165 509 -165h398v568z" />
    <glyph glyph-name="uni0627" unicode="&#x627;" horiz-adv-x="422" arabic-form="isolated" 
d="M180 20v1566h62v-1566h-62z" />
    <glyph glyph-name="uni0628" unicode="&#x628;" horiz-adv-x="1706" arabic-form="isolated" 
d="M932 -324v102h78v-102h-78zM1462 84v1062h64v-1126h-574c-208.667 2.66699 -388 62.667 -538 180c-72 58.667 -129 126.334 -171 203.001s-63 157.667 -63 243v318h62v-318c0 -154.667 71 -287 213 -397s311.667 -165 509 -165h498z" />
    <glyph glyph-name="uni0629" unicode="&#x629;" horiz-adv-x="1172" arabic-form="isolated" 
d="M874 1378v102h80v-102h-80zM534 1378v102h80v-102h-80zM742 20c-156 0 -288.667 55 -398 165s-164 242.667 -164 398s54.667 288 164 398s242 165 398 165h250v-1126h-250zM930 84v996h-188c-137.333 0 -255 -49 -353 -147s-147 -216 -147 -354s48.333 -255 145 -351
s211 -144 343 -144h200z" />
    <glyph glyph-name="uni062A" unicode="&#x62a;" horiz-adv-x="1706" arabic-form="isolated" 
d="M1024 1378v102h80v-102h-80zM684 1378v102h80v-102h-80zM1462 84v1062h64v-1126h-574c-208.667 2.66699 -388 62.667 -538 180c-72 58.667 -129 126.334 -171 203.001s-63 157.667 -63 243v318h62v-318c0 -154.667 71 -287 213 -397s311.667 -165 509 -165h498z" />
    <glyph glyph-name="uni062B" unicode="&#x62b;" horiz-adv-x="1706" arabic-form="isolated" 
d="M1024 1378v102h80v-102h-80zM684 1378v102h80v-102h-80zM1462 84v1062h64v-1126h-574c-208.667 2.66699 -388 62.667 -538 180c-72 58.667 -129 126.334 -171 203.001s-63 157.667 -63 243v318h62v-318c0 -154.667 71 -287 213 -397s311.667 -165 509 -165h498zM854 1676
v102h78v-102h-78z" />
    <glyph glyph-name="uni062C" unicode="&#x62c;" horiz-adv-x="1638" arabic-form="isolated" 
d="M638 20c-116 0 -199.663 -13.666 -250.996 -40.999c-64.667 -34.667 -108.334 -89.667 -131.001 -165c-8 -34.667 -12 -68 -12 -100c0 -70.667 22.667 -136 68 -196c65.333 -86.667 168.666 -148.667 309.999 -186l88 -22l-10 -60l-94 26
c-165.333 44 -284 118.667 -356 224c-46.667 67.333 -70 140.666 -70 219.999c0 37.333 5.33301 73.333 16 108c16 65.333 44.333 116 85 152s91.667 62 153 78c56 17.333 146.667 26 272 26h652c-16 40 -24 74.667 -24 104v430c0 137.333 -49.333 254.666 -148 351.999
s-216.334 146 -353.001 146s-254.334 -48.667 -353.001 -146s-148 -214.666 -148 -351.999v-54h-62v54c0 153.333 55 285 165 395s242.667 165 398 165s288 -55 398 -165s165 -241.667 165 -395v-430c0 -38.667 8.66699 -66.667 26 -84l22 -20h12v-64h-818z
M772.004 -321.999v102h78v-102h-78z" />
    <glyph glyph-name="uni062D" unicode="&#x62d;" horiz-adv-x="1638" arabic-form="isolated" 
d="M638 20c-116 0 -199.663 -13.666 -250.996 -40.999c-64.667 -34.667 -108.334 -89.667 -131.001 -165c-8 -34.667 -12 -68 -12 -100c0 -70.667 22.667 -136 68 -196c65.333 -86.667 168.666 -148.667 309.999 -186l88 -22l-10 -60l-94 26
c-165.333 44 -284 118.667 -356 224c-46.667 67.333 -70 140.666 -70 219.999c0 37.333 5.33301 73.333 16 108c16 65.333 44.333 116 85 152s91.667 62 153 78c56 17.333 146.667 26 272 26h652c-16 40 -24 74.667 -24 104v430c0 137.333 -49.333 254.666 -148 351.999
s-216.334 146 -353.001 146s-254.334 -48.667 -353.001 -146s-148 -214.666 -148 -351.999v-54h-62v54c0 153.333 55 285 165 395s242.667 165 398 165s288 -55 398 -165s165 -241.667 165 -395v-430c0 -38.667 8.66699 -66.667 26 -84l22 -20h12v-64h-818z" />
    <glyph glyph-name="uni062E" unicode="&#x62e;" horiz-adv-x="1638" arabic-form="isolated" 
d="M638 20c-116 0 -199.663 -13.666 -250.996 -40.999c-64.667 -34.667 -108.334 -89.667 -131.001 -165c-8 -34.667 -12 -68 -12 -100c0 -70.667 22.667 -136 68 -196c65.333 -86.667 168.666 -148.667 309.999 -186l88 -22l-10 -60l-94 26
c-165.333 44 -284 118.667 -356 224c-46.667 67.333 -70 140.666 -70 219.999c0 37.333 5.33301 73.333 16 108c16 65.333 44.333 116 85 152s91.667 62 153 78c56 17.333 146.667 26 272 26h652c-16 40 -24 74.667 -24 104v430c0 137.333 -49.333 254.666 -148 351.999
s-216.334 146 -353.001 146s-254.334 -48.667 -353.001 -146s-148 -214.666 -148 -351.999v-54h-62v54c0 153.333 55 285 165 395s242.667 165 398 165s288 -55 398 -165s165 -241.667 165 -395v-430c0 -38.667 8.66699 -66.667 26 -84l22 -20h12v-64h-818zM788.004 1386
v102h80v-102h-80z" />
    <glyph glyph-name="uni062F" unicode="&#x62f;" horiz-adv-x="1142" arabic-form="isolated" 
d="M180 20v64.001h720v538c0 137.333 -49 254.666 -147 351.999s-209 146 -333 146v62c141.333 0 267 -55 377 -165s165 -241.667 165 -395v-602h-782z" />
    <glyph glyph-name="uni0630" unicode="&#x630;" horiz-adv-x="1142" arabic-form="isolated" 
d="M514 1378v102h80v-102h-80zM180 20v64.001h720v538c0 137.333 -49 254.666 -147 351.999s-209 146 -333 146v62c141.333 0 267 -55 377 -165s165 -241.667 165 -395v-602h-782z" />
    <glyph glyph-name="uni0631" unicode="&#x631;" horiz-adv-x="680" arabic-form="isolated" 
d="M438 -90l0.000976562 1236h62v-1236c0 -90.667 -37.333 -168 -112 -232c-66.667 -53.333 -136 -83.333 -208 -90v62c57.333 6.66699 114.666 33.334 171.999 80.001s86 106.667 86 180z" />
    <glyph glyph-name="uni0632" unicode="&#x632;" horiz-adv-x="694" arabic-form="isolated" 
d="M434 1368v102h80v-102h-80zM438 -90l0.000976562 1236h62v-1236c0 -90.667 -37.333 -168 -112 -232c-66.667 -53.333 -136 -83.333 -208 -90v62c57.333 6.66699 114.666 33.334 171.999 80.001s86 106.667 86 180z" />
    <glyph glyph-name="uni0633" unicode="&#x633;" horiz-adv-x="2568" arabic-form="isolated" 
d="M1242 1142l64 -0.000976562v-1058h478v1058h62v-1058h480v1062h62v-1126h-1082v-350h-354c-208.667 2.66699 -388 62.667 -538 180c-72 58.667 -129 126.334 -171 203.001s-63 157.667 -63 243v318h62v-318c0 -154.667 71 -287 213 -397s311.667 -165 509 -165h278v1408z
" />
    <glyph glyph-name="uni0634" unicode="&#x634;" horiz-adv-x="2568" arabic-form="isolated" 
d="M1612 1378v102h78v-102h-78zM1952 1378v102h78v-102h-78zM1780 1676v102h80v-102h-80zM1242 1142l64 -0.000976562v-1058h478v1058h62v-1058h480v1062h62v-1126h-1082v-350h-354c-208.667 2.66699 -388 62.667 -538 180c-72 58.667 -129 126.334 -171 203.001
s-63 157.667 -63 243v318h62v-318c0 -154.667 71 -287 213 -397s311.667 -165 509 -165h278v1408z" />
    <glyph glyph-name="uni0635" unicode="&#x635;" horiz-adv-x="2548" arabic-form="isolated" 
d="M1242 1178l62.001 -0.000976562v-292c44 60 78.667 102.667 104 128c109.333 109.333 241.666 164 396.999 164s288 -54.667 398 -164s165 -242 165 -398v-596h-1062v-350h-354c-208.667 2.66699 -388 62.667 -538 180c-72 58.667 -129 126.334 -171 203.001
s-63 157.667 -63 243v318h62v-318c0 -154.667 71 -287 213 -397s311.667 -165 509 -165h278v1444zM1306 83.999h1000v532c0 138.667 -49 256.667 -147 354s-215.667 146 -353 146c-92 0 -176 -22.333 -252 -67s-135.333 -102.667 -178 -174s-66 -147 -70 -227v-564z" />
    <glyph glyph-name="uni0636" unicode="&#x636;" horiz-adv-x="2548" arabic-form="isolated" 
d="M1242 1178l62.001 -0.000976562v-292c44 60 78.667 102.667 104 128c109.333 109.333 241.666 164 396.999 164s288 -54.667 398 -164s165 -242 165 -398v-596h-1062v-350h-354c-208.667 2.66699 -388 62.667 -538 180c-72 58.667 -129 126.334 -171 203.001
s-63 157.667 -63 243v318h62v-318c0 -154.667 71 -287 213 -397s311.667 -165 509 -165h278v1444zM1306 83.999h1000v532c0 138.667 -49 256.667 -147 354s-215.667 146 -353 146c-92 0 -176 -22.333 -252 -67s-135.333 -102.667 -178 -174s-66 -147 -70 -227v-564z
M1774 1378v102h80v-102h-80z" />
    <glyph glyph-name="uni0637" unicode="&#x637;" horiz-adv-x="1634" arabic-form="isolated" 
d="M246 84c54.667 0 82.001 34 82.001 102v1400h62v-700c44 60 78.667 102.667 104 128c109.333 109.333 241.666 164 396.999 164s288 -54.667 398 -164s165 -242 165 -398v-596h-1274v64h66zM390.001 84h1002v532c0 138.667 -49 256.667 -147 354s-215.667 146 -353 146
c-92 0 -176 -22.333 -252 -67s-136.667 -105 -182 -181s-68 -160 -68 -252v-532z" />
    <glyph glyph-name="uni0638" unicode="&#x638;" horiz-adv-x="1634" arabic-form="isolated" 
d="M860 1378v102h80v-102h-80zM246 84c54.667 0 82.001 34 82.001 102v1400h62v-700c44 60 78.667 102.667 104 128c109.333 109.333 241.666 164 396.999 164s288 -54.667 398 -164s165 -242 165 -398v-596h-1274v64h66zM390.001 84h1002v532
c0 138.667 -49 256.667 -147 354s-215.667 146 -353 146c-92 0 -176 -22.333 -252 -67s-136.667 -105 -182 -181s-68 -160 -68 -252v-532z" />
    <glyph glyph-name="uni0639" unicode="&#x639;" horiz-adv-x="1506" arabic-form="isolated" 
d="M326 583c0 155.333 55.002 288.003 165.002 398.003s238.333 165 385 165s268.667 -42.667 366 -128l-8 -76c-94.667 94.667 -210.334 142 -347.001 142s-254 -49.333 -352 -148s-147 -216.334 -147 -353.001s46.667 -252 140 -346s200.666 -145 321.999 -153h476v-64
h-688c-116 0 -199.667 -13.667 -251 -41c-64.667 -34.667 -108.334 -89.667 -131.001 -165c-8 -34.667 -12 -68 -12 -100c0 -70.667 22.667 -136 68 -196c65.333 -86.667 168.666 -148.667 309.999 -186l88 -22l-10 -60l-94 26c-165.333 44 -284 118.667 -356 224
c-46.667 67.333 -70 140.666 -70 219.999c0 37.333 5.33301 73.333 16 108c16 65.333 44.333 116 85 152c62.667 55.333 152.334 88 269.001 98h66c-57.333 46.667 -98.666 82.667 -123.999 108c-110.667 109.333 -166 241.666 -166 396.999z" />
    <glyph glyph-name="uni063A" unicode="&#x63a;" horiz-adv-x="1506" arabic-form="isolated" 
d="M326 583c0 155.333 55.002 288.003 165.002 398.003s238.333 165 385 165s268.667 -42.667 366 -128l-8 -76c-94.667 94.667 -210.334 142 -347.001 142s-254 -49.333 -352 -148s-147 -216.334 -147 -353.001s46.667 -252 140 -346s200.666 -145 321.999 -153h476v-64
h-688c-116 0 -199.667 -13.667 -251 -41c-64.667 -34.667 -108.334 -89.667 -131.001 -165c-8 -34.667 -12 -68 -12 -100c0 -70.667 22.667 -136 68 -196c65.333 -86.667 168.666 -148.667 309.999 -186l88 -22l-10 -60l-94 26c-165.333 44 -284 118.667 -356 224
c-46.667 67.333 -70 140.666 -70 219.999c0 37.333 5.33301 73.333 16 108c16 65.333 44.333 116 85 152c62.667 55.333 152.334 88 269.001 98h66c-57.333 46.667 -98.666 82.667 -123.999 108c-110.667 109.333 -166 241.666 -166 396.999zM842.002 1378v102h80v-102h-80z
" />
    <glyph glyph-name="uni0641" unicode="&#x641;" horiz-adv-x="2254" arabic-form="isolated" 
d="M1262 583c0 155.333 54.667 288 164 398s242 165 398 165h250v-1126h-1122c-208.667 2.66699 -388 62.667 -538 180c-72 58.667 -129 126.334 -171 203.001s-63 157.667 -63 243v318h62v-318c0 -154.667 71 -287 213 -397s311.667 -165 509 -165h590
c-61.333 44 -104 78 -128 102c-109.333 109.333 -164 241.666 -164 396.999zM1724 1376v104h80v-104h-80zM2012 1080h-188c-137.333 0 -255 -49 -353 -147s-147 -216 -147 -354s49.333 -255.667 148 -353c80 -80 174.667 -127.333 284 -142h256v996z" />
    <glyph glyph-name="uni0642" unicode="&#x642;" horiz-adv-x="1686" arabic-form="isolated" 
d="M1024 1376v104h80v-104h-80zM1364 1376v104h80v-104h-80zM1442 20l-188 -0.000976562c-154.667 0 -286.667 55 -396 165s-164 242.667 -164 398s54.667 288 164 398s241.333 165 396 165h252v-1476h-554c-208.667 2.66699 -388 62.667 -538 180
c-72 58.667 -129 126.334 -171 203.001s-63 157.667 -63 243v318h62v-318c0 -154.667 71 -287 213 -397s311.667 -165 509 -165h478v286zM1442 1080h-188.001c-137.333 0 -254.666 -49 -351.999 -147s-146 -216 -146 -354s48 -255 144 -351s210.667 -144 344 -144h198v996z
" />
    <glyph glyph-name="uni0643" unicode="&#x643;" horiz-adv-x="1706" arabic-form="isolated" 
d="M792 1134c0 33.333 12.999 63.001 38.999 89.001s56 39 90 39s64.333 -11.333 91 -34l-12 -38c-5.33301 2.66699 -8.66602 4.66699 -9.99902 6c-18.667 18.667 -40.667 28 -66 28s-47.333 -9.33301 -66 -28s-28 -41 -28 -67s9 -48 27 -66s37.667 -27.667 59 -29h114v-48
h-254v48h54c-25.333 33.333 -38 66.666 -38 99.999zM1462 84.001v1502h64v-1566h-574c-208.667 2.66699 -388 62.667 -538 180c-72 58.667 -129 126.334 -171 203.001s-63 157.667 -63 243v318h62v-318c0 -154.667 71 -287 213 -397s311.667 -165 509 -165h498z" />
    <glyph glyph-name="uni0644" unicode="&#x644;" horiz-adv-x="1386" arabic-form="isolated" 
d="M1142 1586l64 -0.000976562v-1916h-254c-208.667 2.66699 -388 62.667 -538 180c-72 58.667 -129 126.334 -171 203.001s-63 157.667 -63 243v318h62v-318c0 -154.667 71 -287 213 -397s311.667 -165 509 -165h178v1852z" />
    <glyph glyph-name="uni0645" unicode="&#x645;" horiz-adv-x="1728" arabic-form="isolated" 
d="M1055 1166c67.333 0 131.333 -14.999 192 -44.999s113 -71 157 -123c96 -113.333 144 -243.333 144 -390s-36 -270.667 -108 -372l-90 -102c-89.333 -74.667 -187.333 -112 -294 -112c-68 0 -132.667 15.333 -194 46c-37.333 17.333 -71.333 39.333 -102 66l-90 102
c-72 101.333 -108 220.666 -108 357.999c0 69.333 12.667 144.666 38 225.999c-76 -4 -138.667 -22 -188 -54c-53.333 -32 -95 -76 -125 -132s-45 -118 -45 -186v-772h-62v772c0 118.667 39 220.334 117 305.001s173 127 285 127h44c24 44 50.667 82.667 80 116
c96.667 113.333 213 170 349 170zM1055 1104c-119.333 0 -221 -49.665 -305 -148.998s-126 -219.666 -126 -360.999c0 -90.667 19.333 -175.334 58 -254.001s91 -141 157 -187s133 -69 201 -69c128.667 0 235.167 50.167 319.5 150.5s126.5 220.666 126.5 360.999
s-42 260.166 -126 359.499s-185.667 149 -305 149z" />
    <glyph glyph-name="uni0646" unicode="&#x646;" horiz-adv-x="1386" arabic-form="isolated" 
d="M662 1378v102h80v-102h-80zM1142 1146l64 -0.000976562v-1476h-254c-208.667 2.66699 -388 62.667 -538 180c-72 58.667 -129 126.334 -171 203.001s-63 157.667 -63 243v318h62v-318c0 -154.667 71 -287 213 -397s311.667 -165 509 -165h178v1412z" />
    <glyph glyph-name="uni0647" unicode="&#x647;" horiz-adv-x="1172" arabic-form="isolated" 
d="M742 20c-156 0 -288.667 55 -398 165s-164 242.667 -164 398s54.667 288 164 398s242 165 398 165h250v-1126h-250zM930 84v996h-188c-137.333 0 -255 -49 -353 -147s-147 -216 -147 -354s48.333 -255 145 -351s211 -144 343 -144h200z" />
    <glyph glyph-name="uni0648" unicode="&#x648;" horiz-adv-x="1172" arabic-form="isolated" 
d="M992 -90c0 -90.667 -37.333 -167.999 -112 -231.999c-77.333 -62.667 -168 -94 -272 -94c-66.667 0 -128.667 13.333 -186 40s-104 64 -140 112l-18 24l50 38l18 -24c68 -85.333 160 -128 276 -128c89.333 0 165.333 25.667 228 77s94 113.666 94 186.999v110h-188
c-156 0 -288.667 55 -398 165s-164 242.667 -164 398s54.667 288 164 398s242 165 398 165h250v-1236zM930 84.001v996h-188c-137.333 0 -255 -49 -353 -147s-147 -216 -147 -354s48.333 -255 145 -351s211 -144 343 -144h200z" />
    <glyph glyph-name="uni0649" unicode="&#x649;" horiz-adv-x="1606" arabic-form="isolated" 
d="M1362 652l-528.001 0.000976562v178c0 112 41 206 123 282s171.667 116 269 120v-62c-46.667 -2.66699 -96.667 -18.334 -150 -47.001s-96.666 -69.334 -129.999 -122.001s-50 -109.667 -50 -171v-116h530v-694h-474c-208.667 2.66699 -388 62.667 -538 180
c-72 58.667 -129 126.334 -171 203.001s-63 157.667 -63 243v318h62v-318c0 -154.667 71 -287 213 -397s311.667 -165 509 -165h398v568z" />
    <glyph glyph-name="uni064A" unicode="&#x64a;" horiz-adv-x="1606" arabic-form="isolated" 
d="M864 -322v102h78v-102h-78zM1204 -322v102h78v-102h-78zM1362 652l-528.001 0.000976562v178c0 112 41 206 123 282s171.667 116 269 120v-62c-46.667 -2.66699 -96.667 -18.334 -150 -47.001s-96.666 -69.334 -129.999 -122.001s-50 -109.667 -50 -171v-116h530v-694
h-474c-208.667 2.66699 -388 62.667 -538 180c-72 58.667 -129 126.334 -171 203.001s-63 157.667 -63 243v318h62v-318c0 -154.667 71 -287 213 -397s311.667 -165 509 -165h398v568z" />
    <glyph glyph-name="uni064B" unicode="&#xfe70;" horiz-adv-x="390" arabic-form="isolated" 
d="M350 1468l-318 -102l-8 22l320 102zM366 1326l-320 -100l-6 20l318 102z" />
    <glyph glyph-name="uni064C" unicode="&#xfe72;" horiz-adv-x="532" arabic-form="isolated" 
d="M26 1342c30 12 52.3311 18.001 66.998 18.001c31.333 0 50.333 -17.333 57 -52l8 -36c2.66699 -12 8.66699 -22.667 18 -32c10.667 -5.33301 21.334 -8 32.001 -8s28 5.33301 52 16l42 16c-37.333 29.333 -59.666 55 -66.999 77s-11 42.333 -11 61s4.66699 38.667 14 60
c17.333 37.333 44.666 64 81.999 80c17.333 6.66699 35 10 53 10s36.333 -4 55 -12c36 -16 61.333 -42.667 76 -80c5.33301 -18.667 8 -37.334 8 -56.001c0 -49.333 -20.667 -89.333 -62 -120c-21.333 -17.333 -71.333 -32 -150 -44l-32 -14
c-25.333 -10.667 -46 -16 -62 -16s-27.667 2 -35 6s-14.666 9.33301 -21.999 16s-13 23.167 -17 49.5s-12.667 44.5 -26 54.5h-14c-6.66699 0 -26 -5.33301 -58 -16zM373.998 1530c-16 0 -31.999 -3.33398 -47.999 -10.001c-33.333 -12 -56 -34.667 -68 -68
c-8 -18.667 -12 -36 -12 -52s2.66699 -30.667 8 -44c17.333 -53.333 52.666 -80 105.999 -80c17.333 0 34 3.33301 50 10c33.333 13.333 56 36 68 68c8 18.667 12 35.334 12 50.001s-2 30 -6 46c-12 32 -33.333 55.333 -64 70c-14.667 6.66699 -30 10 -46 10z" />
    <glyph glyph-name="uni064D" unicode="&#xfe74;" horiz-adv-x="390" arabic-form="isolated" 
d="M350 -48l-318 -102l-8 22l320 102zM366 -190l-320 -100l-6 20l318 102z" />
    <glyph glyph-name="uni064E" unicode="&#xfe76;" horiz-adv-x="390" arabic-form="isolated" 
d="M366 1326l-320 -100l-6 20l318 102z" />
    <glyph glyph-name="uni064F" unicode="&#xfe78;" horiz-adv-x="380" arabic-form="isolated" 
d="M76 1433c0 42 14 77.667 42 107s61.667 44 101 44s72.666 -14.667 99.999 -44s41 -61.333 41 -96c0 -77.333 -32 -128.666 -96 -153.999l-232 -74l-8 24l152 48c-33.333 21.333 -52.666 34.666 -57.999 39.999c-28 28 -42 63 -42 105zM217 1562
c-34 0 -62.333 -12.668 -85 -38.001s-34 -55.333 -34 -90s11.333 -65 34 -91s51 -39 85 -39s63.667 12.667 89 38c22.667 26.667 34 57.334 34 92.001s-11.333 64.667 -34 90c-25.333 25.333 -55 38 -89 38z" />
    <glyph glyph-name="uni0650" unicode="&#xfe7a;" horiz-adv-x="390" arabic-form="isolated" 
d="M350 -48l-318 -102l-8 22l320 102z" />
    <glyph glyph-name="uni0651" unicode="&#xfe7c;" horiz-adv-x="362" arabic-form="isolated" 
d="M254 1270l8 0.000976562c17.333 1.33301 31 8 41 20s15 25.333 15 40v130l24 4v-134c0 -18.667 -6.66699 -36.667 -20 -54s-32 -27.333 -56 -30h-10c-17.333 0 -43.333 10.667 -78 32v-32c-19.333 -24 -40.833 -36 -64.5 -36s-44.5 7 -62.5 21s-28.333 31 -31 51v50l24 2
v-48c5.33301 -33.333 26 -50 62 -50h8c17.333 1.33301 32 8.66602 44 21.999c9.33301 14.667 14 28 14 40v96l20 2v-74c8 -34.667 28.667 -52 62 -52z" />
    <glyph glyph-name="uni0652" unicode="&#xfe7e;" horiz-adv-x="324" arabic-form="isolated" 
d="M42 1364c0 -34.667 11.332 -65 33.999 -91s51.334 -39 86.001 -39s63.667 13 87 39s35 56.333 35 91s-12 64.667 -36 90s-53 38 -87 38s-62.333 -12.667 -85 -38s-34 -55.333 -34 -90zM19.999 1365c0 42 14 77.333 42 106s61.333 43 100 43s72 -14.333 100 -43
s42 -60.667 42 -96s-6 -64.333 -18 -87s-29.333 -40.667 -52 -54s-50 -20 -82 -20s-62 14.667 -90 44s-42 65 -42 107z" />
    <glyph glyph-name="uni067E" unicode="&#x67e;" horiz-adv-x="858" arabic-form="isolated" 
d="M598 1378v102h80v-102h-80zM258 1378v102h80v-102h-80zM428 1676v102h78v-102h-78zM438 -90l0.000976562 1236h62v-1236c0 -90.667 -37.333 -168 -112 -232c-66.667 -53.333 -136 -83.333 -208 -90v62c57.333 6.66699 114.666 33.334 171.999 80.001s86 106.667 86 180z
" />
    <glyph glyph-name="uni0686" unicode="&#x686;" horiz-adv-x="1638" arabic-form="isolated" 
d="M1112 -322v102h84v-102h-84zM1026 -518v-102h-80v102h80zM772 -322v102h84v-102h-84zM638 20c-116 0 -199.663 -13.666 -250.996 -40.999c-64.667 -34.667 -108.334 -89.667 -131.001 -165c-8 -34.667 -12 -68 -12 -100c0 -70.667 22.667 -136 68 -196
c65.333 -86.667 168.666 -148.667 309.999 -186l88 -22l-10 -60l-94 26c-165.333 44 -284 118.667 -356 224c-46.667 67.333 -70 140.666 -70 219.999c0 37.333 5.33301 73.333 16 108c16 65.333 44.333 116 85 152s91.667 62 153 78c56 17.333 146.667 26 272 26h652
c-16 40 -24 74.667 -24 104v430c0 137.333 -49.333 254.666 -148 351.999s-216.334 146 -353.001 146s-254.334 -48.667 -353.001 -146s-148 -214.666 -148 -351.999v-54h-62v54c0 153.333 55 285 165 395s242.667 165 398 165s288 -55 398 -165s165 -241.667 165 -395v-430
c0 -38.667 8.66699 -66.667 26 -84l22 -20h12v-64h-818z" />
    <glyph glyph-name="uni0698" unicode="&#x698;" horiz-adv-x="1706" arabic-form="isolated" 
d="M1122 -322v102h84v-102h-84zM1036 -518v-102h-80v102h80zM782 -322v102h84v-102h-84zM1462 84v1062h64v-1126h-574c-208.667 2.66699 -388 62.667 -538 180c-72 58.667 -129 126.334 -171 203.001s-63 157.667 -63 243v318h62v-318c0 -154.667 71 -287 213 -397
s311.667 -165 509 -165h498z" />
    <glyph glyph-name="uni06A4" unicode="&#x6a4;" horiz-adv-x="2254" arabic-form="isolated" 
d="M1640 1480v-104h-78v104h78zM1980 1480v-104h-78v104h78zM1730 1674v104h80v-104h-80zM1262 583c0 155.333 54.667 288 164 398s242 165 398 165h250v-1126h-1122c-208.667 2.66699 -388 62.667 -538 180c-72 58.667 -129 126.334 -171 203.001s-63 157.667 -63 243v318
h62v-318c0 -154.667 71 -287 213 -397s311.667 -165 509 -165h590c-61.333 44 -104 78 -128 102c-109.333 109.333 -164 241.666 -164 396.999zM2012 1080h-188c-137.333 0 -255 -49 -353 -147s-147 -216 -147 -354s49.333 -255.667 148 -353
c80 -80 174.667 -127.333 284 -142h256v996z" />
    <glyph glyph-name="uniFB51" unicode="&#x671;" horiz-adv-x="520" arabic-form="final" 
d="M72 1808l0.000976562 256h24v-98c45.333 45.333 86.666 68 123.999 68s70.333 -14 99 -42s43 -62 43 -102v-104h-322v22h32zM96.001 1808h242v82c0 33.333 -12 62 -36 86s-49.667 36 -77 36s-50 -5.66699 -68 -17c-40.667 -25.333 -61 -60.333 -61 -105v-82zM242.001 84
h282v-64h-344v1566h62v-1502z" />
    <glyph glyph-name="uniFB57" unicode="&#x67e;" horiz-adv-x="1804" arabic-form="final" 
d="M1122 -322v102h84v-102h-84zM1036 -518v-102h-80v102h80zM782 -322v102h84v-102h-84zM1462 84v1062h64v-1062h282v-64h-856c-208.667 2.66699 -388 62.667 -538 180c-72 58.667 -129 126.334 -171 203.001s-63 157.667 -63 243v318h62v-318c0 -154.667 71 -287 213 -397
s311.667 -165 509 -165h498z" />
    <glyph glyph-name="uniFB58" unicode="&#x67e;" horiz-adv-x="600" arabic-form="initial" 
d="M248 -518v-102h-78v102h78zM336 -322v102h84v-102h-84zM-4 -322v102h84v-102h-84zM292 1146h62v-1126h-342v64h280v1062z" />
    <glyph glyph-name="uniFB59" unicode="&#x67e;" horiz-adv-x="618" arabic-form="medial" 
d="M438 -322v102h84v-102h-84zM352 -518v-102h-80v102h80zM276 84v1062h64v-1062h282v-64h-626v64h280zM98 -322v102h84v-102h-84z" />
    <glyph glyph-name="uniFB6B" unicode="&#x6a4;" horiz-adv-x="2350" arabic-form="final" 
d="M1640 1480v-104h-78v104h78zM1980 1480v-104h-78v104h78zM1730 1674v104h80v-104h-80zM1262 583c0 155.333 54.667 288 164 398s242 165 398 165h250v-1062h280v-64h-1402c-208.667 2.66699 -388 62.667 -538 180c-72 58.667 -129 126.334 -171 203.001
s-63 157.667 -63 243v318h62v-318c0 -154.667 71 -287 213 -397s311.667 -165 509 -165h590c-61.333 44 -104 78 -128 102c-109.333 109.333 -164 241.666 -164 396.999zM2012 1080h-188c-137.333 0 -255 -49 -353 -147s-147 -216 -147 -354s49.333 -255.667 148 -353
c80 -80 174.667 -127.333 284 -142h256v996z" />
    <glyph glyph-name="uniFB6C" unicode="&#x6a4;" horiz-adv-x="1248" arabic-form="initial" 
d="M986 1480v-104h-78v104h78zM646 1480v-104h-78v104h78zM736 1674v104h80v-104h-80zM256 583c0 155.333 54.667 288.001 164 398.001s241.333 165 396 165h252v-1126h-1072v64h552c-61.333 44 -104 78 -128 102c-109.333 109.333 -164 241.666 -164 396.999zM1004 84.001
l-0.000976562 996h-188c-137.333 0 -254.666 -49 -351.999 -147s-146 -216 -146 -354s48.667 -255.667 146 -353c80 -80 175.333 -127.333 286 -142h254z" />
    <glyph glyph-name="uniFB6D" unicode="&#x6a4;" horiz-adv-x="1342" arabic-form="medial" 
d="M646 1480v-104h-78v104h78zM986 1480v-104h-78v104h78zM-4 20v64.001h552c-61.333 44 -104 78 -128 102c-109.333 109.333 -164 241.666 -164 396.999s54.667 288 164 398s241.333 165 396 165h252v-1062h278v-64h-1350zM736 1674v104h80v-104h-80zM1004 84.001
l-0.000976562 996h-188c-137.333 0 -254.666 -49 -351.999 -147s-146 -216 -146 -354s48.667 -255.667 146 -353c80 -80 175.333 -127.333 286 -142h254z" />
    <glyph glyph-name="uniFB7B" unicode="&#x686;" horiz-adv-x="1674" arabic-form="final" 
d="M1060 -322v102h84v-102h-84zM974 -518v-102h-80v102h80zM720 -322v102h84v-102h-84zM1396 188c0 -69.333 27.3369 -103.999 82.0039 -103.999h200v-64h-1040c-116 0 -199.667 -13.667 -251 -41c-64.667 -34.667 -108.334 -89.667 -131.001 -165
c-8 -34.667 -12 -68 -12 -100c0 -70.667 22.667 -136 68 -196c65.333 -86.667 168.666 -148.667 309.999 -186l88 -22l-10 -60l-94 26c-165.333 44 -284 118.667 -356 224c-46.667 67.333 -70 140.666 -70 219.999c0 37.333 5.33301 73.333 16 108
c16 65.333 44.333 116 85 152s91.667 62 153 78c56 17.333 146.667 26 272 26h652c-16 40 -24 74.667 -24 104v430c0 137.333 -49.333 254.666 -148 351.999s-216.334 146 -353.001 146s-254.334 -48.667 -353.001 -146s-148 -214.666 -148 -351.999v-54h-62v54
c0 153.333 55 285 165 395s242.667 165 398 165s288 -55 398 -165s165 -241.667 165 -395v-430z" />
    <glyph glyph-name="uniFB7C" unicode="&#x686;" horiz-adv-x="1634" arabic-form="initial" 
d="M1332 188l0.00195312 430c0 137.333 -49.333 254.666 -148 351.999s-216.334 146 -353.001 146s-254.334 -48.667 -353.001 -146s-148 -214.666 -148 -351.999v-54h-62v54c0 153.333 55 285 165 395s242.667 165 398 165s288 -55 398 -165s165 -241.667 165 -395v-430
c0 -38.667 8.66699 -66.667 26 -84l22 -20h12v-64h-1458v64h1360c-16 40 -24 74.667 -24 104zM832.002 -518v-102h-78v102h78zM920.002 -322v102h84v-102h-84zM580.002 -322v102h84v-102h-84z" />
    <glyph glyph-name="uniFB7D" unicode="&#x686;" horiz-adv-x="1672" arabic-form="medial" 
d="M920 -322v102h84v-102h-84zM832 -518v-102h-78v102h78zM1394 188c0 -69.333 27.335 -104 82.002 -104h200v-64h-1680v64h1360c-16 40 -24 74.667 -24 104v430c0 137.333 -49.333 254.666 -148 351.999s-216.334 146 -353.001 146s-254.334 -48.667 -353.001 -146
s-148 -214.666 -148 -351.999v-54h-62v54c0 153.333 55 285 165 395s242.667 165 398 165s288 -55 398 -165s165 -241.667 165 -395v-430zM580.002 -322v102h84v-102h-84z" />
    <glyph glyph-name="uniFB8B" unicode="&#x698;" horiz-adv-x="756" arabic-form="final" 
d="M598 1378v102h80v-102h-80zM258 1378v102h80v-102h-80zM428 1676v102h78v-102h-78zM438 -90l0.000976562 1236h62v-1062h260v-64h-260v-110c0 -90.667 -37.333 -168 -112 -232c-66.667 -53.333 -136 -83.333 -208 -90v62c57.333 6.66699 114.666 33.334 171.999 80.001
s86 106.667 86 180z" />
    <glyph glyph-name="uniFB8F" unicode="&#x6a9;" horiz-adv-x="2064" arabic-form="final" 
d="M1726 84l-0.000976562 287.999c0 137.333 -48.667 254 -146 350s-212 145.333 -344 148h-276v112l636 576l-6 -90l-590 -536h236c150.667 -2.66699 280.334 -58 389.001 -166s163 -239.333 163 -394v-288h280v-64h-1116c-208.667 2.66699 -388 62.667 -538 180
c-72 58.667 -129 126.334 -171 203.001s-63 157.667 -63 243v318h62v-318c0 -154.667 71 -287 213 -397s311.667 -165 509 -165h762z" />
    <glyph glyph-name="uniFB90" unicode="&#x6a9;" horiz-adv-x="1284" arabic-form="initial" 
d="M1104 372l-0.000976562 -352h-1108v64h1046v288c0 137.333 -48.667 254 -146 350s-212 145.333 -344 148h-276v110l636 578l-6 -90l-590 -536h236c150.667 -2.66699 280.334 -58 389.001 -166s163 -239.333 163 -394z" />
    <glyph glyph-name="uniFB91" unicode="&#x6a9;" horiz-adv-x="1380" arabic-form="medial" 
d="M-4 20l-0.000976562 64h1046v288c0 137.333 -48.667 254 -146 350s-212 145.333 -344 148h-276v112l636 576l-6 -90l-590 -536h236c150.667 -2.66699 280.334 -58 389.001 -166s163 -239.333 163 -394v-288h280v-64h-1388z" />
    <glyph glyph-name="uniFB93" unicode="&#x6af;" horiz-adv-x="2064" arabic-form="final" 
d="M1726 84l-0.000976562 287.999c0 137.333 -48.667 254 -146 350s-212 145.333 -344 148h-276v112l636 576l-6 -90l-590 -536h236c150.667 -2.66699 280.334 -58 389.001 -166s163 -239.333 163 -394v-288h280v-64h-1116c-208.667 2.66699 -388 62.667 -538 180
c-72 58.667 -129 126.334 -171 203.001s-63 157.667 -63 243v318h62v-318c0 -154.667 71 -287 213 -397s311.667 -165 509 -165h762zM1426 1698l-6 -90l-542 -492l-64 24z" />
    <glyph glyph-name="uniFB94" unicode="&#x6af;" horiz-adv-x="1284" arabic-form="initial" 
d="M742 1698l-6 -90l-542 -492l-64 24zM1104 372l-0.000976562 -352h-1108v64h1046v288c0 137.333 -48.667 254 -146 350s-212 145.333 -344 148h-276v110l636 578l-6 -90l-590 -536h236c150.667 -2.66699 280.334 -58 389.001 -166s163 -239.333 163 -394z" />
    <glyph glyph-name="uniFB95" unicode="&#x6af;" horiz-adv-x="1380" arabic-form="medial" 
d="M742 1698l-6 -90l-542 -492l-64 24zM-4 20l-0.000976562 64h1046v288c0 137.333 -48.667 254 -146 350s-212 145.333 -344 148h-276v112l636 576l-6 -90l-590 -536h236c150.667 -2.66699 280.334 -58 389.001 -166s163 -239.333 163 -394v-288h280v-64h-1388z" />
    <glyph glyph-name="uniFBA7" unicode="&#x6c1;" horiz-adv-x="1172" arabic-form="final" 
d="M742 20c-156 0 -288.667 55 -398 165s-164 242.667 -164 398s54.667 288 164 398s242 165 398 165h250v-1126h-250zM930 84v996h-188c-137.333 0 -255 -49 -353 -147s-147 -216 -147 -354s48.333 -255 145 -351s211 -144 343 -144h200z" />
    <glyph glyph-name="uniFBA8" unicode="&#x6c1;" horiz-adv-x="1458" arabic-form="initial" 
d="M936 422c0 101.333 -34.333 183.333 -103 246s-138 94 -208 94s-139.667 -31.333 -209 -94s-104 -144.667 -104 -246s34.667 -183.333 104 -246c58.667 -54.667 128 -85.334 208 -92.001c80 6.66699 152 39.334 216 98.001s96 138.667 96 240zM-4 20l-0.000976562 64.001
h438c-36 28 -56 43.333 -60 46c-82.667 73.333 -124 170.333 -124 291s40.667 218 122 292s165.333 111 252 111s170.667 -37 252 -111s122 -171.333 122 -292s-40 -217 -120 -289l-64 -48h402v538c0 137.333 -49 254.666 -147 351.999s-215.667 146 -353 146
s-250.666 -44 -339.999 -132l-44 44c100 100 227.667 150 383 150s288 -55 398 -165s165 -241.667 165 -395v-602h-1282z" />
    <glyph glyph-name="uniFBA9" unicode="&#x6c1;" horiz-adv-x="1556" arabic-form="medial" 
d="M-4 20l-0.000976562 64.001h438c-36 28 -56 43.333 -60 46c-82.667 73.333 -124 170.333 -124 291s40.667 218 122 292s165.333 111 252 111s170.667 -37 252 -111s122 -171.333 122 -292s-40 -217 -120 -289l-64 -48h402v538c0 137.333 -49 254.666 -147 351.999
s-215.667 146 -353 146s-250.666 -44 -339.999 -132l-44 44c100 100 227.667 150 383 150s288 -55 398 -165s165 -241.667 165 -395v-538h282v-64h-1564zM935.999 422.001c0 101.333 -34.333 183.333 -103 246s-138 94 -208 94s-139.667 -31.333 -209 -94
s-104 -144.667 -104 -246s34.667 -183.333 104 -246c58.667 -54.667 128 -85.334 208 -92.001c80 6.66699 152 39.334 216 98.001s96 138.667 96 240z" />
    <glyph glyph-name="uniFBAB" unicode="&#x6be;" horiz-adv-x="1270" arabic-form="final" 
 />
    <glyph glyph-name="uniFBAC" unicode="&#x6be;" horiz-adv-x="1248" arabic-form="initial" 
d="M742 20c-156 0 -288.667 55 -398 165s-164 242.667 -164 398s54.667 288 164 398s242 165 398 165h250v-1062h260v-64h-510zM930 84v996h-188c-137.333 0 -255 -49 -353 -147s-147 -216 -147 -354s48.333 -255 145 -351s211 -144 343 -144h200z" />
    <glyph glyph-name="uniFBFD" unicode="&#x6cc;" horiz-adv-x="2220" arabic-form="final" 
d="M1882 20v694c0 68 -15 130 -45 186s-71.333 100.667 -124 134s-109.667 50 -171 50h-116v-1064h-474c-208.667 2.66699 -388 62.667 -538 180c-72 58.667 -129 126.334 -171 203.001s-63 157.667 -63 243v318h62v-318c0 -154.667 71 -287 213 -397s311.667 -165 509 -165
h398v1062h180c112 0 207 -42.333 285 -127s117 -186.334 117 -305.001v-630h280v-64h-342z" />
    <glyph glyph-name="uniFBFE" unicode="&#x6cc;" horiz-adv-x="638" arabic-form="initial" 
d="M40 -322v102h78v-102h-78zM380 -322v102h78v-102h-78zM276 1146h62v-1126h-342v64h280v1062z" />
    <glyph glyph-name="uniFBFF" unicode="&#x6cc;" horiz-adv-x="618" arabic-form="medial" 
d="M98 -322v102h80v-102h-80zM438 -322v102h80v-102h-80zM340 84h282v-64h-626v64h280v1062h64v-1062z" />
    <glyph glyph-name="uniFC5E" unicode="&#xfc5e;" horiz-adv-x="362" arabic-form="isolated" 
d="M-94 1652c30 12 52.3311 18.001 66.998 18.001c31.333 0 50.333 -17.333 57 -52l8 -36c2.66699 -12 8.66699 -22.667 18 -32c10.667 -5.33301 21.334 -8 32.001 -8s28 5.33301 52 16l42 16c-37.333 29.333 -59.666 55 -66.999 77s-11 42.333 -11 61s4.66699 38.667 14 60
c17.333 37.333 44.666 64 81.999 80c17.333 6.66699 35 10 53 10s36.333 -4 55 -12c36 -16 61.333 -42.667 76 -80c5.33301 -18.667 8 -37.334 8 -56.001c0 -49.333 -20.667 -89.333 -62 -120c-21.333 -17.333 -71.333 -32 -150 -44l-32 -14
c-25.333 -10.667 -46 -16 -62 -16s-27.667 2 -35 6s-14.666 9.33301 -21.999 16s-13 23.167 -17 49.5s-12.667 44.5 -26 54.5h-14c-6.66699 0 -26 -5.33301 -58 -16zM253.998 1840c-16 0 -31.999 -3.33398 -47.999 -10.001c-33.333 -12 -56 -34.667 -68 -68
c-8 -18.667 -12 -36 -12 -52s2.66699 -30.667 8 -44c17.333 -53.333 52.666 -80 105.999 -80c17.333 0 34 3.33301 50 10c33.333 13.333 56 36 68 68c8 18.667 12 35.334 12 50.001s-2 30 -6 46c-12 32 -33.333 55.333 -64 70c-14.667 6.66699 -30 10 -46 10zM253.999 1270
l8 0.000976562c17.333 1.33301 31 8 41 20s15 25.333 15 40v130l24 4v-134c0 -18.667 -6.66699 -36.667 -20 -54s-32 -27.333 -56 -30h-10c-17.333 0 -43.333 10.667 -78 32v-32c-19.333 -24 -40.833 -36 -64.5 -36s-44.5 7 -62.5 21s-28.333 31 -31 51v50l24 2v-48
c5.33301 -33.333 26 -50 62 -50h8c17.333 1.33301 32 8.66602 44 21.999c9.33301 14.667 14 28 14 40v96l20 2v-74c8 -34.667 28.667 -52 62 -52z" />
    <glyph glyph-name="uniFC5F" unicode="&#xfc5f;" horiz-adv-x="362" arabic-form="isolated" 
d="M350 1438l-318 -102l-8 22l320 102zM366 1296l-320 -100l-6 20l318 102zM254 1570l8 0.000976562c17.333 1.33301 31 8 41 20s15 25.333 15 40v130l24 4v-134c0 -18.667 -6.66699 -36.667 -20 -54s-32 -27.333 -56 -30h-10c-17.333 0 -43.333 10.667 -78 32v-32
c-19.333 -24 -40.833 -36 -64.5 -36s-44.5 7 -62.5 21s-28.333 31 -31 51v50l24 2v-48c5.33301 -33.333 26 -50 62 -50h8c17.333 1.33301 32 8.66602 44 21.999c9.33301 14.667 14 28 14 40v96l20 2v-74c8 -34.667 28.667 -52 62 -52z" />
    <glyph glyph-name="uniFC60" unicode="&#xfc60;" horiz-adv-x="362" arabic-form="isolated" 
d="M346 1576l-320 -100l-6 20l318 102zM254 1270l8 0.000976562c17.333 1.33301 31 8 41 20s15 25.333 15 40v130l24 4v-134c0 -18.667 -6.66699 -36.667 -20 -54s-32 -27.333 -56 -30h-10c-17.333 0 -43.333 10.667 -78 32v-32c-19.333 -24 -40.833 -36 -64.5 -36
s-44.5 7 -62.5 21s-28.333 31 -31 51v50l24 2v-48c5.33301 -33.333 26 -50 62 -50h8c17.333 1.33301 32 8.66602 44 21.999c9.33301 14.667 14 28 14 40v96l20 2v-74c8 -34.667 28.667 -52 62 -52z" />
    <glyph glyph-name="uniFC61" unicode="&#xfc61;" horiz-adv-x="362" arabic-form="isolated" 
d="M76 1703c0 42 14 77.667 42 107s61.667 44 101 44s72.666 -14.667 99.999 -44s41 -61.333 41 -96c0 -77.333 -32 -128.666 -96 -153.999l-232 -74l-8 24l152 48c-33.333 21.333 -52.666 34.666 -57.999 39.999c-28 28 -42 63 -42 105zM217 1832
c-34 0 -62.333 -12.668 -85 -38.001s-34 -55.333 -34 -90s11.333 -65 34 -91s51 -39 85 -39s63.667 12.667 89 38c22.667 26.667 34 57.334 34 92.001s-11.333 64.667 -34 90c-25.333 25.333 -55 38 -89 38zM254 1270l8 0.000976562c17.333 1.33301 31 8 41 20
s15 25.333 15 40v130l24 4v-134c0 -18.667 -6.66699 -36.667 -20 -54s-32 -27.333 -56 -30h-10c-17.333 0 -43.333 10.667 -78 32v-32c-19.333 -24 -40.833 -36 -64.5 -36s-44.5 7 -62.5 21s-28.333 31 -31 51v50l24 2v-48c5.33301 -33.333 26 -50 62 -50h8
c17.333 1.33301 32 8.66602 44 21.999c9.33301 14.667 14 28 14 40v96l20 2v-74c8 -34.667 28.667 -52 62 -52z" />
    <glyph glyph-name="uniFC62" unicode="&#xfc62;" horiz-adv-x="362" arabic-form="isolated" 
d="M350 1438l-318 -102l-8 22l320 102zM254 1570l8 0.000976562c17.333 1.33301 31 8 41 20s15 25.333 15 40v130l24 4v-134c0 -18.667 -6.66699 -36.667 -20 -54s-32 -27.333 -56 -30h-10c-17.333 0 -43.333 10.667 -78 32v-32c-19.333 -24 -40.833 -36 -64.5 -36
s-44.5 7 -62.5 21s-28.333 31 -31 51v50l24 2v-48c5.33301 -33.333 26 -50 62 -50h8c17.333 1.33301 32 8.66602 44 21.999c9.33301 14.667 14 28 14 40v96l20 2v-74c8 -34.667 28.667 -52 62 -52z" />
    <glyph glyph-name="uniFE82" unicode="&#x622;" horiz-adv-x="520" arabic-form="final" 
d="M128 1900c18 0 32.999 -4.33203 44.999 -12.999l41 -31c29.333 -26.667 51.333 -40 66 -40h4c21.333 4 41.333 28.667 60 74l8 16l30 -16l-8 -18c-22.667 -56 -48.667 -88 -78 -96h-16c-20 0 -46.667 14 -80 42s-56.666 42 -69.999 42h-4
c-17.333 -2.66699 -33.333 -21.334 -48 -56.001l-8 -18l-30 16l8 20c18.667 45.333 40.667 71.333 66 78h14zM241.999 84.001h282v-64h-344v1566h62v-1502z" />
    <glyph glyph-name="uniFE84" unicode="&#x623;" horiz-adv-x="520" arabic-form="final" 
d="M96 1914c0 33.333 12.999 63.001 38.999 89.001s56 39 90 39s64.333 -11.333 91 -34l-12 -38c-5.33301 2.66699 -8.66602 4.66699 -9.99902 6c-18.667 18.667 -40.667 28 -66 28s-47.333 -9.33301 -66 -28s-28 -41 -28 -67s9 -48 27 -66s37.667 -27.667 59 -29h114v-48
h-254v48h54c-25.333 33.333 -38 66.666 -38 99.999zM241.999 84.001h282v-64h-344v1566h62v-1502z" />
    <glyph glyph-name="uniFE86" unicode="&#x624;" horiz-adv-x="1248" arabic-form="final" 
d="M322 1454c0 33.333 13 63.002 39 89.002s56.333 39 91 39s64.667 -11.333 90 -34l-12 -38c-2.66699 1.33301 -4.66699 2.66602 -6 3.99902c-20 20 -43 30 -69 30s-48.333 -9.33301 -67 -28s-28 -41 -28 -67s9 -48 27 -66s38.333 -27.667 61 -29h112v-48h-252v48h52
c-25.333 33.333 -38 66.666 -38 99.999zM992 20.002v-109.999c0 -90.667 -37.333 -168 -112 -232c-77.333 -62.667 -168 -94 -272 -94c-66.667 0 -128.667 13.333 -186 40s-104 64 -140 112l-18 24l50 38l18 -24c68 -85.333 160 -128 276 -128
c89.333 0 165.333 25.667 228 77s94 113.666 94 186.999v110h-188c-156 0 -288.667 55 -398 165s-164 242.667 -164 398s54.667 288 164 398s242 165 398 165h250v-1062h260v-64h-260zM930 84.0029v996h-188c-137.333 0 -255 -49 -353 -147s-147 -216 -147 -354
s48.333 -255 145 -351s211 -144 343 -144h200z" />
    <glyph glyph-name="uniFE88" unicode="&#x625;" horiz-adv-x="520" arabic-form="final" 
d="M180 -186v48.002h252v-48h-112c-22.667 -1.33301 -43 -11 -61 -29s-27 -40 -27 -66s9.33301 -48.333 28 -67s41 -28 67 -28s49 10 69 30c1.33301 1.33301 3.33301 2.66602 6 3.99902l12 -38c-25.333 -22.667 -55.333 -34 -90 -34s-65 13 -91 39s-39 55.667 -39 89
s12.667 66.666 38 99.999h-52zM242 84.002h282v-64h-344v1566h62v-1502z" />
    <glyph glyph-name="uniFE8A" unicode="&#x626;" horiz-adv-x="2220" arabic-form="final" 
d="M196 1454c0 33.333 12.999 63.001 38.999 89.001s56 39 90 39s64.333 -11.333 91 -34l-12 -38c-5.33301 2.66699 -8.66602 4.66699 -9.99902 6c-18.667 18.667 -40.667 28 -66 28s-47.333 -9.33301 -66 -28s-28 -41 -28 -67s9 -48 27 -66s37.667 -27.667 59 -29h114v-48
h-254v48h54c-25.333 33.333 -38 66.666 -38 99.999zM1882 20.001v694c0 68 -15 130 -45 186s-71.333 100.667 -124 134s-109.667 50 -171 50h-116v-1064h-474c-208.667 2.66699 -388 62.667 -538 180c-72 58.667 -129 126.334 -171 203.001s-63 157.667 -63 243v318h62v-318
c0 -154.667 71 -287 213 -397s311.667 -165 509 -165h398v1062h180c112 0 207 -42.333 285 -127s117 -186.334 117 -305.001v-630h280v-64h-342z" />
    <glyph glyph-name="uniFE8B" unicode="&#x626;" horiz-adv-x="520" arabic-form="initial" 
d="M98 1454c0 33.333 12.999 63.001 38.999 89.001s56 39 90 39s64.333 -11.333 91 -34l-12 -38c-5.33301 2.66699 -8.66602 4.66699 -9.99902 6c-18.667 18.667 -40.667 28 -66 28s-47.333 -9.33301 -66 -28s-28 -41 -28 -67s9 -48 27 -66s37.667 -27.667 59 -29h114v-48
h-254v48h54c-25.333 33.333 -38 66.666 -38 99.999zM275.999 1146h64v-1126h-344v64h280v1062z" />
    <glyph glyph-name="uniFE8C" unicode="&#x626;" horiz-adv-x="618" arabic-form="medial" 
d="M188 1454c0 33.333 12.999 63.001 38.999 89.001s56 39 90 39s64.333 -11.333 91 -34l-12 -38c-5.33301 2.66699 -8.66602 4.66699 -9.99902 6c-18.667 18.667 -40.667 28 -66 28s-47.333 -9.33301 -66 -28s-28 -41 -28 -67s9 -48 27 -66s37.667 -27.667 59 -29h114v-48
h-254v48h54c-25.333 33.333 -38 66.666 -38 99.999zM339.999 84.001h282v-64h-626v64h280v1062h64v-1062z" />
    <glyph glyph-name="uniFE8E" unicode="&#x627;" horiz-adv-x="520" arabic-form="final" 
d="M242 84h282v-64h-344v1566h62v-1502z" />
    <glyph glyph-name="uniFE90" unicode="&#x628;" horiz-adv-x="1804" arabic-form="final" 
d="M932 -324v102h78v-102h-78zM1462 84v1062h64v-1062h282v-64h-856c-208.667 2.66699 -388 62.667 -538 180c-72 58.667 -129 126.334 -171 203.001s-63 157.667 -63 243v318h62v-318c0 -154.667 71 -287 213 -397s311.667 -165 509 -165h498z" />
    <glyph glyph-name="uniFE91" unicode="&#x628;" horiz-adv-x="518" arabic-form="initial" 
d="M260 -322v102h78v-102h-78zM276 1146h62v-1126h-342v64h280v1062z" />
    <glyph glyph-name="uniFE92" unicode="&#x628;" horiz-adv-x="618" arabic-form="medial" 
d="M268 -324v102h78v-102h-78zM340 84h282v-64h-626v64h280v1062h64v-1062z" />
    <glyph glyph-name="uniFE94" unicode="&#x629;" horiz-adv-x="1248" arabic-form="final" 
d="M874 1378v102h80v-102h-80zM534 1378v102h80v-102h-80zM742 20c-156 0 -288.667 55 -398 165s-164 242.667 -164 398s54.667 288 164 398s242 165 398 165h250v-1062h260v-64h-510zM930 84v996h-188c-137.333 0 -255 -49 -353 -147s-147 -216 -147 -354
s48.333 -255 145 -351s211 -144 343 -144h200z" />
    <glyph glyph-name="uniFE96" unicode="&#x62a;" horiz-adv-x="1804" arabic-form="final" 
d="M1024 1378v102h80v-102h-80zM704 1378v102h80v-102h-80zM1462 84v1062h64v-1062h282v-64h-856c-208.667 2.66699 -388 62.667 -538 180c-72 58.667 -129 126.334 -171 203.001s-63 157.667 -63 243v318h62v-318c0 -154.667 71 -287 213 -397s311.667 -165 509 -165h498z
" />
    <glyph glyph-name="uniFE97" unicode="&#x62a;" horiz-adv-x="698" arabic-form="initial" 
d="M98 1378v102h80v-102h-80zM438 1378v102h80v-102h-80zM276 1146h62v-1126h-342v64h280v1062z" />
    <glyph glyph-name="uniFE98" unicode="&#x62a;" horiz-adv-x="618" arabic-form="medial" 
d="M98 1378v102h80v-102h-80zM438 1378v102h80v-102h-80zM340 84h282v-64h-626v64h280v1062h64v-1062z" />
    <glyph glyph-name="uniFE9A" unicode="&#x62b;" horiz-adv-x="1804" arabic-form="final" 
d="M1024 1378v102h80v-102h-80zM684 1378v102h80v-102h-80zM1462 84v1062h64v-1062h282v-64h-856c-208.667 2.66699 -388 62.667 -538 180c-72 58.667 -129 126.334 -171 203.001s-63 157.667 -63 243v318h62v-318c0 -154.667 71 -287 213 -397s311.667 -165 509 -165h498z
M854 1676v102h78v-102h-78z" />
    <glyph glyph-name="uniFE9B" unicode="&#x62b;" horiz-adv-x="696" arabic-form="initial" 
d="M98 1376v104h78v-104h-78zM438 1376v104h78v-104h-78zM266 1674v104h80v-104h-80zM276 1146h62v-1126h-342v64h280v1062z" />
    <glyph glyph-name="uniFE9C" unicode="&#x62b;" horiz-adv-x="618" arabic-form="medial" 
d="M98 1378v102h80v-102h-80zM438 1378v102h80v-102h-80zM268 1676v102h78v-102h-78zM340 84h282v-64h-626v64h280v1062h64v-1062z" />
    <glyph glyph-name="uniFE9E" unicode="&#x62c;" horiz-adv-x="1674" arabic-form="final" 
d="M1396 188c0 -69.333 27.3369 -103.999 82.0039 -103.999h200v-64h-1040c-116 0 -199.667 -13.667 -251 -41c-64.667 -34.667 -108.334 -89.667 -131.001 -165c-8 -34.667 -12 -68 -12 -100c0 -70.667 22.667 -136 68 -196c65.333 -86.667 168.666 -148.667 309.999 -186
l88 -22l-10 -60l-94 26c-165.333 44 -284 118.667 -356 224c-46.667 67.333 -70 140.666 -70 219.999c0 37.333 5.33301 73.333 16 108c16 65.333 44.333 116 85 152s91.667 62 153 78c56 17.333 146.667 26 272 26h652c-16 40 -24 74.667 -24 104v430
c0 137.333 -49.333 254.666 -148 351.999s-216.334 146 -353.001 146s-254.334 -48.667 -353.001 -146s-148 -214.666 -148 -351.999v-54h-62v54c0 153.333 55 285 165 395s242.667 165 398 165s288 -55 398 -165s165 -241.667 165 -395v-430zM772.004 -321.999v102h78v-102
h-78z" />
    <glyph glyph-name="uniFE9F" unicode="&#x62c;" horiz-adv-x="1634" arabic-form="initial" 
d="M770 -322v102h78v-102h-78zM1332 188l0.00195312 430c0 137.333 -49.333 254.666 -148 351.999s-216.334 146 -353.001 146s-254.334 -48.667 -353.001 -146s-148 -214.666 -148 -351.999v-54h-62v54c0 153.333 55 285 165 395s242.667 165 398 165s288 -55 398 -165
s165 -241.667 165 -395v-430c0 -38.667 8.66699 -66.667 26 -84l22 -20h12v-64h-1458v64h1360c-16 40 -24 74.667 -24 104z" />
    <glyph glyph-name="uniFEA0" unicode="&#x62c;" horiz-adv-x="1672" arabic-form="medial" 
d="M1394 188c0 -69.333 27.335 -104 82.002 -104h200v-64h-1680v64h1360c-16 40 -24 74.667 -24 104v430c0 137.333 -49.333 254.666 -148 351.999s-216.334 146 -353.001 146s-254.334 -48.667 -353.001 -146s-148 -214.666 -148 -351.999v-54h-62v54
c0 153.333 55 285 165 395s242.667 165 398 165s288 -55 398 -165s165 -241.667 165 -395v-430zM770.002 -322v102h78v-102h-78z" />
    <glyph glyph-name="uniFEA2" unicode="&#x62d;" horiz-adv-x="1674" arabic-form="final" 
d="M1396 188c0 -69.333 27.3369 -103.999 82.0039 -103.999h200v-64h-1040c-116 0 -199.667 -13.667 -251 -41c-64.667 -34.667 -108.334 -89.667 -131.001 -165c-8 -34.667 -12 -68 -12 -100c0 -70.667 22.667 -136 68 -196c65.333 -86.667 168.666 -148.667 309.999 -186
l88 -22l-10 -60l-94 26c-165.333 44 -284 118.667 -356 224c-46.667 67.333 -70 140.666 -70 219.999c0 37.333 5.33301 73.333 16 108c16 65.333 44.333 116 85 152s91.667 62 153 78c56 17.333 146.667 26 272 26h652c-16 40 -24 74.667 -24 104v430
c0 137.333 -49.333 254.666 -148 351.999s-216.334 146 -353.001 146s-254.334 -48.667 -353.001 -146s-148 -214.666 -148 -351.999v-54h-62v54c0 153.333 55 285 165 395s242.667 165 398 165s288 -55 398 -165s165 -241.667 165 -395v-430z" />
    <glyph glyph-name="uniFEA3" unicode="&#x62d;" horiz-adv-x="1634" arabic-form="initial" 
d="M1332 188l0.00195312 430c0 137.333 -49.333 254.666 -148 351.999s-216.334 146 -353.001 146s-254.334 -48.667 -353.001 -146s-148 -214.666 -148 -351.999v-54h-62v54c0 153.333 55 285 165 395s242.667 165 398 165s288 -55 398 -165s165 -241.667 165 -395v-430
c0 -38.667 8.66699 -66.667 26 -84l22 -20h12v-64h-1458v64h1360c-16 40 -24 74.667 -24 104z" />
    <glyph glyph-name="uniFEA4" unicode="&#x62d;" horiz-adv-x="1672" arabic-form="medial" 
d="M1394 188c0 -69.333 27.335 -104 82.002 -104h200v-64h-1680v64h1360c-16 40 -24 74.667 -24 104v430c0 137.333 -49.333 254.666 -148 351.999s-216.334 146 -353.001 146s-254.334 -48.667 -353.001 -146s-148 -214.666 -148 -351.999v-54h-62v54
c0 153.333 55 285 165 395s242.667 165 398 165s288 -55 398 -165s165 -241.667 165 -395v-430z" />
    <glyph glyph-name="uniFEA6" unicode="&#x62e;" horiz-adv-x="1674" arabic-form="final" 
d="M788 1386v102h80v-102h-80zM1396 188c0 -69.333 27.3369 -103.999 82.0039 -103.999h200v-64h-1040c-116 0 -199.667 -13.667 -251 -41c-64.667 -34.667 -108.334 -89.667 -131.001 -165c-8 -34.667 -12 -68 -12 -100c0 -70.667 22.667 -136 68 -196
c65.333 -86.667 168.666 -148.667 309.999 -186l88 -22l-10 -60l-94 26c-165.333 44 -284 118.667 -356 224c-46.667 67.333 -70 140.666 -70 219.999c0 37.333 5.33301 73.333 16 108c16 65.333 44.333 116 85 152s91.667 62 153 78c56 17.333 146.667 26 272 26h652
c-16 40 -24 74.667 -24 104v430c0 137.333 -49.333 254.666 -148 351.999s-216.334 146 -353.001 146s-254.334 -48.667 -353.001 -146s-148 -214.666 -148 -351.999v-54h-62v54c0 153.333 55 285 165 395s242.667 165 398 165s288 -55 398 -165s165 -241.667 165 -395v-430
z" />
    <glyph glyph-name="uniFEA7" unicode="&#x62e;" horiz-adv-x="1634" arabic-form="initial" 
d="M1332 188l0.00195312 430c0 137.333 -49.333 254.666 -148 351.999s-216.334 146 -353.001 146s-254.334 -48.667 -353.001 -146s-148 -214.666 -148 -351.999v-54h-62v54c0 153.333 55 285 165 395s242.667 165 398 165s288 -55 398 -165s165 -241.667 165 -395v-430
c0 -38.667 8.66699 -66.667 26 -84l22 -20h12v-64h-1458v64h1360c-16 40 -24 74.667 -24 104zM786.002 1386v102h80v-102h-80z" />
    <glyph glyph-name="uniFEA8" unicode="&#x62e;" horiz-adv-x="1672" arabic-form="medial" 
d="M1394 188c0 -69.333 27.335 -104 82.002 -104h200v-64h-1680v64h1360c-16 40 -24 74.667 -24 104v430c0 137.333 -49.333 254.666 -148 351.999s-216.334 146 -353.001 146s-254.334 -48.667 -353.001 -146s-148 -214.666 -148 -351.999v-54h-62v54
c0 153.333 55 285 165 395s242.667 165 398 165s288 -55 398 -165s165 -241.667 165 -395v-430zM786.002 1386v102h80v-102h-80z" />
    <glyph glyph-name="uniFEAA" unicode="&#x62f;" horiz-adv-x="1240" arabic-form="final" 
d="M180 20v64.001h720v538c0 137.333 -49 254.666 -147 351.999s-209 146 -333 146v62c141.333 0 267 -55 377 -165s165 -241.667 165 -395v-538h282v-64h-1064z" />
    <glyph glyph-name="uniFEAC" unicode="&#x630;" horiz-adv-x="1240" arabic-form="final" 
d="M180 20v64.001h720v538c0 137.333 -49 254.666 -147 351.999s-209 146 -333 146v62c141.333 0 267 -55 377 -165s165 -241.667 165 -395v-538h282v-64h-1064zM514 1378v102h80v-102h-80z" />
    <glyph glyph-name="uniFEAE" unicode="&#x631;" horiz-adv-x="756" arabic-form="final" 
d="M438 -90l0.000976562 1236h62v-1062h260v-64h-260v-110c0 -90.667 -37.333 -168 -112 -232c-66.667 -53.333 -136 -83.333 -208 -90v62c57.333 6.66699 114.666 33.334 171.999 80.001s86 106.667 86 180z" />
    <glyph glyph-name="uniFEB0" unicode="&#x632;" horiz-adv-x="756" arabic-form="final" 
d="M434 1368v102h80v-102h-80zM438 -90l0.000976562 1236h62v-1062h260v-64h-260v-110c0 -90.667 -37.333 -168 -112 -232c-66.667 -53.333 -136 -83.333 -208 -90v62c57.333 6.66699 114.666 33.334 171.999 80.001s86 106.667 86 180z" />
    <glyph glyph-name="uniFEB2" unicode="&#x633;" horiz-adv-x="2664" arabic-form="final" 
d="M1242 1142l64 -0.000976562v-1058h478v1058h62v-1058h480v1062h62v-1062h280v-64h-1362v-350h-354c-208.667 2.66699 -388 62.667 -538 180c-72 58.667 -129 126.334 -171 203.001s-63 157.667 -63 243v318h62v-318c0 -154.667 71 -287 213 -397s311.667 -165 509 -165
h278v1408z" />
    <glyph glyph-name="uniFEB3" unicode="&#x633;" horiz-adv-x="1602" arabic-form="initial" 
d="M276 84v1058h64v-1058h478v1058h62v-1058h480v1058h62v-1122h-1426v64h280z" />
    <glyph glyph-name="uniFEB4" unicode="&#x633;" horiz-adv-x="1698" arabic-form="medial" 
d="M-4 20v64h280v1058h64v-1058h478v1058h62v-1058h480v1062h62v-1062h280v-64h-1706z" />
    <glyph glyph-name="uniFEB6" unicode="&#x634;" horiz-adv-x="2664" arabic-form="final" 
d="M1606 1338v102h78v-102h-78zM1946 1338v102h78v-102h-78zM1242 1142l64 -0.000976562v-1058h478v1058h62v-1058h480v1062h62v-1062h280v-64h-1362v-350h-354c-208.667 2.66699 -388 62.667 -538 180c-72 58.667 -129 126.334 -171 203.001s-63 157.667 -63 243v318h62
v-318c0 -154.667 71 -287 213 -397s311.667 -165 509 -165h278v1408zM1774 1656v102h80v-102h-80z" />
    <glyph glyph-name="uniFEB7" unicode="&#x634;" horiz-adv-x="1602" arabic-form="initial" 
d="M640 1378v102h78v-102h-78zM980 1378v102h78v-102h-78zM808 1676v102h80v-102h-80zM276 84v1058h64v-1058h478v1058h62v-1058h480v1058h62v-1122h-1426v64h280z" />
    <glyph glyph-name="uniFEB8" unicode="&#x634;" horiz-adv-x="1698" arabic-form="medial" 
d="M980 1338v102h78v-102h-78zM640 1338v102h78v-102h-78zM-4 20v64h280v1058h64v-1058h478v1058h62v-1058h480v1062h62v-1062h280v-64h-1706zM808 1636v102h80v-102h-80z" />
    <glyph glyph-name="uniFEBA" unicode="&#x635;" horiz-adv-x="2644" arabic-form="final" 
d="M1242 1178l62.001 -0.000976562v-292c44 60 78.667 102.667 104 128c109.333 109.333 241.666 164 396.999 164s288 -54.667 398 -164s165 -242 165 -398v-532h280v-64h-1342v-350h-354c-208.667 2.66699 -388 62.667 -538 180c-72 58.667 -129 126.334 -171 203.001
s-63 157.667 -63 243v318h62v-318c0 -154.667 71 -287 213 -397s311.667 -165 509 -165h278v1444zM1306 83.999h1000v532c0 138.667 -49 256.667 -147 354s-215.667 146 -353 146c-92 0 -176 -22.333 -252 -67s-135.333 -102.667 -178 -174s-66 -147 -70 -227v-564z" />
    <glyph glyph-name="uniFEBB" unicode="&#x635;" horiz-adv-x="1580" arabic-form="initial" 
d="M336 84h1002v532c0 138.667 -49 256.667 -147 354s-215.667 146 -353 146c-92 0 -176 -22.333 -252 -67s-136.667 -105 -182 -181s-68 -160 -68 -252v-532zM192 84c54.667 0 82.001 34 82.001 102v992h62v-292c44 60 78.667 102.667 104 128
c109.333 109.333 241.666 164 396.999 164s288 -54.667 398 -164s165 -242 165 -398v-596h-1404v64h196z" />
    <glyph glyph-name="uniFEBC" unicode="&#x635;" horiz-adv-x="1676" arabic-form="medial" 
d="M192 84c54.667 0 82.001 34 82.001 102v992h62v-292c44 60 78.667 102.667 104 128c109.333 109.333 241.666 164 396.999 164s288 -54.667 398 -164s165 -242 165 -398v-532h280v-64h-1684v64h196zM336.001 84h1002v532c0 138.667 -49 256.667 -147 354
s-215.667 146 -353 146c-92 0 -176 -22.333 -252 -67s-136.667 -105 -182 -181s-68 -160 -68 -252v-532z" />
    <glyph glyph-name="uniFEBE" unicode="&#x636;" horiz-adv-x="2644" arabic-form="final" 
d="M1242 1178l62.001 -0.000976562v-292c44 60 78.667 102.667 104 128c109.333 109.333 241.666 164 396.999 164s288 -54.667 398 -164s165 -242 165 -398v-532h280v-64h-1342v-350h-354c-208.667 2.66699 -388 62.667 -538 180c-72 58.667 -129 126.334 -171 203.001
s-63 157.667 -63 243v318h62v-318c0 -154.667 71 -287 213 -397s311.667 -165 509 -165h278v1444zM1306 83.999h1000v532c0 138.667 -49 256.667 -147 354s-215.667 146 -353 146c-92 0 -176 -22.333 -252 -67s-135.333 -102.667 -178 -174s-66 -147 -70 -227v-564z
M1774 1378v102h80v-102h-80z" />
    <glyph glyph-name="uniFEBF" unicode="&#x636;" horiz-adv-x="1580" arabic-form="initial" 
d="M806 1378v102h80v-102h-80zM336 84h1002v532c0 138.667 -49 256.667 -147 354s-215.667 146 -353 146c-92 0 -176 -22.333 -252 -67s-136.667 -105 -182 -181s-68 -160 -68 -252v-532zM192 84c54.667 0 82.001 34 82.001 102v992h62v-292c44 60 78.667 102.667 104 128
c109.333 109.333 241.666 164 396.999 164s288 -54.667 398 -164s165 -242 165 -398v-596h-1404v64h196z" />
    <glyph glyph-name="uniFEC0" unicode="&#x636;" horiz-adv-x="1676" arabic-form="medial" 
d="M806 1378v102h80v-102h-80zM192 84c54.667 0 82.001 34 82.001 102v992h62v-292c44 60 78.667 102.667 104 128c109.333 109.333 241.666 164 396.999 164s288 -54.667 398 -164s165 -242 165 -398v-532h280v-64h-1684v64h196zM336.001 84h1002v532
c0 138.667 -49 256.667 -147 354s-215.667 146 -353 146c-92 0 -176 -22.333 -252 -67s-136.667 -105 -182 -181s-68 -160 -68 -252v-532z" />
    <glyph glyph-name="uniFEC2" unicode="&#x637;" horiz-adv-x="1730" arabic-form="final" 
d="M246 84c54.667 0 82.001 34 82.001 102v1400h62v-700c44 60 78.667 102.667 104 128c109.333 109.333 241.666 164 396.999 164s288 -54.667 398 -164s165 -242 165 -398v-532h280v-64h-1554v64h66zM390.001 84h1002v532c0 138.667 -49 256.667 -147 354
s-215.667 146 -353 146c-92 0 -176 -22.333 -252 -67s-136.667 -105 -182 -181s-68 -160 -68 -252v-532z" />
    <glyph glyph-name="uniFEC3" unicode="&#x637;" horiz-adv-x="1580" arabic-form="initial" 
d="M336 84h1002v532c0 138.667 -49 256.667 -147 354s-215.667 146 -353 146c-92 0 -176 -22.333 -252 -67s-136.667 -105 -182 -181s-68 -160 -68 -252v-532zM192 84c54.667 0 82.001 34 82.001 102v1400h62v-700c44 60 78.667 102.667 104 128
c109.333 109.333 241.666 164 396.999 164s288 -54.667 398 -164s165 -242 165 -398v-596h-1404v64h196z" />
    <glyph glyph-name="uniFEC4" unicode="&#x637;" horiz-adv-x="1676" arabic-form="medial" 
d="M192 84c54.667 0 82.001 34 82.001 102v1400h62v-700c44 60 78.667 102.667 104 128c109.333 109.333 241.666 164 396.999 164s288 -54.667 398 -164s165 -242 165 -398v-532h280v-64h-1684v64h196zM336.001 84h1002v532c0 138.667 -49 256.667 -147 354
s-215.667 146 -353 146c-92 0 -176 -22.333 -252 -67s-136.667 -105 -182 -181s-68 -160 -68 -252v-532z" />
    <glyph glyph-name="uniFEC6" unicode="&#x638;" horiz-adv-x="1730" arabic-form="final" 
d="M860 1378v102h80v-102h-80zM246 84c54.667 0 82.001 34 82.001 102v1400h62v-700c44 60 78.667 102.667 104 128c109.333 109.333 241.666 164 396.999 164s288 -54.667 398 -164s165 -242 165 -398v-532h280v-64h-1554v64h66zM390.001 84h1002v532
c0 138.667 -49 256.667 -147 354s-215.667 146 -353 146c-92 0 -176 -22.333 -252 -67s-136.667 -105 -182 -181s-68 -160 -68 -252v-532z" />
    <glyph glyph-name="uniFEC7" unicode="&#x638;" horiz-adv-x="1580" arabic-form="initial" 
d="M806 1378v102h80v-102h-80zM336 84h1002v532c0 138.667 -49 256.667 -147 354s-215.667 146 -353 146c-92 0 -176 -22.333 -252 -67s-136.667 -105 -182 -181s-68 -160 -68 -252v-532zM192 84c54.667 0 82.001 34 82.001 102v1400h62v-700c44 60 78.667 102.667 104 128
c109.333 109.333 241.666 164 396.999 164s288 -54.667 398 -164s165 -242 165 -398v-596h-1404v64h196z" />
    <glyph glyph-name="uniFEC8" unicode="&#x638;" horiz-adv-x="1676" arabic-form="medial" 
d="M806 1378v102h80v-102h-80zM192 84c54.667 0 82.001 34 82.001 102v1400h62v-700c44 60 78.667 102.667 104 128c109.333 109.333 241.666 164 396.999 164s288 -54.667 398 -164s165 -242 165 -398v-532h280v-64h-1684v64h196zM336.001 84h1002v532
c0 138.667 -49 256.667 -147 354s-215.667 146 -353 146c-92 0 -176 -22.333 -252 -67s-136.667 -105 -182 -181s-68 -160 -68 -252v-532z" />
    <glyph glyph-name="uniFECA" unicode="&#x639;" horiz-adv-x="1522" arabic-form="final" 
d="M638 20c-116 0 -199.665 -13.6641 -250.998 -40.9971c-64.667 -34.667 -108.334 -89.667 -131.001 -165c-8 -34.667 -12 -68 -12 -100c0 -70.667 22.667 -136 68 -196c65.333 -86.667 168.666 -148.667 309.999 -186l88 -22l-10 -60l-94 26
c-165.333 44 -284 118.667 -356 224c-46.667 67.333 -70 140.666 -70 219.999c0 37.333 5.33301 73.333 16 108c16 65.333 44.333 116 85 152c62.667 55.333 152.334 88 269.001 98h66c-57.333 46.667 -98.666 82.667 -123.999 108
c-110.667 109.333 -166 241.666 -166 396.999s55 288 165 398s238.333 165 385 165s268.667 -42.667 366 -128l-8 -76c-94.667 94.667 -210.334 142 -347.001 142s-254 -49.333 -352 -148s-147 -216.334 -147 -353.001s46.667 -252 140 -346s200.666 -145 321.999 -153h676
v-64h-888z" />
    <glyph glyph-name="uniFECB" unicode="&#x639;" horiz-adv-x="1452" arabic-form="initial" 
d="M833 1084c-136.667 0 -253.998 -49.3311 -351.998 -147.998s-147 -216.334 -147 -353.001s46.667 -252 140 -346s200.666 -145 321.999 -153h476v-64h-1276v64h570c-61.333 44 -104 78 -128 102c-110.667 109.333 -166 241.666 -166 396.999s55 288 165 398
s238.333 165 385 165s268.667 -42.667 366 -128l-8 -76c-94.667 94.667 -210.334 142 -347.001 142z" />
    <glyph glyph-name="uniFECC" unicode="&#x639;" horiz-adv-x="1466" arabic-form="medial" 
d="M1470 84l0.00195312 -63.998h-1474v64h570c-61.333 44 -104 78 -128 102c-110.667 109.333 -166 241.666 -166 396.999s55 288 165 398s238.333 165 385 165s268.667 -42.667 366 -128l-8 -76c-94.667 94.667 -210.334 142 -347.001 142s-254 -49.333 -352 -148
s-147 -216.334 -147 -353.001s46.667 -252 140 -346s200.666 -145 321.999 -153h674z" />
    <glyph glyph-name="uniFECE" unicode="&#x63a;" horiz-adv-x="1522" arabic-form="final" 
d="M638 20c-116 0 -199.665 -13.6641 -250.998 -40.9971c-64.667 -34.667 -108.334 -89.667 -131.001 -165c-8 -34.667 -12 -68 -12 -100c0 -70.667 22.667 -136 68 -196c65.333 -86.667 168.666 -148.667 309.999 -186l88 -22l-10 -60l-94 26
c-165.333 44 -284 118.667 -356 224c-46.667 67.333 -70 140.666 -70 219.999c0 37.333 5.33301 73.333 16 108c16 65.333 44.333 116 85 152c62.667 55.333 152.334 88 269.001 98h66c-57.333 46.667 -98.666 82.667 -123.999 108
c-110.667 109.333 -166 241.666 -166 396.999s55 288 165 398s238.333 165 385 165s268.667 -42.667 366 -128l-8 -76c-94.667 94.667 -210.334 142 -347.001 142s-254 -49.333 -352 -148s-147 -216.334 -147 -353.001s46.667 -252 140 -346s200.666 -145 321.999 -153h676
v-64h-888zM842.002 1378v102h80v-102h-80z" />
    <glyph glyph-name="uniFECF" unicode="&#x63a;" horiz-adv-x="1452" arabic-form="initial" 
d="M833 1084c-136.667 0 -253.998 -49.3311 -351.998 -147.998s-147 -216.334 -147 -353.001s46.667 -252 140 -346s200.666 -145 321.999 -153h476v-64h-1276v64h570c-61.333 44 -104 78 -128 102c-110.667 109.333 -166 241.666 -166 396.999s55 288 165 398
s238.333 165 385 165s268.667 -42.667 366 -128l-8 -76c-94.667 94.667 -210.334 142 -347.001 142zM788.002 1378v102h80v-102h-80z" />
    <glyph glyph-name="uniFED0" unicode="&#x63a;" horiz-adv-x="1466" arabic-form="medial" 
d="M788 1378v102h80v-102h-80zM1470 84l0.00195312 -63.998h-1474v64h570c-61.333 44 -104 78 -128 102c-110.667 109.333 -166 241.666 -166 396.999s55 288 165 398s238.333 165 385 165s268.667 -42.667 366 -128l-8 -76c-94.667 94.667 -210.334 142 -347.001 142
s-254 -49.333 -352 -148s-147 -216.334 -147 -353.001s46.667 -252 140 -346s200.666 -145 321.999 -153h674z" />
    <glyph glyph-name="uniFED2" unicode="&#x641;" horiz-adv-x="2350" arabic-form="final" 
d="M1262 583c0 155.333 54.667 288 164 398s242 165 398 165h250v-1062h280v-64h-1402c-208.667 2.66699 -388 62.667 -538 180c-72 58.667 -129 126.334 -171 203.001s-63 157.667 -63 243v318h62v-318c0 -154.667 71 -287 213 -397s311.667 -165 509 -165h590
c-61.333 44 -104 78 -128 102c-109.333 109.333 -164 241.666 -164 396.999zM1724 1376v104h80v-104h-80zM2012 1080h-188c-137.333 0 -255 -49 -353 -147s-147 -216 -147 -354s49.333 -255.667 148 -353c80 -80 174.667 -127.333 284 -142h256v996z" />
    <glyph glyph-name="uniFED3" unicode="&#x641;" horiz-adv-x="1248" arabic-form="initial" 
d="M718 1376v104h78v-104h-78zM256 583c0 155.333 54.667 288.001 164 398.001s241.333 165 396 165h252v-1126h-1072v64h552c-61.333 44 -104 78 -128 102c-109.333 109.333 -164 241.666 -164 396.999zM1004 84.001l-0.000976562 996h-188
c-137.333 0 -254.666 -49 -351.999 -147s-146 -216 -146 -354s48.667 -255.667 146 -353c80 -80 175.333 -127.333 286 -142h254z" />
    <glyph glyph-name="uniFED4" unicode="&#x641;" horiz-adv-x="1342" arabic-form="medial" 
d="M-4 20v64.001h552c-61.333 44 -104 78 -128 102c-109.333 109.333 -164 241.666 -164 396.999s54.667 288 164 398s241.333 165 396 165h252v-1062h278v-64h-1350zM1004 1080h-188.001c-137.333 0 -254.666 -49 -351.999 -147s-146 -216 -146 -354
s48.667 -255.667 146 -353c80 -80 175.333 -127.333 286 -142h254v996zM717.999 1376v104h78v-104h-78z" />
    <glyph glyph-name="uniFED6" unicode="&#x642;" horiz-adv-x="1760" arabic-form="final" 
d="M1024 1376v104h80v-104h-80zM1364 1376v104h80v-104h-80zM1442 20l-188 -0.000976562c-154.667 0 -286.667 55 -396 165s-164 242.667 -164 398s54.667 288 164 398s241.333 165 396 165h252v-1062h258v-64h-258v-350h-554c-208.667 2.66699 -388 62.667 -538 180
c-72 58.667 -129 126.334 -171 203.001s-63 157.667 -63 243v318h62v-318c0 -154.667 71 -287 213 -397s311.667 -165 509 -165h478v286zM1442 1080h-188.001c-137.333 0 -254.666 -49 -351.999 -147s-146 -216 -146 -354s48 -255 144 -351s210.667 -144 344 -144h198v996z
" />
    <glyph glyph-name="uniFED7" unicode="&#x642;" horiz-adv-x="1248" arabic-form="initial" 
d="M568 1376v104h78v-104h-78zM908 1376v104h78v-104h-78zM256 583c0 155.333 54.667 288.001 164 398.001s241.333 165 396 165h252v-1126h-1072v64h552c-61.333 44 -104 78 -128 102c-109.333 109.333 -164 241.666 -164 396.999zM1004 84.001l-0.000976562 996h-188
c-137.333 0 -254.666 -49 -351.999 -147s-146 -216 -146 -354s48.667 -255.667 146 -353c80 -80 175.333 -127.333 286 -142h254z" />
    <glyph glyph-name="uniFED8" unicode="&#x642;" horiz-adv-x="1342" arabic-form="medial" 
d="M568 1376v104h78v-104h-78zM-4 20v64.001h552c-61.333 44 -104 78 -128 102c-109.333 109.333 -164 241.666 -164 396.999s54.667 288 164 398s241.333 165 396 165h252v-1062h278v-64h-1350zM1004 1080h-188.001c-137.333 0 -254.666 -49 -351.999 -147
s-146 -216 -146 -354s48.667 -255.667 146 -353c80 -80 175.333 -127.333 286 -142h254v996zM907.999 1376v104h78v-104h-78z" />
    <glyph glyph-name="uniFEDA" unicode="&#x643;" horiz-adv-x="1804" arabic-form="final" 
d="M792 1134c0 33.333 12.999 63.001 38.999 89.001s56 39 90 39s64.333 -11.333 91 -34l-12 -38c-5.33301 2.66699 -8.66602 4.66699 -9.99902 6c-18.667 18.667 -40.667 28 -66 28s-47.333 -9.33301 -66 -28s-28 -41 -28 -67s9 -48 27 -66s37.667 -27.667 59 -29h114v-48
h-254v48h54c-25.333 33.333 -38 66.666 -38 99.999zM1462 84.001v1502h64v-1502h282v-64h-856c-208.667 2.66699 -388 62.667 -538 180c-72 58.667 -129 126.334 -171 203.001s-63 157.667 -63 243v318h62v-318c0 -154.667 71 -287 213 -397s311.667 -165 509 -165h498z" />
    <glyph glyph-name="uniFEDB" unicode="&#x643;" horiz-adv-x="1284" arabic-form="initial" 
d="M1104 372l-0.000976562 -352h-1108v64h1046v288c0 137.333 -48.667 254 -146 350s-212 145.333 -344 148h-276v112l636 576l-6 -90l-590 -536h236c150.667 -2.66699 280.334 -58 389.001 -166s163 -239.333 163 -394z" />
    <glyph glyph-name="uniFEDC" unicode="&#x643;" horiz-adv-x="1380" arabic-form="medial" 
d="M-4 20l-0.000976562 64h1046v288c0 137.333 -48.667 254 -146 350s-212 145.333 -344 148h-276v112l636 576l-6 -90l-590 -536h236c150.667 -2.66699 280.334 -58 389.001 -166s163 -239.333 163 -394v-288h280v-64h-1388z" />
    <glyph glyph-name="uniFEDE" unicode="&#x644;" horiz-adv-x="1460" arabic-form="final" 
d="M1142 1586l64 -0.000976562v-1502h258v-64h-258v-350h-254c-208.667 2.66699 -388 62.667 -538 180c-72 58.667 -129 126.334 -171 203.001s-63 157.667 -63 243v318h62v-318c0 -154.667 71 -287 213 -397s311.667 -165 509 -165h178v1852z" />
    <glyph glyph-name="uniFEDF" unicode="&#x644;" horiz-adv-x="520" arabic-form="initial" 
d="M276 1586h64v-1566h-344v64h280v1502z" />
    <glyph glyph-name="uniFEE0" unicode="&#x644;" horiz-adv-x="618" arabic-form="medial" 
d="M340 84h282v-64h-626v64h280v1502h64v-1502z" />
    <glyph glyph-name="uniFEE2" unicode="&#x645;" horiz-adv-x="1826" arabic-form="final" 
d="M562 474c0 69.333 12.667 144.668 38 226.001c-76 -4 -138.667 -22 -188 -54c-53.333 -32 -95 -76 -125 -132s-45 -118 -45 -186v-652h-62v652c0 118.667 39 220.334 117 305.001s173 127 285 127h44c60.667 112 139.334 192 236.001 240
c61.333 30.667 125.666 46 192.999 46s131.333 -15 192 -45s113 -71 157 -123c96 -113.333 144 -243.333 144 -390s-43.333 -281.334 -130 -404.001h412v-64h-474c-92.667 -78.667 -192.667 -118 -300 -118c-68 0 -132.667 15.333 -194 46
c-37.333 17.333 -71.333 39.333 -102 66l-90 102c-72 101.333 -108 220.666 -108 357.999zM1055 984.002c-119.333 0 -221 -49.665 -305 -148.998s-126 -219.666 -126 -360.999c0 -90.667 19.333 -175.334 58 -254.001s91 -141 157 -187s133 -69 201 -69
c128.667 0 235.167 50.167 319.5 150.5s126.5 220.666 126.5 360.999s-42 260.166 -126 359.499s-185.667 149 -305 149z" />
    <glyph glyph-name="uniFEE3" unicode="&#x645;" horiz-adv-x="1442" arabic-form="initial" 
d="M770 -98c-112.667 0 -213.333 39.3301 -302 117.997h-472v64h410c-86.667 122.667 -130 257.334 -130 404.001s48 276.334 144 389.001s212.667 169 350 169c66.667 0 130.334 -15 191.001 -45s113 -71 157 -123c96 -113.333 144 -248.333 144 -405s-48 -291 -144 -403
c-44 -53.333 -96.333 -94.666 -157 -123.999s-124.334 -44 -191.001 -44zM763.001 -36.0029c122.667 0 226.167 50.168 310.5 150.501s126.5 220.666 126.5 360.999s-42 260.166 -126 359.499s-185.667 149 -305 149s-221 -49.667 -305 -149s-126 -219.666 -126 -360.999
c0 -90.667 19 -175 57 -253s89.667 -139.667 155 -185l34 -22c57.333 -33.333 117 -50 179 -50z" />
    <glyph glyph-name="uniFEE4" unicode="&#x645;" horiz-adv-x="1540" arabic-form="medial" 
d="M-4 20l-0.000976562 63.999h410c-86.667 122.667 -130 257.334 -130 404.001s48 276.334 144 389.001s212.667 169 350 169c66.667 0 130.334 -15 191.001 -45s113 -71 157 -123c96 -113.333 144 -243.333 144 -390s-43.333 -281.334 -130 -404.001h412v-64h-474
c-92.667 -78.667 -194 -118 -304 -118s-209.333 39.333 -298 118h-472zM768.999 983.999c-119.333 0 -221 -49.665 -305 -148.998s-126 -219.666 -126 -360.999c0 -90.667 19.333 -175.334 58 -254.001s91 -141 157 -187s133 -69 201 -69
c128.667 0 235.167 50.167 319.5 150.5s126.5 220.666 126.5 360.999s-42 260.166 -126 359.499s-185.667 149 -305 149z" />
    <glyph glyph-name="uniFEE6" unicode="&#x646;" horiz-adv-x="1460" arabic-form="final" 
d="M662 1378v102h80v-102h-80zM1142 1146l64 -0.000976562v-1062h258v-64h-258v-350h-254c-208.667 2.66699 -388 62.667 -538 180c-72 58.667 -129 126.334 -171 203.001s-63 157.667 -63 243v318h62v-318c0 -154.667 71 -287 213 -397s311.667 -165 509 -165h178v1412z
" />
    <glyph glyph-name="uniFEE7" unicode="&#x646;" horiz-adv-x="528" arabic-form="initial" 
d="M268 1368v102h80v-102h-80zM276 1146h64v-1126h-344v64h280v1062z" />
    <glyph glyph-name="uniFEE8" unicode="&#x646;" horiz-adv-x="618" arabic-form="medial" 
d="M268 1372v104h80v-104h-80zM340 84h282v-64h-626v64h280v1062h64v-1062z" />
    <glyph glyph-name="uniFEEA" unicode="&#x647;" horiz-adv-x="1248" arabic-form="final" 
d="M742 20c-156 0 -288.667 55 -398 165s-164 242.667 -164 398s54.667 288 164 398s242 165 398 165h250v-1062h260v-64h-510zM930 84v996h-188c-137.333 0 -255 -49 -353 -147s-147 -216 -147 -354s48.333 -255 145 -351s211 -144 343 -144h200z" />
    <glyph glyph-name="uniFEEB" unicode="&#x647;" horiz-adv-x="1458" arabic-form="initial" 
d="M936 422c0 101.333 -34.333 183.333 -103 246s-138 94 -208 94s-139.667 -31.333 -209 -94s-104 -144.667 -104 -246s34.667 -183.333 104 -246c58.667 -54.667 128 -85.334 208 -92.001c80 6.66699 152 39.334 216 98.001s96 138.667 96 240zM-4 20l-0.000976562 64.001
h438c-36 28 -56 43.333 -60 46c-82.667 73.333 -124 170.333 -124 291s40.667 218 122 292s165.333 111 252 111s170.667 -37 252 -111s122 -171.333 122 -292s-40 -217 -120 -289l-64 -48h402v538c0 137.333 -49 254.666 -147 351.999s-215.667 146 -353 146
s-250.666 -44 -339.999 -132l-44 44c100 100 227.667 150 383 150s288 -55 398 -165s165 -241.667 165 -395v-602h-1282z" />
    <glyph glyph-name="uniFEEC" unicode="&#x647;" horiz-adv-x="1556" arabic-form="medial" 
d="M-4 20l-0.000976562 64.001h438c-36 28 -56 43.333 -60 46c-82.667 73.333 -124 170.333 -124 291s40.667 218 122 292s165.333 111 252 111s170.667 -37 252 -111s122 -171.333 122 -292s-40 -217 -120 -289l-64 -48h402v538c0 137.333 -49 254.666 -147 351.999
s-215.667 146 -353 146s-250.666 -44 -339.999 -132l-44 44c100 100 227.667 150 383 150s288 -55 398 -165s165 -241.667 165 -395v-538h282v-64h-1564zM935.999 422.001c0 101.333 -34.333 183.333 -103 246s-138 94 -208 94s-139.667 -31.333 -209 -94
s-104 -144.667 -104 -246s34.667 -183.333 104 -246c58.667 -54.667 128 -85.334 208 -92.001c80 6.66699 152 39.334 216 98.001s96 138.667 96 240z" />
    <glyph glyph-name="uniFEEE" unicode="&#x648;" horiz-adv-x="1248" arabic-form="final" 
d="M992 20v-109.999c0 -90.667 -37.333 -168 -112 -232c-77.333 -62.667 -168 -94 -272 -94c-66.667 0 -128.667 13.333 -186 40s-104 64 -140 112l-18 24l50 38l18 -24c68 -85.333 160 -128 276 -128c89.333 0 165.333 25.667 228 77s94 113.666 94 186.999v110h-188
c-156 0 -288.667 55 -398 165s-164 242.667 -164 398s54.667 288 164 398s242 165 398 165h250v-1062h260v-64h-260zM930 84.001v996h-188c-137.333 0 -255 -49 -353 -147s-147 -216 -147 -354s48.333 -255 145 -351s211 -144 343 -144h200z" />
    <glyph glyph-name="uniFEF0" unicode="&#x649;" horiz-adv-x="2220" arabic-form="final" 
d="M1882 20v694c0 68 -15 130 -45 186s-71.333 100.667 -124 134s-109.667 50 -171 50h-116v-1064h-474c-208.667 2.66699 -388 62.667 -538 180c-72 58.667 -129 126.334 -171 203.001s-63 157.667 -63 243v318h62v-318c0 -154.667 71 -287 213 -397s311.667 -165 509 -165
h398v1062h180c112 0 207 -42.333 285 -127s117 -186.334 117 -305.001v-630h280v-64h-342z" />
    <glyph glyph-name="uniFEF2" unicode="&#x64a;" horiz-adv-x="2220" arabic-form="final" 
d="M864 -322v102h78v-102h-78zM1882 20v694c0 68 -15 130 -45 186s-71.333 100.667 -124 134s-109.667 50 -171 50h-116v-1064h-474c-208.667 2.66699 -388 62.667 -538 180c-72 58.667 -129 126.334 -171 203.001s-63 157.667 -63 243v318h62v-318
c0 -154.667 71 -287 213 -397s311.667 -165 509 -165h398v1062h180c112 0 207 -42.333 285 -127s117 -186.334 117 -305.001v-630h280v-64h-342zM1204 -322v102h78v-102h-78z" />
    <glyph glyph-name="uniFEF3" unicode="&#x64a;" horiz-adv-x="638" arabic-form="initial" 
d="M40 -322v102h78v-102h-78zM380 -322v102h78v-102h-78zM276 1146h62v-1126h-342v64h280v1062z" />
    <glyph glyph-name="uniFEF4" unicode="&#x64a;" horiz-adv-x="618" arabic-form="medial" 
d="M98 -322v102h80v-102h-80zM438 -322v102h80v-102h-80zM340 84h282v-64h-626v64h280v1062h64v-1062z" />
    <glyph glyph-name=".notdef" horiz-adv-x="1200" 
d="M1086 1720h-976l488 -770zM20 1780h1160v-1760h-1160v1760zM80 1652v-1514l482 756zM1120 128v1534l-488 -768zM116 80h962l-480 760z" />
    <glyph glyph-name=".null" horiz-adv-x="1278" 
 />
    <glyph glyph-name=".null" horiz-adv-x="1278" 
 />
    <glyph glyph-name="space" unicode=" " horiz-adv-x="400" 
 />
    <glyph glyph-name="space" unicode="&#xa0;" horiz-adv-x="400" 
 />
    <glyph glyph-name="exclam" unicode="!" horiz-adv-x="510" 
d="M256 184c22.667 0 40.667 -7.66699 54 -23s20 -35 20 -59s-6.66699 -43.667 -20 -59s-31.333 -23 -54 -23s-41 7.66699 -55 23s-21 35 -21 59s7 43.667 21 59s32.333 23 55 23zM224 662v924h64v-924h-64z" />
    <glyph glyph-name="quotedbl" unicode="&#x22;" horiz-adv-x="590" 
d="M348 1296v290h62v-290h-62zM180 1296v290h62v-290h-62z" />
    <glyph glyph-name="numbersign" unicode="#" horiz-adv-x="1516" 
d="M952 636l124 378h-494l-126 -378h496zM1336 1074v-60h-196l-126 -378h184v-60h-204l-184 -556h-64l184 556h-494l-182 -556h-66l186 556h-164v60h182l126 378h-170v60h190l170 512h62l-168 -512h492l170 512h64l-170 -512h178z" />
    <glyph glyph-name="dollar" unicode="$" horiz-adv-x="1246" 
d="M1004 476c0 90.667 -36.667 160 -110 208c-44 29.333 -120 59.333 -228 90v-622c112 9.33301 196.333 43 253 101s85 132.333 85 223zM274 1156c0 -92 36.666 -161.999 109.999 -209.999c42.667 -28 115.334 -57.333 218.001 -88v582
c-218.667 -14.667 -328 -109.334 -328 -284.001zM211.999 1156c0 214.667 129.999 329.998 389.999 345.998v84h64v-86c130.667 -14.667 234 -76.667 310 -186l16 -24l-52 -36l-16 24c-61.333 89.333 -147.333 143.333 -258 162v-602
c125.333 -33.333 211.333 -65.666 258 -96.999c94.667 -63.333 142 -151 142 -263s-36 -204 -108 -276c-68 -65.333 -165.333 -103.333 -292 -114v-68h-64v70c-104 4 -184.667 20.333 -242 49s-108.666 74.334 -153.999 137.001l-18 26l50 36l20 -28
c32 -48 71.333 -85.333 118 -112s122 -42 226 -46v640c-118.667 33.333 -202.667 67.333 -252 102c-92 58.667 -138 146 -138 262z" />
    <glyph glyph-name="percent" unicode="%" horiz-adv-x="1400" 
d="M967 78c42 0 77 8.99805 105 26.998c60 38.667 90 94.334 90 167.001c0 54.667 -17.667 101.334 -53 140.001s-78.333 58 -129 58s-93.667 -19.333 -129 -58s-53 -84.667 -53 -138s17.667 -99.333 53 -138s74 -58 116 -58zM979 527.998c66 0 122.667 -25 170 -75
s71 -110 71 -180s-23.667 -129.667 -71 -179s-104 -74 -170 -74s-122.333 24.667 -169 74s-70 109 -70 179s23.333 130 70 180s103 75 169 75zM420 1508c-49.333 0 -91.666 -19.333 -126.999 -58s-53 -84.334 -53 -137.001s17.667 -98.334 53 -137.001
s77.666 -58 126.999 -58s92 19.333 128 58s54 84.334 54 137.001s-18 98.334 -54 137.001s-78.667 58 -128 58zM420 1060c-66.667 0 -123.336 24.667 -170.003 74s-70 109 -70 179s23.333 129.667 70 179s103.334 74 170.001 74s123.334 -24.667 170.001 -74
s70 -103 70 -161s-10.667 -106.667 -32 -146s-50.666 -70 -87.999 -92s-77.333 -33 -120 -33zM1112 1586h68l-906 -1566h-66z" />
    <glyph glyph-name="ampersand" unicode="&#x26;" horiz-adv-x="1542" 
d="M730 1524c-80 0 -136 -15.666 -168 -46.999s-52 -70.333 -60 -117c-16 -106.667 20.667 -257.334 110 -452.001c49.333 21.333 93.333 39.333 132 54c92 29.333 160.333 79.333 205 150c62 98 70.667 191 26 279c-44 88.667 -125.667 133 -245 133zM638 80.001
c141.333 0 263.333 48 366 144c-159.333 174.667 -299.333 375.334 -420 602.001c-97.333 -56 -172 -117.333 -224 -184c-77.333 -98.667 -108 -200 -92 -304c14.667 -78.667 55 -141.334 121 -188.001s149 -70 249 -70zM638 20.001c-120 0 -217.67 29 -293.003 87
s-121 132.333 -137 223c-17.333 118.667 18 235.334 106 350.001c58.667 73.333 140 140.666 244 201.999c-20 40 -35.333 74.667 -46 104c-61.333 156 -84.666 283.333 -69.999 382c9.33301 69.333 38.333 123 87 161s117 57 205 57s160.667 -23.667 218 -71
s93 -111 107 -191s-5.66699 -162 -59 -246s-132.666 -142.667 -237.999 -176c-37.333 -13.333 -78.666 -30 -123.999 -50c112 -211.333 248 -405.333 408 -582l22 32c105.333 149.333 158 349.333 158 600h60c0 -122.667 -15.333 -245 -46 -367s-82 -225 -154 -309
c121.333 -114 211.333 -180.667 270 -200l-18 -58c-72 22.667 -169.333 94 -292 214c-116 -108 -252 -162 -408 -162z" />
    <glyph glyph-name="quotesingle" unicode="'" horiz-adv-x="496" 
d="M254 1582h62v-28c0 -53.333 -8.66699 -104 -26 -152s-31.333 -80 -42 -96l-12 -20l-46 40c-2.66699 -1.33301 0.333008 4.66699 9 18s20 40.333 34 81s21 83.667 21 129v28z" />
    <glyph glyph-name="parenleft" unicode="(" horiz-adv-x="798" 
d="M618 -244c-48 0 -100.667 23.668 -158 71.001s-108 116.333 -152 207c-85.333 176 -128 388.667 -128 638s42.667 462.666 128 639.999c44 89.333 94.667 157.333 152 204s110 70 158 70v-60c-36 0 -78 -20.667 -126 -62s-91.333 -102 -130 -182
c-81.333 -168 -122 -371.667 -122 -611s40.667 -443 122 -611c38.667 -77.333 82 -137.333 130 -180s90 -64 126 -64v-60z" />
    <glyph glyph-name="parenright" unicode=")" horiz-adv-x="800" 
d="M180 -244v59.999c38.667 0 82 21.333 130 64s90 102.667 126 180c82.667 168 124 371.667 124 611s-41.333 443 -124 611c-36 80 -78 140.667 -126 182s-91.333 62 -130 62v60c49.333 0 102.666 -23.333 159.999 -70s107.333 -114.667 150 -204
c86.667 -177.333 130 -390.666 130 -639.999s-43.333 -462 -130 -638c-42.667 -90.667 -92.667 -159.667 -150 -207s-110.666 -71 -159.999 -71z" />
    <glyph glyph-name="asterisk" unicode="*" horiz-adv-x="1142" 
d="M962 1206v-60h-332l256 -336l-48 -36l-266 354l-268 -354l-46 36l254 336h-332v60h332l-254 336l46 36l268 -354l266 354l48 -36l-256 -336h332z" />
    <glyph glyph-name="plus" unicode="+" horiz-adv-x="1326" 
d="M1146 638v-62h-452v-554h-62v554h-452v62h452v552h62v-552h452z" />
    <glyph glyph-name="comma" unicode="," horiz-adv-x="512" 
d="M270 -40v154h62v-154c0 -78.667 -23.333 -142.667 -70 -192c-24 -24 -42 -38 -54 -42l-22 59c32 20 56.333 54.333 73 103c7.33301 21.333 11 45.333 11 72zM186 -215c-1.33301 -0.666992 -3.66699 -2 -7 -4s-16.333 -8.33301 -39 -19v144z" />
    <glyph glyph-name="hyphen" unicode="-" horiz-adv-x="882" 
d="M180 576v62h522v-62h-522z" />
    <glyph glyph-name="hyphen" unicode="&#xad;" horiz-adv-x="882" 
d="M180 576v62h522v-62h-522z" />
    <glyph glyph-name="period" unicode="." horiz-adv-x="510" 
d="M254 186c22.667 0 41 -7.66699 55 -23s21 -35 21 -59s-7 -43.667 -21 -59s-32.333 -23 -55 -23s-40.667 7.66699 -54 23s-20 35 -20 59s6.66699 43.667 20 59s31.333 23 54 23z" />
    <glyph glyph-name="slash" unicode="/" horiz-adv-x="960" 
d="M254 20h-66l518 1566h66z" />
    <glyph glyph-name="zero" unicode="0" horiz-adv-x="1312" 
d="M656 1524c-105.333 0 -190.333 -34.3311 -255 -102.998s-108.334 -151 -131.001 -247c-18.667 -96 -28 -219.667 -28 -371s9.33301 -275 28 -371c27.333 -114 81.333 -205.333 162 -274c59.333 -50.667 138 -76 236 -76c97.333 0 178.666 34.667 243.999 104
s108.333 151.666 129 246.999s31 218.666 31 369.999s-10 275 -30 371c-21.333 96 -64.666 178.333 -129.999 247s-150.666 103 -255.999 103zM657 20.002c-118 0 -215.667 38.333 -293 115s-127.333 168.334 -150 275.001s-34 237.667 -34 393s11.333 286.333 34 393
s72.667 198.334 150 275.001s175 115 293 115s215.667 -38.333 293 -115s127 -168.334 149 -275.001s33 -237.667 33 -393s-11 -286.333 -33 -393s-71.667 -198.334 -149 -275.001s-175 -115 -293 -115z" />
    <glyph glyph-name="one" unicode="1" horiz-adv-x="780" 
d="M600 20l-61.999 0.00195312v1442c-40 -46.667 -74.667 -85.334 -104 -116.001s-65.333 -61.667 -108 -93s-80 -47 -112 -47h-34v62h34c17.333 0 43.666 12 78.999 36s73 57.667 113 101s71.333 83.666 94 120.999c25.333 37.333 38 57.333 38 60h62v-1566z" />
    <glyph glyph-name="two" unicode="2" horiz-adv-x="1174" 
d="M984 20l-803.998 -0.00195312v32c0 185.333 48 341.333 144 468c63.333 82.667 161.666 170.334 294.999 263.001s218.333 168.667 255 228c37.333 59.333 56 125.666 56 198.999c-2.66699 57.333 -17.334 111.333 -44.001 162c-57.333 101.333 -154 152 -290 152
c-101.333 0 -190 -28.667 -266 -86c-40 -29.333 -64.667 -52.666 -74 -69.999l-54 32c13.333 21.333 42 49.333 86 84c88 68 190.667 102 308 102c161.333 0 276 -62.667 344 -188c34.667 -61.333 52.667 -122.666 54 -183.999v-2c0 -106.667 -36 -202 -108 -286
c-40 -48 -115.333 -111.333 -226 -190l-75 -54c-63.333 -46 -106.333 -81 -129 -105l-69 -78c-34 -40 -65 -91.667 -93 -155c-28 -64 -46 -151.333 -54 -262h744v-62z" />
    <glyph glyph-name="three" unicode="3" horiz-adv-x="1268" 
d="M647 32c-128.667 0 -241 37.332 -337 111.999c-48 37.333 -80 69.333 -96 96l56 32c12 -22.667 39.333 -49.334 82 -80.001c84 -64 182.333 -96 295 -96s204 36.667 274 110s105 158.333 105 255s-38 177 -114 241c-89.333 76 -220.666 114 -393.999 114l2 62
c140 0 250 34 330 102c69.333 57.333 104 130.666 104 219.999c0 56 -13.333 108.667 -40 158s-66.667 90.333 -120 123s-108.333 49 -165 49s-106 -6.33301 -148 -19c-65.333 -20 -116 -46.333 -152 -79s-59 -58.667 -69 -78l-18 -28l-54 32l18 28
c20 34.667 52 69.334 96 104.001c86.667 68 189.667 102 309 102s217 -39.667 293 -119s114 -171.666 114 -276.999s-42 -192.666 -126 -261.999c-28 -24 -74 -52 -138 -84c89.333 -30.667 156 -64.667 200 -102c89.333 -76 134 -171 134 -285s-39.333 -213 -118 -297
c-86.667 -89.333 -194.334 -134 -323.001 -134z" />
    <glyph glyph-name="four" unicode="4" horiz-adv-x="1324" 
d="M896 670v826l-648 -826h648zM1144 670v-62h-186v-588h-62v588h-716v76l708 902h70v-916h186z" />
    <glyph glyph-name="five" unicode="5" horiz-adv-x="1254" 
d="M1074 506c0 -133.333 -44.332 -247.667 -132.999 -343s-196.334 -143 -323.001 -143c-90.667 0 -174.334 26.333 -251.001 79s-132.334 123 -167.001 211l-12 28l58 24l12 -30c30.667 -76 78.667 -136.667 144 -182s135.666 -68 210.999 -68s143.333 19.333 204 58
s108.334 90 143.001 154s52 134 52 210c0 116 -38.333 215.667 -115 299s-169.667 125 -279 125s-202.666 -42.667 -279.999 -128l-30 -30l-74 4l34 812h712v-62h-652l-28 -666c54.667 44 105.667 76.667 153 98s102.333 32 165 32c126.667 0 234.334 -47 323.001 -141
s133 -207.667 133 -341z" />
    <glyph glyph-name="six" unicode="6" horiz-adv-x="1266" 
d="M636 78c106.667 0 197.999 41.6689 273.999 125.002s114 183.666 114 300.999c0 74.667 -17 145 -51 211s-81 118 -141 156s-125.667 57 -197 57s-136.666 -19 -195.999 -57s-106.333 -90 -141 -156s-52 -137 -52 -213s17.333 -146.333 52 -211
s81.667 -116.334 141 -155.001s125 -58 197 -58zM655.999 1582c70.667 0 137.666 -17.667 200.999 -53s116.333 -83 159 -143l18 -26l-50 -36l-20 28c-36 53.333 -81 94.666 -135 123.999s-111.667 44 -173 44c-125.333 0 -218.666 -32 -279.999 -96
s-99.666 -142.333 -114.999 -235s-23 -172.667 -23 -240v-205c37.333 52 63.333 86 78 102c88 96 194.667 144 320 144s231.666 -47.667 318.999 -143s131 -209.666 131 -342.999s-44 -247.333 -132 -342c-86.667 -97.333 -192.667 -146 -318 -146s-232 48.667 -320 146
c-45.333 49.333 -79 110.333 -101 183s-33 181.667 -33 327l-2 226c0 111.333 6 201 18 269c12 68.667 27.667 125.667 47 171c68 162.667 205 244 411 244z" />
    <glyph glyph-name="seven" unicode="7" horiz-adv-x="1338" 
d="M412 20l-62.001 0.000976562c0 117.333 36.333 263 109 437s166.334 355 281.001 543c97.333 164 214 338.667 350 524h-910v62h978l-2 -72c-117.333 -154.667 -239.333 -337.334 -366 -548.001c-252 -420 -378 -735.333 -378 -946z" />
    <glyph glyph-name="eight" unicode="8" horiz-adv-x="1268" 
d="M632 82c108 0 200.333 36.333 277 109s115 159.667 115 261s-38.333 188.333 -115 261s-169 109 -277 109s-200 -36.333 -276 -109s-114 -159.667 -114 -261s38 -188.333 114 -261s168 -109 276 -109zM282 1204c0 -88 34.667 -163.333 104 -226s152.333 -94 249 -94
s179.334 31.333 248.001 94s103 138 103 226s-34.333 163.333 -103 226s-151.334 94 -248.001 94s-179.667 -31.333 -249 -94s-104 -138 -104 -226zM1088 452c0 -120 -44.665 -222.001 -133.998 -306.001s-196.333 -126 -321 -126s-231.667 42 -321 126
c-88 84 -132 186 -132 306s44 222 132 306c34.667 32 84 63.333 148 94c-52 30.667 -90.667 57.334 -116 80.001c-82.667 73.333 -124 163.666 -124 270.999s40.667 198 122 272s178.666 111 291.999 111s210.666 -37 291.999 -111s122 -164.667 122 -272
s-40.667 -197 -122 -269c-26.667 -24 -66 -51.333 -118 -82c186.667 -91.333 280 -224.666 280 -399.999z" />
    <glyph glyph-name="nine" unicode="9" horiz-adv-x="1266" 
d="M630 1520c-70.667 0 -135.998 -19 -195.998 -57s-107 -90 -141 -156s-51 -137 -51 -213c0 -116 37.667 -215.667 113 -299s166.666 -125 273.999 -125s198.666 41.667 273.999 125s113 183.333 113 300s-37.667 216.667 -113 300s-166.333 125 -273 125zM610.002 78
c125.333 0 218.668 32.335 280.001 97.002s101.333 149 120 253c12 81.333 18 155.666 18 222.999v205c-38.667 -53.333 -64.667 -88 -78 -104c-89.333 -96 -196.333 -144 -321 -144s-231 48 -319 144c-86.667 96 -130 210.667 -130 344s43.667 247.666 131 342.999
s193.333 143 318 143s231.667 -48 321 -144c45.333 -50.667 79 -111.667 101 -183s33 -181 33 -329l2 -224c0 -92 -3 -158 -9 -198c-16.667 -110 -31.334 -181.333 -44.001 -214c-72 -182.667 -213 -274 -423 -274c-72 0 -139.667 17.667 -203 53
s-116.333 83.666 -159 144.999l-16 24l50 36l18 -28c37.333 -53.333 83 -94.666 137 -123.999s111.667 -44 173 -44z" />
    <glyph glyph-name="colon" unicode=":" horiz-adv-x="510" 
d="M254 826c-22.667 0 -40.667 7 -54 21s-20 33 -20 57s6.66699 43.667 20 59s31.333 23 54 23s41 -7.66699 55 -23s21 -35 21 -59s-7 -43 -21 -57s-32.333 -21 -55 -21zM254 186c22.667 0 41 -7.66699 55 -23s21 -35 21 -59s-7 -43.667 -21 -59s-32.333 -23 -55 -23
s-40.667 7.66699 -54 23s-20 35 -20 59s6.66699 43.667 20 59s31.333 23 54 23z" />
    <glyph glyph-name="semicolon" unicode=";" horiz-adv-x="556" 
d="M270 -40v154h62v-154c0 -78.667 -23.333 -142.667 -70 -192c-24 -24 -42 -38 -54 -42l-22 59c32 20 56.333 54.333 73 103c7.33301 21.333 11 45.333 11 72zM302 986c22.667 0 40.665 -7.66699 53.998 -23s20 -35 20 -59s-6.66699 -43 -20 -57s-31.666 -21 -54.999 -21
s-41.666 7 -54.999 21s-20 33 -20 57s7 43.667 21 59s32.333 23 55 23zM185.998 -215c-1.33301 -0.666992 -3.66699 -2 -7 -4s-16.333 -8.33301 -39 -19v144z" />
    <glyph glyph-name="semicolon" unicode="&#x37e;" horiz-adv-x="556" 
d="M270 -40v154h62v-154c0 -78.667 -23.333 -142.667 -70 -192c-24 -24 -42 -38 -54 -42l-22 59c32 20 56.333 54.333 73 103c7.33301 21.333 11 45.333 11 72zM302 986c22.667 0 40.665 -7.66699 53.998 -23s20 -35 20 -59s-6.66699 -43 -20 -57s-31.666 -21 -54.999 -21
s-41.666 7 -54.999 21s-20 33 -20 57s7 43.667 21 59s32.333 23 55 23zM185.998 -215c-1.33301 -0.666992 -3.66699 -2 -7 -4s-16.333 -8.33301 -39 -19v144z" />
    <glyph glyph-name="less" unicode="&#x3c;" horiz-adv-x="1366" 
d="M1148 28l-968 580v38l968 580l30 -52l-912 -546l912 -548z" />
    <glyph glyph-name="equal" unicode="=" horiz-adv-x="1328" 
d="M180 348v62h968v-62h-968zM180 820v62h968v-62h-968z" />
    <glyph glyph-name="greater" unicode="&#x3e;" horiz-adv-x="1364" 
d="M218 28l-30 52l910 548l-910 548l30 50l966 -580v-38z" />
    <glyph glyph-name="question" unicode="?" horiz-adv-x="1178" 
d="M560 1586c149.333 0 259.667 -33.333 331 -100s107 -159.334 107 -278.001s-29.333 -214 -88 -286c-33.333 -42.667 -80.333 -78.667 -141 -108s-99.667 -50.333 -117 -63c-45.333 -33.333 -68 -77.666 -68 -132.999v-28h-58v28c0 68 17.333 117 52 147
s72.667 55.333 114 76s69.666 35.667 84.999 45s35.333 24.666 60 45.999c68.667 59.333 103 156 103 290c0 202.667 -126.667 304 -380 304c-60 0 -116.667 -14.667 -170 -44s-98.666 -71.333 -135.999 -126l-18 -28l-48 36l16 24c44 62.667 97 111.334 159 146.001
s127.667 52 197 52zM569.001 178c22 0 39.668 -7.33301 53.001 -22s20 -33.667 20 -57s-6.66699 -42.333 -20 -57s-31.333 -22 -54 -22s-40.334 7.33301 -53.001 22s-19 33.667 -19 57s6.66699 42.333 20 57s31 22 53 22z" />
    <glyph glyph-name="at" unicode="@" horiz-adv-x="2084" 
d="M1019 120c118 0 217.667 48.333 299 145s122 213 122 349s-40.667 252.333 -122 349s-181 145 -299 145s-218 -48.333 -300 -145s-123 -213 -123 -349s41 -252.333 123 -349s182 -145 300 -145zM1904 616c0 -62.667 -8.66895 -127.674 -26.002 -195.007
s-35.333 -121 -54 -161c-29.333 -70.667 -67.333 -128.667 -114 -174s-100 -68 -160 -68s-103.333 16.667 -130 50s-42 87.333 -46 162c-61.333 -61.333 -119.333 -105.333 -174 -132s-115.334 -40 -182.001 -40c-136 0 -250.667 54.667 -344 164s-140 240 -140 392
s46.667 282 140 390c91.333 110.667 206 166 344 166s252.667 -55.333 344 -166c42.667 -46.667 84 -122.667 124 -228l78 382l60 -12l-184 -908c-10.667 -53.333 -3.33398 -94.666 21.999 -123.999c17.333 -22.667 47.333 -34 90 -34s82.334 18.333 119.001 55
s68.334 87 95.001 151c25.333 53.333 44.333 111.333 57 174s19 114.667 19 156c0 126.667 -20.667 247.334 -62 362.001s-98 213.667 -170 297s-157.333 149.666 -256 198.999s-202.667 74 -312 74c-145.333 0 -279.666 -41.667 -402.999 -125
s-220.333 -196.666 -291 -339.999s-106 -298.666 -106 -465.999s35.333 -322.666 106 -465.999s167.667 -256.666 291 -339.999s261.333 -125 414 -125s294.334 49.333 425.001 148l24 20l38 -50l-24 -18c-53.333 -40 -109.333 -74 -168 -102
c-98.667 -40 -203.667 -60 -315 -60s-219.666 25.333 -324.999 76s-197.666 122.334 -276.999 215.001s-141.666 197.667 -186.999 315c-42.667 124 -64 253 -64 387s21.333 263 64 387c45.333 117.333 107.666 222.333 186.999 315s171.666 164.334 276.999 215.001
s217 76 335 76s229.667 -25.333 335 -76s196.666 -122.667 273.999 -216c81.333 -92 144 -196.667 188 -314c42.667 -124 64 -253.333 64 -388z" />
    <glyph glyph-name="A" unicode="A" horiz-adv-x="1536" 
d="M602 672h304.001c61.333 0 106.666 12.667 135.999 38l-274 786l-298 -852c56 18.667 100 28 132 28zM906.001 612h-304c-43.333 0 -77 -7.33301 -101 -22c-40.667 -24.667 -65.667 -50.667 -75 -78l-172 -492h-66l546 1566h68l546 -1566h-66l-216 626
c-48 -22.667 -101.333 -34 -160 -34z" />
    <glyph glyph-name="B" unicode="B" horiz-adv-x="1432" 
d="M824 82c98.667 0 184.334 36 257.001 108s109 158.333 109 259s-36.333 187 -109 259s-158.334 108 -257.001 108l-478 2c-28 0 -62.667 7.33301 -104 22v-758h582zM346 880l478 -0.000976562c88 0 163.333 31.333 226 94s94 138.334 94 227.001s-31.333 164.667 -94 228
s-138 95 -226 95h-582v-566c3.33301 -52 38 -78 104 -78zM1208 1200c0 -146.667 -75.333 -263.999 -226 -351.999c62.667 -30.667 111.334 -62.667 146.001 -96c82.667 -82.667 124 -183.334 124 -302.001s-41.333 -220 -124 -304c-88 -84 -189.333 -126 -304 -126h-644
v1566h644c105.333 0 195.666 -37.667 270.999 -113s113 -166.333 113 -273z" />
    <glyph glyph-name="C" unicode="C" horiz-adv-x="1520" 
d="M823 20c-184 0 -337.332 76.6709 -459.999 230.004c-122 153.333 -183 337.666 -183 552.999s60.667 399 182 551c57.333 73.333 124.666 129.333 201.999 168c78.667 42.667 165 64 259 64s186.333 -28 277 -84c85.333 -54.667 157.333 -129.334 216 -224.001l16 -28
l-54 -32l-18 26c-54.667 88 -120.667 156.667 -198 206s-164 74 -260 74s-188 -32.333 -276 -97s-157.333 -152.334 -208 -263.001s-76 -231 -76 -361s25.333 -249.667 76 -359s120 -197 208 -263s180 -99 276 -99c190 0 342.667 94 458 282l18 24l54 -32l-16 -28
c-58.667 -94.667 -130.667 -169.334 -216 -224.001c-90.667 -56 -183 -84 -277 -84z" />
    <glyph glyph-name="D" unicode="D" horiz-adv-x="1438" 
d="M1196 808c0 96 -14.667 188 -44 276s-69 164.333 -119 229s-110 116 -180 154s-143 57 -219 57h-392v-1440l392 -2c153.333 0 285.333 71 396 213s166 313 166 513zM634 20l-1.99902 0.000976562l-452 2v1564h454c84 0 164.667 -20.333 242 -61s144.666 -97 201.999 -169
c120 -150.667 180 -333.334 180 -548.001c0 -216 -60 -400.667 -180 -554c-58.667 -72 -126 -129 -202 -171s-156.667 -63 -242 -63z" />
    <glyph glyph-name="E" unicode="E" horiz-adv-x="1276" 
d="M1096 20l-916 0.000976562v1566h916v-62h-854v-668c41.333 14.667 76 22 104 22h750v-62h-750c-37.333 0 -64 -8.33301 -80 -25s-24 -36.334 -24 -59.001v-650h854v-62z" />
    <glyph glyph-name="F" unicode="F" horiz-adv-x="1328" 
d="M990 878v-61.999h-644c-36 0 -62.667 -9 -80 -27s-25.333 -38.333 -24 -61v-708h-62v1566h968v-62h-906v-668c37.333 13.333 67.333 20.666 90 21.999h658z" />
    <glyph glyph-name="G" unicode="G" horiz-adv-x="1608" 
d="M180 803c0 215.333 60.667 399.002 182 551.002c124 154.667 278 232 462 232c96 0 189.667 -30 281 -90s162.333 -135.333 213 -226l-54 -32c-45.333 82.667 -109.333 151 -192 205s-172.667 81 -270 81s-189.666 -32.667 -276.999 -98s-156.333 -153 -207 -263
s-76 -230 -76 -360s25.333 -249.667 76 -359s119.667 -197 207 -263s182.333 -99 285 -99c62.667 0 125.334 17.667 188.001 53s120 81.666 172 138.999c115.333 127.333 180.666 290.666 195.999 489.999h-616v62h646c8 0 15.333 -3 22 -9s10 -13 10 -21
c0 -101.333 -17.333 -199.333 -52 -294s-82 -178 -142 -250c-129.333 -154.667 -273.666 -232 -432.999 -232c-80.667 0 -159.334 20.667 -236.001 62s-144.334 98 -203.001 170c-121.333 152 -182 335.667 -182 551z" />
    <glyph glyph-name="H" unicode="H" horiz-adv-x="1360" 
d="M1180 20l-62.001 -0.000976562v854c-61.333 -37.333 -118.666 -56.666 -171.999 -57.999h-522c-61.333 0 -110 -18 -146 -54c-14.667 -12 -26.667 -27.333 -36 -46v-696h-62v1566h62v-768c64 40 124.667 60 182 60h512c61.333 0 111.333 17.333 150 52
c12 13.333 22.667 29.333 32 48v608h62v-1566z" />
    <glyph glyph-name="I" unicode="I" horiz-adv-x="422" 
d="M180 20v1566h62v-1566h-62z" />
    <glyph glyph-name="J" unicode="J" horiz-adv-x="970" 
d="M180 20l-0.000976562 62.001c89.333 0 177.666 32.667 264.999 98s156.333 152.666 207 261.999s76 229.333 76 360v784h62v-784c0 -216 -60.667 -400 -182 -552c-57.333 -70.667 -124.666 -126.667 -201.999 -168s-152.666 -62 -225.999 -62z" />
    <glyph glyph-name="K" unicode="K" horiz-adv-x="1390" 
d="M242 20l-62 -0.00195312v1566h62v-752c34.667 60 61.334 97.333 80.001 112l684 640h92l-738 -686c-48.667 -41.333 -51.334 -80.666 -8.00098 -117.999l826 -762h-92l-772 714c-13.333 10.667 -37.333 43.334 -72 98.001v-812z" />
    <glyph glyph-name="L" unicode="L" horiz-adv-x="1328" 
d="M242 82h906v-62h-968v1566h62v-1504z" />
    <glyph glyph-name="M" unicode="M" horiz-adv-x="1594" 
d="M1414 1586v-1566h-62v1410l-516 -1410h-80l-514 1412v-1412h-62v1566h70l546 -1494l546 1494h72z" />
    <glyph glyph-name="N" unicode="N" horiz-adv-x="1348" 
d="M1106 1586h62v-1566h-128l-798 1464v-1464h-62v1566h76l850 -1558v1558z" />
    <glyph glyph-name="O" unicode="O" horiz-adv-x="1622" 
d="M810 1524c-102.667 0 -197.667 -32.668 -285 -98.001s-156.333 -153 -207 -263s-76 -230 -76 -360s25.333 -249.667 76 -359s119.667 -197 207 -263s182.333 -99 285 -99s198 33 286 99s157.333 153.667 208 263s76 229 76 359s-25.333 250.333 -76 361
s-120 198.334 -208 263.001s-183.333 97 -286 97zM810 19.999c-86.667 0 -168.334 20.667 -245.001 62s-144.334 98 -203.001 170c-121.333 152 -182 335.667 -182 551s60.667 399 182 551c58.667 73.333 126.334 130.333 203.001 171s158.334 61 245.001 61
s168.667 -20.333 246 -61s144.666 -97.667 201.999 -171c122.667 -152 184 -335.333 184 -550s-61.333 -398.667 -184 -552c-57.333 -72 -124.666 -128.667 -201.999 -170s-159.333 -62 -246 -62z" />
    <glyph glyph-name="P" unicode="P" horiz-adv-x="1386" 
d="M822 878c88 0 163.333 31.668 226 95.001s94 139.333 94 228s-31.333 164.667 -94 228s-138 95 -226 95h-580v-668c38.667 13.333 70.667 20.666 96 21.999h484zM346 816.001c-66 0 -100.666 -27.333 -103.999 -82v-714h-62v1566h644c68 0 131.667 -17.333 191 -52
s106 -81.667 140 -141s51 -124.333 51 -195c0 -105.333 -37.333 -195.333 -112 -270s-165.334 -112 -272.001 -112h-476z" />
    <glyph glyph-name="Q" unicode="Q" horiz-adv-x="1622" 
d="M810 82c102.667 0 198 32.999 286 98.999s157.333 153.667 208 263s76 229 76 359s-25.333 250.333 -76 361s-120 198.334 -208 263.001s-183.333 97 -286 97s-197.667 -32.667 -285 -98s-156.333 -153 -207 -263s-76 -230 -76 -360s25.333 -249.667 76 -359
s119.667 -197 207 -263s182.333 -99 285 -99zM180 802.999c0 215.333 60.667 399 182 551c58.667 73.333 126.334 130.333 203.001 171s158.334 61 245.001 61s168.667 -20.333 246 -61s144.666 -97.667 201.999 -171c122.667 -152 184 -335.333 184 -550
c0 -249.333 -84.667 -458.666 -254 -627.999c37.333 -58 84.666 -92.667 141.999 -104l2 -62l-68 16c-44 20 -85.333 56 -124 108c-109.333 -76 -213.333 -114 -312 -114c-184.667 0 -338.667 76.667 -462 230c-124 153.333 -186 337.666 -186 552.999z" />
    <glyph glyph-name="R" unicode="R" horiz-adv-x="1424" 
d="M822 878c88 0 163.333 31.668 226 95.001s94 139 94 227s-31.333 164 -94 228s-138 96 -226 96h-580v-668c38.667 13.333 70.667 20.666 96 21.999h484zM346 816.001c-66 0 -100.666 -27.333 -103.999 -82v-714h-62v1566h642c69.333 0 133.666 -17 192.999 -51
s106 -81 140 -141s51 -130.333 51 -211s-29.667 -156.667 -89 -228s-144.333 -117 -255 -137c26.667 -33.333 44.667 -59.333 54 -78l318 -720h-68l-310 700c-20 33.333 -38.333 55 -55 65c-34 20.667 -57.667 31 -71 31h-384z" />
    <glyph glyph-name="S" unicode="S" horiz-adv-x="1460" 
d="M760 20c-157.333 0 -275.004 16.6631 -353.004 49.9961s-144.333 85.333 -199 156l-20 22l50 38l20 -26c22.667 -26.667 44.334 -49.334 65.001 -68.001c82 -74.667 220.333 -112 415 -112c146.667 0 262.667 33.333 348 100s128 158 128 274s-61.667 200 -185 252
c-77.333 32 -187.333 65.333 -330 100c-142 34.667 -243.333 69.667 -304 105s-105.667 74.333 -135 117c-30.667 50.667 -46 109.334 -46 176.001c0 114.667 40 205.334 120 272.001c92 73.333 227.333 110 406 110c84 0 163 -18 237 -54s136.333 -86.667 187 -152l20 -24
l-48 -38l-22 26c-45.333 58.667 -101 103.667 -167 135s-135 47 -207 47c-165.333 0 -283.666 -29.333 -354.999 -88s-107 -132.667 -107 -222s25.333 -157 76 -203c50.667 -45.333 131 -84.333 241 -117c40.667 -12 94.334 -26.667 161.001 -44
c169.333 -40 284 -77.667 344 -113s105 -75.666 135 -120.999s45 -99.666 45 -162.999c0 -131.333 -46 -233.666 -138 -306.999c-97.333 -85.333 -224.666 -128 -381.999 -128z" />
    <glyph glyph-name="T" unicode="T" horiz-adv-x="1506" 
d="M1326 1586v-62h-556v-1504h-62v1504h-528v62h1146z" />
    <glyph glyph-name="U" unicode="U" horiz-adv-x="1332" 
d="M665 22c-134 0 -248.334 47.333 -343.001 142s-142 209.334 -142 344.001v1078h62v-1078c0 -117.333 41.667 -217.333 125 -300s183.333 -124 300 -124s216.334 41.333 299.001 124s124 182.667 124 300v1078h62v-1078c0 -134.667 -47.667 -249.334 -143 -344.001
s-210 -142 -344 -142z" />
    <glyph glyph-name="V" unicode="V" horiz-adv-x="1550" 
d="M736 20l-548 1566h68l520 -1490l518 1490h68l-546 -1566h-80z" />
    <glyph glyph-name="W" unicode="W" horiz-adv-x="2286" 
d="M2036 1586h62l-546 -1566h-62l-346 1266l-346 -1266h-62l-548 1566h62l514 -1474l360 1324h38l360 -1324z" />
    <glyph glyph-name="X" unicode="X" horiz-adv-x="1636" 
d="M1436 1586l-580 -782l580 -784h-74l-544 736l-544 -736h-74l580 784l-580 782h74l544 -734l544 734h74z" />
    <glyph glyph-name="Y" unicode="Y" horiz-adv-x="1660" 
d="M860 636v-616h-60v616c0 66.667 -11.333 129.334 -34 188.001l-566 762h76l554 -748l556 748h74l-566 -762c-22.667 -58.667 -34 -121.334 -34 -188.001z" />
    <glyph glyph-name="Z" unicode="Z" horiz-adv-x="1592" 
d="M1372 82v-62h-1192v58l1148 1446h-1106v62h1190v-58l-1146 -1446h1106z" />
    <glyph glyph-name="bracketleft" unicode="[" horiz-adv-x="568" 
d="M388 -262h-208v1848h208v-62h-146v-1724h146v-62z" />
    <glyph glyph-name="backslash" unicode="\" horiz-adv-x="962" 
d="M708 20l-520 1566h68l518 -1566h-66z" />
    <glyph glyph-name="bracketright" unicode="]" horiz-adv-x="568" 
d="M180 -262v62h146v1724h-146v62h208v-1848h-208z" />
    <glyph glyph-name="asciicircum" unicode="^" horiz-adv-x="1072" 
d="M224 1276l-36 52l364 254l332 -256l-36 -48l-298 226z" />
    <glyph glyph-name="underscore" unicode="_" horiz-adv-x="1326" 
d="M180 20v62h966v-62h-966z" />
    <glyph glyph-name="grave" unicode="`" horiz-adv-x="496" 
d="M254 1278v28c0 50.667 -6.33301 92 -19 124s-23 56 -31 72s-14 26.667 -18 32s-2.66699 5.33301 4 0l46 40c1.33301 -2.66699 6.33301 -10.667 15 -24s21.667 -44 39 -92s26 -98.667 26 -152v-28h-62zM236 1574z" />
    <glyph glyph-name="a" unicode="a" horiz-adv-x="1166" 
d="M584 612c-96 0 -176.666 -26.334 -241.999 -79.001s-98 -114.667 -98 -186s32.667 -133.333 98 -186s145.666 -79 240.999 -79s176 26.333 242 79s99 114.334 99 185.001v288c-36 -14.667 -64 -22 -84 -22h-256zM986.001 345.999
c0 -90.667 -39.333 -167.663 -118 -230.996s-173 -95 -283 -95s-205 31.667 -285 95s-120 140.666 -120 231.999s40 168.666 120 231.999s174.667 95 284 95h254c25.333 0 46 8 62 24s24 40.667 24 74v68c0 73.333 -31.333 135.666 -94 186.999s-138.667 77 -228 77
c-56 0 -108.667 -11.333 -158 -34s-88 -53.334 -116 -92.001l-20 -26l-52 38l20 24c36 46.667 82.333 83.667 139 111s119 41 187 41c105.333 0 196 -31.333 272 -94c74.667 -64 112 -141.333 112 -232v-494z" />
    <glyph glyph-name="b" unicode="b" horiz-adv-x="1172" 
d="M242 82h187.999c138.667 0 256.667 49 354 147s146 215.667 146 353c0 92 -22.333 176 -67 252s-105 136.667 -181 182s-160 68 -252 68h-82c-29.333 0 -64.666 7.33301 -105.999 22v-1024zM429.999 20h-250v1566h62v-358c0 -22.667 8.33301 -42 25 -58s43 -24 79 -24h84
c156 0 288.667 -55 398 -165s164 -242.667 164 -398s-54.667 -288 -164 -398s-242 -165 -398 -165z" />
    <glyph glyph-name="c" unicode="c" horiz-adv-x="1186" 
d="M316 188c-90.667 113.333 -136.001 248.332 -136.001 404.999s46 291.334 138 404.001s206.333 169 343 169s242.334 -50.667 317.001 -152l20 -24l-50 -38l-20 26c-61.333 84 -151 126 -269 126s-217 -49.333 -297 -148s-120 -219.667 -120 -363s40 -264.333 120 -363
s177.333 -148 292 -148c56 0 108.667 11.333 158 34s88 54 116 94l20 24l50 -36l-20 -26c-72 -101.333 -185.333 -152 -340 -152c-54.667 0 -111 15 -169 45s-109 71 -153 123z" />
    <glyph glyph-name="d" unicode="d" horiz-adv-x="1172" 
d="M824 1084l-84.001 0.000976562c-137.333 0 -254.666 -49.333 -351.999 -148s-146 -216.667 -146 -354c0 -66.667 13.333 -131 40 -193s62 -115.333 106 -160s97 -80.334 159 -107.001s126.333 -40 193 -40h188v1026c-40 -16 -74.667 -24 -104 -24zM179.999 583.001
c0 155.333 54.999 288 164.999 398s241.667 165 395 165h84c38.667 0 67.334 8.66699 86.001 26c12 18 18 36 18 54v360h64v-1566h-252c-153.333 0 -285 55 -395 165s-165 242.667 -165 398z" />
    <glyph glyph-name="e" unicode="e" horiz-adv-x="1206" 
d="M320 674l286.001 -0.000976562c109.333 0 193.333 22.667 252 68s88 97 88 155s-26 107 -78 147s-125.333 60 -220 60s-180.334 -39.667 -257.001 -119s-125.667 -189.666 -147 -330.999c40 13.333 65.333 20 76 20zM246.001 524.999
c0 -4.66699 0.664062 -10.332 1.99707 -16.999v-4c16 -116.667 62.667 -216.667 140 -300c34.667 -37.333 75.667 -67 123 -89s95 -33 143 -33c134.667 0 233.334 42.667 296.001 128l18 24l50 -36l-18 -26c-76 -101.333 -191.333 -152 -346 -152
c-132 0 -244.667 56.667 -338 170c-62.667 76 -104 166 -124 270c-8 33.333 -12 77.333 -12 132c0 157.333 46 292.333 138 405s204 169 336 169c106.667 0 192.334 -26 257.001 -78s97 -116.333 97 -193s-35.667 -143 -107 -199s-169.666 -84 -294.999 -84h-278
c-44 0 -70.667 -23.333 -80 -70c-1.33301 -6.66699 -2 -12.334 -2 -17.001z" />
    <glyph glyph-name="f" unicode="f" horiz-adv-x="792" 
d="M582 1586l29.999 0.000976562v-62h-30c-92 0 -170.667 -34.333 -236 -103s-100.666 -161.667 -105.999 -279c42.667 16 78 24 106 24h216v-62h-216c-37.333 0 -64 -8.66699 -80 -26s-24 -37.333 -24 -60v-998h-62v1136c0 117.333 38.667 218.666 116 303.999
c78.667 84 174 126 286 126z" />
    <glyph glyph-name="g" unicode="g" horiz-adv-x="1172" 
d="M824 110c29.333 0 64 -8 104 -24v1024h-188c-137.333 0 -254.666 -49 -351.999 -147s-146 -216 -146 -354s48.667 -255.667 146 -353s214.666 -146 351.999 -146h84zM740 48c-154.667 0 -286.668 54.999 -396.001 164.999s-164 242.333 -164 397s54.667 287 164 397
s241.333 165 396 165h252v-1234c0 -90.667 -38 -168 -114 -232s-166 -96 -270 -96c-66.667 0 -128.667 13.333 -186 40s-104 64 -140 112l-18 26l48 38l20 -26c30.667 -40 70.334 -71 119.001 -93s101 -33 157 -33c88 0 163.333 25.333 226 76s94 113.334 94 188.001v28
c-3.33301 54.667 -38 82 -104 82h-84z" />
    <glyph glyph-name="h" unicode="h" horiz-adv-x="1164" 
d="M984 718v-697.999h-62v698c0 68 -15 130 -45 186s-71.333 100.667 -124 134s-109.667 50 -171 50h-254c-20 0 -48.667 6.66699 -86 20v-1088h-62v1566h62v-330c0 -54 18.667 -87.667 56 -101c9.33301 -3.33301 18 -5 26 -5h258c112 0 207 -42.333 285 -127
s117 -186.334 117 -305.001z" />
    <glyph glyph-name="i" unicode="i" horiz-adv-x="422" 
d="M212 1532c5.33301 0 11.667 -2 19 -6s11 -12 11 -24v-28c0 -9.33301 -3 -17 -9 -23s-13.333 -9 -22 -9s-16 3 -22 9s-9 13.667 -9 23v28c0 20 10.667 30 32 30zM180.001 20v1146h62v-1146h-62z" />
    <glyph glyph-name="j" unicode="j" horiz-adv-x="794" 
d="M552 42v1176h62v-1176c0 -118.667 -39 -220.334 -117 -305.001s-173 -127 -285 -127h-32v64h32c93.333 0 173.333 36 240 108s100 158.667 100 260zM582 1532c21.333 0 32.001 -10 32.001 -30v-28c0 -9.33301 -3.33301 -17 -10 -23s-14 -9 -22 -9s-15 3 -21 9
s-9 13.667 -9 23v28c0 11.333 3.66699 19.333 11 24c7.33301 4 13.666 6 18.999 6z" />
    <glyph glyph-name="k" unicode="k" horiz-adv-x="1254" 
d="M242 20l-62.001 -0.000976562v1566h62v-968l690 548h102l-588 -468c29.333 -20 49.333 -36 60 -48l544 -630h-84l-508 590l-2 2c-27.333 34.667 -58.666 41.334 -93.999 20.001l-120 -94v-518z" />
    <glyph glyph-name="l" unicode="l" horiz-adv-x="422" 
d="M180 20v1566h62v-1566h-62z" />
    <glyph glyph-name="m" unicode="m" horiz-adv-x="1904" 
d="M1724 734l-0.000976562 -713.999h-62v714c0 102.667 -33 190 -99 262s-146 108 -240 108s-174 -36 -240 -108s-99 -159.333 -99 -262v-714h-62v714c0 68 -15 130 -45 186s-71.333 100.667 -124 134s-109.667 50 -171 50c-94.667 0 -175 -36 -241 -108
s-99 -159.333 -99 -262v-714h-62v714c0 118.667 38.667 220.667 116 306c78.667 84 174 126 286 126s206.667 -42 284 -126c28 -30.667 56.667 -75.334 86 -134.001c30.667 58.667 59.334 103.334 86.001 134.001c77.333 84 172.333 126 285 126s207.667 -42.333 285 -127
s116 -186.334 116 -305.001z" />
    <glyph glyph-name="n" unicode="n" horiz-adv-x="1164" 
d="M984 20l-62 0.000976562v714c0 68 -15 130 -45 186s-71.333 100.667 -124 134s-109.667 50 -171 50c-94.667 0 -175 -36 -241 -108s-99 -159.333 -99 -262v-714h-62v714c0 118.667 38.667 220.667 116 306c78.667 84 174 126 286 126s207 -42.333 285 -127
s117 -186.334 117 -305.001v-714z" />
    <glyph glyph-name="o" unicode="o" horiz-adv-x="1346" 
d="M673 1104c-119.333 0 -221.001 -49.665 -305.001 -148.998s-126 -219.666 -126 -360.999c0 -90.667 19 -175.334 57 -254.001s90 -141 156 -187s133.333 -69 202 -69c127.333 0 233.333 49.667 318 149s127 219.666 127 360.999s-41.667 261.666 -125 360.999
s-184.666 149 -303.999 149zM179.999 593.002c0 156.667 47.668 291.335 143.001 404.002s211.666 169 348.999 169s254 -56.333 350 -169s144 -247.334 144 -404.001s-48 -290.334 -144 -401.001c-94 -113.333 -210.333 -170 -349 -170s-255.667 56 -351 168
c-94.667 112 -142 246.333 -142 403z" />
    <glyph glyph-name="p" unicode="p" horiz-adv-x="1172" 
d="M348 114l82.001 -0.00195312c92 0 176 22.333 252 67s136.333 105.334 181 182.001s67 160.334 67 251.001c0 138.667 -49 256.667 -147 354s-215.667 146 -353 146h-188v-1022c41.333 14.667 76.666 22 105.999 22zM992.001 613.998c0 -154.667 -54.667 -287 -164 -397
s-242 -165 -398 -165h-84c-36 0 -62.333 -7.66699 -79 -23s-25 -34.333 -25 -57v-362h-62v1566h250c156 0 288.667 -55 398 -165s164 -242.333 164 -397z" />
    <glyph glyph-name="q" unicode="q" horiz-adv-x="1172" 
d="M928 1114h-188c-137.333 0 -254.666 -49 -351.999 -147s-146 -215.667 -146 -353s48.667 -255 146 -353s214.666 -147 351.999 -147h84c29.333 0 64 -8 104 -24v1024zM740 1176h252v-1566h-64v360c0 21.333 -7.66699 40.333 -23 57s-42.333 25 -81 25h-84
c-153.333 0 -285 55 -395 165s-165 242.333 -165 397s55 287 165 397s241.667 165 395 165z" />
    <glyph glyph-name="r" unicode="r" horiz-adv-x="742" 
d="M242 20h-62.001v714c0 118.667 38.667 220.667 116 306c78.667 84 167.334 126 266.001 126v-62c-24 0 -53.333 -6 -88 -18c-64 -22 -118.667 -65.667 -164 -131s-68 -139 -68 -221v-714z" />
    <glyph glyph-name="s" unicode="s" horiz-adv-x="1148" 
d="M968 338c0 -92 -33.3311 -168.003 -99.998 -228.003s-156 -90 -268 -90s-195.667 12.333 -251 37s-102.333 63 -141 115l-20 26l50 36l20 -24c29.333 -41.333 67.666 -73 114.999 -95s118.666 -33 213.999 -33s172.333 23 231 69s88 105.667 88 179s-30.667 130 -92 170
c-41.333 22.667 -118.666 49.334 -231.999 80.001c-118.667 28 -201.334 56.667 -248.001 86c-82.667 50.667 -124 120.334 -124 209.001s30.667 159.334 92 212.001s155.333 79 282 79c80.667 0 154 -23.333 220 -70c32 -22.667 60 -50 84 -82l20 -24l-48 -40l-22 26
c-65.333 85.333 -150 128 -254 128c-208 0 -312 -74 -312 -222c0 -72 32 -126.667 96 -164c41.333 -24 120 -51 236 -81s196.667 -58.333 242 -85c81.333 -50.667 122 -122 122 -214z" />
    <glyph glyph-name="t" unicode="t" horiz-adv-x="744" 
d="M242 454c0 -102.667 33.334 -190.332 100.001 -262.999s140.667 -109 222 -109v-62c-100 0 -189 42.333 -267 127s-117 187 -117 307v1132h62v-464c41.333 14.667 76.666 22 105.999 22h216v-62h-216c-37.333 0 -64 -8.33301 -80 -25s-24.667 -36.334 -26 -59.001v-544z
" />
    <glyph glyph-name="u" unicode="u" horiz-adv-x="1164" 
d="M582 20c-112 0 -207 42.333 -285 127s-117 187 -117 307v712h62v-712c0 -102.667 33 -190.334 99 -263.001s146 -109 240 -109s174.333 36.333 241 109s100 160.334 100 263.001v712h62v-712c0 -120 -39 -222.333 -117 -307s-173 -127 -285 -127z" />
    <glyph glyph-name="v" unicode="v" horiz-adv-x="1300" 
d="M686 20h-70l-428 1146h68l394 -1060l396 1060h66z" />
    <glyph glyph-name="w" unicode="w" horiz-adv-x="1928" 
d="M1312 20h-68l-280 904l-278 -904h-70l-428 1146h68l392 -1052l280 910h70l282 -910l392 1052h68z" />
    <glyph glyph-name="x" unicode="x" horiz-adv-x="1302" 
d="M1100 1166l-412 -572l414 -574h-74l-378 522l-376 -522h-74l412 574l-412 572h74l376 -522l378 522h72z" />
    <glyph glyph-name="y" unicode="y" horiz-adv-x="1308" 
d="M278 -390l-30.001 -0.000976562v60h30c68 0 130.333 21 187 63s94.334 93 113.001 153h4l8 32c5.33301 16 8 46.333 8 91s-15.333 106.334 -46 185.001l-364 972h66l354 -948c6.66699 -25.333 20.667 -73.333 42 -144l408 1092h62l-480 -1286
c-28 -80 -74.667 -145 -140 -195s-139.333 -75 -222 -75z" />
    <glyph glyph-name="z" unicode="z" horiz-adv-x="1260" 
d="M1040 20h-860v58l816 1026h-776v62h860v-58l-816 -1026h776v-62z" />
    <glyph glyph-name="braceleft" unicode="{" horiz-adv-x="962" 
d="M734 -234c-110.667 0 -184.67 45.334 -222.003 136.001c-21.333 52 -33.333 143.333 -36 274s-11.667 227 -27 289s-38.333 105.333 -69 130s-74.667 38.334 -132 41.001h-68v80h68c57.333 2.66699 101.333 16.667 132 42c58.667 48.667 90.667 180 96 394
c2.66699 146.667 14.667 246 36 298c38.667 93.333 115.334 138.666 230.001 135.999h40v-78h-42c-78.667 2 -130 -26.667 -154 -86c-18.667 -44 -29.667 -146.667 -33 -308s-25.666 -277.333 -66.999 -348c-17.333 -29.333 -44.666 -59.333 -81.999 -90
c37.333 -29.333 64.666 -59.333 81.999 -90c41.333 -72 63.666 -188.333 66.999 -349s14.333 -262.334 33 -305.001c10.667 -29.333 27.334 -51.333 50.001 -66s57.334 -22 104.001 -22l42 2v-80h-48z" />
    <glyph glyph-name="bar" unicode="|" horiz-adv-x="422" 
d="M180 -258v1844h62v-1844h-62z" />
    <glyph glyph-name="braceright" unicode="}" horiz-adv-x="962" 
d="M228 -234l-48 -0.00195312v80l42 -2c81.333 0 133.333 29.333 156 88c17.333 42.667 27.666 144.334 30.999 305.001s25.666 277 66.999 349c17.333 30.667 46 60.667 86 90c-40 30.667 -68.667 60.667 -86 90c-41.333 70.667 -63.666 186.667 -66.999 348
s-12 260 -26 296s-32.667 61.667 -56 77s-58.333 22.333 -105 21h-42v78h40c114.667 2.66699 191.334 -42.666 230.001 -135.999c21.333 -52 33.333 -136.333 36 -253s7.66699 -202 15 -256s20.666 -98 39.999 -132s42.333 -57.667 69 -71s61.334 -20.666 104.001 -21.999
h68v-80h-68c-57.333 -2.66699 -101.333 -16.334 -132 -41.001s-53.334 -68 -68.001 -130s-23.667 -158.333 -27 -289s-15.666 -222 -36.999 -274c-37.333 -90.667 -111.333 -136 -222 -136z" />
    <glyph glyph-name="asciitilde" unicode="~" horiz-adv-x="1238" 
d="M598 662l-88.002 68c-50.667 38 -92.667 52.667 -126 44c-44 -10.667 -86.667 -60.667 -128 -150l-14 -28l-56 28l14 28c49.333 106.667 105.333 167.334 168 182.001c41.333 8 80 2.66699 116 -16s74.667 -44 116 -76l87 -67
c16.667 -12.667 38.334 -24.334 65.001 -35.001s50.667 -14 72 -10c54.667 12 107.334 74 158.001 186l14 28l56 -28l-12 -28c-29.333 -65.333 -61.333 -115.333 -96 -150c-44.667 -48 -93 -72 -145 -72s-119 32 -201 96z" />
    <glyph glyph-name="exclamdown" unicode="&#xa1;" horiz-adv-x="510" 
d="M254 1426c-22.667 0 -40.667 7 -54 21s-20 31.333 -20 52s3.33301 37 10 49c14 25.333 34 38 60 38c25.333 0 45 -7.66699 59 -23s21 -35 21 -59s-7 -43 -21 -57s-32.333 -21 -55 -21zM222 20v926h64v-926h-64z" />
    <glyph glyph-name="cent" unicode="&#xa2;" horiz-adv-x="1186" 
d="M694 -86l-62 -0.00195312v106c-126 14 -230.667 70 -314 168c-92 113.333 -138 248 -138 404v2c0 156 43.667 287 131 393s194.333 165.667 321 179v106h62v-108c128 -14.667 223.333 -64.667 286 -150l18 -24l-50 -38l-18 26c-28 38.667 -66.667 69.334 -116 92.001
s-102 34 -158 34c-114.667 0 -212.334 -49.667 -293.001 -149s-121 -219.666 -121 -360.999v-2c0 -140 40.333 -260 121 -360s178.334 -150 293.001 -150c56 0 108.667 11.333 158 34s88 54 116 94l18 24l50 -36l-18 -26c-62.667 -84 -158 -134 -286 -150v-108z" />
    <glyph glyph-name="sterling" unicode="&#xa3;" horiz-adv-x="1358" 
d="M1178 20h-997.999v60c20 0 42 8 66 24c80.667 53.333 124.667 258.666 132 615.999h-162v64h162c0 169.333 10 305 30 407c37.333 191.333 115.333 310.333 234 357c45.333 17.333 102 26 170 26s132.667 -28 194 -84s108 -124.667 140 -206l-58 -24
c-29.333 70.667 -69.333 130.334 -120 179.001s-105.334 73 -164.001 73c-115.333 0 -199.333 -38.667 -252 -116c-74.667 -106.667 -112 -310.667 -112 -612h454v-64h-454c-5.33301 -261.333 -30 -445.333 -74 -552c-9.33301 -18.667 -25.333 -46.667 -48 -84h860v-64z" />
    <glyph glyph-name="currency" unicode="&#xa4;" horiz-adv-x="1302" 
d="M651 376c91.333 0 169.667 35.998 235 107.998s98 159.333 98 262s-32.667 190 -98 262s-144 108 -236 108c-60 0 -115.667 -16.667 -167 -50s-91.666 -78.666 -120.999 -135.999s-44 -118.666 -44 -183.999c0 -102.667 32.667 -190 98 -262s143.666 -108 234.999 -108z
M1046 746.998c0 -91.333 -26.666 -177.665 -79.999 -258.998l148 -146l-46 -46l-138 142c-85.333 -82.667 -178.666 -124 -279.999 -124s-194 41.333 -278 124l-140 -142l-42 46l144 146c-53.333 81.333 -80 167.666 -80 258.999s26.667 177.666 80 258.999l-146 150l42 44
l144 -144c85.333 81.333 177.666 122 276.999 122s191.666 -40 276.999 -120l140 142l46 -44l-150 -148c54.667 -82.667 82 -169.667 82 -261z" />
    <glyph glyph-name="currency" unicode="&#x20ac;" horiz-adv-x="1302" 
d="M651 376c91.333 0 169.667 35.998 235 107.998s98 159.333 98 262s-32.667 190 -98 262s-144 108 -236 108c-60 0 -115.667 -16.667 -167 -50s-91.666 -78.666 -120.999 -135.999s-44 -118.666 -44 -183.999c0 -102.667 32.667 -190 98 -262s143.666 -108 234.999 -108z
M1046 746.998c0 -91.333 -26.666 -177.665 -79.999 -258.998l148 -146l-46 -46l-138 142c-85.333 -82.667 -178.666 -124 -279.999 -124s-194 41.333 -278 124l-140 -142l-42 46l144 146c-53.333 81.333 -80 167.666 -80 258.999s26.667 177.666 80 258.999l-146 150l42 44
l144 -144c85.333 81.333 177.666 122 276.999 122s191.666 -40 276.999 -120l140 142l46 -44l-150 -148c54.667 -82.667 82 -169.667 82 -261z" />
    <glyph glyph-name="yen" unicode="&#xa5;" horiz-adv-x="1572" 
d="M1158 730l-0.000976562 -60h-342v-164h342v-62h-342v-424h-60v424h-346v62h346v164h-346v60h340c-9.33301 40 -18 72 -26 96l-536 716l48 36l550 -740l550 740l48 -36l-534 -716c-9.33301 -24 -18.666 -56 -27.999 -96h336z" />
    <glyph glyph-name="brokenbar" unicode="&#xa6;" horiz-adv-x="422" 
d="M242 404v-384h-62v384h62zM180 732v854h62v-854h-62z" />
    <glyph glyph-name="section" unicode="&#xa7;" horiz-adv-x="1146" 
d="M904 798c0 65.333 -21.998 112.333 -65.998 141s-94.667 51 -152 67s-92 26 -104 30h-48c-94.667 0 -163.334 -21.333 -206.001 -64c-37.333 -32 -56 -80 -56 -144s21.667 -110.667 65 -140s103.333 -55 180 -77s129.667 -37.667 159 -47
c73.333 6.66699 129.666 31 168.999 73s59 95.667 59 161zM966.002 800c0 -86.667 -28.001 -157.335 -84.001 -212.002c-24 -24 -62 -47.333 -114 -70c65.333 -58.667 98 -128 98 -208s-29 -148.333 -87 -205s-135.667 -85 -233 -85s-170 12.333 -218 37
s-88.667 61 -122 109l-18 26l52 34l18 -26c26.667 -38.667 59.334 -68 98.001 -88s98.667 -30 180 -30s146.333 21.333 195 64s73 101.334 73 176.001c0 45.333 -11.333 81.666 -34 108.999s-57.334 50.333 -104.001 69c-4 0 -53.667 14.333 -149 43
s-162.333 56.334 -201 83.001c-70.667 46.667 -106 112.334 -106 197.001s25.333 150.334 76 197.001c28 26.667 76 50.667 144 72c-81.333 62.667 -122 134.334 -122 215.001s26.667 145.667 80 195s135.333 74 246 74c68.667 0 132 -22 190 -66c28 -21.333 52 -48 72 -80
l20 -24l-52 -36l-20 26c-54.667 78.667 -127 118 -217 118s-155.333 -19 -196 -57s-61 -88.667 -61 -152s22.333 -109.333 67 -138s114.334 -57.667 209.001 -87c102.667 -26.667 174 -53.334 214 -80.001c70.667 -46.667 106 -113.334 106 -200.001z" />
    <glyph glyph-name="dieresis" unicode="&#xa8;" horiz-adv-x="352" 
 />
    <glyph glyph-name="copyright" unicode="&#xa9;" horiz-adv-x="1320" 
d="M840 1180v-60h-200v-100h-100v-340h100v-100h200v-60h-260v100h-100v460h100v100h260zM940 420v-100h-560v100h-100v100h-100v660h100v100h100v100h560v-100h100v-100h100v-660h-100v-100h-100zM440 380h440v100h100v100h100v540h-100v100h-100v100h-440v-100h-100v-100
h-100v-540h100v-100h100v-100z" />
    <glyph glyph-name="ordfeminine" unicode="&#xaa;" horiz-adv-x="1020" 
d="M280 1380v100h460v-100h100v-660h-60v100h-100v300h-340v-100h-100v-140h100v-100h300v-60h-360v100h-100v260h100v100h400v240h-340v-100h-160v60h100zM840 580v-160h-660v160h660zM640 780v40h40v-40h-40z" />
    <glyph glyph-name="guillemotleft" unicode="&#xab;" horiz-adv-x="1000" 
d="M820 286l-312 306l312 310v-88l-222 -220l222 -220v-88zM502 286l-314 308l314 308v-88l-224 -220l222 -218z" />
    <glyph glyph-name="logicalnot" unicode="&#xac;" horiz-adv-x="730" 
d="M470 158c0 25.333 2.66504 65.999 7.99805 121.999l-296 6l4 12v6c9.33301 29.333 27.333 45.333 54 48c0 -1.33301 4 -1.66602 12 -0.999023s16 1 24 1l108 -2h58c40 -1.33301 68.667 -11.333 86 -30c12.667 -10 20 -30 22 -60
c-5.33301 -41.333 -8.66602 -72 -9.99902 -92c-1.33301 -16 -24.666 -24.667 -69.999 -26v16zM179.998 267.999v18h2c-1.33301 -8 -2 -14 -2 -18z" />
    <glyph glyph-name="registered" unicode="&#xae;" horiz-adv-x="1320" 
d="M940 620v-100h-560v100h-100v100h-100v560h100v100h100v100h560v-100h100v-100h100v-560h-100v-100h-100zM440 580h440v100h100v100h100v440h-100v100h-100v100h-440v-100h-100v-100h-100v-440h100v-100h100v-100zM780 880h60v-160h-60v160zM780 1180h60v-160h-60v160z
M740 1280v-60h-200v-240h200v-60h-200v-200h-60v560h260z" />
    <glyph glyph-name="macron" unicode="&#xaf;" horiz-adv-x="948" 
d="M618 666c65.333 0 110.667 2.99902 136 8.99902c0.666992 -11.333 2.66699 -22.333 6 -33l8 -43c-1.33301 3.33301 -11 4 -29 2s-74.333 -3 -169 -3h-36c-136 0 -253 2.66699 -351 8l3 10v4c9.33301 30.667 27.333 47.334 54 50.001h36zM180.001 587.999v18h3
c-2 -4 -3 -10 -3 -18zM768.001 598.999v-1v1zM754.001 679.999h21.999c-5.33301 -1.33301 -12.666 -3 -21.999 -5v5z" />
    <glyph glyph-name="degree" unicode="&#xb0;" horiz-adv-x="288" 
 />
    <glyph glyph-name="plusminus" unicode="&#xb1;" horiz-adv-x="1326" 
d="M180 16v62h966v-62h-966zM180 576v62h452v552h62v-552h452v-62h-452v-354h-62v354h-452z" />
    <glyph glyph-name="uni00B2" unicode="&#xb2;" horiz-adv-x="384" 
 />
    <glyph glyph-name="uni00B3" unicode="&#xb3;" horiz-adv-x="386" 
 />
    <glyph glyph-name="acute" unicode="&#xb4;" horiz-adv-x="588" 
d="M194 574l-6.00098 3.99902c9.33301 18.667 40.666 64.667 93.999 138l16 22l22 -14c1.33301 2.66699 3.33301 1 6 -5s6.66699 -12.333 12 -19l66 -40c0 -1.33301 -5.33301 -10.666 -16 -27.999l-80 -126c-5.33301 -6.66699 -9.66602 -10.667 -12.999 -12
s-14.666 4.66699 -33.999 18s-35 27.333 -47 42z" />
    <glyph glyph-name="mu" unicode="&#xb5;" horiz-adv-x="544" 
 />
    <glyph glyph-name="paragraph" unicode="&#xb6;" horiz-adv-x="570" 
 />
    <glyph glyph-name="periodcentered" unicode="&#xb7;" horiz-adv-x="196" 
 />
    <glyph glyph-name="cedilla" unicode="&#xb8;" horiz-adv-x="456" 
 />
    <glyph glyph-name="uni00B9" unicode="&#xb9;" horiz-adv-x="270" 
 />
    <glyph glyph-name="ordmasculine" unicode="&#xba;" horiz-adv-x="388" 
 />
    <glyph glyph-name="guillemotright" unicode="&#xbb;" horiz-adv-x="1000" 
d="M182 286l-2 88l222 220l-222 220l2 88l312 -310zM502 286v90l220 218l-220 220v88l310 -308z" />
    <glyph glyph-name="onequarter" unicode="&#xbc;" horiz-adv-x="1320" 
d="M980 1580v100h60v-160h-100v-200h-100v-200h-100v-200h-100v-100h-100v-200h-100v-200h-100v-200h-100v-100h-60v160h100v200h100v200h100v200h100v100h100v200h100v200h100v200h100zM980 380v240h-140v-240h140zM1040 380h100v-60h-100v-200h-60v200h-300v160h100v200
h100v100h160v-400zM280 1520h-100v60h100v100h160v-600h100v-60h-360v60h100v440z" />
    <glyph glyph-name="onehalf" unicode="&#xbd;" horiz-adv-x="1320" 
d="M980 1580v100h60v-160h-100v-200h-100v-200h-100v-200h-100v-100h-100v-200h-100v-200h-100v-200h-100v-100h-60v160h100v200h100v200h100v200h100v100h100v200h100v200h100v200h100zM680 620v60h100v100h260v-100h100v-160h-100v-100h-200v-240h300v-60h-460v260h100
v100h200v240h-140v-100h-160zM280 1520h-100v60h100v100h160v-600h100v-60h-360v60h100v440z" />
    <glyph glyph-name="threequarters" unicode="&#xbe;" horiz-adv-x="1320" 
d="M1080 1580v100h60v-160h-100v-200h-100v-200h-100v-200h-100v-100h-100v-200h-100v-200h-100v-200h-100v-100h-60v160h100v200h100v200h100v200h100v100h100v200h100v200h100v200h100zM980 380v240h-140v-240h140zM1040 380h100v-60h-100v-200h-60v200h-300v160h100v200
h100v100h160v-400zM540 1580h100v-160h-100v-140h100v-160h-100v-100h-260v100h-100v60h160v-100h140v240h-100v60h100v240h-140v-100h-160v60h100v100h260v-100z" />
    <glyph glyph-name="questiondown" unicode="&#xbf;" horiz-adv-x="1178" 
d="M180 399c0 118 29.3359 213.667 88.0029 287c33.333 41.333 92.666 82.666 177.999 123.999c36 17.333 63.333 32.666 82 45.999c44 31.333 66 75.333 66 132v30h58v-30c0 -70 -19.333 -120.667 -58 -152s-76.334 -56 -113.001 -74
c-36.667 -17.333 -63 -30.666 -79 -39.999s-36.333 -24.666 -61 -45.999s-42.667 -44 -54 -68c-31.333 -66.667 -47 -140.667 -47 -222c0 -202.667 126.667 -304 380 -304c60 0 116.667 14.667 170 44s98 71.333 134 126l18 26l48 -34l-16 -24
c-44 -62.667 -97 -111.667 -159 -147s-127 -53 -195 -53c-150.667 0 -263.334 36 -338.001 108c-68 62.667 -102 153 -102 271zM538.003 1508c0 52 24.668 77.999 74.001 77.999c21.333 0 38.666 -7 51.999 -21s20 -32.667 20 -56s-7 -42.333 -21 -57s-32 -22 -54 -22
s-39.333 7.33301 -52 22s-19 33.334 -19 56.001z" />
    <glyph glyph-name="divide" unicode="&#xf7;" horiz-adv-x="1306" 
d="M646 1044c-22.667 0 -40.667 7.33301 -54 22s-20 33.667 -20 57s6.66699 42.333 20 57s31.333 22 54 22s40.334 -7.33301 53.001 -22s19 -33.667 19 -57s-6.33301 -42.333 -19 -57s-30.334 -22 -53.001 -22zM180 590v60h946v-60h-946zM646 178
c22.667 0 40.335 -7.33301 53.002 -22s19 -33.667 19 -57s-6.33301 -42.333 -19 -57s-28.334 -22 -47.001 -22s-33.334 3.66699 -44.001 11c-24 16.667 -36 38 -36 64s6.66699 46.333 20 61s31.333 22 54 22z" />
    <glyph glyph-name="circumflex" unicode="&#x2c6;" horiz-adv-x="892" 
d="M448 1518l-222 -148l-38 52l256 176l-8 8l268 -186l-36 -50z" />
    <glyph glyph-name="caron" unicode="&#x2c7;" horiz-adv-x="892" 
d="M668 1596l36 -50l-268 -186l8 8l-256 176l38 52l222 -146z" />
    <glyph glyph-name="uni02C9" unicode="&#x2c9;" horiz-adv-x="542" 
 />
    <glyph glyph-name="breve" unicode="&#x2d8;" horiz-adv-x="316" 
 />
    <glyph glyph-name="dotaccent" unicode="&#x2d9;" horiz-adv-x="198" 
 />
    <glyph glyph-name="ring" unicode="&#x2da;" horiz-adv-x="288" 
 />
    <glyph glyph-name="ogonek" unicode="&#x2db;" horiz-adv-x="500" 
d="M284 152c21.333 0 32.668 -1 34.001 -3s2 -9 2 -21v-24l-6 -52c-2.66699 -16.667 -3.66699 -26.667 -3 -30l-75 6c-13.333 0 -22 -4 -26 -12c-2.66699 -2.66699 -3.33398 -2 -2.00098 2l-28 2v26l4 116c16 36 26.667 69.333 32 100
c1.33301 -9.33301 -8.66699 -50 -30 -122c44 8 76.667 12 98 12zM311.002 22c0 -1.33301 0.333008 -1.33301 1 0h-1z" />
    <glyph glyph-name="tilde" unicode="&#x2dc;" horiz-adv-x="786" 
d="M218 344c-4 0 -14.001 8 -30.001 24c32 34.667 60.667 62 86 82l48 42l2 2c0.666992 -1.33301 2.66699 -4 6 -8l5 5c3.33301 -4.66699 11 -13 23 -25c0 4.66699 -0.333008 8.66699 -1 12l97 -88l117 105l19 -15l18 -18l-12 8c-5.33301 -8 -34.666 -35.333 -87.999 -82
l-42 -38l-8 -6h-13l-81 78c-8 5.33301 -13.333 9.33301 -16 12l-20 14l-86 -78c0 -17.333 -8 -26 -24 -26zM570.999 495l-1 1l4 2zM356.999 478l-21 20l4 -2c9.33301 0 15 -6 17 -18zM334.999 496c-2 0 -2 -1.66699 0 -5c2 3.33301 2 5 0 5zM323.999 494l2 2
c-2 0 -2.66699 -0.666992 -2 -2zM441.999 344h3h-3zM445.999 344c8 -0.666992 12 -4.66699 12 -12z" />
    <glyph glyph-name="hungarumlaut" unicode="&#x2dd;" horiz-adv-x="836" 
d="M442 574c-13.333 9.33301 -13.333 13.9971 0 13.9971c8 14.667 38 57.334 90 128.001l16 22l26 -18c4 -8 9.33301 -15.333 16 -22l62 -38c0 -1.33301 -5.33301 -10.666 -16 -27.999l-78 -120c-4 -4 -6 -7.33301 -6 -10c-4 -4 -7.33301 -6.66699 -10 -8
s-13 4.33398 -31 17.001s-34.333 27 -49 43zM194 573.997l-6.00098 3.99902c9.33301 18.667 40.666 64.667 93.999 138l16 22l22 -14c1.33301 2.66699 3.33301 1 6 -5s6.66699 -12.333 12 -19l66 -40c0 -1.33301 -5.33301 -10.666 -16 -27.999l-80 -126
c-5.33301 -6.66699 -9.66602 -10.667 -12.999 -12s-14.666 4.66699 -33.999 18s-35 27.333 -47 42z" />
    <glyph glyph-name="uni060C" unicode="&#x60c;" horiz-adv-x="512" 
d="M180 260v154.001h62v-154c0 -74.667 21 -127.334 63 -158.001l27 -20c4 -2.66699 2 -2 -6 2l-24 -58c-10.667 4 -28 18 -52 42c-46.667 49.333 -70 113.333 -70 192z" />
    <glyph glyph-name="uni061B" unicode="&#x61b;" horiz-adv-x="552" 
d="M256 120c-22.667 0 -41 7.33301 -55 22s-21 34 -21 58s7 43.333 21 58s32.667 22 56 22s41.333 -7.33301 54 -22s19 -34 19 -58s-6.66699 -43.333 -20 -58s-31.333 -22 -54 -22zM288 1146v-153.999h-62v154c0 77.333 23.333 140.666 70 189.999
c24 25.333 41.333 40 52 44l20 -62c-53.333 -38 -80 -95.333 -80 -172z" />
    <glyph glyph-name="uni061F" unicode="&#x61f;" horiz-adv-x="1178" 
d="M620 1586c68 0 132.998 -17.332 194.998 -51.999s115 -83.334 159 -146.001l16 -24l-48 -36l-18 26c-36 56 -80.667 98.667 -134 128s-110 44 -170 44c-253.333 0 -380 -101.333 -380 -304c0 -135.333 33.667 -232 101 -290c30.667 -26 67.667 -50.333 111 -73
c44 -22 73.333 -37.667 88 -47s32.334 -23 53.001 -41c39.333 -34 59 -85 59 -153v-28h-58v28c0 57.333 -22.333 101.666 -67 132.999c-18 12.667 -45 27.667 -81 45c-85.333 41.333 -144.666 83.333 -177.999 126c-58.667 72 -88 167.333 -88 286
s35.667 211.334 107 278.001s182.333 100 333 100zM683.998 99.001c0 -23.333 -6.66602 -42.333 -19.999 -57s-31.333 -22 -54 -22s-40.334 7.33301 -53.001 22s-19 33.667 -19 57s6.33301 42.333 19 57s30 22 52 22s40 -7.33301 54 -22s21 -33.667 21 -57z" />
    <glyph glyph-name="uni0640" unicode="&#x640;" horiz-adv-x="270" 
d="M280 20h-290v64h290v-64z" />
    <glyph glyph-name="uni0653" unicode="&#x653;" horiz-adv-x="304" 
 />
    <glyph glyph-name="uni0654" unicode="&#x654;" horiz-adv-x="280" 
 />
    <glyph glyph-name="uni0655" unicode="&#x655;" horiz-adv-x="280" 
 />
    <glyph glyph-name="uni0660" unicode="&#x660;" horiz-adv-x="510" 
d="M254 686c22.667 0 41 -7.66699 55 -23s21 -35 21 -59s-7 -43.667 -21 -59s-32.333 -23 -55 -23s-40.667 7.66699 -54 23s-20 35 -20 59s6.66699 43.667 20 59s31.333 23 54 23z" />
    <glyph glyph-name="uni0661" unicode="&#x661;" horiz-adv-x="422" 
d="M180 20v1566h62v-1566h-62z" />
    <glyph glyph-name="uni0662" unicode="&#x662;" horiz-adv-x="1164" 
d="M242 20h-62v1566h62v-332c0 -102.667 33 -190 99 -262s146.333 -108 241 -108c61.333 0 118.333 16.667 171 50s94 78 124 134s45 118 45 186v332h62v-332c0 -120 -39 -222.333 -117 -307s-173 -127 -285 -127s-207.333 42.667 -286 128
c-6.66699 6.66699 -24.667 28 -54 64v-992z" />
    <glyph glyph-name="uni0663" unicode="&#x663;" horiz-adv-x="1270" 
d="M244 20h-64v1566h64v-702c74.667 0 138.334 16.667 191.001 50s94 78 124 134s45 118 45 186v332h62v-332c0 -120 -41.333 -224 -124 -312c0 -1.33301 -5.33301 -7.33301 -16 -18c58.667 -26.667 115.667 -40 171 -40s109.333 16.667 162 50s94 78 124 134s45 118 45 186
v332h62v-332c0 -120 -39 -222.333 -117 -307s-173 -127 -285 -127c-74.667 0 -145.334 21.333 -212.001 64c-66.667 -42.667 -144 -64 -232 -64v-800z" />
    <glyph glyph-name="uni0664" unicode="&#x664;" horiz-adv-x="1268" 
d="M622 32c-129.333 0 -235.337 43.335 -318.004 130.002s-124 187 -124 301s45.333 209 136 285c44 37.333 110.667 71.333 200 102c-64 32 -110 60 -138 84c-84 69.333 -126 156.666 -126 261.999s36 196.666 108 273.999c80 81.333 179.333 122 298 122s222 -34 310 -102
c44 -34.667 76 -69.334 96 -104.001l16 -28l-52 -32l-16 28c-4 5.33301 -8.66699 12.333 -14 21s-18.666 22.667 -39.999 42c-83.333 75.333 -178.666 113 -285.999 113c-77.333 0 -142.666 -16.333 -195.999 -49s-93.666 -73.667 -120.999 -123s-41 -102 -41 -158
c0 -89.333 37.667 -165.333 113 -228s182.333 -94 321 -94l2 -62c-173.333 0 -304 -38 -392 -114c-76 -64 -114 -144.333 -114 -241s35 -181.667 105 -255s161.333 -110 274 -110s211 32 295 96c42.667 30.667 70 57.334 82 80.001l56 -32c-16 -26.667 -48 -58.667 -96 -96
c-96 -74.667 -208.667 -112 -338 -112z" />
    <glyph glyph-name="uni0665" unicode="&#x665;" horiz-adv-x="1346" 
d="M673 1314c-119.333 0 -221.001 -49.665 -305.001 -148.998s-126 -219.666 -126 -360.999c0 -90.667 19 -175.334 57 -254.001s90 -141 156 -187s133.333 -69 202 -69c127.333 0 233.333 49.667 318 149s127 219.666 127 360.999s-41.667 261.666 -125 360.999
s-184.666 149 -303.999 149zM179.999 803.002c0 156.667 47.668 291.335 143.001 404.002s211.666 169 348.999 169s254 -56.333 350 -169s144 -247.334 144 -404.001s-48 -290.334 -144 -401.001c-94 -113.333 -210.333 -170 -349 -170s-255.667 56 -351 168
c-94.667 112 -142 246.333 -142 403z" />
    <glyph glyph-name="uni0666" unicode="&#x666;" horiz-adv-x="1274" 
d="M1032 1524h-852v62h914v-1566h-62v1504z" />
    <glyph glyph-name="uni0667" unicode="&#x667;" horiz-adv-x="1550" 
d="M736 20l-548 1566h68l520 -1490l518 1490h68l-546 -1566h-80z" />
    <glyph glyph-name="uni0668" unicode="&#x668;" horiz-adv-x="1550" 
d="M816 1586l546 -1566h-68l-518 1490l-520 -1490h-68l548 1566h80z" />
    <glyph glyph-name="uni0669" unicode="&#x669;" horiz-adv-x="1172" 
d="M928 1524h-188c-137.333 0 -254.666 -49 -351.999 -147s-146 -215.667 -146 -353s48.667 -255 146 -353s214.666 -147 351.999 -147h84c29.333 0 64 -8 104 -24v1024zM740 1586h252v-1566h-64v360c0 21.333 -7.66699 40.333 -23 57s-42.333 25 -81 25h-84
c-153.333 0 -285 55 -395 165s-165 242.333 -165 397s55 287 165 397s241.667 165 395 165z" />
    <glyph glyph-name="uni066A" unicode="&#x66a;" horiz-adv-x="1400" 
d="M967 78c42 0 77 8.99805 105 26.998c60 38.667 90 94.334 90 167.001c0 54.667 -17.667 101.334 -53 140.001s-78.333 58 -129 58s-93.667 -19.333 -129 -58s-53 -84.667 -53 -138s17.667 -99.333 53 -138s74 -58 116 -58zM979 527.998c66 0 122.667 -25 170 -75
s71 -110 71 -180s-23.667 -129.667 -71 -179s-104 -74 -170 -74s-122.333 24.667 -169 74s-70 109 -70 179s23.333 130 70 180s103 75 169 75zM420 1508c-49.333 0 -91.666 -19.333 -126.999 -58s-53 -84.334 -53 -137.001s17.667 -98.334 53 -137.001
s77.666 -58 126.999 -58s92 19.333 128 58s54 84.334 54 137.001s-18 98.334 -54 137.001s-78.667 58 -128 58zM420 1060c-66.667 0 -123.336 24.667 -170.003 74s-70 109 -70 179s23.333 129.667 70 179s103.334 74 170.001 74s123.334 -24.667 170.001 -74
s70 -103 70 -161s-10.667 -106.667 -32 -146s-50.666 -70 -87.999 -92s-77.333 -33 -120 -33zM1112 1586h68l-906 -1566h-66z" />
    <glyph glyph-name="uni066B" unicode="&#x66b;" horiz-adv-x="512" 
d="M270 262v154h62v-154c0 -78.667 -23.333 -142.667 -70 -192c-24 -24 -42 -38 -54 -42l-22 58l-4 -2c58.667 44 88 103.333 88 178z" />
    <glyph glyph-name="uni066C" unicode="&#x66c;" horiz-adv-x="512" 
d="M180 260v154.001h62v-154c0 -74.667 21 -127.334 63 -158.001l27 -20c4 -2.66699 2 -2 -6 2l-24 -58c-10.667 4 -28 18 -52 42c-46.667 49.333 -70 113.333 -70 192z" />
    <glyph glyph-name="uni066D" unicode="&#x66d;" horiz-adv-x="704" 
d="M414 248c0 -1.33301 -3.99805 -5.99805 -11.998 -13.998c9.33301 -13.333 17.333 -23.333 24 -30l50 -48l4 -6c0 -10.667 -12 -21.334 -36 -32.001l-38 -14c-12 -2.66699 -19.667 -4 -23 -4s-6.33301 2 -9 6l-16 20l-8 18c0 10.667 -3.33301 16 -10 16l-18 46l-42 -54
c-14.667 -14.667 -26 -22.667 -34 -24s-17.333 3.33398 -28 14.001c-4 6.66699 -8 14 -12 22l-14 48c-2.66699 4 -3.33398 6.66699 -2.00098 8l26 14c1.33301 1.33301 4.66602 2 9.99902 2l82 46c-76 6.66699 -116 16.667 -120 30c-4 9.33301 1 25 15 47
s24.333 36.667 31 44l20 -31c4 -9.33301 18 -21.333 42 -36c10.667 28 19 47 25 57l21 43l9 17l9 -9c2.66699 -8 4.66699 -12 6 -12c0 -5.33301 7.33301 -8 22 -8l40 -9c0 -2.66699 -1 -5.33398 -3 -8.00098s-5.66699 -8.33398 -11 -17.001l-38 -70l94 46
c18.667 5.33301 30 8 34 8l16 -8c1.33301 0 2 -0.666992 2 -2l-6 -34l-2 -26v-6c-16 -8 -28 -12.667 -36 -14l-24 -6c-10.667 0 -24 -4.66699 -40 -14v-16zM428.002 415.002v5c1.33301 -2.66699 2 -4.66699 2 -6zM348.002 458.002h6.00098l-3 -5l-7 7
c1.33301 -1.33301 2.66602 -2 3.99902 -2zM228.003 410.002c4 -2.66699 8.66797 -2.66699 14.001 0c-2.66699 -2 -5.33398 -4.33301 -8.00098 -7zM228.004 410.002l-4 4z" />
    <glyph glyph-name="uni0670" unicode="&#x670;" 
 />
    <glyph glyph-name="uni0671" unicode="&#x671;" horiz-adv-x="422" 
d="M92 1808l0.000976562 256h24v-98c45.333 45.333 86.666 68 123.999 68s70.333 -14 99 -42s43 -62 43 -102v-104h-322v22h32zM116.001 1808h242v82c0 33.333 -12 62 -36 86s-49.667 36 -77 36s-50 -5.66699 -68 -17c-40.667 -25.333 -61 -60.333 -61 -105v-82zM180.001 20
v1566h62v-1566h-62z" />
    <glyph glyph-name="uni06A9" unicode="&#x6a9;" horiz-adv-x="1968" 
d="M1726 84l-0.000976562 287.999c0 137.333 -48.667 254 -146 350s-212 145.333 -344 148h-276v112l636 576l-6 -90l-590 -536h236c150.667 -2.66699 280.334 -58 389.001 -166s163 -239.333 163 -394v-352h-836c-208.667 2.66699 -388 62.667 -538 180
c-72 58.667 -129 126.334 -171 203.001s-63 157.667 -63 243v318h62v-318c0 -154.667 71 -287 213 -397s311.667 -165 509 -165h762z" />
    <glyph glyph-name="uni06AF" unicode="&#x6af;" horiz-adv-x="1968" 
d="M1726 84l-0.000976562 287.999c0 137.333 -48.667 254 -146 350s-212 145.333 -344 148h-276v112l636 576l-6 -90l-590 -536h236c150.667 -2.66699 280.334 -58 389.001 -166s163 -239.333 163 -394v-352h-836c-208.667 2.66699 -388 62.667 -538 180
c-72 58.667 -129 126.334 -171 203.001s-63 157.667 -63 243v318h62v-318c0 -154.667 71 -287 213 -397s311.667 -165 509 -165h762zM1426 1698l-6 -90l-542 -492l-64 24z" />
    <glyph glyph-name="uni06C1" unicode="&#x6c1;" 
 />
    <glyph glyph-name="uni06CC" unicode="&#x6cc;" horiz-adv-x="1606" 
d="M1362 652l-528.001 0.000976562v178c0 112 41 206 123 282s171.667 116 269 120v-62c-46.667 -2.66699 -96.667 -18.334 -150 -47.001s-96.666 -69.334 -129.999 -122.001s-50 -109.667 -50 -171v-116h530v-694h-474c-208.667 2.66699 -388 62.667 -538 180
c-72 58.667 -129 126.334 -171 203.001s-63 157.667 -63 243v318h62v-318c0 -154.667 71 -287 213 -397s311.667 -165 509 -165h398v568z" />
    <glyph glyph-name="uni06F0" unicode="&#x6f0;" horiz-adv-x="510" 
d="M254 686c22.667 0 41 -7.66699 55 -23s21 -35 21 -59s-7 -43.667 -21 -59s-32.333 -23 -55 -23s-40.667 7.66699 -54 23s-20 35 -20 59s6.66699 43.667 20 59s31.333 23 54 23z" />
    <glyph glyph-name="uni06F1" unicode="&#x6f1;" horiz-adv-x="422" 
d="M180 20v1566h62v-1566h-62z" />
    <glyph glyph-name="uni06F2" unicode="&#x6f2;" horiz-adv-x="1164" 
d="M242 20h-62v1566h62v-332c0 -102.667 33 -190 99 -262s146.333 -108 241 -108c61.333 0 118.333 16.667 171 50s94 78 124 134s45 118 45 186v332h62v-332c0 -120 -39 -222.333 -117 -307s-173 -127 -285 -127s-207.333 42.667 -286 128
c-6.66699 6.66699 -24.667 28 -54 64v-992z" />
    <glyph glyph-name="uni06F3" unicode="&#x6f3;" horiz-adv-x="1270" 
d="M244 20h-64v1566h64v-702c74.667 0 138.334 16.667 191.001 50s94 78 124 134s45 118 45 186v332h62v-332c0 -120 -41.333 -224 -124 -312c0 -1.33301 -5.33301 -7.33301 -16 -18c58.667 -26.667 115.667 -40 171 -40s109.333 16.667 162 50s94 78 124 134s45 118 45 186
v332h62v-332c0 -120 -39 -222.333 -117 -307s-173 -127 -285 -127c-74.667 0 -145.334 21.333 -212.001 64c-66.667 -42.667 -144 -64 -232 -64v-800z" />
    <glyph glyph-name="uni06F4" unicode="&#x6f4;" horiz-adv-x="1164" 
d="M984 1254c0 -120 -39.001 -222.333 -117.001 -307s-173 -127 -285 -127s-207.333 42.667 -286 128c-6.66699 6.66699 -24.667 28 -54 64v-992h-62v1566h62v-332c0 -102.667 33 -190 99 -262s146.333 -108 241 -108c61.333 0 118.333 16.667 171 50s94 78 124 134
s45 118 45 186v248c-117.333 0 -205.666 -22.667 -264.999 -68s-98.333 -101.333 -117 -168l-66 2c4 14.667 13.333 36.667 28 66c76.667 164 216.667 246 420 246v6h62v-332z" />
    <glyph glyph-name="uni06F5" unicode="&#x6f5;" horiz-adv-x="1346" 
d="M1102 804c0 141.333 -41.668 261.667 -125.001 361s-184.666 149 -303.999 149s-221 -49.667 -305 -149s-126 -219.666 -126 -360.999c0 -90.667 19 -175.334 57 -254.001s90.333 -140.667 157 -186c13.333 -9.33301 30.666 -20 51.999 -32
c74.667 61.333 120 130 136 206h84c12 -57.333 41.333 -111.333 88 -162l32 -38c106.667 64 180.334 153.667 221.001 269c22 62 33 127.667 33 197zM179.999 803.001c0 156.667 47.668 291.336 143.001 404.003s211.666 169 348.999 169s254 -56.333 350 -169
s144 -247.334 144 -404.001s-48 -290.334 -144 -401.001c-45.333 -54.667 -98.666 -96.667 -159.999 -126l2 2c-10.667 -6.66699 -16.667 -10 -18 -10l-74 64c-26.667 29.333 -55.334 73.333 -86.001 132c-29.333 -58.667 -57.333 -102 -84 -130s-55.667 -52.333 -87 -73
c-78.667 33.333 -143 79.666 -193 138.999c-94.667 112 -142 246.333 -142 403zM510 258.003c1.33301 1.33301 3 2.33301 5 3l7 -3h-12zM500 258.003h10l-10 -6v6z" />
    <glyph glyph-name="uni06F6" unicode="&#x6f6;" horiz-adv-x="1256" 
d="M244 1390c0 -98 27.6641 -180.667 82.9971 -248c39.333 -48 82.333 -79 129 -93s92 -21 136 -21s96 17.333 156 52s106.667 86.667 140 156l106 316l8 30h66l-100 -310c-5.33301 -20 -12.666 -40 -21.999 -60l-394 -1192h-68l348 1044
c-38.667 -28 -60.667 -43.333 -66 -46c-64 -36 -121.667 -54 -173 -54s-97.666 6.66699 -138.999 20c-105.333 33.333 -182.666 102 -231.999 206c-28 60 -42 117.333 -42 172s8 106.667 24 156l20 64h64l-26 -84c-12 -40 -18 -76 -18 -108z" />
    <glyph glyph-name="uni06F7" unicode="&#x6f7;" horiz-adv-x="1550" 
d="M736 20l-548 1566h68l520 -1490l518 1490h68l-546 -1566h-80z" />
    <glyph glyph-name="uni06F8" unicode="&#x6f8;" horiz-adv-x="1550" 
d="M816 1586l546 -1566h-68l-518 1490l-520 -1490h-68l548 1566h80z" />
    <glyph glyph-name="uni06F9" unicode="&#x6f9;" horiz-adv-x="1172" 
d="M928 1524h-188c-137.333 0 -254.666 -49 -351.999 -147s-146 -215.667 -146 -353s48.667 -255 146 -353s214.666 -147 351.999 -147h84c29.333 0 64 -8 104 -24v1024zM740 1586h252v-1566h-64v360c0 21.333 -7.66699 40.333 -23 57s-42.333 25 -81 25h-84
c-153.333 0 -285 55 -395 165s-165 242.333 -165 397s55 287 165 397s241.667 165 395 165z" />
    <glyph glyph-name="endash" unicode="&#x2013;" horiz-adv-x="594" 
 />
    <glyph glyph-name="emdash" unicode="&#x2014;" horiz-adv-x="762" 
 />
    <glyph glyph-name="quoteleft" unicode="&#x2018;" horiz-adv-x="620" 
d="M340 1180h100v-260h-260v360h100v100h60v-200zM440 1480v-60h-60v60h60z" />
    <glyph glyph-name="quoteright" unicode="&#x2019;" horiz-adv-x="620" 
d="M280 1220h-100v260h260v-360h-100v-100h-60v200zM180 920v60h60v-60h-60z" />
    <glyph glyph-name="quotesinglbase" unicode="&#x201a;" horiz-adv-x="720" 
d="M380 280v200h160v-160h-100v-100h-100v-100h-160v60h100v100h100z" />
    <glyph glyph-name="quotedblleft" unicode="&#x201c;" horiz-adv-x="1120" 
d="M940 1480v-60h-60v60h60zM340 1180h100v-260h-260v360h100v100h60v-200zM840 1180h100v-260h-260v360h100v100h60v-200zM440 1480v-60h-60v60h60z" />
    <glyph glyph-name="quotedblright" unicode="&#x201d;" horiz-adv-x="1120" 
d="M180 920v60h60v-60h-60zM780 1220h-100v260h260v-360h-100v-100h-60v200zM280 1220h-100v260h260v-360h-100v-100h-60v200zM680 920v60h60v-60h-60z" />
    <glyph glyph-name="quotedblbase" unicode="&#x201e;" horiz-adv-x="1120" 
d="M380 280v200h160v-160h-100v-100h-100v-100h-160v60h100v100h100zM780 280v200h160v-160h-100v-100h-100v-100h-160v60h100v100h100z" />
    <glyph glyph-name="bullet" unicode="&#x2022;" horiz-adv-x="920" 
d="M280 980v100h360v-100h100v-260h-100v-100h-360v100h-100v260h100z" />
    <glyph glyph-name="guilsinglleft" unicode="&#x2039;" horiz-adv-x="680" 
d="M500 286l-312 306l312 310v-88l-222 -220l222 -220v-88z" />
    <glyph glyph-name="guilsinglright" unicode="&#x203a;" horiz-adv-x="682" 
d="M182 286l-2 88l222 220l-222 220l2 88l312 -310z" />
    <glyph glyph-name="fraction" unicode="&#x2044;" horiz-adv-x="960" 
d="M254 20h-66l518 1566h66z" />
    <glyph glyph-name="trademark" unicode="&#x2122;" horiz-adv-x="1320" 
d="M380 1420h-200v60h460v-60h-200v-500h-60v500zM1080 1380v100h60v-560h-60v400h-100v60h100zM740 1320v-400h-60v560h60v-100h100v-60h-100zM940 1280v-60h-60v60h60z" />
    <glyph glyph-name="minus" unicode="&#x2212;" horiz-adv-x="706" 
d="M182 222c7.33301 42.667 11.999 64 13.999 64l134 -2c50.667 -1.33301 87.334 -2 110.001 -2l78 5v21c0 -4 0.333008 -9.33301 1 -16s1.66699 -17.334 3 -32.001l4 -36v-12c0 2.66699 -3 3.33398 -9 2.00098s-41 -2 -105 -2h-22c-94.667 0 -164 2 -208 6v4z" />
    <glyph glyph-name="uni2215" unicode="&#x2215;" horiz-adv-x="960" 
d="M254 20h-66l518 1566h66z" />
    <glyph glyph-name="uni2219" unicode="&#x2219;" horiz-adv-x="196" 
 />
    <glyph glyph-name="approxequal" unicode="&#x2248;" horiz-adv-x="1238" 
d="M402 576c-8 0 -14.6689 -0.666992 -20.002 -2c-42.667 -10.667 -84.667 -60.667 -126 -150l-14 -28l-56 28l14 28c57.333 124 124 186 200 186c32 0 63 -8 93 -24s65.667 -40 107 -72l87 -67c16.667 -12.667 36.334 -23.667 59.001 -33s40.334 -14 53.001 -14
s21.667 0.666992 27 2c53.333 12 105.333 74 156 186l14 28l56 -28l-12 -28c-29.333 -65.333 -61.333 -115.333 -96 -150c-44.667 -48 -95 -72 -151 -72c-48 0 -113 32 -195 96l-107 82c-28 21.333 -57.667 32 -89 32zM597.998 862l-107.001 82
c-28.667 21.333 -58.334 32 -89.001 32c-8 0 -14.667 -0.666992 -20 -2c-42.667 -10.667 -84.667 -60.667 -126 -150l-14 -28l-56 28l14 28c57.333 124 124 186 200 186c32 0 63 -8 93 -24s65.667 -40 107 -72l87 -67c16.667 -12.667 36.334 -23.667 59.001 -33
s40.334 -14 53.001 -14s21.667 0.666992 27 2c53.333 12 105.333 74 156 186l14 28l56 -28l-12 -28c-29.333 -65.333 -61.333 -115.333 -96 -150c-44.667 -48 -93 -72 -145 -72s-119 32 -201 96z" />
    <glyph glyph-name="lessequal" unicode="&#x2264;" horiz-adv-x="820" 
d="M180 -98v78h460v-78h-460zM280 520h-100v60h100v100h100v100h100v100h100v100h60v-160h-100v-100h-100v-100h-100v-140h100v-100h100v-100h100v-160h-60v100h-100v100h-100v100h-100v100z" />
    <glyph glyph-name="greaterequal" unicode="&#x2265;" horiz-adv-x="820" 
d="M180 -98v78h460v-78h-460zM540 420h-100v-100h-100v-100h-100v-100h-60v160h100v100h100v100h100v140h-100v100h-100v100h-100v160h60v-100h100v-100h100v-100h100v-100h100v-60h-100v-100z" />
    <glyph glyph-name="nonmarkingreturn" horiz-adv-x="1282" 
 />
    <glyph glyph-name="_30" horiz-adv-x="366" 
 />
    <glyph glyph-name="_57" horiz-adv-x="366" 
 />
    <glyph glyph-name="_101" horiz-adv-x="584" 
 />
    <glyph glyph-name="_148" horiz-adv-x="1874" 
 />
    <glyph glyph-name="_159" 
 />
    <glyph glyph-name="_170" 
 />
    <glyph glyph-name="glyph184" horiz-adv-x="362" 
d="M320 1718l-318 -102l-8 22l320 102zM336 1576l-320 -100l-6 20l318 102zM254 1270l8 0.000976562c17.333 1.33301 31 8 41 20s15 25.333 15 40v130l24 4v-134c0 -18.667 -6.66699 -36.667 -20 -54s-32 -27.333 -56 -30h-10c-17.333 0 -43.333 10.667 -78 32v-32
c-19.333 -24 -40.833 -36 -64.5 -36s-44.5 7 -62.5 21s-28.333 31 -31 51v50l24 2v-48c5.33301 -33.333 26 -50 62 -50h8c17.333 1.33301 32 8.66602 44 21.999c9.33301 14.667 14 28 14 40v96l20 2v-74c8 -34.667 28.667 -52 62 -52z" />
    <glyph glyph-name="glyph185" horiz-adv-x="270" 
 />
    <glyph glyph-name="glyph186" horiz-adv-x="1134" 
 />
    <glyph glyph-name="glyph187" 
 />
    <glyph glyph-name="_191" 
 />
    <glyph glyph-name="_244" 
 />
    <glyph glyph-name="_255" 
 />
    <glyph glyph-name="_264" 
 />
    <glyph glyph-name="_356" 
 />
    <glyph glyph-name="glyph357" horiz-adv-x="1272" 
 />
    <glyph glyph-name="_358" 
 />
    <glyph glyph-name="_359" 
 />
    <glyph glyph-name="_360" 
 />
    <glyph glyph-name="_363" 
 />
    <glyph glyph-name="_364" 
 />
    <glyph glyph-name="_365" horiz-adv-x="626" 
 />
    <glyph glyph-name="_366" horiz-adv-x="248" 
 />
    <glyph glyph-name="_367" horiz-adv-x="674" 
 />
    <glyph glyph-name="_382" 
 />
    <glyph glyph-name="_383" 
 />
    <glyph glyph-name="_384" 
 />
  </font>
</defs>
</svg>
