<?xml version="1.0" standalone="no"?>
<!DOCTYPE svg PUBLIC "-//W3C//DTD SVG 1.1//EN" "http://www.w3.org/Graphics/SVG/1.1/DTD/svg11.dtd" >
<svg>
<metadata>
Created by FontForge 20090914 at Tue Jun 28 19:18:12 2022
 By www-data
&#216;&#179;&#216;&#168;&#216;&#173;&#216;&#167;&#217;&#134; &#216;&#167;&#217;&#132;&#217;&#132;&#217;&#135; &#217;&#136;&#216;&#168;&#216;&#173;&#217;&#133;&#216;&#175;&#217;&#135; &#216;&#179;&#216;&#168;&#216;&#173;&#216;&#167;&#217;&#134; &#216;&#167;&#217;&#132;&#217;&#132;&#217;&#135; &#216;&#167;&#217;&#132;&#216;&#185;&#216;&#184;&#217;&#138;&#217;&#133;
</metadata>
<defs>
<font id="ayman15" horiz-adv-x="0" >
  <font-face 
    font-family="ayman15"
    font-weight="400"
    font-stretch="normal"
    units-per-em="2048"
    panose-1="0 0 4 0 0 0 0 0 0 0"
    ascent="1638"
    descent="-410"
    bbox="-258 -1008 2035 2967"
    underline-thickness="20"
    underline-position="-123"
    unicode-range="U+000D-U+FEFC"
  />
<missing-glyph horiz-adv-x="1024" 
d="M256 128h512v2711h-512v-2711zM128 0v2967h768v-2967h-768z" />
    <glyph glyph-name="uni06440645062C.Init" unicode="&#xfedf;&#xfee4;&#xfea0;" horiz-adv-x="2160" 
d="M1464 79.5c0 21.667 -8.33105 40.332 -24.998 55.999s-36.334 23.5 -59.001 23.5s-41.834 -8.33301 -57.501 -25s-23.5 -36.167 -23.5 -58.5s8.5 -41.5 25.5 -57.5s36.333 -24 58 -24s40.667 8.83301 57 26.5s24.5 37.334 24.5 59.001zM600.002 -162.502
c0 -36.333 -18.167 -54.5 -54.5 -54.5s-54.5 18.167 -54.5 54.5s18.167 54.5 54.5 54.5s54.5 -18.167 54.5 -54.5zM822.002 1426c0 -78 -24.999 -164.498 -74.999 -259.498l-148 -275.5c-52 -109.333 -78 -212 -78 -308c0 -142.667 47.833 -251.167 143.5 -325.5
s193.5 -111.5 293.5 -111.5h227c10.667 24.667 45.834 59.334 105.501 104.001s89.5 78.334 89.5 101.001c0.666992 -12.667 31.167 -44.167 91.5 -94.5s95.5 -87.5 105.5 -111.5l313 -3v1321c0 49.333 -24.667 73.666 -74 72.999c64.667 16 110.667 39.167 138 69.5
s54.333 80.166 81 149.499v-1974c-47.333 22.667 -80.333 50 -99 82s-34 77.667 -46 137h-316c-16 -35.333 -43 -66.666 -81 -93.999s-75.667 -41 -113 -41c-78.667 0 -142.667 45 -192 135h-1259v146h632c-125.333 111.333 -188 272 -188 482c0 91.333 26 186.333 78 285
l146 236c52 88.667 78 167.667 78 237c0 148.667 -51.667 223 -155 223c-78.667 0 -134.667 -16.333 -168 -49s-58.333 -88.667 -75 -168c-2 17.333 -3 38.666 -3 63.999c0 74.667 18.333 136 55 184c-72 25.333 -147.333 63.666 -226 114.999
c64.667 -6.66699 122.667 -10 174 -10l265 11c63.333 0 118.666 -17.833 165.999 -53.5s78.166 -84.834 92.499 -147.501s21.5 -105.667 21.5 -129z" />
    <glyph glyph-name="uniFBA4" unicode="&#x647;&#x621;" horiz-adv-x="472" arabic-form="isolated" 
d="M121 663c0 15.333 14.167 34.499 42.5 57.499s52.833 34.5 73.5 34.5l7 -16c-28 -30 -42 -52.667 -42 -68s5.33301 -28.666 16 -39.999h90l44 -93h-307l49 93h39c-8 6 -12 16.667 -12 32zM264 135.999v131c-86.667 -4 -130 -47.667 -130 -131h130zM402 -0.000976562h-402
v146c0 72 24 130.167 72 174.5s109 71.5 183 81.5c18.667 2.66699 45.667 7.66699 81 15c22.667 7.33301 44.667 27 66 59v-476z" />
    <glyph glyph-name="uniFBA5" unicode="&#xfeea;&#xfe80;" horiz-adv-x="476" arabic-form="final" 
d="M109 1117c0 15.333 14.167 34.499 42.5 57.499s52.833 34.5 73.5 34.5l7 -16c-28 -30 -42 -52.667 -42 -68s5.33301 -28.666 16 -39.999h90l44 -93h-307l49 93h39c-8 6 -12 16.667 -12 32zM280 145.999v134c-89.333 0 -134 -44.667 -134 -134h134zM501 -0.000976562
h-501.001v146c0 76 27.667 141.833 83 197.5s121 83.5 197 83.5v293c0 48 -24 72 -72 72c72.667 0 124.834 17.833 156.501 53.5s52.5 91.5 62.5 167.5v-867h74v-146z" />
    <glyph glyph-name="uniFC08" unicode="&#xfe91;&#xfee2;" horiz-adv-x="1120" arabic-form="isolated" 
d="M586 146v118c-85.333 0 -128 -39.333 -128 -118h128zM895 -200.5c0 -36.333 -18.167 -54.5 -54.5 -54.5s-54.5 18.167 -54.5 54.5s18.167 54.5 54.5 54.5s54.5 -18.167 54.5 -54.5zM455 0c0 -59.333 -22.667 -110.831 -68 -154.498s-97.666 -65.5 -156.999 -65.5
s-109.666 21 -150.999 63s-62 92.667 -62 152c27.333 -95.333 76.666 -143 147.999 -143s115.666 33.667 132.999 101c6.66699 26 10 85 10 177c0 163.333 80 251.333 240 264c60 4.66699 113.333 32.667 160 84v-332h192v220c0 43.333 -18.333 67.666 -55 72.999
c62 21.333 105.833 46.833 131.5 76.5s48.5 77.167 68.5 142.5v-877c-44 31.333 -75.333 61.666 -94 90.999s-35.667 72 -51 128h-445z" />
    <glyph glyph-name="uniFC0E" unicode="&#xfe97;&#xfee2;" horiz-adv-x="1120" arabic-form="isolated" 
d="M586 146v118c-85.333 0 -128 -39.333 -128 -118h128zM455 0c0 -59.333 -22.667 -110.831 -68 -154.498s-97.666 -65.5 -156.999 -65.5s-109.666 21 -150.999 63s-62 92.667 -62 152c27.333 -95.333 76.666 -143 147.999 -143s115.666 33.667 132.999 101
c6.66699 26 10 85 10 177c0 163.333 80 251.333 240 264c60 4.66699 113.333 32.667 160 84v-332h192v220c0 43.333 -18.333 67.666 -55 72.999c62 21.333 105.833 46.833 131.5 76.5s48.5 77.167 68.5 142.5v-877c-44 31.333 -75.333 61.666 -94 90.999s-35.667 72 -51 128
h-445zM856 777.502c0 -36.333 -18.167 -54.5 -54.5 -54.5s-54.5 18.167 -54.5 54.5s18.167 54.5 54.5 54.5s54.5 -18.167 54.5 -54.5zM1003 777.502c0 -36.333 -18.167 -54.5 -54.5 -54.5s-54.5 18.167 -54.5 54.5s18.167 54.5 54.5 54.5s54.5 -18.167 54.5 -54.5z" />
    <glyph glyph-name="uniFC32" unicode="&#xfed3;&#xfef2;" horiz-adv-x="1416" arabic-form="isolated" 
d="M504 -101c0 25.333 -3.66699 44.333 -11 57l-100 172l-100 -172c-7.33301 -12.667 -11 -31.5 -11 -56.5s11 -48.167 33 -69.5s48.167 -32 78.5 -32s56.333 10.5 78 31.5s32.5 44.167 32.5 69.5zM320 558c0 -13.333 25.333 -62.999 76 -148.999l40 70l-82 141
c-22.667 -12.667 -34 -33.334 -34 -62.001zM1154 366.001v110c-80 0 -120 -36.667 -120 -110h120zM836 -264.499c0 -36.333 -18.167 -54.5 -54.5 -54.5s-54.5 18.167 -54.5 54.5s18.167 54.5 54.5 54.5s54.5 -18.167 54.5 -54.5zM836 -127.499
c0 -36.333 -18.167 -54.5 -54.5 -54.5s-54.5 18.167 -54.5 54.5s18.167 54.5 54.5 54.5s54.5 -18.167 54.5 -54.5zM383 1480c-20 0 -37.167 6.99707 -51.5 20.9971s-21.5 31 -21.5 51c0 49.333 24.667 74 74 74c22 0 40.667 -10.5 56 -31.5s23 -45.5 23 -73.5
s-11 -68.833 -33 -122.5s-33 -90.667 -33 -111s58 -63.166 174 -128.499c16 -9.33301 44.333 -34.333 85 -75c55.333 -56 83 -149.667 83 -281c0 -48 -16 -103 -48 -165l-89 -151l199 -341h353v73h-258v153c0 76 24 136.667 72 182s110 68 186 68
c35.333 0 63.833 6.16699 85.5 18.5s42.167 30.5 61.5 54.5v-695h-591l-194 338l-40 -69l144 -253c17.333 -30.667 26 -68 26 -112c0 -71.333 -26 -131.166 -78 -179.499s-114 -72.5 -186 -72.5c-88 0 -162.667 51.667 -224 155c-12 20 -18 63.333 -18 130
c0 28 20.667 77 62 147l111 185l-85 138c-33.333 60.667 -50 116.167 -50 166.5s25.667 98.5 77 144.5c20 18 71 52.333 153 103l113 -195c49.333 86 74 145.667 74 179c0 61.333 -16.667 118.333 -50 171s-79 79 -137 79c-84.667 0 -156.5 -19.5 -215.5 -58.5
s-120.5 -97.5 -184.5 -175.5c90 204 191.667 326 305 366l-13 87c0 44.667 20.833 87.834 62.5 129.501s66.5 74.167 74.5 97.5c-16 -14 -34 -21 -54 -21zM1199 870.498c0 -36.333 -18.167 -54.5 -54.5 -54.5s-54.5 18.167 -54.5 54.5s18.167 54.5 54.5 54.5
s54.5 -18.167 54.5 -54.5z" />
    <glyph glyph-name="uniFC3F" unicode="&#xfedf;&#xfe9e;" horiz-adv-x="1580" arabic-form="isolated" 
d="M707 -358.5c0 -36.333 -18.167 -54.5 -54.5 -54.5s-54.5 18.167 -54.5 54.5s18.167 54.5 54.5 54.5s54.5 -18.167 54.5 -54.5zM780 1441c0 -86.667 -26 -182 -78 -286l-146 -269c-52 -108.667 -78 -216.834 -78 -324.501s43.5 -203.834 130.5 -288.501
s189.167 -127 306.5 -127h385v1317c0 48.667 -24.667 73 -74 73c64 16 110 39.333 138 70s55 80.334 81 149.001v-1974c-47.333 23.333 -80.333 50.833 -99 82.5s-34 77.167 -46 136.5h-887c-33.333 0 -50 -16.667 -50 -50s16.667 -50 50 -50h588
c-132 -14 -227 -42 -285 -84s-160.333 -63 -307 -63c-49.333 0 -92 18.333 -128 55s-54 80 -54 130s19 97.167 57 141.5s82.333 66.5 133 66.5h101c-126 111.333 -189 278.333 -189 501c0 86 26.333 176.333 79 271l145 239c52.667 96 79 188.333 79 277
c0 49.333 -13.833 92.5 -41.5 129.5s-65.5 55.5 -113.5 55.5c-79.333 0 -135.5 -16.167 -168.5 -48.5s-58.167 -88.833 -75.5 -169.5c-4.66699 110.667 13.333 193.334 54 248.001c-85.333 34 -161 72.333 -227 115c68 -6.66699 128 -10 180 -10l271 10
c83.333 0 149 -32.167 197 -96.5s72 -139.833 72 -226.5z" />
    <glyph glyph-name="uniFC40" unicode="&#xfedf;&#xfea2;" horiz-adv-x="1580" arabic-form="isolated" 
d="M780 1441c0 -86.667 -26 -182 -78 -286l-146 -269c-52 -108.667 -78 -216.834 -78 -324.501s43.5 -203.834 130.5 -288.501s189.167 -127 306.5 -127h385v1317c0 48.667 -24.667 73 -74 73c64 16 110 39.333 138 70s55 80.334 81 149.001v-1974
c-47.333 23.333 -80.333 50.833 -99 82.5s-34 77.167 -46 136.5h-887c-33.333 0 -50 -16.667 -50 -50s16.667 -50 50 -50h588c-132 -14 -227 -42 -285 -84s-160.333 -63 -307 -63c-49.333 0 -92 18.333 -128 55s-54 80 -54 130s19 97.167 57 141.5s82.333 66.5 133 66.5h101
c-126 111.333 -189 278.333 -189 501c0 86 26.333 176.333 79 271l145 239c52.667 96 79 188.333 79 277c0 49.333 -13.833 92.5 -41.5 129.5s-65.5 55.5 -113.5 55.5c-79.333 0 -135.5 -16.167 -168.5 -48.5s-58.167 -88.833 -75.5 -169.5
c-4.66699 110.667 13.333 193.334 54 248.001c-85.333 34 -161 72.333 -227 115c68 -6.66699 128 -10 180 -10l271 10c83.333 0 149 -32.167 197 -96.5s72 -139.833 72 -226.5z" />
    <glyph glyph-name="uniFC41" unicode="&#xfedf;&#xfea6;" horiz-adv-x="1580" arabic-form="isolated" 
d="M752 505.5c0 -36.333 -18.167 -54.5 -54.5 -54.5s-54.5 18.167 -54.5 54.5s18.167 54.5 54.5 54.5s54.5 -18.167 54.5 -54.5zM780 1441c0 -86.667 -26 -182 -78 -286l-146 -269c-52 -108.667 -78 -216.834 -78 -324.501s43.5 -203.834 130.5 -288.501
s189.167 -127 306.5 -127h385v1317c0 48.667 -24.667 73 -74 73c64 16 110 39.333 138 70s55 80.334 81 149.001v-1974c-47.333 23.333 -80.333 50.833 -99 82.5s-34 77.167 -46 136.5h-887c-33.333 0 -50 -16.667 -50 -50s16.667 -50 50 -50h588
c-132 -14 -227 -42 -285 -84s-160.333 -63 -307 -63c-49.333 0 -92 18.333 -128 55s-54 80 -54 130s19 97.167 57 141.5s82.333 66.5 133 66.5h101c-126 111.333 -189 278.333 -189 501c0 86 26.333 176.333 79 271l145 239c52.667 96 79 188.333 79 277
c0 49.333 -13.833 92.5 -41.5 129.5s-65.5 55.5 -113.5 55.5c-79.333 0 -135.5 -16.167 -168.5 -48.5s-58.167 -88.833 -75.5 -169.5c-4.66699 110.667 13.333 193.334 54 248.001c-85.333 34 -161 72.333 -227 115c68 -6.66699 128 -10 180 -10l271 10
c83.333 0 149 -32.167 197 -96.5s72 -139.833 72 -226.5z" />
    <glyph glyph-name="uniFC42" unicode="&#xfedf;&#xfee2;" horiz-adv-x="1140" arabic-form="isolated" 
d="M586 146v118c-85.333 0 -128 -39.333 -128 -118h128zM455 0c0 -59.333 -22.667 -110.831 -68 -154.498s-97.666 -65.5 -156.999 -65.5s-109.666 21 -150.999 63s-62 92.667 -62 152c27.333 -95.333 76.666 -143 147.999 -143s115.666 33.667 132.999 101
c6.66699 26 10 85 10 177c0 163.333 80 251.333 240 264c60 4.66699 113.333 32.667 160 84v-332h192v220c0 43.333 -18.333 67.666 -55 72.999c62 21.333 105.833 46.833 131.5 76.5s48.5 77.167 68.5 142.5v-877c-44 31.333 -75.333 61.666 -94 90.999s-35.667 72 -51 128
h-445zM919 795.502c0 -36.333 -18.167 -54.5 -54.5 -54.5s-54.5 18.167 -54.5 54.5s18.167 54.5 54.5 54.5s54.5 -18.167 54.5 -54.5z" />
    <glyph glyph-name="uniFC43" unicode="&#xfedf;&#xfef0;" horiz-adv-x="1412" arabic-form="isolated" 
d="M504 -94c0 27.333 -12.832 62.5029 -38.499 105.503l-71.5 118.5c-75.333 -118.667 -113 -193.334 -113 -224.001s11.333 -55.834 34 -75.501s48.667 -29.5 78 -29.5s55.166 10.667 77.499 32s33.5 45.666 33.5 72.999zM316.001 562.003c0 -10.667 26 -60.667 78 -150
l41 68l-81 142c-25.333 -13.333 -38 -33.333 -38 -60zM646.001 -93.9971c0 -75.333 -28.332 -136.17 -84.999 -182.503s-115.667 -69.5 -177 -69.5s-117.5 25.333 -168.5 76s-76.5 110 -76.5 178c0 38.667 18.333 90.334 55 155.001l119 207l-86 140
c-32.667 60 -49 110.667 -49 152c0 62 25.333 115.333 76 160c12 10.667 63.333 44.334 154 101.001l113 -196c48.667 81.333 73 141.333 73 180c0 60 -16.833 116.667 -50.5 170s-78.834 80 -135.501 80c-86.667 0 -158.667 -19 -216 -57s-119 -97 -185 -177
c90 204 192 326 306 366c-9.33301 18.667 -14 40.334 -14 65.001c0 46 21 93 63 141s67 84 75 108c-16.667 -14.667 -34.5 -22 -53.5 -22s-36 7.33301 -51 22s-22.5 31.667 -22.5 51c0 48.667 24.667 73 74 73c26 0 46.5 -8.5 61.5 -25.5s22.5 -33.833 22.5 -50.5
c0 -44 -12.667 -94.833 -38 -152.5s-38 -89.167 -38 -94.5c0 -28.667 35.833 -64.334 107.5 -107.001s122.5 -80.667 152.5 -114c60.667 -66 91 -149.667 91 -251c0 -55.333 -15.667 -115.333 -47 -180l-94 -163l200 -343h328v1317c0 48.667 -24.667 73 -74 73
c64 16 110 39.333 138 70s55 80.334 81 149.001v-1974c-47.333 23.333 -80.333 50.833 -99 82.5s-34 77.167 -46 136.5h-421l-193 340l-41 -70l124 -217c31.333 -55.333 47 -104.333 47 -147z" />
    <glyph glyph-name="uniFC44" unicode="&#xfedf;&#xfef2;" horiz-adv-x="1412" arabic-form="isolated" 
d="M504 -94c0 27.333 -12.832 62.5029 -38.499 105.503l-71.5 118.5c-75.333 -118.667 -113 -193.334 -113 -224.001s11.333 -55.834 34 -75.501s48.667 -29.5 78 -29.5s55.166 10.667 77.499 32s33.5 45.666 33.5 72.999zM316.001 562.003c0 -10.667 26 -60.667 78 -150
l41 68l-81 142c-25.333 -13.333 -38 -33.333 -38 -60zM836.001 -264.497c0 -36.333 -18.167 -54.5 -54.5 -54.5s-54.5 18.167 -54.5 54.5s18.167 54.5 54.5 54.5s54.5 -18.167 54.5 -54.5zM836.001 -127.497c0 -36.333 -18.167 -54.5 -54.5 -54.5s-54.5 18.167 -54.5 54.5
s18.167 54.5 54.5 54.5s54.5 -18.167 54.5 -54.5zM646.001 -93.9971c0 -75.333 -28.332 -136.17 -84.999 -182.503s-115.667 -69.5 -177 -69.5s-117.5 25.333 -168.5 76s-76.5 110 -76.5 178c0 38.667 18.333 90.334 55 155.001l119 207l-86 140
c-32.667 60 -49 110.667 -49 152c0 62 25.333 115.333 76 160c12 10.667 63.333 44.334 154 101.001l113 -196c48.667 81.333 73 141.333 73 180c0 60 -16.833 116.667 -50.5 170s-78.834 80 -135.501 80c-86.667 0 -158.667 -19 -216 -57s-119 -97 -185 -177
c90 204 192 326 306 366c-9.33301 18.667 -14 40.334 -14 65.001c0 46 21 93 63 141s67 84 75 108c-16.667 -14.667 -34.5 -22 -53.5 -22s-36 7.33301 -51 22s-22.5 31.667 -22.5 51c0 48.667 24.667 73 74 73c26 0 46.5 -8.5 61.5 -25.5s22.5 -33.833 22.5 -50.5
c0 -44 -12.667 -94.833 -38 -152.5s-38 -89.167 -38 -94.5c0 -28.667 35.833 -64.334 107.5 -107.001s122.5 -80.667 152.5 -114c60.667 -66 91 -149.667 91 -251c0 -55.333 -15.667 -115.333 -47 -180l-94 -163l200 -343h328v1317c0 48.667 -24.667 73 -74 73
c64 16 110 39.333 138 70s55 80.334 81 149.001v-1974c-47.333 23.333 -80.333 50.833 -99 82.5s-34 77.167 -46 136.5h-421l-193 340l-41 -70l124 -217c31.333 -55.333 47 -104.333 47 -147z" />
    <glyph glyph-name="uniFC4E" unicode="&#xfee7;&#xfee2;" horiz-adv-x="1206" arabic-form="isolated" 
d="M586 146v118c-85.333 0 -128 -39.333 -128 -118h128zM455 0c0 -59.333 -22.667 -110.834 -68 -154.501s-97.666 -65.5 -156.999 -65.5s-109.666 21 -150.999 63s-62 92.667 -62 152c27.333 -95.333 76.666 -143 147.999 -143s115.666 33.667 132.999 101
c6.66699 26 10 85 10 177c0 163.333 80 251.333 240 264c60 4.66699 113.333 32.667 160 84v-332h232v1317c0 48.667 -24.667 73 -74 73c64 16 110 39.333 138 70s55 80.334 81 149.001v-1974c-47.333 23.333 -80.333 50.833 -99 82.5s-34 77.167 -46 136.5h-485z" />
    <glyph glyph-name="uniFC6A" unicode="&#xfe92;&#xfeae;" horiz-adv-x="792" arabic-form="final" 
d="M655 -224c-0.666992 -36 -19 -54 -55 -54s-54 18 -54 54s18 54.333 54 55c36 -0.666992 54.333 -19 55 -55zM792 0h-390c-6 -65.333 -28 -118 -66 -158s-88 -60.333 -150 -61s-111 20.333 -147 63s-54 94.667 -54 156c0 -36 12 -69.333 36 -100s54.333 -46 91 -46
s69.667 14.833 99 44.5s44 63.5 44 101.5v219c0 44 -24 68.667 -72 74c117.333 34.667 190.333 83.334 219 146.001v-293h218v220c0 43.333 -18.333 67.666 -55 72.999c61.333 20.667 107 47.167 137 79.5s51 78.833 63 139.5v-512h27v-146z" />
    <glyph glyph-name="uniFC6D" unicode="&#xfe92;&#xfee6;" horiz-adv-x="762" arabic-form="final" 
d="M650 -188c0 -36 -18 -54.333 -54 -55c-36 0.666992 -54.333 19 -55 55c0.666992 36 19 54 55 54s54 -18 54 -54zM772 0l-333.002 0.000976562c0 -56 -22.667 -106.5 -68 -151.5s-97.333 -67.5 -156 -67.5s-109.167 21.167 -151.5 63.5s-63.5 89.166 -63.5 140.499
s20.833 111.833 62.5 181.5s62.167 126.834 61.5 171.501c13.333 -25.333 20 -48 20 -68s-2 -33.667 -6 -41c28.667 0 50.334 -16.667 65.001 -50c-14 6 -34.333 9 -61 9s-52 -24 -76 -72s-35.667 -89.667 -35 -125c0 -36 12.667 -68.5 38 -97.5s56.333 -43.5 93 -43.5
s67.667 16 93 48s38 66 38 102c0 62 -27 109.667 -81 143c24.667 6.66699 44.334 39 59.001 97l22 126c6.66699 -26 27 -63.333 61 -112s55.667 -84.667 65 -108h181v220c0 43.333 -18.333 67.666 -55 72.999c61.333 20.667 107 47.167 137 79.5s51 78.833 63 139.5v-512h27
v-146zM347.998 494.001c0 -36 -18 -54.333 -54 -55c-36 0.666992 -54.333 19 -55 55c0.666992 36 19 54 55 54s54 -18 54 -54z" />
    <glyph glyph-name="uniFC6E" unicode="&#xfe92;&#xfef0;" horiz-adv-x="1288" arabic-form="final" 
d="M504 -101c0 25.333 -3.66699 44.333 -11 57l-100 172l-100 -172c-7.33301 -12.667 -11 -31.5 -11 -56.5s11 -48.167 33 -69.5s48.167 -32 78.5 -32s56.333 10.5 78 31.5s32.5 44.167 32.5 69.5zM320 558c0 -13.333 25.333 -62.999 76 -148.999l40 70l-82 141
c-22.667 -12.667 -34 -33.334 -34 -62.001zM1165 -223.499c0 -36.333 -18.167 -54.5 -54.5 -54.5s-54.5 18.167 -54.5 54.5s18.167 54.5 54.5 54.5s54.5 -18.167 54.5 -54.5zM383 1480c-20 0 -37.167 7 -51.5 21s-21.5 31 -21.5 51c0 49.333 24.667 74 74 74
c22 0 40.667 -10.5 56 -31.5s23 -45.5 23 -73.5s-11 -68.833 -33 -122.5s-33 -91.167 -33 -112.5c0 -7.33301 39.833 -39.5 119.5 -96.5s126.167 -92.167 139.5 -105.5c55.333 -56 83 -149.667 83 -281c0 -48 -16 -103 -48 -165l-89 -151l199 -341h329v220
c0 43.333 -18.333 67.666 -55 72.999c62 20.667 107.833 47.167 137.5 79.5s50.5 78.833 62.5 139.5v-512h27v-146h-592l-194 338l-40 -69l144 -253c17.333 -30.667 26 -68 26 -112c0 -71.333 -26 -131.166 -78 -179.499s-114.833 -72.5 -188.5 -72.5s-132 28.667 -175 86
s-64.5 123.666 -64.5 198.999c0 28 20.667 77 62 147l111 185l-85 138c-33.333 60.667 -50 116.167 -50 166.5s25.667 98.5 77 144.5c20 18 71 52.333 153 103l113 -195c49.333 86 74 145.667 74 179c0 61.333 -16.667 118.333 -50 171s-79 79 -137 79
c-84.667 0 -156.5 -19.5 -215.5 -58.5s-120.5 -97.5 -184.5 -175.5c90 204 191.667 326 305 366l-13 87c0 44.667 20.833 87.834 62.5 129.501s66.5 74.167 74.5 97.5c-16 -14 -34 -21 -54 -21z" />
    <glyph glyph-name="uniFC70" unicode="&#xfe98;&#xfeae;" horiz-adv-x="792" arabic-form="final" 
d="M792 0h-390c-6 -65.333 -28 -118 -66 -158s-88 -60.333 -150 -61s-111 20.333 -147 63s-54 94.667 -54 156c0 -36 12 -69.333 36 -100s54.333 -46 91 -46s69.667 14.833 99 44.5s44 63.5 44 101.5v219c0 44 -24 68.667 -72 74c117.333 34.667 190.333 83.334 219 146.001
v-293h218v220c0 43.333 -18.333 67.666 -55 72.999c61.333 20.667 107 47.167 137 79.5s51 78.833 63 139.5v-512h27v-146zM637 786c-0.666992 -36 -19 -54 -55 -54s-54 18 -54 54s18 54.333 54 55c36 -0.666992 54.333 -19 55 -55zM784 786c0 -36 -18 -54 -54 -54
s-54.333 18 -55 54c0.666992 36 19 54.333 55 55c36 -0.666992 54 -19 54 -55z" />
    <glyph glyph-name="uniFC73" unicode="&#xfe98;&#xfee6;" horiz-adv-x="762" arabic-form="final" 
d="M772 0l-333.002 0.000976562c0 -56 -22.667 -106.5 -68 -151.5s-97.333 -67.5 -156 -67.5s-109.167 21.167 -151.5 63.5s-63.5 89.166 -63.5 140.499s20.833 111.833 62.5 181.5s62.167 126.834 61.5 171.501c13.333 -25.333 20 -48 20 -68s-2 -33.667 -6 -41
c28.667 0 50.334 -16.667 65.001 -50c-14 6 -34.333 9 -61 9s-52 -24 -76 -72s-35.667 -89.667 -35 -125c0 -36 12.667 -68.5 38 -97.5s56.333 -43.5 93 -43.5s67.667 16 93 48s38 66 38 102c0 62 -27 109.667 -81 143c24.667 6.66699 44.334 39 59.001 97l22 126
c6.66699 -26 27 -63.333 61 -112s55.667 -84.667 65 -108h181v220c0 43.333 -18.333 67.666 -55 72.999c61.333 20.667 107 47.167 137 79.5s51 78.833 63 139.5v-512h27v-146zM347.998 494.001c0 -36 -18 -54.333 -54 -55c-36 0.666992 -54.333 19 -55 55
c0.666992 36 19 54 55 54s54 -18 54 -54zM558.998 806.001c-0.666992 -36 -19 -54.333 -55 -55c-36 0.666992 -54 19 -54 55s18 54 54 54s54.333 -18 55 -54zM705.998 806.001c0 -36 -18 -54.333 -54 -55c-36 0.666992 -54.333 19 -55 55c0.666992 36 19 54 55 54
s54 -18 54 -54z" />
    <glyph glyph-name="uniFC74" unicode="&#xfe98;&#xfef0;" horiz-adv-x="1288" arabic-form="final" 
d="M504 -101c0 25.333 -3.66699 44.333 -11 57l-100 172l-100 -172c-7.33301 -12.667 -11 -31.5 -11 -56.5s11 -48.167 33 -69.5s48.167 -32 78.5 -32s56.333 10.5 78 31.5s32.5 44.167 32.5 69.5zM320 558c0 -13.333 25.333 -62.999 76 -148.999l40 70l-82 141
c-22.667 -12.667 -34 -33.334 -34 -62.001zM383 1480c-20 0 -37.167 6.99902 -51.5 20.999s-21.5 31 -21.5 51c0 49.333 24.667 74 74 74c22 0 40.667 -10.5 56 -31.5s23 -45.5 23 -73.5s-11 -68.833 -33 -122.5s-33 -90.667 -33 -111s58 -63.166 174 -128.499
c16 -9.33301 44.333 -34.333 85 -75c55.333 -56 83 -149.667 83 -281c0 -48 -16 -103 -48 -165l-89 -151l199 -341h329v220c0 43.333 -18.333 67.666 -55 72.999c62 20.667 107.833 47.167 137.5 79.5s50.5 78.833 62.5 139.5v-512h27v-146h-592l-194 338l-40 -69l144 -253
c17.333 -30.667 26 -68 26 -112c0 -71.333 -26 -131.166 -78 -179.499s-114.833 -72.5 -188.5 -72.5s-132 28.667 -175 86s-64.5 123.666 -64.5 198.999c0 28 20.667 77 62 147l111 185l-85 138c-33.333 60.667 -50 116.167 -50 166.5s25.667 98.5 77 144.5
c20 18 71 52.333 153 103l113 -195c49.333 86 74 145.667 74 179c0 61.333 -16.667 118.333 -50 171s-79 79 -137 79c-84.667 0 -156.5 -19.5 -215.5 -58.5s-120.5 -97.5 -184.5 -175.5c90 204 191.667 326 305 366l-13 87c0 44.667 20.833 87.834 62.5 129.501
s66.5 74.167 74.5 97.5c-16 -14 -34 -21 -54 -21zM1116 896.5c0 -36.333 -18.167 -54.5 -54.5 -54.5s-54.5 18.167 -54.5 54.5s18.167 54.5 54.5 54.5s54.5 -18.167 54.5 -54.5zM1263 896.5c0 -36.333 -18.167 -54.5 -54.5 -54.5s-54.5 18.167 -54.5 54.5
s18.167 54.5 54.5 54.5s54.5 -18.167 54.5 -54.5z" />
    <glyph glyph-name="uniFC8E" unicode="&#xfee8;&#xfef0;" horiz-adv-x="1288" arabic-form="final" 
d="M504 -101c0 25.333 -3.66699 44.333 -11 57l-100 172l-100 -172c-7.33301 -12.667 -11 -31.5 -11 -56.5s11 -48.167 33 -69.5s48.167 -32 78.5 -32s56.333 10.5 78 31.5s32.5 44.167 32.5 69.5zM320 558c0 -13.333 25.333 -62.999 76 -148.999l40 70l-82 141
c-22.667 -12.667 -34 -33.334 -34 -62.001zM383 1480c-20 0 -37.167 6.99902 -51.5 20.999s-21.5 31 -21.5 51c0 49.333 24.667 74 74 74c22 0 40.667 -10.5 56 -31.5s23 -45.5 23 -73.5s-11 -68.833 -33 -122.5s-33 -90.667 -33 -111s58 -63.166 174 -128.499
c16 -9.33301 44.333 -34.333 85 -75c55.333 -56 83 -149.667 83 -281c0 -48 -16 -103 -48 -165l-89 -151l199 -341h329v220c0 43.333 -18.333 67.666 -55 72.999c62 20.667 107.833 47.167 137.5 79.5s50.5 78.833 62.5 139.5v-512h27v-146h-592l-194 338l-40 -69l144 -253
c17.333 -30.667 26 -68 26 -112c0 -71.333 -26 -131.166 -78 -179.499s-114.833 -72.5 -188.5 -72.5s-132 28.667 -175 86s-64.5 123.666 -64.5 198.999c0 28 20.667 77 62 147l111 185l-85 138c-33.333 60.667 -50 116.167 -50 166.5s25.667 98.5 77 144.5
c20 18 71 52.333 153 103l113 -195c49.333 86 74 145.667 74 179c0 61.333 -16.667 118.333 -50 171s-79 79 -137 79c-84.667 0 -156.5 -19.5 -215.5 -58.5s-120.5 -97.5 -184.5 -175.5c90 204 191.667 326 305 366l-13 87c0 44.667 20.833 87.834 62.5 129.501
s66.5 74.167 74.5 97.5c-16 -14 -34 -21 -54 -21zM1221 896.5c0 -36.333 -18.167 -54.5 -54.5 -54.5s-54.5 18.167 -54.5 54.5s18.167 54.5 54.5 54.5s54.5 -18.167 54.5 -54.5z" />
    <glyph glyph-name="uniFC91" unicode="&#xfef4;&#xfeae;" horiz-adv-x="792" arabic-form="final" 
d="M565 -222c-0.666992 -36 -19 -54 -55 -54s-54 18 -54 54s18 54.333 54 55c36 -0.666992 54.333 -19 55 -55zM712 -222c0 -36 -18 -54 -54 -54s-54.333 18 -55 54c0.666992 36 19 54.333 55 55c36 -0.666992 54 -19 54 -55zM792 0h-390c-6 -65.333 -28 -118 -66 -158
s-88 -60.333 -150 -61s-111 20.333 -147 63s-54 94.667 -54 156c0 -36 12 -69.333 36 -100s54.333 -46 91 -46s69.667 14.833 99 44.5s44 63.5 44 101.5v219c0 44 -24 68.667 -72 74c117.333 34.667 190.333 83.334 219 146.001v-293h218v220
c0 43.333 -18.333 67.666 -55 72.999c61.333 20.667 107 47.167 137 79.5s51 78.833 63 139.5v-512h27v-146z" />
    <glyph glyph-name="uniFC94" unicode="&#xfef4;&#xfee6;" horiz-adv-x="762" arabic-form="final" 
d="M545 -258c-0.666992 -36 -19 -54.333 -55 -55c-36 0.666992 -54 19 -54 55s18 54 54 54s54.333 -18 55 -54zM692 -258c0 -36 -18 -54.333 -54 -55c-36 0.666992 -54.333 19 -55 55c0.666992 36 19 54 55 54s54 -18 54 -54zM772 0l-333.002 0.000976562
c0 -56 -22.667 -106.5 -68 -151.5s-97.333 -67.5 -156 -67.5s-109.167 21.167 -151.5 63.5s-63.5 89.166 -63.5 140.499s20.833 111.833 62.5 181.5s62.167 126.834 61.5 171.501c13.333 -25.333 20 -48 20 -68s-2 -33.667 -6 -41c28.667 0 50.334 -16.667 65.001 -50
c-14 6 -34.333 9 -61 9s-52 -24 -76 -72s-35.667 -89.667 -35 -125c0 -36 12.667 -68.5 38 -97.5s56.333 -43.5 93 -43.5s67.667 16 93 48s38 66 38 102c0 62 -27 109.667 -81 143c24.667 6.66699 44.334 39 59.001 97l22 126c6.66699 -26 27 -63.333 61 -112
s55.667 -84.667 65 -108h181v220c0 43.333 -18.333 67.666 -55 72.999c61.333 20.667 107 47.167 137 79.5s51 78.833 63 139.5v-512h27v-146zM347.998 494.001c0 -36 -18 -54.333 -54 -55c-36 0.666992 -54.333 19 -55 55c0.666992 36 19 54 55 54s54 -18 54 -54z" />
    <glyph glyph-name="uniFC9C" unicode="&#xfe91;&#xfea0;" horiz-adv-x="1500" arabic-form="initial" 
d="M626 -317.5c0 -36.333 -18.167 -54.5 -54.5 -54.5s-54.5 18.167 -54.5 54.5s18.167 54.5 54.5 54.5s54.5 -18.167 54.5 -54.5zM1195 -320.5c0 -36.333 -18.167 -54.5 -54.5 -54.5s-54.5 18.167 -54.5 54.5s18.167 54.5 54.5 54.5s54.5 -18.167 54.5 -54.5zM822 1437
c0 -85.333 -25 -175.664 -75 -270.997l-148 -276c-52 -108.667 -78 -211 -78 -307c0 -142.667 47.833 -251.167 143.5 -325.5s193.5 -111.5 293.5 -111.5h302v220c0 44 -18.333 68.333 -55 73c62 20.667 106 46 132 76s48.667 77.667 68 143v-877
c-45.333 32 -76.833 62.167 -94.5 90.5s-34.5 71.166 -50.5 128.499h-1331v146h632c-125.333 111.333 -188 272 -188 482c0 91.333 26 186.333 78 285l146 236c52 88.667 78 167.667 78 237c0 148.667 -51.667 223 -155 223c-78.667 0 -134.667 -16.167 -168 -48.5
s-58.333 -88.5 -75 -168.5c-2 17.333 -3 38.666 -3 63.999c0 74.667 18.333 136 55 184c-72 25.333 -147.333 63.666 -226 114.999c64.667 -6.66699 122.667 -10 174 -10l265 11c89.333 0 158.333 -31.833 207 -95.5s73 -138.167 73 -223.5z" />
    <glyph glyph-name="uniFC9D" unicode="&#xfe91;&#xfea4;" horiz-adv-x="1500" arabic-form="initial" 
d="M1195 -320.5c0 -36.333 -18.167 -54.5 -54.5 -54.5s-54.5 18.167 -54.5 54.5s18.167 54.5 54.5 54.5s54.5 -18.167 54.5 -54.5zM822 1437c0 -85.333 -25 -175.664 -75 -270.997l-148 -276c-52 -108.667 -78 -211 -78 -307c0 -142.667 47.833 -251.167 143.5 -325.5
s193.5 -111.5 293.5 -111.5h302v220c0 44 -18.333 68.333 -55 73c62 20.667 106 46 132 76s48.667 77.667 68 143v-877c-45.333 32 -76.833 62.167 -94.5 90.5s-34.5 71.166 -50.5 128.499h-1331v146h632c-125.333 111.333 -188 272 -188 482c0 91.333 26 186.333 78 285
l146 236c52 88.667 78 167.667 78 237c0 148.667 -51.667 223 -155 223c-78.667 0 -134.667 -16.167 -168 -48.5s-58.333 -88.5 -75 -168.5c-2 17.333 -3 38.666 -3 63.999c0 74.667 18.333 136 55 184c-72 25.333 -147.333 63.666 -226 114.999
c64.667 -6.66699 122.667 -10 174 -10l265 11c89.333 0 158.333 -31.833 207 -95.5s73 -138.167 73 -223.5z" />
    <glyph glyph-name="uniFC9E" unicode="&#xfe91;&#xfea8;" horiz-adv-x="1500" arabic-form="initial" 
d="M1195 -320.5c0 -36.333 -18.167 -54.5 -54.5 -54.5s-54.5 18.167 -54.5 54.5s18.167 54.5 54.5 54.5s54.5 -18.167 54.5 -54.5zM836 620.5c0 -36.333 -18.167 -54.5 -54.5 -54.5s-54.5 18.167 -54.5 54.5s18.167 54.5 54.5 54.5s54.5 -18.167 54.5 -54.5zM822 1437
c0 -85.333 -25 -175.664 -75 -270.997l-148 -276c-52 -108.667 -78 -211 -78 -307c0 -142.667 47.833 -251.167 143.5 -325.5s193.5 -111.5 293.5 -111.5h302v220c0 44 -18.333 68.333 -55 73c62 20.667 106 46 132 76s48.667 77.667 68 143v-877
c-45.333 32 -76.833 62.167 -94.5 90.5s-34.5 71.166 -50.5 128.499h-1331v146h632c-125.333 111.333 -188 272 -188 482c0 91.333 26 186.333 78 285l146 236c52 88.667 78 167.667 78 237c0 148.667 -51.667 223 -155 223c-78.667 0 -134.667 -16.167 -168 -48.5
s-58.333 -88.5 -75 -168.5c-2 17.333 -3 38.666 -3 63.999c0 74.667 18.333 136 55 184c-72 25.333 -147.333 63.666 -226 114.999c64.667 -6.66699 122.667 -10 174 -10l265 11c89.333 0 158.333 -31.833 207 -95.5s73 -138.167 73 -223.5z" />
    <glyph glyph-name="uniFC9F" unicode="&#xfe91;&#xfee4;" horiz-adv-x="872" arabic-form="initial" 
d="M354 79.5c0 21.667 -8.33105 40.332 -24.998 55.999s-36.334 23.5 -59.001 23.5s-41.834 -8.33301 -57.501 -25s-23.5 -36.167 -23.5 -58.5s8.5 -41.5 25.5 -57.5s36.333 -24 58 -24s40.667 8.83301 57 26.5s24.5 37.334 24.5 59.001zM703.002 -443.502
c0 -36.333 -18.167 -54.5 -54.5 -54.5s-54.5 18.167 -54.5 54.5s18.167 54.5 54.5 54.5s54.5 -18.167 54.5 -54.5zM270.002 -135.002c-78.667 0 -142.67 45.002 -192.003 135.002h-162v146h159c10.667 24 45.834 58.333 105.501 103s89.5 78.667 89.5 102
c0 -12.667 30.5 -44.334 91.5 -95.001s96.167 -87.667 105.5 -111l173 1v220c0 43.333 -18.333 67.666 -55 72.999c62 21.333 105.833 46.833 131.5 76.5s48.5 77.167 68.5 142.5v-877c-45.333 32 -76.833 62.167 -94.5 90.5s-34.5 71.166 -50.5 128.499h-176
c-15.333 -35.333 -42.166 -66.666 -80.499 -93.999s-76.166 -41 -113.499 -41z" />
    <glyph glyph-name="uniFCA1" unicode="&#xfe97;&#xfea0;" horiz-adv-x="1500" arabic-form="initial" 
d="M626 -317.5c0 -36.333 -18.167 -54.5 -54.5 -54.5s-54.5 18.167 -54.5 54.5s18.167 54.5 54.5 54.5s54.5 -18.167 54.5 -54.5zM822 1437c0 -85.333 -25 -175.664 -75 -270.997l-148 -276c-52 -108.667 -78 -211 -78 -307c0 -142.667 47.833 -251.167 143.5 -325.5
s193.5 -111.5 293.5 -111.5h302v220c0 44 -18.333 68.333 -55 73c62 20.667 106 46 132 76s48.667 77.667 68 143v-877c-45.333 32 -76.833 62.167 -94.5 90.5s-34.5 71.166 -50.5 128.499h-1331v146h632c-125.333 111.333 -188 272 -188 482c0 91.333 26 186.333 78 285
l146 236c52 88.667 78 167.667 78 237c0 148.667 -51.667 223 -155 223c-78.667 0 -134.667 -16.167 -168 -48.5s-58.333 -88.5 -75 -168.5c-2 17.333 -3 38.666 -3 63.999c0 74.667 18.333 136 55 184c-72 25.333 -147.333 63.666 -226 114.999
c64.667 -6.66699 122.667 -10 174 -10l265 11c89.333 0 158.333 -31.833 207 -95.5s73 -138.167 73 -223.5zM1146 841.502c0 -36.333 -18.167 -54.5 -54.5 -54.5s-54.5 18.167 -54.5 54.5s18.167 54.5 54.5 54.5s54.5 -18.167 54.5 -54.5zM1293 841.502
c0 -36.333 -18.167 -54.5 -54.5 -54.5s-54.5 18.167 -54.5 54.5s18.167 54.5 54.5 54.5s54.5 -18.167 54.5 -54.5z" />
    <glyph glyph-name="uniFCA2" unicode="&#xfe97;&#xfea4;" horiz-adv-x="1500" arabic-form="initial" 
d="M822 1437c0 -85.333 -25 -175.664 -75 -270.997l-148 -276c-52 -108.667 -78 -211 -78 -307c0 -142.667 47.833 -251.167 143.5 -325.5s193.5 -111.5 293.5 -111.5h302v220c0 44 -18.333 68.333 -55 73c62 20.667 106 46 132 76s48.667 77.667 68 143v-877
c-45.333 32 -76.833 62.167 -94.5 90.5s-34.5 71.166 -50.5 128.499h-1331v146h632c-125.333 111.333 -188 272 -188 482c0 91.333 26 186.333 78 285l146 236c52 88.667 78 167.667 78 237c0 148.667 -51.667 223 -155 223c-78.667 0 -134.667 -16.167 -168 -48.5
s-58.333 -88.5 -75 -168.5c-2 17.333 -3 38.666 -3 63.999c0 74.667 18.333 136 55 184c-72 25.333 -147.333 63.666 -226 114.999c64.667 -6.66699 122.667 -10 174 -10l265 11c89.333 0 158.333 -31.833 207 -95.5s73 -138.167 73 -223.5zM1146 841.502
c0 -36.333 -18.167 -54.5 -54.5 -54.5s-54.5 18.167 -54.5 54.5s18.167 54.5 54.5 54.5s54.5 -18.167 54.5 -54.5zM1293 841.502c0 -36.333 -18.167 -54.5 -54.5 -54.5s-54.5 18.167 -54.5 54.5s18.167 54.5 54.5 54.5s54.5 -18.167 54.5 -54.5z" />
    <glyph glyph-name="uniFCA3" unicode="&#xfe97;&#xfea8;" horiz-adv-x="1500" arabic-form="initial" 
d="M808 578.5c0 -36.333 -18.167 -54.5 -54.5 -54.5s-54.5 18.167 -54.5 54.5s18.167 54.5 54.5 54.5s54.5 -18.167 54.5 -54.5zM822 1437c0 -85.333 -25 -175.664 -75 -270.997l-148 -276c-52 -108.667 -78 -211 -78 -307c0 -142.667 47.833 -251.167 143.5 -325.5
s193.5 -111.5 293.5 -111.5h302v220c0 44 -18.333 68.333 -55 73c62 20.667 106 46 132 76s48.667 77.667 68 143v-877c-45.333 32 -76.833 62.167 -94.5 90.5s-34.5 71.166 -50.5 128.499h-1331v146h632c-125.333 111.333 -188 272 -188 482c0 91.333 26 186.333 78 285
l146 236c52 88.667 78 167.667 78 237c0 148.667 -51.667 223 -155 223c-78.667 0 -134.667 -16.167 -168 -48.5s-58.333 -88.5 -75 -168.5c-2 17.333 -3 38.666 -3 63.999c0 74.667 18.333 136 55 184c-72 25.333 -147.333 63.666 -226 114.999
c64.667 -6.66699 122.667 -10 174 -10l265 11c89.333 0 158.333 -31.833 207 -95.5s73 -138.167 73 -223.5zM1146 841.502c0 -36.333 -18.167 -54.5 -54.5 -54.5s-54.5 18.167 -54.5 54.5s18.167 54.5 54.5 54.5s54.5 -18.167 54.5 -54.5zM1293 841.502
c0 -36.333 -18.167 -54.5 -54.5 -54.5s-54.5 18.167 -54.5 54.5s18.167 54.5 54.5 54.5s54.5 -18.167 54.5 -54.5z" />
    <glyph glyph-name="uniFCA4" unicode="&#xfe97;&#xfee4;" horiz-adv-x="876" arabic-form="initial" 
d="M354 79.5c0 21.667 -8.33105 40.332 -24.998 55.999s-36.334 23.5 -59.001 23.5s-41.834 -8.33301 -57.501 -25s-23.5 -36.167 -23.5 -58.5s8.5 -41.5 25.5 -57.5s36.333 -24 58 -24s40.667 8.83301 57 26.5s24.5 37.334 24.5 59.001zM270.002 -135.002
c-78.667 0 -142.67 45.002 -192.003 135.002h-162v146h159c10.667 24 45.834 58.333 105.501 103s89.5 78.667 89.5 102c0 -12.667 30.5 -44.334 91.5 -95.001s96.167 -87.667 105.5 -111l173 1v220c0 43.333 -18.333 67.666 -55 72.999
c62 21.333 105.833 46.833 131.5 76.5s48.5 77.167 68.5 142.5v-877c-45.333 32 -76.833 62.167 -94.5 90.5s-34.5 71.166 -50.5 128.499h-176c-15.333 -35.333 -42.166 -66.666 -80.499 -93.999s-76.166 -41 -113.499 -41zM600.999 786.5
c0 -36.333 -18.167 -54.5 -54.5 -54.5s-54.5 18.167 -54.5 54.5s18.167 54.5 54.5 54.5s54.5 -18.167 54.5 -54.5zM747.999 786.5c0 -36.333 -18.167 -54.5 -54.5 -54.5s-54.5 18.167 -54.5 54.5s18.167 54.5 54.5 54.5s54.5 -18.167 54.5 -54.5z" />
    <glyph glyph-name="uniFCA6" unicode="&#xfe9b;&#xfee4;" horiz-adv-x="876" arabic-form="initial" 
d="M354 79.5c0 21.667 -8.33105 40.332 -24.998 55.999s-36.334 23.5 -59.001 23.5s-41.834 -8.33301 -57.501 -25s-23.5 -36.167 -23.5 -58.5s8.5 -41.5 25.5 -57.5s36.333 -24 58 -24s40.667 8.83301 57 26.5s24.5 37.334 24.5 59.001zM270.002 -135.002
c-78.667 0 -142.67 45.002 -192.003 135.002h-162v146h159c10.667 24 45.834 58.333 105.501 103s89.5 78.667 89.5 102c0 -12.667 30.5 -44.334 91.5 -95.001s96.167 -87.667 105.5 -111l173 1v220c0 43.333 -18.333 67.666 -55 72.999
c62 21.333 105.833 46.833 131.5 76.5s48.5 77.167 68.5 142.5v-877c-45.333 32 -76.833 62.167 -94.5 90.5s-34.5 71.166 -50.5 128.499h-176c-15.333 -35.333 -42.166 -66.666 -80.499 -93.999s-76.166 -41 -113.499 -41zM600.999 786.5
c0 -36.333 -18.167 -54.5 -54.5 -54.5s-54.5 18.167 -54.5 54.5s18.167 54.5 54.5 54.5s54.5 -18.167 54.5 -54.5zM747.999 786.5c0 -36.333 -18.167 -54.5 -54.5 -54.5s-54.5 18.167 -54.5 54.5s18.167 54.5 54.5 54.5s54.5 -18.167 54.5 -54.5zM673.999 931.5
c0 -36.333 -18.167 -54.5 -54.5 -54.5s-54.5 18.167 -54.5 54.5s18.167 54.5 54.5 54.5s54.5 -18.167 54.5 -54.5z" />
    <glyph glyph-name="uniFCA8" unicode="&#xfe9f;&#xfee4;" horiz-adv-x="1683" arabic-form="initial" 
d="M354 79.5c0 21.667 -8.33105 40.332 -24.998 55.999s-36.334 23.5 -59.001 23.5s-41.834 -8.33301 -57.501 -25s-23.5 -36.167 -23.5 -58.5s8.5 -41.5 25.5 -57.5s36.333 -24 58 -24s40.667 8.83301 57 26.5s24.5 37.334 24.5 59.001zM951.002 -260.502
c0 -36.333 -18.167 -54.5 -54.5 -54.5s-54.5 18.167 -54.5 54.5s18.167 54.5 54.5 54.5s54.5 -18.167 54.5 -54.5zM270.002 -135.002c-78.667 0 -142.666 45.0029 -191.999 135.003h-162v146h159c10.667 24 45.834 58.5 105.501 103.5s89.5 78.833 89.5 101.5
c0.666992 -12.667 31.167 -44 91.5 -94s95.5 -87 105.5 -111h483c-124 103.333 -186 249 -186 437c0 111.333 11.333 194.666 34 249.999c10.667 26.667 60 109.334 148 248.001s132 239.167 132 301.5s-17 116.666 -51 162.999s-83.333 69.5 -148 69.5
s-112.834 -18.833 -144.501 -56.5s-54.834 -93.167 -69.501 -166.5c-0.666992 12 -1 30.333 -1 55c0 78 17.667 142.333 53 193c-62 21.333 -137.333 59.666 -226 114.999c140 -12.667 234.167 -17.834 282.5 -15.501s78.833 3.5 91.5 3.5c122.667 0 211 -25.833 265 -77.5
s81 -138.5 81 -260.5c0 -64.667 -26 -146.334 -78 -245.001l-146 -268c-52 -110.667 -78 -213.667 -78 -309c0 -126 41.333 -230.333 124 -313s187 -124 313 -124c74.667 0 126 24.333 154 73l104 -219h-1140c-16 -35.333 -43 -66.666 -81 -93.999s-75.667 -41 -113 -41z
" />
    <glyph glyph-name="uniFCAA" unicode="&#xfea3;&#xfee4;" horiz-adv-x="1683" arabic-form="initial" 
d="M354 79.5c0 21.667 -8.33105 40.332 -24.998 55.999s-36.334 23.5 -59.001 23.5s-41.834 -8.33301 -57.501 -25s-23.5 -36.167 -23.5 -58.5s8.5 -41.5 25.5 -57.5s36.333 -24 58 -24s40.667 8.83301 57 26.5s24.5 37.334 24.5 59.001zM270.002 -135.002
c-78.667 0 -142.666 45.0029 -191.999 135.003h-162v146h159c10.667 24 45.834 58.5 105.501 103.5s89.5 78.833 89.5 101.5c0.666992 -12.667 31.167 -44 91.5 -94s95.5 -87 105.5 -111h483c-124 103.333 -186 249 -186 437c0 111.333 11.333 194.666 34 249.999
c10.667 26.667 60 109.334 148 248.001s132 239.167 132 301.5s-17 116.666 -51 162.999s-83.333 69.5 -148 69.5s-112.834 -18.833 -144.501 -56.5s-54.834 -93.167 -69.501 -166.5c-0.666992 12 -1 30.333 -1 55c0 78 17.667 142.333 53 193
c-62 21.333 -137.333 59.666 -226 114.999c140 -12.667 234.167 -17.834 282.5 -15.501s78.833 3.5 91.5 3.5c122.667 0 211 -25.833 265 -77.5s81 -138.5 81 -260.5c0 -64.667 -26 -146.334 -78 -245.001l-146 -268c-52 -110.667 -78 -213.667 -78 -309
c0 -126 41.333 -230.333 124 -313s187 -124 313 -124c74.667 0 126 24.333 154 73l104 -219h-1140c-16 -35.333 -43 -66.666 -81 -93.999s-75.667 -41 -113 -41z" />
    <glyph glyph-name="uniFCAC" unicode="&#xfea7;&#xfee4;" horiz-adv-x="1683" arabic-form="initial" 
d="M354 79.5c0 21.667 -8.33105 40.332 -24.998 55.999s-36.334 23.5 -59.001 23.5s-41.834 -8.33301 -57.501 -25s-23.5 -36.167 -23.5 -58.5s8.5 -41.5 25.5 -57.5s36.333 -24 58 -24s40.667 8.83301 57 26.5s24.5 37.334 24.5 59.001zM270.002 -135.002
c-78.667 0 -142.666 45.0029 -191.999 135.003h-162v146h159c10.667 24 45.834 58.5 105.501 103.5s89.5 78.833 89.5 101.5c0.666992 -12.667 31.167 -44 91.5 -94s95.5 -87 105.5 -111h483c-124 103.333 -186 249 -186 437c0 111.333 11.333 194.666 34 249.999
c10.667 26.667 60 109.334 148 248.001s132 239.167 132 301.5s-17 116.666 -51 162.999s-83.333 69.5 -148 69.5s-112.834 -18.833 -144.501 -56.5s-54.834 -93.167 -69.501 -166.5c-0.666992 12 -1 30.333 -1 55c0 78 17.667 142.333 53 193
c-62 21.333 -137.333 59.666 -226 114.999c140 -12.667 234.167 -17.834 282.5 -15.501s78.833 3.5 91.5 3.5c122.667 0 211 -25.833 265 -77.5s81 -138.5 81 -260.5c0 -64.667 -26 -146.334 -78 -245.001l-146 -268c-52 -110.667 -78 -213.667 -78 -309
c0 -126 41.333 -230.333 124 -313s187 -124 313 -124c74.667 0 126 24.333 154 73l104 -219h-1140c-16 -35.333 -43 -66.666 -81 -93.999s-75.667 -41 -113 -41zM1203 635.501c0 -36.333 -18.167 -54.5 -54.5 -54.5s-54.5 18.167 -54.5 54.5s18.167 54.5 54.5 54.5
s54.5 -18.167 54.5 -54.5z" />
    <glyph glyph-name="uniFCB0" unicode="&#xfeb3;&#xfee4;" horiz-adv-x="1356" arabic-form="initial" 
d="M354 79.5c0 21.667 -8.33105 40.332 -24.998 55.999s-36.334 23.5 -59.001 23.5s-41.834 -8.33301 -57.501 -25s-23.5 -36.167 -23.5 -58.5s8.5 -41.5 25.5 -57.5s36.333 -24 58 -24s40.667 8.83301 57 26.5s24.5 37.334 24.5 59.001zM1301 -0.00195312
l-837.003 -0.000976562c-15.333 -35.333 -42.166 -66.666 -80.499 -93.999s-76.166 -41 -113.499 -41c-78.667 0 -142.667 45 -192 135h-122v146h119c10.667 24 45.834 58.333 105.501 103s89.5 78.667 89.5 102c0.666992 -12.667 31.167 -44 91.5 -94s95.5 -87 105.5 -111
h176v220c0 48.667 -24.333 73 -73 73c104.667 32 177.667 80.667 219 146v-439h110v293c0 48.667 -24.333 73 -73 73c116 33.333 189 82 219 146v-512h110v366c0 48.667 -24.333 73 -73 73c110 34 183 82.667 219 146v-731z" />
    <glyph glyph-name="uniFCC9" unicode="&#xfedf;&#xfea0;" horiz-adv-x="1554" arabic-form="initial" 
d="M626 -317.5c0 -36.333 -18.167 -54.5 -54.5 -54.5s-54.5 18.167 -54.5 54.5s18.167 54.5 54.5 54.5s54.5 -18.167 54.5 -54.5zM822 1426c0 -78 -24.998 -164.662 -74.998 -259.995l-148 -276c-52 -108.667 -78 -211 -78 -307c0 -142.667 47.833 -251.167 143.5 -325.5
s193.5 -111.5 293.5 -111.5l342 -1v1318c0 49.333 -24.667 73.666 -74 72.999c64.667 16 110.667 39.167 138 69.5s54.333 80.166 81 149.499v-1974c-47.333 23.333 -80.333 50.833 -99 82.5s-34 77.167 -46 136.5h-1371v146h632c-125.333 111.333 -188 272 -188 482
c0 91.333 26 186.333 78 285l146 236c52 88.667 78 167.667 78 237c0 148.667 -51.667 223 -155 223c-78.667 0 -134.667 -16.167 -168 -48.5s-58.333 -88.5 -75 -168.5c-2 17.333 -3 38.666 -3 63.999c0 74.667 18.333 136 55 184c-72 25.333 -147.333 63.666 -226 114.999
c64.667 -6.66699 122.667 -10 174 -10l265 11c63.333 0 118.666 -17.833 165.999 -53.5s78.166 -84.834 92.499 -147.501s21.5 -105.667 21.5 -129z" />
    <glyph glyph-name="uniFCCA" unicode="&#xfedf;&#xfea4;" horiz-adv-x="1554" arabic-form="initial" 
d="M822 1426c0 -78 -24.998 -164.662 -74.998 -259.995l-148 -276c-52 -108.667 -78 -211 -78 -307c0 -142.667 47.833 -251.167 143.5 -325.5s193.5 -111.5 293.5 -111.5l342 -1v1318c0 49.333 -24.667 73.666 -74 72.999c64.667 16 110.667 39.167 138 69.5
s54.333 80.166 81 149.499v-1974c-47.333 23.333 -80.333 50.833 -99 82.5s-34 77.167 -46 136.5h-1371v146h632c-125.333 111.333 -188 272 -188 482c0 91.333 26 186.333 78 285l146 236c52 88.667 78 167.667 78 237c0 148.667 -51.667 223 -155 223
c-78.667 0 -134.667 -16.167 -168 -48.5s-58.333 -88.5 -75 -168.5c-2 17.333 -3 38.666 -3 63.999c0 74.667 18.333 136 55 184c-72 25.333 -147.333 63.666 -226 114.999c64.667 -6.66699 122.667 -10 174 -10l265 11c63.333 0 118.666 -17.833 165.999 -53.5
s78.166 -84.834 92.499 -147.501s21.5 -105.667 21.5 -129z" />
    <glyph glyph-name="uniFCCB" unicode="&#xfedf;&#xfea8;" horiz-adv-x="1554" arabic-form="initial" 
d="M822 1426c0 -78 -24.998 -164.662 -74.998 -259.995l-148 -276c-52 -108.667 -78 -211 -78 -307c0 -142.667 47.833 -251.167 143.5 -325.5s193.5 -111.5 293.5 -111.5l342 -1v1318c0 49.333 -24.667 73.666 -74 72.999c64.667 16 110.667 39.167 138 69.5
s54.333 80.166 81 149.499v-1974c-47.333 23.333 -80.333 50.833 -99 82.5s-34 77.167 -46 136.5h-1371v146h632c-125.333 111.333 -188 272 -188 482c0 91.333 26 186.333 78 285l146 236c52 88.667 78 167.667 78 237c0 148.667 -51.667 223 -155 223
c-78.667 0 -134.667 -16.167 -168 -48.5s-58.333 -88.5 -75 -168.5c-2 17.333 -3 38.666 -3 63.999c0 74.667 18.333 136 55 184c-72 25.333 -147.333 63.666 -226 114.999c64.667 -6.66699 122.667 -10 174 -10l265 11c63.333 0 118.666 -17.833 165.999 -53.5
s78.166 -84.834 92.499 -147.501s21.5 -105.667 21.5 -129zM822.002 746.505c0 -36.333 -18.167 -54.5 -54.5 -54.5s-54.5 18.167 -54.5 54.5s18.167 54.5 54.5 54.5s54.5 -18.167 54.5 -54.5z" />
    <glyph glyph-name="uniFCCC" unicode="&#xfedf;&#xfee4;" horiz-adv-x="1048" arabic-form="initial" 
d="M354 79.5c0 21.667 -8.33105 40.332 -24.998 55.999s-36.334 23.5 -59.001 23.5s-41.834 -8.33301 -57.501 -25s-23.5 -36.167 -23.5 -58.5s8.5 -41.5 25.5 -57.5s36.333 -24 58 -24s40.667 8.83301 57 26.5s24.5 37.334 24.5 59.001zM270.002 -135.002
c-78.667 0 -142.67 44.999 -192.003 134.999h-162v146h159c10.667 24.667 45.834 59.334 105.501 104.001s89.5 78.334 89.5 101.001c0 -12.667 30.5 -44.334 91.5 -95.001s96.167 -87.667 105.5 -111h323v1318c0 48.667 -24.667 73 -74 73
c64.667 16 110.667 39.167 138 69.5s54.333 80.166 81 149.499v-1974c-47.333 22.667 -80.333 50 -99 82s-34 77.667 -46 137h-326c-15.333 -35.333 -42.166 -66.666 -80.499 -93.999s-76.166 -41 -113.499 -41z" />
    <glyph glyph-name="uniFCCD" unicode="&#xfedf;&#xfeec;" horiz-adv-x="1440" arabic-form="initial" 
d="M523 34c0 27.333 -12.832 62.5029 -38.499 105.503l-71.5 118.5c-75.333 -118.667 -113 -193.334 -113 -224.001s11.333 -55.834 34 -75.501s48.667 -29.5 78 -29.5s55.166 10.667 77.499 32s33.5 45.666 33.5 72.999zM721.001 146.003l-186 322l-41 -70l144 -252h83z
M335.001 690.003c0 -10.667 26 -60.667 78 -150l41 68l-81 142c-25.333 -13.333 -38 -33.333 -38 -60zM667.001 0.00292969c0 -62.667 -27.667 -114.669 -83 -156.002s-114.166 -62 -176.499 -62s-115.5 20 -159.5 60s-72.333 92.667 -85 158h-207v146h241l135 252l-86 140
c-32.667 60 -49 110.667 -49 152c0 62 25.333 115.333 76 160c12 10.667 63.333 44.334 154 101.001l113 -196c48.667 81.333 73 141.333 73 180c0 60 -16.833 116.667 -50.5 170s-78.834 80 -135.501 80c-86.667 0 -158.667 -19 -216 -57s-119 -97 -185 -177
c90 204 192 326 306 366c-9.33301 18.667 -14 40.334 -14 65.001c0 46 21 93 63 141s67 84 75 108c-16.667 -14.667 -34.5 -22 -53.5 -22s-36 7.33301 -51 22s-22.5 31.667 -22.5 51c0 48.667 24.667 73 74 73c26 0 46.5 -8.5 61.5 -25.5s22.5 -33.833 22.5 -50.5
c0 -44 -12.667 -94.833 -38 -152.5s-38 -89.167 -38 -94.5c0 -28.667 35.833 -64.334 107.5 -107.001s122.5 -80.667 152.5 -114c60.667 -66 91 -149.667 91 -251c0 -56 -15.667 -116 -47 -180l-94 -164l268 -470h301v1317c0 48.667 -24.667 73 -74 73
c64 16 110 39.333 138 70s55 80.334 81 149.001v-1974c-47.333 23.333 -80.333 50.833 -99 82.5s-34 77.167 -46 136.5h-523z" />
    <glyph glyph-name="uniFCCE" unicode="&#xfee3;&#xfea0;" horiz-adv-x="1568" arabic-form="initial" 
d="M1338 146v134c-82 0 -123 -44.667 -123 -134h123zM668 -289.5c0 -36.333 -18.167 -54.5 -54.5 -54.5s-54.5 18.167 -54.5 54.5s18.167 54.5 54.5 54.5s54.5 -18.167 54.5 -54.5zM822 1426c0 -78 -24.999 -164.664 -74.999 -259.997l-148 -276
c-52 -108.667 -78 -211 -78 -307c0 -142.667 47.833 -251.167 143.5 -325.5s193.5 -111.5 293.5 -111.5h108c0 100.667 30 173.667 90 219c38.667 29.333 96.334 49.666 173.001 60.999s118 20.833 124 28.5s16.667 23.167 32 46.5v-501h-1556v146h632
c-125.333 111.333 -188 272 -188 482c0 92 26 186.667 78 284l146 235c52 88.667 78 168.334 78 239.001c0 148.667 -51.667 223 -155 223c-78.667 0 -134.667 -16.333 -168 -49s-58.333 -88.667 -75 -168c-2 17.333 -3 38.666 -3 63.999c0 74.667 18.333 136 55 184
c-72 25.333 -147.333 63.666 -226 114.999c64.667 -6.66699 122.667 -10 174 -10l265 11c63.333 0 118.666 -17.833 165.999 -53.5s78.166 -84.834 92.499 -147.501s21.5 -105.667 21.5 -129z" />
    <glyph glyph-name="uniFCCF" unicode="&#xfee3;&#xfea4;" horiz-adv-x="1568" arabic-form="initial" 
d="M1338 146v134c-82 0 -123 -44.667 -123 -134h123zM822 1426c0 -78 -24.999 -164.664 -74.999 -259.997l-148 -276c-52 -108.667 -78 -211 -78 -307c0 -142.667 47.833 -251.167 143.5 -325.5s193.5 -111.5 293.5 -111.5h108c0 100.667 30 173.667 90 219
c38.667 29.333 96.334 49.666 173.001 60.999s118 20.833 124 28.5s16.667 23.167 32 46.5v-501h-1556v146h632c-125.333 111.333 -188 272 -188 482c0 92 26 186.667 78 284l146 235c52 88.667 78 168.334 78 239.001c0 148.667 -51.667 223 -155 223
c-78.667 0 -134.667 -16.333 -168 -49s-58.333 -88.667 -75 -168c-2 17.333 -3 38.666 -3 63.999c0 74.667 18.333 136 55 184c-72 25.333 -147.333 63.666 -226 114.999c64.667 -6.66699 122.667 -10 174 -10l265 11c63.333 0 118.666 -17.833 165.999 -53.5
s78.166 -84.834 92.499 -147.501s21.5 -105.667 21.5 -129z" />
    <glyph glyph-name="uniFCD0" unicode="&#xfee3;&#xfea8;" horiz-adv-x="1568" arabic-form="initial" 
d="M1338 146v134c-82 0 -123 -44.667 -123 -134h123zM822 578.5c0 -36.333 -18.167 -54.5 -54.5 -54.5s-54.5 18.167 -54.5 54.5s18.167 54.5 54.5 54.5s54.5 -18.167 54.5 -54.5zM822 1426c0 -78 -24.999 -164.664 -74.999 -259.997l-148 -276
c-52 -108.667 -78 -211 -78 -307c0 -142.667 47.833 -251.167 143.5 -325.5s193.5 -111.5 293.5 -111.5h108c0 100.667 30 173.667 90 219c38.667 29.333 96.334 49.666 173.001 60.999s118 20.833 124 28.5s16.667 23.167 32 46.5v-501h-1556v146h632
c-125.333 111.333 -188 272 -188 482c0 92 26 186.667 78 284l146 235c52 88.667 78 168.334 78 239.001c0 148.667 -51.667 223 -155 223c-78.667 0 -134.667 -16.333 -168 -49s-58.333 -88.667 -75 -168c-2 17.333 -3 38.666 -3 63.999c0 74.667 18.333 136 55 184
c-72 25.333 -147.333 63.666 -226 114.999c64.667 -6.66699 122.667 -10 174 -10l265 11c63.333 0 118.666 -17.833 165.999 -53.5s78.166 -84.834 92.499 -147.501s21.5 -105.667 21.5 -129z" />
    <glyph glyph-name="uniFCD1" unicode="&#xfee3;&#xfee4;" horiz-adv-x="1386" arabic-form="initial" 
d="M354 79.5c0 21.667 -8.33105 40.332 -24.998 55.999s-36.334 23.5 -59.001 23.5s-41.834 -8.33301 -57.501 -25s-23.5 -36.167 -23.5 -58.5s8.5 -41.5 25.5 -57.5s36.333 -24 58 -24s40.667 8.83301 57 26.5s24.5 37.334 24.5 59.001zM1128 145.998v134
c-82 0 -123 -44.667 -123 -134h123zM1275 -0.00195312l-811.001 -0.000976562c-15.333 -35.333 -42.166 -66.666 -80.499 -93.999s-76.166 -41 -113.499 -41c-78.667 0 -142.667 45 -192 135h-162v146h159c10.667 24.667 45.834 59.334 105.501 104.001
s89.5 78.334 89.5 101.001c0 -12.667 30.5 -44.334 91.5 -95.001s96.167 -87.667 105.5 -111l389 1c0 101.333 30 174.666 90 219.999c38.667 28.667 96.167 48.5 172.5 59.5s118.166 21 125.499 30s17.666 24.167 30.999 45.5v-501z" />
    <glyph glyph-name="uniFCD2" unicode="&#xfee7;&#xfea0;" horiz-adv-x="1500" arabic-form="initial" 
d="M626 -317.5c0 -36.333 -18.167 -54.5 -54.5 -54.5s-54.5 18.167 -54.5 54.5s18.167 54.5 54.5 54.5s54.5 -18.167 54.5 -54.5zM822 1437c0 -85.333 -25 -175.664 -75 -270.997l-148 -276c-52 -108.667 -78 -211 -78 -307c0 -142.667 47.833 -251.167 143.5 -325.5
s193.5 -111.5 293.5 -111.5h302v220c0 44 -18.333 68.333 -55 73c62 20.667 106 46 132 76s48.667 77.667 68 143v-877c-45.333 32 -76.833 62.167 -94.5 90.5s-34.5 71.166 -50.5 128.499h-1331v146h632c-125.333 111.333 -188 272 -188 482c0 91.333 26 186.333 78 285
l146 236c52 88.667 78 167.667 78 237c0 148.667 -51.667 223 -155 223c-78.667 0 -134.667 -16.167 -168 -48.5s-58.333 -88.5 -75 -168.5c-2 17.333 -3 38.666 -3 63.999c0 74.667 18.333 136 55 184c-72 25.333 -147.333 63.666 -226 114.999
c64.667 -6.66699 122.667 -10 174 -10l265 11c89.333 0 158.333 -31.833 207 -95.5s73 -138.167 73 -223.5zM1293 841.502c0 -36.333 -18.167 -54.5 -54.5 -54.5s-54.5 18.167 -54.5 54.5s18.167 54.5 54.5 54.5s54.5 -18.167 54.5 -54.5z" />
    <glyph glyph-name="uniFCD3" unicode="&#xfee7;&#xfea4;" horiz-adv-x="1500" arabic-form="initial" 
d="M822 1437c0 -85.333 -25 -175.664 -75 -270.997l-148 -276c-52 -108.667 -78 -211 -78 -307c0 -142.667 47.833 -251.167 143.5 -325.5s193.5 -111.5 293.5 -111.5h302v220c0 44 -18.333 68.333 -55 73c62 20.667 106 46 132 76s48.667 77.667 68 143v-877
c-45.333 32 -76.833 62.167 -94.5 90.5s-34.5 71.166 -50.5 128.499h-1331v146h632c-125.333 111.333 -188 272 -188 482c0 91.333 26 186.333 78 285l146 236c52 88.667 78 167.667 78 237c0 148.667 -51.667 223 -155 223c-78.667 0 -134.667 -16.167 -168 -48.5
s-58.333 -88.5 -75 -168.5c-2 17.333 -3 38.666 -3 63.999c0 74.667 18.333 136 55 184c-72 25.333 -147.333 63.666 -226 114.999c64.667 -6.66699 122.667 -10 174 -10l265 11c89.333 0 158.333 -31.833 207 -95.5s73 -138.167 73 -223.5zM1293 841.502
c0 -36.333 -18.167 -54.5 -54.5 -54.5s-54.5 18.167 -54.5 54.5s18.167 54.5 54.5 54.5s54.5 -18.167 54.5 -54.5z" />
    <glyph glyph-name="uniFCD4" unicode="&#xfee7;&#xfea8;" horiz-adv-x="1500" arabic-form="initial" 
d="M822 620.5c0 -36.333 -18.167 -54.5 -54.5 -54.5s-54.5 18.167 -54.5 54.5s18.167 54.5 54.5 54.5s54.5 -18.167 54.5 -54.5zM822 1437c0 -85.333 -25 -175.664 -75 -270.997l-148 -276c-52 -108.667 -78 -211 -78 -307c0 -142.667 47.833 -251.167 143.5 -325.5
s193.5 -111.5 293.5 -111.5h302v220c0 44 -18.333 68.333 -55 73c62 20.667 106 46 132 76s48.667 77.667 68 143v-877c-45.333 32 -76.833 62.167 -94.5 90.5s-34.5 71.166 -50.5 128.499h-1331v146h632c-125.333 111.333 -188 272 -188 482c0 91.333 26 186.333 78 285
l146 236c52 88.667 78 167.667 78 237c0 148.667 -51.667 223 -155 223c-78.667 0 -134.667 -16.167 -168 -48.5s-58.333 -88.5 -75 -168.5c-2 17.333 -3 38.666 -3 63.999c0 74.667 18.333 136 55 184c-72 25.333 -147.333 63.666 -226 114.999
c64.667 -6.66699 122.667 -10 174 -10l265 11c89.333 0 158.333 -31.833 207 -95.5s73 -138.167 73 -223.5zM1293 841.502c0 -36.333 -18.167 -54.5 -54.5 -54.5s-54.5 18.167 -54.5 54.5s18.167 54.5 54.5 54.5s54.5 -18.167 54.5 -54.5z" />
    <glyph glyph-name="uniFCD5" unicode="&#xfee7;&#xfee4;" horiz-adv-x="880" arabic-form="initial" 
d="M354 79.5c0 21.667 -8.33105 40.332 -24.998 55.999s-36.334 23.5 -59.001 23.5s-41.834 -8.33301 -57.501 -25s-23.5 -36.167 -23.5 -58.5s8.5 -41.5 25.5 -57.5s36.333 -24 58 -24s40.667 8.83301 57 26.5s24.5 37.334 24.5 59.001zM270.002 -135.002
c-78.667 0 -142.67 45.002 -192.003 135.002h-162v146h159c10.667 24 45.834 58.333 105.501 103s89.5 78.667 89.5 102c0 -12.667 30.5 -44.334 91.5 -95.001s96.167 -87.667 105.5 -111l173 1v220c0 43.333 -18.333 67.666 -55 72.999
c62 21.333 105.833 46.833 131.5 76.5s48.5 77.167 68.5 142.5v-877c-45.333 32 -76.833 62.167 -94.5 90.5s-34.5 71.166 -50.5 128.499h-176c-15.333 -35.333 -42.166 -66.666 -80.499 -93.999s-76.166 -41 -113.499 -41zM702.999 840.5
c0 -36.333 -18.167 -54.5 -54.5 -54.5s-54.5 18.167 -54.5 54.5s18.167 54.5 54.5 54.5s54.5 -18.167 54.5 -54.5z" />
    <glyph glyph-name="uniFCDA" unicode="&#xfef3;&#xfea0;" horiz-adv-x="1500" arabic-form="initial" 
d="M626 -317.5c0 -36.333 -18.167 -54.5 -54.5 -54.5s-54.5 18.167 -54.5 54.5s18.167 54.5 54.5 54.5s54.5 -18.167 54.5 -54.5zM1160 -318.5c0 -36.333 -18.167 -54.5 -54.5 -54.5s-54.5 18.167 -54.5 54.5s18.167 54.5 54.5 54.5s54.5 -18.167 54.5 -54.5zM1307 -318.5
c0 -36.333 -18.167 -54.5 -54.5 -54.5s-54.5 18.167 -54.5 54.5s18.167 54.5 54.5 54.5s54.5 -18.167 54.5 -54.5zM822 1437c0 -85.333 -25 -175.664 -75 -270.997l-148 -276c-52 -108.667 -78 -211 -78 -307c0 -142.667 47.833 -251.167 143.5 -325.5
s193.5 -111.5 293.5 -111.5h302v220c0 44 -18.333 68.333 -55 73c62 20.667 106 46 132 76s48.667 77.667 68 143v-877c-45.333 32 -76.833 62.167 -94.5 90.5s-34.5 71.166 -50.5 128.499h-1331v146h632c-125.333 111.333 -188 272 -188 482c0 91.333 26 186.333 78 285
l146 236c52 88.667 78 167.667 78 237c0 148.667 -51.667 223 -155 223c-78.667 0 -134.667 -16.167 -168 -48.5s-58.333 -88.5 -75 -168.5c-2 17.333 -3 38.666 -3 63.999c0 74.667 18.333 136 55 184c-72 25.333 -147.333 63.666 -226 114.999
c64.667 -6.66699 122.667 -10 174 -10l265 11c89.333 0 158.333 -31.833 207 -95.5s73 -138.167 73 -223.5z" />
    <glyph glyph-name="uniFCDB" unicode="&#xfef3;&#xfea4;" horiz-adv-x="1500" arabic-form="initial" 
d="M1160 -318.5c0 -36.333 -18.167 -54.5 -54.5 -54.5s-54.5 18.167 -54.5 54.5s18.167 54.5 54.5 54.5s54.5 -18.167 54.5 -54.5zM1307 -318.5c0 -36.333 -18.167 -54.5 -54.5 -54.5s-54.5 18.167 -54.5 54.5s18.167 54.5 54.5 54.5s54.5 -18.167 54.5 -54.5zM822 1437
c0 -85.333 -25 -175.664 -75 -270.997l-148 -276c-52 -108.667 -78 -211 -78 -307c0 -142.667 47.833 -251.167 143.5 -325.5s193.5 -111.5 293.5 -111.5h302v220c0 44 -18.333 68.333 -55 73c62 20.667 106 46 132 76s48.667 77.667 68 143v-877
c-45.333 32 -76.833 62.167 -94.5 90.5s-34.5 71.166 -50.5 128.499h-1331v146h632c-125.333 111.333 -188 272 -188 482c0 91.333 26 186.333 78 285l146 236c52 88.667 78 167.667 78 237c0 148.667 -51.667 223 -155 223c-78.667 0 -134.667 -16.167 -168 -48.5
s-58.333 -88.5 -75 -168.5c-2 17.333 -3 38.666 -3 63.999c0 74.667 18.333 136 55 184c-72 25.333 -147.333 63.666 -226 114.999c64.667 -6.66699 122.667 -10 174 -10l265 11c89.333 0 158.333 -31.833 207 -95.5s73 -138.167 73 -223.5z" />
    <glyph glyph-name="uniFCDC" unicode="&#xfef3;&#xfea8;" horiz-adv-x="1500" arabic-form="initial" 
d="M1160 -318.5c0 -36.333 -18.167 -54.5 -54.5 -54.5s-54.5 18.167 -54.5 54.5s18.167 54.5 54.5 54.5s54.5 -18.167 54.5 -54.5zM1307 -318.5c0 -36.333 -18.167 -54.5 -54.5 -54.5s-54.5 18.167 -54.5 54.5s18.167 54.5 54.5 54.5s54.5 -18.167 54.5 -54.5zM863 605.5
c0 -36.333 -18.167 -54.5 -54.5 -54.5s-54.5 18.167 -54.5 54.5s18.167 54.5 54.5 54.5s54.5 -18.167 54.5 -54.5zM822 1437c0 -85.333 -25 -175.664 -75 -270.997l-148 -276c-52 -108.667 -78 -211 -78 -307c0 -142.667 47.833 -251.167 143.5 -325.5
s193.5 -111.5 293.5 -111.5h302v220c0 44 -18.333 68.333 -55 73c62 20.667 106 46 132 76s48.667 77.667 68 143v-877c-45.333 32 -76.833 62.167 -94.5 90.5s-34.5 71.166 -50.5 128.499h-1331v146h632c-125.333 111.333 -188 272 -188 482c0 91.333 26 186.333 78 285
l146 236c52 88.667 78 167.667 78 237c0 148.667 -51.667 223 -155 223c-78.667 0 -134.667 -16.167 -168 -48.5s-58.333 -88.5 -75 -168.5c-2 17.333 -3 38.666 -3 63.999c0 74.667 18.333 136 55 184c-72 25.333 -147.333 63.666 -226 114.999
c64.667 -6.66699 122.667 -10 174 -10l265 11c89.333 0 158.333 -31.833 207 -95.5s73 -138.167 73 -223.5z" />
    <glyph glyph-name="uniFCDD" unicode="&#xfef3;&#xfee4;" horiz-adv-x="892" arabic-form="initial" 
d="M354 79.5c0 21.667 -8.33105 40.332 -24.998 55.999s-36.334 23.5 -59.001 23.5s-41.834 -8.33301 -57.501 -25s-23.5 -36.167 -23.5 -58.5s8.5 -41.5 25.5 -57.5s36.333 -24 58 -24s40.667 8.83301 57 26.5s24.5 37.334 24.5 59.001zM629.002 -473.502
c0 -36.333 -18.167 -54.5 -54.5 -54.5s-54.5 18.167 -54.5 54.5s18.167 54.5 54.5 54.5s54.5 -18.167 54.5 -54.5zM776.002 -473.502c0 -36.333 -18.167 -54.5 -54.5 -54.5s-54.5 18.167 -54.5 54.5s18.167 54.5 54.5 54.5s54.5 -18.167 54.5 -54.5zM270.002 -135.002
c-78.667 0 -142.67 45.002 -192.003 135.002h-162v146h159c10.667 24 45.834 58.333 105.501 103s89.5 78.667 89.5 102c0 -12.667 30.5 -44.334 91.5 -95.001s96.167 -87.667 105.5 -111l173 1v220c0 43.333 -18.333 67.666 -55 72.999
c62 21.333 105.833 46.833 131.5 76.5s48.5 77.167 68.5 142.5v-877c-45.333 32 -76.833 62.167 -94.5 90.5s-34.5 71.166 -50.5 128.499h-176c-15.333 -35.333 -42.166 -66.666 -80.499 -93.999s-76.166 -41 -113.499 -41z" />
    <glyph glyph-name="uniFD30" unicode="&#xfeb7;&#xfee4;" horiz-adv-x="1356" arabic-form="initial" 
d="M354 79.5c0 21.667 -8.33105 40.332 -24.998 55.999s-36.334 23.5 -59.001 23.5s-41.834 -8.33301 -57.501 -25s-23.5 -36.167 -23.5 -58.5s8.5 -41.5 25.5 -57.5s36.333 -24 58 -24s40.667 8.83301 57 26.5s24.5 37.334 24.5 59.001zM1301 -0.00195312
l-837.003 -0.000976562c-15.333 -35.333 -42.166 -66.666 -80.499 -93.999s-76.166 -41 -113.499 -41c-78.667 0 -142.667 45 -192 135h-162v146h159c10.667 24 45.834 58.333 105.501 103s89.5 78.667 89.5 102c0.666992 -12.667 31.167 -44 91.5 -94s95.5 -87 105.5 -111
h176v220c0 48.667 -24.333 73 -73 73c104.667 32 177.667 80.667 219 146v-439h110v293c0 48.667 -24.333 73 -73 73c116 33.333 189 82 219 146v-512h110v366c0 48.667 -24.333 73 -73 73c110 34 183 82.667 219 146v-731zM879.999 786.497
c0 -36.333 -18.167 -54.5 -54.5 -54.5s-54.5 18.167 -54.5 54.5s18.167 54.5 54.5 54.5s54.5 -18.167 54.5 -54.5zM1027 786.497c0 -36.333 -18.167 -54.5 -54.5 -54.5s-54.5 18.167 -54.5 54.5s18.167 54.5 54.5 54.5s54.5 -18.167 54.5 -54.5zM953.999 930.497
c0 -36.333 -18.167 -54.5 -54.5 -54.5s-54.5 18.167 -54.5 54.5s18.167 54.5 54.5 54.5s54.5 -18.167 54.5 -54.5z" />
    <glyph glyph-name="uniFD88" unicode="&#xfedf;&#xfee4;&#xfea4;" horiz-adv-x="2140" arabic-form="initial" 
d="M1464 79.5c0 21.667 -8.33105 40.332 -24.998 55.999s-36.334 23.5 -59.001 23.5s-41.834 -8.33301 -57.501 -25s-23.5 -36.167 -23.5 -58.5s8.5 -41.5 25.5 -57.5s36.333 -24 58 -24s40.667 8.83301 57 26.5s24.5 37.334 24.5 59.001zM822.002 1426
c0 -78 -24.999 -164.498 -74.999 -259.498l-148 -275.5c-52 -109.333 -78 -212 -78 -308c0 -142.667 47.833 -251.167 143.5 -325.5s193.5 -111.5 293.5 -111.5h227c10.667 24.667 45.834 59.334 105.501 104.001s89.5 78.334 89.5 101.001
c0.666992 -12.667 31.167 -44.167 91.5 -94.5s95.5 -87.5 105.5 -111.5l313 -3v1321c0 49.333 -24.667 73.666 -74 72.999c64.667 16 110.667 39.167 138 69.5s54.333 80.166 81 149.499v-1974c-47.333 22.667 -80.333 50 -99 82s-34 77.667 -46 137h-316
c-16 -35.333 -43 -66.666 -81 -93.999s-75.667 -41 -113 -41c-78.667 0 -142.667 45 -192 135h-1259v146h632c-125.333 111.333 -188 272 -188 482c0 91.333 26 186.333 78 285l146 236c52 88.667 78 167.667 78 237c0 148.667 -51.667 223 -155 223
c-78.667 0 -134.667 -16.333 -168 -49s-58.333 -88.667 -75 -168c-2 17.333 -3 38.666 -3 63.999c0 74.667 18.333 136 55 184c-72 25.333 -147.333 63.666 -226 114.999c64.667 -6.66699 122.667 -10 174 -10l265 11c63.333 0 118.666 -17.833 165.999 -53.5
s78.166 -84.834 92.499 -147.501s21.5 -105.667 21.5 -129z" />
    <glyph glyph-name="uniFDF2" unicode="&#xfedf;&#xfee0;&#xfeea;" horiz-adv-x="1432" arabic-form="isolated" 
d="M365 146v109c-72.667 0 -109 -36.333 -109 -109h109zM110 0v146.002c0 78.667 24.333 137.667 73 177c34 28 94.667 54.333 182 79v293c0 48 -24 72 -72 72c74 0 125.5 17.167 154.5 51.5s50.5 90.833 64.5 169.5v-842h248v1057c0 48.667 -24.667 73 -74 73
c64.667 16 110.667 39.167 138 69.5s54.333 80.166 81 149.499v-1349h265v1317c0 48.667 -24.667 73 -74 73c64.667 16 110.667 39.167 138 69.5s54.333 80.166 81 149.499v-1974c-47.333 23.333 -80.333 50.833 -99 82.5s-34 77.167 -46 136.5h-1060z" />
    <glyph glyph-name="uniFEF5" unicode="&#xfedf;&#xfe82;" horiz-adv-x="711" arabic-form="isolated" 
d="M432 0c0 -123.333 -24.667 -196.335 -74 -219.002c-26 9.33301 -44.833 38.333 -56.5 87s-17.167 92.667 -16.5 132h-205c13.333 8 24.5 40.833 33.5 98.5s20.5 101.5 34.5 131.5c24.667 54.667 65 92.667 121 114l91 21c35.333 10 53 29 53 57
c0 42 -13.333 74.333 -40 97c34.667 22.667 81.667 40.667 141 54c28.667 -41.333 43 -91.166 43 -149.499s-21.5 -107 -64.5 -146s-94.167 -58.5 -153.5 -58.5s-89 -24.333 -89 -73h214c0 15.333 -5.66699 31.166 -17 47.499s-24.333 24.5 -39 24.5
c46.667 10.667 88 39.334 124 86.001c33.333 -33.333 53.5 -86.666 60.5 -159.999s21.167 -121.333 42.5 -144h-203zM156 1501c0 19.333 -5.99707 38.665 -17.9971 57.998c-14.667 10.667 -32.667 16 -54 16c73.333 0 124.666 17 153.999 51s50.666 89 63.999 165
c-28 -24 -49.333 -36 -64 -36c-92.667 0 -160.334 -12 -203.001 -36c57.333 82 112.666 123 165.999 123l58 -3c41.333 0 83 11.333 125 34c-31.333 -35.333 -58.333 -62.666 -81 -81.999v-1087c14 -1.33301 33.333 -5.66602 58 -12.999
c-53.333 -16 -104.666 -52.333 -153.999 -109l-51 5v914zM632.003 1575c-48 0 -72 -24.668 -72 -74.001v-914c-54 0 -111 -14.833 -171 -44.5s-89 -68.167 -87 -115.5c1.33301 -23.333 12 -41.333 32 -54c-65.333 -6 -113.333 -28 -144 -66c-22.667 38.667 -34 77 -34 115
c0 114 85.667 208 257 282v1090c9.33301 -77.333 29.333 -133.166 60 -167.499s83.667 -51.5 159 -51.5z" />
    <glyph glyph-name="uniFEF6" unicode="&#xfee0;&#xfe82;" horiz-adv-x="660" arabic-form="final" 
d="M685 0l-283 -0.000976562c0 -123.333 -24.667 -196.333 -74 -219c-26 9.33301 -44.833 38.333 -56.5 87s-17.167 92.667 -16.5 132h-205c13.333 8 24.5 40.833 33.5 98.5s20.5 101.5 34.5 131.5c24.667 54.667 65 92.667 121 114l91 21c35.333 10 53 29 53 57
c0 42 -13.333 74.333 -40 97c34.667 22.667 81.667 40.667 141 54c28.667 -41.333 43 -91.166 43 -149.499s-21.5 -107 -64.5 -146s-94.167 -58.5 -153.5 -58.5s-89 -24.333 -89 -73h214c0 15.333 -5.66699 31.166 -17 47.499s-24.333 24.5 -39 24.5
c46.667 10.667 88 39.334 124 86.001c33.333 -33.333 53.333 -86 60 -158h123v-146zM126 1501c0 19.333 -6.00098 38.666 -18.001 57.999c-14.667 10.667 -32.667 16 -54 16c96 0 158 33 186 99l33 117v-1087c14 -1.33301 33.333 -5.66602 58 -12.999
c-53.333 -16 -104.666 -52.333 -153.999 -109l-51 5v914zM600.999 1575c-47.333 0 -71.001 -24.668 -71.001 -74.001v-914c-54 0 -111 -14.833 -171 -44.5s-89 -68.167 -87 -115.5c1.33301 -23.333 12 -41.333 32 -54c-65.333 -6 -113.333 -28 -144 -66
c-22.667 38.667 -34 77 -34 115c0 114 85.667 208 257 282v1090c9.33301 -77.333 29.333 -133.166 60 -167.499s83.334 -51.5 158.001 -51.5zM207.998 1755c-92.667 0 -160.332 -12 -202.999 -36c57.333 82 112.666 123 165.999 123l58 -3c41.333 0 83 11.333 125 34
c-70 -78.667 -118.667 -118 -146 -118z" />
    <glyph glyph-name="uniFEF7" unicode="&#xfedf;&#xfe84;" horiz-adv-x="711" arabic-form="isolated" 
d="M432 0c0 -123.333 -24.667 -196.335 -74 -219.002c-26 9.33301 -44.833 38.333 -56.5 87s-17.167 92.667 -16.5 132h-205c13.333 8 24.5 40.833 33.5 98.5s20.5 101.5 34.5 131.5c24.667 54.667 65 92.667 121 114l91 21c35.333 10 53 29 53 57
c0 42 -13.333 74.333 -40 97c34.667 22.667 81.667 40.667 141 54c28.667 -41.333 43 -91.166 43 -149.499s-21.5 -107 -64.5 -146s-94.167 -58.5 -153.5 -58.5s-89 -24.333 -89 -73h214c0 15.333 -5.66699 31.166 -17 47.499s-24.333 24.5 -39 24.5
c46.667 10.667 88 39.334 124 86.001c33.333 -33.333 53.5 -86.666 60.5 -159.999s21.167 -121.333 42.5 -144h-203zM156 1501c0 19.333 -6.00098 38.667 -18.001 58c-14.667 10.667 -32.667 16 -54 16c73.333 0 124.833 17.167 154.5 51.5s51.167 90.166 64.5 167.499
v-1090c14 -1.33301 33.333 -5.66602 58 -12.999c-53.333 -16 -104.666 -52.333 -153.999 -109l-51 5v914zM631.999 1575c-48 0 -72 -24.668 -72 -74.001v-914c-54 0 -111 -14.833 -171 -44.5s-89 -68.167 -87 -115.5c1.33301 -23.333 12 -41.333 32 -54
c-65.333 -6 -113.333 -28 -144 -66c-22.667 38.667 -34 77 -34 115c0 114 85.667 208 257 282v1090c9.33301 -77.333 29.333 -133.166 60 -167.499s83.667 -51.5 159 -51.5zM90.999 1893c0 -12 5.66699 -23.666 17 -34.999l90 -2l44 -92h-307l49 92h38l-11 26
c6 23.333 20.833 45.5 44.5 66.5s47.167 31.5 70.5 31.5l9 -7l-1 -9c-28.667 -20.667 -43 -44.334 -43 -71.001z" />
    <glyph glyph-name="uniFEF8" unicode="&#xfee0;&#xfe84;" horiz-adv-x="660" arabic-form="final" 
d="M685 0l-283 -0.000976562c0 -123.333 -24.667 -196.333 -74 -219c-26 9.33301 -44.833 38.333 -56.5 87s-17.167 92.667 -16.5 132h-205c13.333 8 24.5 40.833 33.5 98.5s20.5 101.5 34.5 131.5c24.667 54.667 65 92.667 121 114l91 21c35.333 10 53 29 53 57
c0 42 -13.333 74.333 -40 97c34.667 22.667 81.667 40.667 141 54c28.667 -41.333 43 -91.166 43 -149.499s-21.5 -107 -64.5 -146s-94.167 -58.5 -153.5 -58.5s-89 -24.333 -89 -73h214c0 15.333 -5.66699 31.166 -17 47.499s-24.333 24.5 -39 24.5
c46.667 10.667 88 39.334 124 86.001c33.333 -33.333 53.333 -86 60 -158h123v-146zM126 1501c0 19.333 -6.00098 38.666 -18.001 57.999c-14.667 10.667 -32.667 16 -54 16c96 0 158 33 186 99l33 117v-1087c14 -1.33301 33.333 -5.66602 58 -12.999
c-53.333 -16 -104.666 -52.333 -153.999 -109l-51 5v914zM600.999 1575c-47.333 0 -71.001 -24.668 -71.001 -74.001v-914c-54 0 -111 -14.833 -171 -44.5s-89 -68.167 -87 -115.5c1.33301 -23.333 12 -41.333 32 -54c-65.333 -6 -113.333 -28 -144 -66
c-22.667 38.667 -34 77 -34 115c0 114 85.667 208 257 282v1090c9.33301 -77.333 29.333 -133.166 60 -167.499s83.334 -51.5 158.001 -51.5zM42.998 1893c0 -12 5.66699 -23.666 17 -34.999l90 -2l44 -92h-307l49 92h38l-11 26c6 23.333 20.833 45.5 44.5 66.5
s47.167 31.5 70.5 31.5l9 -7l-1 -9c-28.667 -20.667 -43 -44.334 -43 -71.001z" />
    <glyph glyph-name="uniFEF9" unicode="&#xfedf;&#xfe88;" horiz-adv-x="711" arabic-form="isolated" 
d="M98 -166c0 -12 5.66699 -23.666 17 -34.999l90 -2l44 -92h-307l49 92h38l-11 26c6 23.333 20.833 45.5 44.5 66.5s47.167 31.5 70.5 31.5l9 -7l-1 -9c-28.667 -20.667 -43 -44.334 -43 -71.001zM432 0.000976562c0 -123.333 -24.667 -196.335 -74 -219.002
c-26 9.33301 -44.833 38.333 -56.5 87s-17.167 92.667 -16.5 132h-205c13.333 8 24.5 40.833 33.5 98.5s20.5 101.5 34.5 131.5c24.667 54.667 65 92.667 121 114l91 21c35.333 10 53 29 53 57c0 42 -13.333 74.333 -40 97c34.667 22.667 81.667 40.667 141 54
c28.667 -41.333 43 -91.166 43 -149.499s-21.5 -107 -64.5 -146s-94.167 -58.5 -153.5 -58.5s-89 -24.333 -89 -73h214c0 15.333 -5.66699 31.166 -17 47.499s-24.333 24.5 -39 24.5c46.667 10.667 88 39.334 124 86.001c33.333 -33.333 53.5 -86.666 60.5 -159.999
s21.167 -121.333 42.5 -144h-203zM156 1501c0 19.333 -6.00098 38.667 -18.001 58c-14.667 10.667 -32.667 16 -54 16c73.333 0 124.833 17.167 154.5 51.5s51.167 90.166 64.5 167.499v-1090c14 -1.33301 33.333 -5.66602 58 -12.999
c-53.333 -16 -104.666 -52.333 -153.999 -109l-51 5v914zM631.999 1575c-48 0 -72 -24.668 -72 -74.001v-914c-54 0 -111 -14.833 -171 -44.5s-89 -68.167 -87 -115.5c1.33301 -23.333 12 -41.333 32 -54c-65.333 -6 -113.333 -28 -144 -66c-22.667 38.667 -34 77 -34 115
c0 114 85.667 208 257 282v1090c9.33301 -77.333 29.333 -133.166 60 -167.499s83.667 -51.5 159 -51.5z" />
    <glyph glyph-name="uniFEFA" unicode="&#xfee0;&#xfe88;" horiz-adv-x="660" arabic-form="final" 
d="M104 -173c0 -12 5.66699 -23.666 17 -34.999l90 -2l44 -92h-307l49 92h38l-11 26c6 23.333 20.833 45.5 44.5 66.5s47.167 31.5 70.5 31.5l9 -7l-1 -9c-28.667 -20.667 -43 -44.334 -43 -71.001zM685 0.000976562l-283 -0.000976562
c0 -123.333 -24.667 -196.333 -74 -219c-26 9.33301 -44.833 38.333 -56.5 87s-17.167 92.667 -16.5 132h-205c13.333 8 24.5 40.833 33.5 98.5s20.5 101.5 34.5 131.5c24.667 54.667 65 92.667 121 114l91 21c35.333 10 53 29 53 57c0 42 -13.333 74.333 -40 97
c34.667 22.667 81.667 40.667 141 54c28.667 -41.333 43 -91.166 43 -149.499s-21.5 -107 -64.5 -146s-94.167 -58.5 -153.5 -58.5s-89 -24.333 -89 -73h214c0 15.333 -5.66699 31.166 -17 47.499s-24.333 24.5 -39 24.5c46.667 10.667 88 39.334 124 86.001
c33.333 -33.333 53.333 -86 60 -158h123v-146zM126 1501c0 19.333 -6.00098 38.666 -18.001 57.999c-14.667 10.667 -32.667 16 -54 16c96 0 158 33 186 99l33 117v-1087c14 -1.33301 33.333 -5.66602 58 -12.999c-53.333 -16 -104.666 -52.333 -153.999 -109l-51 5v914z
M600.999 1575c-47.333 0 -71.001 -24.668 -71.001 -74.001v-914c-54 0 -111 -14.833 -171 -44.5s-89 -68.167 -87 -115.5c1.33301 -23.333 12 -41.333 32 -54c-65.333 -6 -113.333 -28 -144 -66c-22.667 38.667 -34 77 -34 115c0 114 85.667 208 257 282v1090
c9.33301 -77.333 29.333 -133.166 60 -167.499s83.334 -51.5 158.001 -51.5z" />
    <glyph glyph-name="uniFEFB" unicode="&#xfedf;&#xfe8e;" horiz-adv-x="711" arabic-form="isolated" 
d="M432 0c0 -123.333 -24.667 -196.335 -74 -219.002c-26 9.33301 -44.833 38.333 -56.5 87s-17.167 92.667 -16.5 132h-205c13.333 8 24.5 40.833 33.5 98.5s20.5 101.5 34.5 131.5c24.667 54.667 65 92.667 121 114l91 21c35.333 10 53 29 53 57
c0 42 -13.333 74.333 -40 97c34.667 22.667 81.667 40.667 141 54c28.667 -41.333 43 -91.166 43 -149.499s-21.5 -107 -64.5 -146s-94.167 -58.5 -153.5 -58.5s-89 -24.333 -89 -73h214c0 15.333 -5.66699 31.166 -17 47.499s-24.333 24.5 -39 24.5
c46.667 10.667 88 39.334 124 86.001c33.333 -33.333 53.5 -86.666 60.5 -159.999s21.167 -121.333 42.5 -144h-203zM156 1501c0 19.333 -6.00098 38.667 -18.001 58c-14.667 10.667 -32.667 16 -54 16c73.333 0 124.833 17.167 154.5 51.5s51.167 90.166 64.5 167.499
v-1090c14 -1.33301 33.333 -5.66602 58 -12.999c-53.333 -16 -104.666 -52.333 -153.999 -109l-51 5v914zM631.999 1575c-48 0 -72 -24.668 -72 -74.001v-914c-54 0 -111 -14.833 -171 -44.5s-89 -68.167 -87 -115.5c1.33301 -23.333 12 -41.333 32 -54
c-65.333 -6 -113.333 -28 -144 -66c-22.667 38.667 -34 77 -34 115c0 114 85.667 208 257 282v1090c9.33301 -77.333 29.333 -133.166 60 -167.499s83.667 -51.5 159 -51.5z" />
    <glyph glyph-name="uniFEFC" unicode="&#xfee0;&#xfe8e;" horiz-adv-x="660" arabic-form="final" 
d="M685 0l-283 -0.000976562c0 -123.333 -24.667 -196.333 -74 -219c-26 9.33301 -44.833 38.333 -56.5 87s-17.167 92.667 -16.5 132h-205c13.333 8 24.5 40.833 33.5 98.5s20.5 101.5 34.5 131.5c24.667 54.667 65 92.667 121 114l91 21c35.333 10 53 29 53 57
c0 42 -13.333 74.333 -40 97c34.667 22.667 81.667 40.667 141 54c28.667 -41.333 43 -91.166 43 -149.499s-21.5 -107 -64.5 -146s-94.167 -58.5 -153.5 -58.5s-89 -24.333 -89 -73h214c0 15.333 -5.66699 31.166 -17 47.499s-24.333 24.5 -39 24.5
c46.667 10.667 88 39.334 124 86.001c33.333 -33.333 53.333 -86 60 -158h123v-146zM126 1501c0 19.333 -6.00098 38.666 -18.001 57.999c-14.667 10.667 -32.667 16 -54 16c96 0 158 33 186 99l33 117v-1087c14 -1.33301 33.333 -5.66602 58 -12.999
c-53.333 -16 -104.666 -52.333 -153.999 -109l-51 5v914zM600.999 1575c-47.333 0 -71.001 -24.668 -71.001 -74.001v-914c-54 0 -111 -14.833 -171 -44.5s-89 -68.167 -87 -115.5c1.33301 -23.333 12 -41.333 32 -54c-65.333 -6 -113.333 -28 -144 -66
c-22.667 38.667 -34 77 -34 115c0 114 85.667 208 257 282v1090c9.33301 -77.333 29.333 -133.166 60 -167.499s83.334 -51.5 158.001 -51.5z" />
    <glyph glyph-name="uniFB50" unicode="&#x671;" horiz-adv-x="548" arabic-form="isolated" 
d="M463 1877.5c0 18.333 -11.167 27.501 -33.5 27.501s-41 -5.83301 -56 -17.5s-22.5 -26.167 -22.5 -43.5h24c32.667 0 50.667 0.333008 54 1c22.667 3.33301 34 14.166 34 32.499zM329 1536c-49.333 0 -74.002 -24.335 -74.002 -73.002v-1317c49.333 16.667 74 41 74 73
c0 -77.333 16.333 -130.166 49 -158.499s89.334 -48.5 170.001 -60.5h-293c-10 -84.667 -58.333 -157.667 -145 -219v1974c10 -75.333 30.833 -130.666 62.5 -165.999s83.834 -53 156.501 -53zM542.998 1875c0 -82.667 -48.002 -124 -144.002 -124h-130
c-42.667 0 -74 -10 -94 -30l-10 13c26 66 68 102.667 126 110c0 38.667 14.333 68.5 43 89.5s58.834 31.5 90.501 31.5s59.334 -9 83.001 -27s35.5 -39 35.5 -63z" />
    <glyph glyph-name="uniFB51" unicode="&#x671;" horiz-adv-x="356" arabic-form="final" 
d="M463 1877.5c0 18.333 -11.167 27.501 -33.5 27.501s-41 -5.83301 -56 -17.5s-22.5 -26.167 -22.5 -43.5h24c32.667 0 50.667 0.333008 54 1c22.667 3.33301 34 14.166 34 32.499zM366 0.000976562l-111.001 -0.000976562c-2 -93.333 -20 -157.333 -54 -192
c-18 -18 -48.333 -27 -91 -27v1974c10 -75.333 30.833 -130.666 62.5 -165.999s83.834 -53 156.501 -53c-49.333 0 -74 -24.333 -74 -73v-1317h111v-146zM542.999 1875c0 -82.667 -48.002 -124 -144.002 -124h-130c-42.667 0 -74 -10 -94 -30l-10 13
c26 66 68 102.667 126 110c0 38.667 14.333 68.5 43 89.5s58.834 31.5 90.501 31.5s59.334 -9 83.001 -27s35.5 -39 35.5 -63z" />
    <glyph glyph-name="uniFB56" unicode="&#x67e;" horiz-adv-x="1424" arabic-form="isolated" 
d="M219 146h951.001v240c0 31.333 -18.333 47 -55 47c60.667 21.333 104.5 47.166 131.5 77.499s50.5 77.5 70.5 141.5v-871c-51.333 26.667 -84.833 53.334 -100.5 80.001s-31.167 73 -46.5 139h-1175c47.333 20 80.333 46 99 78s36 79 52 141
c17.333 -48.667 41.666 -73 72.999 -73zM688.001 -164.5c0 -36.333 -18.167 -54.5 -54.5 -54.5s-54.5 18.167 -54.5 54.5s18.167 54.5 54.5 54.5s54.5 -18.167 54.5 -54.5zM835.001 -164.5c0 -36.333 -18.167 -54.5 -54.5 -54.5s-54.5 18.167 -54.5 54.5
s18.167 54.5 54.5 54.5s54.5 -18.167 54.5 -54.5zM761.001 -298.5c0 -36.333 -18.167 -54.5 -54.5 -54.5s-54.5 18.167 -54.5 54.5s18.167 54.5 54.5 54.5s54.5 -18.167 54.5 -54.5z" />
    <glyph glyph-name="uniFB57" unicode="&#x67e;" horiz-adv-x="1220" arabic-form="final" 
d="M579 -164c-0.666992 -36 -19 -54.333 -55 -55c-36 0.666992 -54 19 -54 55s18 54 54 54s54.333 -18 55 -54zM726 -164c0 -36 -18 -54.333 -54 -55c-36 0.666992 -54.333 19 -55 55c0.666992 36 19 54 55 54s54 -18 54 -54zM652 -298c0 -36 -18 -54.333 -54 -55
c-36 0.666992 -54.333 19 -55 55c0.666992 36 19 54 55 54s54 -18 54 -54zM1243 0l-1248 -0.000976562c49.333 22 83.333 48.333 102 79s35 77.334 49 140.001c17.333 -48.667 41.666 -73 72.999 -73h805l1 246c0 19.333 -18.667 35 -56 47c60 20.667 104.5 47 133.5 79
s51.5 78.667 67.5 140v-512h73v-146z" />
    <glyph glyph-name="uniFB58" unicode="&#x67e;" horiz-adv-x="348" arabic-form="initial" 
d="M-10 -164.5c0 -36.333 -18.167 -54.5 -54.5 -54.5s-54.5 18.167 -54.5 54.5s18.167 54.5 54.5 54.5s54.5 -18.167 54.5 -54.5zM138 -164.5c0 -36.333 -18.167 -54.5 -54.5 -54.5s-54.5 18.167 -54.5 54.5s18.167 54.5 54.5 54.5s54.5 -18.167 54.5 -54.5zM64 -298.5
c0 -36.333 -18.167 -54.5 -54.5 -54.5s-54.5 18.167 -54.5 54.5s18.167 54.5 54.5 54.5s54.5 -18.167 54.5 -54.5zM-36 0v146.002h146v220c0 43.333 -18.333 67.666 -55 72.999c62 20.667 106 46 132 76s48.667 77.667 68 143v-877c-45.333 32 -76.833 62.167 -94.5 90.5
s-34.5 71.166 -50.5 128.499h-146z" />
    <glyph glyph-name="uniFB59" unicode="&#x67e;" horiz-adv-x="276" arabic-form="medial" 
d="M40 -110c36.667 0 55 -18.167 55 -54.5s-18.333 -54.5 -55 -54.5s-55 18.167 -55 54.5s18.333 54.5 55 54.5zM242 -164.5c0 -36.333 -18.167 -54.5 -54.5 -54.5s-54.5 18.167 -54.5 54.5s18.167 54.5 54.5 54.5s54.5 -18.167 54.5 -54.5zM168 -298.5
c0 -36.333 -18.167 -54.5 -54.5 -54.5s-54.5 18.167 -54.5 54.5s18.167 54.5 54.5 54.5s54.5 -18.167 54.5 -54.5zM282 0l-355 0.000976562v146h183v220c0 43.333 -18.333 67.666 -55 72.999c61.333 20.667 107 47.167 137 79.5s51 78.833 63 139.5v-512h27v-146z" />
    <glyph glyph-name="uniFB66" unicode="&#x679;" horiz-adv-x="1384" arabic-form="isolated" 
d="M718 814c-26 0 -57.333 -22.667 -94 -68h165c-21.333 45.333 -45 68 -71 68zM846 654h-289.001c-22.667 0 -39.667 7 -51 21l-85 101c44.667 -20 89.334 -30 134.001 -30c-5.33301 40 -14.333 100.333 -27 181l71 85c9.33301 -60 18 -125.667 26 -197
c44.667 41.333 82 62 112 62c72.667 0 109 -42.333 109 -127v-96zM218.999 146h951.001v240c0 31.333 -18.333 47 -55 47c60.667 21.333 104.5 47.166 131.5 77.499s50.5 77.5 70.5 141.5v-871c-51.333 26.667 -84.833 53.334 -100.5 80.001s-31.167 73 -46.5 139h-1175
c47.333 20 80.333 46 99 78s36 79 52 141c17.333 -48.667 41.666 -73 72.999 -73z" />
    <glyph glyph-name="uniFB67" unicode="&#x679;" horiz-adv-x="1220" arabic-form="final" 
d="M559 814c-26 0 -57.333 -22.667 -94 -68h165c-21.333 45.333 -45 68 -71 68zM687 654h-289.001c-22.667 0 -39.667 7 -51 21l-85 101c44.667 -20 89.334 -30 134.001 -30c-5.33301 40 -14.333 100.333 -27 181l71 85c9.33301 -60 18 -125.667 26 -197
c44.667 41.333 82 62 112 62c72.667 0 109 -42.333 109 -127v-96zM1243 0l-1248 -0.000976562c49.333 22 83.333 48.333 102 79s35 77.334 49 140.001c17.333 -48.667 41.666 -73 72.999 -73h805l1 246c0 19.333 -18.667 35 -56 47c60 20.667 104.5 47 133.5 79
s51.5 78.667 67.5 140v-512h73v-146z" />
    <glyph glyph-name="uniFB68" unicode="&#x679;" horiz-adv-x="348" arabic-form="initial" 
d="M226 926c-26 0 -57.333 -22.667 -94 -68h165c-21.333 45.333 -45 68 -71 68zM354 766h-289.001c-22.667 0 -40 7 -52 21l-84 101c44.667 -20 89.334 -30 134.001 -30c-5.33301 40 -14.333 100.333 -27 181l71 85c9.33301 -60 18 -125.667 26 -197
c44.667 41.333 81.667 62 111 62c73.333 0 110 -42.333 110 -127v-96zM-36.001 0v146.002h146v220c0 43.333 -18.333 67.666 -55 72.999c62 20.667 106 46 132 76s48.667 77.667 68 143v-877c-45.333 32 -76.833 62.167 -94.5 90.5s-34.5 71.166 -50.5 128.499h-146z" />
    <glyph glyph-name="uniFB69" unicode="&#x679;" horiz-adv-x="276" arabic-form="medial" 
d="M226 926c-26 0 -57.333 -22.667 -94 -68h165c-21.333 45.333 -45 68 -71 68zM354 766h-289.001c-22.667 0 -40 7 -52 21l-84 101c44.667 -20 89.334 -30 134.001 -30c-5.33301 40 -14.333 100.333 -27 181l71 85c9.33301 -60 18 -125.667 26 -197
c44.667 41.333 81.667 62 111 62c73.333 0 110 -42.333 110 -127v-96zM281.999 0l-355 0.000976562v146h183v220c0 43.333 -18.333 67.666 -55 72.999c61.333 20.667 107 47.167 137 79.5s51 78.833 63 139.5v-512h27v-146z" />
    <glyph glyph-name="uniFB7A" unicode="&#x686;" horiz-adv-x="1132" arabic-form="isolated" 
d="M996 -164.5c0 -36.333 -18.167 -54.5 -54.5 -54.5s-54.5 18.167 -54.5 54.5s18.167 54.5 54.5 54.5s54.5 -18.167 54.5 -54.5zM1143 -164.5c0 -36.333 -18.167 -54.5 -54.5 -54.5s-54.5 18.167 -54.5 54.5s18.167 54.5 54.5 54.5s54.5 -18.167 54.5 -54.5zM1069 -298.5
c0 -36.333 -18.167 -54.5 -54.5 -54.5s-54.5 18.167 -54.5 54.5s18.167 54.5 54.5 54.5s54.5 -18.167 54.5 -54.5zM730 1433c0 -82 -25.168 -171 -75.501 -267l-148.5 -281c-52 -110.667 -78 -211.334 -78 -302.001c0 -122.667 42.167 -226.167 126.5 -310.5
s187.833 -126.5 310.5 -126.5c39.333 0 64.833 3.66699 76.5 11s28.834 28 51.501 62l104 -219h-744c-20.667 0 -31 -14.667 -31 -44c0 -19.333 14.667 -29 44 -29h562c-43.333 -1.33301 -89.333 -15.666 -138 -42.999l-143.5 -91c-50.333 -32 -140.5 -48 -270.5 -48
c-54 0 -99.667 21.333 -137 64s-56 92.334 -56 149.001s17.5 102.167 52.5 136.5s78.5 51.5 130.5 51.5h102c-124 106 -186 251.667 -186 437c0 113.333 26 220.666 78 321.999l144 236c52 90.667 78 180.334 78 269.001c0 52 -13.667 98.167 -41 138.5
s-65.666 60.5 -114.999 60.5c-76.667 0 -131.834 -16.5 -165.501 -49.5s-59.5 -88.833 -77.5 -167.5c-2.66699 13.333 -4 35 -4 65s2.66699 57 8 81s21.333 58 48 102c-58.667 19.333 -134 57.666 -226 114.999c68 -6.66699 127.667 -10 179 -10l255 10
c93.333 0 164.5 -33.167 213.5 -99.5s73.5 -140.5 73.5 -222.5zM927.999 -73h12h-12z" />
    <glyph glyph-name="uniFB7B" unicode="&#x686;" horiz-adv-x="1001" arabic-form="final" 
d="M800 -280.5c0 -36.333 -18.167 -54.5 -54.5 -54.5s-54.5 18.167 -54.5 54.5s18.167 54.5 54.5 54.5s54.5 -18.167 54.5 -54.5zM947 -280.5c0 -36.333 -18.167 -54.5 -54.5 -54.5s-54.5 18.167 -54.5 54.5s18.167 54.5 54.5 54.5s54.5 -18.167 54.5 -54.5zM873 -414.5
c0 -36.333 -18.167 -54.5 -54.5 -54.5s-54.5 18.167 -54.5 54.5s18.167 54.5 54.5 54.5s54.5 -18.167 54.5 -54.5zM780 1441c0 -86.667 -26 -181.997 -78 -285.997l-146 -269c-52 -108.667 -78 -212.334 -78 -311.001c0 -136.667 44.667 -242.334 134 -317.001
s202 -112 338 -112h51v-146h-588c-33.333 0 -50 -16.667 -50 -50s16.667 -50 50 -50h588c-132 -14 -227 -42 -285 -84s-160.333 -63 -307 -63c-49.333 0 -92 18.333 -128 55s-54 80 -54 130s20.167 97.167 60.5 141.5s85.833 66.5 136.5 66.5h101
c-130.667 115.333 -196 282.333 -196 501c0 86.667 26.333 177 79 271l145 239c52.667 96 79 188.333 79 277c0 49.333 -13.833 92.5 -41.5 129.5s-65.5 55.5 -113.5 55.5c-79.333 0 -135.5 -16.167 -168.5 -48.5s-58.167 -88.833 -75.5 -169.5c0 14 -1 34.333 -3 61
c0 73.333 19 135.666 57 186.999c-85.333 34 -161 72.333 -227 115c68 -6.66699 128 -10 180 -10l271 10c83.333 0 149 -32.167 197 -96.5s72 -139.833 72 -226.5z" />
    <glyph glyph-name="uniFB7C" unicode="&#x686;" horiz-adv-x="1252" arabic-form="initial" 
d="M579 -164.5c0 -36.333 -18.167 -54.5 -54.5 -54.5s-54.5 18.167 -54.5 54.5s18.167 54.5 54.5 54.5s54.5 -18.167 54.5 -54.5zM726 -164.5c0 -36.333 -18.167 -54.5 -54.5 -54.5s-54.5 18.167 -54.5 54.5s18.167 54.5 54.5 54.5s54.5 -18.167 54.5 -54.5zM652 -298.5
c0 -36.333 -18.167 -54.5 -54.5 -54.5s-54.5 18.167 -54.5 54.5s18.167 54.5 54.5 54.5s54.5 -18.167 54.5 -54.5zM-75 0l-0.000976562 146.003h633c-124 103.333 -186 249 -186 437c0 108.667 27 217 81 325c2.66699 4.66699 53.334 87.334 152.001 248.001
c54 88.667 81 164.167 81 226.5s-17 116.666 -51 162.999s-83.167 69.5 -147.5 69.5s-112.5 -18.833 -144.5 -56.5s-55.333 -93.167 -70 -166.5c-0.666992 12 -1 30.333 -1 55c0 78 17.667 142.333 53 193c-62.667 21.333 -138 59.666 -226 114.999
c140 -12.667 234 -17.834 282 -15.501s78.667 3.5 92 3.5c122.667 0 211 -25.833 265 -77.5s81 -138.5 81 -260.5c0 -64.667 -26 -146.334 -78 -245.001l-146 -268c-52 -110.667 -78 -213.667 -78 -309c0 -126 41.333 -230.333 124 -313s187 -124 313 -124
c74.667 0 126 24.333 154 73l104 -219h-1287z" />
    <glyph glyph-name="uniFB7D" unicode="&#x686;" horiz-adv-x="988" arabic-form="medial" 
d="M538 -164.5c0 -36.333 -18.167 -54.5 -54.5 -54.5s-54.5 18.167 -54.5 54.5s18.167 54.5 54.5 54.5s54.5 -18.167 54.5 -54.5zM685 -164.5c0 -36.333 -18.167 -54.5 -54.5 -54.5s-54.5 18.167 -54.5 54.5s18.167 54.5 54.5 54.5s54.5 -18.167 54.5 -54.5zM612 -298.5
c0 -36.333 -18.167 -54.5 -54.5 -54.5s-54.5 18.167 -54.5 54.5s18.167 54.5 54.5 54.5s54.5 -18.167 54.5 -54.5zM822 1435.5c0 -84.333 -25 -174.166 -75 -269.499l-148 -276c-52 -108.667 -78 -211 -78 -307c0 -142.667 47.833 -251.167 143.5 -325.5
s193.5 -111.5 293.5 -111.5h55v-146h-1084v146h632c-125.333 111.333 -188 272 -188 482c0 92 26 186.667 78 284l146 235c52 88.667 78 168.334 78 239.001c0 148.667 -51.667 223 -155 223c-78.667 0 -134.667 -16.333 -168 -49s-58.333 -88.667 -75 -168
c-2 17.333 -3 38.666 -3 63.999c0 74.667 18.333 136 55 184c-72 25.333 -147.333 63.666 -226 114.999c64.667 -6.66699 122.667 -10 174 -10l265 11c89.333 0 158.333 -32.333 207 -97s73 -139.167 73 -223.5z" />
    <glyph glyph-name="uniFB88" unicode="&#x688;" horiz-adv-x="1236" arabic-form="isolated" 
d="M839 917c-26 0 -57.333 -22.667 -94 -68h165c-21.333 45.333 -45 68 -71 68zM967 757h-289.001c-22.667 0 -39.667 7 -51 21l-85 101c44.667 -20 89.334 -30 134.001 -30c-5.33301 40 -14.333 100.333 -27 181l71 85c9.33301 -60 18 -125.667 26 -197
c44.667 41.333 82 62 112 62c72.667 0 109 -42.333 109 -127v-96zM107.999 0l0.000976562 146.004h926v255c0 24 -12.333 36 -37 36s-37 -12 -37 -36v-181h-852l1 749c43.333 -90.667 69.333 -142.334 78 -155.001c38 -54.667 85.333 -82 142 -82c-49.333 0 -74 -24 -74 -72
v-293h557v35c0 49.333 18.167 92.166 54.5 128.499s79.666 54.5 129.999 54.5s93.333 -17.833 129 -53.5s53.5 -78.834 53.5 -129.501v-621c-51.333 26 -86.833 54.167 -106.5 84.5s-32.5 75.166 -38.5 134.499h-926z" />
    <glyph glyph-name="uniFB89" unicode="&#x688;" horiz-adv-x="1272" arabic-form="final" 
d="M839 917c-26 0 -57.333 -22.667 -94 -68h165c-21.333 45.333 -45 68 -71 68zM967 757h-289.001c-22.667 0 -39.667 7 -51 21l-85 101c44.667 -20 89.334 -30 134.001 -30c-5.33301 40 -14.333 100.333 -27 181l71 85c9.33301 -60 18 -125.667 26 -197
c44.667 41.333 82 62 112 62c72.667 0 109 -42.333 109 -127v-96zM1289 0l-1179 -0.00195312v146h960v295c0 34.667 -18.167 52 -54.5 52s-54.5 -18.333 -54.5 -55v-183h-850v733c0 4 0.666992 9.33301 2 16c16 -60 43 -114.5 81 -163.5s83.333 -73.5 136 -73.5
c-48.667 0 -73 -24 -73 -72v-293h558c0 68.667 16.667 125.834 50 171.501s81 68.5 143 68.5s112.333 -19.167 151 -57.5s58 -86.166 58 -143.499v-295h72v-146z" />
    <glyph glyph-name="uniFB8A" unicode="&#x698;" horiz-adv-x="480" arabic-form="isolated" 
d="M312 640c0 -36 -18 -54 -54 -54s-54.333 18 -55 54c0.666992 36 19 54.333 55 55c36 -0.666992 54 -19 54 -55zM459 640c-0.666992 -36 -19 -54 -55 -54s-54 18 -54 54s18 54.333 54 55c36 -0.666992 54.333 -19 55 -55zM385 786c-0.666992 -36 -19 -54.333 -55 -55
c-36 0.666992 -54 19 -54 55s18 54 54 54s54.333 -18 55 -54zM402 0c0 -62 -21.001 -114.001 -63.001 -156.001s-93.667 -63 -155 -63c-61.333 -0.666992 -109.666 20.333 -144.999 63c-36 42.667 -54 94.667 -54 156c0 -36 12 -69.333 36 -100s54.333 -46 91 -46
s69.667 14.833 99 44.5s44 63.5 44 101.5v219c0 44 -24 68.667 -72 74c117.333 34.667 190.333 83.334 219 146.001v-439z" />
    <glyph glyph-name="uniFB8B" unicode="&#x698;" horiz-adv-x="432" arabic-form="final" 
d="M312 640c0 -36 -18 -54 -54 -54s-54.333 18 -55 54c0.666992 36 19 54.333 55 55c36 -0.666992 54 -19 54 -55zM459 640c-0.666992 -36 -19 -54 -55 -54s-54 18 -54 54s18 54.333 54 55c36 -0.666992 54.333 -19 55 -55zM385 786c-0.666992 -36 -19 -54.333 -55 -55
c-36 0.666992 -54 19 -54 55s18 54 54 54s54.333 -18 55 -54zM439 0c0 -62 -21.168 -114 -63.501 -156s-93.5 -63 -153.5 -63c-60 -0.666992 -108 21 -144 65s-54.333 95.333 -55 154c0 -36 11.667 -69.333 35 -100c22.667 -30.667 53.334 -46 92.001 -46
s72.167 14 100.5 42s42.5 62.667 42.5 104v219c0 49.333 -24.667 74 -74 74c108.667 25.333 182 74 220 146v-439z" />
    <glyph glyph-name="uniFB8C" unicode="&#x691;" horiz-adv-x="480" arabic-form="isolated" 
d="M323 747c-26 0 -57.333 -22.667 -94 -68h165c-21.333 45.333 -45 68 -71 68zM451 587h-289.001c-22.667 0 -39.667 7 -51 21l-85 101c44.667 -20 89.334 -30 134.001 -30c-5.33301 40 -14.333 100.333 -27 181l71 85c9.33301 -60 18 -125.667 26 -197
c44.667 41.333 82 62 112 62c72.667 0 109 -42.333 109 -127v-96zM401.999 0c0 -62 -21 -114 -63 -156s-93.5 -63 -154.5 -63s-109.5 21.167 -145.5 63.5s-54 94.166 -54 155.499c0 -36 12 -69.333 36 -100s54.333 -46 91 -46s69.667 14.833 99 44.5s44 63.5 44 101.5v219
c0 44 -24 68.667 -72 74c117.333 34.667 190.333 83.334 219 146.001v-439z" />
    <glyph glyph-name="uniFB8D" unicode="&#x691;" horiz-adv-x="432" arabic-form="final" 
d="M323 747c-26 0 -57.333 -22.667 -94 -68h165c-21.333 45.333 -45 68 -71 68zM451 587h-289.001c-22.667 0 -39.667 7 -51 21l-85 101c44.667 -20 89.334 -30 134.001 -30c-5.33301 40 -14.333 100.333 -27 181l71 85c9.33301 -60 18 -125.667 26 -197
c44.667 41.333 82 62 112 62c72.667 0 109 -42.333 109 -127v-96zM438.999 0c0 -62 -21.165 -114.001 -63.498 -156.001s-93.5 -63 -153.5 -63s-108.167 21.833 -144.5 65.5s-54.5 94.834 -54.5 153.501c0 -36 11.667 -69.333 35 -100s54.166 -46 92.499 -46
s71.666 14 99.999 42s42.5 62.667 42.5 104v219c0 49.333 -24.667 74 -74 74c108.667 25.333 182 74 220 146v-439z" />
    <glyph glyph-name="uniFB8E" unicode="&#x6a9;" horiz-adv-x="1774" arabic-form="isolated" 
d="M219 146h1348v295c0 12.667 -6 25 -18 37s-24.333 18 -37 18c-36.667 0 -55 -18.333 -55 -55v-186h-1127l809 813l-414 413c-14.667 14.667 -30 22 -46 22s-33.667 -7.33301 -53 -22c26 56 39 109.667 39 161s-13 101 -39 149l722 -721l-666 -668h627
c0 160 67 240 201 240c56.667 0 104.834 -19.5 144.501 -58.5s59.5 -86.5 59.5 -142.5v-660c-78.667 12.667 -127.667 85.667 -147 219h-1572c47.333 20 80.333 46 99 78s36 79 52 141c17.333 -48.667 41.666 -73 72.999 -73z" />
    <glyph glyph-name="uniFB8F" unicode="&#x6a9;" horiz-adv-x="1774" arabic-form="final" 
d="M219 146l1312 -0.000976562c-6 72.667 -30.667 109 -74 109h-1127l809 813l-414 413c-14.667 14.667 -30 22 -46 22s-33.667 -7.33301 -53 -22c26 56 39 109.667 39 161s-13 101 -39 149l722 -721l-666 -668h779c74.667 0 128 -26 160 -78
c18.667 -29.333 37.667 -88.666 57 -177.999h127v-146h-1810c47.333 20 80.333 46 99 78s36 79 52 141c17.333 -48.667 41.666 -73 72.999 -73z" />
    <glyph glyph-name="uniFB90" unicode="&#x6a9;" horiz-adv-x="1592" arabic-form="initial" 
d="M-36 0l-0.000976562 146h1389v295c0 12.667 -6 25 -18 37s-24.333 18 -37 18c-36.667 0 -55 -18.333 -55 -55v-186h-1127l809 813l-414 413c-14.667 14.667 -30 22 -46 22s-33.667 -7.33301 -53 -22c26 56 39 109.667 39 161s-13 101 -39 149l722 -721l-666 -668h627
c0 160 67 240 201 240c56.667 0 104.834 -19.5 144.501 -58.5s59.5 -86.5 59.5 -142.5v-660c-78.667 12.667 -127.667 85.667 -147 219h-1389z" />
    <glyph glyph-name="uniFB91" unicode="&#x6a9;" horiz-adv-x="1592" arabic-form="medial" 
d="M1627 0l-1702 -0.000976562v146h1428c-6 72.667 -30.667 109 -74 109h-1125l807 813c-241.333 283.333 -400.666 425 -477.999 425c-8.66699 0 -20.334 -4 -35.001 -12c22.667 27.333 34 59 34 95s-15 110.333 -45 223l733 -729l-666 -668h779c74.667 0 128 -26 160 -78
c18.667 -29.333 37.667 -88.666 57 -177.999h127v-146z" />
    <glyph glyph-name="uniFB92" unicode="&#x6af;" horiz-adv-x="1774" arabic-form="isolated" 
d="M219 146h1348v295c0 12.667 -6 25 -18 37s-24.333 18 -37 18c-36.667 0 -55 -18.333 -55 -55v-186h-1127l809 813l-414 413c-14.667 14.667 -30 22 -46 22s-33.667 -7.33301 -53 -22c26 56 39 109.667 39 161s-13 101 -39 149l722 -721l-666 -668h627
c0 160 67 240 201 240c56.667 0 104.834 -19.5 144.501 -58.5s59.5 -86.5 59.5 -142.5v-660c-78.667 12.667 -127.667 85.667 -147 219h-1572c47.333 20 80.333 46 99 78s36 79 52 141c17.333 -48.667 41.666 -73 72.999 -73zM687 1050c0 16 -7.33301 33.667 -22 53
c56 -26 109.667 -39 161 -39s101 13 149 39l-721 -722l-107 108l518 515c14.667 14.667 22 30 22 46z" />
    <glyph glyph-name="uniFB93" unicode="&#x6af;" horiz-adv-x="1774" arabic-form="final" 
d="M687 1050c0 16 -7.33301 33.667 -22 53c56 -26 109.667 -39 161 -39s101 13 149 39l-721 -722l-107 108l518 515c14.667 14.667 22 30 22 46zM219 146l1312 -0.000976562c-6 72.667 -30.667 109 -74 109h-1127l809 813l-414 413c-14.667 14.667 -30 22 -46 22
s-33.667 -7.33301 -53 -22c26 56 39 109.667 39 161s-13 101 -39 149l722 -721l-666 -668h779c74.667 0 128 -26 160 -78c18.667 -29.333 37.667 -88.666 57 -177.999h127v-146h-1810c47.333 20 80.333 46 99 78s36 79 52 141c17.333 -48.667 41.666 -73 72.999 -73z" />
    <glyph glyph-name="uniFB94" unicode="&#x6af;" horiz-adv-x="1592" arabic-form="initial" 
d="M473 1050c0 16 -7.33301 33.667 -22 53c56 -26 109.667 -39 161 -39s101 13 149 39l-721 -722l-107 108l518 515c14.667 14.667 22 30 22 46zM-36 0l-0.000976562 146h1389v295c0 12.667 -6 25 -18 37s-24.333 18 -37 18c-36.667 0 -55 -18.333 -55 -55v-186h-1127
l809 813l-414 413c-14.667 14.667 -30 22 -46 22s-33.667 -7.33301 -53 -22c26 56 39 109.667 39 161s-13 101 -39 149l722 -721l-666 -668h627c0 160 67 240 201 240c56.667 0 104.834 -19.5 144.501 -58.5s59.5 -86.5 59.5 -142.5v-660
c-78.667 12.667 -127.667 85.667 -147 219h-1389z" />
    <glyph glyph-name="uniFB95" unicode="&#x6af;" horiz-adv-x="1592" arabic-form="medial" 
d="M473 1050c0 16 -7.33301 33.667 -22 53c56 -26 109.667 -39 161 -39s101 13 149 39l-721 -722l-107 108l518 515c14.667 14.667 22 30 22 46zM1627 0h-1702v146h1428c-6 72.667 -30.667 109 -74 109h-1125l807 813c-241.333 283.333 -400.666 425 -477.999 425
c-8.66699 0 -20.334 -4 -35.001 -12c22.667 27.333 34 59.166 34 95.499s-15 110.5 -45 222.5l733 -729l-666 -668h779c74.667 0 128 -26 160 -78c18.667 -29.333 37.667 -88.666 57 -177.999h127v-146z" />
    <glyph glyph-name="uniFB9E" unicode="&#x6ba;" horiz-adv-x="488" arabic-form="isolated" 
d="M439 0.5c0 -61.667 -22.668 -113.668 -68.001 -156.001s-97.833 -63.5 -157.5 -63.5s-110.167 21.333 -151.5 64s-62 89.834 -62 141.501s10.333 96.5 31 134.5l63 99c18.667 33.333 28.667 72.666 30 117.999c13.333 -15.333 20 -34.166 20 -56.499s-2 -39.833 -6 -52.5
c43.333 0 65 -16.667 65 -50c-18.667 6 -37.667 9 -57 9c-31.333 0 -57.166 -21.667 -77.499 -65s-30.5 -84.833 -30.5 -124.5s12 -74.5 36 -104.5s55.333 -45 94 -45s69.167 15.167 91.5 45.5s33.5 65.5 33.5 105.5c0 66.667 -27 114.334 -81 143.001
c31.333 9.33301 58.333 83.666 81 222.999c62 -106 95.667 -165 101 -177c30 -64 45 -126.833 45 -188.5z" />
    <glyph glyph-name="uniFB9F" unicode="&#x6ba;" horiz-adv-x="504" arabic-form="final" 
d="M512 0h-73.002c0 -56 -22.667 -106.5 -68 -151.5s-97.333 -67.5 -156 -67.5s-109.167 21.167 -151.5 63.5s-63.5 89.166 -63.5 140.499s20.833 111.833 62.5 181.5s62.167 126.834 61.5 171.501c13.333 -25.333 20 -48 20 -68s-2 -33.667 -6 -41
c20.667 0 34.334 -3 41.001 -9s14.667 -19.667 24 -41c-14 6 -34.333 9 -61 9s-52 -24 -76 -72s-35.667 -89.667 -35 -125c0 -36 12.667 -68.5 38 -97.5s56.333 -43.5 93 -43.5s67.667 16 93 48s38 66 38 102c0 62 -27 109.667 -81 143c24.667 6.66699 44.334 39 59.001 97
l22 126c6.66699 -26 27 -63.333 61 -112s55.667 -84.667 65 -108h93v-146z" />
    <glyph glyph-name="uniFBA6" unicode="&#x6c1;" horiz-adv-x="472" arabic-form="isolated" 
d="M264 136v131c-86.667 -4 -130 -47.667 -130 -131h130zM402 0h-402v146c0 72 24 130 72 174s109 71.333 183 82c18.667 2.66699 45.667 7.66699 81 15c22.667 7.33301 44.667 27 66 59v-476z" />
    <glyph glyph-name="uniFBA7" unicode="&#x6c1;" horiz-adv-x="476" arabic-form="final" 
d="M280 146v134c-89.333 0 -134 -44.667 -134 -134h134zM501 0h-501v146c0 76 27.667 141.833 83 197.5s121 83.5 197 83.5v293c0 48 -24 72 -72 72c72 0 124 18 156 54s53 91.667 63 167v-867h74v-146z" />
    <glyph glyph-name="uniFBA8" unicode="&#x6c1;" horiz-adv-x="348" arabic-form="initial" 
d="M120 -367c40.667 0 61.001 -20.832 61.001 -62.499s-21 -62.5 -63 -62.5c-32.667 0 -57.334 15 -74.001 45s-25 63 -25 99c0 80 34.667 146.333 104 199l15 -20c-52.667 -56.667 -79 -103.334 -79 -140.001s5.33301 -60.667 16 -72c20 9.33301 35 14 45 14z
M-35.999 0.000976562v146.002h146v220c0 43.333 -18.333 67.666 -55 72.999c62 20.667 106 46 132 76s48.667 77.667 68 143v-877c-45.333 32 -76.833 62.167 -94.5 90.5s-34.5 71.166 -50.5 128.499h-146z" />
    <glyph glyph-name="uniFBA9" unicode="&#x6c1;" horiz-adv-x="606" arabic-form="medial" 
d="M284 -883c40.667 0 61 -20.832 61 -62.499s-20.667 -62.5 -62 -62.5c-33.333 0 -58.333 15 -75 45s-25 63 -25 99c0 80 35 146.333 105 199l14 -20c-52.667 -56.667 -79 -103.334 -79 -140.001s5.66699 -60.667 17 -72c20 9.33301 34.667 14 44 14zM633 0.000976562
h-128.999v-436c0 -47.333 -22.833 -89.666 -68.5 -126.999s-94.334 -56 -146.001 -56s-100 18.167 -145 54.5s-67.5 79.166 -67.5 128.499v436h-107v146h252v-581c0 -24 23 -36 69 -36c12.667 0 26.667 3.5 42 10.5s23 15.5 23 25.5v581h277v-146z" />
    <glyph glyph-name="uniFBAA" unicode="&#x6be;" horiz-adv-x="1248" arabic-form="isolated" 
d="M632 28.5c0 25.667 -3.66699 44.833 -11 57.5l-100 172l-101 -172c-8 -13.333 -12 -32.833 -12 -58.5s11 -48.5 33 -68.5s48.5 -30 79.5 -30s57.333 10.167 79 30.5s32.5 43.333 32.5 69zM829 145.999l-183 318l-44 -66l146 -252h81zM447 686.999
c0 -13.333 25 -62.333 75 -147l40 68l-80 142c-23.333 -12 -35 -33 -35 -63zM520.5 -218.001c-63 0 -117.498 20.498 -163.498 61.498s-74.667 93.167 -86 156.5h-269c47.333 20 80.333 46 99 78s36 79 52 141c17.333 -48.667 41.666 -73 72.999 -73h67l147 252l-86 141
c-33.333 61.333 -50 111.666 -50 150.999c0 57.333 26.333 109.666 79 156.999c23.333 21.333 74 56 152 104l120 -207c43.333 64 65 128.833 65 194.5s-17.167 123.167 -51.5 172.5s-78.833 74 -133.5 74c-104.667 0 -181.667 -18 -231 -54c-14 -10 -70.667 -70 -170 -180
c81.333 196 183.333 318 306 366c-8.66699 24.667 -13 46.334 -13 65.001c0 44.667 21 91.5 63 140.5s67 85.167 75 108.5c-16.667 -14.667 -34.667 -22 -54 -22c-48.667 0 -73 24.333 -73 73s24.333 73 73 73c25.333 0 45.5 -10 60.5 -30s22.5 -43.667 22.5 -71
s-10.667 -66.666 -32 -117.999s-32 -91.666 -32 -120.999s34.167 -61.166 102.5 -95.499s117.5 -68.5 147.5 -102.5c58 -66 87 -158.667 87 -278c0 -82 -44.667 -193 -134 -333l265 -460h28c31.333 0 51.166 4 59.499 12s18.833 28.333 31.5 61
c15.333 -75.333 55 -148.333 119 -219h-465c-6 -61.333 -33.5 -113 -82.5 -155s-105 -63 -168 -63z" />
    <glyph glyph-name="uniFBAB" unicode="&#x6be;" horiz-adv-x="1030" arabic-form="final" 
d="M632 28.5c0 25.667 -3.66699 44.833 -11 57.5l-100 172l-101 -172c-8 -13.333 -12 -32.833 -12 -58.5s11 -48.5 33 -68.5s48.5 -30 79.5 -30s57.333 10.167 79 30.5s32.5 43.333 32.5 69zM829 145.999l-183 318l-44 -66l146 -252h81zM447 686.999
c0 -13.333 25 -62.333 75 -147l40 68l-80 142c-23.333 -12 -35 -33 -35 -63zM1056 -0.000976562l-284.999 -0.00195312c-6 -61.333 -33.5 -113 -82.5 -155s-105 -63 -168 -63s-117.5 20.5 -163.5 61.5s-74.667 93.167 -86 156.5h-269c47.333 20 80.333 46 99 78
s36 79 52 141c17.333 -48.667 41.666 -73 72.999 -73h67l147 252l-86 141c-33.333 61.333 -50 111.666 -50 150.999c0 57.333 26.333 109.666 79 156.999c23.333 21.333 74 56 152 104l120 -207c43.333 64 65 128.833 65 194.5s-17.167 123.167 -51.5 172.5
s-78.833 74 -133.5 74c-104.667 0 -181.667 -18 -231 -54c-14 -10 -70.667 -70 -170 -180c81.333 196 183.333 318 306 366c-8.66699 24.667 -13 46.334 -13 65.001c0 44.667 21 91.5 63 140.5s67 85.167 75 108.5c-16.667 -14.667 -34.667 -22 -54 -22
c-48.667 0 -73 24.333 -73 73s24.333 73 73 73c25.333 0 45.5 -10 60.5 -30s22.5 -43.667 22.5 -71s-10.667 -66.666 -32 -117.999s-32 -91.666 -32 -120.999s34.167 -61.166 102.5 -95.499s117.5 -68.5 147.5 -102.5c58 -66 87 -158.667 87 -278
c0 -82 -44.667 -193 -134 -333l265 -460h58v-146z" />
    <glyph glyph-name="uniFBAC" unicode="&#x6be;" horiz-adv-x="1048" arabic-form="initial" 
d="M425 28.5c0 25.667 -3.66699 44.833 -11 57.5l-100 172l-101 -172c-8 -13.333 -12 -32.833 -12 -58.5s11 -48.5 33 -68.5s48.5 -30 79.5 -30s57.333 10.167 79 30.5s32.5 43.333 32.5 69zM622 145.999l-183 318l-44 -66l146 -252h81zM240 686.999
c0 -13.333 25 -62.333 75 -147l40 68l-80 142c-23.333 -12 -35 -33 -35 -63zM313.5 -218.001c-63 0 -117.499 20.498 -163.499 61.498s-74.667 93.167 -86 156.5h-87v146h109l147 252l-86 141c-33.333 61.333 -50 111.666 -50 150.999c0 57.333 26.333 109.666 79 156.999
c23.333 21.333 74 56 152 104l120 -207c43.333 64 65 128.833 65 194.5s-17.167 123.167 -51.5 172.5s-78.833 74 -133.5 74c-104.667 0 -181.667 -18 -231 -54c-14 -10 -70.667 -70 -170 -180c81.333 196 183.333 318 306 366c-8.66699 24.667 -13 46.334 -13 65.001
c0 44.667 21 91.5 63 140.5s67 85.167 75 108.5c-16.667 -14.667 -34.667 -22 -54 -22c-48.667 0 -73 24.333 -73 73s24.333 73 73 73c25.333 0 45.5 -10 60.5 -30s22.5 -43.667 22.5 -71s-10.667 -66.666 -32 -117.999s-32 -91.666 -32 -120.999
s34.167 -61.166 102.5 -95.499s117.5 -68.5 147.5 -102.5c58 -66 87 -158.667 87 -278c0 -82 -44.667 -193 -134 -333l265 -460h28c31.333 0 51.166 4 59.499 12s18.833 28.333 31.5 61c15.333 -75.333 55 -148.333 119 -219h-465c-6 -61.333 -33.5 -113 -82.5 -155
s-105 -63 -168 -63z" />
    <glyph glyph-name="uniFBAD" unicode="&#x6be;" horiz-adv-x="825" arabic-form="medial" 
d="M425 28.5c0 25.667 -3.66699 44.833 -11 57.5l-100 172l-101 -172c-8 -13.333 -12 -32.833 -12 -58.5s11 -48.5 33 -68.5s48.5 -30 79.5 -30s57.333 10.167 79 30.5s32.5 43.333 32.5 69zM622 145.999l-183 318l-44 -66l146 -252h81zM240 686.999
c0 -13.333 25 -62.333 75 -147l40 68l-80 142c-23.333 -12 -35 -33 -35 -63zM313.5 -218.001c-63 0 -117.5 20.498 -163.5 61.498s-74.667 93.167 -86 156.5h-87v146h109l147 252l-86 141c-33.333 61.333 -50 111.666 -50 150.999c0 57.333 26.333 109.666 79 156.999
c23.333 21.333 74 56 152 104l120 -207c43.333 64 65 128.833 65 194.5s-17.167 123.167 -51.5 172.5s-78.833 74 -133.5 74c-104.667 0 -181.667 -18 -231 -54c-14 -10 -70.667 -70 -170 -180c81.333 196 183.333 318 306 366c-8.66699 24.667 -13 46.334 -13 65.001
c0 44.667 21 91.5 63 140.5s67 85.167 75 108.5c-16.667 -14.667 -34.667 -22 -54 -22c-48.667 0 -73 24.333 -73 73s24.333 73 73 73c25.333 0 45.5 -10 60.5 -30s22.5 -43.667 22.5 -71s-10.667 -66.666 -32 -117.999s-32 -91.666 -32 -120.999
s34.167 -61.166 102.5 -95.499s117.5 -68.5 147.5 -102.5c58 -66 87 -158.667 87 -278c0 -82 -44.667 -193 -134 -333l265 -460h58v-146h-285c-6 -61.333 -33.5 -113 -82.5 -155s-105 -63 -168 -63z" />
    <glyph glyph-name="uniFBAE" unicode="&#x6d2;" horiz-adv-x="1367" arabic-form="isolated" 
d="M1325 -495l-1030 0.000976562c-19.333 -133.333 -68.333 -206.333 -147 -219v513c0 56 19.833 103.5 59.5 142.5s87.834 58.5 144.501 58.5h341c72.667 30.667 109 86.667 109 168c32.667 -40 49 -90.667 49 -152c0 -6.66699 -3.66699 -18 -11 -34
c28.667 0 54.667 -24 78 -72s37.333 -91.333 42 -130c-30.667 30.667 -52 50.667 -64 60s-30.667 13.666 -56 12.999l-490 1c-12.667 0 -25 -6 -37 -18s-18 -24.333 -18 -37v-148h1030v-146z" />
    <glyph glyph-name="uniFBAF" unicode="&#x6d2;" horiz-adv-x="1034" arabic-form="final" 
d="M1325 -349h-1030c-19.333 -133.333 -68.333 -206.333 -147 -219v513c0 56 19.833 103.5 59.5 142.5s87.834 58.5 144.501 58.5h682v-147l-684 1c-12.667 0 -25 -6 -37 -18s-18 -24.333 -18 -37v-148h1030v-146z" />
    <glyph glyph-name="uniFBB0" unicode="&#x6d3;" horiz-adv-x="1367" arabic-form="isolated" 
d="M445 271c0 15.333 14.167 34.499 42.5 57.499s52.833 34.5 73.5 34.5l7 -16c-28 -30 -42 -52.667 -42 -68s5.33301 -28.666 16 -39.999h90l44 -93h-307l49 93h39c-8 6 -12 16.667 -12 32zM1325 -495.001h-1030c-19.333 -133.333 -68.333 -206.333 -147 -219v513
c0 56 19.833 103.5 59.5 142.5s87.834 58.5 144.501 58.5h341c72.667 30.667 109 86.667 109 168c32.667 -40 49 -90.667 49 -152c0 -6.66699 -3.66699 -18 -11 -34c28.667 0 54.667 -24.167 78 -72.5s37.333 -91.5 42 -129.5c-30.667 30.667 -52 50.5 -64 59.5
s-30.667 13.5 -56 13.5l-490 1c-12.667 0 -25 -6 -37 -18s-18 -24.333 -18 -37v-148h1030v-146z" />
    <glyph glyph-name="uniFBB1" unicode="&#x6d3;" horiz-adv-x="1034" arabic-form="final" 
d="M445 417c0 15.333 14.167 34.499 42.5 57.499s52.833 34.5 73.5 34.5l7 -16c-28 -30 -42 -52.667 -42 -68s5.33301 -28.666 16 -39.999h90l44 -93h-307l49 93h39c-8 6 -12 16.667 -12 32zM1325 -349.001h-1030c-19.333 -133.333 -68.333 -206.333 -147 -219v513
c0 56 19.833 103.5 59.5 142.5s87.834 58.5 144.501 58.5h682v-147l-684 1c-12.667 0 -25 -6 -37 -18s-18 -24.333 -18 -37v-148h1030v-146z" />
    <glyph glyph-name="uniFBE8" unicode="&#x649;" horiz-adv-x="348" arabic-form="initial" 
d="M-36 0v146.002h146v220c0 43.333 -18.333 67.666 -55 72.999c62 20.667 106 46 132 76s48.667 77.667 68 143v-877c-45.333 32 -76.833 62.167 -94.5 90.5s-34.5 71.166 -50.5 128.499h-146z" />
    <glyph glyph-name="uniFBE9" unicode="&#x649;" horiz-adv-x="276" arabic-form="medial" 
d="M282 0l-355 0.000976562v146h183v220c0 43.333 -18.333 67.666 -55 72.999c61.333 20.667 107 47.167 137 79.5s51 78.833 63 139.5v-512h27v-146z" />
    </font>
</defs>
</svg>
