<?xml version="1.0" standalone="no"?>
<!DOCTYPE svg PUBLIC "-//W3C//DTD SVG 1.1//EN" "http://www.w3.org/Graphics/SVG/1.1/DTD/svg11.dtd" >
<svg>
<metadata>
Created by FontForge 20090914 at Tue Jun 28 19:30:46 2022
 By www-data
Copyright &#194;&#169; 2012 by Emad (iSkyFalConS). All rights reserved.
</metadata>
<defs>
<font id="ZahraArabic-Regular" horiz-adv-x="708" >
  <font-face 
    font-family="ZahraArabic-Regular"
    font-weight="400"
    font-stretch="normal"
    units-per-em="2048"
    panose-1="0 0 5 0 0 0 0 0 0 0"
    ascent="1536"
    descent="-512"
    x-height="612"
    cap-height="891"
    bbox="-299.002 -460.999 1962 1434"
    underline-thickness="102"
    underline-position="-98"
    unicode-range="U+0020-U+FEFC"
  />
<missing-glyph horiz-adv-x="1024" 
d="M102 1239v-1044l349 522zM164 102h696l-348 523zM573 717l349 -522v1044zM512 809l348 522h-696zM0 0v1434h1024v-1434h-1024z" />
    <glyph glyph-name="lam_alefMaddaar" unicode="&#xfedf;&#xfe82;" horiz-adv-x="847" arabic-form="isolated" 
d="M211 231v676h127v-676h-127zM102 0v129h514v778h129v-907h-643zM385 991c-31.333 0 -64.832 14 -100.499 42s-60.167 42 -73.5 42c-27.333 0 -59.333 -26.667 -96 -80l-74 47c52 80.667 111.333 121 178 121c24.667 0 54.667 -15 90 -45s62.666 -45 81.999 -45
c35.333 0 75 36.333 119 109l72 -47c-59.333 -96 -125 -144 -197 -144z" />
    <glyph glyph-name="lam_alefMaddaar.fina" unicode="&#xfee0;&#xfe82;" horiz-adv-x="854" arabic-form="final" 
d="M211 231v676h127v-676h-127zM854 129v-129h-752v129h514v778h129v-778h109zM385 991c-31.333 0 -64.832 14 -100.499 42s-60.167 42 -73.5 42c-27.333 0 -59.333 -26.667 -96 -80l-74 47c52 80.667 111.333 121 178 121c24.667 0 54.667 -15 90 -45
s62.666 -45 81.999 -45c35.333 0 75 36.333 119 109l72 -47c-59.333 -96 -125 -144 -197 -144z" />
    <glyph glyph-name="lam_alefHamzaabovear" unicode="&#xfedf;&#xfe84;" horiz-adv-x="847" arabic-form="isolated" 
d="M211 231v676h127v-676h-127zM102 0v129h514v778h129v-907h-643zM367 1409c52 0 97.667 -19.665 137 -58.998l-53 -74c-18 20.667 -40 34.667 -66 42s-49.833 4.16602 -71.5 -9.50098s-33.167 -38.834 -34.5 -75.501c1.33301 -56 40 -88 116 -96h107v-82h-400v82h131
c-46.667 57.333 -54.5 117 -23.5 179s83.5 93 157.5 93z" />
    <glyph glyph-name="lam_alefHamzaabovear.fina" unicode="&#xfee0;&#xfe84;" horiz-adv-x="854" arabic-form="final" 
d="M211 231v676h127v-676h-127zM854 129v-129h-752v129h514v778h129v-778h109zM367 1409c52 0 97.667 -19.665 137 -58.998l-53 -74c-18 20.667 -40 34.667 -66 42s-49.833 4.16602 -71.5 -9.50098s-33.167 -38.834 -34.5 -75.501c1.33301 -56 40 -88 116 -96h107v-82h-400
v82h131c-46.667 57.333 -54.5 117 -23.5 179s83.5 93 157.5 93z" />
    <glyph glyph-name="lam_alefHamzabelowar" unicode="&#xfedf;&#xfe88;" horiz-adv-x="847" arabic-form="isolated" 
d="M367 -106c52 0 97.667 -20 137 -60l-53 -74c-18 20.667 -40 34.834 -66 42.501s-49.833 4.66699 -71.5 -9s-33.167 -39.167 -34.5 -76.5c1.33301 -56 40 -88 116 -96h107v-82h-400v82h131c-46.667 57.333 -54.5 117.166 -23.5 179.499s83.5 93.5 157.5 93.5zM211 231v676
h127v-676h-127zM102 0v129h514v778h129v-907h-643z" />
    <glyph glyph-name="lam_alefHamzabelowar.fina" unicode="&#xfee0;&#xfe88;" horiz-adv-x="854" arabic-form="final" 
d="M367 -106c52 0 97.667 -20 137 -60l-53 -74c-18 20.667 -40 34.834 -66 42.501s-49.833 4.66699 -71.5 -9s-33.167 -39.167 -34.5 -76.5c1.33301 -56 40 -88 116 -96h107v-82h-400v82h131c-46.667 57.333 -54.5 117.166 -23.5 179.499s83.5 93.5 157.5 93.5zM211 231v676
h127v-676h-127zM854 129v-129h-752v129h514v778h129v-778h109z" />
    <glyph glyph-name="lam_alefar" unicode="&#xfedf;&#xfe8e;" horiz-adv-x="847" arabic-form="isolated" 
d="M338 231h-127v676h127v-676zM745 0h-643v129h514v778h129v-907z" />
    <glyph glyph-name="lam_alefar.fina" unicode="&#xfee0;&#xfe8e;" horiz-adv-x="854" arabic-form="final" 
d="M338 231h-127v676h127v-676zM745 129h109v-129h-752v129h514v778h129v-778z" />
    <glyph glyph-name="uniFBE8" unicode="&#x649;" horiz-adv-x="471" arabic-form="initial" 
d="M369 0h-389v129h262v510h127v-639z" />
    <glyph glyph-name="uniFBE9" unicode="&#x649;" horiz-adv-x="499" arabic-form="medial" 
d="M369 129h131v-129h-520v129h262v510h127v-510z" />
    <glyph glyph-name="uniFC63" unicode="&#xfc63;" horiz-adv-x="0" arabic-form="isolated" 
d="M199 389v-47c0 -88.667 -14.667 -155.667 -44 -201c-14.667 -21.333 -37.667 -32 -69 -32s-58.666 17.667 -81.999 53c-20.667 -66.667 -56 -100 -106 -100s-82.667 37.333 -98 112c-6.66699 38 -9 64.667 -7 80c1.33301 14.667 2 25.667 2 33v8h64
c-6.66699 -113.333 7.66602 -170 42.999 -170c45.333 0 66.333 72.333 63 217h64c-2.66699 -113.333 18.333 -170 63 -170c32.667 0 47 72.333 43 217h64zM29 403h-64v183h64v-183z" />
    <glyph glyph-name="alefMaddaar.fina" unicode="&#x622;" horiz-adv-x="405" arabic-form="final" 
d="M246 129h129v-129h-256v907h127v-778zM254 991c-31.333 0 -64.832 14 -100.499 42s-60.167 42 -73.5 42c-27.333 0 -59.333 -26.667 -96 -80l-74 47c52 80.667 111.333 121 178 121c24.667 0 54.667 -15 90 -45s62.666 -45 81.999 -45c35.333 0 75 36.333 119 109l72 -47
c-59.333 -96 -125 -144 -197 -144z" />
    <glyph glyph-name="alefHamzaabovear.fina" unicode="&#x623;" horiz-adv-x="358" arabic-form="final" 
d="M358 129v-129h-256v907h127v-778h129zM231 1364c52 0 98 -19.665 138 -58.998l-54 -74c-18 20.667 -39.833 34.667 -65.5 42s-49.5 4.16602 -71.5 -9.50098s-33.667 -38.834 -35 -75.501c1.33301 -56 40.333 -88 117 -96h107v-82h-400v82h131
c-46.667 57.333 -54.5 117 -23.5 179s83.167 93 156.5 93z" />
    <glyph glyph-name="wawHamzaabovear.fina" unicode="&#x624;" horiz-adv-x="874" arabic-form="final" 
d="M446 522c-61.333 0 -110.333 -19.333 -147 -58s-55 -86 -55 -142c0 -134 87.333 -201 262 -201c27.333 0 64 2.66699 110 8c15.333 32.667 23 79 23 139s-16.833 117.333 -50.5 172s-81.167 82 -142.5 82zM496 0c-122.667 0 -219.001 29.332 -289.001 87.999
s-105 135.834 -105 231.501s28.333 174.834 85 237.501s142.334 94 257.001 94s199 -35.833 253 -107.5s81 -157.834 81 -258.501c0 -50.667 -7.33301 -102.667 -22 -156h118v-129h-149c-44 -108 -116.333 -221.333 -217 -340l-109 88c79.333 82 141 167.333 185 256
c-20.667 -2.66699 -50 -4 -88 -4zM366.999 1092c52 0 97.667 -20 137 -60l-53 -74c-18 20.667 -40 34.834 -66 42.501s-49.833 4.66699 -71.5 -9s-33.167 -39.167 -34.5 -76.5c1.33301 -56 40 -88 116 -96h107v-82h-400v82h131c-46.667 57.333 -54.5 117.166 -23.5 179.499
s83.5 93.5 157.5 93.5z" />
    <glyph glyph-name="alefhamzabelowar.fina" unicode="&#x625;" horiz-adv-x="358" arabic-form="final" 
d="M231 -106c52 0 98 -20 138 -60l-54 -74c-18 20.667 -39.833 34.834 -65.5 42.501s-49.5 4.66699 -71.5 -9s-33.667 -39.167 -35 -76.5c1.33301 -56 40.333 -88 117 -96h107v-82h-400v82h131c-46.667 57.333 -54.5 117.166 -23.5 179.499s83.167 93.5 156.5 93.5zM358 129
v-129h-256v907h127v-778h129z" />
    <glyph glyph-name="yehHamzaabovear.fina" unicode="&#x626;" horiz-adv-x="1392" arabic-form="final" 
d="M229 319.5c0 -47.667 18.8311 -91.333 56.498 -131s81.834 -59.5 132.501 -59.5h389v262c0 65.333 24.5 123 73.5 173s106.5 75 172.5 75h209v-510h131v-129h-258v512h-82c-28.667 0 -55.667 -12.333 -81 -37s-38 -52.667 -38 -84v-391h-516
c-90 0 -165.167 31.667 -225.5 95s-90.5 139.5 -90.5 228.5s26.333 162.833 79 221.5s121.334 91.334 206.001 98.001v-127c-44 -8 -81.333 -30.833 -112 -68.5s-46 -80.334 -46 -128.001zM366.998 1092c52 0 97.667 -20 137 -60l-53 -74c-18 20.667 -40 34.834 -66 42.501
s-49.833 4.66699 -71.5 -9s-33.167 -39.167 -34.5 -76.5c1.33301 -56 40 -88 116 -96h107v-82h-400v82h131c-46.667 57.333 -54.5 117.166 -23.5 179.499s83.5 93.5 157.5 93.5z" />
    <glyph glyph-name="yehHamzaabovear.init" unicode="&#x626;" horiz-adv-x="471" arabic-form="initial" 
d="M-20 0v129h262v510h127v-639h-389zM297 1092c52 0 97.667 -20 137 -60l-53 -74c-18 20.667 -40 34.834 -66 42.501s-49.833 4.66699 -71.5 -9s-33.167 -39.167 -34.5 -76.5c1.33301 -56 40.333 -88 117 -96h106v-82h-399v82h131
c-46.667 57.333 -54.667 117.166 -24 179.499s83 93.5 157 93.5z" />
    <glyph glyph-name="yehHamzaabovear.medi" unicode="&#x626;" horiz-adv-x="499" arabic-form="medial" 
d="M500 129v-129h-520v129h262v510h127v-510h131zM340 1092c52 0 97.667 -20 137 -60l-53 -74c-18 20.667 -40 34.834 -66 42.501s-49.833 4.66699 -71.5 -9s-33.167 -39.167 -34.5 -76.5c1.33301 -56 40.333 -88 117 -96h106v-82h-399v82h131
c-46.667 57.333 -54.667 117.166 -24 179.499s83 93.5 157 93.5z" />
    <glyph glyph-name="alefar.fina" unicode="&#x627;" horiz-adv-x="358" arabic-form="final" 
d="M229 129h129v-129h-256v907h127v-778z" />
    <glyph glyph-name="behar.fina" unicode="&#x628;" horiz-adv-x="1370" arabic-form="final" 
d="M749 -102c20 0 36.668 -7.16699 50.001 -21.5s20 -31.5 20 -51.5s-6.83301 -36.833 -20.5 -50.5s-30.334 -20.5 -50.001 -20.5s-36.667 6.83301 -51 20.5s-21.5 30.5 -21.5 50.5s7.16699 37.167 21.5 51.5s31.5 21.5 51.5 21.5zM229.001 318.5
c0 -48.333 18.167 -92 54.5 -131s81.166 -58.5 134.499 -58.5h717v510h127v-510h108v-129h-952c-91.333 0 -166.833 31.667 -226.5 95s-89.5 139.833 -89.5 229.5s26.333 163.5 79 221.5s121.334 90.333 206.001 97v-127c-45.333 -8 -83 -30.833 -113 -68.5
s-45 -80.667 -45 -129z" />
    <glyph glyph-name="behar.init" unicode="&#x628;" horiz-adv-x="471" arabic-form="initial" 
d="M308 -102c20 0 36.833 -7.16699 50.5 -21.5s20.5 -31.5 20.5 -51.5s-6.83301 -36.833 -20.5 -50.5s-30.5 -20.5 -50.5 -20.5s-37 6.83301 -51 20.5s-21 30.5 -21 50.5s7 37.167 21 51.5s31 21.5 51 21.5zM369 0h-389v129h262v510h127v-639z" />
    <glyph glyph-name="behar.medi" unicode="&#x628;" horiz-adv-x="499" arabic-form="medial" 
d="M308 -102c20 0 36.833 -7.16699 50.5 -21.5s20.5 -31.5 20.5 -51.5s-6.83301 -36.833 -20.5 -50.5s-30.5 -20.5 -50.5 -20.5s-37 6.83301 -51 20.5s-21 30.5 -21 50.5s7 37.167 21 51.5s31 21.5 51 21.5zM369 129h131v-129h-520v129h262v510h127v-510z" />
    <glyph glyph-name="tehmarbutaar.fina" unicode="&#x629;" horiz-adv-x="872" arabic-form="final" 
d="M637 129v386.999c-116 8 -210.5 -25.167 -283.5 -99.5s-110.833 -170.166 -113.5 -287.499h397zM102 95.999c0 144.667 46.168 273.333 138.501 386s207.5 169 345.5 169c61.333 0 120.666 -13 177.999 -39v-483h108v-129h-766c-2.66699 44 -4 76 -4 96zM560.001 880.998
c20 0 36.833 -7.16699 50.5 -21.5s20.5 -31.5 20.5 -51.5s-6.83301 -36.833 -20.5 -50.5s-30.5 -20.5 -50.5 -20.5s-37.167 6.83301 -51.5 20.5s-21.5 30.5 -21.5 50.5s7.16699 37.167 21.5 51.5s31.5 21.5 51.5 21.5zM376.001 880.998c20 0 36.667 -7.16699 50 -21.5
s20 -31.5 20 -51.5s-6.66699 -36.833 -20 -50.5s-30 -20.5 -50 -20.5s-37.167 6.83301 -51.5 20.5s-21.5 30.5 -21.5 50.5s7.16699 37.167 21.5 51.5s31.5 21.5 51.5 21.5z" />
    <glyph glyph-name="tehar.fina" unicode="&#x62a;" horiz-adv-x="1370" arabic-form="final" 
d="M229 318.5c0 -48.333 18.167 -92 54.5 -131s81.166 -58.5 134.499 -58.5h717v510h127v-510h108v-129h-952c-91.333 0 -166.833 31.667 -226.5 95s-89.5 139.833 -89.5 229.5s26.333 163.5 79 221.5s121.334 90.333 206.001 97v-127c-45.333 -8 -83 -30.833 -113 -68.5
s-45 -80.667 -45 -129zM820 655c20 0 36.833 -7.16602 50.5 -21.499s20.5 -31.333 20.5 -51s-6.83301 -36.334 -20.5 -50.001s-30.5 -20.5 -50.5 -20.5s-37 6.83301 -51 20.5s-21 30.5 -21 50.5s7 37 21 51s31 21 51 21zM636 655.001c20 0 36.833 -7.16602 50.5 -21.499
s20.5 -31.333 20.5 -51s-6.83301 -36.334 -20.5 -50.001s-30.5 -20.5 -50.5 -20.5s-37.167 6.83301 -51.5 20.5s-21.5 30.5 -21.5 50.5s7.16699 37 21.5 51s31.5 21 51.5 21z" />
    <glyph glyph-name="tehar.init" unicode="&#x62a;" horiz-adv-x="471" arabic-form="initial" 
d="M369 0h-389v129h262v510h127v-639zM361 922c20 0 36.833 -7.16699 50.5 -21.5s20.5 -31.5 20.5 -51.5s-6.83301 -36.833 -20.5 -50.5s-30.5 -20.5 -50.5 -20.5s-37 6.83301 -51 20.5s-21 30.5 -21 50.5s7 37.167 21 51.5s31 21.5 51 21.5zM177 922
c20 0 36.833 -7.16699 50.5 -21.5s20.5 -31.5 20.5 -51.5s-6.83301 -36.833 -20.5 -50.5s-30.5 -20.5 -50.5 -20.5s-37.167 6.83301 -51.5 20.5s-21.5 30.5 -21.5 50.5s7.16699 37.167 21.5 51.5s31.5 21.5 51.5 21.5z" />
    <glyph glyph-name="tehar.medi" unicode="&#x62a;" horiz-adv-x="499" arabic-form="medial" 
d="M369 129h131v-129h-520v129h262v510h127v-510zM404 922c20 0 36.833 -7.16699 50.5 -21.5s20.5 -31.5 20.5 -51.5s-6.83301 -36.833 -20.5 -50.5s-30.5 -20.5 -50.5 -20.5s-37 6.83301 -51 20.5s-21 30.5 -21 50.5s7 37.167 21 51.5s31 21.5 51 21.5zM220 922
c20 0 36.833 -7.16699 50.5 -21.5s20.5 -31.5 20.5 -51.5s-6.83301 -36.833 -20.5 -50.5s-30.5 -20.5 -50.5 -20.5s-37.167 6.83301 -51.5 20.5s-21.5 30.5 -21.5 50.5s7.16699 37.167 21.5 51.5s31.5 21.5 51.5 21.5z" />
    <glyph glyph-name="thehar.fina" unicode="&#x62b;" horiz-adv-x="1370" arabic-form="final" 
d="M229 318.5c0 -48.333 18.167 -92 54.5 -131s81.166 -58.5 134.499 -58.5h717v510h127v-510h108v-129h-952c-91.333 0 -166.833 31.667 -226.5 95s-89.5 139.833 -89.5 229.5s26.333 163.5 79 221.5s121.334 90.333 206.001 97v-127c-45.333 -8 -83 -30.833 -113 -68.5
s-45 -80.667 -45 -129zM824 655c20 0 36.833 -7.16602 50.5 -21.499s20.5 -31.333 20.5 -51s-6.83301 -36.334 -20.5 -50.001s-30.5 -20.5 -50.5 -20.5s-37 6.83301 -51 20.5s-21 30.5 -21 50.5s7 37 21 51s31 21 51 21zM640 655.001c20 0 36.833 -7.16602 50.5 -21.499
s20.5 -31.333 20.5 -51s-6.83301 -36.334 -20.5 -50.001s-30.5 -20.5 -50.5 -20.5s-37.167 6.83301 -51.5 20.5s-21.5 30.5 -21.5 50.5s7.16699 37 21.5 51s31.5 21 51.5 21zM732 799.002c20 0 36.833 -7.16699 50.5 -21.5s20.5 -31.5 20.5 -51.5
s-6.83301 -36.833 -20.5 -50.5s-30.5 -20.5 -50.5 -20.5s-37.167 6.83301 -51.5 20.5s-21.5 30.5 -21.5 50.5s7.16699 37.167 21.5 51.5s31.5 21.5 51.5 21.5z" />
    <glyph glyph-name="thehar.init" unicode="&#x62b;" horiz-adv-x="471" arabic-form="initial" 
d="M369 0h-389v129h262v510h127v-639zM398 881c20 0 36.833 -7.16699 50.5 -21.5s20.5 -31.5 20.5 -51.5s-6.83301 -36.833 -20.5 -50.5s-30.5 -20.5 -50.5 -20.5s-37 6.83301 -51 20.5s-21 30.5 -21 50.5s7 37.167 21 51.5s31 21.5 51 21.5zM214 881
c20 0 36.833 -7.16699 50.5 -21.5s20.5 -31.5 20.5 -51.5s-6.83301 -36.833 -20.5 -50.5s-30.5 -20.5 -50.5 -20.5s-37.167 6.83301 -51.5 20.5s-21.5 30.5 -21.5 50.5s7.16699 37.167 21.5 51.5s31.5 21.5 51.5 21.5zM306 1024c20 0 36.833 -7.16797 50.5 -21.501
s20.5 -31.5 20.5 -51.5s-6.83301 -36.667 -20.5 -50s-30.5 -20 -50.5 -20s-37.167 6.83301 -51.5 20.5s-21.5 30.334 -21.5 50.001s7.16699 36.667 21.5 51s31.5 21.5 51.5 21.5z" />
    <glyph glyph-name="thehar.medi" unicode="&#x62b;" horiz-adv-x="499" arabic-form="medial" 
d="M369 129h131v-129h-520v129h262v510h127v-510zM398 881c20 0 36.833 -7.16699 50.5 -21.5s20.5 -31.5 20.5 -51.5s-6.83301 -36.833 -20.5 -50.5s-30.5 -20.5 -50.5 -20.5s-37 6.83301 -51 20.5s-21 30.5 -21 50.5s7 37.167 21 51.5s31 21.5 51 21.5zM214 881
c20 0 36.833 -7.16699 50.5 -21.5s20.5 -31.5 20.5 -51.5s-6.83301 -36.833 -20.5 -50.5s-30.5 -20.5 -50.5 -20.5s-37.167 6.83301 -51.5 20.5s-21.5 30.5 -21.5 50.5s7.16699 37.167 21.5 51.5s31.5 21.5 51.5 21.5zM306 1024c20 0 36.833 -7.16797 50.5 -21.501
s20.5 -31.5 20.5 -51.5s-6.83301 -36.667 -20.5 -50s-30.5 -20 -50.5 -20s-37.167 6.83301 -51.5 20.5s-21.5 30.334 -21.5 50.001s7.16699 36.667 21.5 51s31.5 21.5 51.5 21.5z" />
    <glyph glyph-name="jeemar.fina" unicode="&#x62c;" horiz-adv-x="1134" arabic-form="final" 
d="M564 -182c20 0 36.833 -7.16699 50.5 -21.5s20.5 -31.5 20.5 -51.5s-6.83301 -36.833 -20.5 -50.5s-30.5 -20.5 -50.5 -20.5s-37 6.83301 -51 20.5s-21 30.5 -21 50.5s7 37.167 21 51.5s31 21.5 51 21.5zM532 684c122.667 0 229.333 -45.668 320 -137.001
c112 -112 170 -251.333 174 -418h109v-129h-646c-168.667 0 -253 -62 -253 -186c0 -57.333 15 -104.666 45 -141.999h-154c-16.667 49.333 -25 99.333 -25 150c0 106.667 31 183.667 93 231c62.667 50.667 148.667 76 258 76h440c0 124 -43.667 233.333 -131 328
c-66.667 66.667 -140.167 100 -220.5 100s-154.5 -22.667 -222.5 -68l-73 103c90 61.333 185.333 92 286 92z" />
    <glyph glyph-name="jeemar.init" unicode="&#x62c;" horiz-adv-x="1101" arabic-form="initial" 
d="M542 -182c20 0 36.668 -7.16699 50.001 -21.5s20 -31.5 20 -51.5s-6.83301 -36.833 -20.5 -50.5s-30.334 -20.5 -50.001 -20.5s-36.667 6.83301 -51 20.5s-21.5 30.5 -21.5 50.5s7.16699 37.167 21.5 51.5s31.5 21.5 51.5 21.5zM514.001 684
c110.667 0 214.501 -48.5 311.501 -145.5s152.833 -223.833 167.5 -380.5c4 -56 6 -108.667 6 -158h-1019v129h890c-13.333 139.333 -56.5 245.5 -129.5 318.5s-149.833 109.5 -230.5 109.5s-154.334 -22.667 -221.001 -68l-78 103c91.333 61.333 192.333 92 303 92z" />
    <glyph glyph-name="jeemar.medi" unicode="&#x62c;" horiz-adv-x="1101" arabic-form="medial" 
d="M542 -182c20 0 36.668 -7.16699 50.001 -21.5s20 -31.5 20 -51.5s-6.83301 -36.833 -20.5 -50.5s-30.334 -20.5 -50.001 -20.5s-36.667 6.83301 -51 20.5s-21.5 30.5 -21.5 50.5s7.16699 37.167 21.5 51.5s31.5 21.5 51.5 21.5zM498.001 684
c122.667 0 229.667 -45.667 321 -137c106.667 -110.667 165.334 -250 176.001 -418h107v-129h-1122v129h890c-13.333 139.333 -56.5 245.5 -129.5 318.5s-149.833 109.5 -230.5 109.5s-154.334 -22.667 -221.001 -68l-78 103c91.333 61.333 187 92 287 92z" />
    <glyph glyph-name="hahar.fina" unicode="&#x62d;" horiz-adv-x="1134" arabic-form="final" 
d="M532 684c122.667 0 229.333 -45.668 320 -137.001c112 -112 170 -251.333 174 -418h109v-129h-646c-168.667 0 -253 -62 -253 -186c0 -57.333 15 -104.666 45 -141.999h-154c-16.667 49.333 -25 99.333 -25 150c0 106.667 31 183.667 93 231
c62.667 50.667 148.667 76 258 76h440c0 124 -43.667 233.333 -131 328c-66.667 66.667 -140.167 100 -220.5 100s-154.5 -22.667 -222.5 -68l-73 103c90 61.333 185.333 92 286 92z" />
    <glyph glyph-name="hahar.init" unicode="&#x62d;" horiz-adv-x="1101" arabic-form="initial" 
d="M514 684c110.667 0 214.501 -48.5 311.501 -145.5s152.833 -223.833 167.5 -380.5c4 -56 6 -108.667 6 -158h-1019v129h890c-13.333 139.333 -56.5 245.5 -129.5 318.5s-149.833 109.5 -230.5 109.5s-154.334 -22.667 -221.001 -68l-78 103
c91.333 61.333 192.333 92 303 92z" />
    <glyph glyph-name="hahar.medi" unicode="&#x62d;" horiz-adv-x="1101" arabic-form="medial" 
d="M498 684c122.667 0 229.667 -45.667 321 -137c106.667 -110.667 165.334 -250 176.001 -418h107v-129h-1122v129h890c-13.333 139.333 -56.5 245.5 -129.5 318.5s-149.833 109.5 -230.5 109.5s-154.334 -22.667 -221.001 -68l-78 103c91.333 61.333 187 92 287 92z" />
    <glyph glyph-name="khahar.fina" unicode="&#x62e;" horiz-adv-x="1134" arabic-form="final" 
d="M532 684c122.667 0 229.333 -45.668 320 -137.001c112 -112 170 -251.333 174 -418h109v-129h-646c-168.667 0 -253 -62 -253 -186c0 -57.333 15 -104.666 45 -141.999h-154c-16.667 49.333 -25 99.333 -25 150c0 106.667 31 183.667 93 231
c62.667 50.667 148.667 76 258 76h440c0 124 -43.667 233.333 -131 328c-66.667 66.667 -140.167 100 -220.5 100s-154.5 -22.667 -222.5 -68l-73 103c90 61.333 185.333 92 286 92zM545.999 921.999c20 0 36.668 -7.16699 50.001 -21.5s20 -31.5 20 -51.5
s-6.83301 -36.833 -20.5 -50.5s-30.334 -20.5 -50.001 -20.5s-36.667 6.83301 -51 20.5s-21.5 30.5 -21.5 50.5s7.16699 37.167 21.5 51.5s31.5 21.5 51.5 21.5z" />
    <glyph glyph-name="khahar.init" unicode="&#x62e;" horiz-adv-x="1101" arabic-form="initial" 
d="M514 684c110.667 0 214.501 -48.5 311.501 -145.5s152.833 -223.833 167.5 -380.5c4 -56 6 -108.667 6 -158h-1019v129h890c-13.333 139.333 -56.5 245.5 -129.5 318.5s-149.833 109.5 -230.5 109.5s-154.334 -22.667 -221.001 -68l-78 103
c91.333 61.333 192.333 92 303 92zM515.001 922c20 0 36.833 -7.16699 50.5 -21.5s20.5 -31.5 20.5 -51.5s-6.83301 -36.833 -20.5 -50.5s-30.5 -20.5 -50.5 -20.5s-37.167 6.83301 -51.5 20.5s-21.5 30.5 -21.5 50.5s7.16699 37.167 21.5 51.5s31.5 21.5 51.5 21.5z" />
    <glyph glyph-name="khahar.medi" unicode="&#x62e;" horiz-adv-x="1101" arabic-form="medial" 
d="M498 684c122.667 0 229.667 -45.667 321 -137c106.667 -110.667 165.334 -250 176.001 -418h107v-129h-1122v129h890c-13.333 139.333 -56.5 245.5 -129.5 318.5s-149.833 109.5 -230.5 109.5s-154.334 -22.667 -221.001 -68l-78 103c91.333 61.333 187 92 287 92z
M515 922c20 0 36.833 -7.16699 50.5 -21.5s20.5 -31.5 20.5 -51.5s-6.83301 -36.833 -20.5 -50.5s-30.5 -20.5 -50.5 -20.5s-37.167 6.83301 -51.5 20.5s-21.5 30.5 -21.5 50.5s7.16699 37.167 21.5 51.5s31.5 21.5 51.5 21.5z" />
    <glyph glyph-name="dalar.fina" unicode="&#x62f;" horiz-adv-x="897" arabic-form="final" 
d="M897 129l0.00195312 -129h-795v129h557c-4 132.667 -39.333 232 -106 298s-149.334 99 -248.001 99c-50.667 0 -102.334 -7.33301 -155.001 -22v123c61.333 20.667 121.333 30.667 180 30c121.333 0 224 -44 308 -132s135 -220 153 -396h106z" />
    <glyph glyph-name="thalar.fina" unicode="&#x630;" horiz-adv-x="897" arabic-form="final" 
d="M897 129l0.00195312 -129h-795v129h557c-4 132.667 -39.333 232 -106 298s-149.334 99 -248.001 99c-50.667 0 -102.334 -7.33301 -155.001 -22v123c61.333 20.667 121.333 30.667 180 30c121.333 0 224 -44 308 -132s135 -220 153 -396h106zM292.002 922
c20 0 36.667 -7.16699 50 -21.5s20 -31.5 20 -51.5s-6.66699 -36.833 -20 -50.5s-30 -20.5 -50 -20.5s-37.167 6.83301 -51.5 20.5s-21.5 30.5 -21.5 50.5s7.16699 37.167 21.5 51.5s31.5 21.5 51.5 21.5z" />
    <glyph glyph-name="rehar.fina" unicode="&#x631;" horiz-adv-x="462" arabic-form="final" 
d="M463 129l0.00292969 -129.001h-146c-50.667 -135.333 -119.334 -248.666 -206.001 -339.999l-111 84c117.333 142 188.666 290.5 213.999 445.5s4.66602 304.833 -62.001 449.5h149c65.333 -173.333 81 -343.333 47 -510h115z" />
    <glyph glyph-name="zainar.fina" unicode="&#x632;" horiz-adv-x="462" arabic-form="final" 
d="M463 129l0.00292969 -129.001h-146c-50.667 -135.333 -119.334 -248.666 -206.001 -339.999l-111 84c117.333 142 188.666 290.5 213.999 445.5s4.66602 304.833 -62.001 449.5h149c65.333 -173.333 81 -343.333 47 -510h115zM175.003 880.999
c20 0 36.833 -7.16699 50.5 -21.5s20.5 -31.5 20.5 -51.5s-6.83301 -36.833 -20.5 -50.5s-30.5 -20.5 -50.5 -20.5s-37.167 6.83301 -51.5 20.5s-21.5 30.5 -21.5 50.5s7.16699 37.167 21.5 51.5s31.5 21.5 51.5 21.5z" />
    <glyph glyph-name="seenar.fina" unicode="&#x633;" horiz-adv-x="1814" arabic-form="final" 
d="M1706 279c0 -35.333 9.83496 -66.8311 29.502 -94.498s46.167 -44.834 79.5 -51.501v-133c-35.333 0 -64 5.83301 -86 17.5s-50 33.167 -84 64.5c-54.667 -70.667 -125 -106.334 -211 -107.001c-66.667 0 -134.334 31 -203.001 93c-50.667 -61.333 -117 -92.333 -199 -93
c-45.333 0 -89.666 12.333 -132.999 37c-10.667 -104 -54.334 -192 -131.001 -264c-76 -72 -170 -108 -282 -108s-204 39.833 -276 119.5s-108 174.167 -108 283.5c0 157.333 68.333 276 205 356l68 -116c-94 -60 -141.333 -143.333 -142 -250
c0 -68 24.667 -128.333 74 -181c50 -52.667 113 -79 189 -79s141 27.667 195 83s81 118.333 81 189v592h129v-385c0 -38 12.667 -70.333 38 -97s56.666 -40 93.999 -40s69.333 13.333 96 40s40 59 40 97v385h127v-385c0 -35.333 14 -67 42 -95s59.833 -42 95.5 -42
s67.5 13.333 95.5 40s42 59 42 97v385h135v-358z" />
    <glyph glyph-name="seenar.init" unicode="&#x633;" horiz-adv-x="1232" arabic-form="initial" 
d="M1130 242c0 -70.667 -26.499 -132.5 -79.499 -185.5s-115.833 -79.5 -188.5 -79.5s-138.667 31.667 -198 95c-50.667 -62.667 -113.334 -94 -188.001 -94s-138.334 25 -191.001 75c-34 -35.333 -71 -53 -111 -53h-194v129h219v510h133v-385c0 -38 13 -70.333 39 -97
s57.333 -40 94 -40s68.334 13.333 95.001 40s40 59 40 97v385h129v-385c0 -35.333 14 -67 42 -95s60 -42 96 -42s67.833 13.333 95.5 40s41.5 59 41.5 97v385h126v-397z" />
    <glyph glyph-name="seenar.medi" unicode="&#x633;" horiz-adv-x="1239" arabic-form="medial" 
d="M1130 129h108.999v-129h-88c-26 0 -58.667 17.667 -98 53c-57.333 -50.667 -121.666 -76 -192.999 -76s-136.666 31.667 -195.999 95c-50.667 -62.667 -113.334 -94 -188.001 -94s-138.334 25 -191.001 75c-34 -35.333 -71 -53 -111 -53h-194v129h219v510h133v-385
c0 -38 13 -70.333 39 -97s57.333 -40 94 -40s68.334 13.333 95.001 40s40 59 40 97v385h129v-385c0 -35.333 14 -67 42 -95s60 -42 96 -42s67.833 13.333 95.5 40s41.5 59 41.5 97v385h126v-510z" />
    <glyph glyph-name="sheenar.fina" unicode="&#x634;" horiz-adv-x="1814" arabic-form="final" 
d="M1706 279c0 -35.333 9.83691 -66.8311 29.5039 -94.498s46.167 -44.834 79.5 -51.501v-133c-35.333 0 -64 5.83301 -86 17.5s-50 33.167 -84 64.5c-54.667 -70.667 -125 -106.334 -211 -107.001c-66.667 0 -134.334 31 -203.001 93
c-50.667 -61.333 -117 -92.333 -199 -93c-45.333 0 -89.666 12.333 -132.999 37c-10.667 -104 -54.334 -192 -131.001 -264s-170.834 -108 -282.501 -108s-203.5 39.833 -275.5 119.5s-108 174.167 -108 283.5c0 157.333 68.333 276 205 356l68 -116
c-94 -60 -141.333 -143.333 -142 -250c0 -68 24.667 -128.333 74 -181s112.166 -79 188.499 -79s141.5 27.667 195.5 83s81 118.333 81 189v592h129v-385c0 -38 12.667 -70.333 38 -97s56.666 -40 93.999 -40s69.333 13.333 96 40s40 59 40 97v385h127v-385
c0 -35.333 14 -67 42 -95s59.833 -42 95.5 -42s67.5 13.333 95.5 40s42 59 42 97v385h135v-358zM1326 881.002c20 0 36.833 -7.16699 50.5 -21.5s20.5 -31.5 20.5 -51.5s-6.83301 -36.833 -20.5 -50.5s-30.5 -20.5 -50.5 -20.5s-37.167 6.83301 -51.5 20.5
s-21.5 30.5 -21.5 50.5s7.16699 37.167 21.5 51.5s31.5 21.5 51.5 21.5zM1142 881.002c20 0 36.668 -7.16699 50.001 -21.5s20 -31.5 20 -51.5s-6.83301 -36.833 -20.5 -50.5s-30.334 -20.5 -50.001 -20.5s-36.667 6.83301 -51 20.5s-21.5 30.5 -21.5 50.5
s7.16699 37.167 21.5 51.5s31.5 21.5 51.5 21.5zM1234 1024c20 0 36.833 -7.16797 50.5 -21.501s20.5 -31.5 20.5 -51.5s-6.83301 -36.667 -20.5 -50s-30.5 -20 -50.5 -20s-37.167 6.83301 -51.5 20.5s-21.5 30.334 -21.5 50.001s7.16699 36.667 21.5 51
s31.5 21.5 51.5 21.5z" />
    <glyph glyph-name="sheenar.init" unicode="&#x634;" horiz-adv-x="1232" arabic-form="initial" 
d="M1130 242c0 -70.667 -26.501 -132.501 -79.501 -185.501s-115.833 -79.5 -188.5 -79.5s-138.667 31.667 -198 95c-50.667 -62.667 -113.5 -94.167 -188.5 -94.5s-138.5 24.834 -190.5 75.501c-34 -35.333 -71 -53 -111 -53h-194v129h219v510h133v-385
c0 -38 13 -70.333 39 -97s57.333 -40 94 -40s68.334 13.333 95.001 40s40 59 40 97v385h129v-385c0 -35.333 14 -67 42 -95s60 -42 96 -42s67.833 13.333 95.5 40s41.5 59 41.5 97v385h126v-397zM756.999 880.999c20 0 36.668 -7.16699 50.001 -21.5s20 -31.5 20 -51.5
s-6.83301 -36.833 -20.5 -50.5s-30.334 -20.5 -50.001 -20.5s-36.667 6.83301 -51 20.5s-21.5 30.5 -21.5 50.5s7.16699 37.167 21.5 51.5s31.5 21.5 51.5 21.5zM572 880.999c20 0 36.833 -7.16699 50.5 -21.5s20.5 -31.5 20.5 -51.5s-6.83301 -36.833 -20.5 -50.5
s-30.5 -20.5 -50.5 -20.5s-37 6.83301 -51 20.5s-21 30.5 -21 50.5s7 37.167 21 51.5s31 21.5 51 21.5zM665 1024c20 0 36.668 -7.16797 50.001 -21.501s20 -31.5 20 -51.5s-6.83301 -36.667 -20.5 -50s-30.334 -20 -50.001 -20s-36.667 6.83301 -51 20.5
s-21.5 30.334 -21.5 50.001s7.16699 36.667 21.5 51s31.5 21.5 51.5 21.5z" />
    <glyph glyph-name="sheenar.medi" unicode="&#x634;" horiz-adv-x="1239" arabic-form="medial" 
d="M1239 129l-0.00292969 -129.001h-88c-26 0 -58.667 17.667 -98 53c-57.333 -50.667 -121.666 -76 -192.999 -76s-136.666 31.667 -195.999 95c-50.667 -62.667 -113.5 -94.167 -188.5 -94.5s-138.5 24.834 -190.5 75.501c-34 -35.333 -71 -53 -111 -53h-194v129h219v510
h133v-385c0 -38 13 -70.333 39 -97s57.333 -40 94 -40s68.334 13.333 95.001 40s40 59 40 97v385h129v-385c0 -35.333 14 -67 42 -95s60 -42 96 -42s67.833 13.333 95.5 40s41.5 59 41.5 97v385h126v-510h109zM756.997 880.999c20 0 36.668 -7.16699 50.001 -21.5
s20 -31.5 20 -51.5s-6.83301 -36.833 -20.5 -50.5s-30.334 -20.5 -50.001 -20.5s-36.667 6.83301 -51 20.5s-21.5 30.5 -21.5 50.5s7.16699 37.167 21.5 51.5s31.5 21.5 51.5 21.5zM571.998 880.999c20 0 36.833 -7.16699 50.5 -21.5s20.5 -31.5 20.5 -51.5
s-6.83301 -36.833 -20.5 -50.5s-30.5 -20.5 -50.5 -20.5s-37 6.83301 -51 20.5s-21 30.5 -21 50.5s7 37.167 21 51.5s31 21.5 51 21.5zM664.998 1024c20 0 36.668 -7.16797 50.001 -21.501s20 -31.5 20 -51.5s-6.83301 -36.667 -20.5 -50s-30.334 -20 -50.001 -20
s-36.667 6.83301 -51 20.5s-21.5 30.334 -21.5 50.001s7.16699 36.667 21.5 51s31.5 21.5 51.5 21.5z" />
    <glyph glyph-name="sadar.fina" unicode="&#x635;" horiz-adv-x="1961" arabic-form="final" 
d="M1341.5 530c-103.667 0 -192.33 -40.833 -265.997 -122.5s-105.834 -174.5 -96.501 -278.5h731c9.33301 105.333 -23.834 198.5 -99.501 279.5s-165.334 121.5 -269.001 121.5zM373.004 283c-96 -56.667 -143.999 -145.001 -143.999 -265.001
c0 -58.667 24.667 -113.5 74 -164.5s112.5 -76.5 189.5 -76.5s142.833 26.667 197.5 80s82 116 82 188v594h119v-279c45.333 88.667 106.166 160.334 182.499 215.001s165.5 82 267.5 82c144.667 0 265.5 -51.5 362.5 -154.5s146.833 -227.5 149.5 -373.5h109v-129h-1071
v-29c-19.333 -92.667 -66.5 -170.667 -141.5 -234s-160.167 -95 -255.5 -95c-118.667 0 -213.667 39.833 -285 119.5s-107 174.167 -107 283.5c0 157.333 68.333 276 205 356z" />
    <glyph glyph-name="sadar.init" unicode="&#x635;" horiz-adv-x="1359" arabic-form="initial" 
d="M748.5 530c-103 0 -191.666 -40.833 -265.999 -122.5s-106.833 -174.5 -97.5 -278.5h731c9.33301 105.333 -23.834 198.5 -99.501 279.5s-165 121.5 -268 121.5zM758.001 655c100 0 186.333 -22.5 259 -67.5s125.667 -102.167 159 -171.5
c66.667 -138 92.334 -276.667 77.001 -416h-1273v129h219v502h127v-215c61.333 80.667 123.666 140.667 186.999 180s145 59 245 59z" />
    <glyph glyph-name="sadar.medi" unicode="&#x635;" horiz-adv-x="1368" arabic-form="medial" 
d="M747.5 530c-103.667 0 -192.667 -40.833 -267 -122.5s-106.833 -174.5 -97.5 -278.5h731c9.33301 105.333 -23.5 198.5 -98.5 279.5s-164.333 121.5 -268 121.5zM748 657c144.667 0 265.333 -51.5 362 -154.5s146.667 -227.5 150 -373.5h108v-129h-1388v129h217v502h127
v-215c64 82 126.667 142.667 188 182s140 59 236 59z" />
    <glyph glyph-name="dadar.fina" unicode="&#x636;" horiz-adv-x="1961" arabic-form="final" 
d="M1341.5 530c-103.667 0 -192.33 -40.833 -265.997 -122.5s-105.834 -174.5 -96.501 -278.5h731c9.33301 105.333 -23.834 198.5 -99.501 279.5s-165.334 121.5 -269.001 121.5zM373.004 283c-96 -56.667 -143.999 -145.001 -143.999 -265.001
c0 -58.667 24.667 -113.5 74 -164.5s112.5 -76.5 189.5 -76.5s142.833 26.667 197.5 80s82 116 82 188v594h119v-279c45.333 88.667 106.166 160.334 182.499 215.001s165.5 82 267.5 82c144.667 0 265.5 -51.5 362.5 -154.5s146.833 -227.5 149.5 -373.5h109v-129h-1071
v-29c-19.333 -92.667 -66.5 -170.667 -141.5 -234s-160.167 -95 -255.5 -95c-118.667 0 -213.667 39.833 -285 119.5s-107 174.167 -107 283.5c0 157.333 68.333 276 205 356zM1357 880.999c20 0 36.668 -7.16699 50.001 -21.5s20 -31.5 20 -51.5
s-6.83301 -36.833 -20.5 -50.5s-30.334 -20.5 -50.001 -20.5s-36.667 6.83301 -51 20.5s-21.5 30.5 -21.5 50.5s7.16699 37.167 21.5 51.5s31.5 21.5 51.5 21.5z" />
    <glyph glyph-name="dadar.init" unicode="&#x636;" horiz-adv-x="1359" arabic-form="initial" 
d="M748.5 530c-103 0 -191.666 -40.833 -265.999 -122.5s-106.833 -174.5 -97.5 -278.5h731c9.33301 105.333 -23.834 198.5 -99.501 279.5s-165 121.5 -268 121.5zM758.001 655c100 0 186.333 -22.5 259 -67.5s125.667 -102.167 159 -171.5
c66.667 -138 92.334 -276.667 77.001 -416h-1273v129h219v502h127v-215c61.333 80.667 123.666 140.667 186.999 180s145 59 245 59zM759.001 881c20 0 36.668 -7.16699 50.001 -21.5s20 -31.5 20 -51.5s-6.83301 -36.833 -20.5 -50.5s-30.334 -20.5 -50.001 -20.5
s-36.667 6.83301 -51 20.5s-21.5 30.5 -21.5 50.5s7.16699 37.167 21.5 51.5s31.5 21.5 51.5 21.5z" />
    <glyph glyph-name="dadar.medi" unicode="&#x636;" horiz-adv-x="1368" arabic-form="medial" 
d="M747.5 530c-103.667 0 -192.667 -40.833 -267 -122.5s-106.833 -174.5 -97.5 -278.5h731c9.33301 105.333 -23.5 198.5 -98.5 279.5s-164.333 121.5 -268 121.5zM748 657c144.667 0 265.333 -51.5 362 -154.5s146.667 -227.5 150 -373.5h108v-129h-1388v129h217v502h127
v-215c64 82 126.667 142.667 188 182s140 59 236 59zM758.999 881c20 0 36.668 -7.16699 50.001 -21.5s20 -31.5 20 -51.5s-6.83301 -36.833 -20.5 -50.5s-30.334 -20.5 -50.001 -20.5s-36.667 6.83301 -51 20.5s-21.5 30.5 -21.5 50.5s7.16699 37.167 21.5 51.5
s31.5 21.5 51.5 21.5z" />
    <glyph glyph-name="tahar.fina" unicode="&#x637;" horiz-adv-x="1439" arabic-form="final" 
d="M817.5 528c-103.667 0 -192.167 -40.5 -265.5 -121.5s-105 -173.5 -95 -277.5h731c9.33301 104 -24.167 196.5 -100.5 277.5s-166.333 121.5 -270 121.5zM817 655h7.99902c147.333 0 267.833 -50.167 361.5 -150.5s141.834 -225.5 144.501 -375.5h109v-129h-1338v129h217
v778h130v-424c87.333 114.667 210 172 368 172z" />
    <glyph glyph-name="tahar.init" unicode="&#x637;" horiz-adv-x="1308" arabic-form="initial" 
d="M694.5 528c-103.667 0 -192.167 -40.5 -265.5 -121.5s-105 -173.5 -95 -277.5h731c9.33301 104 -24.167 196.5 -100.5 277.5s-166.333 121.5 -270 121.5zM694 655c95.333 0 179.333 -19.667 252 -59c72.667 -38.667 128 -90.667 166 -156
c76.667 -131.333 106.667 -278 90 -440h-1222v129h217v778h129v-424c87.333 114.667 210 172 368 172z" />
    <glyph glyph-name="tahar.medi" unicode="&#x637;" horiz-adv-x="1316" arabic-form="medial" 
d="M694.5 528c-103.667 0 -192.167 -40.5 -265.5 -121.5s-105 -173.5 -95 -277.5h731c9.33301 104 -24.167 196.5 -100.5 277.5s-166.333 121.5 -270 121.5zM694 655h11c146 0 265.667 -50.167 359 -150.5s141.333 -225.5 144 -375.5h109v-129h-1337v129h217v778h129v-424
c87.333 114.667 210 172 368 172z" />
    <glyph glyph-name="zahar.fina" unicode="&#x638;" horiz-adv-x="1439" arabic-form="final" 
d="M817.5 528c-103.667 0 -192.167 -40.5 -265.5 -121.5s-105 -173.5 -95 -277.5h731c9.33301 104 -24.167 196.5 -100.5 277.5s-166.333 121.5 -270 121.5zM826 881c20 0 36.833 -7.16699 50.5 -21.5s20.5 -31.5 20.5 -51.5s-6.83301 -36.833 -20.5 -50.5
s-30.5 -20.5 -50.5 -20.5s-37 6.83301 -51 20.5s-21 30.5 -21 50.5s7 37.167 21 51.5s31 21.5 51 21.5zM817 655h7.99902c147.333 0 267.833 -50.167 361.5 -150.5s141.834 -225.5 144.501 -375.5h109v-129h-1338v129h217v778h130v-424c87.333 114.667 210 172 368 172z" />
    <glyph glyph-name="zahar.init" unicode="&#x638;" horiz-adv-x="1308" arabic-form="initial" 
d="M694.5 528c-103.667 0 -192.167 -40.5 -265.5 -121.5s-105 -173.5 -95 -277.5h731c9.33301 104 -24.167 196.5 -100.5 277.5s-166.333 121.5 -270 121.5zM687 881c20 0 36.833 -7.16699 50.5 -21.5s20.5 -31.5 20.5 -51.5s-6.83301 -36.833 -20.5 -50.5
s-30.5 -20.5 -50.5 -20.5s-37.167 6.83301 -51.5 20.5s-21.5 30.5 -21.5 50.5s7.16699 37.167 21.5 51.5s31.5 21.5 51.5 21.5zM694 655c95.333 0 179.333 -19.667 252 -59c72.667 -38.667 128 -90.667 166 -156c76.667 -131.333 106.667 -278 90 -440h-1222v129h217v778
h129v-424c87.333 114.667 210 172 368 172z" />
    <glyph glyph-name="zahar.medi" unicode="&#x638;" horiz-adv-x="1316" arabic-form="medial" 
d="M694.5 528c-103.667 0 -192.167 -40.5 -265.5 -121.5s-105 -173.5 -95 -277.5h731c9.33301 104 -24.167 196.5 -100.5 277.5s-166.333 121.5 -270 121.5zM687 881c20 0 36.833 -7.16699 50.5 -21.5s20.5 -31.5 20.5 -51.5s-6.83301 -36.833 -20.5 -50.5
s-30.5 -20.5 -50.5 -20.5s-37.167 6.83301 -51.5 20.5s-21.5 30.5 -21.5 50.5s7.16699 37.167 21.5 51.5s31.5 21.5 51.5 21.5zM694 655h11c146 0 265.667 -50.167 359 -150.5s141.333 -225.5 144 -375.5h109v-129h-1337v129h217v778h129v-424
c87.333 114.667 210 172 368 172z" />
    <glyph glyph-name="ainar.fina" unicode="&#x639;" horiz-adv-x="1024" arabic-form="final" 
d="M102 -176c0 88.667 22.666 156.333 67.999 203c40.667 52 115 88 223 108c-39.333 62.667 -59 127.667 -59 195c0 91.333 32.667 165 98 221c68 62.667 146 94 234 94s167.667 -31.333 239 -94l-76 -105c-52 52 -105.5 78 -160.5 78s-101.333 -19.333 -139 -58
s-56.5 -83.667 -56.5 -135s18.333 -95.333 55 -132c42 -46.667 101.667 -70 179 -70h317v-129h-537c-69.333 0 -128.166 -15 -176.499 -45s-72.5 -75.167 -72.5 -135.5s15 -108.833 45 -145.5h-152c-19.333 46.667 -29 96.667 -29 150z" />
    <glyph glyph-name="ainar.init" unicode="&#x639;" horiz-adv-x="911" arabic-form="initial" 
d="M534.5 641c89 0 167.499 -29.999 235.499 -89.999l-76 -105c-48 50.667 -101.333 76 -160 76s-105 -19.333 -139 -58s-51 -86 -51 -142s22.833 -102.167 68.5 -138.5s97.834 -54.5 156.501 -54.5h240v-129h-829v129h284c-44 69.333 -65.667 137 -65 203
c0 87.333 33.667 160.666 101 219.999s145.5 89 234.5 89z" />
    <glyph glyph-name="ainar.medi" unicode="&#x639;" horiz-adv-x="886" arabic-form="medial" 
d="M199 332c0 87.333 33.332 160.667 99.999 220s144.5 89 233.5 89s167.5 -30 235.5 -90l-74 -105c-48 50.667 -101.333 76 -160 76s-105 -19.333 -139 -58s-51 -86 -51 -142s22.833 -102.167 68.5 -138.5s97.834 -54.5 156.501 -54.5h318v-129h-907v129h282
c-42 75.333 -63 143 -63 203z" />
    <glyph glyph-name="ghainar.fina" unicode="&#x63a;" horiz-adv-x="1024" arabic-form="final" 
d="M102 -176c0 88.667 22.666 156.333 67.999 203c40.667 52 115 88 223 108c-39.333 62.667 -59 127.667 -59 195c0 91.333 32.667 165 98 221c68 62.667 146 94 234 94s167.667 -31.333 239 -94l-76 -105c-52 52 -105.5 78 -160.5 78s-101.333 -19.333 -139 -58
s-56.5 -83.667 -56.5 -135s18.333 -95.333 55 -132c42 -46.667 101.667 -70 179 -70h317v-129h-537c-69.333 0 -128.166 -15 -176.499 -45s-72.5 -75.167 -72.5 -135.5s15 -108.833 45 -145.5h-152c-19.333 46.667 -29 96.667 -29 150zM662.999 880.999
c20 0 36.668 -7.16699 50.001 -21.5s20 -31.5 20 -51.5s-6.83301 -36.833 -20.5 -50.5s-30.334 -20.5 -50.001 -20.5s-36.667 6.83301 -51 20.5s-21.5 30.5 -21.5 50.5s7.16699 37.167 21.5 51.5s31.5 21.5 51.5 21.5z" />
    <glyph glyph-name="ghainar.init" unicode="&#x63a;" horiz-adv-x="911" arabic-form="initial" 
d="M534.5 641c89 0 167.499 -29.999 235.499 -89.999l-76 -105c-48 50.667 -101.333 76 -160 76s-105 -19.333 -139 -58s-51 -86 -51 -142s22.833 -102.167 68.5 -138.5s97.834 -54.5 156.501 -54.5h240v-129h-829v129h284c-44 69.333 -65.667 137 -65 203
c0 87.333 33.667 160.666 101 219.999s145.5 89 234.5 89zM535.999 881.001c20 0 36.668 -7.16699 50.001 -21.5s20 -31.5 20 -51.5s-6.83301 -36.833 -20.5 -50.5s-30.334 -20.5 -50.001 -20.5s-36.667 6.83301 -51 20.5s-21.5 30.5 -21.5 50.5s7.16699 37.167 21.5 51.5
s31.5 21.5 51.5 21.5z" />
    <glyph glyph-name="ghainar.medi" unicode="&#x63a;" horiz-adv-x="886" arabic-form="medial" 
d="M199 332c0 87.333 33.332 160.667 99.999 220s144.5 89 233.5 89s167.5 -30 235.5 -90l-74 -105c-48 50.667 -101.333 76 -160 76s-105 -19.333 -139 -58s-51 -86 -51 -142s22.833 -102.167 68.5 -138.5s97.834 -54.5 156.501 -54.5h318v-129h-907v129h282
c-42 75.333 -63 143 -63 203zM535.999 881.001c20 0 36.668 -7.16699 50.001 -21.5s20 -31.5 20 -51.5s-6.83301 -36.833 -20.5 -50.5s-30.334 -20.5 -50.001 -20.5s-36.667 6.83301 -51 20.5s-21.5 30.5 -21.5 50.5s7.16699 37.167 21.5 51.5s31.5 21.5 51.5 21.5z" />
    <glyph glyph-name="fehar.fina" unicode="&#x641;" horiz-adv-x="1542" arabic-form="final" 
d="M1108 522c-49.333 0 -91.668 -21.502 -127.001 -64.502s-53 -88.667 -53 -137s17.333 -92.333 52 -132s77.334 -59.5 128.001 -59.5s94 19.833 130 59.5s54 83.834 54 132.501s-18.333 94.334 -55 137.001s-79.667 64 -129 64zM1108 644.998
c92.667 0 170.165 -31.333 232.498 -94s93.5 -132.5 93.5 -209.5s-22 -147.833 -66 -212.5h174v-129h-1124c-90 0 -165.167 31.667 -225.5 95s-90.5 139.833 -90.5 229.5s26.333 163.5 79 221.5s121.334 90.333 206.001 97v-129c-45.333 -8 -83 -30.5 -113 -67.5
s-45 -79.667 -45 -128s18.167 -92 54.5 -131s81.166 -58.5 134.499 -58.5h430c-42 60 -63.167 129.667 -63.5 209s30.334 150.333 92.001 213s138.834 94 231.501 94zM1105 880.998c20 0 36.833 -7.16699 50.5 -21.5s20.5 -31.5 20.5 -51.5s-6.83301 -36.833 -20.5 -50.5
s-30.5 -20.5 -50.5 -20.5s-37.167 6.83301 -51.5 20.5s-21.5 30.5 -21.5 50.5s7.16699 37.167 21.5 51.5s31.5 21.5 51.5 21.5z" />
    <glyph glyph-name="fehar.init" unicode="&#x641;" horiz-adv-x="948" arabic-form="initial" 
d="M522.5 522c-49 0 -91.668 -21.502 -128.001 -64.502s-54.5 -88.667 -54.5 -137s17.667 -92.333 53 -132s78.333 -59.5 129 -59.5s93.834 19.833 129.501 59.5s53.5 83.834 53.5 132.501s-18.167 94.334 -54.5 137.001s-79 64 -128 64zM198.999 337.998
c0 79.333 30.333 150.333 91 213s137.667 94 231 94s170.833 -31.333 232.5 -94s92.5 -137.667 92.5 -225c0 -53.333 -12.333 -104 -37 -152v2c-66.667 -117.333 -163 -176 -289 -176h-540v129h282c-42 60 -63 129.667 -63 209zM518.999 880.998
c20 0 36.833 -7.16699 50.5 -21.5s20.5 -31.5 20.5 -51.5s-6.83301 -36.833 -20.5 -50.5s-30.5 -20.5 -50.5 -20.5s-37.167 6.83301 -51.5 20.5s-21.5 30.5 -21.5 50.5s7.16699 37.167 21.5 51.5s31.5 21.5 51.5 21.5z" />
    <glyph glyph-name="fehar.medi" unicode="&#x641;" horiz-adv-x="956" arabic-form="medial" 
d="M522.5 522c-49 0 -91.668 -21.502 -128.001 -64.502s-54.5 -88.667 -54.5 -137s17.667 -92.333 53 -132s78.333 -59.5 129 -59.5s93.834 19.833 129.501 59.5s53.5 83.834 53.5 132.501s-18.167 94.334 -54.5 137.001s-79 64 -128 64zM198.999 337.998
c0 79.333 30.333 150.333 91 213s137.667 94 231 94s170.833 -31.333 232.5 -94s92.5 -132.167 92.5 -208.5s-21.333 -147.5 -64 -213.5h174v-129h-976v129h282c-42 60 -63 129.667 -63 209zM518.999 880.998c20 0 36.833 -7.16699 50.5 -21.5s20.5 -31.5 20.5 -51.5
s-6.83301 -36.833 -20.5 -50.5s-30.5 -20.5 -50.5 -20.5s-37.167 6.83301 -51.5 20.5s-21.5 30.5 -21.5 50.5s7.16699 37.167 21.5 51.5s31.5 21.5 51.5 21.5z" />
    <glyph glyph-name="qafar.fina" unicode="&#x642;" horiz-adv-x="1542" arabic-form="final" 
d="M1108 522c-49.333 0 -91.668 -21.502 -127.001 -64.502s-53 -88.667 -53 -137s17.333 -92.333 52 -132s77.334 -59.5 128.001 -59.5s94 19.833 130 59.5s54 83.834 54 132.501s-18.333 94.334 -55 137.001s-79.667 64 -129 64zM1108 644.998
c92.667 0 170.165 -31.333 232.498 -94s93.5 -132.5 93.5 -209.5s-22 -147.833 -66 -212.5h174v-129h-1124c-90 0 -165.167 31.667 -225.5 95s-90.5 139.833 -90.5 229.5s26.333 163.5 79 221.5s121.334 90.333 206.001 97v-129c-45.333 -8 -83 -30.5 -113 -67.5
s-45 -79.667 -45 -128s18.167 -92 54.5 -131s81.166 -58.5 134.499 -58.5h430c-42 60 -63.167 129.667 -63.5 209s30.334 150.333 92.001 213s138.834 94 231.501 94zM1201 880.998c20 0 36.833 -7.16699 50.5 -21.5s20.5 -31.5 20.5 -51.5s-6.83301 -36.833 -20.5 -50.5
s-30.5 -20.5 -50.5 -20.5s-37.167 6.83301 -51.5 20.5s-21.5 30.5 -21.5 50.5s7.16699 37.167 21.5 51.5s31.5 21.5 51.5 21.5zM1017 880.998c20 0 36.667 -7.16699 50 -21.5s20 -31.5 20 -51.5s-6.66699 -36.833 -20 -50.5s-30 -20.5 -50 -20.5s-37.167 6.83301 -51.5 20.5
s-21.5 30.5 -21.5 50.5s7.16699 37.167 21.5 51.5s31.5 21.5 51.5 21.5z" />
    <glyph glyph-name="qafar.init" unicode="&#x642;" horiz-adv-x="948" arabic-form="initial" 
d="M522.5 522c-49 0 -91.668 -21.502 -128.001 -64.502s-54.5 -88.667 -54.5 -137s17.667 -92.333 53 -132s78.333 -59.5 129 -59.5s93.834 19.833 129.501 59.5s53.5 83.834 53.5 132.501s-18.167 94.334 -54.5 137.001s-79 64 -128 64zM198.999 337.998
c0 79.333 30.333 150.333 91 213s137.667 94 231 94s170.833 -31.333 232.5 -94s92.5 -137.667 92.5 -225c0 -53.333 -12.333 -104 -37 -152v2c-66.667 -117.333 -163 -176 -289 -176h-540v129h282c-42 60 -63 129.667 -63 209zM604.999 880.998
c20 0 36.833 -7.16699 50.5 -21.5s20.5 -31.5 20.5 -51.5s-6.83301 -36.833 -20.5 -50.5s-30.5 -20.5 -50.5 -20.5s-37.167 6.83301 -51.5 20.5s-21.5 30.5 -21.5 50.5s7.16699 37.167 21.5 51.5s31.5 21.5 51.5 21.5zM420.999 880.998c20 0 36.833 -7.16699 50.5 -21.5
s20.5 -31.5 20.5 -51.5s-6.83301 -36.833 -20.5 -50.5s-30.5 -20.5 -50.5 -20.5s-37.167 6.83301 -51.5 20.5s-21.5 30.5 -21.5 50.5s7.16699 37.167 21.5 51.5s31.5 21.5 51.5 21.5z" />
    <glyph glyph-name="qafar.medi" unicode="&#x642;" horiz-adv-x="956" arabic-form="medial" 
d="M522.5 522c-49 0 -91.668 -21.502 -128.001 -64.502s-54.5 -88.667 -54.5 -137s17.667 -92.333 53 -132s78.333 -59.5 129 -59.5s93.834 19.833 129.501 59.5s53.5 83.834 53.5 132.501s-18.167 94.334 -54.5 137.001s-79 64 -128 64zM198.999 337.998
c0 79.333 30.333 150.333 91 213s137.667 94 231 94s170.833 -31.333 232.5 -94s92.5 -132.167 92.5 -208.5s-21.333 -147.5 -64 -213.5h174v-129h-976v129h282c-42 60 -63 129.667 -63 209zM604.999 880.998c20 0 36.833 -7.16699 50.5 -21.5s20.5 -31.5 20.5 -51.5
s-6.83301 -36.833 -20.5 -50.5s-30.5 -20.5 -50.5 -20.5s-37.167 6.83301 -51.5 20.5s-21.5 30.5 -21.5 50.5s7.16699 37.167 21.5 51.5s31.5 21.5 51.5 21.5zM420.999 880.998c20 0 36.833 -7.16699 50.5 -21.5s20.5 -31.5 20.5 -51.5s-6.83301 -36.833 -20.5 -50.5
s-30.5 -20.5 -50.5 -20.5s-37.167 6.83301 -51.5 20.5s-21.5 30.5 -21.5 50.5s7.16699 37.167 21.5 51.5s31.5 21.5 51.5 21.5z" />
    <glyph glyph-name="kafar.fina" unicode="&#x643;" horiz-adv-x="1370" arabic-form="final" 
d="M817 868c52 0 97.667 -19.668 137 -59.001l-53 -74c-18 20.667 -39.833 34.667 -65.5 42s-49.5 4.33301 -71.5 -9s-33.667 -38.666 -35 -75.999c1.33301 -56 40.333 -88 117 -96h106v-82h-399v82h131c-46.667 57.333 -54.5 117 -23.5 179s83.167 93 156.5 93z
M1262 128.999l107.999 -0.000976562v-129h-954c-91.333 0 -166.5 31.333 -225.5 94s-88.5 138.834 -88.5 228.501s26 163.5 78 221.5s120.333 90.333 205 97v-127c-45.333 -8 -83 -30.5 -113 -67.5s-45 -80 -45 -129s18.833 -92.667 56.5 -131s81.834 -57.5 132.501 -57.5
h717v774h129v-774z" />
    <glyph glyph-name="kafar.init" unicode="&#x643;" horiz-adv-x="952" arabic-form="initial" 
d="M532 649c88.667 0 163.833 -30.3311 225.5 -90.998s92.5 -135.334 92.5 -224.001c0 -64 -18.167 -124.333 -54.5 -181s-80.5 -96.334 -132.5 -119.001s-95.667 -34 -131 -34h-552v129h552c49.333 0 91.833 19.833 127.5 59.5s53.5 84.5 53.5 134.5
s-17.5 95.667 -52.5 137s-77.833 62 -128.5 62h-333v148l276 389l109 -78l-242 -332h190z" />
    <glyph glyph-name="kafar.medi" unicode="&#x643;" horiz-adv-x="958" arabic-form="medial" 
d="M532 649c88.667 0 163.833 -30.333 225.5 -91s92.5 -135.334 92.5 -224.001c0 -61.333 -23.333 -129.666 -70 -204.999h178v-129h-978v129h552c49.333 0 91.833 19.833 127.5 59.5s53.5 84.5 53.5 134.5s-17.5 95.667 -52.5 137s-77.833 62 -128.5 62h-333v148l276 389
l109 -78l-242 -332h190z" />
    <glyph glyph-name="lamar.fina" unicode="&#x644;" horiz-adv-x="1015" arabic-form="final" 
d="M907 129h109.002v-129h-109c-22 -102.667 -69.667 -186.667 -143 -252s-162 -98 -266 -98s-196 38.167 -276 114.5s-120 170.5 -120 282.5c0 74 19.167 143 57.5 207s90.166 115.333 155.499 154l68 -121c-46.667 -34 -82.834 -69.167 -108.501 -105.5
s-38.5 -85.5 -38.5 -147.5s27.167 -120.333 81.5 -175s117.5 -82 189.5 -82s135.5 27 190.5 81s82.5 117 82.5 189v868h127v-786z" />
    <glyph glyph-name="lamar.init" unicode="&#x644;" horiz-adv-x="428" arabic-form="initial" 
d="M326 0h-346v129h217v780h129v-909z" />
    <glyph glyph-name="lamar.medi" unicode="&#x644;" horiz-adv-x="432" arabic-form="medial" 
d="M324 129h108v-129h-452v129h217v784h127v-784z" />
    <glyph glyph-name="meemar.fina" unicode="&#x645;" horiz-adv-x="1071" arabic-form="final" 
d="M642 522c-52.667 0 -97.332 -20.499 -133.999 -61.499s-55 -87 -55 -138s19 -96.333 57 -136s82 -59.5 132 -59.5s94.5 20.5 133.5 61.5s58.5 86.167 58.5 135.5s-18.833 94.666 -56.5 135.999s-82.834 62 -135.501 62zM102.002 70.001c0 151.333 53.333 285.667 160 403
s233.667 176 381 176c88.667 0 164.167 -33.833 226.5 -101.5s93.5 -138.667 93.5 -213s-24 -142.833 -72 -205.5h180v-129h-428c-94 0 -171.833 33.833 -233.5 101.5s-89.5 153.167 -83.5 256.5c-58.667 -94 -88 -188.167 -88 -282.5s20.333 -178.833 61 -253.5l49 -74
h-151l-54 109c-27.333 66.667 -41 137.667 -41 213z" />
    <glyph glyph-name="meemar.init" unicode="&#x645;" horiz-adv-x="940" arabic-form="initial" 
d="M515 518c-52.667 0 -96.999 -19.833 -132.999 -59.5s-54 -84 -54 -133s18 -93.333 54 -133s81 -59.5 135 -59.5s100.167 19.5 138.5 58.5s57.5 83.5 57.5 133.5s-19.833 94.667 -59.5 134s-85.834 59 -138.501 59zM520.001 645c86 0 160.5 -32 223.5 -96
s94.5 -139.833 94.5 -227.5s-31.167 -163.167 -93.5 -226.5s-135.833 -95 -220.5 -95h-544v129h284c-44 61.333 -65.833 130 -65.5 206s32.5 146.667 96.5 212s139 98 225 98z" />
    <glyph glyph-name="meemar.medi" unicode="&#x645;" horiz-adv-x="944" arabic-form="medial" 
d="M515 406c-52.667 0 -96.999 -20.1689 -132.999 -60.502s-54 -85.166 -54 -134.499s17.667 -93.5 53 -132.5s80.333 -58.5 135 -58.5s101.167 19.167 139.5 57.5s57.5 82.833 57.5 133.5s-19.833 95.834 -59.5 135.501s-85.834 59.5 -138.501 59.5zM199.001 198.998
c0 87.333 31.668 164.332 95.001 230.999s138.333 100 225 100s161.5 -31.667 224.5 -95s94.5 -138.666 94.5 -225.999c0 -23.333 -5 -50 -15 -80h121v-129h-184c-66.667 -74 -146.834 -111 -240.501 -111s-175.5 37 -245.5 111h-294v129h231c-8 26 -12 49.333 -12 70z" />
    <glyph glyph-name="noonar.fina" unicode="&#x646;" horiz-adv-x="1107" arabic-form="final" 
d="M1108 129l0.00195312 -128.999h-176c-40.667 -68 -93.834 -121.167 -159.501 -159.5s-138.167 -57.5 -217.5 -57.5h-10c-135.333 5.33301 -243 52.333 -323 141s-120 192.667 -120 312c0 80.667 20.167 155.667 60.5 225s99.5 124.666 177.5 165.999l45 -101
c-48 -24.667 -86.667 -64.5 -116 -119.5s-44 -117.833 -44 -188.5s26.667 -135.667 80 -195s132.666 -93 237.999 -101c90 0 166 30 228 90s93 133.667 93 221v406h135v-410l-10 -100h119zM601.002 659.001c20 0 36.833 -7.16602 50.5 -21.499s20.5 -31.333 20.5 -51
s-6.83301 -36.334 -20.5 -50.001s-30.5 -20.5 -50.5 -20.5s-37.167 6.83301 -51.5 20.5s-21.5 30.5 -21.5 50.5s7.16699 37 21.5 51s31.5 21 51.5 21z" />
    <glyph glyph-name="noonar.init" unicode="&#x646;" horiz-adv-x="471" arabic-form="initial" 
d="M369 0h-389v129h262v510h127v-639zM312 922c20 0 36.833 -7.16699 50.5 -21.5s20.5 -31.5 20.5 -51.5s-6.83301 -36.833 -20.5 -50.5s-30.5 -20.5 -50.5 -20.5s-37 6.83301 -51 20.5s-21 30.5 -21 50.5s7 37.167 21 51.5s31 21.5 51 21.5z" />
    <glyph glyph-name="noonar.medi" unicode="&#x646;" horiz-adv-x="499" arabic-form="medial" 
d="M369 129h131v-129h-520v129h262v510h127v-510zM312 922c20 0 36.833 -7.16699 50.5 -21.5s20.5 -31.5 20.5 -51.5s-6.83301 -36.833 -20.5 -50.5s-30.5 -20.5 -50.5 -20.5s-37 6.83301 -51 20.5s-21 30.5 -21 50.5s7 37.167 21 51.5s31 21.5 51 21.5z" />
    <glyph glyph-name="hehar.fina" unicode="&#x647;" horiz-adv-x="872" arabic-form="final" 
d="M637 129v386.999c-116 8 -210.5 -25.167 -283.5 -99.5s-110.833 -170.166 -113.5 -287.499h397zM102 95.999c0 144.667 46.168 273.333 138.501 386s207.5 169 345.5 169c61.333 0 120.666 -13 177.999 -39v-483h108v-129h-766c-2.66699 44 -4 76 -4 96z" />
    <glyph glyph-name="hehar.init" unicode="&#x647;" horiz-adv-x="1323" arabic-form="initial" 
d="M641 129v395c-88.667 -18 -164 -65.5 -226 -142.5s-88.333 -161.167 -79 -252.5h305zM768 129h309c8 92.667 -19 178.667 -81 258s-138 126.333 -228 141v-399zM1221 82c0 -22 -1.33398 -49.332 -4.00098 -81.999h-1237v129h217c9.33301 136.667 54 255.167 134 355.5
s183.333 157.166 310 170.499v191h127v-189c136.667 -12 246.334 -74 329.001 -186s124 -241.667 124 -389z" />
    <glyph glyph-name="hehar.medi" unicode="&#x647;" horiz-adv-x="1325" arabic-form="medial" 
d="M641 129v392.999c-90 -18 -165.667 -65.167 -227 -141.5s-87.333 -160.166 -78 -251.499h305zM768 128.999l309 -0.00195312c8 92.667 -19 178.334 -81 257.001s-138 125.334 -228 140.001v-397zM1325 128.997v-128.998h-1345v129h217
c9.33301 135.333 54 253.166 134 353.499s183.333 157.166 310 170.499v191h127v-191c128.667 -8 233.5 -62.5 314.5 -163.5s126.5 -221.167 136.5 -360.5h106z" />
    <glyph glyph-name="wawar.fina" unicode="&#x648;" horiz-adv-x="874" arabic-form="final" 
d="M446 522c-61.333 0 -110.333 -19.333 -147 -58s-55 -86 -55 -142c0 -134 87.333 -201 262 -201c27.333 0 64 2.66699 110 8c15.333 32.667 23 79 23 139s-16.833 117.333 -50.5 172s-81.167 82 -142.5 82zM496 0c-122.667 0 -219.001 29.332 -289.001 87.999
s-105 135.834 -105 231.501s28.333 174.834 85 237.501s142.334 94 257.001 94s199 -35.833 253 -107.5s81 -157.834 81 -258.501c0 -50.667 -7.33301 -102.667 -22 -156h118v-129h-149c-44 -108 -116.333 -221.333 -217 -340l-109 88c79.333 82 141 167.333 185 256
c-20.667 -2.66699 -50 -4 -88 -4z" />
    <glyph glyph-name="alefMaksuraar.fina" unicode="&#x649;" horiz-adv-x="1392" arabic-form="final" 
d="M229 319.5c0 -47.667 18.8311 -91.333 56.498 -131s81.834 -59.5 132.501 -59.5h389v262c0 65.333 24.5 123 73.5 173s106.5 75 172.5 75h209v-510h131v-129h-258v512h-82c-28.667 0 -55.667 -12.333 -81 -37s-38 -52.667 -38 -84v-391h-516
c-90 0 -165.167 31.667 -225.5 95s-90.5 139.5 -90.5 228.5s26.333 162.833 79 221.5s121.334 91.334 206.001 98.001v-127c-44 -8 -81.333 -30.833 -112 -68.5s-46 -80.334 -46 -128.001z" />
    <glyph glyph-name="yehar.fina" unicode="&#x64a;" horiz-adv-x="1392" arabic-form="final" 
d="M867 -102c20 0 36.833 -7.16699 50.5 -21.5s20.5 -31.5 20.5 -51.5s-6.83301 -36.833 -20.5 -50.5s-30.5 -20.5 -50.5 -20.5s-37 6.83301 -51 20.5s-21 30.5 -21 50.5s7 37.167 21 51.5s31 21.5 51 21.5zM683 -102c20 0 36.833 -7.16699 50.5 -21.5
s20.5 -31.5 20.5 -51.5s-6.83301 -36.833 -20.5 -50.5s-30.5 -20.5 -50.5 -20.5s-37.167 6.83301 -51.5 20.5s-21.5 30.5 -21.5 50.5s7.16699 37.167 21.5 51.5s31.5 21.5 51.5 21.5zM229 319.5c0 -47.667 18.8311 -91.333 56.498 -131s81.834 -59.5 132.501 -59.5h389v262
c0 65.333 24.5 123 73.5 173s106.5 75 172.5 75h209v-510h131v-129h-258v512h-82c-28.667 0 -55.667 -12.333 -81 -37s-38 -52.667 -38 -84v-391h-516c-90 0 -165.167 31.667 -225.5 95s-90.5 139.5 -90.5 228.5s26.333 162.833 79 221.5s121.334 91.334 206.001 98.001
v-127c-44 -8 -81.333 -30.833 -112 -68.5s-46 -80.334 -46 -128.001z" />
    <glyph glyph-name="yehar.init" unicode="&#x64a;" horiz-adv-x="471" arabic-form="initial" 
d="M325 -102c20 0 36.668 -7.16699 50.001 -21.5s20 -31.5 20 -51.5s-6.83301 -36.833 -20.5 -50.5s-30.334 -20.5 -50.001 -20.5s-36.667 6.83301 -51 20.5s-21.5 30.5 -21.5 50.5s7.16699 37.167 21.5 51.5s31.5 21.5 51.5 21.5zM140.001 -102
c20 0 36.833 -7.16699 50.5 -21.5s20.5 -31.5 20.5 -51.5s-6.83301 -36.833 -20.5 -50.5s-30.5 -20.5 -50.5 -20.5s-37 6.83301 -51 20.5s-21 30.5 -21 50.5s7 37.167 21 51.5s31 21.5 51 21.5zM-19.999 0v129h262v510h127v-639h-389z" />
    <glyph glyph-name="yehar.medi" unicode="&#x64a;" horiz-adv-x="499" arabic-form="medial" 
d="M400 -102c20 0 36.833 -7.16699 50.5 -21.5s20.5 -31.5 20.5 -51.5s-6.83301 -36.833 -20.5 -50.5s-30.5 -20.5 -50.5 -20.5s-37 6.83301 -51 20.5s-21 30.5 -21 50.5s7 37.167 21 51.5s31 21.5 51 21.5zM216 -102c20 0 36.833 -7.16699 50.5 -21.5
s20.5 -31.5 20.5 -51.5s-6.83301 -36.833 -20.5 -50.5s-30.5 -20.5 -50.5 -20.5s-37.167 6.83301 -51.5 20.5s-21.5 30.5 -21.5 50.5s7.16699 37.167 21.5 51.5s31.5 21.5 51.5 21.5zM500 129v-129h-520v129h262v510h127v-510h131z" />
    <glyph glyph-name=".notdef" horiz-adv-x="1024" 
d="M102 1239v-1044l349 522zM164 102h696l-348 523zM573 717l349 -522v1044zM512 809l348 522h-696zM0 0v1434h1024v-1434h-1024z" />
    <glyph glyph-name="space" unicode=" " horiz-adv-x="294" 
 />
    <glyph glyph-name="exclam" unicode="!" horiz-adv-x="282" 
d="M138 143c22.667 0.666992 41.668 -7 57.001 -23s23 -34.667 23 -56s-8 -40 -24 -56c-14.667 -16 -33.334 -23.333 -56.001 -22c-22.667 0 -41.334 8 -56.001 24s-22.334 34 -23.001 54c0.666992 20 8.33398 38 23.001 54s33.334 24.333 56.001 25zM190.001 205h-106v686
h106v-686z" />
    <glyph glyph-name="quotedbl" unicode="&#x22;" horiz-adv-x="423" 
d="M356 547h-104v344h104v-344zM174 547h-104v344h104v-344z" />
    <glyph glyph-name="numbersign" unicode="#" 
d="M297 537l-27 -183h154l25 183h-152zM551 618h117l-4 -81h-123l-27 -183h117l-4 -82h-123l-39 -272h-92l39 272h-152l-39 -272h-92l39 272h-127l4 82h135l25 183h-127l4 81h135l37 273h92l-37 -273h152l37 273h92z" />
    <glyph glyph-name="dollar" unicode="$" 
d="M416 229c62.667 0 94 27.332 94 81.999c0 40.667 -20.333 72.334 -61 95.001c-8 5.33301 -19 13.333 -33 24v-201zM319 783.999c-65.333 0 -98 -26.332 -98 -78.999c0 -38.667 32.667 -74.334 98 -107.001v186zM416 891h172v-107h-172v-225c24.667 -18 49 -34.333 73 -49
c54.667 -34 93 -71.667 115 -113c12 -30 18.333 -60.667 19 -92c0 -61.333 -20.667 -107.666 -62 -138.999c-34 -28.667 -82.333 -43 -145 -43v-137h-97v137h-204v106h204v244c-16.667 10.667 -47 29 -91 55c-79.333 46.667 -119 107.667 -119 183
c0 57.333 20 101.666 60 132.999s90 47 150 47v104h97v-104z" />
    <glyph glyph-name="percent" unicode="%" horiz-adv-x="1132" 
d="M834 303c-30 0 -56 -10.333 -78 -31c-22 -21.333 -33 -47.333 -33 -78s11 -56.667 33 -78s48 -32 78 -32c29.333 0 54.666 10.333 75.999 31s32 47 32 79s-10.667 58 -32 78s-46.666 30.333 -75.999 31zM834 403c54.667 0 103 -18.999 145 -56.999
c42 -42 63 -92.333 63 -151s-21 -109.334 -63 -152.001c-40.667 -38 -89.334 -57 -146.001 -57s-105.667 19.667 -147 59s-62 89 -62 149s21.333 110 64 150c42.667 39.333 91.334 59 146.001 59zM267 807.001c-30.667 0 -56.667 -9.99902 -78 -29.999
c-20.667 -20 -31 -46.333 -31 -79s10.667 -59.334 32 -80.001c21.333 -20 47 -30 77 -30c30.667 0 56.667 10 78 30s32 46.333 32 79c0 32 -10.667 58.333 -32 79s-47.333 31 -78 31zM293 -13.998h-80l594 921h78zM268 907.002c54.667 0 103.333 -19 146 -57
c42 -42.667 63 -93.334 63 -152.001s-20.667 -108 -62 -148c-42 -40 -91 -60 -147 -60s-104.667 20 -146 60s-62.333 89.333 -63 148c0 58.667 21.333 109.334 64 152.001c42 38 90.333 57 145 57z" />
    <glyph glyph-name="ampersand" unicode="&#x26;" horiz-adv-x="849" 
d="M166 362c0 -76 24.001 -140 72.001 -192c49.333 -49.333 107.666 -74 174.999 -74s123 17 167 51l-314 408c-66.667 -52.667 -100 -117 -100 -193zM631.001 780l-352.001 0.000976562c-18 0 -27 -5 -27 -15s9.66699 -28 29 -54l370 -473c19.333 26.667 29 66 29 118
s-28.667 113.667 -86 185l82 84c82 -86 123 -173 123 -261s-23.333 -164.333 -70 -229l109 -135h-146l-47 49c-58 -42 -137 -63 -237 -63s-186 34 -258 102s-107.667 154.667 -107 260c0 131.333 50.667 230.333 152 297c-40.667 46.667 -61 88.667 -61 126
s12 66.666 36 87.999c24.667 21.333 55.334 32 92.001 32h369v-111z" />
    <glyph glyph-name="quotesingle" unicode="'" horiz-adv-x="282" 
d="M195 547h-105v344h105v-344z" />
    <glyph glyph-name="parenleft" unicode="(" horiz-adv-x="495" 
d="M92 337c0 111.333 23.667 218.333 71 321s115.333 185.667 204 249l51 -69c-152 -120 -228 -288 -228 -504s76 -382 228 -498l-45 -76c-90 64 -159.333 148.333 -208 253s-73 212.667 -73 324z" />
    <glyph glyph-name="parenright" unicode=")" horiz-adv-x="495" 
d="M305 332c0 214.667 -75.668 381 -227.001 499l45 76c90 -64 159.333 -148.333 208 -253c98 -210.667 99 -424.667 3 -642c-49.333 -106.667 -117.666 -190.667 -204.999 -252l-51 70c151.333 120 227 287.333 227 502z" />
    <glyph glyph-name="asterisk" unicode="*" horiz-adv-x="636" 
d="M352 707l158 106l47 -80l-168 -88l168 -90l-47 -78l-158 101l15 -179h-97l15 179l-158 -101l-47 78l168 90l-168 88l47 80l158 -106l-15 184h97z" />
    <glyph glyph-name="plus" unicode="+" horiz-adv-x="763" 
d="M432 356h256v-100h-256v-256h-100v256h-256v100h256v256h100v-256z" />
    <glyph glyph-name="comma" unicode="," horiz-adv-x="354" 
d="M178 -127h-98l53 250h119z" />
    <glyph glyph-name="hyphen" unicode="-" horiz-adv-x="354" 
d="M319 254h-284v102h284v-102z" />
    <glyph glyph-name="period" unicode="." horiz-adv-x="354" 
d="M102 68c0 20.667 7.33105 38.334 21.998 53.001s32.334 22 53.001 22c20.667 -0.666992 38.334 -8.33398 53.001 -23.001s22 -32.667 22 -54s-7.66699 -39 -23 -53s-33 -21 -53 -21s-37.333 7.33301 -52 22s-22 32.667 -22 54z" />
    <glyph glyph-name="slash" unicode="/" horiz-adv-x="354" 
d="M92 -14h-100l270 921h100z" />
    <glyph glyph-name="zero" unicode="0" 
d="M537 578c0.666992 66.667 -15 118 -47 154s-77.333 54 -136 54s-103.667 -18 -135 -54s-47 -87.333 -47 -154v-265c0 -66.667 15.667 -118 47 -154c31.333 -36.667 76.333 -55 135 -55s103.667 18 135 54s47.333 87.667 48 155v265zM43 578
c0 101.333 31.334 181.667 94.001 241c58.667 58.667 130.667 88 216 88s158.666 -30 219.999 -90s92.333 -139.667 93 -239v-265c0 -96.667 -31 -177 -93 -241c-60 -57.333 -133.333 -86 -220 -86s-160 30 -220 90s-90 139 -90 237v265z" />
    <glyph glyph-name="one" unicode="1" 
d="M424 0h-123v780h-160l33 111h250v-891z" />
    <glyph glyph-name="two" unicode="2" 
d="M362 907c82.667 0 152.002 -27.332 208.002 -81.999s83.667 -118 83 -190c0 -72 -16.333 -131 -49 -177s-83.667 -95.667 -153 -149l-250 -194v-2h448v-113h-489c-79.333 0 -119 31.333 -119 94c0.666992 23.333 7.66699 42.333 21 57s33 32 59 52l313 246
c64 50.667 96 109.334 96 176.001c0 49.333 -16.333 90.333 -49 123c-34 31.333 -77.667 47 -131 47c-53.333 0.666992 -96 -16.333 -128 -51s-48 -77.667 -48 -129s17.667 -92.333 53 -123c31.333 -31.333 69.666 -49.333 114.999 -54l-104 -82
c-122.667 44 -184.334 133 -185.001 267c0.666992 83.333 31.667 151.666 93 204.999s133.333 79.666 216 78.999z" />
    <glyph glyph-name="three" unicode="3" 
d="M463 891c84.667 0 127 -31.999 127 -95.999c0 -27.333 -8.33301 -51 -25 -71s-44 -45.667 -82 -77l-121 -102c83.333 0 152.333 -23.667 207 -71c54.667 -48 82 -112.667 82 -194s-25 -148.333 -75 -201s-113.667 -79 -191 -79h-328v113h295c57.333 0 101 15.667 131 47
s45 70.666 45 117.999c0 46.667 -18.333 84 -55 112s-88 42 -154 42h-139v90l281 258h-383v111h385z" />
    <glyph glyph-name="four" unicode="4" 
d="M539 889v-570.001h133v-112h-133v-207h-123v207h-318c-57.333 0 -86 24.667 -86 74c0 16.667 13 47.334 39 92.001l287 518h133l-321 -572h266v383l112 193l9 12c1.33301 0 2 -6 2 -18z" />
    <glyph glyph-name="five" unicode="5" 
d="M575 780h-344.002v-233h109c100 0 178 -23.667 234 -71s84.333 -112 85 -194c0 -82 -23.667 -148 -71 -198c-49.333 -56 -113.666 -84 -192.999 -84h-323v113h290c54.667 0 96.334 14.333 125.001 43s43 66.667 43 114c0 110.667 -66 166 -198 166h-223v455h466v-111z
" />
    <glyph glyph-name="six" unicode="6" 
d="M154 284c0 -46.667 19.332 -89.667 57.999 -129s85.667 -59 141 -59s103 20.667 143 62s59.667 93.333 59 156c0 64 -23 115.333 -69 154s-106.333 56.667 -181 54l70 103c96.667 -4 172.334 -35.667 227.001 -95c50.667 -58.667 76 -132.334 76 -221.001
s-31.667 -164.667 -95 -228s-141 -95 -233 -95s-168 30.333 -228 91c-60.667 60.667 -91 135.334 -91 224.001c0 57.333 11.667 108 35 152c12 26 39 69.667 81 131l218 307h147l-279 -389c-28.667 -40 -49 -74.667 -61 -104s-18 -67.333 -18 -114z" />
    <glyph glyph-name="seven" unicode="7" 
d="M504 891c91.333 0 137.001 -30 137.001 -90c0 -24.667 -7.66699 -54 -23 -88c-16.667 -30 -34.334 -69 -53.001 -117l-264 -596h-141l350 780h-455v111h449z" />
    <glyph glyph-name="eight" unicode="8" 
d="M354 440c-56 0 -101.333 -15.667 -136 -47s-52 -73 -52 -125s17.333 -93.667 52 -125s80 -47 136 -47s101 15.667 135 47s51.333 73 52 125s-16.333 93.667 -51 125s-80 47 -136 47zM351 795c-37.333 0 -67.666 -11.667 -90.999 -35s-35 -52 -35 -86
s11.667 -62.667 35 -86s53.666 -35 90.999 -35s67.666 11.667 90.999 35s35 52 35 86s-11.667 62.667 -35 86s-53.666 35 -90.999 35zM96 700c0 50.667 23.999 97.9961 71.999 141.996s109.667 65.667 185 65c74.667 0 135.334 -19.667 182.001 -59
c48.667 -37.333 73 -90.666 73 -159.999s-26.667 -130.666 -80 -183.999c95.333 -50.667 143.333 -129.334 144 -236.001c0 -79.333 -27.333 -144.666 -82 -195.999c-57.333 -57.333 -135.333 -86 -234 -86s-176.334 27.333 -233.001 82
c-57.333 54.667 -86 121.334 -86 200.001c0 98 47.667 176.667 143 236c-29.333 30 -50.666 57.667 -63.999 83c-13.333 24.667 -20 62.334 -20 113.001z" />
    <glyph glyph-name="nine" unicode="9" 
d="M359 907c90 0 165.669 -30.668 227.002 -92.001s92 -136.333 92 -225c0 -53.333 -11 -104 -33 -152c-15.333 -28.667 -43.333 -71.667 -84 -129l-217 -309h-147l276 389c30 40.667 50.667 74 62 100c13.333 38 20 79.333 20 124s-19 86 -57 124
c-38.667 38 -85.334 57 -140.001 57s-102.334 -19.333 -143.001 -58c-40.667 -40 -61 -92 -61 -156s22 -115.333 66 -154c44 -38 105 -57 183 -57l-71 -101c-94.667 0 -168.667 29.667 -222 89s-80 134.333 -80 225s32.667 167.334 98 230.001
c64.667 63.333 141.667 95 231 95z" />
    <glyph glyph-name="colon" unicode=":" horiz-adv-x="354" 
d="M102 68c0 20.667 7.33105 38.334 21.998 53.001s32.334 22 53.001 22c20.667 -0.666992 38.334 -8.33398 53.001 -23.001s22 -32.667 22 -54s-7.66699 -39 -23 -53s-33 -21 -53 -21s-37.333 7.33301 -52 22s-22 32.667 -22 54zM176.998 510
c20.667 0 38.332 -7.33105 52.999 -21.998s22 -32.667 22 -54s-7.66699 -39.333 -23 -54s-33 -22 -53 -22s-37.333 7.66699 -52 23s-22 33.666 -22 54.999s7.33301 38.666 22 51.999c14.667 14.667 32.334 22 53.001 22z" />
    <glyph glyph-name="semicolon" unicode=";" horiz-adv-x="354" 
d="M178 -127h-98l53 250h119zM177 510c20.667 0 38.332 -7.33105 52.999 -21.998s22 -32.667 22 -54s-7.66699 -39.333 -23 -54s-33 -22 -53 -22s-37.333 7.66699 -52 23s-22 33.666 -22 54.999s7.33301 38.666 22 51.999c14.667 14.667 32.334 22 53.001 22z" />
    <glyph glyph-name="less" unicode="&#x3c;" horiz-adv-x="763" 
d="M688 522l-487 -217l487 -215v-100l-612 272v86l612 275v-101z" />
    <glyph glyph-name="equal" unicode="=" horiz-adv-x="763" 
d="M688 129h-612v100h612v-100zM688 383h-612v98h612v-98z" />
    <glyph glyph-name="greater" unicode="&#x3e;" horiz-adv-x="763" 
d="M688 348v-86l-612 -272v100l487 215l-487 217v101z" />
    <glyph glyph-name="question" unicode="?" horiz-adv-x="565" 
d="M279 143c23.333 0.666992 42.334 -7 57.001 -23s21.334 -35 20.001 -57c0 -22 -7.33301 -40.333 -22 -55s-33.334 -22 -56.001 -22s-41.667 8 -57 24s-23 34 -23 54c0 21.333 7.66699 40 23 56c15.333 15.333 34.666 23 57.999 23zM33.001 625
c0 79.333 25.333 146.001 76 200.001c48 54.667 109.667 82 185 82s138.333 -25.333 189 -76c49.333 -52.667 74 -115 74 -187s-20.333 -132 -61 -180s-94.667 -77.667 -162 -89v-170h-113v278h33c122.667 0 184 52 184 156c0 45.333 -13 82.666 -39 111.999s-61 44 -105 44
c-44 -0.666992 -78.667 -17 -104 -49c-24.667 -32 -36.667 -72.333 -36 -121h-121z" />
    <glyph glyph-name="at" unicode="@" horiz-adv-x="1019" 
d="M532 606c-49.333 0 -90.668 -24 -124.001 -72s-50.666 -93.333 -51.999 -136c0 -42.667 9.66699 -74.667 29 -96s44 -32 74 -32c48 0 89 25 123 75s51 95 51 135s-9.66699 71.333 -29 94c-19.333 21.333 -43.333 32 -72 32zM534.998 -14
c-131.333 0 -242.334 43.9971 -333.001 131.997s-136 196.333 -136 325s45.667 239 137 331c91.333 88.667 197.333 133 318 133s222.667 -34.667 306 -104c84.667 -74 127 -164.667 127 -272s-34.333 -193.666 -103 -258.999s-134 -98 -196 -98
c-46.667 0 -71.667 24 -75 72h-2c-41.333 -48 -88.666 -72 -141.999 -72s-97.666 19.333 -132.999 58s-53 85.667 -53 141c0 84.667 26 160.667 78 228s114.667 101 188 101s124.666 -30 153.999 -90l22 70h90l-92 -334c-6.66699 -31.333 -10 -50.333 -10 -57
c0 -20.667 7.33301 -31 22 -31c41.333 0 79.333 26 114 78s52 110 52 174c0 96.667 -32.333 173 -97 229s-148.667 84 -252 84c-103.333 0.666992 -188.666 -35.666 -255.999 -108.999s-101 -164.666 -101 -273.999s36 -199.333 108 -270s164.333 -106 277 -106
c112 0 205.333 43 280 129h88c-40.667 -67.333 -94.334 -119 -161.001 -155s-139.667 -54 -219 -54z" />
    <glyph glyph-name="A" unicode="A" 
d="M49 565c0 105.333 29 188.666 87 249.999s130.667 92 218 92s160 -30.667 218 -92s87 -144.666 87 -249.999v-565h-120v406h-322v112h322v55c-0.666992 70 -17.667 124.333 -51 163s-78 58 -134 58s-100.667 -19.333 -134 -58s-50 -93 -50 -163v-573h-121v565z" />
    <glyph glyph-name="B" unicode="B" 
d="M76 633c0 74 26.668 137.332 80.001 189.999c53.333 56 121.333 84 204 84s151.667 -21.667 207 -65c53.333 -45.333 80 -107.666 80 -186.999s-30 -138.666 -90 -177.999c87.333 -49.333 131 -124.333 131 -225c0 -74.667 -25 -135.334 -75 -182.001
s-114.333 -70 -193 -70h-178v113h147c118.667 0 178 48.667 178 146s-59.333 146.333 -178 147h-147v112h125c51.333 0 91 12.667 119 38s42 59.333 42 102s-15 76 -45 100c-30 24.667 -70.333 37 -121 37s-91.334 -15.333 -122.001 -46c-30 -30.667 -45 -72.667 -45 -126
v-623h-119v633z" />
    <glyph glyph-name="C" unicode="C" horiz-adv-x="636" 
d="M604 780l-80.001 -0.00292969c-102.667 0 -187.334 -31.667 -254.001 -95s-100 -145.666 -100 -246.999s32 -180.666 96 -237.999s134.333 -86.333 211 -87h127v-113h-127c-125.333 0 -228.666 42.333 -309.999 127s-122 187.667 -122 309s43.333 227.333 130 318
s198.334 136.334 335.001 137.001h94v-111z" />
    <glyph glyph-name="D" unicode="D" horiz-adv-x="778" 
d="M301 891c124 0 227.667 -44.333 311 -133c83.333 -88 125 -192.667 125 -314s-41.667 -225.666 -125 -312.999s-187 -131 -311 -131h-55v113h65c84.667 0 156 31.667 214 95c58 64 87 144.667 87 242s-32.333 176.666 -97 237.999s-147 92 -247 92h-73v-780h-119v891h225
z" />
    <glyph glyph-name="E" unicode="E" horiz-adv-x="636" 
d="M584 780l-79.999 0.000976562c-105.333 0 -189.333 -30.333 -252 -91s-95.334 -117.667 -98.001 -171h430v-112h-430c5.33301 -82 39 -151.333 101 -208s133.333 -85 214 -85h115v-113h-95c-131.333 0 -241 42.667 -329 128s-131.667 190.666 -131 315.999
c0 125.333 43.667 232 131 320c87.333 84.667 197 127 329 127h95v-111z" />
    <glyph glyph-name="F" unicode="F" horiz-adv-x="495" 
d="M461 780h-131.001c-116 0 -174 -58.667 -174 -176v-104h305v-113h-305v-387h-121v592c0 95.333 24.333 169 73 221s116.334 78 203.001 78h150v-111z" />
    <glyph glyph-name="G" unicode="G" horiz-adv-x="991" 
d="M948 426c0 -138 -49.002 -248 -147.002 -330c-86 -73.333 -190 -110 -312 -110s-229 44.333 -321 133s-138.333 197.667 -139 327c0 129.333 46.333 238.333 139 327c92.667 89.333 202 134 328 134c76 0 141.333 -12 196 -36s112 -66 172 -126l-80 -86
c-64 52 -114 87.667 -150 107s-82 29 -138 29c-97.333 -0.666992 -178.666 -35 -243.999 -103s-98 -150 -98 -246s32.667 -178 98 -246c65.333 -69.333 144 -104 236 -104s169 26.667 231 80c62.667 50.667 97.334 121.667 104.001 213h-311v113h436v-76z" />
    <glyph glyph-name="H" unicode="H" horiz-adv-x="778" 
d="M702 0h-120v406h-387v-406h-119v891h119v-373h387v373h120v-891z" />
    <glyph glyph-name="I" unicode="I" horiz-adv-x="282" 
d="M201 0h-119v891h119v-891z" />
    <glyph glyph-name="J" unicode="J" horiz-adv-x="423" 
d="M369 289c0 -92.667 -26.001 -164 -78.001 -214s-129.333 -75 -232 -75h-61v113h59c126.667 0 190.334 56 191.001 168v610h121v-602z" />
    <glyph glyph-name="K" unicode="K" 
d="M532 248c0 104 -54.332 156.667 -162.999 158h-168v-406h-119v891h119v-373h92c69.333 0 121.333 40.333 156 121l112 252h135l-88 -189c-2.66699 -5.33301 -8.33398 -18 -17.001 -38s-15 -34 -19 -42l-20 -36c-22.667 -44 -49 -74.667 -79 -92
c118.667 -31.333 178 -113.333 178 -246v-248h-119v248z" />
    <glyph glyph-name="L" unicode="L" horiz-adv-x="495" 
d="M201 317c0 -136.667 60.667 -204.667 182 -204h115v-113h-133c-87.333 0 -156.333 26.667 -207 80s-76 123 -76 209v602h119v-574z" />
    <glyph glyph-name="M" unicode="M" horiz-adv-x="991" 
d="M498 0h-3.99805c-22 0 -39.333 6 -52 18c-12 12 -25 40 -39 84l-190 621h-2l-86 -723h-125l102 813c5.33301 30 17.333 53.333 36 70s41 25 67 25s47.667 -7.33301 65 -22s31.666 -42.334 42.999 -83.001l181 -600h4l180 600c10.667 40.667 25 68.334 43 83.001
s39.667 22 65 22s47.666 -8.66699 66.999 -26c18.667 -16 30.667 -39 36 -69l102 -813h-125l-86 723h-2l-190 -621c-13.333 -44 -26 -72 -38 -84s-29.333 -18 -52 -18z" />
    <glyph glyph-name="N" unicode="N" horiz-adv-x="778" 
d="M63 791c0 72.667 35 108.667 105 108c30.667 0 54.667 -9 72 -27s39 -52.667 65 -104l287 -592h2v715h119v-813c0 -57.333 -30 -86 -90 -86c-30 0 -53.667 6 -71 18s-33.333 35.333 -48 70l-318 651h-2v-731h-121v791z" />
    <glyph glyph-name="O" unicode="O" horiz-adv-x="991" 
d="M496 795c-97.333 -0.666992 -178.667 -35 -244 -103s-98 -150 -98 -246s32.667 -178 98 -246c65.333 -69.333 146.666 -104 243.999 -104s178.333 34.667 243 104c65.333 69.333 98.333 151.333 99 246c0 95.333 -32.667 177.333 -98 246s-146.666 103 -243.999 103z
M495.999 907c125.333 0 234.334 -44.332 327.001 -132.999c92.667 -92.667 139 -202.667 139 -330c0 -126.667 -46 -234.667 -138 -324s-201.333 -134 -328 -134s-236 44.333 -328 133s-138.333 197.667 -139 327c0 129.333 46.333 238.666 139 327.999
c93.333 88.667 202.666 133 327.999 133z" />
    <glyph glyph-name="P" unicode="P" horiz-adv-x="636" 
d="M51 596c0 94 28.6689 169.669 86.002 227.002c52 56 119.667 84 203 84s152.666 -28.333 207.999 -85c55.333 -56 83 -123.333 83 -202s-24.333 -145.667 -73 -201s-108.334 -83 -179.001 -83h-162v113h129c45.333 0 84.333 15 117 45
c31.333 31.333 47 73.666 47 126.999s-16 95.666 -48 126.999s-73 47 -123 47s-90 -16.667 -120 -50c-32.667 -32.667 -49 -77 -49 -133v-612h-119v596z" />
    <glyph glyph-name="Q" unicode="Q" horiz-adv-x="991" 
d="M496 907c125.333 0 234.331 -44.333 326.998 -133c92.667 -93.333 139 -199.333 139 -318s-38.667 -222.334 -116 -311.001c-74 -87.333 -162 -137 -264 -149v-180h-121v475h121v-185c77.333 20.667 139.333 62 186 124s70 137.333 70 226c0 89.333 -32.667 168 -98 236
s-146.666 102 -243.999 102s-178.666 -34 -243.999 -102s-98 -146.667 -98 -236s25.333 -166.666 76 -231.999c50.667 -64.667 108.334 -103 173.001 -115v-113c-106 20 -195 72 -267 156s-108 186 -108 306s46.667 225 140 315c93.333 89.333 202.666 134 327.999 134z" />
    <glyph glyph-name="R" unicode="R" 
d="M63 588c0 98 28 176.335 84 235.002c49.333 56 117 84 203 84s155 -24.333 207 -73s78 -109 78 -181c0 -91.333 -35 -157.333 -105 -198c39.333 -15.333 69 -38 89 -68s30 -76.333 30 -139v-248h-119v244c0 96.667 -53.667 145 -161 145h-133v113h94
c56 0 100.667 12.667 134 38s50 60.666 50 105.999s-15.333 81.666 -46 108.999c-30.667 26.667 -69.667 40 -117 40s-87 -15.667 -119 -47s-48 -73 -48 -125v-623h-121v588z" />
    <glyph glyph-name="S" unicode="S" horiz-adv-x="636" 
d="M565 780l-300.999 -0.00195312c-70.667 0 -106 -35.333 -106 -106c0 -58 74.333 -116.667 223 -176c148.667 -69.333 223 -156 223 -260c0 -73.333 -21.333 -131.333 -64 -174s-103.334 -64 -182.001 -64h-327v113h305c100 0 149.667 38 149 114
c0 49.333 -38.667 95.333 -116 138c-30 16.667 -65.667 33.667 -107 51c-90 39.333 -154 85.666 -192 138.999c-22 32.667 -33 70.334 -33 113.001c0 70.667 22 125.334 66 164.001s103.333 58.334 178 59.001h284v-111z" />
    <glyph glyph-name="T" unicode="T" horiz-adv-x="565" 
d="M563 780h-221v-780h-119v780h-221v111h561v-111z" />
    <glyph glyph-name="U" unicode="U" 
d="M649 293c0 -84.667 -28.332 -157 -84.999 -217s-127.334 -90 -212.001 -90s-154.667 29.333 -210 88s-83 131.667 -83 219v598h119v-586c0 -64 15 -113 45 -147c30 -41.333 72.667 -62 128 -62s99.333 20.667 132 62c30 34 45 83 45 147v586h121v-598z" />
    <glyph glyph-name="V" unicode="V" 
d="M467 90c-12 -39.333 -26.667 -66.667 -44 -82c-17.333 -14.667 -38.333 -22 -63 -22c-25.333 0 -46 7.33301 -62 22s-30.667 42 -44 82l-272 801h124l252 -735h2l242 735h125z" />
    <glyph glyph-name="W" unicode="W" horiz-adv-x="1132" 
d="M1069 268c0 -84.667 -27.3301 -154.335 -81.9971 -209.002c-52 -49.333 -112.667 -73.666 -182 -72.999c-109.333 0 -189.333 38 -240 114c-50.667 -76.667 -130.334 -114.667 -239.001 -114c-68 0 -129 24.333 -183 73c-54.667 54.667 -82 124.334 -82 209.001v623h121
v-623c0 -53.333 13.667 -95.333 41 -126s67.666 -46 120.999 -46s93.666 15.333 120.999 46s41 72.667 41 126v623h119v-623c0 -52 14 -93.667 42 -125c28.667 -31.333 69 -47 121 -47s91.667 15.333 119 46s41 72.667 41 126v623h121v-623z" />
    <glyph glyph-name="X" unicode="X" 
d="M702 780c-82 0 -150.672 -33.333 -206.005 -100c-50.667 -65.333 -76 -144 -76 -236s26.333 -170.333 79 -235c52.667 -65.333 120.334 -97.333 203.001 -96v-113c-80.667 2.66699 -154.667 27.334 -222 74.001s-108.666 106.667 -123.999 180h-4
c-18 -76 -59.667 -136.667 -125 -182s-139.666 -69.333 -222.999 -72v113c84.667 -1.33301 153.334 30.667 206.001 96s79 143.666 79 234.999s-25.333 170 -76 236c-56 66.667 -125.667 100 -209 100v111c84.667 -2.66699 159.334 -26.334 224.001 -71.001
s106 -105.667 124 -183h4c15.333 76.667 56 137.334 122 182.001s140.667 68.667 224 72v-111z" />
    <glyph glyph-name="Y" unicode="Y" horiz-adv-x="636" 
d="M606 623c0 -62.667 -19.001 -119.333 -57.001 -170s-96 -85.667 -174 -105v-348h-119v348c-78 20.667 -135.333 57 -172 109c-36.667 48 -55 103.333 -55 166v268h121v-270c0 -50.667 15.333 -90 46 -118s71.334 -42 122.001 -42s91.667 14 123 42
c30.667 28 46 67.333 46 118v270h119v-268z" />
    <glyph glyph-name="Z" unicode="Z" horiz-adv-x="636" 
d="M492 891c34.667 0 60.666 -7.33301 77.999 -22s26 -32.667 26 -54c0 -45.333 -17 -91 -51 -137l-400 -565h465v-113h-497c-31.333 0 -55.666 9 -72.999 27s-26 41.667 -26 71s18.667 70.333 56 123l401 559h-410v111h431z" />
    <glyph glyph-name="bracketleft" unicode="[" horiz-adv-x="495" 
d="M365 834h-111v-1000h111v-57h-222v1114h222v-57z" />
    <glyph glyph-name="backslash" unicode="\" horiz-adv-x="354" 
d="M432 -14h-98l-414 921h100z" />
    <glyph glyph-name="bracketright" unicode="]" horiz-adv-x="495" 
d="M352 -223h-221v57h111v1000h-111v57h221v-1114z" />
    <glyph glyph-name="asciicircum" unicode="^" horiz-adv-x="763" 
d="M692 365h-106l-203 417l-205 -417h-106l262 526h96z" />
    <glyph glyph-name="underscore" unicode="_" horiz-adv-x="636" 
d="M637 -160h-637v64h637v-64z" />
    <glyph glyph-name="a" unicode="a" 
d="M334 -12c-84.667 0 -156.333 31.335 -215 94.002c-57.333 64 -86 140.667 -86 230s28 163.666 84 222.999c60 60 137 90 231 90s169 -26.333 225 -79s84 -123.334 84 -212.001v-334h-112v344c0 54.667 -20.667 97.667 -62 129c-35.333 30 -82.333 45 -141 45
s-105.667 -21.667 -141 -65c-36.667 -39.333 -55 -88.333 -55 -147s18.667 -108.667 56 -150c38.667 -41.333 87 -62 145 -62s109 28 153 84v-133c-52 -38 -107.333 -57 -166 -57z" />
    <glyph glyph-name="b" unicode="b" 
d="M164 344c0 -83.333 19.001 -145.332 57.001 -185.999c34 -42.667 80.667 -64 140 -64s107.666 20 144.999 60s56.333 91.667 57 155c0 62 -18.333 112.333 -55 151c-37.333 38.667 -84.666 58 -141.999 58s-110.333 -18.333 -159 -55v119
c51.333 28.667 113.666 43 186.999 43s138.666 -30 195.999 -90s86 -133.667 86 -221c0 -86.667 -28.333 -162.667 -85 -228s-131.667 -98 -225 -98s-169.666 30.667 -228.999 92c-57.333 61.333 -86 142.666 -86 243.999v567h113v-547z" />
    <glyph glyph-name="c" unicode="c" horiz-adv-x="495" 
d="M469 504l-86 0.000976562c-55.333 0 -104.333 -17 -147 -51s-64 -83 -64 -147s21.333 -113 64 -147c42.667 -34.667 91.667 -52.334 147 -53.001h86v-106h-107c-78 0 -146.667 26.667 -206 80c-66.667 57.333 -100 132 -100 224s31.333 166.333 94 223
c64 56.667 134.667 85 212 85h107v-108z" />
    <glyph glyph-name="d" unicode="d" 
d="M657 324c0 -98 -28.6641 -179.334 -85.9971 -244.001c-58.667 -61.333 -134.667 -92 -228 -92s-168.333 32.333 -225 97s-85 140.334 -85 227.001s29 160.667 87 222c57.333 60.667 122.666 91 195.999 91s134.666 -14.333 183.999 -43v-119
c-46.667 36.667 -99.334 55 -158.001 55s-106 -19 -142 -57s-54 -89 -54 -153s19 -115.333 57 -154c36.667 -40 84 -60 142 -60s105.667 21.333 143 64s56.333 104.667 57 186v547h112v-567z" />
    <glyph glyph-name="e" unicode="e" 
d="M356 -12c-87.333 0 -162.001 29.668 -224.001 89.001s-93 135.333 -93 228s31.333 169 94 229s137 90.333 223 91c134 0 232.333 -65 295 -195l-413 -229l-45 90l301 168c-40 39.333 -87.333 59 -142 59s-101 -19.667 -139 -59s-57 -90.333 -57 -153
s19 -113.334 57 -152.001c38 -40 87 -60 147 -60s105.333 16.667 136 50s52.334 80.333 65.001 141l113 -15c-6.66699 -83.333 -39.667 -150 -99 -200c-58.667 -54.667 -131.667 -82 -219 -82z" />
    <glyph glyph-name="f" unicode="f" horiz-adv-x="354" 
d="M377 784h-78c-80.667 0 -121 -37.333 -121 -112v-60h184v-108h-184v-504h-112v670c0 65.333 20.333 120 61 164c40.667 38 92.667 57 156 57h94v-107z" />
    <glyph glyph-name="g" unicode="g" 
d="M356 -12c-90 0 -164.998 29.334 -224.998 88.001s-90 133.667 -90 225s29.333 168 88 230s133 93 223 93s165.333 -31.333 226 -94c53.333 -60 79.666 -129.333 78.999 -208v-273c0 -112 -29.333 -196.667 -88 -254s-135.667 -86 -231 -86c-64 0 -131 12.333 -201 37
l27 100c80 -20 142.667 -30 188 -30s87 14.333 125 43c45.333 31.333 68 81.666 68 150.999v285c0.666992 68.667 -17.666 123 -54.999 163s-85 60 -143 60s-106 -22.333 -144 -67c-32.667 -44 -49 -96.333 -49 -157c0 -61.333 18.667 -110 56 -146s80.666 -54 129.999 -54
s102.666 16.333 159.999 49v-114c-45.333 -27.333 -93.333 -41 -144 -41z" />
    <glyph glyph-name="h" unicode="h" horiz-adv-x="636" 
d="M326 625c169.333 0 254 -89.668 254 -269.001v-356h-113v356c0 58.667 -14 100.334 -42 125.001c-28.667 24.667 -63.667 37 -105 37s-77 -15 -107 -45c-28.667 -31.333 -43 -70.333 -43 -117v-356h-113v891h113v-334c38 45.333 90 68 156 68z" />
    <glyph glyph-name="i" unicode="i" horiz-adv-x="354" 
d="M233 0h-112v612h112v-612zM177 815c21.333 0 37.667 -6.33398 49 -19.001c12 -12.667 18 -28.667 18 -48c0 -18.667 -6 -34.667 -18 -48s-28.333 -20 -49 -20c-21.333 0 -38 6.66699 -50 20s-18 29.333 -18 48s6 34.334 18 47.001c12 13.333 28.667 20 50 20z" />
    <glyph glyph-name="j" unicode="j" horiz-adv-x="282" 
d="M199 -53c0 -147.333 -82.667 -221 -248 -221h-33v106h29c55.333 0 92.333 9.33301 111 28s28 55.667 28 111v641h113v-665zM142 815c21.333 0 38 -6.66699 50 -20s18.333 -29 19 -47c0 -18.667 -6 -34.667 -18 -48c-12.667 -13.333 -29.667 -20 -51 -20
s-37.666 6.33301 -48.999 19s-17 29 -17 49s5.66699 36 17 48c11.333 12.667 27.666 19 48.999 19z" />
    <glyph glyph-name="k" unicode="k" horiz-adv-x="565" 
d="M178 385l47.002 -0.000976562c45.333 0 76.666 15 93.999 45l107 182h127l-80 -139c-18 -28.667 -34.333 -53 -49 -73s-30.334 -32.667 -47.001 -38v-4c94 -19.333 141 -78.666 141 -177.999v-180h-112v166c0 75.333 -33.667 113 -101 113h-127v-279h-112v891h112v-506z
" />
    <glyph glyph-name="l" unicode="l" horiz-adv-x="282" 
d="M197 0h-111v891h111v-891z" />
    <glyph glyph-name="m" unicode="m" horiz-adv-x="919" 
d="M61 416c0.666992 56 21.667 104.667 63 146s98 62 170 62s127.667 -29 167 -87c36.667 58.667 91 88 163 88c72 -0.666992 129.333 -21.667 172 -63c41.333 -41.333 62 -90 62 -146v-416h-113v389c0 39.333 -9.66699 70.666 -29 93.999c-20 23.333 -47 35 -81 35
c-79.333 0 -119 -48.333 -119 -145v-373h-113v373c0 96.667 -39.333 145 -118 145c-34 0 -61 -11.667 -81 -35s-30 -54.666 -30 -93.999v-389h-113v416z" />
    <glyph glyph-name="n" unicode="n" horiz-adv-x="636" 
d="M57 356c0 79.333 24.332 144 72.999 194c49.333 50 112 75 188 75s138.667 -25.333 188 -76s74 -115 74 -193v-356h-113v356c0 46.667 -14.333 85.667 -43 117c-33.333 30 -68.666 45 -105.999 45s-72.333 -15 -105 -45c-28.667 -31.333 -43 -70.333 -43 -117v-356h-113
v356z" />
    <glyph glyph-name="o" unicode="o" 
d="M354 518c-58.667 0 -106.667 -19.333 -144 -58s-56 -90 -56 -154s18.667 -115 56 -153c37.333 -39.333 85.333 -59 144 -59s106.667 19.333 144 58s56.333 90 57 154c-0.666992 64 -19.667 115.333 -57 154s-85.333 58 -144 58zM353 625
c87.333 0 162.333 -30.0029 225 -90.0029c62.667 -59.333 94 -135.666 94 -228.999s-31 -169.666 -93 -228.999s-137 -89 -225 -89s-161.667 29.333 -221 88c-64 60 -96 136.333 -96 229s32 169.334 96 230.001c60 60 133.333 90 220 90z" />
    <glyph glyph-name="p" unicode="p" 
d="M51 289c0 100.667 28.668 181.668 86.001 243.001s133 92 227 92c93.333 0 168.666 -32.667 225.999 -98s86 -142 86 -230s-28.667 -161.333 -86 -220s-122.666 -88 -195.999 -88s-135.666 14.333 -186.999 43v116c51.333 -35.333 105 -53 161 -53s102.667 19.333 140 58
s55.666 88.667 54.999 150c0 61.333 -19 112.666 -57 153.999c-37.333 41.333 -85.333 62 -144 62s-106.334 -21.333 -143.001 -64s-55 -104.667 -55 -186v-542h-113v563z" />
    <glyph glyph-name="q" unicode="q" 
d="M316 -12c-73.333 0 -138.668 29.6689 -196.001 89.002c-58 59.333 -87 132.666 -87 219.999s28.333 163.666 85 228.999s132 98 226 98s169.667 -31.333 227 -94s86 -143 86 -241v-563h-112v542c0 78 -19.333 141 -58 189c-36.667 40.667 -83.667 61 -141 61
s-105 -19.667 -143 -59s-57 -91 -57 -155s18 -114.667 54 -152c36 -38.667 83 -58 141 -58s111 17.667 159 53v-116c-49.333 -28.667 -110.666 -43 -183.999 -43z" />
    <glyph glyph-name="r" unicode="r" horiz-adv-x="354" 
d="M356 518h-15.999c-114.667 0 -172 -77.667 -172 -233v-285h-113v612h109v-71h2c35.333 56 90.666 84 165.999 84h24v-107z" />
    <glyph glyph-name="s" unicode="s" horiz-adv-x="565" 
d="M508 504h-282.999c-27.333 0 -46 -4 -56 -12s-15 -21.667 -15 -41c0 -28.667 32.667 -52.667 98 -72c31.333 -9.33301 62.666 -17.666 93.999 -24.999c76.667 -22 131.334 -52.667 164.001 -92c19.333 -22.667 29 -57.334 29 -104.001
c-0.666992 -46.667 -18.334 -84.667 -53.001 -114s-80.667 -44 -138 -44h-313v106h313c49.333 0 74 19.333 74 58s-64.333 73.334 -193 104.001c-78 23.333 -132.333 53.333 -163 90c-20.667 23.333 -31 52.666 -31 87.999c0 110.667 69.667 166 209 166h264v-108z" />
    <glyph glyph-name="t" unicode="t" horiz-adv-x="423" 
d="M186 612h219.999v-108h-220v-320c0 -52 28 -78 84 -78h136v-106h-150c-57.333 -0 -101.666 17.333 -132.999 52s-47 83 -47 145v567h110v-152z" />
    <glyph glyph-name="u" unicode="u" horiz-adv-x="636" 
d="M580 254c0 -79.333 -24.666 -143.667 -73.999 -193c-49.333 -48.667 -112.333 -73 -189 -73s-138 24.333 -184 73c-50.667 48 -76 112.333 -76 193v358h113v-358c0 -45.333 14.333 -83.666 43 -114.999c32.667 -30 67.667 -45 105 -45s72.666 15 105.999 45
c28.667 31.333 43 69.666 43 114.999v358h113v-358z" />
    <glyph glyph-name="v" unicode="v" horiz-adv-x="565" 
d="M283 -12c-22 0 -39.667 4 -53 12c-12.667 8 -23.667 24.333 -33 49l-213 563h122l179 -475l176 475h123l-215 -563c-8.66699 -24.667 -19.667 -41 -33 -49s-31 -12 -53 -12z" />
    <glyph glyph-name="w" unicode="w" horiz-adv-x="919" 
d="M858 197c0 -56 -20.999 -105.332 -62.999 -147.999c-44 -40.667 -96 -61 -156 -61c-80.667 0 -140 28.667 -178 86c-39.333 -57.333 -99.333 -86 -180 -86c-60 0 -112 20.333 -156 61c-42 42 -63.333 91.333 -64 148v415h113v-391c0 -38 10 -68.667 30 -92s47 -35 81 -35
c79.333 0 118.666 48.667 117.999 146v372h113v-372c0 -96.667 39.667 -145.334 119 -146.001c34 0 61 11.667 81 35s29.667 54 29 92v391h113v-415z" />
    <glyph glyph-name="x" unicode="x" horiz-adv-x="495" 
d="M305 307c0 -52 17 -98.334 51 -139.001c36.667 -39.333 80.334 -60 131.001 -62v-106c-106.667 0 -186.334 47.667 -239.001 143c-53.333 -95.333 -133.333 -143 -240 -143v106c53.333 1.33301 97.333 22 132 62s52 86 52 138c0 52.667 -17.667 98 -53 136
c-30 36.667 -73.667 57.334 -131 62.001v108c114.667 -8 194.667 -59 240 -153c16 46 46.667 83 92 111s94.333 42 147 42v-108c-54.667 -4 -98.667 -24.667 -132 -62s-50 -82.333 -50 -135z" />
    <glyph glyph-name="y" unicode="y" horiz-adv-x="636" 
d="M573 244c0 -135.333 -65.999 -220.666 -197.999 -255.999v-262h-113v262c-132.667 35.333 -199 120.666 -199 255.999v368h113v-368c0 -44 12.333 -80 37 -108s59.667 -42 105 -42s80.666 14 105.999 42c24.667 28 37 64 37 108v368h112v-368z" />
    <glyph glyph-name="z" unicode="z" horiz-adv-x="495" 
d="M342 612c78 0 117.001 -27.333 117.001 -82c0 -28.667 -6.33301 -51 -19 -67l-293 -357h316v-106h-348c-28.667 -0 -51.334 7.33301 -68.001 22c-42 37.333 -29.667 96.333 37 177l250 305h-289v108h297z" />
    <glyph glyph-name="braceleft" unicode="{" horiz-adv-x="495" 
d="M254 -63c0 -68.667 19 -103 57 -103h60v-57h-101c-35.333 0 -65.333 14.333 -90 43s-37 65.334 -37 110.001v226c0 40.667 -10 74.667 -30 102c-20.667 27.333 -44 41 -70 41v74c26 0 49.333 13 70 39s30.667 58.667 30 98v227c0 45.333 12.333 82.333 37 111
s54.667 43 90 43h101v-57h-60c-38 0 -57 -34.333 -57 -103v-237c0 -49.333 -11.667 -87 -35 -113s-45 -41 -65 -45v-2c26 -8 45.667 -20.333 59 -37c27.333 -32.667 41 -74.334 41 -125.001v-235z" />
    <glyph glyph-name="bar" unicode="|" horiz-adv-x="282" 
d="M190 0h-98v891h98v-891z" />
    <glyph glyph-name="braceright" unicode="}" horiz-adv-x="495" 
d="M242 731c0 67.333 -19.333 101.667 -58 103h-59v57h100c35.333 0 65.333 -14.333 90 -43s37 -65.667 37 -111v-225c0 -42 11 -76 33 -102c19.333 -27.333 42 -41 68 -41v-74c-26 0 -49.333 -13 -70 -39s-31 -58.667 -31 -98v-228c0 -45.333 -12.333 -82 -37 -110
s-54.667 -42.333 -90 -43h-100v57h59c15.333 0 28.333 7.66699 39 23c12 13.333 18.333 40 19 80v237c0 48 13 87.667 39 119c18 19.333 38.333 32.333 61 39v2c-24.667 6.66699 -45 19.667 -61 39c-26 28.667 -39 69.667 -39 123v235z" />
    <glyph glyph-name="asciitilde" unicode="~" horiz-adv-x="763" 
d="M519 311c21.333 0 39.0049 6.33203 53.0049 18.999s33.667 37 59 73l45 -79c-24.667 -35.333 -48.334 -62.666 -71.001 -81.999s-51.334 -29 -86.001 -29s-79.334 15 -134.001 45c-60 28.667 -110.333 43 -151 43s-74.334 -30.667 -101.001 -92l-45 80
c41.333 72 94.666 108 159.999 108c31.333 0 79 -14.333 143 -43s106.667 -43 128 -43z" />
    <glyph glyph-name="exclamdown" unicode="&#xa1;" horiz-adv-x="282" 
d="M199 -274h-107v688h107v-688zM144 473c-22.667 0 -41.333 8 -56 24c-14.667 16.667 -22 35.667 -22 57s7.33301 40 22 56s33.334 23.667 56.001 23c22.667 0 41.667 -8.33301 57 -25c15.333 -17.333 23 -36 23 -56s-8 -38 -24 -54
c-14.667 -16 -33.334 -24.333 -56.001 -25z" />
    <glyph glyph-name="cent" unicode="&#xa2;" 
d="M418 733h82v-110h-135c-102.667 -0.666992 -154 -47 -154 -139s51.333 -138 154 -138h135v-113h-82v-163h-96v163c-66.667 1.33301 -122 27.333 -166 78c-44 46.667 -66 103 -66 169s22 123.667 66 173s99.333 76 166 80v158h96v-158z" />
    <glyph glyph-name="sterling" unicode="&#xa3;" 
d="M150 625c0 82 24.6641 149.669 73.9971 203.002s114 79.666 194 78.999c40.667 0 91.667 -10 153 -30l-39 -109c-37.333 18 -76.666 27 -117.999 27s-75.666 -14 -102.999 -42s-41 -68 -41 -120c0 -10.667 1.33301 -28.334 4 -53.001c0 -26 0.666992 -45.333 2 -58h146
v-112h-141v-162c0 -65.333 -16 -109.666 -48 -132.999l5 -2h168c50.667 0 89.334 13 116.001 39c30 26 45 67.333 45 124v134h123v-125c0 -190 -96.333 -285 -289 -285h-401v113h25c51.333 -0.666992 86.333 8.33301 105 27s28 49.667 28 93v89
c-2.66699 35.333 -4 64.666 -4 87.999h-86v112h82v103z" />
    <glyph glyph-name="currency" unicode="&#xa4;" 
d="M565 446c-0.666992 60 -21 111.667 -61 155s-89.333 65 -148 65s-109 -21.333 -151 -64c-40.667 -44 -61 -96 -61 -156s20.333 -111.667 61 -155c42 -42 92.333 -63 151 -63s108 21.333 148 64s60.333 94 61 154zM352 129c-76.667 0 -139.333 22.668 -188 68.001l-72 -74
l-59 61l69 74c-42 52 -63 114.667 -63 188s21 135.666 63 186.999l-69 74l59 61l72 -74c49.333 45.333 112 68 188 68s140.333 -22.667 193 -68l69 74l62 -61l-70 -74c42.667 -50.667 64 -113 64 -187s-21.333 -136.667 -64 -188l70 -74l-62 -61l-69 74
c-52 -45.333 -116.333 -68 -193 -68z" />
    <glyph glyph-name="yen" unicode="&#xa5;" 
d="M692 780c-56 0 -105.332 -16.334 -147.999 -49.001s-75.334 -75.667 -98.001 -129h209v-113h-235c-2.66699 -19.333 -4 -33.666 -4 -42.999v-32h239v-113h-239v-301h-125v301h-238v113h238v32c0 19.333 -0.666992 33.666 -2 42.999h-236v113h209
c-20.667 50.667 -52.667 93.667 -96 129c-44 32.667 -94.667 49 -152 49v111c80.667 -2.66699 153 -26.667 217 -72s104.333 -106 121 -182h4c15.333 76.667 55 137.334 119 182.001s136.333 68.667 217 72v-111z" />
    <glyph glyph-name="brokenbar" unicode="&#xa6;" horiz-adv-x="282" 
d="M190 0h-98v334h98v-334zM190 557h-98v334h98v-334z" />
    <glyph glyph-name="section" unicode="&#xa7;" horiz-adv-x="636" 
d="M231 528c-38 0 -57.001 -19 -57.001 -57c0 -20.667 15.667 -50 47 -88c27.333 -36.667 59.333 -70.334 96 -101.001s63.667 -46 81 -46s32.333 5 45 15s19 22.333 19 37s-15.333 43.334 -46 86.001c-31.333 42.667 -63.666 77 -96.999 103c-38 34 -67.333 51 -88 51z
M138.999 753c-0.666992 46 16.998 83.002 52.998 111.002s77.667 42.333 125 43c72.667 0 138.334 -34.667 197.001 -104l-74 -60c-27.333 31.333 -49.666 52.333 -66.999 63c-18 10 -36.667 15 -56 15s-36.333 -6.66699 -51 -20s-21.334 -32 -20.001 -56
c0 -24.667 22 -59 66 -103s76 -74.333 96 -91c66.667 -61.333 112.334 -115.333 137.001 -162c16.667 -27.333 25 -58 25 -92s-14.333 -63.333 -43 -88c-28 -24.667 -60.333 -40.334 -97 -47.001c45.333 -53.333 68 -105 68 -155s-19.333 -88.667 -58 -116
s-81.667 -41 -129 -41s-85 8.66699 -113 26s-59.333 44.333 -94 81l80 61c34 -54.667 76.333 -81.667 127 -81c22 0 41 6.66699 57 20s24 33 24 59s-28.333 69.667 -85 131l-78 78c-68 65.333 -113.667 118.666 -137 159.999c-16.667 24.667 -24.667 50 -24 76
c0 90 48.333 137 145 141c-49.333 54.667 -74 105 -74 151z" />
    <glyph glyph-name="copyright" unicode="&#xa9;" horiz-adv-x="1019" 
d="M662 537c-12 69.333 -62.667 103.999 -152 103.999c-45.333 0 -82 -18 -110 -54s-42 -81.333 -42 -136s15 -101.334 45 -140.001c31.333 -38 69 -57 113 -57s78.667 10 104 30c24 20 38 46 42 78h90c-10.667 -60 -36.667 -107.333 -78 -142s-90.666 -52 -147.999 -52
c-82 0 -146.667 27.333 -194 82c-49.333 52 -74 118.333 -74 199s23.333 147.334 70 200.001c50.667 53.333 111 80 181 80s125.667 -16.667 167 -50s66.666 -80.666 75.999 -141.999h-90zM510 824.999c-102.667 -0.666992 -188.667 -37 -258 -109s-104 -162.333 -104 -271
s34.667 -199 104 -271s155.333 -108 258 -108s188.334 35.667 257.001 107s103 162 103 272s-34.333 201 -103 273s-154.334 107.667 -257.001 107zM510 906.999c128.667 0 239 -43.999 331 -131.999s138 -198 138 -330c0 -132.667 -46.333 -242.334 -139 -329.001
c-93.333 -86.667 -203.333 -130 -330 -130s-236 42.333 -328 127c-94 90 -141 201 -141 333s46 241.667 138 329c92 88 202.333 132 331 132z" />
    <glyph glyph-name="ordfeminine" unicode="&#xaa;" horiz-adv-x="425" 
d="M194 524c-45.333 0 -87.999 18.665 -127.999 55.998c-38.667 37.333 -58 83 -58 137c0 53.333 18.333 98.333 55 135c39.333 36.667 89.666 55 150.999 55s110.666 -15.667 147.999 -47c36.667 -31.333 55.334 -73.666 56.001 -126.999v-201h-80v207
c0 32.667 -12 58 -36 76s-54.333 27 -91 27s-66.667 -12.333 -90 -37s-35 -54.667 -35 -90s12 -64.666 36 -87.999s55 -35 93 -35s70.667 15.667 98 47v-78c-34 -24.667 -73.667 -37 -119 -37z" />
    <glyph glyph-name="guillemotleft" unicode="&#xab;" horiz-adv-x="636" 
d="M395 305l166 -196h-98l-164 196l158 197h96zM178 305l166 -196h-96l-166 196l158 197h96z" />
    <glyph glyph-name="logicalnot" unicode="&#xac;" horiz-adv-x="763" 
d="M688 129h-100v254h-512v98h612v-352z" />
    <glyph glyph-name="uni00AD" unicode="&#xad;" horiz-adv-x="354" 
d="M319 254h-284v102h284v-102z" />
    <glyph glyph-name="registered" unicode="&#xae;" horiz-adv-x="1019" 
d="M416 639v-157.999h110c38 -0.666992 65.667 5.66602 83 18.999s26 35 26 65c0 49.333 -38.333 74 -115 74h-104zM530 709.001c64 0 112 -12 144 -36s47.667 -62.667 47 -116c0 -83.333 -45.667 -131 -137 -143l147 -232h-94l-137 228h-84v-228h-86v527h200zM510 825.001
c-102.667 -0.666992 -188.667 -37 -258 -109s-104 -162.333 -104 -271s34.667 -199 104 -271s155.333 -108 258 -108s188.334 35.667 257.001 107s103 162 103 272s-34.333 201 -103 273s-154.334 107.667 -257.001 107zM510 907.001c128.667 0 239 -43.999 331 -131.999
s138 -198 138 -330c0 -132.667 -46.333 -242.334 -139 -329.001c-93.333 -86.667 -203.333 -130 -330 -130s-236 42.333 -328 127c-94 90 -141 201 -141 333s46 241.667 138 329c92 88 202.333 132 331 132z" />
    <glyph glyph-name="degree" unicode="&#xb0;" horiz-adv-x="509" 
d="M255 850c-34.667 0 -63.667 -12 -87 -36s-35 -53.667 -35 -89s11.667 -65.333 35 -90s52.333 -37 87 -37s63.334 12 86.001 36s34 54 34 90s-11.333 66 -34 90s-51.334 36 -86.001 36zM256 907c53.333 0 96.668 -17.333 130.001 -52s50 -78 50 -130
s-17.333 -95.333 -52 -130s-77.334 -52 -128.001 -52s-94 17.333 -130 52s-54 78 -54 130s18.333 95 55 129c32.667 35.333 75.667 53 129 53z" />
    <glyph glyph-name="plusminus" unicode="&#xb1;" horiz-adv-x="763" 
d="M688 0h-612v100h612v-100zM432 426h256v-98h-256v-185h-100v185h-256v98h256v186h100v-186z" />
    <glyph glyph-name="twosuperior" unicode="&#xb2;" horiz-adv-x="423" 
d="M218 838c-33.333 0 -60.332 -9.99805 -80.999 -29.998s-31 -45.333 -31 -76s11 -55.334 33 -74.001s46 -29.667 72 -33l-78 -50c-78 27.333 -117 81.333 -117 162c0 50.667 21.333 91.667 64 123c38 31.333 84.667 47 140 47s101.666 -16 138.999 -48
c38 -31.333 57 -69.666 57 -114.999s-12.333 -82.333 -37 -111c-18 -24.667 -49.333 -53.334 -94 -86.001l-162 -113v-2h287v-70h-324c-52 0 -78 19.333 -78 58l2 15c0 8.66699 6 16.667 18 24c12 8 19.667 13.667 23 17c4 3.33301 7.33301 5.66602 10 6.99902l203 150
c42.667 31.333 64 64 64 98s-10 60.333 -30 79s-46.667 28 -80 28z" />
    <glyph glyph-name="threesuperior" unicode="&#xb3;" horiz-adv-x="423" 
d="M289 899c54.667 0 81.999 -19.668 81.999 -59.001c0.666992 -20 -6.33301 -36.333 -21 -49s-31 -25.667 -49 -39l-78 -60v-2c54.667 0 99.334 -14 134.001 -42c35.333 -28 53 -66.667 53 -116s-16 -89.666 -48 -120.999c-32 -32 -73.333 -48.333 -124 -49h-220v70h187
c36.667 0 65.334 9.33301 86.001 28s31 42 31 70s-12.333 50 -37 66c-24.667 16.667 -58.334 25 -101.001 25h-92v55l184 151v2h-243v70h256z" />
    <glyph glyph-name="paragraph" unicode="&#xb6;" horiz-adv-x="763" 
d="M35 651c0 160 98.999 240 296.999 240h334v-1061h-109v981h-141v-981h-107v590c-83.333 0 -149.666 22 -198.999 66s-74.333 99 -75 165z" />
    <glyph glyph-name="periodcentered" unicode="&#xb7;" horiz-adv-x="354" 
d="M177 381c20.667 0 38.332 -7.33398 52.999 -22.001c14.667 -14 22 -31.667 22 -53s-7.66699 -39.333 -23 -54s-33 -21.667 -53 -21c-20 0 -37.333 7.33301 -52 22c-14.667 15.333 -22 33 -22 53s7.33301 37.333 22 52s32.334 22.334 53.001 23.001z" />
    <glyph glyph-name="onesuperior" unicode="&#xb9;" horiz-adv-x="423" 
d="M268 362h-90v467h-98l20 70h168v-537z" />
    <glyph glyph-name="ordmasculine" unicode="&#xba;" horiz-adv-x="425" 
d="M213 842c-38 0 -68.667 -11.333 -92 -34s-35 -53 -35 -91s11.667 -68.333 35 -91s54 -34 92 -34s68.667 11.333 92 34s35 53 35 91s-11.667 68.333 -35 91s-54 34 -92 34zM212 907c58 0 106.667 -17.667 146 -53c44 -35.333 66 -81 66 -137s-21.333 -102 -64 -138
c-42.667 -36.667 -92 -55 -148 -55c-55.333 0 -104 18 -146 54s-63.333 82.333 -64 139c0 57.333 21.333 103 64 137c39.333 35.333 88 53 146 53z" />
    <glyph glyph-name="guillemotright" unicode="&#xbb;" horiz-adv-x="636" 
d="M555 305l-166 -196h-96l166 196l-158 197h96zM338 305l-164 -196h-98l166 196l-158 197h96z" />
    <glyph glyph-name="onequarter" unicode="&#xbc;" horiz-adv-x="1062" 
d="M942 190h80v-67h-80v-123h-90v123h-211c-35.333 0 -53 15 -53 45c0 14 8 32.333 24 55l187 312h92l-209 -345h170v232l86 119l4 4v-355zM268 362h-90v467h-98l20 70h168v-537zM297 -14h-88l551 921h88z" />
    <glyph glyph-name="onehalf" unicode="&#xbd;" horiz-adv-x="1062" 
d="M855 475c-33.333 0 -60.332 -10 -80.999 -30c-20.667 -19.333 -31 -44.333 -31 -75s11 -55.334 33 -74.001s46 -30 72 -34l-78 -49c-78 27.333 -117 80.666 -117 159.999c0 52 21.333 93.667 64 125c38 31.333 84.667 47 140 47s101.666 -16 138.999 -48
c37.333 -32.667 56 -71 56 -115s-10.667 -80.667 -32 -110c-22 -29.333 -54.667 -58.666 -98 -87.999l-162 -112v-2h287v-70h-324c-52 0 -78 18.333 -78 55l2 16c-0.666992 8 2.33301 14 9 18c6.66699 4.66699 11.667 8.33398 15 11.001s6 4.66699 8 6s5 4 9 8
s7.33301 6.33301 10 7l203 147c42 34.667 63 68.667 63 102s-9.66699 59.333 -29 78c-20 18.667 -46.667 27.667 -80 27zM268.001 362h-90v467h-98l20 70h168v-537zM281.001 -14h-86l548 921h88z" />
    <glyph glyph-name="threequarters" unicode="&#xbe;" horiz-adv-x="1062" 
d="M942 190h80v-67h-80v-123h-90v123h-211c-35.333 0 -53 15 -53 45c0 14 8 32.333 24 55l187 312h92l-209 -345h170v232l86 119l4 4v-355zM289 899c54.667 0 81.999 -19.668 81.999 -59.001c0.666992 -20 -6.33301 -36.333 -21 -49s-31 -25.667 -49 -39l-78 -60v-2
c54.667 0 99.334 -14 134.001 -42c35.333 -28 53 -66.667 53 -116s-16 -89.666 -48 -120.999c-32 -32 -73.333 -48.333 -124 -49h-220v70h187c36.667 0 65.334 9.33301 86.001 28s31 42 31 70s-12.333 50 -37 66c-24.667 16.667 -58.334 25 -101.001 25h-92v55l184 151v2
h-243v70h256zM335.999 -14.001h-88l549 921h88z" />
    <glyph glyph-name="questiondown" unicode="&#xbf;" horiz-adv-x="565" 
d="M344 133h-33c-61.333 0 -107.333 -14 -138 -42s-46 -65.333 -46 -112c0 -46 13 -83.667 39 -113c26.667 -29.333 62.667 -44 108 -44s80 16.333 104 49s36 73 36 121h118c0 -78 -24.333 -145 -73 -201c-50 -54.667 -113 -82 -189 -82s-138 26 -186 78
c-50.667 51.333 -76 113 -76 185s20.667 132 62 180s95 78 161 90v172h113v-281zM288 633c22.667 0 41.332 -8.33301 55.999 -25c14.667 -17.333 22.334 -36 23.001 -56c0 -20 -7.66699 -38 -23 -54c-14.667 -16 -33.334 -24.333 -56.001 -25c-22.667 0 -41.667 8 -57 24
c-15.333 16.667 -23 35.667 -23 57s8 40 24 56c14.667 16 33.334 23.667 56.001 23z" />
    <glyph glyph-name="Agrave" unicode="&#xc0;" 
d="M49 565c0 105.333 29 188.666 87 249.999s130.667 92 218 92s160 -30.667 218 -92s87 -144.666 87 -249.999v-565h-120v406h-322v112h322v55c-0.666992 70 -17.667 124.333 -51 163s-78 58 -134 58s-100.667 -19.333 -134 -58s-50 -93 -50 -163v-573h-121v565zM438 942
h-86l-166 182h138z" />
    <glyph glyph-name="Aacute" unicode="&#xc1;" 
d="M49 565c0 105.333 29 188.666 87 249.999s130.667 92 218 92s160 -30.667 218 -92s87 -144.666 87 -249.999v-565h-120v406h-322v112h322v55c-0.666992 70 -17.667 124.333 -51 163s-78 58 -134 58s-100.667 -19.333 -134 -58s-50 -93 -50 -163v-573h-121v565zM356 942
h-86l115 182h137z" />
    <glyph glyph-name="Acircumflex" unicode="&#xc2;" 
d="M49 565c0 105.333 29 188.666 87 249.999s130.667 92 218 92s160 -30.667 218 -92s87 -144.666 87 -249.999v-565h-120v406h-322v112h322v55c-0.666992 70 -17.667 124.333 -51 163s-78 58 -134 58s-100.667 -19.333 -134 -58s-50 -93 -50 -163v-573h-121v565zM541 942
h-103l-84 121l-84 -121h-102l127 182h119z" />
    <glyph glyph-name="Atilde" unicode="&#xc3;" 
d="M49 565c0 105.333 29 188.666 87 249.999s130.667 92 218 92s160 -30.667 218 -92s87 -144.666 87 -249.999v-565h-120v406h-322v112h322v55c-0.666992 70 -17.667 124.333 -51 163s-78 58 -134 58s-100.667 -19.333 -134 -58s-50 -93 -50 -163v-573h-121v565zM528 1004
c-23.333 -27.333 -50.666 -41 -81.999 -41c-31.333 0.666992 -69.333 9 -114 25c-44 16 -71.333 24 -82 24s-21.334 -6 -32.001 -18s-17 -25.333 -19 -40h-62c2.66699 40 15.667 73.333 39 100s54.666 40 93.999 40c16 0 46 -8.33301 90 -25s72.667 -25 86 -25
c38 0 59.333 19.333 64 58h61c-5.33301 -38 -19.666 -70.667 -42.999 -98z" />
    <glyph glyph-name="Adieresis" unicode="&#xc4;" 
d="M49 565c0 105.333 29 188.666 87 249.999s130.667 92 218 92s160 -30.667 218 -92s87 -144.666 87 -249.999v-565h-120v406h-322v112h322v55c-0.666992 70 -17.667 124.333 -51 163s-78 58 -134 58s-100.667 -19.333 -134 -58s-50 -93 -50 -163v-573h-121v565zM385 1021
c-0.666992 22 5.66602 39.667 18.999 53s30.666 20 51.999 20s38.666 -6.66699 51.999 -20s20 -31 20 -53c0 -21.333 -6.66699 -38.333 -20 -51c-13.333 -13.333 -30.666 -20 -51.999 -20s-38.666 6.66699 -51.999 20s-19.666 30.333 -18.999 51zM253 1094
c21.333 0 38.332 -6.66699 50.999 -20c13.333 -13.333 20 -31 20 -53c0 -21.333 -6.66699 -38.333 -20 -51c-13.333 -13.333 -30.333 -20 -51 -20c-21.333 0 -38.666 6.66699 -51.999 20c-14 13.333 -21 30.333 -21 51c0 22 6.66699 39.667 20 53s31 20 53 20z" />
    <glyph glyph-name="Aring" unicode="&#xc5;" 
d="M49 565c0 105.333 29 188.666 87 249.999s130.667 92 218 92s160 -30.667 218 -92s87 -144.666 87 -249.999v-565h-120v406h-322v112h322v55c-0.666992 70 -17.667 124.333 -51 163s-78 58 -134 58s-100.667 -19.333 -134 -58s-50 -93 -50 -163v-573h-121v565zM354 1137
c-20.667 0.666992 -37.3359 -5.66602 -50.0029 -18.999s-19 -30.333 -19 -51s6.33301 -37 19 -49s29.334 -18 50.001 -18s37.334 6 50.001 18s19.334 28.333 20.001 49c0 20.667 -6.66699 37.667 -20 51s-30 19.666 -50 18.999zM352.998 1198
c37.333 0 68.335 -12.666 93.002 -37.999s37 -56.333 37 -93s-12.333 -67.334 -37 -92.001s-55.334 -37 -92.001 -37s-67.667 12.333 -93 37s-38 55 -38 91s13 67 39 93c23.333 26 53.666 39 90.999 39z" />
    <glyph glyph-name="AE" unicode="&#xc6;" horiz-adv-x="1132" 
d="M35 565c0 106.667 28.667 190.333 86 251s129.666 91 216.999 91c146 0 243.667 -62 293 -186c56 65.333 112.333 110 169 134s126.667 36 210 36h80v-111h-80c-100 0 -182.667 -29 -248 -87s-99.666 -116.333 -102.999 -175h431v-112h-431
c5.33301 -82 40.333 -151.667 105 -209c60 -56 130.333 -84 211 -84h115v-113h-60c-105.333 0 -185.666 14.667 -240.999 44s-99.333 65.333 -132 108h-2v-152h-120v406h-330v112h330v55c0.666992 70 -16.333 124.333 -51 163s-81.334 58 -140.001 58s-105 -19.333 -139 -58
s-51 -93 -51 -163v-573h-119v565z" />
    <glyph glyph-name="Ccedilla" unicode="&#xc7;" horiz-adv-x="636" 
d="M604 780l-80 -0.00390625c-102.667 0 -187.334 -31.667 -254.001 -95s-100 -145.666 -100 -246.999s32 -180.666 96 -237.999s134.333 -86.333 211 -87h127v-113h-110l-52 -68c20 2.66699 40 4 60 4s39.333 -8.33301 58 -25c18.667 -17.333 28 -41.666 28 -72.999
s-12.667 -58 -38 -80c-25.333 -21.333 -61 -32 -107 -32s-89.333 8.66699 -130 26l23 51c30 -13.333 58 -20 84 -20c48 0 72 17.333 72 52s-20.667 52 -62 52c-15.333 0 -31 -3.33301 -47 -10l-25 27l74 98c-113.333 10.667 -205.333 57.667 -276 141
c-74 82 -111 181.667 -111 299s43.333 221.333 130 312s198.334 136.334 335.001 137.001h94v-111z" />
    <glyph glyph-name="Egrave" unicode="&#xc8;" horiz-adv-x="636" 
d="M584 780l-79.999 0.000976562c-105.333 0 -189.333 -30.333 -252 -91s-95.334 -117.667 -98.001 -171h430v-112h-430c5.33301 -82 39 -151.333 101 -208s133.333 -85 214 -85h115v-113h-95c-131.333 0 -241 42.667 -329 128s-131.667 190.666 -131 315.999
c0 125.333 43.667 232 131 320c87.333 84.667 197 127 329 127h95v-111zM514.001 942.001h-88l-164 182h137z" />
    <glyph glyph-name="Eacute" unicode="&#xc9;" horiz-adv-x="636" 
d="M584 780l-79.999 0.000976562c-105.333 0 -189.333 -30.333 -252 -91s-95.334 -117.667 -98.001 -171h430v-112h-430c5.33301 -82 39 -151.333 101 -208s133.333 -85 214 -85h115v-113h-95c-131.333 0 -241 42.667 -329 128s-131.667 190.666 -131 315.999
c0 125.333 43.667 232 131 320c87.333 84.667 197 127 329 127h95v-111zM432.001 942.001h-86l115 182h137z" />
    <glyph glyph-name="Ecircumflex" unicode="&#xca;" horiz-adv-x="636" 
d="M584 780l-79.999 0.000976562c-105.333 0 -189.333 -30.333 -252 -91s-95.334 -117.667 -98.001 -171h430v-112h-430c5.33301 -82 39 -151.333 101 -208s133.333 -85 214 -85h115v-113h-95c-131.333 0 -241 42.667 -329 128s-131.667 190.666 -131 315.999
c0 125.333 43.667 232 131 320c87.333 84.667 197 127 329 127h95v-111zM614.001 942.001h-100l-84 121l-84 -121h-102l127 182h116z" />
    <glyph glyph-name="Edieresis" unicode="&#xcb;" horiz-adv-x="636" 
d="M584 780l-79.999 0.000976562c-105.333 0 -189.333 -30.333 -252 -91s-95.334 -117.667 -98.001 -171h430v-112h-430c5.33301 -82 39 -151.333 101 -208s133.333 -85 214 -85h115v-113h-95c-131.333 0 -241 42.667 -329 128s-131.667 190.666 -131 315.999
c0 125.333 43.667 232 131 320c87.333 84.667 197 127 329 127h95v-111zM461.001 1021c0 22 6.33203 39.667 18.999 53s29.667 20 51 20c20.667 0 37.667 -6.66699 51 -20s20 -31 20 -53c0 -21.333 -6.33301 -38.333 -19 -51c-12.667 -13.333 -29.667 -20 -51 -20
s-38.666 6.66699 -51.999 20c-12.667 13.333 -19 30.333 -19 51zM256 1021c0 22 6.66699 39.667 20 53s30.333 20 51 20c21.333 0 38.666 -6.66699 51.999 -20s20 -31 20 -53c0 -21.333 -6.66699 -38.333 -20 -51c-13.333 -13.333 -30.666 -20 -51.999 -20
c-20.667 0 -37.667 6.66699 -51 20s-20 30.333 -20 51z" />
    <glyph glyph-name="Igrave" unicode="&#xcc;" horiz-adv-x="282" 
d="M201 0h-119v891h119v-891zM219 942h-86l-166 182h137z" />
    <glyph glyph-name="Iacute" unicode="&#xcd;" horiz-adv-x="282" 
d="M201 0h-119v891h119v-891zM137 942h-86l115 182h137z" />
    <glyph glyph-name="Icircumflex" unicode="&#xce;" horiz-adv-x="282" 
d="M201 0h-119v891h119v-891zM322 942h-103l-84 121l-84 -121h-102l127 182h119z" />
    <glyph glyph-name="Idieresis" unicode="&#xcf;" horiz-adv-x="282" 
d="M201 0h-119v891h119v-891zM166 1021c0 22 6.66699 39.667 20 53s30.333 20 51 20c21.333 0 38.666 -6.66699 51.999 -20s20 -31 20 -53c0 -21.333 -6.66699 -38.333 -20 -51c-13.333 -13.333 -30.666 -20 -51.999 -20c-20.667 0 -37.667 6.66699 -51 20
s-20 30.333 -20 51zM34 1094c21.333 0 38.333 -6.66699 51 -20s19 -31 19 -53c0 -21.333 -6.33301 -38.333 -19 -51c-12.667 -13.333 -29.667 -20 -51 -20s-38.666 6.66699 -51.999 20s-20 30.333 -20 51c0 22 6.66699 39.667 20 53s30.666 20 51.999 20z" />
    <glyph glyph-name="Eth" unicode="&#xd0;" horiz-adv-x="778" 
d="M297 891c124 0 227.667 -44.333 311 -133c83.333 -88 125 -192.667 125 -314s-41.667 -225.666 -125 -312.999s-187 -131 -311 -131h-55v113h65c84.667 0 156 31.667 214 95c58 64 87 144.667 87 242s-32.333 176.666 -97 237.999s-147 92 -247 92h-74v-262h218v-112
h-218v-406h-118v406h-97v112h97v373h225z" />
    <glyph glyph-name="Ntilde" unicode="&#xd1;" horiz-adv-x="778" 
d="M63 791c0 72.667 35 108.667 105 108c30.667 0 54.667 -9 72 -27s39 -52.667 65 -104l287 -592h2v715h119v-813c0 -57.333 -30 -86 -90 -86c-30 0 -53.667 6 -71 18s-33.333 35.333 -48 70l-318 651h-2v-731h-121v791zM581 1006c-24 -28.667 -51.998 -43 -83.998 -43
c-32 0.666992 -70 9 -114 25s-71.333 24 -82 24c-10 0 -20.333 -6 -31 -18s-17.334 -25.333 -20.001 -40h-62c2.66699 40 15.667 73.333 39 100s55 40 95 40c13.333 0 44.666 -8.33301 93.999 -25c40.667 -16.667 68 -25 82 -25c38 0 59 19.333 63 58h62
c-4 -35.333 -18 -67.333 -42 -96z" />
    <glyph glyph-name="Ograve" unicode="&#xd2;" horiz-adv-x="991" 
d="M496 795c-97.333 -0.666992 -178.667 -35 -244 -103s-98 -150 -98 -246s32.667 -178 98 -246c65.333 -69.333 146.666 -104 243.999 -104s178.333 34.667 243 104c65.333 69.333 98.333 151.333 99 246c0 95.333 -32.667 177.333 -98 246s-146.666 103 -243.999 103z
M495.999 907c125.333 0 234.334 -44.332 327.001 -132.999c92.667 -92.667 139 -202.667 139 -330c0 -126.667 -46 -234.667 -138 -324s-201.333 -134 -328 -134s-236 44.333 -328 133s-138.333 197.667 -139 327c0 129.333 46.333 238.666 139 327.999
c93.333 88.667 202.666 133 327.999 133zM580 942.001h-86l-166 182h137z" />
    <glyph glyph-name="Oacute" unicode="&#xd3;" horiz-adv-x="991" 
d="M496 795c-97.333 -0.666992 -178.667 -35 -244 -103s-98 -150 -98 -246s32.667 -178 98 -246c65.333 -69.333 146.666 -104 243.999 -104s178.333 34.667 243 104c65.333 69.333 98.333 151.333 99 246c0 95.333 -32.667 177.333 -98 246s-146.666 103 -243.999 103z
M495.999 907c125.333 0 234.334 -44.332 327.001 -132.999c92.667 -92.667 139 -202.667 139 -330c0 -126.667 -46 -234.667 -138 -324s-201.333 -134 -328 -134s-236 44.333 -328 133s-138.333 197.667 -139 327c0 129.333 46.333 238.666 139 327.999
c93.333 88.667 202.666 133 327.999 133zM498 942.001h-86l114 182h138z" />
    <glyph glyph-name="Ocircumflex" unicode="&#xd4;" horiz-adv-x="991" 
d="M496 795c-97.333 -0.666992 -178.667 -35 -244 -103s-98 -150 -98 -246s32.667 -178 98 -246c65.333 -69.333 146.666 -104 243.999 -104s178.333 34.667 243 104c65.333 69.333 98.333 151.333 99 246c0 95.333 -32.667 177.333 -98 246s-146.666 103 -243.999 103z
M495.999 907c125.333 0 234.334 -44.332 327.001 -132.999c92.667 -92.667 139 -202.667 139 -330c0 -126.667 -46 -234.667 -138 -324s-201.333 -134 -328 -134s-236 44.333 -328 133s-138.333 197.667 -139 327c0 129.333 46.333 238.666 139 327.999
c93.333 88.667 202.666 133 327.999 133zM682 942.001h-102l-84 121l-84 -121h-103l127 182h119z" />
    <glyph glyph-name="Otilde" unicode="&#xd5;" horiz-adv-x="991" 
d="M496 795c-97.333 -0.666992 -178.667 -35 -244 -103s-98 -150 -98 -246s32.667 -178 98 -246c65.333 -69.333 146.666 -104 243.999 -104s178.333 34.667 243 104c65.333 69.333 98.333 151.333 99 246c0 95.333 -32.667 177.333 -98 246s-146.666 103 -243.999 103z
M495.999 907c125.333 0 234.334 -44.332 327.001 -132.999c92.667 -92.667 139 -202.667 139 -330c0 -126.667 -46 -234.667 -138 -324s-201.333 -134 -328 -134s-236 44.333 -328 133s-138.333 197.667 -139 327c0 129.333 46.333 238.666 139 327.999
c93.333 88.667 202.666 133 327.999 133zM670 1004c-23.333 -27.333 -51.001 -40.999 -83.001 -40.999c-32 0.666992 -70 9 -114 25s-71.333 24 -82 24c-10 0 -20.333 -6 -31 -18s-17.334 -25.333 -20.001 -40h-61c2.66699 39.333 15.334 72.666 38.001 99.999
c23.333 26.667 55 40 95 40c16.667 0 46.667 -8.33301 90 -25s72 -25 86 -25c38 0 59 19.333 63 58h62c-5.33301 -38 -19.666 -70.667 -42.999 -98z" />
    <glyph glyph-name="Odieresis" unicode="&#xd6;" horiz-adv-x="991" 
d="M496 795c-97.333 -0.666992 -178.667 -35 -244 -103s-98 -150 -98 -246s32.667 -178 98 -246c65.333 -69.333 146.666 -104 243.999 -104s178.333 34.667 243 104c65.333 69.333 98.333 151.333 99 246c0 95.333 -32.667 177.333 -98 246s-146.666 103 -243.999 103z
M495.999 907c125.333 0 234.334 -44.332 327.001 -132.999c92.667 -92.667 139 -202.667 139 -330c0 -126.667 -46 -234.667 -138 -324s-201.333 -134 -328 -134s-236 44.333 -328 133s-138.333 197.667 -139 327c0 129.333 46.333 238.666 139 327.999
c93.333 88.667 202.666 133 327.999 133zM597 1094c21.333 0 38.667 -6.66699 52 -20c14 -13.333 21 -31 21 -53c0 -21.333 -6.66699 -38.333 -20 -51c-13.333 -13.333 -31 -20 -53 -20c-21.333 0 -38.333 6.66699 -51 20c-13.333 13.333 -20 30.333 -20 51
c0 22 6.66699 39.667 20 53s30.333 20 51 20zM394.001 1094c21.333 0 38.332 -6.66699 50.999 -20s19 -31 19 -53c0 -21.333 -6 -38.333 -18 -51c-13.333 -13.333 -30.666 -20 -51.999 -20s-38.666 6.66699 -51.999 20s-20 30.333 -20 51c0 22 6.66699 39.667 20 53
s30.666 20 51.999 20z" />
    <glyph glyph-name="multiply" unicode="&#xd7;" horiz-adv-x="763" 
d="M688 541l-235 -236l235 -235l-70 -70l-235 236l-236 -236l-71 70l235 235l-235 236l71 71l236 -237l235 237z" />
    <glyph glyph-name="Oslash" unicode="&#xd8;" horiz-adv-x="991" 
d="M508 96c88.667 0 165.667 34.667 231 104c66 69.333 99 148 99 236c0 88.667 -24.667 164 -74 226l-479 -492c60 -49.333 134.333 -74 223 -74zM482 795c-88 -0.666992 -164.667 -35 -230 -103s-98 -146 -98 -234s23.667 -164.333 71 -229l482 494
c-61.333 48 -136.333 72 -225 72zM963 433c-0.666992 -119.333 -46.999 -223.669 -138.999 -313.002s-196.667 -134 -314 -134s-219 33.333 -305 100l-99 -100h-118l155 159c-76.667 84.667 -115 188.334 -115 311.001s46.667 228.334 140 317.001
c93.333 89.333 198.666 134 315.999 134s218 -34 302 -102l99 102h119l-156 -159c76.667 -90 115 -195 115 -315z" />
    <glyph glyph-name="Ugrave" unicode="&#xd9;" 
d="M649 293c0 -84.667 -28.332 -157 -84.999 -217s-127.334 -90 -212.001 -90s-154.667 29.333 -210 88s-83 131.667 -83 219v598h119v-586c0 -64 15 -113 45 -147c30 -41.333 72.667 -62 128 -62s99.333 20.667 132 62c30 34 45 83 45 147v586h121v-598zM438.001 942h-86
l-166 182h138z" />
    <glyph glyph-name="Uacute" unicode="&#xda;" 
d="M649 293c0 -84.667 -28.332 -157 -84.999 -217s-127.334 -90 -212.001 -90s-154.667 29.333 -210 88s-83 131.667 -83 219v598h119v-586c0 -64 15 -113 45 -147c30 -41.333 72.667 -62 128 -62s99.333 20.667 132 62c30 34 45 83 45 147v586h121v-598zM356.001 942h-86
l115 182h137z" />
    <glyph glyph-name="Ucircumflex" unicode="&#xdb;" 
d="M649 293c0 -84.667 -28.332 -157 -84.999 -217s-127.334 -90 -212.001 -90s-154.667 29.333 -210 88s-83 131.667 -83 219v598h119v-586c0 -64 15 -113 45 -147c30 -41.333 72.667 -62 128 -62s99.333 20.667 132 62c30 34 45 83 45 147v586h121v-598zM541.001 942h-103
l-84 121l-84 -121h-102l127 182h119z" />
    <glyph glyph-name="Udieresis" unicode="&#xdc;" 
d="M649 293c0 -84.667 -28.332 -157 -84.999 -217s-127.334 -90 -212.001 -90s-154.667 29.333 -210 88s-83 131.667 -83 219v598h119v-586c0 -64 15 -113 45 -147c30 -41.333 72.667 -62 128 -62s99.333 20.667 132 62c30 34 45 83 45 147v586h121v-598zM385.001 1021
c-0.666992 22 5.66602 39.667 18.999 53s30.666 20 51.999 20s38.666 -6.66699 51.999 -20s20 -31 20 -53c0 -21.333 -6.66699 -38.333 -20 -51c-13.333 -13.333 -30.666 -20 -51.999 -20s-38.666 6.66699 -51.999 20s-19.666 30.333 -18.999 51zM253.001 1094
c21.333 0 38.332 -6.66699 50.999 -20c13.333 -13.333 20 -31 20 -53c0 -21.333 -6.66699 -38.333 -20 -51c-13.333 -13.333 -30.333 -20 -51 -20c-21.333 0 -38.666 6.66699 -51.999 20c-14 13.333 -21 30.333 -21 51c0 22 6.66699 39.667 20 53s31 20 53 20z" />
    <glyph glyph-name="Yacute" unicode="&#xdd;" horiz-adv-x="636" 
d="M606 623c0 -62.667 -19.001 -119.333 -57.001 -170s-96 -85.667 -174 -105v-348h-119v348c-78 20.667 -135.333 57 -172 109c-36.667 48 -55 103.333 -55 166v268h121v-270c0 -50.667 15.333 -90 46 -118s71.334 -42 122.001 -42s91.667 14 123 42
c30.667 28 46 67.333 46 118v270h119v-268zM349.999 942.001h-86l115 182h137z" />
    <glyph glyph-name="Thorn" unicode="&#xde;" horiz-adv-x="636" 
d="M348 745c80.667 0 147.999 -27.666 201.999 -82.999c54 -54.667 81 -121.334 81 -200.001s-24.667 -146 -74 -202s-112.666 -84 -189.999 -84h-150v113h129c45.333 0 84 14.667 116 44s48 71 48 125s-16 97 -48 129s-73 48 -123 48s-90.667 -16.333 -122 -49
s-47 -77.667 -47 -135v-451h-119v891h119v-201c38 36.667 97.333 55 178 55z" />
    <glyph glyph-name="germandbls" unicode="&#xdf;" horiz-adv-x="778" 
d="M139 655c0.666992 74 22.332 131.668 64.999 173.001s98.667 62 168 62s123.333 -17 162 -51c38.667 -35.333 58 -76.333 58 -123s-13.667 -86 -41 -118c-20.667 -20.667 -54 -43.334 -100 -68.001c90 -34 154 -68.667 192 -104c57.333 -50.667 86 -110.667 86 -180
c-0.666992 -69.333 -22.334 -128 -65.001 -176c-42.667 -46.667 -103 -70 -181 -70h-188v106h172c49.333 0 87 11.333 113 34s38.667 53.667 38 93c0 80.667 -49 141.667 -147 183c-60 24.667 -101.667 45.667 -125 63c-13.333 12 -20 29.333 -20 52
s13.667 42.334 41 59.001c8.66699 5.33301 24.334 13 47.001 23c42.667 19.333 64.334 47.666 65.001 84.999c0 57.333 -33.333 86 -100 86c-84.667 0 -127 -46.333 -127 -139v-645h-113v479h-131l29 107h102v69z" />
    <glyph glyph-name="agrave" unicode="&#xe0;" 
d="M334 -12c-84.667 0 -156.333 31.335 -215 94.002c-57.333 64 -86 140.667 -86 230s28 163.666 84 222.999c60 60 137 90 231 90s169 -26.333 225 -79s84 -123.334 84 -212.001v-334h-112v344c0 54.667 -20.667 97.667 -62 129c-35.333 30 -82.333 45 -141 45
s-105.667 -21.667 -141 -65c-36.667 -39.333 -55 -88.333 -55 -147s18.667 -108.667 56 -150c38.667 -41.333 87 -62 145 -62s109 28 153 84v-133c-52 -38 -107.333 -57 -166 -57zM438.001 686.002h-86l-166 180h138z" />
    <glyph glyph-name="aacute" unicode="&#xe1;" 
d="M334 -12c-84.667 0 -156.333 31.335 -215 94.002c-57.333 64 -86 140.667 -86 230s28 163.666 84 222.999c60 60 137 90 231 90s169 -26.333 225 -79s84 -123.334 84 -212.001v-334h-112v344c0 54.667 -20.667 97.667 -62 129c-35.333 30 -82.333 45 -141 45
s-105.667 -21.667 -141 -65c-36.667 -39.333 -55 -88.333 -55 -147s18.667 -108.667 56 -150c38.667 -41.333 87 -62 145 -62s109 28 153 84v-133c-52 -38 -107.333 -57 -166 -57zM356.001 686.002h-86l115 180h137z" />
    <glyph glyph-name="acircumflex" unicode="&#xe2;" 
d="M334 -12c-84.667 0 -156.333 31.335 -215 94.002c-57.333 64 -86 140.667 -86 230s28 163.666 84 222.999c60 60 137 90 231 90s169 -26.333 225 -79s84 -123.334 84 -212.001v-334h-112v344c0 54.667 -20.667 97.667 -62 129c-35.333 30 -82.333 45 -141 45
s-105.667 -21.667 -141 -65c-36.667 -39.333 -55 -88.333 -55 -147s18.667 -108.667 56 -150c38.667 -41.333 87 -62 145 -62s109 28 153 84v-133c-52 -38 -107.333 -57 -166 -57zM541.001 686.002h-103l-84 119l-84 -119h-102l127 180h119z" />
    <glyph glyph-name="atilde" unicode="&#xe3;" 
d="M334 -12c-84.667 0 -156.333 31.335 -215 94.002c-57.333 64 -86 140.667 -86 230s28 163.666 84 222.999c60 60 137 90 231 90s169 -26.333 225 -79s84 -123.334 84 -212.001v-334h-112v344c0 54.667 -20.667 97.667 -62 129c-35.333 30 -82.333 45 -141 45
s-105.667 -21.667 -141 -65c-36.667 -39.333 -55 -88.333 -55 -147s18.667 -108.667 56 -150c38.667 -41.333 87 -62 145 -62s109 28 153 84v-133c-52 -38 -107.333 -57 -166 -57zM457.001 707.002c-24 0 -63.001 7.33301 -117.001 22
c-82.667 36.667 -129.667 25.667 -141 -33h-62c2.66699 40 15.667 73.333 39 100s51 40 83 40s67.333 -8.33301 106 -25c49.333 -16.667 76.333 -25 81 -25c38 0 59.333 19.333 64 58h61c-5.33301 -38 -19.666 -70.333 -42.999 -97s-47 -40 -71 -40z" />
    <glyph glyph-name="adieresis" unicode="&#xe4;" 
d="M334 -12c-84.667 0 -156.333 31.335 -215 94.002c-57.333 64 -86 140.667 -86 230s28 163.666 84 222.999c60 60 137 90 231 90s169 -26.333 225 -79s84 -123.334 84 -212.001v-334h-112v344c0 54.667 -20.667 97.667 -62 129c-35.333 30 -82.333 45 -141 45
s-105.667 -21.667 -141 -65c-36.667 -39.333 -55 -88.333 -55 -147s18.667 -108.667 56 -150c38.667 -41.333 87 -62 145 -62s109 28 153 84v-133c-52 -38 -107.333 -57 -166 -57zM385.001 764.002c-0.666992 21.333 5.66602 38.667 18.999 52s30.666 20 51.999 20
s38.666 -6.66699 51.999 -20s20 -30.666 20 -51.999c0 -20.667 -6.66699 -37.667 -20 -51c-13.333 -14 -30.666 -21 -51.999 -21s-38.666 6.66699 -51.999 20s-19.666 30.666 -18.999 51.999zM253.001 836.003c21.333 0 38.332 -6.66602 50.999 -19.999
c13.333 -13.333 20 -30.666 20 -51.999c0 -20.667 -6.66699 -37.667 -20 -51c-13.333 -14 -30.333 -21 -51 -21c-21.333 0 -38.666 6.66699 -51.999 20s-20.333 30.666 -21 51.999c0 21.333 6.66699 38.666 20 51.999s31 20 53 20z" />
    <glyph glyph-name="aring" unicode="&#xe5;" 
d="M334 -12c-84.667 0 -156.333 31.335 -215 94.002c-57.333 64 -86 140.667 -86 230s28 163.666 84 222.999c60 60 137 90 231 90s169 -26.333 225 -79s84 -123.334 84 -212.001v-334h-112v344c0 54.667 -20.667 97.667 -62 129c-35.333 30 -82.333 45 -141 45
s-105.667 -21.667 -141 -65c-36.667 -39.333 -55 -88.333 -55 -147s18.667 -108.667 56 -150c38.667 -41.333 87 -62 145 -62s109 28 153 84v-133c-52 -38 -107.333 -57 -166 -57zM354.001 879.002c-20.667 0.666992 -37.335 -5.66602 -50.002 -18.999s-19 -30 -19 -50
s6.33301 -36.333 19 -49s29.334 -19 50.001 -19s37.334 6 50.001 18c13.333 13.333 20 30 20 50s-6.66699 36.667 -20 50s-30 19.666 -50 18.999zM353 940.002c37.333 0 68.334 -12.667 93.001 -38s37 -56 37 -92s-12.333 -66.667 -37 -92s-55.667 -38 -93 -38
s-68.333 12.667 -93 38s-37 56.333 -37 93s13 66.667 39 90c23.333 26 53.666 39 90.999 39z" />
    <glyph glyph-name="ae" unicode="&#xe6;" horiz-adv-x="1132" 
d="M139 168c-0.666992 -49.333 34.333 -74 105 -74s126.667 18.667 168 56s62.333 86.333 63 147v55c-114 -16.667 -203.333 -44.667 -268 -84c-45.333 -28.667 -68 -62 -68 -100zM285 625c121.333 0 206.672 -46 256.005 -138c16.667 35.333 46.667 67 90 95
c48 28.667 98.333 43 151 43c83.333 0 153.666 -24 210.999 -72c35.333 -31.333 69 -80.333 101 -147l-414 -173l-41 95l291 121c-34.667 46 -81.334 69 -140.001 69s-106.334 -21 -143.001 -63s-55 -91.667 -55 -149s19.667 -106.666 59 -147.999
c39.333 -42.667 87 -64 143 -64c105.333 -0.666992 175.333 58 210 176l102 -45c-24.667 -76.667 -63.334 -135.334 -116.001 -176.001s-115.667 -61 -189 -61c-124 0 -214.333 49.667 -271 149c-24 -48.667 -61.333 -85.667 -112 -111s-107 -38 -169 -38
s-113.667 15.667 -155 47c-48 34 -72 80.333 -72 139s22.667 106 68 142c44.667 36 104.667 67.333 180 94c56 16.667 111.333 28.667 166 36c-28.667 48 -77.667 72 -147 72s-137 -18.333 -203 -55l-51 88c83.333 49.333 166.666 74 249.999 74z" />
    <glyph glyph-name="ccedilla" unicode="&#xe7;" horiz-adv-x="495" 
d="M469 504l-85.999 0.000976562c-55.333 0 -104.333 -17 -147 -51s-64 -83 -64 -147s21.333 -113 64 -147c42.667 -34.667 91.667 -52.334 147 -53.001h86v-106h-104l-50 -68c16.667 2.66699 35.667 4 57 4s41.333 -8.33301 60 -25c19.333 -17.333 29 -41.666 29 -72.999
s-12.667 -58 -38 -80c-25.333 -21.333 -61.333 -32 -108 -32s-90.334 8.66699 -131.001 26l23 51c30 -13.333 58 -20 84 -20c48 0 71.667 17.667 71 53c0 34 -20.333 51 -61 51c-15.333 0 -31 -3.33301 -47 -10l-23 27l74 100c-68 13.333 -126.667 46.666 -176 99.999
s-74 123 -74 209c-0.666992 86 31 157.333 95 214s134.667 85 212 85h107v-108z" />
    <glyph glyph-name="egrave" unicode="&#xe8;" 
d="M356 -12c-87.333 0 -162.001 29.668 -224.001 89.001s-93 135.333 -93 228s31.333 169 94 229s137 90.333 223 91c134 0 232.333 -65 295 -195l-413 -229l-45 90l301 168c-40 39.333 -87.333 59 -142 59s-101 -19.667 -139 -59s-57 -90.333 -57 -153
s19 -113.334 57 -152.001c38 -40 87 -60 147 -60s105.333 16.667 136 50s52.334 80.333 65.001 141l113 -15c-6.66699 -83.333 -39.667 -150 -99 -200c-58.667 -54.667 -131.667 -82 -219 -82zM437.999 686.001h-86l-166 180h138z" />
    <glyph glyph-name="eacute" unicode="&#xe9;" 
d="M356 -12c-87.333 0 -162.001 29.668 -224.001 89.001s-93 135.333 -93 228s31.333 169 94 229s137 90.333 223 91c134 0 232.333 -65 295 -195l-413 -229l-45 90l301 168c-40 39.333 -87.333 59 -142 59s-101 -19.667 -139 -59s-57 -90.333 -57 -153
s19 -113.334 57 -152.001c38 -40 87 -60 147 -60s105.333 16.667 136 50s52.334 80.333 65.001 141l113 -15c-6.66699 -83.333 -39.667 -150 -99 -200c-58.667 -54.667 -131.667 -82 -219 -82zM355.999 686.001h-86l115 180h137z" />
    <glyph glyph-name="ecircumflex" unicode="&#xea;" 
d="M356 -12c-87.333 0 -162.001 29.668 -224.001 89.001s-93 135.333 -93 228s31.333 169 94 229s137 90.333 223 91c134 0 232.333 -65 295 -195l-413 -229l-45 90l301 168c-40 39.333 -87.333 59 -142 59s-101 -19.667 -139 -59s-57 -90.333 -57 -153
s19 -113.334 57 -152.001c38 -40 87 -60 147 -60s105.333 16.667 136 50s52.334 80.333 65.001 141l113 -15c-6.66699 -83.333 -39.667 -150 -99 -200c-58.667 -54.667 -131.667 -82 -219 -82zM540.999 686.001h-103l-84 119l-84 -119h-102l127 180h119z" />
    <glyph glyph-name="edieresis" unicode="&#xeb;" 
d="M356 -12c-87.333 0 -162.001 29.668 -224.001 89.001s-93 135.333 -93 228s31.333 169 94 229s137 90.333 223 91c134 0 232.333 -65 295 -195l-413 -229l-45 90l301 168c-40 39.333 -87.333 59 -142 59s-101 -19.667 -139 -59s-57 -90.333 -57 -153
s19 -113.334 57 -152.001c38 -40 87 -60 147 -60s105.333 16.667 136 50s52.334 80.333 65.001 141l113 -15c-6.66699 -83.333 -39.667 -150 -99 -200c-58.667 -54.667 -131.667 -82 -219 -82zM384.999 764.001c-0.666992 21.333 5.66602 38.667 18.999 52
s30.666 20 51.999 20s38.666 -6.66699 51.999 -20s20 -30.666 20 -51.999c0 -20.667 -6.66699 -37.667 -20 -51c-13.333 -14 -30.666 -21 -51.999 -21s-38.666 6.66699 -51.999 20s-19.666 30.666 -18.999 51.999zM252.999 836.002c21.333 0 38.332 -6.66602 50.999 -19.999
c13.333 -13.333 20 -30.666 20 -51.999c0 -20.667 -6.66699 -37.667 -20 -51c-13.333 -14 -30.333 -21 -51 -21c-21.333 0 -38.666 6.66699 -51.999 20s-20.333 30.666 -21 51.999c0 21.333 6.66699 38.666 20 51.999s31 20 53 20z" />
    <glyph glyph-name="igrave" unicode="&#xec;" horiz-adv-x="354" 
d="M233 0h-112v612h112v-612zM262 686h-88l-166 180h139z" />
    <glyph glyph-name="iacute" unicode="&#xed;" horiz-adv-x="354" 
d="M233 0h-112v612h112v-612zM180 686h-88l115 180h139z" />
    <glyph glyph-name="icircumflex" unicode="&#xee;" horiz-adv-x="354" 
d="M233 0h-112v612h112v-612zM362 686h-100l-86 119l-84 -119h-100l127 180h117z" />
    <glyph glyph-name="idieresis" unicode="&#xef;" horiz-adv-x="354" 
d="M233 0h-112v612h112v-612zM207 764c0.666992 21.333 7.66699 38.667 21 52s30.666 20 51.999 20s38.333 -6.66699 51 -20s19 -30.666 19 -51.999c0 -20.667 -6.33301 -37.667 -19 -51c-12.667 -14 -29.667 -21 -51 -21s-38.666 6.66699 -51.999 20
s-20.333 30.666 -21 51.999zM75 836.001c21.333 0 38.667 -6.66602 52 -19.999s20 -30.666 20 -51.999c0 -20.667 -6.66699 -37.667 -20 -51c-13.333 -14 -30.666 -21 -51.999 -21s-38.333 6.66699 -51 20s-19.334 30.666 -20.001 51.999c0 21.333 6.66699 38.666 20 51.999
s30.333 20 51 20z" />
    <glyph glyph-name="eth" unicode="&#xf0;" 
d="M354 -12c-89.333 0 -162.999 29.333 -220.999 88c-64 60 -96 136.333 -96 229s32 169.334 96 230.001c60 60 133.667 90 221 90c4 0 22.667 -1.33301 56 -4c2.66699 -4 14.334 -24.333 35.001 -61s32 -65.667 34 -87h-2c-32.667 30 -76 45 -130 45
s-99.667 -19.333 -137 -58s-56 -90 -56 -154s18.667 -115 56 -153c37.333 -39.333 85.666 -59 144.999 -59s107.666 21.333 144.999 64s55.666 100 54.999 172c0 73.333 -17 145.666 -51 216.999c-34 62.667 -76.333 118.667 -127 168l-135 -70l-62 74l117 59
c-42 27.333 -77.667 46.666 -107 57.999l70 71c50.667 -20.667 95 -46 133 -76l131 70l64 -74l-117 -63c56 -52 103.333 -115.667 142 -191c39.333 -75.333 59 -159.666 59 -252.999s-30.667 -172 -92 -236s-136.666 -96 -225.999 -96z" />
    <glyph glyph-name="ntilde" unicode="&#xf1;" horiz-adv-x="636" 
d="M57 356c0 79.333 24.332 144 72.999 194c49.333 50 112 75 188 75s138.667 -25.333 188 -76s74 -115 74 -193v-356h-113v356c0 46.667 -14.333 85.667 -43 117c-33.333 30 -68.666 45 -105.999 45s-72.333 -15 -105 -45c-28.667 -31.333 -43 -70.333 -43 -117v-356h-113
v356zM222.999 836c31.333 0 66.3359 -8.33301 105.003 -25c49.333 -16.667 76.666 -25 81.999 -25c39.333 0 60.333 19.333 63 58h62c-5.33301 -38 -19.333 -70.333 -42 -97s-46 -40 -70 -40s-52 4.66699 -84 14l-78 23c-20 6.66699 -35.667 10 -47 10
c-10.667 0 -21.334 -6 -32.001 -18s-16.667 -25.333 -18 -40h-62c2.66699 40 15.667 73.333 39 100s50.666 40 81.999 40z" />
    <glyph glyph-name="ograve" unicode="&#xf2;" 
d="M354 518c-58.667 0 -106.667 -19.333 -144 -58s-56 -90 -56 -154s18.667 -115 56 -153c37.333 -39.333 85.333 -59 144 -59s106.667 19.333 144 58s56.333 90 57 154c-0.666992 64 -19.667 115.333 -57 154s-85.333 58 -144 58zM353 625
c87.333 0 162.333 -30.0029 225 -90.0029c62.667 -59.333 94 -135.666 94 -228.999s-31 -169.666 -93 -228.999s-137 -89 -225 -89s-161.667 29.333 -221 88c-64 60 -96 136.333 -96 229s32 169.334 96 230.001c60 60 133.333 90 220 90zM438 685.997h-86l-166 180h138z" />
    <glyph glyph-name="oacute" unicode="&#xf3;" 
d="M354 518c-58.667 0 -106.667 -19.333 -144 -58s-56 -90 -56 -154s18.667 -115 56 -153c37.333 -39.333 85.333 -59 144 -59s106.667 19.333 144 58s56.333 90 57 154c-0.666992 64 -19.667 115.333 -57 154s-85.333 58 -144 58zM353 625
c87.333 0 162.333 -30.0029 225 -90.0029c62.667 -59.333 94 -135.666 94 -228.999s-31 -169.666 -93 -228.999s-137 -89 -225 -89s-161.667 29.333 -221 88c-64 60 -96 136.333 -96 229s32 169.334 96 230.001c60 60 133.333 90 220 90zM356 685.997h-86l115 180h137z" />
    <glyph glyph-name="ocircumflex" unicode="&#xf4;" 
d="M354 518c-58.667 0 -106.667 -19.333 -144 -58s-56 -90 -56 -154s18.667 -115 56 -153c37.333 -39.333 85.333 -59 144 -59s106.667 19.333 144 58s56.333 90 57 154c-0.666992 64 -19.667 115.333 -57 154s-85.333 58 -144 58zM353 625
c87.333 0 162.333 -30.0029 225 -90.0029c62.667 -59.333 94 -135.666 94 -228.999s-31 -169.666 -93 -228.999s-137 -89 -225 -89s-161.667 29.333 -221 88c-64 60 -96 136.333 -96 229s32 169.334 96 230.001c60 60 133.333 90 220 90zM541 685.997h-103l-84 119l-84 -119
h-102l127 180h119z" />
    <glyph glyph-name="otilde" unicode="&#xf5;" 
d="M354 518c-58.667 0 -106.667 -19.333 -144 -58s-56 -90 -56 -154s18.667 -115 56 -153c37.333 -39.333 85.333 -59 144 -59s106.667 19.333 144 58s56.333 90 57 154c-0.666992 64 -19.667 115.333 -57 154s-85.333 58 -144 58zM353 625
c87.333 0 162.333 -30.0029 225 -90.0029c62.667 -59.333 94 -135.666 94 -228.999s-31 -169.666 -93 -228.999s-137 -89 -225 -89s-161.667 29.333 -221 88c-64 60 -96 136.333 -96 229s32 169.334 96 230.001c60 60 133.333 90 220 90zM457 706.997
c-24 0 -63.001 7.33301 -117.001 22c-82.667 36.667 -129.667 25.667 -141 -33h-62c2.66699 40 15.667 73.333 39 100s51 40 83 40s67.333 -8.33301 106 -25c49.333 -16.667 76.333 -25 81 -25c38 0 59.333 19.333 64 58h61c-5.33301 -38 -19.666 -70.333 -42.999 -97
s-47 -40 -71 -40z" />
    <glyph glyph-name="odieresis" unicode="&#xf6;" 
d="M354 518c-58.667 0 -106.667 -19.333 -144 -58s-56 -90 -56 -154s18.667 -115 56 -153c37.333 -39.333 85.333 -59 144 -59s106.667 19.333 144 58s56.333 90 57 154c-0.666992 64 -19.667 115.333 -57 154s-85.333 58 -144 58zM353 625
c87.333 0 162.333 -30.0029 225 -90.0029c62.667 -59.333 94 -135.666 94 -228.999s-31 -169.666 -93 -228.999s-137 -89 -225 -89s-161.667 29.333 -221 88c-64 60 -96 136.333 -96 229s32 169.334 96 230.001c60 60 133.333 90 220 90zM385 763.997
c-0.666992 21.333 5.66602 38.667 18.999 52s30.666 20 51.999 20s38.666 -6.66699 51.999 -20s20 -30.666 20 -51.999c0 -20.667 -6.66699 -37.667 -20 -51c-13.333 -14 -30.666 -21 -51.999 -21s-38.666 6.66699 -51.999 20s-19.666 30.666 -18.999 51.999zM253 835.998
c21.333 0 38.332 -6.66602 50.999 -19.999c13.333 -13.333 20 -30.666 20 -51.999c0 -20.667 -6.66699 -37.667 -20 -51c-13.333 -14 -30.333 -21 -51 -21c-21.333 0 -38.666 6.66699 -51.999 20s-20.333 30.666 -21 51.999c0 21.333 6.66699 38.666 20 51.999s31 20 53 20z
" />
    <glyph glyph-name="divide" unicode="&#xf7;" horiz-adv-x="763" 
d="M383 143c26 -0.666992 47 -9.66992 63 -27.0029s23.667 -37.666 23 -60.999c0 -23.333 -8 -43.666 -24 -60.999c-16.667 -17.333 -37.667 -25.666 -63 -24.999c-25.333 0 -46.333 8.66699 -63 26c-16.667 18 -25 38.333 -25 61s8.33301 43 25 61
c16.667 17.333 38 26 64 26zM688 255.997h-612v100h612v-100zM383 640.997c26 0 47 -8.66699 63 -26c16 -18 23.667 -38.333 23 -61c0 -22.667 -8 -42.667 -24 -60c-16.667 -17.333 -37.667 -25.666 -63 -24.999c-25.333 0 -46.333 8.66699 -63 26
c-16.667 18 -25 38.333 -25 61s8.66699 42.667 26 60c16 17.333 37 25.666 63 24.999z" />
    <glyph glyph-name="oslash" unicode="&#xf8;" 
d="M366 94c50.667 0 94.666 19.332 131.999 57.999s56.333 85.334 57 140.001c0 54 -10.333 98 -31 132l-286 -295c34.667 -23.333 77.334 -35 128.001 -35zM343.999 517.999c-52 0 -96.667 -19.3311 -134 -57.998s-56 -85.334 -56 -140.001s10 -99.334 30 -134.001l287 295
c-32.667 24.667 -75 37 -127 37zM671.999 295.001c0 -86 -31.001 -158.667 -93.001 -218s-133 -89 -213 -89s-148 21 -204 63l-62 -63h-108l114 118c-46.667 54.667 -70 124.667 -70 210s32.333 158.333 97 219c60.667 60 130.334 90 209.001 90s147 -21.333 205 -64l61 64
h109l-115 -119c46.667 -54.667 70 -125 70 -211z" />
    <glyph glyph-name="ugrave" unicode="&#xf9;" horiz-adv-x="636" 
d="M580 254c0 -79.333 -24.666 -143.667 -73.999 -193c-49.333 -48.667 -112.333 -73 -189 -73s-138 24.333 -184 73c-50.667 48 -76 112.333 -76 193v358h113v-358c0 -45.333 14.333 -83.666 43 -114.999c32.667 -30 67.667 -45 105 -45s72.666 15 105.999 45
c28.667 31.333 43 69.666 43 114.999v358h113v-358zM403.001 685.999h-88l-165 180h139z" />
    <glyph glyph-name="uacute" unicode="&#xfa;" horiz-adv-x="636" 
d="M580 254c0 -79.333 -24.666 -143.667 -73.999 -193c-49.333 -48.667 -112.333 -73 -189 -73s-138 24.333 -184 73c-50.667 48 -76 112.333 -76 193v358h113v-358c0 -45.333 14.333 -83.666 43 -114.999c32.667 -30 67.667 -45 105 -45s72.666 15 105.999 45
c28.667 31.333 43 69.666 43 114.999v358h113v-358zM322.001 685.999h-89l115 180h139z" />
    <glyph glyph-name="ucircumflex" unicode="&#xfb;" horiz-adv-x="636" 
d="M580 254c0 -79.333 -24.666 -143.667 -73.999 -193c-49.333 -48.667 -112.333 -73 -189 -73s-138 24.333 -184 73c-50.667 48 -76 112.333 -76 193v358h113v-358c0 -45.333 14.333 -83.666 43 -114.999c32.667 -30 67.667 -45 105 -45s72.666 15 105.999 45
c28.667 31.333 43 69.666 43 114.999v358h113v-358zM504.001 685.999h-101l-84 119l-86 -119h-100l127 180h117z" />
    <glyph glyph-name="udieresis" unicode="&#xfc;" horiz-adv-x="636" 
d="M580 254c0 -79.333 -24.666 -143.667 -73.999 -193c-49.333 -48.667 -112.333 -73 -189 -73s-138 24.333 -184 73c-50.667 48 -76 112.333 -76 193v358h113v-358c0 -45.333 14.333 -83.666 43 -114.999c32.667 -30 67.667 -45 105 -45s72.666 15 105.999 45
c28.667 31.333 43 69.666 43 114.999v358h113v-358zM421.001 835.999c21.333 0 38.332 -6.66602 50.999 -19.999c13.333 -13.333 20 -30.666 20 -51.999c0 -20.667 -6.66699 -37.667 -20 -51c-13.333 -14 -30.333 -21 -51 -21c-21.333 0 -38.666 6.66699 -51.999 20
s-20.333 30.666 -21 51.999c0 21.333 6.66699 38.666 20 51.999s31 20 53 20zM216 836c21.333 0 38.6689 -6.66602 52.002 -19.999s20 -30.666 20 -51.999c0 -20.667 -6.66699 -37.667 -20 -51c-13.333 -14 -30.666 -21 -51.999 -21s-38.333 6.66699 -51 20
s-19.334 30.666 -20.001 51.999s5.66602 38.666 18.999 51.999s30.666 20 51.999 20z" />
    <glyph glyph-name="yacute" unicode="&#xfd;" horiz-adv-x="636" 
d="M573 244c0 -135.333 -65.999 -220.666 -197.999 -255.999v-262h-113v262c-132.667 35.333 -199 120.666 -199 255.999v368h113v-368c0 -44 12.333 -80 37 -108s59.667 -42 105 -42s80.666 14 105.999 42c24.667 28 37 64 37 108v368h112v-368zM322.001 686h-89l115 180
h139z" />
    <glyph glyph-name="thorn" unicode="&#xfe;" 
d="M358 625c97.333 -0.666992 174.667 -33.666 232 -98.999s86 -142 86 -230s-28.667 -161.333 -86 -220s-122.666 -88 -195.999 -88s-135.666 14.333 -186.999 43v116c51.333 -35.333 105 -53 161 -53s102.667 19.333 140 58s55.666 88.667 54.999 150
c0 61.333 -19 112.666 -57 153.999c-37.333 41.333 -85.333 62 -144 62s-106.334 -21.333 -143.001 -64s-55 -104.667 -55 -186v-542h-113v1165h113v-338c57.333 48 122 72 194 72z" />
    <glyph glyph-name="ydieresis" unicode="&#xff;" horiz-adv-x="636" 
d="M573 244c0 -135.333 -65.999 -220.666 -197.999 -255.999v-262h-113v262c-132.667 35.333 -199 120.666 -199 255.999v368h113v-368c0 -44 12.333 -80 37 -108s59.667 -42 105 -42s80.666 14 105.999 42c24.667 28 37 64 37 108v368h112v-368zM421.001 836
c21.333 0 38.332 -6.66602 50.999 -19.999c13.333 -13.333 20 -30.666 20 -51.999c0 -20.667 -6.66699 -37.667 -20 -51c-13.333 -14 -30.333 -21 -51 -21c-21.333 0 -38.666 6.66699 -51.999 20s-20.333 30.666 -21 51.999c0 21.333 6.66699 38.666 20 51.999s31 20 53 20z
M216 836.001c21.333 0 38.6689 -6.66602 52.002 -19.999s20 -30.666 20 -51.999c0 -20.667 -6.66699 -37.667 -20 -51c-13.333 -14 -30.666 -21 -51.999 -21s-38.333 6.66699 -51 20s-19.334 30.666 -20.001 51.999s5.66602 38.666 18.999 51.999s30.666 20 51.999 20z" />
    <glyph glyph-name="dotlessi" unicode="&#x131;" horiz-adv-x="354" 
d="M233 0h-112v612h112v-612z" />
    <glyph glyph-name="OE" unicode="&#x152;" horiz-adv-x="1273" 
d="M752 446c0 92.667 -30 174.003 -90 244.003s-135.667 105 -227 105c-90.667 -0.666992 -166 -36.334 -226 -107.001s-90 -151.334 -90 -242.001s30.333 -171.334 91 -242.001c60.667 -72 135.667 -108 225 -108c88.667 0 163.667 35.333 225 106s92 152 92 244z
M1202 891.003l58 0.000976562v-111h-35c-98 0 -182 -31.333 -252 -94c-61.333 -52 -93.333 -108 -96 -168h383v-112h-383c4 -82 37 -151.333 99 -208s133.333 -85 214 -85h70v-113h-58c-91.333 0 -169.333 17.333 -234 52s-117 91 -157 169
c-32.667 -76.667 -83.667 -135 -153 -175s-145.333 -60 -228 -60c-116 0 -216.667 46.667 -302 140s-128 199.666 -128 318.999s42.667 226.333 128 321s186 141.667 302 141c84.667 0 161 -20.333 229 -61s118.667 -98.667 152 -174c74.667 146 205 219 391 219z" />
    <glyph glyph-name="oe" unicode="&#x153;" horiz-adv-x="1202" 
d="M339 518c-60.667 0 -109.667 -20.001 -147 -60.001s-56 -90.667 -56 -152s18.667 -111.666 56 -150.999c37.333 -40.667 86.333 -61 147 -61s109.667 20 147 60s56 90.667 56 152s-18.667 112 -56 152s-86.333 60 -147 60zM864 -12.001
c-113.333 0 -200.001 47.001 -260.001 141.001c-72.667 -94 -162 -141 -268 -141c-87.333 0 -162 29.667 -224 89s-93.333 135.333 -94 228c0 92.667 31.333 169 94 229s137.334 90.333 224.001 91c113.333 0 201.333 -46 264 -138
c40.667 49.333 81.334 84.666 122.001 105.999c40 21.333 95.333 32 166 32c137.333 0 234 -76 290 -228l-433 -186l-40 94l315 137c-37.333 50.667 -87.333 76 -150 76s-113.667 -19.667 -153 -59c-38 -40.667 -57 -89.667 -57 -147s21.667 -108 65 -152
c40.667 -44 87 -66 139 -66c109.333 0 179 61.667 209 185l111 -41c-58.667 -166.667 -165.334 -250 -320.001 -250z" />
    <glyph glyph-name="Scaron" unicode="&#x160;" horiz-adv-x="636" 
d="M565 780l-300.999 -0.00195312c-70.667 0 -106 -35.333 -106 -106c0 -58 74.333 -116.667 223 -176c148.667 -69.333 223 -156 223 -260c0 -73.333 -21.333 -131.333 -64 -174s-103.334 -64 -182.001 -64h-327v113h305c100 0 149.667 38 149 114
c0 49.333 -38.667 95.333 -116 138c-30 16.667 -65.667 33.667 -107 51c-90 39.333 -154 85.666 -192 138.999c-22 32.667 -33 70.334 -33 113.001c0 70.667 22 125.334 66 164.001s103.333 58.334 178 59.001h284v-111zM406.001 941.998h-117l-127 182h102l84 -120l84 120
h103z" />
    <glyph glyph-name="scaron" unicode="&#x161;" horiz-adv-x="565" 
d="M508 504h-282.999c-27.333 0 -46 -4 -56 -12s-15 -21.667 -15 -41c0 -28.667 32.667 -52.667 98 -72c31.333 -9.33301 62.666 -17.666 93.999 -24.999c76.667 -22 131.334 -52.667 164.001 -92c19.333 -22.667 29 -57.334 29 -104.001
c-0.666992 -46.667 -18.334 -84.667 -53.001 -114s-80.667 -44 -138 -44h-313v106h313c49.333 0 74 19.333 74 58s-64.333 73.334 -193 104.001c-78 23.333 -132.333 53.333 -163 90c-20.667 23.333 -31 52.666 -31 87.999c0 110.667 69.667 166 209 166h264v-108z
M342.001 686h-119l-127 180h103l84 -121l84 121h102z" />
    <glyph glyph-name="Ydieresis" unicode="&#x178;" horiz-adv-x="636" 
d="M606 623c0 -62.667 -19.001 -119.333 -57.001 -170s-96 -85.667 -174 -105v-348h-119v348c-78 20.667 -135.333 57 -172 109c-36.667 48 -55 103.333 -55 166v268h121v-270c0 -50.667 15.333 -90 46 -118s71.334 -42 122.001 -42s91.667 14 123 42
c30.667 28 46 67.333 46 118v270h119v-268zM378.999 1021c-0.666992 22 5.66602 39.667 18.999 53s30.666 20 51.999 20s38.333 -6.66699 51 -20s19 -31 19 -53c0 -21.333 -6.33301 -38.333 -19 -51c-12.667 -13.333 -29.667 -20 -51 -20s-38.666 6.66699 -51.999 20
s-19.666 30.333 -18.999 51zM246.999 1094c21.333 0 38.332 -6.66699 50.999 -20s19 -31 19 -53c0 -21.333 -6.33301 -38.333 -19 -51c-12.667 -13.333 -29.667 -20 -51 -20s-38.666 6.66699 -51.999 20c-14 13.333 -21 30.333 -21 51c0 22 6.66699 39.667 20 53
s31 20 53 20z" />
    <glyph glyph-name="Zcaron" unicode="&#x17d;" horiz-adv-x="636" 
d="M492 891c34.667 0 60.666 -7.33301 77.999 -22s26 -32.667 26 -54c0 -45.333 -17 -91 -51 -137l-400 -565h465v-113h-497c-31.333 0 -55.666 9 -72.999 27s-26 41.667 -26 71s18.667 70.333 56 123l401 559h-410v111h431zM405.999 942h-117l-127 182h102l84 -120l84 120
h103z" />
    <glyph glyph-name="zcaron" unicode="&#x17e;" horiz-adv-x="495" 
d="M342 612c78 0 117.001 -27.333 117.001 -82c0 -28.667 -6.33301 -51 -19 -67l-293 -357h316v-106h-348c-28.667 -0 -51.334 7.33301 -68.001 22c-42 37.333 -29.667 96.333 37 177l250 305h-289v108h297zM307.001 686h-117l-129 180h103l84 -121l84 121h102z" />
    <glyph glyph-name="florin" unicode="&#x192;" 
d="M592 907c30 0 65.999 -6 107.999 -18l-20 -107c-24.667 8 -48.667 12.333 -72 13c-64 0 -105.667 -43.667 -125 -131l-22 -113h176v-113h-195l-82 -454c-34.667 -183.333 -106.667 -275 -216 -275c-53.333 0 -98.666 6.33301 -135.999 19l17 112
c27.333 -12 57 -18 89 -18c66 0 108 54.667 126 164l79 452h-161v113h184l27 125c34 154 108.333 231 223 231z" />
    <glyph glyph-name="mu" unicode="&#x3bc;" horiz-adv-x="636" 
d="M580 254c0 -79.333 -24.666 -143.667 -73.999 -193c-49.333 -48.667 -108 -73 -176 -73s-121.333 15 -160 45v-307h-113v886h113v-358c0 -45.333 14.333 -83.666 43 -114.999c32.667 -30 67.667 -45 105 -45s72.666 15 105.999 45c28.667 31.333 43 69.666 43 114.999
v358h113v-358z" />
    <glyph glyph-name="uni060C" unicode="&#x60c;" horiz-adv-x="376" 
d="M172 0c-28.667 0 -49.333 14 -62 42s-9.66699 66.667 9 116c19.333 49.333 56 98.333 110 147l45 -39c-64 -68 -81 -122.667 -51 -164c16.667 -20 19.667 -42 9 -66s-30.667 -36 -60 -36z" />
    <glyph glyph-name="uni061B" unicode="&#x61b;" horiz-adv-x="374" 
d="M102 72c0 19.333 6.66797 35.666 20.001 48.999s30 20 50 20c18.667 0 35.334 -6.66699 50.001 -20s22 -29.666 22 -48.999c0 -18.667 -7.33301 -35.334 -22 -50.001s-31.334 -22 -50.001 -22s-35.334 7.33301 -50.001 22c-13.333 14.667 -20 31.334 -20 50.001z
M172.001 338c-28.667 0 -49.334 14 -62.001 42s-10 66.667 8 116c18.667 49.333 55 99 109 149l45 -39c-65.333 -70.667 -81.666 -126 -48.999 -166c16.667 -20 19.667 -42 9 -66s-30.667 -36 -60 -36z" />
    <glyph glyph-name="uni061F" unicode="&#x61f;" horiz-adv-x="589" 
d="M311 143c23.333 0.666992 42.667 -7.00098 58 -23.001s23 -34.667 23 -56s-8 -40 -24 -56c-14.667 -16 -33.667 -23.333 -57 -22c-23.333 0 -42.333 7.33301 -57 22s-21.667 33.334 -21 56.001c-0.666992 21.333 6.33301 40 21 56s33.667 23.667 57 23zM33.001 645.999
c0 72 24.333 133.667 73 185c50.667 50.667 114 76 190 76s137.667 -27.333 185 -82c50.667 -54.667 76 -121.334 76 -200.001h-121c0 48.667 -12.333 89 -37 121s-59 48 -103 48s-79.333 -14.333 -106 -43c-26 -29.333 -38.667 -66.666 -38 -111.999
c0 -104 61.333 -156 184 -156h33v-278h-113v170c-66.667 12 -120.667 42 -162 90c-40.667 48.667 -61 109 -61 181z" />
    <glyph glyph-name="uni0621" unicode="&#x621;" horiz-adv-x="755" 
d="M221 268c0 54.667 22.5 104.167 67.5 148.5s102 66.5 171 66.5s133.5 -28.667 193.5 -86l-84 -114c-28.667 42 -68.667 63 -120 63c-61.333 0 -93 -34.667 -95 -104c1.33301 -68 50 -106.333 146 -115h147v-127h-545v127h162c-28.667 39.333 -43 86.333 -43 141z" />
    <glyph glyph-name="uni0622" unicode="&#x622;" horiz-adv-x="331" 
d="M102 0v907h127v-907h-127zM254 991c-31.333 0 -64.832 14 -100.499 42s-60.167 42 -73.5 42c-27.333 0 -59.333 -26.667 -96 -80l-74 47c52 80.667 111.333 121 178 121c24.667 0 54.667 -15 90 -45s62.666 -45 81.999 -45c35.333 0 75 36.333 119 109l72 -47
c-59.333 -96 -125 -144 -197 -144z" />
    <glyph glyph-name="uni0623" unicode="&#x623;" horiz-adv-x="331" 
d="M102 0v907h127v-907h-127zM231 1364c52 0 98 -19.665 138 -58.998l-54 -74c-18 20.667 -39.833 34.667 -65.5 42s-49.5 4.16602 -71.5 -9.50098s-33.667 -38.834 -35 -75.501c1.33301 -56 40.333 -88 117 -96h107v-82h-400v82h131c-46.667 57.333 -54.5 117 -23.5 179
s83.167 93 156.5 93z" />
    <glyph glyph-name="uni0624" unicode="&#x624;" horiz-adv-x="880" 
d="M446 522c-61.333 0 -110.333 -19.333 -147 -58s-55 -86 -55 -142c0 -134 87.333 -201 262 -201c27.333 0 64 2.66699 110 8c15.333 32.667 23 79 23 139s-16.833 117.333 -50.5 172s-81.167 82 -142.5 82zM496 0c-122.667 0 -218.998 29.332 -288.998 87.999
s-105 135.834 -105 231.501s28.333 174.834 85 237.501s141.667 94 255 94s197.666 -36.5 252.999 -109.5s83 -159.667 83 -260s-19.833 -199.333 -59.5 -297s-109.834 -205.834 -210.501 -324.501l-109 88c79.333 82 141 167.333 185 256c-20.667 -2.66699 -50 -4 -88 -4z
M367.002 1092c52 0 97.667 -20 137 -60l-53 -74c-18 20.667 -40 34.834 -66 42.501s-49.833 4.66699 -71.5 -9s-33.167 -39.167 -34.5 -76.5c1.33301 -56 40 -88 116 -96h107v-82h-400v82h131c-46.667 57.333 -54.5 117.166 -23.5 179.499s83.5 93.5 157.5 93.5z" />
    <glyph glyph-name="uni0625" unicode="&#x625;" horiz-adv-x="331" 
d="M231 -106c52 0 98 -20 138 -60l-54 -74c-18 20.667 -39.833 34.834 -65.5 42.501s-49.5 4.66699 -71.5 -9s-33.667 -39.167 -35 -76.5c1.33301 -56 40.333 -88 117 -96h107v-82h-400v82h131c-46.667 57.333 -54.5 117.166 -23.5 179.499s83.167 93.5 156.5 93.5zM102 0
v907h127v-907h-127z" />
    <glyph glyph-name="uni0626" unicode="&#x626;" horiz-adv-x="1366" 
d="M229 319.5c0 -47.667 18.8311 -91.333 56.498 -131s81.834 -59.5 132.501 -59.5h389v262c0 65.333 24.5 123 73.5 173s106.5 75 172.5 75h211v-639h-129v512h-82c-28.667 0 -55.667 -12.333 -81 -37s-38 -52.667 -38 -84v-391h-516c-90 0 -165.167 31.667 -225.5 95
s-90.5 139.5 -90.5 228.5s26.333 162.833 79 221.5s121.334 91.334 206.001 98.001v-127c-44 -8 -81.333 -30.833 -112 -68.5s-46 -80.334 -46 -128.001zM366.998 1092c52 0 97.667 -20 137 -60l-53 -74c-18 20.667 -40 34.834 -66 42.501s-49.833 4.66699 -71.5 -9
s-33.167 -39.167 -34.5 -76.5c1.33301 -56 40 -88 116 -96h107v-82h-400v82h131c-46.667 57.333 -54.5 117.166 -23.5 179.499s83.5 93.5 157.5 93.5z" />
    <glyph glyph-name="uni0627" unicode="&#x627;" horiz-adv-x="331" 
d="M229 0h-127v907h127v-907z" />
    <glyph glyph-name="uni0628" unicode="&#x628;" horiz-adv-x="1363" 
d="M749 -102c20 0 36.668 -7.16699 50.001 -21.5s20 -31.5 20 -51.5s-6.83301 -36.833 -20.5 -50.5s-30.334 -20.5 -50.001 -20.5s-36.667 6.83301 -51 20.5s-21.5 30.5 -21.5 50.5s7.16699 37.167 21.5 51.5s31.5 21.5 51.5 21.5zM229.001 318.5
c0 -48.333 18.167 -92 54.5 -131s81.166 -58.5 134.499 -58.5h717v510h127v-639h-844c-91.333 0 -166.833 31.667 -226.5 95s-89.5 139.833 -89.5 229.5s26.333 163.5 79 221.5s121.334 90.333 206.001 97v-127c-45.333 -8 -83 -30.833 -113 -68.5s-45 -80.667 -45 -129z
" />
    <glyph glyph-name="uni0629" unicode="&#x629;" horiz-adv-x="856" 
d="M426 522c-52 0 -96.333 -20.167 -133 -60.5s-55 -85 -55 -134s18 -93 54 -132s81 -58.5 135 -58.5s100.5 19.167 139.5 57.5s58.5 82.5 58.5 132.5s-20.167 95 -60.5 135s-86.5 60 -138.5 60zM432 657c87.333 0 162.832 -32.333 226.499 -97s95.5 -140 95.5 -226v-8
c0 -90 -32.167 -166.833 -96.5 -230.5s-141.166 -95.5 -230.499 -95.5s-165.833 32.167 -229.5 96.5s-95.5 140.5 -95.5 228.5s32.5 165.333 97.5 232s140.5 100 226.5 100h6zM528.999 881c20 0 36.833 -7.16699 50.5 -21.5s20.5 -31.5 20.5 -51.5
s-6.83301 -36.833 -20.5 -50.5s-30.5 -20.5 -50.5 -20.5s-37 6.83301 -51 20.5s-21 30.5 -21 50.5s7 37.167 21 51.5s31 21.5 51 21.5zM344.999 881c20 0 36.833 -7.16699 50.5 -21.5s20.5 -31.5 20.5 -51.5s-6.83301 -36.833 -20.5 -50.5s-30.5 -20.5 -50.5 -20.5
s-37.167 6.83301 -51.5 20.5s-21.5 30.5 -21.5 50.5s7.16699 37.167 21.5 51.5s31.5 21.5 51.5 21.5z" />
    <glyph glyph-name="uni062A" unicode="&#x62a;" horiz-adv-x="1363" 
d="M229 318.5c0 -48.333 18.167 -92 54.5 -131s81.166 -58.5 134.499 -58.5h717v510h127v-639h-844c-91.333 0 -166.833 31.667 -226.5 95s-89.5 139.833 -89.5 229.5s26.333 163.5 79 221.5s121.334 90.333 206.001 97v-127c-45.333 -8 -83 -30.833 -113 -68.5
s-45 -80.667 -45 -129zM820 655c20 0 36.833 -7.16602 50.5 -21.499s20.5 -31.333 20.5 -51s-6.83301 -36.334 -20.5 -50.001s-30.5 -20.5 -50.5 -20.5s-37 6.83301 -51 20.5s-21 30.5 -21 50.5s7 37 21 51s31 21 51 21zM636 655.001c20 0 36.833 -7.16602 50.5 -21.499
s20.5 -31.333 20.5 -51s-6.83301 -36.334 -20.5 -50.001s-30.5 -20.5 -50.5 -20.5s-37.167 6.83301 -51.5 20.5s-21.5 30.5 -21.5 50.5s7.16699 37 21.5 51s31.5 21 51.5 21z" />
    <glyph glyph-name="uni062B" unicode="&#x62b;" horiz-adv-x="1394" 
d="M229 318.5c0 -48.333 18.167 -92 54.5 -131s81.166 -58.5 134.499 -58.5h717v510h127v-639h-844c-91.333 0 -166.833 31.667 -226.5 95s-89.5 139.833 -89.5 229.5s26.333 163.5 79 221.5s121.334 90.333 206.001 97v-127c-45.333 -8 -83 -30.833 -113 -68.5
s-45 -80.667 -45 -129zM824 655c20 0 36.833 -7.16602 50.5 -21.499s20.5 -31.333 20.5 -51s-6.83301 -36.334 -20.5 -50.001s-30.5 -20.5 -50.5 -20.5s-37 6.83301 -51 20.5s-21 30.5 -21 50.5s7 37 21 51s31 21 51 21zM640 655.001c20 0 36.833 -7.16602 50.5 -21.499
s20.5 -31.333 20.5 -51s-6.83301 -36.334 -20.5 -50.001s-30.5 -20.5 -50.5 -20.5s-37.167 6.83301 -51.5 20.5s-21.5 30.5 -21.5 50.5s7.16699 37 21.5 51s31.5 21 51.5 21zM732 799.002c20 0 36.833 -7.16699 50.5 -21.5s20.5 -31.5 20.5 -51.5
s-6.83301 -36.833 -20.5 -50.5s-30.5 -20.5 -50.5 -20.5s-37.167 6.83301 -51.5 20.5s-21.5 30.5 -21.5 50.5s7.16699 37.167 21.5 51.5s31.5 21.5 51.5 21.5z" />
    <glyph glyph-name="uni062C" unicode="&#x62c;" horiz-adv-x="1134" 
d="M564 -182c20 0 36.833 -7.16699 50.5 -21.5s20.5 -31.5 20.5 -51.5s-6.83301 -36.833 -20.5 -50.5s-30.5 -20.5 -50.5 -20.5s-37 6.83301 -51 20.5s-21 30.5 -21 50.5s7 37.167 21 51.5s31 21.5 51 21.5zM532 684c122.667 0 229.333 -45.668 320 -137.001
c102.667 -101.333 160.667 -231 174 -389c4 -56 6 -108.667 6 -158h-543c-168.667 0 -253 -62 -253 -186c0 -57.333 15 -104.666 45 -141.999h-154c-16.667 49.333 -25 99.333 -25 150c0 106.667 31 183.667 93 231c62.667 50.667 148.667 76 258 76h440
c0 124 -43.667 233.333 -131 328c-66.667 66.667 -140.167 100 -220.5 100s-154.5 -22.667 -222.5 -68l-73 103c90 61.333 185.333 92 286 92z" />
    <glyph glyph-name="uni062D" unicode="&#x62d;" horiz-adv-x="1134" 
d="M532 684c122.667 0 229.333 -45.668 320 -137.001c102.667 -101.333 160.667 -231 174 -389c4 -56 6 -108.667 6 -158h-543c-168.667 0 -253 -62 -253 -186c0 -57.333 15 -104.666 45 -141.999h-154c-16.667 49.333 -25 99.333 -25 150c0 106.667 31 183.667 93 231
c62.667 50.667 148.667 76 258 76h440c0 124 -43.667 233.333 -131 328c-66.667 66.667 -140.167 100 -220.5 100s-154.5 -22.667 -222.5 -68l-73 103c90 61.333 185.333 92 286 92z" />
    <glyph glyph-name="uni062E" unicode="&#x62e;" horiz-adv-x="1134" 
d="M532 684c122.667 0 229.333 -45.668 320 -137.001c102.667 -101.333 160.667 -231 174 -389c4 -56 6 -108.667 6 -158h-543c-168.667 0 -253 -62 -253 -186c0 -57.333 15 -104.666 45 -141.999h-154c-16.667 49.333 -25 99.333 -25 150c0 106.667 31 183.667 93 231
c62.667 50.667 148.667 76 258 76h440c0 124 -43.667 233.333 -131 328c-66.667 66.667 -140.167 100 -220.5 100s-154.5 -22.667 -222.5 -68l-73 103c90 61.333 185.333 92 286 92zM545.999 921.999c20 0 36.668 -7.16699 50.001 -21.5s20 -31.5 20 -51.5
s-6.83301 -36.833 -20.5 -50.5s-30.334 -20.5 -50.001 -20.5s-36.667 6.83301 -51 20.5s-21.5 30.5 -21.5 50.5s7.16699 37.167 21.5 51.5s31.5 21.5 51.5 21.5z" />
    <glyph glyph-name="uni062F" unicode="&#x62f;" horiz-adv-x="899" 
d="M102 0l0.00390625 127h555c-2.66699 132.667 -37.334 232.334 -104.001 299.001s-149.334 100 -248.001 100c-49.333 0 -102 -7.33301 -158 -22v123c61.333 20.667 121.666 30.667 180.999 30c136.667 0 248.667 -54.833 336 -164.5s131.666 -273.834 132.999 -492.501
h-695z" />
    <glyph glyph-name="uni0630" unicode="&#x630;" horiz-adv-x="899" 
d="M102 0l0.00390625 127h555c-2.66699 132.667 -37.334 232.334 -104.001 299.001s-149.334 100 -248.001 100c-49.333 0 -102 -7.33301 -158 -22v123c61.333 20.667 121.666 30.667 180.999 30c136.667 0 248.667 -54.833 336 -164.5s131.666 -273.834 132.999 -492.501
h-695zM292.004 922c20 0 36.667 -7.16699 50 -21.5s20 -31.5 20 -51.5s-6.66699 -36.833 -20 -50.5s-30 -20.5 -50 -20.5s-37.167 6.83301 -51.5 20.5s-21.5 30.5 -21.5 50.5s7.16699 37.167 21.5 51.5s31.5 21.5 51.5 21.5z" />
    <glyph glyph-name="uni0631" unicode="&#x631;" horiz-adv-x="464" 
d="M362 295c0 -250 -83.667 -461.667 -251 -635l-111 84c150 182.667 225 371 225 565c0 112 -24.333 222 -73 330h149c40.667 -113.333 61 -228 61 -344z" />
    <glyph glyph-name="uni0632" unicode="&#x632;" horiz-adv-x="464" 
d="M362 295c0 -250 -83.667 -461.667 -251 -635l-111 84c150 182.667 225 371 225 565c0 112 -24.333 222 -73 330h149c40.667 -113.333 61 -228 61 -344zM175 881c20 0 36.833 -7.16699 50.5 -21.5s20.5 -31.5 20.5 -51.5s-6.83301 -36.833 -20.5 -50.5
s-30.5 -20.5 -50.5 -20.5s-37.167 6.83301 -51.5 20.5s-21.5 30.5 -21.5 50.5s7.16699 37.167 21.5 51.5s31.5 21.5 51.5 21.5z" />
    <glyph glyph-name="uni0633" unicode="&#x633;" horiz-adv-x="1800" 
d="M375 276c-94.667 -60 -141.996 -148.001 -141.996 -264.001c0 -57.333 24.667 -112.5 74 -165.5s112.166 -79.5 188.499 -79.5s141.5 27.5 195.5 82.5s81 117.5 81 187.5v592h129v-383c0 -38 12.667 -70.333 38 -97s56.666 -40 93.999 -40s69.333 13.167 96 39.5
s40 58.833 40 97.5v383h127v-383c0 -35.333 14 -67 42 -95s59.833 -42 95.5 -42s67.5 13.167 95.5 39.5s42 58.833 42 97.5v383h127v-398c0 -69.333 -26.667 -130.666 -80 -183.999s-114.333 -80 -183 -80s-136.667 31.333 -204 94c-52 -62.667 -118.333 -94 -199 -94
c-42 0 -86.333 13 -133 39c-10.667 -104 -54.334 -192.167 -131.001 -264.5s-170.834 -108.5 -282.501 -108.5s-203.5 40 -275.5 120s-108 174 -108 282c0 160 68.333 278.667 205 356z" />
    <glyph glyph-name="uni0634" unicode="&#x634;" horiz-adv-x="1800" 
d="M375 276c-94.667 -60 -141.996 -148.001 -141.996 -264.001c0 -57.333 24.667 -112.5 74 -165.5s112.166 -79.5 188.499 -79.5s141.5 27.5 195.5 82.5s81 117.5 81 187.5v592h129v-383c0 -38 12.667 -70.333 38 -97s56.666 -40 93.999 -40s69.333 13.167 96 39.5
s40 58.833 40 97.5v383h127v-383c0 -35.333 14 -67 42 -95s59.833 -42 95.5 -42s67.5 13.167 95.5 39.5s42 58.833 42 97.5v383h127v-398c0 -69.333 -26.667 -130.666 -80 -183.999s-114.333 -80 -183 -80s-136.667 31.333 -204 94c-52 -62.667 -118.333 -94 -199 -94
c-42 0 -86.333 13 -133 39c-10.667 -104 -54.334 -192.167 -131.001 -264.5s-170.834 -108.5 -282.501 -108.5s-203.5 40 -275.5 120s-108 174 -108 282c0 160 68.333 278.667 205 356zM1326 880.999c20 0 36.833 -7.16699 50.5 -21.5s20.5 -31.5 20.5 -51.5
s-6.83301 -36.833 -20.5 -50.5s-30.5 -20.5 -50.5 -20.5s-37.167 6.83301 -51.5 20.5s-21.5 30.5 -21.5 50.5s7.16699 37.167 21.5 51.5s31.5 21.5 51.5 21.5zM1142 880.999c20 0 36.668 -7.16699 50.001 -21.5s20 -31.5 20 -51.5s-6.83301 -36.833 -20.5 -50.5
s-30.334 -20.5 -50.001 -20.5s-36.667 6.83301 -51 20.5s-21.5 30.5 -21.5 50.5s7.16699 37.167 21.5 51.5s31.5 21.5 51.5 21.5zM1234 1024c20 0 36.833 -7.16797 50.5 -21.501s20.5 -31.5 20.5 -51.5s-6.83301 -36.667 -20.5 -50s-30.5 -20 -50.5 -20
s-37.167 6.83301 -51.5 20.5s-21.5 30.334 -21.5 50.001s7.16699 36.667 21.5 51s31.5 21.5 51.5 21.5z" />
    <glyph glyph-name="uni0635" unicode="&#x635;" horiz-adv-x="1953" 
d="M1341.5 530c-103.667 0 -192.33 -40.833 -265.997 -122.5s-105.834 -174.5 -96.501 -278.5h731c9.33301 105.333 -23.834 198.5 -99.501 279.5s-165.334 121.5 -269.001 121.5zM373.004 283c-96 -56.667 -144.003 -144.999 -144.003 -264.999
c0 -58.667 24.667 -113.5 74 -164.5s112.5 -76.5 189.5 -76.5s142.833 26.667 197.5 80s82 116 82 188v594h119v-279c102.667 196.667 254.334 295 455.001 295c102.667 0 190.334 -22.5 263.001 -67.5s126.334 -102.167 161.001 -171.5
c67.333 -136.667 93 -275.334 77 -416.001h-956v-29c-19.333 -92.667 -66.5 -170.667 -141.5 -234s-160.167 -95 -255.5 -95c-118.667 0 -213.667 39.833 -285 119.5s-107 174.167 -107 283.5c0 157.333 68.333 276 205 356z" />
    <glyph glyph-name="uni0636" unicode="&#x636;" horiz-adv-x="1953" 
d="M1341.5 530c-103.667 0 -192.33 -40.833 -265.997 -122.5s-105.834 -174.5 -96.501 -278.5h731c9.33301 105.333 -23.834 198.5 -99.501 279.5s-165.334 121.5 -269.001 121.5zM373.004 283c-96 -56.667 -144.003 -144.999 -144.003 -264.999
c0 -58.667 24.667 -113.5 74 -164.5s112.5 -76.5 189.5 -76.5s142.833 26.667 197.5 80s82 116 82 188v594h119v-279c102.667 196.667 254.334 295 455.001 295c102.667 0 190.334 -22.5 263.001 -67.5s126.334 -102.167 161.001 -171.5
c67.333 -136.667 93 -275.334 77 -416.001h-956v-29c-19.333 -92.667 -66.5 -170.667 -141.5 -234s-160.167 -95 -255.5 -95c-118.667 0 -213.667 39.833 -285 119.5s-107 174.167 -107 283.5c0 157.333 68.333 276 205 356zM1357 881.001
c20 0 36.668 -7.16699 50.001 -21.5s20 -31.5 20 -51.5s-6.83301 -36.833 -20.5 -50.5s-30.334 -20.5 -50.001 -20.5s-36.667 6.83301 -51 20.5s-21.5 30.5 -21.5 50.5s7.16699 37.167 21.5 51.5s31.5 21.5 51.5 21.5z" />
    <glyph glyph-name="uni0637" unicode="&#x637;" horiz-adv-x="1431" 
d="M817.5 528c-103.667 0 -192.167 -40.5 -265.5 -121.5s-105 -173.5 -95 -277.5h731c9.33301 104 -24.167 196.5 -100.5 277.5s-166.333 121.5 -270 121.5zM817 655c105.333 0 195.168 -22.832 269.501 -68.499s128.5 -103.834 162.5 -174.501
c65.333 -134.667 90.666 -272 75.999 -412h-1223v129h217v778h130v-424c87.333 114.667 210 172 368 172z" />
    <glyph glyph-name="uni0638" unicode="&#x638;" horiz-adv-x="1431" 
d="M817.5 528c-103.667 0 -192.167 -40.5 -265.5 -121.5s-105 -173.5 -95 -277.5h731c9.33301 104 -24.167 196.5 -100.5 277.5s-166.333 121.5 -270 121.5zM826 881c20 0 36.833 -7.16699 50.5 -21.5s20.5 -31.5 20.5 -51.5s-6.83301 -36.833 -20.5 -50.5
s-30.5 -20.5 -50.5 -20.5s-37 6.83301 -51 20.5s-21 30.5 -21 50.5s7 37.167 21 51.5s31 21.5 51 21.5zM817 655c105.333 0 195.168 -22.832 269.501 -68.499s128.5 -103.834 162.5 -174.501c65.333 -134.667 90.666 -272 75.999 -412h-1223v129h217v778h130v-424
c87.333 114.667 210 172 368 172z" />
    <glyph glyph-name="uni0639" unicode="&#x639;" horiz-adv-x="1042" 
d="M663 524c-58.667 0 -105.667 -19.3369 -141 -58.0039s-52.333 -83.667 -51 -135s20.333 -95.333 57 -132c42 -46.667 101.667 -70 179 -70h233v-129h-453c-69.333 0 -128.166 -15 -176.499 -45s-72.5 -75.167 -72.5 -135.5s15 -108.833 45 -145.5h-152
c-19.333 46.667 -29 96.667 -29 150c0 88.667 22.667 156.334 68 203.001c44 54.667 119 91.334 225 110.001c-45.333 60 -65.833 130.333 -61.5 211s37.166 148.334 98.499 203.001c74 64 153.667 95.333 239 94s163.333 -32.666 234 -93.999l-76 -105
c-52 52 -107.333 78 -166 78z" />
    <glyph glyph-name="uni063A" unicode="&#x63a;" horiz-adv-x="1042" 
d="M663 524c-58.667 0 -105.667 -19.3369 -141 -58.0039s-52.333 -83.667 -51 -135s20.333 -95.333 57 -132c42 -46.667 101.667 -70 179 -70h233v-129h-453c-69.333 0 -128.166 -15 -176.499 -45s-72.5 -75.167 -72.5 -135.5s15 -108.833 45 -145.5h-152
c-19.333 46.667 -29 96.667 -29 150c0 88.667 22.667 156.334 68 203.001c44 54.667 119 91.334 225 110.001c-45.333 60 -65.833 130.333 -61.5 211s37.166 148.334 98.499 203.001c74 64 153.667 95.333 239 94s163.333 -32.666 234 -93.999l-76 -105
c-52 52 -107.333 78 -166 78zM663 880.996c20 0 36.668 -7.16699 50.001 -21.5s20 -31.5 20 -51.5s-6.83301 -36.833 -20.5 -50.5s-30.334 -20.5 -50.001 -20.5s-36.667 6.83301 -51 20.5s-21.5 30.5 -21.5 50.5s7.16699 37.167 21.5 51.5s31.5 21.5 51.5 21.5z" />
    <glyph glyph-name="uni0640" unicode="&#x640;" horiz-adv-x="233" 
d="M233 0h-253v129h253v-129z" />
    <glyph glyph-name="uni0641" unicode="&#x641;" horiz-adv-x="1566" 
d="M1108 522c-49.333 0 -91.668 -21.502 -127.001 -64.502s-53 -88.667 -53 -137s17.333 -92.333 52 -132s77.334 -59.5 128.001 -59.5s94 19.833 130 59.5s54 83.834 54 132.501s-18.333 94.334 -55 137.001s-79.667 64 -129 64zM1108 644.998
c92.667 0 170.164 -31.333 232.497 -94s93.5 -137.667 93.5 -225c0.666992 -50 -11.666 -100 -36.999 -150c-68 -117.333 -165 -176 -291 -176h-688c-90 0 -165.167 31.667 -225.5 95s-90.5 139.833 -90.5 229.5s26.333 163.5 79 221.5s121.334 90.333 206.001 97v-129
c-45.333 -8 -83 -30.5 -113 -67.5s-45 -79.667 -45 -128s18.167 -92 54.5 -131s81.166 -58.5 134.499 -58.5h430c-42 60 -63.167 129.667 -63.5 209s30.334 150.333 92.001 213s138.834 94 231.501 94zM1105 880.998c20 0 36.833 -7.16699 50.5 -21.5s20.5 -31.5 20.5 -51.5
s-6.83301 -36.833 -20.5 -50.5s-30.5 -20.5 -50.5 -20.5s-37.167 6.83301 -51.5 20.5s-21.5 30.5 -21.5 50.5s7.16699 37.167 21.5 51.5s31.5 21.5 51.5 21.5z" />
    <glyph glyph-name="uni0642" unicode="&#x642;" horiz-adv-x="1536" 
d="M1108 522c-49.333 0 -91.668 -21.502 -127.001 -64.502s-53 -88.667 -53 -137s17.333 -92.333 52 -132s77.334 -59.5 128.001 -59.5s94 19.833 130 59.5s54 83.834 54 132.501s-18.333 94.334 -55 137.001s-79.667 64 -129 64zM1108 644.998
c92.667 0 170.164 -31.333 232.497 -94s93.5 -137.667 93.5 -225c0.666992 -50 -11.666 -100 -36.999 -150c-68 -117.333 -165 -176 -291 -176h-688c-90 0 -165.167 31.667 -225.5 95s-90.5 139.833 -90.5 229.5s26.333 163.5 79 221.5s121.334 90.333 206.001 97v-129
c-45.333 -8 -83 -30.5 -113 -67.5s-45 -79.667 -45 -128s18.167 -92 54.5 -131s81.166 -58.5 134.499 -58.5h430c-42 60 -63.167 129.667 -63.5 209s30.334 150.333 92.001 213s138.834 94 231.501 94zM1201 880.998c20 0 36.833 -7.16699 50.5 -21.5s20.5 -31.5 20.5 -51.5
s-6.83301 -36.833 -20.5 -50.5s-30.5 -20.5 -50.5 -20.5s-37.167 6.83301 -51.5 20.5s-21.5 30.5 -21.5 50.5s7.16699 37.167 21.5 51.5s31.5 21.5 51.5 21.5zM1017 880.998c20 0 36.667 -7.16699 50 -21.5s20 -31.5 20 -51.5s-6.66699 -36.833 -20 -50.5
s-30 -20.5 -50 -20.5s-37.167 6.83301 -51.5 20.5s-21.5 30.5 -21.5 50.5s7.16699 37.167 21.5 51.5s31.5 21.5 51.5 21.5z" />
    <glyph glyph-name="uni0643" unicode="&#x643;" horiz-adv-x="1363" 
d="M817 868c52 0 97.667 -19.668 137 -59.001l-53 -74c-18 20.667 -39.833 34.667 -65.5 42s-49.5 4.33301 -71.5 -9s-33.667 -38.666 -35 -75.999c1.33301 -56 40.333 -88 117 -96h106v-82h-399v82h131c-46.667 57.333 -54.5 117 -23.5 179s83.167 93 156.5 93z
M1262 -0.000976562l-846.001 -0.000976562c-91.333 0 -166.5 31.333 -225.5 94s-88.5 138.834 -88.5 228.501s26 163.5 78 221.5s120.333 90.333 205 97v-127c-45.333 -8 -83 -30.5 -113 -67.5s-45 -80 -45 -129s18.833 -92.667 56.5 -131s81.834 -57.5 132.501 -57.5h719
v778h127v-907z" />
    <glyph glyph-name="uni0644" unicode="&#x644;" horiz-adv-x="1009" 
d="M907 51c0 -110.667 -38.832 -205.166 -116.499 -283.499s-171.834 -117.5 -282.501 -117.5s-206 38.167 -286 114.5s-120 170.5 -120 282.5c0 74 19.167 143 57.5 207s90.166 115.333 155.499 154l68 -121c-49.333 -36.667 -86.166 -72.167 -110.499 -106.5
s-36.5 -82.833 -36.5 -145.5s27.167 -121.334 81.5 -176.001s117.5 -82 189.5 -82s135.5 27 190.5 81s82.5 117 82.5 189v868h127v-864z" />
    <glyph glyph-name="uni0645" unicode="&#x645;" horiz-adv-x="1064" 
d="M642 522c-52.667 0 -97.332 -20.499 -133.999 -61.499s-55 -87 -55 -138s19 -96.333 57 -136s82 -59.5 132 -59.5s94.5 20.5 133.5 61.5s58.5 86.167 58.5 135.5s-18.833 94.666 -56.5 135.999s-82.834 62 -135.501 62zM643.002 649.001
c88.667 0 164.167 -33.8311 226.5 -101.498s93.5 -143.834 93.5 -228.501c0 -56 -13.667 -105 -41 -147c-19.333 -40.667 -54.333 -79.5 -105 -116.5s-108.667 -55.5 -174 -55.5c-94 0 -171.833 33.833 -233.5 101.5s-89.5 153.167 -83.5 256.5
c-58.667 -101.333 -88 -202.166 -88 -302.499s35.333 -202.833 106 -307.5h-151c-60 109.333 -90.333 216.666 -91 321.999c0 151.333 53.333 285.666 160 402.999s233.667 176 381 176z" />
    <glyph glyph-name="uni0646" unicode="&#x646;" horiz-adv-x="1101" 
d="M559 -215h-14c-135.333 2.66699 -243 49 -323 139s-120 194 -120 312c0 80.667 20.167 155.667 60.5 225s99.5 124.666 177.5 165.999l45 -101c-48 -24.667 -86.667 -64.5 -116 -119.5s-44 -117.833 -44 -188.5s27 -135.667 81 -195s133.667 -93 239 -101
c87.333 2.66699 162.333 33.334 225 92.001s94 131.667 94 219v406h135v-426c-5.33301 -114.667 -51 -214.667 -137 -300s-187 -128 -303 -128zM601 659c20 0 36.833 -7.16602 50.5 -21.499s20.5 -31.333 20.5 -51s-6.83301 -36.334 -20.5 -50.001s-30.5 -20.5 -50.5 -20.5
s-37.167 6.83301 -51.5 20.5s-21.5 30.5 -21.5 50.5s7.16699 37 21.5 51s31.5 21 51.5 21z" />
    <glyph glyph-name="uni0647" unicode="&#x647;" horiz-adv-x="856" 
d="M426 522c-52 0 -96.333 -20.167 -133 -60.5s-55 -85 -55 -134s18 -93 54 -132s81 -58.5 135 -58.5s100.5 19.167 139.5 57.5s58.5 82.5 58.5 132.5s-20.167 95 -60.5 135s-86.5 60 -138.5 60zM432 657c87.333 0 162.832 -32.333 226.499 -97s95.5 -140 95.5 -226v-8
c0 -90 -32.167 -166.833 -96.5 -230.5s-141.166 -95.5 -230.499 -95.5s-165.833 32.167 -229.5 96.5s-95.5 140.5 -95.5 228.5s32.5 165.333 97.5 232s140.5 100 226.5 100h6z" />
    <glyph glyph-name="uni0648" unicode="&#x648;" horiz-adv-x="880" 
d="M446 522c-61.333 0 -110.333 -19.333 -147 -58s-55 -86 -55 -142c0 -134 87.333 -201 262 -201c27.333 0 64 2.66699 110 8c15.333 32.667 23 79 23 139s-16.833 117.333 -50.5 172s-81.167 82 -142.5 82zM496 0c-122.667 0 -218.998 29.332 -288.998 87.999
s-105 135.834 -105 231.501s28.333 174.834 85 237.501s141.667 94 255 94s197.666 -36.5 252.999 -109.5s83 -159.667 83 -260s-19.833 -199.333 -59.5 -297s-109.834 -205.834 -210.501 -324.501l-109 88c79.333 82 141 167.333 185 256c-20.667 -2.66699 -50 -4 -88 -4z
" />
    <glyph glyph-name="uni0649" unicode="&#x649;" horiz-adv-x="1366" 
d="M229 319.5c0 -47.667 18.8311 -91.333 56.498 -131s81.834 -59.5 132.501 -59.5h389v262c0 65.333 24.5 123 73.5 173s106.5 75 172.5 75h211v-639h-129v512h-82c-28.667 0 -55.667 -12.333 -81 -37s-38 -52.667 -38 -84v-391h-516c-90 0 -165.167 31.667 -225.5 95
s-90.5 139.5 -90.5 228.5s26.333 162.833 79 221.5s121.334 91.334 206.001 98.001v-127c-44 -8 -81.333 -30.833 -112 -68.5s-46 -80.334 -46 -128.001z" />
    <glyph glyph-name="uni064A" unicode="&#x64a;" horiz-adv-x="1366" 
d="M867 -102c20 0 36.833 -7.16699 50.5 -21.5s20.5 -31.5 20.5 -51.5s-6.83301 -36.833 -20.5 -50.5s-30.5 -20.5 -50.5 -20.5s-37 6.83301 -51 20.5s-21 30.5 -21 50.5s7 37.167 21 51.5s31 21.5 51 21.5zM683 -102c20 0 36.833 -7.16699 50.5 -21.5
s20.5 -31.5 20.5 -51.5s-6.83301 -36.833 -20.5 -50.5s-30.5 -20.5 -50.5 -20.5s-37.167 6.83301 -51.5 20.5s-21.5 30.5 -21.5 50.5s7.16699 37.167 21.5 51.5s31.5 21.5 51.5 21.5zM229 319.5c0 -47.667 18.8311 -91.333 56.498 -131s81.834 -59.5 132.501 -59.5h389v262
c0 65.333 24.5 123 73.5 173s106.5 75 172.5 75h211v-639h-129v512h-82c-28.667 0 -55.667 -12.333 -81 -37s-38 -52.667 -38 -84v-391h-516c-90 0 -165.167 31.667 -225.5 95s-90.5 139.5 -90.5 228.5s26.333 162.833 79 221.5s121.334 91.334 206.001 98.001v-127
c-44 -8 -81.333 -30.833 -112 -68.5s-46 -80.334 -46 -128.001z" />
    <glyph glyph-name="uni064B" unicode="&#x64b;" horiz-adv-x="0" 
d="M195 176l-359 -176l-29 59l357 174zM195 350l-355 -174l-33 60l359 174z" />
    <glyph glyph-name="uni064C" unicode="&#x64c;" horiz-adv-x="0" 
d="M-1 367c-24 0 -45.1689 -9 -63.502 -27s-27.5 -39.167 -27.5 -63.5s8.83301 -45.5 26.5 -63.5s38.834 -27 63.501 -27s45.834 9 63.501 27s26.5 39.167 26.5 63.5s-8.83301 45.5 -26.5 63.5s-38.5 27 -62.5 27zM-156.002 272c0 44 14.999 81 44.999 111s67 45 111 45
s81 -15.333 111 -46s45 -65.167 45 -103.5s-9.66699 -70.5 -29 -96.5s-44.666 -44.333 -75.999 -55v-2l-254 -125l-96 193l57 28l68 -133l98 49c-53.333 28.667 -80 73.667 -80 135z" />
    <glyph glyph-name="uni064D" unicode="&#x64d;" horiz-adv-x="0" 
d="M195 -236l-359 -174l-29 60l357 174zM195 -59l-355 -177l-33 60l359 176z" />
    <glyph glyph-name="uni064E" unicode="&#x64e;" horiz-adv-x="0" 
d="M195 176l-359 -176l-29 59l357 174z" />
    <glyph glyph-name="uni064F" unicode="&#x64f;" horiz-adv-x="0" 
d="M-1 346c-24 0 -45.1689 -8.83301 -63.502 -26.5s-27.5 -38.834 -27.5 -63.501s8.83301 -45.834 26.5 -63.501s38.834 -26.5 63.501 -26.5s45.834 8.83301 63.501 26.5s26.5 38.834 26.5 63.501s-8.83301 45.834 -26.5 63.501s-38.5 26.5 -62.5 26.5zM-156.002 252
c0 44 14.999 81 44.999 111s67 45 111 45s81 -15.5 111 -46.5s45 -65.5 45 -103.5s-9.66699 -70 -29 -96s-44.666 -44.667 -75.999 -56v-2l-211 -104l-33 59l117 58c-53.333 28.667 -80 73.667 -80 135z" />
    <glyph glyph-name="uni0650" unicode="&#x650;" horiz-adv-x="0" 
d="M195 -59l-355 -177l-33 60l359 176z" />
    <glyph glyph-name="uni0651" unicode="&#x651;" horiz-adv-x="0" 
d="M199 389l0.00195312 -47c-0.666992 -90.667 -15.667 -157.334 -45 -200.001c-15.333 -21.333 -38.333 -32.166 -69 -32.499s-57.667 17.167 -81 52.5c-20.667 -66.667 -53.667 -100 -99 -100c-46 0 -78.333 26 -97 78c-6.66699 19.333 -10.834 43.5 -12.501 72.5
s-2.16699 46.833 -1.5 53.5s1 13.667 1 21v8h64c-6.66699 -113.333 7.66602 -170 42.999 -170c45.333 0 66.333 72.333 63 217h64c-2.66699 -113.333 18.333 -170 63 -170c32.667 0 47 72.333 43 217h64z" />
    <glyph glyph-name="uni0652" unicode="&#x652;" horiz-adv-x="0" 
d="M-1 311c-24 0 -45.1689 -8.83301 -63.502 -26.5s-27.5 -38.834 -27.5 -63.501s8.83301 -45.834 26.5 -63.501s38.834 -26.5 63.501 -26.5s45.834 8.83301 63.501 26.5s26.5 38.834 26.5 63.501s-8.83301 45.834 -26.5 63.501s-38.5 26.5 -62.5 26.5zM-0.00195312 373
c44 0 81 -15 111 -45s45 -66.833 45 -110.5s-15 -80.667 -45 -111s-67 -45.5 -111 -45.5s-81 15.167 -111 45.5s-45 67.333 -45 111s15 80.5 45 110.5s67 45 111 45z" />
    <glyph glyph-name="uni0660" unicode="&#x660;" 
d="M537 578c0.666992 66.667 -15 118 -47 154s-77.333 54 -136 54s-103.667 -18 -135 -54s-47 -87.333 -47 -154v-265c0 -66.667 15.667 -118 47 -154c31.333 -36.667 76.333 -55 135 -55s103.667 18 135 54s47.333 87.667 48 155v265zM43 578
c0 101.333 31.334 181.667 94.001 241c58.667 58.667 130.667 88 216 88s158.666 -30 219.999 -90s92.333 -139.667 93 -239v-265c0 -96.667 -31 -177 -93 -241c-60 -57.333 -133.333 -86 -220 -86s-160 30 -220 90s-90 139 -90 237v265z" />
    <glyph glyph-name="uni0661" unicode="&#x661;" 
d="M424 0h-123v780h-160l33 111h250v-891z" />
    <glyph glyph-name="uni0662" unicode="&#x662;" 
d="M362 907c82.667 0 152.002 -27.332 208.002 -81.999s83.667 -118 83 -190c0 -72 -16.333 -131 -49 -177s-83.667 -95.667 -153 -149l-250 -194v-2h448v-113h-489c-79.333 0 -119 31.333 -119 94c0.666992 23.333 7.66699 42.333 21 57s33 32 59 52l313 246
c64 50.667 96 109.334 96 176.001c0 49.333 -16.333 90.333 -49 123c-34 31.333 -77.667 47 -131 47c-53.333 0.666992 -96 -16.333 -128 -51s-48 -77.667 -48 -129s17.667 -92.333 53 -123c31.333 -31.333 69.666 -49.333 114.999 -54l-104 -82
c-122.667 44 -184.334 133 -185.001 267c0.666992 83.333 31.667 151.666 93 204.999s133.333 79.666 216 78.999z" />
    <glyph glyph-name="uni0663" unicode="&#x663;" 
d="M463 891c84.667 0 127 -31.999 127 -95.999c0 -27.333 -8.33301 -51 -25 -71s-44 -45.667 -82 -77l-121 -102c83.333 0 152.333 -23.667 207 -71c54.667 -48 82 -112.667 82 -194s-25 -148.333 -75 -201s-113.667 -79 -191 -79h-328v113h295c57.333 0 101 15.667 131 47
s45 70.666 45 117.999c0 46.667 -18.333 84 -55 112s-88 42 -154 42h-139v90l281 258h-383v111h385z" />
    <glyph glyph-name="uni0664" unicode="&#x664;" 
d="M539 889v-570.001h133v-112h-133v-207h-123v207h-318c-57.333 0 -86 24.667 -86 74c0 16.667 13 47.334 39 92.001l287 518h133l-321 -572h266v383l112 193l9 12c1.33301 0 2 -6 2 -18z" />
    <glyph glyph-name="uni0665" unicode="&#x665;" 
d="M575 780h-344.002v-233h109c100 0 178 -23.667 234 -71s84.333 -112 85 -194c0 -82 -23.667 -148 -71 -198c-49.333 -56 -113.666 -84 -192.999 -84h-323v113h290c54.667 0 96.334 14.333 125.001 43s43 66.667 43 114c0 110.667 -66 166 -198 166h-223v455h466v-111z
" />
    <glyph glyph-name="uni0666" unicode="&#x666;" 
d="M154 284c0 -46.667 19.332 -89.667 57.999 -129s85.667 -59 141 -59s103 20.667 143 62s59.667 93.333 59 156c0 64 -23 115.333 -69 154s-106.333 56.667 -181 54l70 103c96.667 -4 172.334 -35.667 227.001 -95c50.667 -58.667 76 -132.334 76 -221.001
s-31.667 -164.667 -95 -228s-141 -95 -233 -95s-168 30.333 -228 91c-60.667 60.667 -91 135.334 -91 224.001c0 57.333 11.667 108 35 152c12 26 39 69.667 81 131l218 307h147l-279 -389c-28.667 -40 -49 -74.667 -61 -104s-18 -67.333 -18 -114z" />
    <glyph glyph-name="uni0667" unicode="&#x667;" 
d="M504 891c91.333 0 137.001 -30 137.001 -90c0 -24.667 -7.66699 -54 -23 -88c-16.667 -30 -34.334 -69 -53.001 -117l-264 -596h-141l350 780h-455v111h449z" />
    <glyph glyph-name="uni0668" unicode="&#x668;" 
d="M354 440c-56 0 -101.333 -15.667 -136 -47s-52 -73 -52 -125s17.333 -93.667 52 -125s80 -47 136 -47s101 15.667 135 47s51.333 73 52 125s-16.333 93.667 -51 125s-80 47 -136 47zM351 795c-37.333 0 -67.666 -11.667 -90.999 -35s-35 -52 -35 -86
s11.667 -62.667 35 -86s53.666 -35 90.999 -35s67.666 11.667 90.999 35s35 52 35 86s-11.667 62.667 -35 86s-53.666 35 -90.999 35zM96 700c0 50.667 23.999 97.9961 71.999 141.996s109.667 65.667 185 65c74.667 0 135.334 -19.667 182.001 -59
c48.667 -37.333 73 -90.666 73 -159.999s-26.667 -130.666 -80 -183.999c95.333 -50.667 143.333 -129.334 144 -236.001c0 -79.333 -27.333 -144.666 -82 -195.999c-57.333 -57.333 -135.333 -86 -234 -86s-176.334 27.333 -233.001 82
c-57.333 54.667 -86 121.334 -86 200.001c0 98 47.667 176.667 143 236c-29.333 30 -50.666 57.667 -63.999 83c-13.333 24.667 -20 62.334 -20 113.001z" />
    <glyph glyph-name="uni0669" unicode="&#x669;" 
d="M359 907c90 0 165.669 -30.668 227.002 -92.001s92 -136.333 92 -225c0 -53.333 -11 -104 -33 -152c-15.333 -28.667 -43.333 -71.667 -84 -129l-217 -309h-147l276 389c30 40.667 50.667 74 62 100c13.333 38 20 79.333 20 124s-19 86 -57 124
c-38.667 38 -85.334 57 -140.001 57s-102.334 -19.333 -143.001 -58c-40.667 -40 -61 -92 -61 -156s22 -115.333 66 -154c44 -38 105 -57 183 -57l-71 -101c-94.667 0 -168.667 29.667 -222 89s-80 134.333 -80 225s32.667 167.334 98 230.001
c64.667 63.333 141.667 95 231 95z" />
    <glyph glyph-name="endash" unicode="&#x2013;" horiz-adv-x="636" 
d="M637 264h-637v82h637v-82z" />
    <glyph glyph-name="emdash" unicode="&#x2014;" horiz-adv-x="1273" 
d="M1274 264h-1274v82h1274v-82z" />
    <glyph glyph-name="quoteleft" unicode="&#x2018;" horiz-adv-x="282" 
d="M211 635h-94l-58 256h107z" />
    <glyph glyph-name="quoteright" unicode="&#x2019;" horiz-adv-x="282" 
d="M166 635h-94l45 256h106z" />
    <glyph glyph-name="quotesinglbase" unicode="&#x201a;" horiz-adv-x="282" 
d="M139 -129h-94l47 256h107z" />
    <glyph glyph-name="quotedblleft" unicode="&#x201c;" horiz-adv-x="495" 
d="M442 635h-94l-59 256h106zM207 635h-94l-60 256h107z" />
    <glyph glyph-name="quotedblright" unicode="&#x201d;" horiz-adv-x="495" 
d="M383 635h-94l47 256h106zM147 635h-94l47 256h107z" />
    <glyph glyph-name="quotedblbase" unicode="&#x201e;" horiz-adv-x="495" 
d="M383 -129h-94l47 256h106zM147 -129h-94l47 256h107z" />
    <glyph glyph-name="dagger" unicode="&#x2020;" horiz-adv-x="636" 
d="M342 -74l0.000976562 -96h-47v96c0 82.667 -5 172.667 -15 270s-18 155 -24 173l35 215l-209 -39v123l209 -39l-33 262h121l-33 -262l209 39v-123l-209 39l35 -215c-4.66699 -18 -12.334 -75.667 -23.001 -173s-16 -187.333 -16 -270z" />
    <glyph glyph-name="daggerdbl" unicode="&#x2021;" horiz-adv-x="636" 
d="M346 629l209 39v-123l-209 39l35 -224l-35 -223l209 39v-123l-209 39l35 -262h-125l35 262l-209 -39v123l209 -39l-35 223l35 224l-209 -39v123l209 -39l-35 262h125z" />
    <glyph glyph-name="bullet" unicode="&#x2022;" horiz-adv-x="636" 
d="M318 670c62.667 0 115.332 -21.333 157.999 -64s64 -96.667 64 -162c0 -64 -21 -115.667 -63 -155c-44 -44 -97 -66 -159 -66s-114.667 22 -158 66c-42.667 39.333 -64 91 -64 155s21.333 117.667 64 161s95.334 65 158.001 65z" />
    <glyph glyph-name="ellipsis" unicode="&#x2026;" horiz-adv-x="1273" 
d="M1061 143c20.667 -0.666992 38.3311 -8.33398 52.998 -23.001s22.334 -32.667 23.001 -54c0 -21.333 -7.66699 -39 -23 -53c-16 -14 -34 -21 -54 -21s-37.333 7.33301 -52 22s-22.334 32.334 -23.001 53.001c0.666992 21.333 8.33398 39.333 23.001 54
s32.334 22 53.001 22zM636.997 143c20.667 -0.666992 38.3311 -8.33398 52.998 -23.001s22.334 -32.667 23.001 -54c0 -21.333 -7.66699 -39 -23 -53c-16 -14 -34 -21 -54 -21s-37.333 7.33301 -52 22s-22.334 32.334 -23.001 53.001
c0.666992 21.333 8.33398 39.333 23.001 54s32.334 22 53.001 22zM212.994 143c20.667 -0.666992 38.3311 -8.33398 52.998 -23.001s22.334 -32.667 23.001 -54c0 -21.333 -7.66699 -39 -23 -53c-16 -14 -34 -21 -54 -21s-37.333 7.33301 -52 22
s-22.334 32.334 -23.001 53.001c0.666992 21.333 8.33398 39.333 23.001 54s32.334 22 53.001 22z" />
    <glyph glyph-name="perthousand" unicode="&#x2030;" horiz-adv-x="1273" 
d="M1090 303c-30 0 -56 -10.333 -78 -31c-22 -21.333 -33 -47.333 -33 -78s11 -56.667 33 -78s48 -32 78 -32c29.333 0 54.666 10.333 75.999 31s32 47 32 79s-10.667 58 -32 78s-46.666 30.333 -75.999 31zM636 303c-30.667 0 -56.667 -10.333 -78 -31
c-21.333 -20 -32 -46 -32 -78s10.667 -58.333 32 -79s47.333 -31 78 -31s56.667 10.333 78 31s32 47 32 79s-10.667 58 -32 78s-47.333 30.333 -78 31zM1090 403c54.667 0 103 -18.999 145 -56.999c42 -42 63 -92.333 63 -151s-21 -109.334 -63 -152.001
c-40.667 -38 -89.334 -57 -146.001 -57s-105.667 19.667 -147 59s-62 89 -62 149s21.333 110 64 150c42.667 39.333 91.334 59 146.001 59zM637 403.001c54.667 0 102.667 -19.333 144 -58c42 -38.667 63 -88.667 63 -150c0 -62 -20 -112.333 -60 -151s-88.667 -58 -146 -58
c-56 0 -105.333 19.667 -148 59s-64 89 -64 149s21.333 110 64 150c42.667 39.333 91.667 59 147 59zM195 807.001c-30 0 -55.667 -10.333 -77 -31s-32 -47 -32 -79s10.667 -58.333 32 -79c21.333 -20 47 -30 77 -30s55.667 10.667 77 32s32.333 47.333 33 78
c-0.666992 30.667 -11.667 56.667 -33 78c-21.333 20.667 -47 31 -77 31zM164 -13.999h-78l592 921h78zM196 907.001c54 0 101.998 -19.334 143.998 -58.001c42 -39.333 63 -89.666 63 -150.999s-20.667 -111.333 -62 -150s-89.666 -58 -144.999 -58
s-104.333 19.333 -147 58c-42.667 40 -63.667 90 -63 150c0 60 21.333 110 64 150s91.334 59.667 146.001 59z" />
    <glyph glyph-name="guilsinglleft" unicode="&#x2039;" horiz-adv-x="423" 
d="M184 305l166 -196h-96l-166 196l158 197h96z" />
    <glyph glyph-name="guilsinglright" unicode="&#x203a;" horiz-adv-x="423" 
d="M336 305l-166 -196h-96l166 196l-158 197h96z" />
    <glyph glyph-name="Euro" unicode="&#x20ac;" 
d="M43 496v105.998h109c32 83.333 86 152.333 162 207s167.333 82 274 82h94v-111h-82c-70.667 0 -134 -16 -190 -48s-98.333 -75.333 -127 -130h258v-106h-291c-2.66699 -21.333 -4 -36.666 -4 -45.999s0.666992 -15.333 2 -18v-12h293v-107h-273
c24.667 -65.333 64.667 -115 120 -149s111 -51 167 -51h127v-113h-127c-100.667 0 -189 29 -265 87s-126.333 133.333 -151 226h-96v107h80v12c-1.33301 2.66699 -2 7.33398 -2 14.001v25l2 25h-80z" />
    <glyph glyph-name="trademark" unicode="&#x2122;" horiz-adv-x="1261" 
d="M1192 367h-107v413h-2l-157 -413h-72l-156 413h-2v-413h-108v524h160l143 -371l143 371h158v-524zM492 811h-158v-444h-107v444h-157v80h422v-80z" />
    <glyph glyph-name=".null" horiz-adv-x="0" 
 />
    <glyph glyph-name="nonmarkingreturn" horiz-adv-x="681" 
 />
    <glyph glyph-name="beeehar" horiz-adv-x="1363" 
d="M229 318c0.666992 -48 18.999 -91.3311 54.999 -129.998s80.667 -58.334 134 -59.001h717v510h127v-639h-844c-91.333 0 -167 31.667 -227 95c-59.333 63.333 -89 139.666 -89 228.999s26.333 163.333 79 222c52.667 58 121.334 90.333 206.001 97v-127
c-45.333 -8 -83 -30.667 -113 -68c-30 -38.667 -45 -82 -45 -130z" />
    <glyph glyph-name="beeehar.fina" horiz-adv-x="1370" 
d="M229 318c0.666992 -48 18.999 -91.3311 54.999 -129.998s80.667 -58.334 134 -59.001h717v510h127v-510h108v-129h-952c-91.333 0 -167 31.667 -227 95c-59.333 63.333 -89 139.666 -89 228.999s26.333 163.333 79 222c52.667 58 121.334 90.333 206.001 97v-127
c-45.333 -8 -83 -30.667 -113 -68c-30 -38.667 -45 -82 -45 -130z" />
    <glyph glyph-name="feeehar" horiz-adv-x="1536" 
d="M1108 522c-49.333 0 -91.668 -21.333 -127.001 -64s-53 -88.667 -53 -138c0 -48 17.333 -92 52 -132s77.334 -59.667 128.001 -59c50.667 0 94 19.667 130 59c36 38.667 54 82.667 54 132s-18.333 95.333 -55 138s-79.667 64 -129 64zM1108 645
c92.667 0 169.999 -31.3311 231.999 -93.998s93.333 -137.667 94 -225c0.666992 -50 -11.666 -100 -36.999 -150c-68 -117.333 -165 -176 -291 -176h-688c-90 0 -165 31.667 -225 95c-60.667 63.333 -91 139.666 -91 228.999s26.333 163.333 79 222
c52.667 58 121.334 90.333 206.001 97v-129c-45.333 -8 -83 -30.667 -113 -68s-45 -80 -45 -128c0.666992 -48 19 -91.333 55 -130s80.667 -58.334 134 -59.001h430c-42.667 60 -64 129.667 -64 209s30.667 150.333 92 213s138.666 94 231.999 94z" />
    <glyph glyph-name="feeehar.fina" horiz-adv-x="1542" 
d="M1108 522c-49.333 0 -91.668 -21.333 -127.001 -64s-53 -88.667 -53 -138c0 -48 17.333 -92 52 -132s77.334 -59.667 128.001 -59c50.667 0 94 19.667 130 59c36 38.667 54 82.667 54 132s-18.333 95.333 -55 138s-79.667 64 -129 64zM1108 645
c92.667 0 170 -31.3311 232 -93.998c62.667 -62 94 -131.667 94 -209s-22 -148.333 -66 -213h174v-129h-1124c-90 0 -165 31.667 -225 95c-60.667 63.333 -91 139.666 -91 228.999s26.333 163.333 79 222c52.667 58 121.334 90.333 206.001 97v-129
c-45.333 -8 -83 -30.667 -113 -68s-45 -80 -45 -128c0.666992 -48 19 -91.333 55 -130s80.667 -58.334 134 -59.001h430c-42.667 60 -64 129.667 -64 209s30.667 150.333 92 213s138.666 94 231.999 94z" />
    <glyph glyph-name="Shada" horiz-adv-x="536" 
d="M168 80c-27.333 0 -59.332 -26.667 -95.999 -80l-74 47c52 80.667 111.333 121 178 121c24.667 0 54.667 -15 90 -45s62.666 -45 81.999 -45c35.333 0 75 36 119 108l72 -47c-93.333 -150 -192.333 -183.667 -297 -101c-35.333 28 -60 42 -74 42z" />
    <glyph glyph-name="Threepoints" horiz-adv-x="327" 
d="M257 143c20 0.666992 36.667 -6.33301 50 -21c14 -14.667 21 -32 21 -52s-6.66699 -36.667 -20 -50s-30.333 -20 -51 -20c-19.333 0 -36.333 6.66699 -51 20s-22 30 -22 50s7.33301 37.333 22 52c14.667 14 31.667 21 51 21zM73 143c20 0.666992 36.667 -6.33301 50 -21
s20 -32 20 -52s-6.66699 -36.667 -20 -50s-30 -20 -50 -20c-19.333 0 -36.333 6.66699 -51 20s-22 30 -22 50s7.33301 37.333 22 52c14.667 14 31.667 21 51 21zM92 214c0 20 7.33301 37.333 22 52s31.667 21.667 51 21c20 0 36.667 -7.33301 50 -22c14 -14 21 -31 21 -51
s-6.66699 -36.667 -20 -50s-30.333 -20 -51 -20c-19.333 0 -36.333 6.66699 -51 20s-22 30 -22 50z" />
    <glyph glyph-name="Twopoints" horiz-adv-x="327" 
d="M257 143c20 0.666992 36.667 -6.33301 50 -21c14 -14.667 21 -32 21 -52s-6.66699 -36.667 -20 -50s-30.333 -20 -51 -20c-19.333 0 -36.333 6.66699 -51 20s-22 30 -22 50s7.33301 37.333 22 52c14.667 14 31.667 21 51 21zM73 143c20 0.666992 36.667 -6.33301 50 -21
s20 -32 20 -52s-6.66699 -36.667 -20 -50s-30 -20 -50 -20c-19.333 0 -36.333 6.66699 -51 20s-22 30 -22 50s7.33301 37.333 22 52c14.667 14 31.667 21 51 21z" />
    <glyph glyph-name="fehA" horiz-adv-x="948" 
d="M522 522c-49.333 0 -92 -21.333 -128 -64s-54 -88.667 -54 -138c0 -48 17.667 -92 53 -132s78.333 -59.667 129 -59c50.667 0 93.667 19.667 129 59c35.333 38.667 53 82.667 53 132s-18 95.333 -54 138s-78.667 64 -128 64zM199 338c0 79.333 30.333 150.333 91 213
s137.667 94 231 94c94 0 171.667 -31.333 233 -94s92 -137.667 92 -225c0 -53.333 -12.333 -104 -37 -152v2c-66.667 -117.333 -163 -176 -289 -176h-540v129h282c-42 60 -63 129.667 -63 209z" />
    <glyph glyph-name="fehB" horiz-adv-x="956" 
d="M522 522c-49.333 0 -92 -21.333 -128 -64s-54 -88.667 -54 -138c0 -48 17.667 -92 53 -132s78.333 -59.667 129 -59c50.667 0 93.667 19.667 129 59c35.333 38.667 53 82.667 53 132s-18 95.333 -54 138s-78.667 64 -128 64zM199 338c0 79.333 30.333 150.333 91 213
s137.667 94 231 94c94 0 171.667 -31.333 233 -94c61.333 -63.333 92 -133 92 -209s-21.333 -147 -64 -213h174v-129h-976v129h282c-42 60 -63 129.667 -63 209z" />
    <glyph glyph-name="hamzasmall" horiz-adv-x="401" 
d="M264 354c52 0 97.667 -19.668 137 -59.001l-53 -74c-18.667 20.667 -40.667 34.667 -66 42s-49 4.33301 -71 -9s-33.667 -38.666 -35 -75.999c1.33301 -56 40.333 -88 117 -96h106v-82h-399v82h131c-46 57.333 -53.667 117 -23 179s82.667 93 156 93z" />
    <glyph glyph-name="points" horiz-adv-x="143" 
d="M73 143c20 0.666992 36.667 -6.33301 50 -21s20 -32 20 -52s-6.66699 -36.667 -20 -50s-30 -20 -50 -20c-19.333 0 -36.333 6.66699 -51 20s-22 30 -22 50s7.33301 37.333 22 52c14.667 14 31.667 21 51 21z" />
  </font>
</defs>
</svg>
