<svg xmlns="http://www.w3.org/2000/svg" width="286.3" height="191.189" viewBox="0 0 286.3 191.189"><g transform="translate(-25 -217)"><path d="M69.07,408.189c-9.643,0-24.954-5.272-34.833-18.1-11.336-14.794-12.2-37.931-2.795-55.2,8.226-15.109,22.041-21.562,24.8-22.821,31.606-14.086,55.182,13.142,71.634.787,17.476-13.142,0-50.758,26.8-78.695a47.182,47.182,0,0,1,6.376-5.745c24.875-18.178,59.079-9.561,65.022-8.066,8.344,2.085,27.394,7.2,42.469,25.025,3.582,4.249,16.925,20.027,17.2,41.708.276,22.192-14.484,32.5-8.265,42.928,5.274,8.774,16.846,3.659,26.41,14.4,10.706,12,6.77,30.337,6.416,31.989-3.464,15.109-15.862,27.189-32,31.714Q173.687,408.228,69.07,408.189Z" fill="#f9f9f9"/><path d="M292.664,679.428a2.628,2.628,0,1,0,2.629-2.627A2.628,2.628,0,0,0,292.664,679.428Zm.876,0a1.752,1.752,0,1,1,1.752,1.752A1.752,1.752,0,0,1,293.54,679.428Z" transform="translate(-181.366 -311.557)" fill="#4a4a4a" fill-rule="evenodd"/><path d="M619.531,715.6a2.629,2.629,0,1,0,2.629-2.627A2.628,2.628,0,0,0,619.531,715.6Zm.876,0a1.752,1.752,0,0,1,1.753-1.752v0a1.751,1.751,0,1,1-1.753,1.75Z" transform="translate(-402.848 -336.067)" fill="#4a4a4a" fill-rule="evenodd"/><path d="M402.263,722.391a2.628,2.628,0,1,0,2.628-2.627A2.628,2.628,0,0,0,402.263,722.391Zm.876,0a1.752,1.752,0,1,1,1.752,1.752A1.752,1.752,0,0,1,403.139,722.391Z" transform="translate(-255.63 -340.668)" fill="#4a4a4a" fill-rule="evenodd"/><path d="M89.554,476.3a2.628,2.628,0,1,0,2.628-2.627A2.628,2.628,0,0,0,89.554,476.3Zm.876,0a1.752,1.752,0,0,1,1.752-1.752v0a1.751,1.751,0,1,1-1.752,1.75Z" transform="translate(-43.741 -173.92)" fill="#fff" fill-rule="evenodd"/><path d="M323.4,311.938a2.628,2.628,0,1,0,2.629-2.627A2.628,2.628,0,0,0,323.4,311.938Zm.876,0a1.752,1.752,0,0,1,1.752-1.752v0a1.751,1.751,0,1,1-1.752,1.75Z" transform="translate(-202.196 -62.549)" fill="#fff" fill-rule="evenodd"/><path d="M181.342,682.438a2.629,2.629,0,1,0,2.629-2.628A2.628,2.628,0,0,0,181.342,682.438Zm.876,0a1.752,1.752,0,1,1,1.752,1.752A1.752,1.752,0,0,1,182.218,682.437Z" transform="translate(-105.936 -313.596)" fill="#4a4a4a" fill-rule="evenodd"/><g transform="translate(59.145 341.413)"><path d="M428.738,602.885H362.7v17.389h66.037a8.694,8.694,0,1,0,0-17.389Z" transform="translate(-287.968 -602.885)" fill="#4a4a4a" opacity="0.7"/><path d="M139.6,602.885a8.694,8.694,0,1,0,0,17.389h66.035V602.885Z" transform="translate(-130.905 -602.885)" fill="#4a4a4a"/></g><g transform="translate(232.378 263.483)" opacity="0.8"><path d="M706.005,361.175h-37.02a.777.777,0,0,0-.773.773V393.8l9.8-9.811h27.99a.773.773,0,0,0,.771-.772V361.948a.775.775,0,0,0-.771-.773Z" transform="translate(-668.212 -361.175)" fill="#4a4a4a"/></g><rect width="29.1" height="1.889" rx="0.944" transform="translate(237.611 269.329)" fill="#f9f9f9"/><rect width="26.647" height="1.889" rx="0.944" transform="translate(240.611 273.835)" fill="#f9f9f9"/><rect width="21.253" height="1.889" rx="0.944" transform="translate(245.611 278.338)" fill="#f9f9f9"/><g transform="translate(88.364 255.196)" opacity="0.25"><path d="M240.733,335.472h-18.81a.394.394,0,0,0-.392.393v16.183l4.981-4.981h14.222a.393.393,0,0,0,.392-.393V335.865A.393.393,0,0,0,240.733,335.472Z" transform="translate(-221.531 -335.472)" fill="#fff"/></g><rect width="15.294" height="0.959" rx="0.48" transform="translate(90.514 258.167)" fill="#fff"/><rect width="13.54" height="0.959" rx="0.48" transform="translate(90.514 260.456)" fill="#fff"/><rect width="10.799" height="0.959" rx="0.48" transform="translate(90.514 262.745)" fill="#fff"/><g transform="translate(78.113 231.8)" opacity="0.8"><path d="M215.031,262.9H190.263a.526.526,0,0,0-.526.526v21.3l6.558-6.563h18.736a.526.526,0,0,0,.526-.517V263.421A.526.526,0,0,0,215.031,262.9Z" transform="translate(-189.737 -262.904)" fill="#4a4a4a"/></g><rect width="20.138" height="1.265" rx="0.632" transform="translate(80.954 235.711)" fill="#f9f9f9"/><rect width="17.829" height="1.265" rx="0.632" transform="translate(82.954 238.726)" fill="#f9f9f9"/><rect width="14.22" height="1.265" rx="0.632" transform="translate(86.954 241.739)" fill="#f9f9f9"/><g transform="translate(193.605 238.435)" opacity="0.8"><path d="M548.6,283.483h31.325a.656.656,0,0,1,.654.654v26.946l-8.3-8.3H548.6a.654.654,0,0,1-.652-.654V284.137A.654.654,0,0,1,548.6,283.483Z" transform="translate(-547.952 -283.483)" fill="#4a4a4a"/></g><rect width="25.468" height="1.6" rx="0.8" transform="translate(222.655 244.978) rotate(180)" fill="#f9f9f9"/><rect width="22.548" height="1.6" rx="0.8" transform="translate(222.653 248.791) rotate(180)" fill="#f9f9f9"/><rect width="17.983" height="1.6" rx="0.8" transform="translate(222.655 252.602) rotate(180)" fill="#f9f9f9"/><g transform="translate(138.621 227.317)"><rect width="28.666" height="48.538" rx="5.54" fill="#e7e7e7"/></g><path d="M398.536,358.084a4.193,4.193,0,1,0-6.54,3.475,2.453,2.453,0,0,1,4.7,0A4.193,4.193,0,0,0,398.536,358.084Z" transform="translate(-247.423 -92.754)" fill="#17e59e"/><path d="M398.219,372.283a2.453,2.453,0,0,0-2.348,1.74,4.2,4.2,0,0,0,4.7,0A2.453,2.453,0,0,0,398.219,372.283Z" transform="translate(-251.298 -105.218)" fill="#fff"/><path d="M399.788,364.033a1.6,1.6,0,1,0-1.6-1.6A1.6,1.6,0,0,0,399.788,364.033Z" transform="translate(-252.867 -97.456)" fill="#fff"/><path d="M398.536,323.051a4.193,4.193,0,1,0-6.54,3.474,2.453,2.453,0,0,1,4.7,0A4.189,4.189,0,0,0,398.536,323.051Z" transform="translate(-247.423 -69.016)" fill="#ff9e01"/><path d="M398.219,337.256a2.454,2.454,0,0,0-2.348,1.738,4.2,4.2,0,0,0,4.7,0A2.454,2.454,0,0,0,398.219,337.256Z" transform="translate(-251.298 -81.484)" fill="#fff"/><path d="M399.788,329a1.6,1.6,0,1,0-1.6-1.6A1.6,1.6,0,0,0,399.788,329Z" transform="translate(-252.867 -73.718)" fill="#fff"/><rect width="24.092" height="2.396" rx="1.198" transform="translate(140.908 230.013)" fill="#ff9e01"/><rect width="9.953" height="1.6" rx="0.8" transform="translate(163.256 266.128) rotate(180)" fill="#4262ff"/><path d="M398.536,288.16a4.193,4.193,0,1,0-6.54,3.475,2.453,2.453,0,0,1,4.7,0A4.19,4.19,0,0,0,398.536,288.16Z" transform="translate(-247.423 -45.374)" fill="#17e59e"/><path d="M398.219,302.349a2.453,2.453,0,0,0-2.348,1.738,4.2,4.2,0,0,0,4.7,0A2.453,2.453,0,0,0,398.219,302.349Z" transform="translate(-251.298 -57.832)" fill="#fff"/><path d="M399.788,294.109a1.6,1.6,0,1,0-1.6-1.6A1.6,1.6,0,0,0,399.788,294.109Z" transform="translate(-252.867 -50.076)" fill="#fff"/><rect width="9.953" height="1.6" rx="0.8" transform="translate(163.256 243.586) rotate(180)" fill="#4262ff"/><rect width="9.953" height="1.6" rx="0.8" transform="translate(163.256 254.477) rotate(180)" fill="#4262ff"/><g transform="translate(39.86 257.523)" opacity="0.8"><path d="M71.863,342.69h37.021a.775.775,0,0,1,.773.773V375.31l-9.8-9.809H71.863a.775.775,0,0,1-.771-.773V343.463A.775.775,0,0,1,71.863,342.69Z" transform="translate(-71.092 -342.69)" fill="#4a4a4a"/></g><path d="M151.545,374.067a3,3,0,1,0-3-3A3,3,0,0,0,151.545,374.067Z" transform="translate(-83.713 -102.358)" fill="#f9f9f9"/><path d="M124.589,374.067a3,3,0,1,0-3-3A3,3,0,0,0,124.589,374.067Z" transform="translate(-65.448 -102.358)" fill="#f9f9f9"/><path d="M97.639,374.067a3,3,0,1,0-3-3A3,3,0,0,0,97.639,374.067Z" transform="translate(-47.187 -102.358)" fill="#f9f9f9"/><path d="M703.747,633.995s15.008,11.059,16.788,9.938,7.506-15.406,6.183-16.066-7.807,3.169-7.807,3.169l-9.658-5.129Z" transform="translate(-459.912 -277.072)" fill="#21243d"/><path d="M488.142,536.536l18.833-7.764a2.851,2.851,0,0,1,2.885.426c1.271,1,3.272,2.514,5.193,3.719,3.154,1.974,45.753,25.819,45.753,25.819l-10.042,15.256s-41.156-30.545-43.673-29.138c-2.979,1.663-28.974,8.015-28.974,8.015s-11.982,2.54-6.421-18.92" transform="translate(-301.678 -211.108)" fill="#ed7715"/><path d="M436.788,575.734l21.29,11.676-14.823,44.26,14.991.028s13.433-50.6,12.592-52.5c-.419-.942-18.272-12.417-27.492-21.547-5.017-4.973-15.461-4.32-15.948-2.1-2.335,10.562,5.268,18.105,9.392,20.2" transform="translate(-272.365 -228.262)" fill="#ff9e01"/><path d="M587.494,457.6a1.226,1.226,0,0,1-.983-1.959l10.832-14.556a1.227,1.227,0,1,1,1.968,1.464l-10.832,14.556A1.227,1.227,0,0,1,587.494,457.6Z" transform="translate(-380.31 -151.503)" fill="#21243d"/><path d="M521.763,401.774s-.9-2.24-1.476-.862-.484,2.619.137,2.692,1.216-.876,1.216-.876Z" transform="translate(-335.341 -124.314)" fill="#ff9494"/><path d="M511.138,413.128l-6.355,6.846-5.368,4.013-3.747-4.746,3.055-3.693,6.3-9.7Z" transform="translate(-318.92 -127.962)" fill="#ff9494"/><path d="M534.854,387.589c.149,1.4-1.227,2.258-1.6,3.653a50.281,50.281,0,0,0-1.069,7.168c-.089.985-.414,3.617-1.206,4.555-.543.648-1.348-1.543-1.725-.916-1.185,1.974-4.181,4.112-4.772,3.919-1.118-.368-1.851-2.726-2.208-3.679a13.339,13.339,0,0,1-.791-5.886,29.032,29.032,0,0,1,1.081-6.948,38.435,38.435,0,0,1,2.164-5.336c.783-1.436,2.82.452,4.22-.089,2.3-.886,4.264.489,5.361,2.4A3.975,3.975,0,0,1,534.854,387.589Z" transform="translate(-336.373 -112.865)" fill="#fdb4b1"/><path d="M533.833,435.414a3.29,3.29,0,0,0,1.381.322.121.121,0,0,0,0-.24,2.627,2.627,0,0,1-1.947-.86,1.728,1.728,0,0,1-.317-1.6.118.118,0,0,0,0-.091.117.117,0,0,0-.064-.065.119.119,0,0,0-.158.063,1.947,1.947,0,0,0,.351,1.832A2.059,2.059,0,0,0,533.833,435.414Z" transform="translate(-343.969 -146.272)" fill="#94163d"/><path d="M537.435,383.958a3.64,3.64,0,0,1-.757,1.326,1.252,1.252,0,0,1-1.872-.08c-.906-.859-1.265-2.211-2.266-2.957a1.013,1.013,0,0,0-.564-.242,1.537,1.537,0,0,0-.782.32c-1.447.876-3.288.669-4.926.259a2.061,2.061,0,0,0-1.011-.087c-.561.143-.876.722-1.244,1.167s-1.087.781-1.5.371a1.244,1.244,0,0,1-.277-.7l-.263-1.5c-.207-1.167-.321-2.591.62-3.309.228-.175.5-.286.725-.456.766-.571.934-1.673,1.612-2.349a4.188,4.188,0,0,1,3.1-.823,1.226,1.226,0,0,1,.787.238c.245.224.3.615.575.808a.769.769,0,0,0,.684.065,9.33,9.33,0,0,0,1.616-1.1c1.149-.682,1.8-.018,2.48.834a21.8,21.8,0,0,0,1.733,1.906c.743.731,1.539,1.153,1.7,2.286A9.14,9.14,0,0,1,537.435,383.958Z" transform="translate(-336.649 -106.804)" fill="#21243d"/><path d="M547.418,405.8l.032.012a.081.081,0,0,0,.1-.053.076.076,0,0,0,0-.063,2.716,2.716,0,0,1,.538-.119,1.018,1.018,0,0,1,1.127.62.081.081,0,0,0,.143.029.081.081,0,0,0,.005-.087,1.2,1.2,0,0,0-1.3-.72c-.649.1-.7.175-.714.264A.121.121,0,0,0,547.418,405.8Z" transform="translate(-353.939 -127.659)" fill="#35393a"/><path d="M548.551,409.595a.4.4,0,0,0-.221-.492.411.411,0,0,0-.573.427c.009.294.4.582.561.526S548.713,409.765,548.551,409.595Z" transform="translate(-354.215 -130.141)" fill="#35393a"/><path d="M571.9,471.252a45.566,45.566,0,0,0,8-5.094c3.042-2.642,2.76-4.4,1.866-4.178l-.892.215s.987-.957.275-1.2a1.975,1.975,0,0,0-1.039-.152s.791-.979-.105-1.149l-.9-.175s.647-1.687-.624-1.032-6.791,5.081-7.424,4.339-.366-2.135.825-3.022,1.09-2.957-.35-2.086a5.866,5.866,0,0,0-3.03,3.462,16.551,16.551,0,0,0-.046,4.371l-8.6,5.709,2.76,6.132Z" transform="translate(-362.423 -162.966)" fill="#fdb4b1"/><path d="M455.464,444.083c2.341,1.391,2.3,6.006,2.418,8.383.31,6.186-1.444,12.163-2.864,18.133-1.309,5.515-2.033,8.088-2.04,8.114-.691,2.2-18.85-1.834-23.736-.725a.792.792,0,0,1-.952-.89c.876-6.035,3.973-26.053,7.424-31.169,4.078-6.044,15.382-7.817,15.382-7.817A10.87,10.87,0,0,0,455.464,444.083Z" transform="translate(-273.26 -149.824)" fill="#274dd8"/><path d="M478.818,448.21s6.377,23.049,8.459,23.3S503,460.881,503.819,460.648s8.465,8.878,6.378,9.448-24.937,17.143-28.2,16.437-10.719-23.2-11.455-26.924S475.821,442.522,478.818,448.21Z" transform="translate(-301.851 -155.724)" fill="#4262ff"/><path d="M262.955,384.776s.083-7.635,8.687-4.768c6,2,7.115,6.912,14.206,23.553s22.432,9.555,22.432,9.555,5.308,3.136,0,7.577c-5.911,4.947-1.53,7.578-6.586,8.525a11,11,0,0,1-8.3-1.533L273.742,411.3" transform="translate(-161.236 -110.016)" fill="#21243d"/><path d="M290.612,414.585s.824-2.277,1.444-.911.573,2.6-.044,2.694-1.246-.836-1.246-.836Z" transform="translate(-179.976 -132.968)" fill="#ff9494"/><path d="M268.815,417.271l6.544,6.662,5.394,3.922,3.2-4.539-3.176-3.591-6.705-9.411Z" transform="translate(-165.207 -130.989)" fill="#ff9494"/><path d="M259.419,406.875c.314,1.3,1.192,2.91,1.248,5.015a10.224,10.224,0,0,0,.1,2.883c.147.646,1.432-.01,1.753.456,1,1.468,3.7,2.845,4.278,2.612,1.085-.439,1.928-2.452,2.336-3.279a10.646,10.646,0,0,0,1.134-4.916,18.727,18.727,0,0,0-.576-5.553,22.7,22.7,0,0,0-1.709-4.1c-.65-1.079-2.708.722-4,.455-2.128-.439-3.1.646-4.269,2.349C259.171,403.58,259.159,405.78,259.419,406.875Z" transform="translate(-158.728 -123.759)" fill="#fdb4b1"/><path d="M273.406,438.556a3.256,3.256,0,0,1-1.369.368.119.119,0,1,1,0-.238,2.6,2.6,0,0,0,1.915-.927,1.727,1.727,0,0,0,.263-1.608.12.12,0,0,1,.217-.1,1.946,1.946,0,0,1-.28,1.843A2.068,2.068,0,0,1,273.406,438.556Z" transform="translate(-167.309 -148.379)" fill="#94163d"/><path d="M264.884,421.805l-.03.014a.081.081,0,0,1-.1-.112,2.832,2.832,0,0,0-.542-.1,1.022,1.022,0,0,0-1.106.657.077.077,0,0,1-.039.046.078.078,0,0,1-.06,0,.081.081,0,0,1-.051-.1,1.2,1.2,0,0,1,1.276-.765c.652.079.714.159.722.24A.121.121,0,0,1,264.884,421.805Z" transform="translate(-161.235 -138.525)" fill="#35393a"/><path d="M266.315,425.608a.406.406,0,0,1,.205-.5.412.412,0,0,1,.587.408c0,.294-.38.594-.542.547S266.16,425.783,266.315,425.608Z" transform="translate(-163.479 -140.982)" fill="#35393a"/><g transform="translate(105.694 283.545)" opacity="0.42"><path d="M276.825,426.482a1.542,1.542,0,1,0-1.542-1.542A1.542,1.542,0,0,0,276.825,426.482Z" transform="translate(-275.283 -423.399)" fill="#fe5923"/></g><path d="M293.474,428.488c.217.494.482.753.743.753a.248.248,0,0,0,.049,0c.6-.084.755-1.505.58-2.8a6.481,6.481,0,0,0-.475-1.81c-.242-.527-.515-.787-.792-.75-.6.084-.746,1.5-.58,2.8A6.5,6.5,0,0,0,293.474,428.488Zm.144-4.353h.014c.1,0,.3.161.512.6a6.285,6.285,0,0,1,.452,1.734c.195,1.5-.074,2.467-.35,2.5-.112.014-.312-.135-.526-.6a6.3,6.3,0,0,1-.452-1.734C293.073,425.14,293.341,424.172,293.618,424.135Z" transform="translate(-181.55 -140.175)" fill="#fce63d" fill-rule="evenodd"/><path d="M291.122,449.757c-2.294,1.47-3.258,8.337-3.3,10.716-.1,6.193,5.693,11.143,7.314,17.061,1.495,5.467,2.352,4.959,2.361,4.986.876,2.493,16.06-8.808,16.605-5.571,0-.009-4.809-15.158-9.089-21.06a76.919,76.919,0,0,0-9.434-10.555A13.218,13.218,0,0,1,291.122,449.757Z" transform="translate(-178.087 -154.717)" fill="#17e59e"/><path d="M175.2,457.074s-2.8-4.1-4.918-3.9a46.3,46.3,0,0,0-5.773,1c-1.635.368-4.819,1.657-1.348,1.736,1.458.032,2.914.035,4.373.039a8.572,8.572,0,0,0,1.686,3.956c1.66,2.293.892.993,3.8,2.227s6.309,2.813,6.309,2.813l.817-2.843Z" transform="translate(-92.564 -160.026)" fill="#ff9494"/><path d="M225.646,459.67c-3.544,4.029-12.136,13.6-13.67,13.473-1.928-.163-12.268-10.2-12.956-10.569s-9.355,6.454-7.569,7.357,16.982,13.232,20.068,13.205,18.473-12.83,19.844-16.066-.4-13.748-4.194-9.155c0,0-.585.68-1.53,1.752" transform="translate(-112.621 -162.468)" fill="#18c482"/><path d="M252.231,400.768a1.838,1.838,0,0,0,.286.888,1.038,1.038,0,0,0,1.02.482c.655-.1,1.115-.759,1.6-1.244a17.2,17.2,0,0,1,2.042-1.876c1.752-1.265,3.4-.615,5.1,1.123a5.671,5.671,0,0,0,1.577,1.312.414.414,0,0,0,.393.019c.194-.13.186-.5.249-.78.159-.713.839-.946,1.088-1.6a1.714,1.714,0,0,0-.608-1.885,5.157,5.157,0,0,1-.48-.226c-.7-.473-.631-1.752-.8-2.545a1.06,1.06,0,0,0-.118-.337.418.418,0,0,0-.648-.049c-.189.161-.326.413-.526.538-.494.3-1.129-.235-1.684-.147a1.829,1.829,0,0,0-.906.641c-.338.35-.733.249-1.148-.04a11.655,11.655,0,0,0-.962-.713,1.42,1.42,0,0,0-.906-.161c-1.166.2-2.179,1.354-2.937,2.195A5.985,5.985,0,0,0,252.231,400.768Z" transform="translate(-153.959 -119.879)" fill="#21243d"/><path d="M260.226,402.893s0,1.843,1.4,2.206,2.184-.886,3.174-.028a5.222,5.222,0,0,0,3.105,1.51c1.407.191,2.659-1.843,2.659-1.843l.8-1.09v-.836l-7.164-2.577Z" transform="translate(-159.387 -124.159)" fill="#21243d"/><path d="M157.617,461.2a1.225,1.225,0,0,1-.692-.215l-11.917-8.179a1.227,1.227,0,0,1,1.39-2.022l11.917,8.179a1.226,1.226,0,0,1-.7,2.237Z" transform="translate(-80.955 -158.266)" fill="#21243d"/><path d="M82.03,665.689S72.435,672.871,70.9,672s-8.8-9.964-7.811-10.583,6.546,2.383,6.546,2.383l7.2-4.793Z" transform="translate(-25.748 -299.496)" fill="#21243d"/><path d="M89.656,594.289s-11.353,6.9-12.921,5.923-8.428-10.57-7.271-11.159,6.87,2.733,6.87,2.733l8.444-4.555Z" transform="translate(-30.039 -250.865)" fill="#21243d"/><path d="M185.979,520.291s-10.771,8.454-13.51,6.823c-9.639-5.732-23.4-15.1-26.722-13.419-4.273,2.146-44.558,24.926-44.558,24.926l3.458,12.076s39.98-27.294,42.728-25.717,26.146,16.872,33.061,14.938C195.33,535.752,187.581,521.263,185.979,520.291Z" transform="translate(-51.624 -200.904)" fill="#fe5923"/><path d="M178.567,537.633s-9.509,11.2-12.879,10.388c-11.849-2.852-29.05-8.058-32.222-5.513-4.075,3.274-41.856,36.6-41.856,36.6l6.766,10.72s36.318-37.612,39.679-36.853,32.48,9.017,39.453,5.21C192.547,549.984,180.541,538.127,178.567,537.633Z" transform="translate(-45.135 -217.258)" fill="#ed7715"/><path d="M316.627,543.535s-.819,2.82.666,3.567,16.142-6.958,16.176-7.883a6.786,6.786,0,0,0-.994-2.591s-10.077,5.753-11.93,6.131S316.627,543.535,316.627,543.535Z" transform="translate(-197.451 -216.577)" fill="#21243d"/><path d="M316.99,558.887l-1.065.559c-.627.328-1.45-.273-1.826-1.336l-.118-.333c-.379-1.063-.175-2.2.456-2.53l1.064-.557c.629-.329,1.451.272,1.828,1.335l.117.333C317.823,557.421,317.617,558.559,316.99,558.887Z" transform="translate(-195.682 -228.754)" fill="#fce63d"/><path d="M311.889,475.266l-.107-.13a.277.277,0,0,1-.044-.081c-.438-.876-9.288-16.339-12.1-18.569a5.486,5.486,0,0,0-4.329-1.16,3.81,3.81,0,0,0-2.72,1.88,2.5,2.5,0,0,0,.049,2.3.263.263,0,0,1-.471.233,3.011,3.011,0,0,1-.049-2.764,4.347,4.347,0,0,1,3.095-2.162,6.035,6.035,0,0,1,4.751,1.263c1.246.987,3.68,4.438,7.261,10.259,1.433,2.337,2.7,4.49,3.5,5.884,1.549,2.668,1.546,2.684,1.518,2.8l-.037.16Z" transform="translate(-180.782 -161.078)" fill="#fce63d"/><path d="M315.578,508.24a.264.264,0,0,1-.2-.093,117.378,117.378,0,0,1-7.552-9.985.263.263,0,1,1,.443-.28,116.923,116.923,0,0,0,7.512,9.926.263.263,0,0,1-.2.433Z" transform="translate(-191.605 -190.229)" fill="#fce63d"/><path d="M316.7,510.53a1.934,1.934,0,0,1,.708-2.643l12.872-7.429a1.934,1.934,0,0,1,2.642.708l4.035,6.986a1.934,1.934,0,0,1-.708,2.643l-12.872,7.429a1.934,1.934,0,0,1-2.642-.708Z" transform="translate(-197.477 -191.893)" fill="#fce63d"/><path d="M603.306,421.806a.351.351,0,0,1-.324-.221c-.042-.107-1.021-2.6-.032-4.139a2.671,2.671,0,0,1,2.278-1.131c3.826-.184,4.38-.315,5.534-2.153a2.791,2.791,0,0,1,2.1-1.349c1.486-.164,3.285.7,4.934,2.361a.351.351,0,0,1-.5.494c-1.475-1.491-3.106-2.3-4.359-2.158a2.076,2.076,0,0,0-1.592,1.023c-1.363,2.174-2.309,2.3-6.094,2.48a2,2,0,0,0-1.724.811c-.794,1.226.084,3.478.093,3.5a.35.35,0,0,1-.2.454A.33.33,0,0,1,603.306,421.806Z" transform="translate(-391.314 -132.669)" fill="#4a4a4a"/><path d="M595.083,413.546a.351.351,0,0,1-.35-.319c-.009-.086-.165-2.147,2.337-3.941s5.678-.1,5.811-.023a.35.35,0,1,1-.34.613c-.028-.016-2.908-1.566-5.063-.021s-2.05,3.291-2.048,3.309a.35.35,0,0,1-.317.382Z" transform="translate(-386.042 -129.736)" fill="#4a4a4a"/><path d="M588.2,405.471a.349.349,0,0,1-.277-.133,3.6,3.6,0,0,1-.144-3.5c.859-2.184,3.585-2.408,3.7-2.415a.351.351,0,1,1,.049.7c-.038,0-2.4.2-3.1,1.974a2.907,2.907,0,0,0,.044,2.8.36.36,0,0,1-.275.575Z" transform="translate(-381.093 -123.606)" fill="#4a4a4a"/><path d="M162.752,682.409a38.435,38.435,0,0,0,11.821,1.752,60.4,60.4,0,0,0,13.322-1.624l.876-.2.048-.011c2.322-.526,4.838-1.1,7.354-1.816.851.364,1.677.667,2.407.91a43.659,43.659,0,0,0,14.663,1.9c7.046-.108,14.69-1.573,23.372-4.477a180.938,180.938,0,0,0,33.612-15.588c8.52-4.97,16.787-10.68,24.782-16.2q2.351-1.627,4.7-3.242a.35.35,0,1,0-.4-.576q-2.355,1.619-4.7,3.242c-7.984,5.515-16.241,11.218-24.738,16.173a179.145,179.145,0,0,1-33.48,15.521c-8.618,2.881-16.187,4.333-23.16,4.44a43.151,43.151,0,0,1-14.429-1.867c-.483-.161-1.009-.349-1.556-.564,4.419-1.349,8.758-3.2,11.973-6.13a5.172,5.172,0,0,0,1.894-3.652,4.872,4.872,0,0,0-1.6-3.535c-2.912-2.909-9.123-2.821-13.49-1.264-4.1,1.464-6.624,4.062-6.931,7.127-.337,3.38,2.871,5.78,6.085,7.316-2.249.616-4.485,1.123-6.563,1.592l-.876.2c-9.61,2.179-17.711,2.151-24.768-.1a27.767,27.767,0,0,1-14.755-10.987c-5.591-8.281-7.756-20.2,0-28.172,6.924-7.116,17.572-8.806,23.3-9.181a46.019,46.019,0,0,1,4.815-.065.351.351,0,0,0,.026-.7,47.062,47.062,0,0,0-4.886.066c-5.83.382-16.67,2.109-23.759,9.392-8.033,8.249-5.829,20.536-.082,29.053A28.475,28.475,0,0,0,162.752,682.409Zm33.512-16.136a17.911,17.911,0,0,1,5.945-1.028v0c2.859,0,5.419.734,6.8,2.126a4.179,4.179,0,0,1,1.4,3.023,4.5,4.5,0,0,1-1.664,3.152c-3.317,3.023-7.909,4.878-12.532,6.218-3.24-1.415-6.747-3.715-6.425-6.953C190.072,670.023,192.431,667.641,196.264,666.273Z" transform="translate(-79.598 -281.608)" fill="#4a4a4a" fill-rule="evenodd"/><g transform="translate(78.3 -34.811)"><g transform="translate(163 281)"><rect width="16" height="16" fill="none"/><path d="M3.291,0,1.975,3.949H3.291V7.24H0V3.949L1.316,0Z" transform="translate(12.409 11.847) rotate(180)" fill="#4a4a4a" fill-rule="evenodd"/><path d="M3.291,0,1.975,3.949H3.291V7.24H0V3.949L1.316,0Z" transform="translate(7.144 11.847) rotate(180)" fill="#4a4a4a" fill-rule="evenodd" opacity="0.3"/></g></g><g transform="translate(74.3 23.189)"><g transform="translate(163 281)"><rect width="16" height="16" fill="none"/><path d="M3.291,0,1.975,3.949H3.291V7.24H0V3.949L1.316,0Z" transform="translate(12.409 11.847) rotate(180)" fill="#4a4a4a" fill-rule="evenodd"/><path d="M3.291,0,1.975,3.949H3.291V7.24H0V3.949L1.316,0Z" transform="translate(7.144 11.847) rotate(180)" fill="#4a4a4a" fill-rule="evenodd" opacity="0.3"/></g></g><g transform="translate(-64.7 -28.811)"><g transform="translate(163 281)"><rect width="16" height="16" fill="none"/><path d="M3.291,0,1.975,3.949H3.291V7.24H0V3.949L1.316,0Z" transform="translate(12.409 11.847) rotate(180)" fill="#4a4a4a" fill-rule="evenodd"/><path d="M3.291,0,1.975,3.949H3.291V7.24H0V3.949L1.316,0Z" transform="translate(7.144 11.847) rotate(180)" fill="#4a4a4a" fill-rule="evenodd" opacity="0.3"/></g></g></g></svg>